<?xml version="1.0" encoding="utf-8" standalone="no"?>
<!DOCTYPE svg PUBLIC "-//W3C//DTD SVG 1.1//EN"
  "http://www.w3.org/Graphics/SVG/1.1/DTD/svg11.dtd">
<svg xmlns:xlink="http://www.w3.org/1999/xlink" width="504pt" height="360pt" viewBox="0 0 504 360" xmlns="http://www.w3.org/2000/svg" version="1.1">
 <metadata>
  <rdf:RDF xmlns:dc="http://purl.org/dc/elements/1.1/" xmlns:cc="http://creativecommons.org/ns#" xmlns:rdf="http://www.w3.org/1999/02/22-rdf-syntax-ns#">
   <cc:Work>
    <dc:type rdf:resource="http://purl.org/dc/dcmitype/StillImage"/>
    <dc:date>2025-01-12T15:56:24.703017</dc:date>
    <dc:format>image/svg+xml</dc:format>
    <dc:creator>
     <cc:Agent>
      <dc:title>Matplotlib v3.5.3, https://matplotlib.org/</dc:title>
     </cc:Agent>
    </dc:creator>
   </cc:Work>
  </rdf:RDF>
 </metadata>
 <defs>
  <style type="text/css">*{stroke-linejoin: round; stroke-linecap: butt}</style>
 </defs>
 <g id="figure_1">
  <g id="patch_1">
   <path d="M 0 360 
L 504 360 
L 504 0 
L 0 0 
z
" style="fill: #ffffff"/>
  </g>
  <g id="axes_1">
   <g id="patch_2">
    <path d="M 63 320.4 
L 453.6 320.4 
L 453.6 43.2 
L 63 43.2 
z
" style="fill: #ffffff"/>
   </g>
   <g id="matplotlib.axis_1">
    <g id="xtick_1">
     <g id="line2d_1">
      <path d="M 80.754545 320.4 
L 80.754545 43.2 
" clip-path="url(#p761410165a)" style="fill: none; stroke: #b0b0b0; stroke-width: 0.8; stroke-linecap: square"/>
     </g>
     <g id="line2d_2">
      <defs>
       <path id="mf42ebc8bac" d="M 0 0 
L 0 3.5 
" style="stroke: #000000; stroke-width: 0.8"/>
      </defs>
      <g>
       <use xlink:href="#mf42ebc8bac" x="80.754545" y="320.4" style="stroke: #000000; stroke-width: 0.8"/>
      </g>
     </g>
     <g id="text_1">
      <!-- 0 -->
      <g transform="translate(78.254545 334.275)scale(0.1 -0.1)">
       <defs>
        <path id="SimHei-30" d="M 225 2537 
Q 250 3200 412 3587 
Q 575 3975 875 4225 
Q 1175 4475 1612 4475 
Q 2050 4475 2375 4112 
Q 2700 3750 2800 3200 
Q 2900 2650 2862 1937 
Q 2825 1225 2612 775 
Q 2400 325 1975 150 
Q 1550 -25 1125 187 
Q 700 400 525 750 
Q 350 1100 275 1487 
Q 200 1875 225 2537 
z
M 750 2687 
Q 675 2000 800 1462 
Q 925 925 1212 700 
Q 1500 475 1800 612 
Q 2100 750 2237 1162 
Q 2375 1575 2375 2062 
Q 2375 2550 2337 2950 
Q 2300 3350 2112 3675 
Q 1925 4000 1612 4012 
Q 1300 4025 1062 3700 
Q 825 3375 750 2687 
z
" transform="scale(0.015625)"/>
       </defs>
       <use xlink:href="#SimHei-30"/>
      </g>
     </g>
    </g>
    <g id="xtick_2">
     <g id="line2d_3">
      <path d="M 148.390909 320.4 
L 148.390909 43.2 
" clip-path="url(#p761410165a)" style="fill: none; stroke: #b0b0b0; stroke-width: 0.8; stroke-linecap: square"/>
     </g>
     <g id="line2d_4">
      <g>
       <use xlink:href="#mf42ebc8bac" x="148.390909" y="320.4" style="stroke: #000000; stroke-width: 0.8"/>
      </g>
     </g>
     <g id="text_2">
      <!-- 100 -->
      <g transform="translate(140.890909 334.275)scale(0.1 -0.1)">
       <defs>
        <path id="SimHei-31" d="M 1400 3600 
Q 1075 3275 575 2975 
L 575 3450 
Q 1200 3875 1600 4450 
L 1900 4450 
L 1900 150 
L 1400 150 
L 1400 3600 
z
" transform="scale(0.015625)"/>
       </defs>
       <use xlink:href="#SimHei-31"/>
       <use xlink:href="#SimHei-30" x="50"/>
       <use xlink:href="#SimHei-30" x="100"/>
      </g>
     </g>
    </g>
    <g id="xtick_3">
     <g id="line2d_5">
      <path d="M 216.027273 320.4 
L 216.027273 43.2 
" clip-path="url(#p761410165a)" style="fill: none; stroke: #b0b0b0; stroke-width: 0.8; stroke-linecap: square"/>
     </g>
     <g id="line2d_6">
      <g>
       <use xlink:href="#mf42ebc8bac" x="216.027273" y="320.4" style="stroke: #000000; stroke-width: 0.8"/>
      </g>
     </g>
     <g id="text_3">
      <!-- 200 -->
      <g transform="translate(208.527273 334.275)scale(0.1 -0.1)">
       <defs>
        <path id="SimHei-32" d="M 300 250 
Q 325 625 650 925 
Q 975 1225 1475 1862 
Q 1975 2500 2125 2850 
Q 2275 3200 2237 3450 
Q 2200 3700 2000 3862 
Q 1800 4025 1537 4000 
Q 1275 3975 1037 3800 
Q 800 3625 675 3275 
L 200 3350 
Q 400 3925 712 4187 
Q 1025 4450 1450 4475 
Q 1700 4500 1900 4462 
Q 2100 4425 2312 4287 
Q 2525 4150 2662 3875 
Q 2800 3600 2762 3212 
Q 2725 2825 2375 2287 
Q 2025 1750 1025 600 
L 2825 600 
L 2825 150 
L 300 150 
L 300 250 
z
" transform="scale(0.015625)"/>
       </defs>
       <use xlink:href="#SimHei-32"/>
       <use xlink:href="#SimHei-30" x="50"/>
       <use xlink:href="#SimHei-30" x="100"/>
      </g>
     </g>
    </g>
    <g id="xtick_4">
     <g id="line2d_7">
      <path d="M 283.663636 320.4 
L 283.663636 43.2 
" clip-path="url(#p761410165a)" style="fill: none; stroke: #b0b0b0; stroke-width: 0.8; stroke-linecap: square"/>
     </g>
     <g id="line2d_8">
      <g>
       <use xlink:href="#mf42ebc8bac" x="283.663636" y="320.4" style="stroke: #000000; stroke-width: 0.8"/>
      </g>
     </g>
     <g id="text_4">
      <!-- 300 -->
      <g transform="translate(276.163636 334.275)scale(0.1 -0.1)">
       <defs>
        <path id="SimHei-33" d="M 250 1225 
L 700 1300 
Q 800 975 1025 762 
Q 1250 550 1587 562 
Q 1925 575 2125 837 
Q 2325 1100 2300 1437 
Q 2275 1775 2037 1962 
Q 1800 2150 1275 2225 
L 1275 2550 
Q 1800 2600 2037 2825 
Q 2275 3050 2250 3412 
Q 2225 3775 1925 3937 
Q 1625 4100 1287 3975 
Q 950 3850 750 3275 
L 300 3350 
Q 450 3800 712 4100 
Q 975 4400 1425 4450 
Q 1875 4500 2212 4337 
Q 2550 4175 2687 3837 
Q 2825 3500 2725 3100 
Q 2625 2700 2150 2400 
Q 2500 2250 2687 1950 
Q 2875 1650 2812 1162 
Q 2750 675 2375 375 
Q 2000 75 1525 87 
Q 1050 100 700 387 
Q 350 675 250 1225 
z
" transform="scale(0.015625)"/>
       </defs>
       <use xlink:href="#SimHei-33"/>
       <use xlink:href="#SimHei-30" x="50"/>
       <use xlink:href="#SimHei-30" x="100"/>
      </g>
     </g>
    </g>
    <g id="xtick_5">
     <g id="line2d_9">
      <path d="M 351.3 320.4 
L 351.3 43.2 
" clip-path="url(#p761410165a)" style="fill: none; stroke: #b0b0b0; stroke-width: 0.8; stroke-linecap: square"/>
     </g>
     <g id="line2d_10">
      <g>
       <use xlink:href="#mf42ebc8bac" x="351.3" y="320.4" style="stroke: #000000; stroke-width: 0.8"/>
      </g>
     </g>
     <g id="text_5">
      <!-- 400 -->
      <g transform="translate(343.8 334.275)scale(0.1 -0.1)">
       <defs>
        <path id="SimHei-34" d="M 2000 1100 
L 75 1100 
L 75 1525 
L 2100 4450 
L 2475 4450 
L 2475 1525 
L 3075 1525 
L 3075 1100 
L 2475 1100 
L 2475 150 
L 2000 150 
L 2000 1100 
z
M 2000 1525 
L 2000 3500 
L 600 1525 
L 2000 1525 
z
" transform="scale(0.015625)"/>
       </defs>
       <use xlink:href="#SimHei-34"/>
       <use xlink:href="#SimHei-30" x="50"/>
       <use xlink:href="#SimHei-30" x="100"/>
      </g>
     </g>
    </g>
    <g id="xtick_6">
     <g id="line2d_11">
      <path d="M 418.936364 320.4 
L 418.936364 43.2 
" clip-path="url(#p761410165a)" style="fill: none; stroke: #b0b0b0; stroke-width: 0.8; stroke-linecap: square"/>
     </g>
     <g id="line2d_12">
      <g>
       <use xlink:href="#mf42ebc8bac" x="418.936364" y="320.4" style="stroke: #000000; stroke-width: 0.8"/>
      </g>
     </g>
     <g id="text_6">
      <!-- 500 -->
      <g transform="translate(411.436364 334.275)scale(0.1 -0.1)">
       <defs>
        <path id="SimHei-35" d="M 550 1325 
Q 725 650 1150 575 
Q 1575 500 1837 662 
Q 2100 825 2212 1087 
Q 2325 1350 2312 1675 
Q 2300 2000 2137 2225 
Q 1975 2450 1725 2525 
Q 1475 2600 1162 2525 
Q 850 2450 650 2175 
L 225 2225 
Q 275 2375 700 4375 
L 2675 4375 
L 2675 3925 
L 1075 3925 
Q 950 3250 825 2850 
Q 1200 3025 1525 3012 
Q 1850 3000 2150 2862 
Q 2450 2725 2587 2487 
Q 2725 2250 2787 2012 
Q 2850 1775 2837 1500 
Q 2825 1225 2725 937 
Q 2625 650 2425 462 
Q 2225 275 1937 162 
Q 1650 50 1275 75 
Q 900 100 562 350 
Q 225 600 100 1200 
L 550 1325 
z
" transform="scale(0.015625)"/>
       </defs>
       <use xlink:href="#SimHei-35"/>
       <use xlink:href="#SimHei-30" x="50"/>
       <use xlink:href="#SimHei-30" x="100"/>
      </g>
     </g>
    </g>
   </g>
   <g id="matplotlib.axis_2">
    <g id="ytick_1">
     <g id="line2d_13">
      <path d="M 63 307.385575 
L 453.6 307.385575 
" clip-path="url(#p761410165a)" style="fill: none; stroke: #b0b0b0; stroke-width: 0.8; stroke-linecap: square"/>
     </g>
     <g id="line2d_14">
      <defs>
       <path id="m04cc71c8f5" d="M 0 0 
L -3.5 0 
" style="stroke: #000000; stroke-width: 0.8"/>
      </defs>
      <g>
       <use xlink:href="#m04cc71c8f5" x="63" y="307.385575" style="stroke: #000000; stroke-width: 0.8"/>
      </g>
     </g>
     <g id="text_7">
      <!-- 0 -->
      <g transform="translate(51 310.823075)scale(0.1 -0.1)">
       <use xlink:href="#SimHei-30"/>
      </g>
     </g>
    </g>
    <g id="ytick_2">
     <g id="line2d_15">
      <path d="M 63 248.182004 
L 453.6 248.182004 
" clip-path="url(#p761410165a)" style="fill: none; stroke: #b0b0b0; stroke-width: 0.8; stroke-linecap: square"/>
     </g>
     <g id="line2d_16">
      <g>
       <use xlink:href="#m04cc71c8f5" x="63" y="248.182004" style="stroke: #000000; stroke-width: 0.8"/>
      </g>
     </g>
     <g id="text_8">
      <!-- 200 -->
      <g transform="translate(41 251.619504)scale(0.1 -0.1)">
       <use xlink:href="#SimHei-32"/>
       <use xlink:href="#SimHei-30" x="50"/>
       <use xlink:href="#SimHei-30" x="100"/>
      </g>
     </g>
    </g>
    <g id="ytick_3">
     <g id="line2d_17">
      <path d="M 63 188.978433 
L 453.6 188.978433 
" clip-path="url(#p761410165a)" style="fill: none; stroke: #b0b0b0; stroke-width: 0.8; stroke-linecap: square"/>
     </g>
     <g id="line2d_18">
      <g>
       <use xlink:href="#m04cc71c8f5" x="63" y="188.978433" style="stroke: #000000; stroke-width: 0.8"/>
      </g>
     </g>
     <g id="text_9">
      <!-- 400 -->
      <g transform="translate(41 192.415933)scale(0.1 -0.1)">
       <use xlink:href="#SimHei-34"/>
       <use xlink:href="#SimHei-30" x="50"/>
       <use xlink:href="#SimHei-30" x="100"/>
      </g>
     </g>
    </g>
    <g id="ytick_4">
     <g id="line2d_19">
      <path d="M 63 129.774862 
L 453.6 129.774862 
" clip-path="url(#p761410165a)" style="fill: none; stroke: #b0b0b0; stroke-width: 0.8; stroke-linecap: square"/>
     </g>
     <g id="line2d_20">
      <g>
       <use xlink:href="#m04cc71c8f5" x="63" y="129.774862" style="stroke: #000000; stroke-width: 0.8"/>
      </g>
     </g>
     <g id="text_10">
      <!-- 600 -->
      <g transform="translate(41 133.212362)scale(0.1 -0.1)">
       <defs>
        <path id="SimHei-36" d="M 250 1612 
Q 275 1975 387 2225 
Q 500 2475 725 2850 
L 1750 4450 
L 2325 4450 
L 1275 2800 
Q 1950 2975 2350 2750 
Q 2750 2525 2887 2237 
Q 3025 1950 3037 1612 
Q 3050 1275 2937 950 
Q 2825 625 2537 362 
Q 2250 100 1737 75 
Q 1225 50 862 262 
Q 500 475 362 862 
Q 225 1250 250 1612 
z
M 1025 787 
Q 1250 550 1625 525 
Q 2000 500 2250 775 
Q 2500 1050 2500 1575 
Q 2500 2100 2187 2300 
Q 1875 2500 1487 2450 
Q 1100 2400 925 2075 
Q 750 1750 775 1387 
Q 800 1025 1025 787 
z
" transform="scale(0.015625)"/>
       </defs>
       <use xlink:href="#SimHei-36"/>
       <use xlink:href="#SimHei-30" x="50"/>
       <use xlink:href="#SimHei-30" x="100"/>
      </g>
     </g>
    </g>
    <g id="ytick_5">
     <g id="line2d_21">
      <path d="M 63 70.571291 
L 453.6 70.571291 
" clip-path="url(#p761410165a)" style="fill: none; stroke: #b0b0b0; stroke-width: 0.8; stroke-linecap: square"/>
     </g>
     <g id="line2d_22">
      <g>
       <use xlink:href="#m04cc71c8f5" x="63" y="70.571291" style="stroke: #000000; stroke-width: 0.8"/>
      </g>
     </g>
     <g id="text_11">
      <!-- 800 -->
      <g transform="translate(41 74.008791)scale(0.1 -0.1)">
       <defs>
        <path id="SimHei-38" d="M 175 1375 
Q 175 1675 325 1962 
Q 475 2250 825 2425 
Q 525 2600 425 2812 
Q 325 3025 312 3300 
Q 300 3575 387 3775 
Q 475 3975 650 4150 
Q 825 4325 1037 4387 
Q 1250 4450 1500 4450 
Q 1750 4450 1950 4400 
Q 2150 4350 2375 4187 
Q 2600 4025 2700 3725 
Q 2800 3425 2687 3025 
Q 2575 2625 2100 2400 
Q 2525 2275 2700 2012 
Q 2875 1750 2875 1375 
Q 2875 1000 2762 775 
Q 2650 550 2512 400 
Q 2375 250 2137 162 
Q 1900 75 1537 75 
Q 1175 75 912 162 
Q 650 250 475 425 
Q 300 600 237 837 
Q 175 1075 175 1375 
z
M 687 1400 
Q 675 1100 787 875 
Q 900 650 1200 587 
Q 1500 525 1825 600 
Q 2150 675 2275 950 
Q 2400 1225 2362 1500 
Q 2325 1775 2050 1962 
Q 1775 2150 1450 2125 
Q 1125 2100 912 1900 
Q 700 1700 687 1400 
z
M 775 3350 
Q 775 3100 950 2875 
Q 1125 2650 1500 2650 
Q 1875 2650 2062 2875 
Q 2250 3100 2237 3412 
Q 2225 3725 2012 3875 
Q 1800 4025 1437 4000 
Q 1075 3975 925 3787 
Q 775 3600 775 3350 
z
" transform="scale(0.015625)"/>
       </defs>
       <use xlink:href="#SimHei-38"/>
       <use xlink:href="#SimHei-30" x="50"/>
       <use xlink:href="#SimHei-30" x="100"/>
      </g>
     </g>
    </g>
   </g>
   <g id="line2d_23">
    <path d="M 80.754545 149.548855 
L 81.430909 214.672783 
L 82.107273 173.644708 
L 82.783636 225.56624 
L 83.46 214.850394 
L 84.136364 175.035992 
L 84.812727 182.910067 
L 85.489091 183.502103 
L 86.165455 175.509621 
L 86.841818 211.771808 
L 87.518182 239.33107 
L 88.194545 221.806813 
L 88.870909 189.244849 
L 89.547273 257.980195 
L 90.9 233.144297 
L 91.576364 231.397792 
L 92.252727 244.037754 
L 92.929091 179.15064 
L 93.605455 196.171667 
L 94.281818 230.272924 
L 94.958182 157.541337 
L 96.310909 59.529825 
L 96.987273 61.009914 
L 97.663636 66.90067 
L 98.34 113.49388 
L 99.016364 258.986656 
L 99.692727 185.811042 
L 100.369091 144.516551 
L 101.045455 208.752426 
L 101.721818 256.588911 
L 102.398182 225.477435 
L 103.074545 175.746435 
L 103.750909 200.671138 
L 104.427273 86.674662 
L 105.103636 182.821262 
L 105.78 158.42939 
L 106.456364 211.860613 
L 107.132727 128.501985 
L 107.809091 101.06113 
L 108.485455 99.877059 
L 109.161818 148.039164 
L 109.838182 123.262469 
L 111.190909 97.864137 
L 111.867273 72.554611 
L 112.543636 76.254834 
L 113.22 63.76288 
L 113.896364 57.043275 
L 114.572727 77.172489 
L 115.249091 103.606884 
L 115.925455 70.275273 
L 116.601818 87.207494 
L 117.278182 64.058898 
L 117.954545 71.725761 
L 118.630909 66.131023 
L 119.307273 66.515846 
L 119.983636 58.61217 
L 120.66 142.651639 
L 121.336364 56.95447 
L 122.012727 99.640244 
L 122.689091 70.364078 
L 123.365455 101.357148 
L 124.041818 100.646705 
L 124.718182 98.041748 
L 125.394545 87.562716 
L 126.070909 115.181182 
L 126.747273 81.020721 
L 127.423636 61.690755 
L 128.1 92.683825 
L 128.776364 71.932973 
L 129.452727 67.936732 
L 130.129091 87.000282 
L 130.805455 153.811512 
L 131.481818 253.155104 
L 132.158182 235.246024 
L 132.834545 227.697568 
L 133.510909 231.545801 
L 134.187273 130.248491 
L 134.863636 216.626501 
L 136.216364 307.740796 
L 137.569091 307.533584 
L 138.921818 307.533584 
L 139.598182 259.371479 
L 140.274545 238.117397 
L 140.950909 183.087678 
L 142.303636 266.327899 
L 142.98 164.497756 
L 143.656364 127.554728 
L 144.332727 146.470269 
L 145.009091 146.766287 
L 145.685455 121.160742 
L 146.361818 231.456995 
L 147.038182 279.175073 
L 147.714545 296.077693 
L 148.390909 288.292423 
L 149.067273 282.549677 
L 149.743636 294.005568 
L 150.42 307.563186 
L 151.096364 307.563186 
L 151.772727 245.014613 
L 152.449091 250.786961 
L 153.125455 197.000517 
L 153.801818 80.547093 
L 154.478182 72.199389 
L 155.154545 55.8 
L 155.830909 60.033055 
L 156.507273 208.782027 
L 157.183636 307.8 
L 157.86 205.585035 
L 158.536364 71.370539 
L 159.212727 62.993234 
L 159.889091 60.329073 
L 160.565455 56.984071 
L 161.241818 58.020134 
L 161.918182 112.221003 
L 162.594545 66.90067 
L 163.270909 60.7731 
L 163.947273 159.820674 
L 164.623636 206.265876 
L 165.3 215.442429 
L 165.976364 229.562481 
L 166.652727 241.018372 
L 167.329091 249.662093 
L 168.005455 247.767579 
L 168.681818 239.419875 
L 169.358182 214.051145 
L 170.034545 249.662093 
L 170.710909 218.876236 
L 171.387273 240.189522 
L 172.063636 236.992529 
L 172.74 178.558604 
L 174.092727 239.123858 
L 174.769091 232.256243 
L 175.445455 155.143592 
L 176.121818 162.484835 
L 176.798182 156.327664 
L 177.474545 156.031646 
L 178.150909 90.167673 
L 178.827273 100.646705 
L 179.503636 181.992412 
L 180.18 196.586092 
L 180.856364 191.553788 
L 181.532727 201.588794 
L 182.209091 229.325667 
L 182.885455 207.805169 
L 183.561818 181.074756 
L 184.238182 236.193281 
L 184.914545 216.892917 
L 185.590909 194.365958 
L 186.267273 231.812217 
L 186.943636 252.859086 
L 187.62 179.949888 
L 188.296364 271.389804 
L 188.972727 235.749254 
L 189.649091 265.321438 
L 190.325455 280.566357 
L 191.678182 228.05279 
L 192.354545 177.019312 
L 193.030909 191.90901 
L 193.707273 271.389804 
L 194.383636 185.070997 
L 195.06 178.854622 
L 195.736364 268.044802 
L 196.412727 296.580923 
L 197.089091 289.358088 
L 197.765455 277.872595 
L 198.441818 283.437731 
L 199.794545 307.592788 
L 201.823636 307.622389 
L 202.5 295.663268 
L 203.176364 290.364548 
L 203.852727 249.218066 
L 204.529091 286.368307 
L 205.205455 288.73645 
L 205.881818 279.293481 
L 206.558182 299.18588 
L 207.234545 285.805873 
L 207.910909 275.149231 
L 208.587273 174.532762 
L 209.263636 158.074169 
L 209.94 226.631904 
L 210.616364 90.522894 
L 211.292727 225.329426 
L 211.969091 271.863432 
L 212.645455 272.869893 
L 213.321818 293.591143 
L 213.998182 280.388747 
L 214.674545 262.272454 
L 215.350909 271.626618 
L 216.027273 307.355973 
L 216.703636 307.563186 
L 217.38 290.749372 
L 218.056364 259.815506 
L 218.732727 292.347868 
L 219.409091 293.916763 
L 220.085455 240.426336 
L 220.761818 253.539927 
L 221.438182 215.29442 
L 222.114545 108.757594 
L 222.790909 72.88023 
L 223.467273 60.477082 
L 224.143636 218.905838 
L 224.82 287.641184 
L 225.496364 215.738447 
L 226.172727 163.432092 
L 226.849091 90.818912 
L 227.525455 108.727992 
L 228.201818 273.846752 
L 228.878182 307.740796 
L 229.554545 307.740796 
L 230.230909 274.14277 
L 230.907273 234.269165 
L 231.583636 233.85474 
L 232.26 206.917115 
L 232.936364 221.185176 
L 233.612727 145.671021 
L 234.289091 220.829954 
L 234.965455 240.396734 
L 235.641818 241.492 
L 236.994545 247.974791 
L 237.670909 175.894444 
L 238.347273 204.134547 
L 239.023636 182.258828 
L 239.7 119.384635 
L 240.376364 115.033173 
L 241.052727 61.897968 
L 241.729091 73.827487 
L 242.405455 114.973969 
L 243.081818 307.563186 
L 246.463636 307.563186 
L 247.14 55.859204 
L 247.816364 57.901727 
L 248.492727 61.483543 
L 249.169091 56.066416 
L 249.845455 60.358675 
L 250.521818 55.8 
L 251.874545 66.042218 
L 252.550909 65.923811 
L 253.227273 58.523364 
L 253.903636 87.385105 
L 254.58 86.911477 
L 255.256364 150.910537 
L 255.932727 115.862023 
L 256.609091 111.658569 
L 257.285455 64.621332 
L 257.961818 135.310396 
L 258.638182 230.53934 
L 259.314545 253.74714 
L 259.990909 271.833831 
L 260.667273 280.388747 
L 261.343636 255.641654 
L 262.02 245.221825 
L 262.696364 273.047504 
L 263.372727 266.475907 
L 264.049091 242.202443 
L 264.725455 265.972677 
L 265.401818 276.570116 
L 266.078182 267.097545 
L 266.754545 241.788018 
L 268.107273 297.972207 
L 268.783636 301.761236 
L 269.46 307.622389 
L 270.136364 293.176718 
L 270.812727 301.524421 
L 271.489091 307.622389 
L 272.165455 232.641067 
L 272.841818 242.883284 
L 273.518182 241.432797 
L 274.870909 112.043392 
L 275.547273 238.709433 
L 276.223636 197.355738 
L 276.9 273.728345 
L 277.576364 277.517373 
L 278.252727 277.991002 
L 278.929091 206.591495 
L 279.605455 251.023775 
L 280.281818 243.090497 
L 280.958182 259.045859 
L 281.634545 207.124327 
L 282.310909 269.524891 
L 282.987273 242.350452 
L 283.663636 166.629085 
L 284.34 248.77404 
L 285.016364 183.265288 
L 285.692727 216.537695 
L 286.369091 230.095313 
L 287.045455 205.377822 
L 287.721818 274.527593 
L 288.398182 213.873535 
L 289.750909 171.987008 
L 290.427273 175.953647 
L 291.103636 237.969388 
L 291.78 209.758886 
L 292.456364 249.395677 
L 293.132727 231.723411 
L 293.809091 292.584682 
L 295.161818 287.641184 
L 295.838182 291.815036 
L 296.514545 307.592788 
L 297.867273 307.533584 
L 301.249091 307.563186 
L 301.925455 307.651991 
L 303.278182 307.592788 
L 303.954545 307.651991 
L 304.630909 307.563186 
L 307.336364 307.592788 
L 308.012727 307.563186 
L 308.689091 299.00827 
L 309.365455 307.533584 
L 310.041818 294.331188 
L 310.718182 304.247786 
L 311.394545 307.533584 
L 316.129091 307.622389 
L 316.805455 303.359732 
L 317.481818 307.563186 
L 324.921818 307.592788 
L 325.598182 306.379114 
L 326.274545 307.563186 
L 326.950909 293.679948 
L 327.627273 289.654105 
L 328.303636 289.506097 
L 328.98 295.160038 
L 329.656364 285.184236 
L 330.332727 307.563186 
L 331.009091 307.592788 
L 331.685455 295.04163 
L 332.361818 298.978668 
L 333.038182 307.622389 
L 333.714545 307.533584 
L 335.067273 307.563186 
L 335.743636 307.740796 
L 336.42 307.563186 
L 337.772727 307.563186 
L 339.125455 258.927452 
L 339.801818 189.540867 
L 340.478182 211.890215 
L 341.154545 107.395912 
L 341.830909 217.78097 
L 342.507273 259.134665 
L 343.183636 292.37747 
L 343.86 284.000164 
L 344.536364 271.626618 
L 345.212727 292.910302 
L 345.889091 285.154634 
L 346.565455 282.10565 
L 347.241818 288.558839 
L 347.918182 287.374768 
L 348.594545 290.512557 
L 349.270909 272.396265 
L 349.947273 282.579279 
L 350.623636 258.157806 
L 351.3 273.284318 
L 351.976364 240.248725 
L 352.652727 148.779208 
L 353.329091 160.146294 
L 354.005455 146.233455 
L 354.681818 102.097193 
L 355.358182 84.336121 
L 356.034545 121.219946 
L 356.710909 83.507271 
L 357.387273 84.010502 
L 358.063636 136.109644 
L 358.74 80.132668 
L 359.416364 104.435734 
L 360.092727 149.63766 
L 360.769091 106.626266 
L 361.445455 151.532174 
L 362.121818 93.60148 
L 362.798182 152.923458 
L 363.474545 137.53053 
L 364.150909 129.360437 
L 364.827273 226.543099 
L 365.503636 155.410008 
L 366.18 174.118337 
L 366.856364 164.823376 
L 367.532727 225.418231 
L 368.209091 261.621215 
L 368.885455 249.040456 
L 369.561818 174.355151 
L 370.238182 125.275391 
L 370.914545 208.752426 
L 371.590909 196.201269 
L 372.267273 237.140538 
L 372.943636 123.025655 
L 373.62 80.33988 
L 374.296364 203.246494 
L 374.972727 165.38581 
L 375.649091 183.502103 
L 376.325455 149.13443 
L 377.001818 77.083684 
L 377.678182 62.075579 
L 378.354545 160.057489 
L 379.030909 168.493997 
L 379.707273 226.809515 
L 380.383636 220.060308 
L 381.06 144.190932 
L 381.736364 267.423165 
L 382.412727 204.726583 
L 383.089091 201.736803 
L 383.765455 217.899377 
L 384.441818 266.475907 
L 385.118182 225.211018 
L 385.794545 251.142183 
L 386.470909 218.521015 
L 387.147273 253.628733 
L 387.823636 221.066768 
L 388.5 276.274098 
L 389.176364 257.210549 
L 389.852727 154.166733 
L 390.529091 183.028474 
L 391.205455 181.666792 
L 391.881818 128.886808 
L 392.558182 148.601598 
L 393.234545 124.032116 
L 393.910909 80.191871 
L 394.587273 149.341642 
L 395.263636 185.870246 
L 395.94 173.851921 
L 396.616364 138.596194 
L 397.292727 164.172137 
L 397.969091 74.715541 
L 398.645455 89.694044 
L 399.321818 181.281969 
L 399.998182 103.784494 
L 400.674545 133.090262 
L 401.350909 140.638717 
L 402.027273 105.886221 
L 402.703636 63.76288 
L 403.38 56.658452 
L 404.056364 57.161682 
L 404.732727 73.028239 
L 405.409091 104.317326 
L 406.085455 158.074169 
L 406.761818 232.611465 
L 407.438182 138.388982 
L 408.114545 242.528063 
L 408.790909 239.715893 
L 409.467273 237.466158 
L 410.143636 307.770398 
L 410.82 269.110466 
L 411.496364 249.395677 
L 412.172727 290.838177 
L 412.849091 288.203618 
L 413.525455 250.342934 
L 414.201818 237.67337 
L 415.554545 128.08756 
L 416.230909 109.260825 
L 416.907273 78.326959 
L 417.583636 138.03376 
L 418.26 90.345284 
L 418.936364 79.185411 
L 419.612727 110.829719 
L 420.289091 151.443369 
L 420.965455 240.248725 
L 421.641818 278.109409 
L 422.318182 307.681593 
L 422.994545 259.22347 
L 423.670909 224.352567 
L 425.023636 262.894091 
L 425.7 264.907013 
L 426.376364 240.307929 
L 427.052727 190.872947 
L 427.729091 154.344344 
L 428.405455 160.353506 
L 429.081818 239.390274 
L 429.758182 149.578456 
L 430.434545 165.504217 
L 431.110909 122.522425 
L 431.787273 114.64835 
L 432.463636 179.47626 
L 433.14 171.572583 
L 433.816364 64.354916 
L 435.169091 56.421637 
L 435.845455 59.352214 
L 435.845455 59.352214 
" clip-path="url(#p761410165a)" style="fill: none; stroke: #1f77b4; stroke-width: 1.5; stroke-linecap: square"/>
   </g>
   <g id="line2d_24">
    <path d="M 80.754545 168.452972 
L 81.430909 218.093923 
L 82.107273 168.452972 
L 82.783636 227.202172 
L 83.46 227.202172 
L 84.136364 168.452972 
L 84.812727 182.566594 
L 85.489091 182.566594 
L 86.165455 168.452972 
L 86.841818 215.695849 
L 87.518182 240.794392 
L 88.194545 227.202172 
L 88.870909 183.51493 
L 89.547273 243.119935 
L 90.223636 243.119935 
L 90.9 241.58789 
L 91.576364 241.58789 
L 92.252727 241.816898 
L 92.929091 190.178002 
L 93.605455 182.566594 
L 94.281818 243.119935 
L 94.958182 168.452972 
L 95.634545 143.089498 
L 96.310909 100.96353 
L 96.987273 91.117703 
L 97.663636 103.550357 
L 98.34 156.597132 
L 99.016364 244.336714 
L 99.692727 176.496301 
L 100.369091 168.452972 
L 101.045455 230.520034 
L 101.721818 244.87939 
L 102.398182 241.58789 
L 103.074545 171.916723 
L 103.750909 215.695849 
L 104.427273 110.503517 
L 105.103636 173.817158 
L 105.78 157.054979 
L 106.456364 223.222328 
L 107.132727 149.468375 
L 107.809091 120.207442 
L 108.485455 103.316317 
L 109.161818 168.452972 
L 109.838182 143.909377 
L 110.514545 149.468375 
L 111.190909 100.96353 
L 111.867273 95.906719 
L 112.543636 103.550357 
L 113.22 91.117703 
L 113.896364 91.277711 
L 114.572727 104.365453 
L 115.249091 105.346383 
L 115.925455 100.96353 
L 116.601818 104.365453 
L 117.278182 91.277711 
L 117.954545 91.277711 
L 118.630909 103.316317 
L 119.307273 91.277711 
L 119.983636 91.277711 
L 120.66 143.089498 
L 121.336364 86.749917 
L 122.012727 104.473835 
L 122.689091 92.532762 
L 123.365455 133.384164 
L 124.041818 143.089498 
L 124.718182 131.529367 
L 125.394545 105.346383 
L 126.070909 133.384164 
L 126.747273 120.207442 
L 127.423636 91.277711 
L 128.1 104.365453 
L 128.776364 91.277711 
L 129.452727 103.316317 
L 130.129091 104.473835 
L 130.805455 156.72036 
L 131.481818 250.151528 
L 132.158182 250.151528 
L 132.834545 240.794392 
L 133.510909 244.336714 
L 134.187273 143.561989 
L 134.863636 225.382946 
L 135.54 246.245455 
L 136.216364 287.183706 
L 136.892727 290.715521 
L 137.569091 295.966376 
L 138.245455 295.966376 
L 138.921818 285.09682 
L 139.598182 258.28059 
L 140.274545 251.33189 
L 140.950909 190.232746 
L 141.627273 227.202172 
L 142.303636 243.119935 
L 142.98 177.259495 
L 143.656364 161.643521 
L 144.332727 173.817158 
L 145.009091 168.452972 
L 145.685455 161.643521 
L 146.361818 227.202172 
L 147.038182 251.33189 
L 148.390909 280.948552 
L 149.067273 275.413478 
L 149.743636 284.042664 
L 150.42 285.09682 
L 151.096364 290.715521 
L 151.772727 251.33189 
L 152.449091 246.763379 
L 153.125455 241.40345 
L 153.801818 126.6429 
L 154.478182 103.316317 
L 155.154545 91.277711 
L 155.830909 99.258399 
L 156.507273 243.119935 
L 157.183636 250.151528 
L 157.86 241.58789 
L 158.536364 128.497756 
L 159.212727 98.122285 
L 159.889091 91.277711 
L 160.565455 91.277711 
L 161.241818 99.043434 
L 161.918182 130.864049 
L 162.594545 91.277711 
L 163.270909 91.277711 
L 163.947273 168.452972 
L 164.623636 218.093923 
L 165.3 229.961803 
L 165.976364 233.886148 
L 166.652727 241.58789 
L 167.329091 243.662435 
L 168.005455 244.87939 
L 168.681818 244.336714 
L 169.358182 227.202172 
L 170.034545 243.119935 
L 170.710909 227.202172 
L 171.387273 243.119935 
L 172.063636 241.58789 
L 172.74 190.232746 
L 174.092727 241.816898 
L 174.769091 241.58789 
L 175.445455 176.496301 
L 176.121818 168.452972 
L 177.474545 168.452972 
L 178.150909 105.346383 
L 178.827273 103.550357 
L 179.503636 171.916723 
L 180.18 218.093923 
L 180.856364 183.51493 
L 181.532727 221.277464 
L 182.209091 233.886148 
L 182.885455 227.202172 
L 183.561818 183.51493 
L 184.238182 241.816898 
L 184.914545 225.382946 
L 185.590909 182.666584 
L 186.267273 241.40345 
L 186.943636 243.119935 
L 187.62 192.321369 
L 188.296364 244.87939 
L 188.972727 246.245455 
L 189.649091 244.87939 
L 190.325455 279.947918 
L 191.001818 251.33189 
L 191.678182 243.119935 
L 192.354545 168.452972 
L 193.030909 182.566594 
L 193.707273 244.87939 
L 194.383636 198.818195 
L 195.06 171.916723 
L 195.736364 238.978252 
L 196.412727 287.183706 
L 197.089091 281.942956 
L 197.765455 267.100674 
L 198.441818 275.413478 
L 199.118182 279.947918 
L 199.794545 279.947918 
L 200.470909 290.715521 
L 201.147273 294.880313 
L 201.823636 298.278185 
L 202.5 287.96148 
L 203.176364 282.638955 
L 203.852727 251.33189 
L 204.529091 275.413478 
L 205.205455 279.947918 
L 205.881818 275.413478 
L 206.558182 285.09682 
L 207.234545 281.942956 
L 207.910909 253.469843 
L 208.587273 177.259495 
L 209.263636 168.452972 
L 209.94 218.093923 
L 210.616364 110.503517 
L 211.292727 227.991309 
L 211.969091 246.339589 
L 212.645455 251.33189 
L 213.321818 279.793011 
L 213.998182 275.413478 
L 214.674545 251.33189 
L 215.350909 251.33189 
L 216.027273 279.947918 
L 216.703636 281.645282 
L 217.38 282.638955 
L 218.056364 252.387627 
L 218.732727 281.942956 
L 219.409091 281.645282 
L 220.085455 246.763379 
L 220.761818 243.662435 
L 221.438182 227.202172 
L 222.114545 149.468375 
L 222.790909 110.503517 
L 223.467273 109.997216 
L 224.143636 227.202172 
L 224.82 250.151528 
L 225.496364 241.58789 
L 226.172727 168.452972 
L 226.849091 109.997216 
L 227.525455 131.529367 
L 228.201818 253.469843 
L 228.878182 287.183706 
L 229.554545 293.091257 
L 230.230909 258.275464 
L 230.907273 243.119935 
L 231.583636 244.336714 
L 232.26 227.202172 
L 232.936364 223.222328 
L 233.612727 171.916723 
L 234.289091 227.202172 
L 234.965455 244.336714 
L 236.318182 243.119935 
L 236.994545 241.58789 
L 237.670909 168.452972 
L 238.347273 215.695849 
L 239.023636 182.566594 
L 239.7 136.063804 
L 240.376364 136.063804 
L 241.052727 91.277711 
L 241.729091 103.316317 
L 242.405455 91.117703 
L 243.081818 241.58789 
L 243.758182 236.641913 
L 244.434545 293.195657 
L 245.110909 229.7557 
L 245.787273 265.570982 
L 246.463636 269.712046 
L 247.14 133.10381 
L 247.816364 91.277711 
L 248.492727 91.117703 
L 251.198182 91.117703 
L 251.874545 86.749917 
L 252.550909 91.277711 
L 253.227273 91.277711 
L 253.903636 110.503517 
L 254.58 104.365453 
L 255.256364 156.72036 
L 255.932727 139.896664 
L 256.609091 133.10381 
L 257.285455 92.532762 
L 257.961818 143.089498 
L 258.638182 224.178464 
L 259.314545 246.763379 
L 259.990909 241.58789 
L 260.667273 263.461854 
L 261.343636 246.339589 
L 262.696364 243.662435 
L 263.372727 248.465294 
L 264.049091 244.336714 
L 264.725455 244.336714 
L 265.401818 258.275464 
L 266.078182 249.971904 
L 266.754545 250.151528 
L 267.430909 243.119935 
L 268.107273 279.947918 
L 268.783636 287.183706 
L 269.46 290.602614 
L 270.136364 287.96148 
L 270.812727 290.602614 
L 271.489091 287.183706 
L 272.165455 252.651053 
L 272.841818 244.336714 
L 273.518182 244.336714 
L 274.194545 177.259495 
L 274.870909 156.72036 
L 275.547273 243.119935 
L 276.223636 224.178464 
L 276.9 250.151528 
L 277.576364 263.461854 
L 278.252727 263.461854 
L 278.929091 241.58789 
L 279.605455 241.816898 
L 280.281818 244.336714 
L 280.958182 244.336714 
L 281.634545 234.337477 
L 282.310909 244.336714 
L 282.987273 244.336714 
L 283.663636 168.452972 
L 284.34 243.119935 
L 285.016364 190.178002 
L 285.692727 218.093923 
L 286.369091 234.337477 
L 287.045455 227.202172 
L 287.721818 246.339589 
L 288.398182 234.337477 
L 289.074545 184.087775 
L 289.750909 168.452972 
L 290.427273 168.452972 
L 291.103636 241.816898 
L 291.78 223.948419 
L 292.456364 241.40345 
L 293.132727 241.58789 
L 293.809091 264.557406 
L 294.485455 281.942956 
L 295.161818 279.947918 
L 295.838182 281.942956 
L 296.514545 279.947918 
L 297.190909 287.183706 
L 297.867273 290.715521 
L 298.543636 290.602614 
L 299.22 290.602614 
L 299.896364 297.040422 
L 300.572727 297.040422 
L 301.249091 298.677955 
L 303.954545 298.677955 
L 304.630909 297.040422 
L 305.307273 295.722941 
L 305.983636 297.040422 
L 306.66 295.722941 
L 307.336364 294.880313 
L 308.012727 295.966376 
L 308.689091 294.880313 
L 309.365455 290.602614 
L 310.041818 288.906366 
L 310.718182 286.250389 
L 311.394545 295.966376 
L 312.070909 290.715521 
L 312.747273 290.602614 
L 313.423636 295.966376 
L 314.1 297.040422 
L 316.129091 297.040422 
L 316.805455 295.966376 
L 317.481818 289.45996 
L 318.158182 295.966376 
L 318.834545 294.880313 
L 319.510909 298.330204 
L 320.187273 289.45996 
L 320.863636 290.602614 
L 321.54 295.966376 
L 322.216364 294.880313 
L 322.892727 290.715521 
L 323.569091 290.602614 
L 324.245455 294.880313 
L 325.598182 294.880313 
L 326.274545 290.602614 
L 326.950909 285.09682 
L 327.627273 282.638955 
L 328.303636 281.942956 
L 328.98 285.09682 
L 329.656364 281.942956 
L 330.332727 285.09682 
L 331.009091 294.880313 
L 331.685455 287.96148 
L 332.361818 290.602614 
L 333.038182 289.45996 
L 333.714545 290.602614 
L 335.067273 290.602614 
L 335.743636 298.330204 
L 336.42 297.040422 
L 337.096364 294.880313 
L 337.772727 290.715521 
L 338.449091 281.942956 
L 339.125455 250.832793 
L 339.801818 184.087775 
L 340.478182 225.382946 
L 341.154545 156.72036 
L 341.830909 223.948419 
L 342.507273 243.119935 
L 343.183636 253.469843 
L 343.86 281.942956 
L 344.536364 246.339589 
L 345.212727 278.547243 
L 345.889091 278.547243 
L 346.565455 278.761005 
L 347.241818 280.948552 
L 347.918182 280.326287 
L 348.594545 281.942956 
L 349.270909 263.461854 
L 349.947273 278.761005 
L 350.623636 250.832793 
L 351.3 252.651053 
L 351.976364 246.763379 
L 352.652727 168.452972 
L 353.329091 168.452972 
L 354.005455 173.817158 
L 354.681818 110.503517 
L 355.358182 103.550357 
L 356.034545 131.529367 
L 356.710909 126.6429 
L 357.387273 105.346383 
L 358.063636 143.909377 
L 358.74 91.277711 
L 359.416364 104.365453 
L 360.092727 168.452972 
L 360.769091 103.550357 
L 361.445455 156.72036 
L 362.121818 104.365453 
L 362.798182 157.054979 
L 363.474545 143.909377 
L 364.150909 149.10149 
L 364.827273 240.794392 
L 365.503636 168.452972 
L 366.18 171.916723 
L 366.856364 165.403532 
L 367.532727 233.886148 
L 368.209091 244.336714 
L 368.885455 243.662435 
L 369.561818 173.817158 
L 370.238182 143.909377 
L 370.914545 218.093923 
L 371.590909 218.093923 
L 372.267273 243.119935 
L 372.943636 143.909377 
L 373.62 109.997216 
L 374.296364 221.277464 
L 374.972727 168.452972 
L 375.649091 182.566594 
L 376.325455 168.452972 
L 377.001818 110.503517 
L 377.678182 104.473835 
L 378.354545 149.468375 
L 379.030909 182.666584 
L 379.707273 227.202172 
L 380.383636 218.093923 
L 381.06 168.452972 
L 381.736364 243.119935 
L 382.412727 227.202172 
L 383.089091 227.202172 
L 383.765455 218.093923 
L 384.441818 241.816898 
L 385.118182 241.40345 
L 385.794545 241.816898 
L 386.470909 225.382946 
L 387.147273 241.816898 
L 387.823636 241.40345 
L 388.5 251.33189 
L 389.176364 250.151528 
L 389.852727 182.666584 
L 390.529091 183.51493 
L 391.205455 168.452972 
L 391.881818 156.72036 
L 392.558182 168.452972 
L 393.234545 149.468375 
L 393.910909 104.365453 
L 394.587273 157.054979 
L 395.263636 184.087775 
L 395.94 168.452972 
L 396.616364 156.72036 
L 397.292727 149.728386 
L 397.969091 99.258399 
L 398.645455 103.316317 
L 399.321818 157.054979 
L 399.998182 121.056013 
L 401.350909 157.054979 
L 402.027273 103.316317 
L 402.703636 96.454171 
L 403.38 91.117703 
L 404.056364 91.117703 
L 404.732727 103.550357 
L 405.409091 103.550357 
L 406.085455 156.72036 
L 406.761818 240.794392 
L 407.438182 149.728386 
L 408.114545 240.794392 
L 408.790909 241.58789 
L 409.467273 243.662435 
L 410.143636 279.793011 
L 410.82 250.221902 
L 411.496364 249.971904 
L 412.172727 278.547243 
L 412.849091 281.645282 
L 413.525455 246.339589 
L 414.201818 243.662435 
L 414.878182 168.452972 
L 415.554545 156.72036 
L 416.230909 156.72036 
L 416.907273 104.473835 
L 417.583636 156.72036 
L 418.26 131.529367 
L 418.936364 126.6429 
L 419.612727 157.054979 
L 420.289091 156.72036 
L 420.965455 244.336714 
L 421.641818 278.547243 
L 422.318182 285.09682 
L 422.994545 251.33189 
L 423.670909 243.662435 
L 424.347273 243.119935 
L 425.023636 244.336714 
L 425.7 249.971904 
L 426.376364 244.336714 
L 427.052727 227.202172 
L 427.729091 177.259495 
L 428.405455 168.452972 
L 429.081818 246.245455 
L 429.758182 173.817158 
L 430.434545 168.452972 
L 431.110909 143.909377 
L 431.787273 173.817158 
L 432.463636 177.259495 
L 433.14 168.452972 
L 433.816364 103.316317 
L 434.492727 91.277711 
L 435.169091 86.749917 
L 435.845455 103.550357 
L 435.845455 103.550357 
" clip-path="url(#p761410165a)" style="fill: none; stroke-dasharray: 5.55,2.4; stroke-dashoffset: 0; stroke: #ff7f0e; stroke-width: 1.5"/>
   </g>
   <g id="patch_3">
    <path d="M 63 320.4 
L 63 43.2 
" style="fill: none; stroke: #000000; stroke-width: 0.8; stroke-linejoin: miter; stroke-linecap: square"/>
   </g>
   <g id="patch_4">
    <path d="M 453.6 320.4 
L 453.6 43.2 
" style="fill: none; stroke: #000000; stroke-width: 0.8; stroke-linejoin: miter; stroke-linecap: square"/>
   </g>
   <g id="patch_5">
    <path d="M 63 320.4 
L 453.6 320.4 
" style="fill: none; stroke: #000000; stroke-width: 0.8; stroke-linejoin: miter; stroke-linecap: square"/>
   </g>
   <g id="patch_6">
    <path d="M 63 43.2 
L 453.6 43.2 
" style="fill: none; stroke: #000000; stroke-width: 0.8; stroke-linejoin: miter; stroke-linecap: square"/>
   </g>
   <g id="text_12">
    <!-- AdaBoostRegressor 测试集预测 -->
    <g transform="translate(174.3 37.2)scale(0.12 -0.12)">
     <defs>
      <path id="SimHei-41" d="M 3075 125 
L 2475 125 
L 2125 1450 
L 1025 1450 
L 675 125 
L 75 125 
L 1325 4450 
L 1825 4450 
L 3075 125 
z
M 2000 1925 
L 1600 3450 
L 1550 3450 
L 1150 1925 
L 2000 1925 
z
" transform="scale(0.015625)"/>
      <path id="SimHei-64" d="M 2750 125 
L 2250 125 
L 2250 500 
Q 2100 275 1900 175 
Q 1700 75 1425 75 
Q 925 75 575 437 
Q 225 800 225 1525 
Q 225 2250 575 2625 
Q 925 3000 1425 3000 
Q 1700 3000 1900 2887 
Q 2100 2775 2250 2550 
L 2250 4400 
L 2750 4400 
L 2750 125 
z
M 2250 1525 
Q 2250 2000 2037 2275 
Q 1825 2550 1525 2550 
Q 1150 2550 962 2275 
Q 775 2000 775 1525 
Q 775 1050 962 787 
Q 1150 525 1525 525 
Q 1825 525 2037 787 
Q 2250 1050 2250 1525 
z
" transform="scale(0.015625)"/>
      <path id="SimHei-61" d="M 2875 125 
L 2275 125 
Q 2225 175 2200 262 
Q 2175 350 2175 475 
Q 2000 275 1750 175 
Q 1500 75 1225 75 
Q 825 75 550 275 
Q 275 475 275 850 
Q 275 1225 525 1450 
Q 775 1675 1300 1750 
Q 1650 1800 1912 1875 
Q 2175 1950 2175 2075 
Q 2175 2225 2062 2375 
Q 1950 2525 1575 2525 
Q 1275 2525 1137 2412 
Q 1000 2300 950 2100 
L 400 2100 
Q 450 2500 762 2737 
Q 1075 2975 1575 2975 
Q 2125 2975 2400 2725 
Q 2675 2475 2675 2025 
L 2675 650 
Q 2675 500 2725 375 
Q 2775 250 2875 125 
z
M 2175 1050 
L 2175 1550 
Q 2025 1500 1887 1462 
Q 1750 1425 1425 1375 
Q 1050 1325 937 1200 
Q 825 1075 825 900 
Q 825 750 937 637 
Q 1050 525 1275 525 
Q 1500 525 1762 650 
Q 2025 775 2175 1050 
z
" transform="scale(0.015625)"/>
      <path id="SimHei-42" d="M 2950 1400 
Q 2950 675 2550 400 
Q 2150 125 1525 125 
L 275 125 
L 275 4400 
L 1575 4400 
Q 2200 4400 2512 4075 
Q 2825 3750 2825 3300 
Q 2825 2850 2612 2637 
Q 2400 2425 2175 2350 
Q 2475 2275 2712 2037 
Q 2950 1800 2950 1400 
z
M 2250 3300 
Q 2250 3625 2062 3775 
Q 1875 3925 1600 3925 
L 850 3925 
L 850 2600 
L 1575 2600 
Q 1850 2600 2050 2762 
Q 2250 2925 2250 3300 
z
M 2350 1400 
Q 2350 1800 2087 1962 
Q 1825 2125 1500 2125 
L 850 2125 
L 850 600 
L 1425 600 
Q 1875 600 2112 775 
Q 2350 950 2350 1400 
z
" transform="scale(0.015625)"/>
      <path id="SimHei-6f" d="M 2925 1525 
Q 2925 875 2525 475 
Q 2125 75 1575 75 
Q 1025 75 625 475 
Q 225 875 225 1525 
Q 225 2175 625 2575 
Q 1025 2975 1575 2975 
Q 2125 2975 2525 2575 
Q 2925 2175 2925 1525 
z
M 2375 1525 
Q 2375 2025 2125 2275 
Q 1875 2525 1575 2525 
Q 1275 2525 1025 2275 
Q 775 2025 775 1525 
Q 775 1025 1025 775 
Q 1275 525 1575 525 
Q 1875 525 2125 775 
Q 2375 1025 2375 1525 
z
" transform="scale(0.015625)"/>
      <path id="SimHei-73" d="M 2750 900 
Q 2750 500 2437 287 
Q 2125 75 1650 75 
Q 1050 75 725 312 
Q 400 550 400 1000 
L 900 1000 
Q 900 700 1112 600 
Q 1325 500 1625 500 
Q 1925 500 2075 612 
Q 2225 725 2225 900 
Q 2225 1025 2100 1150 
Q 1975 1275 1475 1350 
Q 900 1425 687 1637 
Q 475 1850 475 2200 
Q 475 2500 762 2737 
Q 1050 2975 1600 2975 
Q 2100 2975 2387 2750 
Q 2675 2525 2675 2150 
L 2175 2150 
Q 2175 2375 2012 2462 
Q 1850 2550 1600 2550 
Q 1275 2550 1137 2437 
Q 1000 2325 1000 2175 
Q 1000 2000 1125 1900 
Q 1250 1800 1650 1750 
Q 2300 1650 2525 1437 
Q 2750 1225 2750 900 
z
" transform="scale(0.015625)"/>
      <path id="SimHei-74" d="M 2750 200 
Q 2625 150 2462 112 
Q 2300 75 2025 75 
Q 1575 75 1300 325 
Q 1025 575 1025 1025 
L 1025 2525 
L 175 2525 
L 175 2925 
L 1025 2925 
L 1025 3900 
L 1525 3900 
L 1525 2925 
L 2550 2925 
L 2550 2525 
L 1525 2525 
L 1525 1000 
Q 1525 800 1625 662 
Q 1725 525 2000 525 
Q 2275 525 2450 575 
Q 2625 625 2750 700 
L 2750 200 
z
" transform="scale(0.015625)"/>
      <path id="SimHei-52" d="M 3000 125 
L 2400 125 
L 1500 1975 
L 850 1975 
L 850 125 
L 275 125 
L 275 4400 
L 1525 4400 
Q 2125 4400 2500 4112 
Q 2875 3825 2875 3175 
Q 2875 2675 2625 2400 
Q 2375 2125 2050 2050 
L 3000 125 
z
M 2300 3175 
Q 2300 3525 2087 3725 
Q 1875 3925 1400 3925 
L 850 3925 
L 850 2450 
L 1550 2450 
Q 1850 2450 2075 2612 
Q 2300 2775 2300 3175 
z
" transform="scale(0.015625)"/>
      <path id="SimHei-65" d="M 2850 1075 
Q 2800 625 2450 350 
Q 2100 75 1625 75 
Q 1025 75 637 462 
Q 250 850 250 1525 
Q 250 2200 637 2587 
Q 1025 2975 1625 2975 
Q 2150 2975 2487 2637 
Q 2825 2300 2825 1525 
L 800 1525 
Q 800 975 1037 750 
Q 1275 525 1625 525 
Q 1900 525 2075 662 
Q 2250 800 2300 1075 
L 2850 1075 
z
M 2250 1925 
Q 2200 2275 2025 2412 
Q 1850 2550 1575 2550 
Q 1325 2550 1125 2412 
Q 925 2275 825 1925 
L 2250 1925 
z
" transform="scale(0.015625)"/>
      <path id="SimHei-67" d="M 2975 2500 
Q 2800 2550 2637 2562 
Q 2475 2575 2300 2525 
Q 2375 2450 2425 2337 
Q 2475 2225 2475 2000 
Q 2475 1575 2187 1300 
Q 1900 1025 1475 1025 
Q 1375 1025 1212 1062 
Q 1050 1100 950 1150 
Q 875 1100 850 1050 
Q 825 1000 825 925 
Q 825 800 1000 737 
Q 1175 675 1625 675 
Q 2350 675 2612 475 
Q 2875 275 2875 -25 
Q 2875 -425 2487 -612 
Q 2100 -800 1575 -800 
Q 900 -800 575 -625 
Q 250 -450 250 -150 
Q 250 0 375 150 
Q 500 300 700 400 
Q 550 475 462 587 
Q 375 700 375 875 
Q 375 1025 487 1137 
Q 600 1250 750 1325 
Q 625 1450 550 1625 
Q 475 1800 475 2000 
Q 475 2425 762 2700 
Q 1050 2975 1475 2975 
Q 1700 2975 1862 2912 
Q 2025 2850 2150 2725 
Q 2350 2875 2550 2937 
Q 2750 3000 2975 2975 
L 2975 2500 
z
M 1975 2000 
Q 1975 2250 1850 2400 
Q 1725 2550 1475 2550 
Q 1225 2550 1100 2400 
Q 975 2250 975 2000 
Q 975 1750 1100 1600 
Q 1225 1450 1475 1450 
Q 1725 1450 1850 1600 
Q 1975 1750 1975 2000 
z
M 2400 -75 
Q 2400 25 2287 125 
Q 2175 225 1725 225 
Q 1625 225 1450 237 
Q 1275 250 1050 275 
Q 850 200 775 100 
Q 700 0 700 -100 
Q 700 -250 900 -350 
Q 1100 -450 1600 -450 
Q 2025 -450 2212 -337 
Q 2400 -225 2400 -75 
z
" transform="scale(0.015625)"/>
      <path id="SimHei-72" d="M 2500 2425 
Q 2025 2500 1700 2287 
Q 1375 2075 1150 1550 
L 1150 125 
L 650 125 
L 650 2925 
L 1150 2925 
L 1150 2200 
Q 1375 2600 1712 2787 
Q 2050 2975 2500 2975 
L 2500 2425 
z
" transform="scale(0.015625)"/>
      <path id="SimHei-20" transform="scale(0.015625)"/>
      <path id="SimHei-6d4b" d="M 4025 4725 
Q 4000 4475 4000 4000 
L 4000 2225 
Q 4000 1775 4025 1350 
L 3550 1350 
L 3550 4325 
L 2350 4325 
L 2350 1325 
L 1900 1325 
Q 1925 1775 1925 2225 
L 1925 4000 
Q 1925 4200 1900 4725 
L 4025 4725 
z
M 5900 5075 
Q 5875 4800 5875 4375 
L 5875 0 
Q 5875 -325 5650 -425 
Q 5425 -525 4975 -600 
Q 4925 -325 4775 -50 
Q 5125 -50 5262 -25 
Q 5400 0 5400 250 
L 5400 4375 
Q 5400 4775 5375 5075 
L 5900 5075 
z
M 3275 3725 
Q 3225 3400 3200 2325 
Q 3175 1250 2837 550 
Q 2500 -150 2075 -600 
Q 1850 -400 1600 -325 
Q 2200 250 2475 962 
Q 2750 1675 2762 2475 
Q 2775 3275 2725 3800 
Q 3000 3750 3275 3725 
z
M 4950 4275 
Q 4925 4000 4925 3575 
L 4925 1825 
Q 4925 1300 4950 850 
L 4450 850 
Q 4475 1150 4475 1825 
L 4475 3575 
Q 4475 4000 4450 4275 
L 4950 4275 
z
M 1700 1675 
Q 1375 1075 1112 487 
Q 850 -100 725 -400 
Q 500 -200 200 -25 
Q 475 300 762 850 
Q 1050 1400 1250 2000 
Q 1475 1825 1700 1675 
z
M 3400 1050 
Q 3800 650 4300 -125 
Q 4100 -225 3875 -450 
Q 3475 275 3025 750 
Q 3225 875 3400 1050 
z
M 600 3525 
Q 1125 3125 1500 2775 
Q 1300 2575 1150 2375 
Q 825 2775 300 3150 
Q 450 3300 600 3525 
z
M 1350 4000 
Q 950 4375 475 4675 
Q 625 4850 775 5050 
Q 1300 4700 1675 4375 
Q 1500 4250 1350 4000 
z
" transform="scale(0.015625)"/>
      <path id="SimHei-8bd5" d="M 3950 3825 
Q 3925 4325 3925 4550 
Q 3925 4800 3900 5225 
Q 4200 5150 4450 5125 
Q 4425 4825 4425 4600 
L 4425 3825 
L 5150 3825 
Q 5500 3825 5875 3850 
L 5875 3400 
Q 5525 3425 5125 3425 
L 4450 3425 
Q 4500 2750 4587 2212 
Q 4675 1675 4837 1112 
Q 5000 550 5212 225 
Q 5425 -100 5500 200 
Q 5575 500 5600 900 
Q 5800 625 6100 525 
Q 5975 -275 5750 -487 
Q 5525 -700 5250 -537 
Q 4975 -375 4737 62 
Q 4500 500 4337 1075 
Q 4175 1650 4100 2262 
Q 4025 2875 3975 3425 
L 2800 3425 
Q 2300 3425 1875 3400 
L 1875 3850 
Q 2275 3825 2775 3825 
L 3950 3825 
z
M 1500 3175 
Q 1475 2675 1475 2175 
L 1475 625 
Q 1825 950 2125 1225 
Q 2225 1000 2375 800 
Q 1900 425 1125 -350 
Q 1000 -125 825 50 
Q 1025 175 1025 525 
L 1025 2725 
Q 625 2725 300 2700 
L 300 3200 
Q 625 3175 825 3175 
L 1500 3175 
z
M 3775 2175 
Q 3500 2200 3250 2200 
L 3250 575 
Q 3575 675 3900 800 
Q 3900 525 3950 325 
Q 3575 250 3150 125 
Q 2725 0 2275 -175 
Q 2200 100 2025 300 
Q 2425 350 2800 475 
L 2800 2200 
Q 2525 2200 2225 2175 
L 2225 2650 
Q 2600 2625 3000 2625 
Q 3425 2625 3775 2650 
L 3775 2175 
z
M 925 4975 
Q 1275 4650 1700 4100 
Q 1525 3925 1325 3775 
Q 1175 4050 575 4650 
Q 775 4825 925 4975 
z
M 5150 5150 
Q 5325 5000 5850 4375 
Q 5575 4200 5425 4050 
Q 5125 4525 4775 4875 
Q 4925 4975 5150 5150 
z
" transform="scale(0.015625)"/>
      <path id="SimHei-96c6" d="M 2275 4925 
Q 2125 4800 2025 4662 
Q 1925 4525 1850 4350 
L 4925 4350 
Q 5300 4350 5750 4375 
L 5750 3975 
L 3650 3975 
L 3650 3575 
L 4625 3575 
Q 4925 3575 5325 3600 
L 5325 3175 
Q 4925 3200 4625 3200 
L 3650 3200 
L 3650 2800 
L 4675 2800 
Q 5000 2800 5425 2825 
L 5425 2400 
Q 5000 2425 4675 2425 
L 3650 2425 
L 3650 2075 
L 4875 2075 
Q 5275 2075 5675 2100 
L 5675 1675 
Q 5300 1700 4900 1700 
L 1650 1700 
L 1650 1500 
L 1150 1500 
Q 1200 1950 1200 2325 
L 1200 3475 
Q 1050 3250 937 3125 
Q 825 3000 675 2825 
Q 500 3000 300 3125 
Q 475 3325 875 3825 
Q 1275 4325 1462 4650 
Q 1650 4975 1725 5225 
Q 1950 5100 2275 4925 
z
M 2975 1200 
Q 2975 1300 2950 1625 
L 3475 1625 
Q 3450 1275 3450 1200 
L 5050 1200 
Q 5500 1200 5925 1225 
L 5925 825 
L 4150 825 
Q 4500 525 4925 362 
Q 5350 200 6100 25 
Q 5875 -225 5775 -475 
Q 5275 -300 4962 -162 
Q 4650 -25 4387 137 
Q 4125 300 3950 462 
Q 3775 625 3575 825 
L 3450 825 
L 3450 250 
Q 3450 -275 3500 -650 
L 2950 -650 
Q 2975 -300 2975 250 
L 2975 825 
L 2875 825 
Q 2700 575 2475 375 
Q 2250 175 1987 12 
Q 1725 -150 1425 -300 
Q 1125 -450 700 -575 
Q 600 -325 400 -75 
Q 925 50 1475 262 
Q 2025 475 2300 825 
L 500 825 
L 500 1225 
Q 800 1200 1400 1200 
L 2975 1200 
z
M 3150 2800 
L 3150 3200 
L 1650 3200 
L 1650 2800 
L 3150 2800 
z
M 3150 3575 
L 3150 3975 
L 1650 3975 
L 1650 3575 
L 3150 3575 
z
M 3150 2075 
L 3150 2425 
L 1650 2425 
L 1650 2075 
L 3150 2075 
z
M 3450 5250 
Q 3575 5150 3712 5000 
Q 3850 4850 4000 4650 
Q 3850 4525 3575 4375 
Q 3425 4575 3325 4700 
Q 3225 4825 3075 4950 
Q 3275 5075 3450 5250 
z
" transform="scale(0.015625)"/>
      <path id="SimHei-9884" d="M 5200 4800 
Q 5575 4800 5950 4825 
L 5950 4400 
Q 5575 4425 5200 4425 
L 4500 4425 
Q 4425 4050 4350 3600 
L 5725 3600 
Q 5700 3225 5700 2800 
L 5700 1725 
Q 5700 1300 5725 850 
L 5250 850 
L 5250 3225 
L 3550 3225 
L 3550 800 
L 3075 800 
Q 3100 1375 3100 1725 
L 3100 2775 
Q 3100 3175 3075 3600 
L 3900 3600 
Q 4000 4150 4000 4425 
L 3725 4425 
Q 3300 4425 2850 4400 
L 2850 4825 
Q 3325 4800 3725 4800 
L 5200 4800 
z
M 2600 1775 
Q 2350 1825 2150 1825 
Q 2250 2250 2300 2450 
L 1750 2450 
L 1750 125 
Q 1725 -300 1425 -400 
Q 1125 -500 750 -500 
Q 700 -225 575 25 
Q 1125 -25 1212 37 
Q 1300 100 1300 350 
L 1300 2450 
L 1025 2450 
Q 700 2450 350 2425 
L 350 2850 
Q 700 2825 1000 2825 
L 2850 2825 
Q 2725 2325 2600 1775 
z
M 4725 2875 
Q 4625 2575 4600 2100 
Q 4575 1625 4462 1037 
Q 4350 450 3962 62 
Q 3575 -325 2925 -675 
Q 2700 -500 2475 -350 
Q 3075 -125 3437 200 
Q 3800 525 3950 937 
Q 4100 1350 4137 1850 
Q 4175 2350 4175 2925 
L 4725 2875 
z
M 1625 2900 
Q 1275 3275 800 3650 
Q 925 3775 1075 3950 
Q 1250 3825 1425 3675 
Q 1750 4150 1950 4375 
L 1400 4375 
Q 900 4375 450 4350 
L 450 4775 
Q 900 4750 1375 4750 
L 2575 4750 
L 2575 4375 
Q 2200 4100 1725 3400 
L 1950 3200 
Q 1750 3025 1625 2900 
z
M 4775 725 
Q 5725 0 6075 -325 
Q 5850 -500 5725 -650 
Q 5400 -325 5137 -87 
Q 4875 150 4525 350 
Q 4650 525 4775 725 
z
" transform="scale(0.015625)"/>
     </defs>
     <use xlink:href="#SimHei-41"/>
     <use xlink:href="#SimHei-64" x="50"/>
     <use xlink:href="#SimHei-61" x="100"/>
     <use xlink:href="#SimHei-42" x="150"/>
     <use xlink:href="#SimHei-6f" x="200"/>
     <use xlink:href="#SimHei-6f" x="250"/>
     <use xlink:href="#SimHei-73" x="300"/>
     <use xlink:href="#SimHei-74" x="350"/>
     <use xlink:href="#SimHei-52" x="400"/>
     <use xlink:href="#SimHei-65" x="450"/>
     <use xlink:href="#SimHei-67" x="500"/>
     <use xlink:href="#SimHei-72" x="550"/>
     <use xlink:href="#SimHei-65" x="600"/>
     <use xlink:href="#SimHei-73" x="650"/>
     <use xlink:href="#SimHei-73" x="700"/>
     <use xlink:href="#SimHei-6f" x="750"/>
     <use xlink:href="#SimHei-72" x="800"/>
     <use xlink:href="#SimHei-20" x="850"/>
     <use xlink:href="#SimHei-6d4b" x="900"/>
     <use xlink:href="#SimHei-8bd5" x="1000"/>
     <use xlink:href="#SimHei-96c6" x="1100"/>
     <use xlink:href="#SimHei-9884" x="1200"/>
     <use xlink:href="#SimHei-6d4b" x="1300"/>
    </g>
   </g>
   <g id="legend_1">
    <g id="patch_7">
     <path d="M 329.6 77.7 
L 446.6 77.7 
Q 448.6 77.7 448.6 75.7 
L 448.6 50.2 
Q 448.6 48.2 446.6 48.2 
L 329.6 48.2 
Q 327.6 48.2 327.6 50.2 
L 327.6 75.7 
Q 327.6 77.7 329.6 77.7 
z
" style="fill: #ffffff; opacity: 0.8; stroke: #cccccc; stroke-linejoin: miter"/>
    </g>
    <g id="line2d_25">
     <path d="M 331.6 55.7 
L 341.6 55.7 
L 351.6 55.7 
" style="fill: none; stroke: #1f77b4; stroke-width: 1.5; stroke-linecap: square"/>
    </g>
    <g id="text_13">
     <!-- true -->
     <g transform="translate(359.6 59.2)scale(0.1 -0.1)">
      <defs>
       <path id="SimHei-75" d="M 2800 125 
L 2300 125 
L 2300 650 
Q 2100 375 1862 225 
Q 1625 75 1250 75 
Q 800 75 575 325 
Q 350 575 350 950 
L 350 2925 
L 850 2925 
L 850 1125 
Q 850 825 1000 650 
Q 1150 475 1400 475 
Q 1725 475 2012 812 
Q 2300 1150 2300 1650 
L 2300 2925 
L 2800 2925 
L 2800 125 
z
" transform="scale(0.015625)"/>
      </defs>
      <use xlink:href="#SimHei-74"/>
      <use xlink:href="#SimHei-72" x="50"/>
      <use xlink:href="#SimHei-75" x="100"/>
      <use xlink:href="#SimHei-65" x="150"/>
     </g>
    </g>
    <g id="line2d_26">
     <path d="M 331.6 68.95 
L 341.6 68.95 
L 351.6 68.95 
" style="fill: none; stroke-dasharray: 5.55,2.4; stroke-dashoffset: 0; stroke: #ff7f0e; stroke-width: 1.5"/>
    </g>
    <g id="text_14">
     <!-- AdaBoostRegressor -->
     <g transform="translate(359.6 72.45)scale(0.1 -0.1)">
      <use xlink:href="#SimHei-41"/>
      <use xlink:href="#SimHei-64" x="50"/>
      <use xlink:href="#SimHei-61" x="100"/>
      <use xlink:href="#SimHei-42" x="150"/>
      <use xlink:href="#SimHei-6f" x="200"/>
      <use xlink:href="#SimHei-6f" x="250"/>
      <use xlink:href="#SimHei-73" x="300"/>
      <use xlink:href="#SimHei-74" x="350"/>
      <use xlink:href="#SimHei-52" x="400"/>
      <use xlink:href="#SimHei-65" x="450"/>
      <use xlink:href="#SimHei-67" x="500"/>
      <use xlink:href="#SimHei-72" x="550"/>
      <use xlink:href="#SimHei-65" x="600"/>
      <use xlink:href="#SimHei-73" x="650"/>
      <use xlink:href="#SimHei-73" x="700"/>
      <use xlink:href="#SimHei-6f" x="750"/>
      <use xlink:href="#SimHei-72" x="800"/>
     </g>
    </g>
   </g>
  </g>
 </g>
 <defs>
  <clipPath id="p761410165a">
   <rect x="63" y="43.2" width="390.6" height="277.2"/>
  </clipPath>
 </defs>
</svg>
