<?xml version="1.0" encoding="utf-8" standalone="no"?>
<!DOCTYPE svg PUBLIC "-//W3C//DTD SVG 1.1//EN"
  "http://www.w3.org/Graphics/SVG/1.1/DTD/svg11.dtd">
<svg xmlns:xlink="http://www.w3.org/1999/xlink" width="504pt" height="360pt" viewBox="0 0 504 360" xmlns="http://www.w3.org/2000/svg" version="1.1">
 <metadata>
  <rdf:RDF xmlns:dc="http://purl.org/dc/elements/1.1/" xmlns:cc="http://creativecommons.org/ns#" xmlns:rdf="http://www.w3.org/1999/02/22-rdf-syntax-ns#">
   <cc:Work>
    <dc:type rdf:resource="http://purl.org/dc/dcmitype/StillImage"/>
    <dc:date>2025-01-12T15:56:20.973363</dc:date>
    <dc:format>image/svg+xml</dc:format>
    <dc:creator>
     <cc:Agent>
      <dc:title>Matplotlib v3.5.3, https://matplotlib.org/</dc:title>
     </cc:Agent>
    </dc:creator>
   </cc:Work>
  </rdf:RDF>
 </metadata>
 <defs>
  <style type="text/css">*{stroke-linejoin: round; stroke-linecap: butt}</style>
 </defs>
 <g id="figure_1">
  <g id="patch_1">
   <path d="M 0 360 
L 504 360 
L 504 0 
L 0 0 
z
" style="fill: #ffffff"/>
  </g>
  <g id="axes_1">
   <g id="patch_2">
    <path d="M 63 320.4 
L 453.6 320.4 
L 453.6 43.2 
L 63 43.2 
z
" style="fill: #ffffff"/>
   </g>
   <g id="matplotlib.axis_1">
    <g id="xtick_1">
     <g id="line2d_1">
      <path d="M 80.754545 320.4 
L 80.754545 43.2 
" clip-path="url(#p06ac358ef1)" style="fill: none; stroke: #b0b0b0; stroke-width: 0.8; stroke-linecap: square"/>
     </g>
     <g id="line2d_2">
      <defs>
       <path id="m28f8d71158" d="M 0 0 
L 0 3.5 
" style="stroke: #000000; stroke-width: 0.8"/>
      </defs>
      <g>
       <use xlink:href="#m28f8d71158" x="80.754545" y="320.4" style="stroke: #000000; stroke-width: 0.8"/>
      </g>
     </g>
     <g id="text_1">
      <!-- 0 -->
      <g transform="translate(78.254545 334.275)scale(0.1 -0.1)">
       <defs>
        <path id="SimHei-30" d="M 225 2537 
Q 250 3200 412 3587 
Q 575 3975 875 4225 
Q 1175 4475 1612 4475 
Q 2050 4475 2375 4112 
Q 2700 3750 2800 3200 
Q 2900 2650 2862 1937 
Q 2825 1225 2612 775 
Q 2400 325 1975 150 
Q 1550 -25 1125 187 
Q 700 400 525 750 
Q 350 1100 275 1487 
Q 200 1875 225 2537 
z
M 750 2687 
Q 675 2000 800 1462 
Q 925 925 1212 700 
Q 1500 475 1800 612 
Q 2100 750 2237 1162 
Q 2375 1575 2375 2062 
Q 2375 2550 2337 2950 
Q 2300 3350 2112 3675 
Q 1925 4000 1612 4012 
Q 1300 4025 1062 3700 
Q 825 3375 750 2687 
z
" transform="scale(0.015625)"/>
       </defs>
       <use xlink:href="#SimHei-30"/>
      </g>
     </g>
    </g>
    <g id="xtick_2">
     <g id="line2d_3">
      <path d="M 148.390909 320.4 
L 148.390909 43.2 
" clip-path="url(#p06ac358ef1)" style="fill: none; stroke: #b0b0b0; stroke-width: 0.8; stroke-linecap: square"/>
     </g>
     <g id="line2d_4">
      <g>
       <use xlink:href="#m28f8d71158" x="148.390909" y="320.4" style="stroke: #000000; stroke-width: 0.8"/>
      </g>
     </g>
     <g id="text_2">
      <!-- 100 -->
      <g transform="translate(140.890909 334.275)scale(0.1 -0.1)">
       <defs>
        <path id="SimHei-31" d="M 1400 3600 
Q 1075 3275 575 2975 
L 575 3450 
Q 1200 3875 1600 4450 
L 1900 4450 
L 1900 150 
L 1400 150 
L 1400 3600 
z
" transform="scale(0.015625)"/>
       </defs>
       <use xlink:href="#SimHei-31"/>
       <use xlink:href="#SimHei-30" x="50"/>
       <use xlink:href="#SimHei-30" x="100"/>
      </g>
     </g>
    </g>
    <g id="xtick_3">
     <g id="line2d_5">
      <path d="M 216.027273 320.4 
L 216.027273 43.2 
" clip-path="url(#p06ac358ef1)" style="fill: none; stroke: #b0b0b0; stroke-width: 0.8; stroke-linecap: square"/>
     </g>
     <g id="line2d_6">
      <g>
       <use xlink:href="#m28f8d71158" x="216.027273" y="320.4" style="stroke: #000000; stroke-width: 0.8"/>
      </g>
     </g>
     <g id="text_3">
      <!-- 200 -->
      <g transform="translate(208.527273 334.275)scale(0.1 -0.1)">
       <defs>
        <path id="SimHei-32" d="M 300 250 
Q 325 625 650 925 
Q 975 1225 1475 1862 
Q 1975 2500 2125 2850 
Q 2275 3200 2237 3450 
Q 2200 3700 2000 3862 
Q 1800 4025 1537 4000 
Q 1275 3975 1037 3800 
Q 800 3625 675 3275 
L 200 3350 
Q 400 3925 712 4187 
Q 1025 4450 1450 4475 
Q 1700 4500 1900 4462 
Q 2100 4425 2312 4287 
Q 2525 4150 2662 3875 
Q 2800 3600 2762 3212 
Q 2725 2825 2375 2287 
Q 2025 1750 1025 600 
L 2825 600 
L 2825 150 
L 300 150 
L 300 250 
z
" transform="scale(0.015625)"/>
       </defs>
       <use xlink:href="#SimHei-32"/>
       <use xlink:href="#SimHei-30" x="50"/>
       <use xlink:href="#SimHei-30" x="100"/>
      </g>
     </g>
    </g>
    <g id="xtick_4">
     <g id="line2d_7">
      <path d="M 283.663636 320.4 
L 283.663636 43.2 
" clip-path="url(#p06ac358ef1)" style="fill: none; stroke: #b0b0b0; stroke-width: 0.8; stroke-linecap: square"/>
     </g>
     <g id="line2d_8">
      <g>
       <use xlink:href="#m28f8d71158" x="283.663636" y="320.4" style="stroke: #000000; stroke-width: 0.8"/>
      </g>
     </g>
     <g id="text_4">
      <!-- 300 -->
      <g transform="translate(276.163636 334.275)scale(0.1 -0.1)">
       <defs>
        <path id="SimHei-33" d="M 250 1225 
L 700 1300 
Q 800 975 1025 762 
Q 1250 550 1587 562 
Q 1925 575 2125 837 
Q 2325 1100 2300 1437 
Q 2275 1775 2037 1962 
Q 1800 2150 1275 2225 
L 1275 2550 
Q 1800 2600 2037 2825 
Q 2275 3050 2250 3412 
Q 2225 3775 1925 3937 
Q 1625 4100 1287 3975 
Q 950 3850 750 3275 
L 300 3350 
Q 450 3800 712 4100 
Q 975 4400 1425 4450 
Q 1875 4500 2212 4337 
Q 2550 4175 2687 3837 
Q 2825 3500 2725 3100 
Q 2625 2700 2150 2400 
Q 2500 2250 2687 1950 
Q 2875 1650 2812 1162 
Q 2750 675 2375 375 
Q 2000 75 1525 87 
Q 1050 100 700 387 
Q 350 675 250 1225 
z
" transform="scale(0.015625)"/>
       </defs>
       <use xlink:href="#SimHei-33"/>
       <use xlink:href="#SimHei-30" x="50"/>
       <use xlink:href="#SimHei-30" x="100"/>
      </g>
     </g>
    </g>
    <g id="xtick_5">
     <g id="line2d_9">
      <path d="M 351.3 320.4 
L 351.3 43.2 
" clip-path="url(#p06ac358ef1)" style="fill: none; stroke: #b0b0b0; stroke-width: 0.8; stroke-linecap: square"/>
     </g>
     <g id="line2d_10">
      <g>
       <use xlink:href="#m28f8d71158" x="351.3" y="320.4" style="stroke: #000000; stroke-width: 0.8"/>
      </g>
     </g>
     <g id="text_5">
      <!-- 400 -->
      <g transform="translate(343.8 334.275)scale(0.1 -0.1)">
       <defs>
        <path id="SimHei-34" d="M 2000 1100 
L 75 1100 
L 75 1525 
L 2100 4450 
L 2475 4450 
L 2475 1525 
L 3075 1525 
L 3075 1100 
L 2475 1100 
L 2475 150 
L 2000 150 
L 2000 1100 
z
M 2000 1525 
L 2000 3500 
L 600 1525 
L 2000 1525 
z
" transform="scale(0.015625)"/>
       </defs>
       <use xlink:href="#SimHei-34"/>
       <use xlink:href="#SimHei-30" x="50"/>
       <use xlink:href="#SimHei-30" x="100"/>
      </g>
     </g>
    </g>
    <g id="xtick_6">
     <g id="line2d_11">
      <path d="M 418.936364 320.4 
L 418.936364 43.2 
" clip-path="url(#p06ac358ef1)" style="fill: none; stroke: #b0b0b0; stroke-width: 0.8; stroke-linecap: square"/>
     </g>
     <g id="line2d_12">
      <g>
       <use xlink:href="#m28f8d71158" x="418.936364" y="320.4" style="stroke: #000000; stroke-width: 0.8"/>
      </g>
     </g>
     <g id="text_6">
      <!-- 500 -->
      <g transform="translate(411.436364 334.275)scale(0.1 -0.1)">
       <defs>
        <path id="SimHei-35" d="M 550 1325 
Q 725 650 1150 575 
Q 1575 500 1837 662 
Q 2100 825 2212 1087 
Q 2325 1350 2312 1675 
Q 2300 2000 2137 2225 
Q 1975 2450 1725 2525 
Q 1475 2600 1162 2525 
Q 850 2450 650 2175 
L 225 2225 
Q 275 2375 700 4375 
L 2675 4375 
L 2675 3925 
L 1075 3925 
Q 950 3250 825 2850 
Q 1200 3025 1525 3012 
Q 1850 3000 2150 2862 
Q 2450 2725 2587 2487 
Q 2725 2250 2787 2012 
Q 2850 1775 2837 1500 
Q 2825 1225 2725 937 
Q 2625 650 2425 462 
Q 2225 275 1937 162 
Q 1650 50 1275 75 
Q 900 100 562 350 
Q 225 600 100 1200 
L 550 1325 
z
" transform="scale(0.015625)"/>
       </defs>
       <use xlink:href="#SimHei-35"/>
       <use xlink:href="#SimHei-30" x="50"/>
       <use xlink:href="#SimHei-30" x="100"/>
      </g>
     </g>
    </g>
   </g>
   <g id="matplotlib.axis_2">
    <g id="ytick_1">
     <g id="line2d_13">
      <path d="M 63 307.408017 
L 453.6 307.408017 
" clip-path="url(#p06ac358ef1)" style="fill: none; stroke: #b0b0b0; stroke-width: 0.8; stroke-linecap: square"/>
     </g>
     <g id="line2d_14">
      <defs>
       <path id="m970599f878" d="M 0 0 
L -3.5 0 
" style="stroke: #000000; stroke-width: 0.8"/>
      </defs>
      <g>
       <use xlink:href="#m970599f878" x="63" y="307.408017" style="stroke: #000000; stroke-width: 0.8"/>
      </g>
     </g>
     <g id="text_7">
      <!-- 0 -->
      <g transform="translate(51 310.845517)scale(0.1 -0.1)">
       <use xlink:href="#SimHei-30"/>
      </g>
     </g>
    </g>
    <g id="ytick_2">
     <g id="line2d_15">
      <path d="M 63 251.410468 
L 453.6 251.410468 
" clip-path="url(#p06ac358ef1)" style="fill: none; stroke: #b0b0b0; stroke-width: 0.8; stroke-linecap: square"/>
     </g>
     <g id="line2d_16">
      <g>
       <use xlink:href="#m970599f878" x="63" y="251.410468" style="stroke: #000000; stroke-width: 0.8"/>
      </g>
     </g>
     <g id="text_8">
      <!-- 200 -->
      <g transform="translate(41 254.847968)scale(0.1 -0.1)">
       <use xlink:href="#SimHei-32"/>
       <use xlink:href="#SimHei-30" x="50"/>
       <use xlink:href="#SimHei-30" x="100"/>
      </g>
     </g>
    </g>
    <g id="ytick_3">
     <g id="line2d_17">
      <path d="M 63 195.412919 
L 453.6 195.412919 
" clip-path="url(#p06ac358ef1)" style="fill: none; stroke: #b0b0b0; stroke-width: 0.8; stroke-linecap: square"/>
     </g>
     <g id="line2d_18">
      <g>
       <use xlink:href="#m970599f878" x="63" y="195.412919" style="stroke: #000000; stroke-width: 0.8"/>
      </g>
     </g>
     <g id="text_9">
      <!-- 400 -->
      <g transform="translate(41 198.850419)scale(0.1 -0.1)">
       <use xlink:href="#SimHei-34"/>
       <use xlink:href="#SimHei-30" x="50"/>
       <use xlink:href="#SimHei-30" x="100"/>
      </g>
     </g>
    </g>
    <g id="ytick_4">
     <g id="line2d_19">
      <path d="M 63 139.41537 
L 453.6 139.41537 
" clip-path="url(#p06ac358ef1)" style="fill: none; stroke: #b0b0b0; stroke-width: 0.8; stroke-linecap: square"/>
     </g>
     <g id="line2d_20">
      <g>
       <use xlink:href="#m970599f878" x="63" y="139.41537" style="stroke: #000000; stroke-width: 0.8"/>
      </g>
     </g>
     <g id="text_10">
      <!-- 600 -->
      <g transform="translate(41 142.85287)scale(0.1 -0.1)">
       <defs>
        <path id="SimHei-36" d="M 250 1612 
Q 275 1975 387 2225 
Q 500 2475 725 2850 
L 1750 4450 
L 2325 4450 
L 1275 2800 
Q 1950 2975 2350 2750 
Q 2750 2525 2887 2237 
Q 3025 1950 3037 1612 
Q 3050 1275 2937 950 
Q 2825 625 2537 362 
Q 2250 100 1737 75 
Q 1225 50 862 262 
Q 500 475 362 862 
Q 225 1250 250 1612 
z
M 1025 787 
Q 1250 550 1625 525 
Q 2000 500 2250 775 
Q 2500 1050 2500 1575 
Q 2500 2100 2187 2300 
Q 1875 2500 1487 2450 
Q 1100 2400 925 2075 
Q 750 1750 775 1387 
Q 800 1025 1025 787 
z
" transform="scale(0.015625)"/>
       </defs>
       <use xlink:href="#SimHei-36"/>
       <use xlink:href="#SimHei-30" x="50"/>
       <use xlink:href="#SimHei-30" x="100"/>
      </g>
     </g>
    </g>
    <g id="ytick_5">
     <g id="line2d_21">
      <path d="M 63 83.417821 
L 453.6 83.417821 
" clip-path="url(#p06ac358ef1)" style="fill: none; stroke: #b0b0b0; stroke-width: 0.8; stroke-linecap: square"/>
     </g>
     <g id="line2d_22">
      <g>
       <use xlink:href="#m970599f878" x="63" y="83.417821" style="stroke: #000000; stroke-width: 0.8"/>
      </g>
     </g>
     <g id="text_11">
      <!-- 800 -->
      <g transform="translate(41 86.855321)scale(0.1 -0.1)">
       <defs>
        <path id="SimHei-38" d="M 175 1375 
Q 175 1675 325 1962 
Q 475 2250 825 2425 
Q 525 2600 425 2812 
Q 325 3025 312 3300 
Q 300 3575 387 3775 
Q 475 3975 650 4150 
Q 825 4325 1037 4387 
Q 1250 4450 1500 4450 
Q 1750 4450 1950 4400 
Q 2150 4350 2375 4187 
Q 2600 4025 2700 3725 
Q 2800 3425 2687 3025 
Q 2575 2625 2100 2400 
Q 2525 2275 2700 2012 
Q 2875 1750 2875 1375 
Q 2875 1000 2762 775 
Q 2650 550 2512 400 
Q 2375 250 2137 162 
Q 1900 75 1537 75 
Q 1175 75 912 162 
Q 650 250 475 425 
Q 300 600 237 837 
Q 175 1075 175 1375 
z
M 687 1400 
Q 675 1100 787 875 
Q 900 650 1200 587 
Q 1500 525 1825 600 
Q 2150 675 2275 950 
Q 2400 1225 2362 1500 
Q 2325 1775 2050 1962 
Q 1775 2150 1450 2125 
Q 1125 2100 912 1900 
Q 700 1700 687 1400 
z
M 775 3350 
Q 775 3100 950 2875 
Q 1125 2650 1500 2650 
Q 1875 2650 2062 2875 
Q 2250 3100 2237 3412 
Q 2225 3725 2012 3875 
Q 1800 4025 1437 4000 
Q 1075 3975 925 3787 
Q 775 3600 775 3350 
z
" transform="scale(0.015625)"/>
       </defs>
       <use xlink:href="#SimHei-38"/>
       <use xlink:href="#SimHei-30" x="50"/>
       <use xlink:href="#SimHei-30" x="100"/>
      </g>
     </g>
    </g>
   </g>
   <g id="line2d_23">
    <path d="M 80.754545 158.118551 
L 81.430909 219.715855 
L 82.107273 180.909554 
L 82.783636 230.019404 
L 83.46 219.883848 
L 84.136364 182.225496 
L 84.812727 189.67317 
L 85.489091 190.233146 
L 86.165455 182.673476 
L 86.841818 216.971975 
L 87.518182 243.038834 
L 88.194545 226.46356 
L 88.870909 195.664908 
L 89.547273 260.678062 
L 90.9 237.187091 
L 91.576364 235.535163 
L 92.252727 247.49064 
L 92.929091 186.117326 
L 93.605455 202.216621 
L 94.281818 234.471209 
L 94.958182 165.67822 
L 96.310909 72.974278 
L 96.987273 74.374216 
L 97.663636 79.945973 
L 98.34 124.016044 
L 99.016364 261.630021 
L 99.692727 192.41705 
L 100.369091 153.35876 
L 101.045455 214.1161 
L 101.721818 259.36212 
L 102.398182 229.935408 
L 103.074545 182.897467 
L 103.750909 206.472435 
L 104.427273 98.649154 
L 105.103636 189.589174 
L 105.78 166.518184 
L 106.456364 217.055972 
L 107.132727 138.211422 
L 107.809091 112.256558 
L 108.485455 111.136607 
L 109.161818 156.690614 
L 109.838182 133.255639 
L 111.190909 109.232691 
L 111.867273 85.293739 
L 112.543636 88.793585 
L 113.22 76.978103 
L 113.896364 70.622381 
L 114.572727 89.661547 
L 115.249091 114.664453 
L 115.925455 83.137833 
L 116.601818 99.153132 
L 117.278182 77.25809 
L 117.954545 84.509773 
L 118.630909 79.218004 
L 119.307273 79.581989 
L 119.983636 72.106316 
L 120.66 151.594837 
L 121.336364 70.538384 
L 122.012727 110.912617 
L 122.689091 83.221829 
L 123.365455 112.536546 
L 124.041818 111.864576 
L 124.718182 109.400683 
L 125.394545 99.489117 
L 126.070909 125.611974 
L 126.747273 93.301388 
L 127.423636 75.018188 
L 128.1 104.332905 
L 128.776364 84.705764 
L 129.452727 80.92593 
L 130.129091 98.957141 
L 130.805455 162.150375 
L 131.481818 256.114262 
L 132.158182 239.175004 
L 132.834545 232.035316 
L 133.510909 235.675157 
L 134.187273 139.86335 
L 134.863636 221.563774 
L 136.216364 307.744002 
L 137.569091 307.548011 
L 138.921818 307.548011 
L 139.598182 261.994005 
L 140.274545 241.890885 
L 140.950909 189.841163 
L 142.303636 268.573717 
L 142.98 172.257932 
L 143.656364 137.315462 
L 144.332727 155.206679 
L 145.009091 155.486666 
L 145.685455 131.267726 
L 146.361818 235.59116 
L 147.038182 280.725185 
L 147.714545 296.712485 
L 148.390909 289.348808 
L 149.067273 283.917045 
L 149.743636 294.752571 
L 150.42 307.57601 
L 151.096364 307.57601 
L 151.772727 248.414599 
L 152.449091 253.87436 
L 153.125455 203.000587 
L 153.801818 92.853408 
L 154.478182 84.957753 
L 155.154545 69.446432 
L 155.830909 73.450257 
L 156.507273 214.144099 
L 157.183636 307.8 
L 157.86 211.120231 
L 158.536364 84.173788 
L 159.212727 76.250134 
L 159.889091 73.730245 
L 160.565455 70.566383 
L 161.241818 71.54634 
L 161.918182 122.812096 
L 162.594545 79.945973 
L 163.270909 74.150226 
L 163.947273 167.834126 
L 164.623636 211.764203 
L 165.3 220.443823 
L 165.976364 233.799239 
L 166.652727 244.634765 
L 167.329091 252.810407 
L 168.005455 251.018485 
L 168.681818 243.122831 
L 169.358182 219.127881 
L 170.034545 252.810407 
L 170.710909 223.691681 
L 171.387273 243.850799 
L 172.063636 240.826931 
L 172.74 185.55735 
L 174.092727 242.842843 
L 174.769091 236.347127 
L 175.445455 163.41032 
L 176.121818 170.354016 
L 176.798182 164.530271 
L 177.474545 164.250283 
L 178.150909 101.953009 
L 178.827273 111.864576 
L 179.503636 188.805208 
L 180.18 202.608604 
L 180.856364 197.848812 
L 181.532727 207.340397 
L 182.209091 233.575249 
L 182.885455 213.22014 
L 183.561818 187.937246 
L 184.238182 240.070964 
L 184.914545 221.815763 
L 185.590909 200.508696 
L 186.267273 235.927146 
L 186.943636 255.834274 
L 187.62 186.873293 
L 188.296364 273.361507 
L 188.972727 239.650983 
L 189.649091 267.621759 
L 190.325455 282.041127 
L 191.678182 232.371301 
L 192.354545 184.101414 
L 193.030909 198.184798 
L 193.707273 273.361507 
L 194.383636 191.717081 
L 195.06 185.837338 
L 195.736364 270.197646 
L 196.412727 297.188464 
L 197.089091 290.356763 
L 197.765455 279.493239 
L 198.441818 284.757009 
L 199.794545 307.604009 
L 201.823636 307.632007 
L 202.5 296.320502 
L 203.176364 291.308722 
L 203.852727 252.390425 
L 204.529091 287.528887 
L 205.205455 289.768789 
L 205.881818 280.83718 
L 206.558182 299.652357 
L 207.234545 286.996911 
L 207.910909 276.917352 
L 208.587273 181.749517 
L 209.263636 166.182198 
L 209.94 231.02736 
L 210.616364 102.288995 
L 211.292727 229.795414 
L 211.969091 273.809488 
L 212.645455 274.761446 
L 213.321818 294.360588 
L 213.998182 281.873135 
L 214.674545 264.737885 
L 215.350909 273.585497 
L 216.027273 307.380018 
L 216.703636 307.57601 
L 217.38 291.672706 
L 218.056364 262.413986 
L 218.732727 293.18464 
L 219.409091 294.668575 
L 220.085455 244.074789 
L 220.761818 256.478246 
L 221.438182 220.303829 
L 222.114545 119.53624 
L 222.790909 85.601725 
L 223.467273 73.870239 
L 224.143636 223.71968 
L 224.82 288.732835 
L 225.496364 220.723811 
L 226.172727 171.249976 
L 226.849091 102.568982 
L 227.525455 119.508241 
L 228.201818 275.685406 
L 228.878182 307.744002 
L 229.554545 307.744002 
L 230.230909 275.965393 
L 230.907273 238.251044 
L 231.583636 237.859061 
L 232.26 212.380176 
L 232.936364 225.875586 
L 233.612727 154.450712 
L 234.289091 225.5396 
L 234.965455 244.04679 
L 235.641818 245.082745 
L 236.994545 251.214477 
L 237.670909 183.037461 
L 238.347273 209.748291 
L 239.023636 189.057197 
L 239.7 129.5878 
L 240.376364 125.47198 
L 241.052727 75.21418 
L 241.729091 86.497686 
L 242.405455 125.415983 
L 243.081818 307.57601 
L 246.463636 307.57601 
L 247.14 69.50243 
L 247.816364 71.434345 
L 248.492727 74.822197 
L 249.169091 69.698421 
L 249.845455 73.758243 
L 250.521818 69.446432 
L 251.874545 79.134008 
L 252.550909 79.022013 
L 253.227273 72.022319 
L 253.903636 99.321125 
L 254.58 98.873144 
L 255.256364 159.406495 
L 255.932727 126.255946 
L 256.609091 122.28012 
L 257.285455 77.790067 
L 257.961818 144.651141 
L 258.638182 234.723198 
L 259.314545 256.674238 
L 259.990909 273.781489 
L 260.667273 281.873135 
L 261.343636 258.466159 
L 262.02 248.610591 
L 262.696364 274.929439 
L 263.372727 268.713711 
L 264.049091 245.754716 
L 264.725455 268.237732 
L 265.401818 278.261293 
L 266.078182 269.301685 
L 266.754545 245.362733 
L 268.107273 298.504407 
L 268.783636 302.08825 
L 269.46 307.632007 
L 270.136364 293.968605 
L 270.812727 301.86426 
L 271.489091 307.632007 
L 272.165455 236.711111 
L 272.841818 246.398687 
L 273.518182 245.026747 
L 274.870909 122.644104 
L 275.547273 242.45086 
L 276.223636 203.336572 
L 276.9 275.57341 
L 277.576364 279.157254 
L 278.252727 279.605234 
L 278.929091 212.07219 
L 279.605455 254.09835 
L 280.281818 246.594679 
L 280.958182 261.686018 
L 281.634545 212.576168 
L 282.310909 271.597584 
L 282.987273 245.894709 
L 283.663636 174.273844 
L 284.34 251.970444 
L 285.016364 190.009155 
L 285.692727 221.479778 
L 286.369091 234.303217 
L 287.045455 210.92424 
L 287.721818 276.329377 
L 288.398182 218.959888 
L 289.750909 179.341622 
L 290.427273 183.093458 
L 291.103636 241.750891 
L 291.78 215.068059 
L 292.456364 252.558418 
L 293.132727 235.843149 
L 293.809091 293.40863 
L 295.161818 288.732835 
L 295.838182 292.680662 
L 296.514545 307.604009 
L 297.867273 307.548011 
L 301.249091 307.57601 
L 301.925455 307.660006 
L 303.278182 307.604009 
L 303.954545 307.660006 
L 304.630909 307.57601 
L 307.336364 307.604009 
L 308.012727 307.57601 
L 308.689091 299.484364 
L 309.365455 307.548011 
L 310.041818 295.060558 
L 310.718182 304.440147 
L 311.394545 307.548011 
L 316.129091 307.632007 
L 316.805455 303.600184 
L 317.481818 307.57601 
L 324.921818 307.604009 
L 325.598182 306.456059 
L 326.274545 307.57601 
L 326.950909 294.444585 
L 327.627273 290.636751 
L 328.303636 290.496757 
L 328.98 295.844523 
L 329.656364 286.408936 
L 330.332727 307.57601 
L 331.009091 307.604009 
L 331.685455 295.732528 
L 332.361818 299.456365 
L 333.038182 307.632007 
L 333.714545 307.548011 
L 335.067273 307.57601 
L 335.743636 307.744002 
L 336.42 307.57601 
L 337.772727 307.57601 
L 339.125455 261.574023 
L 339.801818 195.944896 
L 340.478182 217.08397 
L 341.154545 118.248296 
L 341.830909 222.655727 
L 342.507273 261.770015 
L 343.183636 293.212638 
L 343.86 285.288985 
L 344.536364 273.585497 
L 345.212727 293.716616 
L 345.889091 286.380937 
L 346.565455 283.497064 
L 347.241818 289.600797 
L 347.918182 288.480846 
L 348.594545 291.448716 
L 349.270909 274.313466 
L 349.947273 283.945044 
L 350.623636 260.846055 
L 351.3 275.153429 
L 351.976364 243.906796 
L 352.652727 157.390583 
L 353.329091 168.142112 
L 354.005455 154.982688 
L 354.681818 113.236516 
L 355.358182 96.437251 
L 356.034545 131.323724 
L 356.710909 95.653285 
L 357.387273 96.129264 
L 358.063636 145.407108 
L 358.74 92.461425 
L 359.416364 115.448419 
L 360.092727 158.202548 
L 360.769091 117.520328 
L 361.445455 159.994469 
L 362.121818 105.200867 
L 362.798182 161.310411 
L 363.474545 146.751049 
L 364.150909 139.023387 
L 364.827273 230.943364 
L 365.503636 163.662309 
L 366.18 181.357534 
L 366.856364 172.565919 
L 367.532727 229.87941 
L 368.209091 264.121912 
L 368.885455 252.222432 
L 369.561818 181.581524 
L 370.238182 135.159556 
L 370.914545 214.1161 
L 371.590909 202.24462 
L 372.267273 240.966925 
L 372.943636 133.031649 
L 373.62 92.657416 
L 374.296364 208.908328 
L 374.972727 173.097896 
L 375.649091 190.233146 
L 376.325455 157.726568 
L 377.001818 89.577551 
L 377.678182 75.382172 
L 378.354545 168.058116 
L 379.030909 176.037767 
L 379.707273 231.195353 
L 380.383636 224.811632 
L 381.06 153.050773 
L 381.736364 269.609671 
L 382.412727 210.308267 
L 383.089091 207.480391 
L 383.765455 222.767722 
L 384.441818 268.713711 
L 385.118182 229.683419 
L 385.794545 254.210345 
L 386.470909 223.355696 
L 387.147273 256.562243 
L 387.823636 225.763591 
L 388.5 277.981305 
L 389.176364 259.950094 
L 389.852727 162.48636 
L 390.529091 189.785165 
L 391.205455 188.497222 
L 391.881818 138.575407 
L 392.558182 157.22259 
L 393.234545 133.983608 
L 393.910909 92.517422 
L 394.587273 157.92256 
L 395.263636 192.473048 
L 395.94 181.105545 
L 396.616364 147.759005 
L 397.292727 171.949946 
L 397.969091 87.337649 
L 398.645455 101.505029 
L 399.321818 188.133238 
L 399.998182 114.832446 
L 400.674545 142.551233 
L 401.350909 149.69092 
L 402.027273 116.820359 
L 402.703636 76.978103 
L 403.38 70.258397 
L 404.056364 70.734376 
L 404.732727 85.741719 
L 405.409091 115.336424 
L 406.085455 166.182198 
L 406.761818 236.683113 
L 407.438182 147.563013 
L 408.114545 246.062702 
L 408.790909 243.402819 
L 409.467273 241.274912 
L 410.143636 307.772001 
L 410.82 271.205602 
L 411.496364 252.558418 
L 412.172727 291.756702 
L 412.849091 289.264811 
L 413.525455 253.454379 
L 414.201818 241.470903 
L 415.554545 137.81944 
L 416.230909 120.012219 
L 416.907273 90.7535 
L 417.583636 147.227028 
L 418.26 102.121002 
L 418.936364 91.565464 
L 419.612727 121.496154 
L 420.289091 159.910473 
L 420.965455 243.906796 
L 421.641818 279.717229 
L 422.318182 307.688005 
L 422.994545 261.854011 
L 423.670909 228.871455 
L 425.023636 265.325859 
L 425.7 267.229776 
L 426.376364 243.962794 
L 427.052727 197.20484 
L 427.729091 162.654353 
L 428.405455 168.338104 
L 429.081818 243.094832 
L 429.758182 158.14655 
L 430.434545 173.209891 
L 431.110909 132.55567 
L 431.787273 125.107996 
L 432.463636 186.425312 
L 433.14 178.949639 
L 433.816364 77.538078 
L 435.169091 70.034406 
L 435.845455 72.806285 
L 435.845455 72.806285 
" clip-path="url(#p06ac358ef1)" style="fill: none; stroke: #1f77b4; stroke-width: 1.5; stroke-linecap: square"/>
   </g>
   <g id="line2d_24">
    <path d="M 80.754545 153.755224 
L 81.430909 222.489377 
L 82.107273 181.748772 
L 82.783636 230.504144 
L 83.46 227.398638 
L 84.136364 185.299411 
L 84.812727 194.435974 
L 85.489091 188.64736 
L 86.165455 183.84439 
L 86.841818 221.059916 
L 87.518182 242.084008 
L 88.194545 228.494257 
L 88.870909 196.539694 
L 89.547273 256.555196 
L 90.9 240.021216 
L 91.576364 238.177005 
L 92.252727 251.785028 
L 92.929091 194.388268 
L 93.605455 201.89546 
L 94.281818 242.242794 
L 94.958182 174.717992 
L 95.634545 124.654733 
L 96.987273 73.522284 
L 97.663636 78.932934 
L 98.34 126.483553 
L 99.016364 262.222901 
L 99.692727 194.288164 
L 100.369091 164.31184 
L 101.721818 256.530937 
L 102.398182 229.301255 
L 103.074545 185.451425 
L 103.750909 209.373883 
L 104.427273 106.187768 
L 105.103636 190.288443 
L 105.78 165.566145 
L 106.456364 221.458712 
L 107.132727 135.646667 
L 107.809091 108.381619 
L 108.485455 110.263248 
L 109.161818 166.120294 
L 109.838182 131.8795 
L 110.514545 128.345312 
L 111.867273 87.347458 
L 112.543636 90.123488 
L 113.22 81.397008 
L 113.896364 77.273238 
L 114.572727 87.47149 
L 115.249091 109.222511 
L 115.925455 84.444861 
L 116.601818 93.973377 
L 117.278182 78.820233 
L 117.954545 86.456715 
L 118.630909 79.937346 
L 119.307273 77.146564 
L 119.983636 79.988579 
L 120.66 148.751457 
L 121.336364 80.194034 
L 122.012727 101.828742 
L 122.689091 85.793583 
L 123.365455 114.127652 
L 124.041818 118.659177 
L 124.718182 113.791855 
L 125.394545 103.682827 
L 126.070909 119.077824 
L 126.747273 88.397272 
L 127.423636 92.001807 
L 128.1 107.113646 
L 128.776364 80.940603 
L 129.452727 81.302981 
L 130.129091 91.192582 
L 130.805455 163.538807 
L 131.481818 258.745963 
L 132.158182 238.474802 
L 132.834545 233.293451 
L 133.510909 243.180401 
L 134.187273 138.605063 
L 134.863636 226.963582 
L 136.216364 305.594629 
L 136.892727 307.33452 
L 137.569091 306.870399 
L 138.245455 307.239881 
L 138.921818 307.222448 
L 139.598182 264.920851 
L 140.274545 249.788267 
L 140.950909 192.033919 
L 142.303636 270.32923 
L 142.98 178.351021 
L 143.656364 132.219725 
L 144.332727 159.30604 
L 145.009091 154.623105 
L 145.685455 127.07341 
L 146.361818 236.18154 
L 147.038182 280.846449 
L 147.714545 294.964828 
L 148.390909 287.706848 
L 149.067273 285.66413 
L 149.743636 294.37952 
L 150.42 306.599271 
L 151.096364 307.11109 
L 151.772727 253.182613 
L 152.449091 257.073904 
L 153.125455 212.281036 
L 153.801818 98.150085 
L 154.478182 82.825371 
L 155.154545 75.654135 
L 155.830909 77.256367 
L 156.507273 229.995912 
L 157.183636 303.910673 
L 157.86 209.799933 
L 158.536364 93.920463 
L 159.212727 81.797071 
L 159.889091 112.641627 
L 160.565455 78.134469 
L 161.241818 76.976067 
L 161.918182 119.382093 
L 162.594545 80.552816 
L 163.270909 79.18406 
L 163.947273 165.621769 
L 164.623636 209.969351 
L 166.652727 246.80212 
L 167.329091 251.596671 
L 168.005455 246.991625 
L 168.681818 241.429514 
L 169.358182 223.284487 
L 170.034545 253.476048 
L 170.710909 228.908284 
L 171.387273 247.622971 
L 172.063636 244.346849 
L 172.74 191.562805 
L 174.092727 244.324419 
L 174.769091 239.430821 
L 175.445455 163.805525 
L 176.121818 165.690059 
L 176.798182 166.590546 
L 177.474545 164.782714 
L 178.150909 106.838816 
L 178.827273 108.497318 
L 179.503636 192.651203 
L 180.18 209.370182 
L 180.856364 201.581621 
L 181.532727 209.698783 
L 182.209091 236.339594 
L 182.885455 212.048312 
L 183.561818 193.869182 
L 184.238182 241.938768 
L 185.590909 202.958831 
L 186.267273 237.886588 
L 186.943636 256.91539 
L 187.62 194.466399 
L 188.296364 272.601536 
L 188.972727 243.485131 
L 189.649091 270.969817 
L 190.325455 283.963013 
L 191.001818 263.049115 
L 191.678182 238.295968 
L 192.354545 178.17503 
L 193.030909 194.751642 
L 193.707273 271.900642 
L 194.383636 194.047321 
L 195.06 180.835858 
L 195.736364 269.125992 
L 196.412727 297.58871 
L 197.089091 291.141065 
L 197.765455 280.796239 
L 198.441818 286.443967 
L 199.118182 298.577535 
L 199.794545 306.905004 
L 201.823636 307.238169 
L 202.5 296.655408 
L 203.176364 291.231607 
L 203.852727 255.368605 
L 204.529091 286.801448 
L 205.205455 290.975736 
L 205.881818 281.691369 
L 206.558182 299.315314 
L 207.910909 276.57858 
L 208.587273 178.59949 
L 209.263636 162.522516 
L 209.94 226.35881 
L 210.616364 99.310725 
L 211.292727 233.205679 
L 211.969091 273.763373 
L 212.645455 274.778182 
L 213.321818 295.952352 
L 214.674545 266.454647 
L 215.350909 273.30804 
L 216.027273 306.224674 
L 216.703636 307.323187 
L 217.38 290.856898 
L 218.056364 260.018374 
L 218.732727 292.710226 
L 219.409091 294.523183 
L 220.085455 245.895603 
L 220.761818 258.491283 
L 221.438182 218.345447 
L 222.114545 126.242176 
L 222.790909 93.401733 
L 223.467273 92.904409 
L 224.143636 222.730678 
L 224.82 287.689764 
L 226.849091 102.702995 
L 227.525455 117.267866 
L 228.201818 272.341135 
L 228.878182 304.290909 
L 229.554545 306.917712 
L 230.230909 276.702301 
L 230.907273 236.066889 
L 231.583636 238.410941 
L 232.26 213.034376 
L 232.936364 223.1894 
L 233.612727 156.173032 
L 234.289091 232.981196 
L 234.965455 246.499095 
L 235.641818 246.978188 
L 236.318182 246.999636 
L 236.994545 252.178673 
L 237.670909 185.997875 
L 238.347273 210.573767 
L 239.023636 193.583919 
L 239.7 129.911758 
L 240.376364 125.746981 
L 241.052727 100.004115 
L 241.729091 80.185539 
L 242.405455 87.302923 
L 243.081818 217.335922 
L 243.758182 229.660269 
L 244.434545 252.655701 
L 245.110909 249.108475 
L 245.787273 226.697011 
L 246.463636 151.264856 
L 247.14 128.039084 
L 247.816364 55.8 
L 248.492727 80.930741 
L 249.169091 81.288112 
L 249.845455 100.373388 
L 250.521818 77.336836 
L 251.198182 74.283485 
L 251.874545 78.109641 
L 252.550909 76.962586 
L 253.227273 76.932354 
L 253.903636 93.711822 
L 254.58 100.33223 
L 255.256364 155.041985 
L 255.932727 122.420909 
L 256.609091 115.495353 
L 257.285455 78.387089 
L 257.961818 134.769776 
L 258.638182 234.399576 
L 259.314545 253.530723 
L 259.990909 285.789791 
L 260.667273 280.291882 
L 261.343636 258.432717 
L 262.02 248.117546 
L 262.696364 275.359362 
L 263.372727 267.378103 
L 264.049091 245.466528 
L 264.725455 268.967063 
L 265.401818 278.587268 
L 266.078182 269.700157 
L 266.754545 250.737603 
L 267.430909 271.015815 
L 268.107273 298.172196 
L 268.783636 301.51064 
L 269.46 307.222354 
L 270.136364 294.557163 
L 270.812727 303.393595 
L 271.489091 307.096988 
L 272.165455 239.462495 
L 272.841818 246.82643 
L 273.518182 251.4872 
L 274.194545 180.49141 
L 274.870909 129.617078 
L 275.547273 238.362928 
L 276.223636 209.275599 
L 276.9 275.346999 
L 277.576364 282.246263 
L 278.252727 280.24794 
L 278.929091 214.032314 
L 279.605455 251.894732 
L 280.281818 247.932262 
L 280.958182 258.543213 
L 281.634545 213.801587 
L 282.310909 271.362231 
L 282.987273 240.192154 
L 283.663636 174.71811 
L 284.34 251.940044 
L 285.016364 190.283259 
L 285.692727 222.942843 
L 286.369091 235.077058 
L 287.045455 212.150553 
L 287.721818 276.632541 
L 288.398182 222.593392 
L 289.750909 173.236383 
L 290.427273 180.604609 
L 291.103636 242.079399 
L 291.78 212.081621 
L 292.456364 252.910877 
L 293.132727 235.205855 
L 293.809091 292.153368 
L 294.485455 293.087853 
L 295.161818 290.699223 
L 295.838182 292.808213 
L 296.514545 307.205818 
L 297.190909 307.261648 
L 297.867273 307.121644 
L 298.543636 307.35219 
L 300.572727 307.35219 
L 301.249091 307.212186 
L 304.630909 307.103722 
L 305.307273 307.35219 
L 305.983636 307.35219 
L 306.66 307.103722 
L 308.012727 307.103722 
L 308.689091 302.010669 
L 309.365455 307.103722 
L 310.041818 296.468572 
L 310.718182 305.23226 
L 311.394545 307.103722 
L 312.070909 307.35219 
L 315.452727 307.35219 
L 316.129091 307.103722 
L 316.805455 304.843702 
L 317.481818 307.103722 
L 318.158182 307.212186 
L 318.834545 307.103722 
L 320.863636 307.35219 
L 321.54 307.35219 
L 322.216364 307.103722 
L 322.892727 307.35219 
L 323.569091 306.584684 
L 324.245455 307.103722 
L 324.921818 306.916885 
L 325.598182 307.165354 
L 326.274545 307.103722 
L 326.950909 293.79354 
L 327.627273 291.231607 
L 328.303636 289.677721 
L 328.98 296.060527 
L 329.656364 286.641235 
L 330.332727 306.599382 
L 331.009091 307.212186 
L 331.685455 296.564866 
L 332.361818 299.464721 
L 333.038182 307.103722 
L 333.714545 307.35219 
L 335.067273 307.35219 
L 335.743636 307.212186 
L 336.42 307.35219 
L 337.096364 307.018215 
L 337.772727 306.404581 
L 338.449091 282.394425 
L 339.125455 263.998172 
L 339.801818 185.895357 
L 340.478182 228.771028 
L 341.154545 123.271961 
L 341.830909 221.697162 
L 342.507273 260.978111 
L 343.183636 292.216903 
L 343.86 284.649976 
L 344.536364 270.057572 
L 345.212727 293.369679 
L 345.889091 286.403318 
L 346.565455 285.518969 
L 347.241818 290.566414 
L 347.918182 289.664193 
L 348.594545 292.504852 
L 349.270909 275.780453 
L 349.947273 284.67182 
L 350.623636 263.128041 
L 351.3 275.584181 
L 351.976364 247.318258 
L 352.652727 162.003913 
L 353.329091 166.314122 
L 354.005455 154.174993 
L 354.681818 107.733768 
L 355.358182 95.367397 
L 356.034545 128.328454 
L 356.710909 97.491092 
L 357.387273 95.426287 
L 358.063636 136.934088 
L 358.74 83.732628 
L 359.416364 102.956523 
L 360.092727 151.59235 
L 360.769091 109.527454 
L 361.445455 155.133626 
L 362.121818 103.733436 
L 362.798182 160.580103 
L 363.474545 149.38563 
L 364.150909 134.715864 
L 364.827273 231.625941 
L 365.503636 162.110572 
L 366.18 175.077824 
L 366.856364 165.394897 
L 367.532727 229.587412 
L 368.209091 264.42465 
L 368.885455 255.634909 
L 369.561818 174.146001 
L 370.238182 131.40746 
L 370.914545 210.172401 
L 371.590909 212.586143 
L 372.267273 246.604773 
L 372.943636 131.278403 
L 373.62 95.753899 
L 374.296364 207.372473 
L 374.972727 172.941207 
L 375.649091 193.218317 
L 376.325455 161.099522 
L 377.001818 91.195929 
L 377.678182 86.751216 
L 378.354545 164.060718 
L 379.030909 181.903153 
L 379.707273 230.452038 
L 380.383636 222.084646 
L 381.06 157.09662 
L 381.736364 268.22677 
L 382.412727 212.018806 
L 383.089091 211.098612 
L 383.765455 222.156718 
L 384.441818 266.206909 
L 385.118182 227.930345 
L 385.794545 253.674078 
L 386.470909 224.687235 
L 387.147273 261.724926 
L 387.823636 232.485083 
L 388.5 279.873595 
L 389.176364 262.430048 
L 389.852727 163.647197 
L 390.529091 190.415062 
L 391.205455 179.083231 
L 391.881818 134.605766 
L 392.558182 157.576415 
L 393.910909 93.391488 
L 394.587273 157.289272 
L 395.263636 190.882592 
L 395.94 174.909068 
L 396.616364 149.225047 
L 397.292727 171.679635 
L 397.969091 88.946893 
L 398.645455 95.045507 
L 399.321818 180.438525 
L 399.998182 107.7967 
L 400.674545 131.549176 
L 401.350909 147.68315 
L 402.027273 110.043686 
L 402.703636 82.288624 
L 403.38 76.183388 
L 404.056364 75.017875 
L 404.732727 82.895808 
L 405.409091 104.637158 
L 406.085455 163.638752 
L 406.761818 240.210926 
L 407.438182 150.791814 
L 408.114545 242.35191 
L 408.790909 243.059319 
L 409.467273 244.700697 
L 410.143636 305.749019 
L 410.82 272.633306 
L 411.496364 252.36634 
L 412.172727 291.776422 
L 412.849091 290.035299 
L 413.525455 251.976781 
L 414.201818 246.650439 
L 414.878182 185.935144 
L 415.554545 136.573471 
L 416.230909 126.976571 
L 416.907273 87.905912 
L 417.583636 148.726701 
L 418.26 97.721311 
L 418.936364 89.374637 
L 419.612727 125.126099 
L 420.289091 151.429749 
L 420.965455 246.249601 
L 421.641818 280.292629 
L 422.318182 305.712512 
L 422.994545 264.543111 
L 423.670909 232.91232 
L 424.347273 245.007619 
L 425.023636 264.951919 
L 425.7 270.149619 
L 426.376364 244.10331 
L 427.052727 210.579186 
L 427.729091 166.314122 
L 428.405455 171.788407 
L 429.081818 244.722193 
L 429.758182 161.631733 
L 430.434545 176.225605 
L 431.110909 131.212195 
L 431.787273 126.968605 
L 432.463636 191.125561 
L 433.14 178.378868 
L 433.816364 88.208562 
L 434.492727 80.306939 
L 435.169091 88.535865 
L 435.845455 71.969881 
L 435.845455 71.969881 
" clip-path="url(#p06ac358ef1)" style="fill: none; stroke-dasharray: 5.55,2.4; stroke-dashoffset: 0; stroke: #ff7f0e; stroke-width: 1.5"/>
   </g>
   <g id="patch_3">
    <path d="M 63 320.4 
L 63 43.2 
" style="fill: none; stroke: #000000; stroke-width: 0.8; stroke-linejoin: miter; stroke-linecap: square"/>
   </g>
   <g id="patch_4">
    <path d="M 453.6 320.4 
L 453.6 43.2 
" style="fill: none; stroke: #000000; stroke-width: 0.8; stroke-linejoin: miter; stroke-linecap: square"/>
   </g>
   <g id="patch_5">
    <path d="M 63 320.4 
L 453.6 320.4 
" style="fill: none; stroke: #000000; stroke-width: 0.8; stroke-linejoin: miter; stroke-linecap: square"/>
   </g>
   <g id="patch_6">
    <path d="M 63 43.2 
L 453.6 43.2 
" style="fill: none; stroke: #000000; stroke-width: 0.8; stroke-linejoin: miter; stroke-linecap: square"/>
   </g>
   <g id="text_12">
    <!-- GradientBoostingRegressor 验证集预测 -->
    <g transform="translate(150.3 37.2)scale(0.12 -0.12)">
     <defs>
      <path id="SimHei-47" d="M 2850 75 
L 2425 75 
L 2350 425 
Q 2250 275 2037 175 
Q 1825 75 1575 75 
Q 1050 75 637 562 
Q 225 1050 225 2125 
Q 225 3300 600 3875 
Q 975 4450 1625 4450 
Q 2200 4450 2525 4025 
Q 2850 3600 2850 2925 
L 2300 2925 
Q 2300 3450 2125 3712 
Q 1950 3975 1625 3975 
Q 1225 3975 1025 3562 
Q 825 3150 825 2175 
Q 825 1250 1075 900 
Q 1325 550 1650 550 
Q 1975 550 2162 787 
Q 2350 1025 2350 1525 
L 2350 1800 
L 1575 1800 
L 1575 2275 
L 2850 2275 
L 2850 75 
z
" transform="scale(0.015625)"/>
      <path id="SimHei-72" d="M 2500 2425 
Q 2025 2500 1700 2287 
Q 1375 2075 1150 1550 
L 1150 125 
L 650 125 
L 650 2925 
L 1150 2925 
L 1150 2200 
Q 1375 2600 1712 2787 
Q 2050 2975 2500 2975 
L 2500 2425 
z
" transform="scale(0.015625)"/>
      <path id="SimHei-61" d="M 2875 125 
L 2275 125 
Q 2225 175 2200 262 
Q 2175 350 2175 475 
Q 2000 275 1750 175 
Q 1500 75 1225 75 
Q 825 75 550 275 
Q 275 475 275 850 
Q 275 1225 525 1450 
Q 775 1675 1300 1750 
Q 1650 1800 1912 1875 
Q 2175 1950 2175 2075 
Q 2175 2225 2062 2375 
Q 1950 2525 1575 2525 
Q 1275 2525 1137 2412 
Q 1000 2300 950 2100 
L 400 2100 
Q 450 2500 762 2737 
Q 1075 2975 1575 2975 
Q 2125 2975 2400 2725 
Q 2675 2475 2675 2025 
L 2675 650 
Q 2675 500 2725 375 
Q 2775 250 2875 125 
z
M 2175 1050 
L 2175 1550 
Q 2025 1500 1887 1462 
Q 1750 1425 1425 1375 
Q 1050 1325 937 1200 
Q 825 1075 825 900 
Q 825 750 937 637 
Q 1050 525 1275 525 
Q 1500 525 1762 650 
Q 2025 775 2175 1050 
z
" transform="scale(0.015625)"/>
      <path id="SimHei-64" d="M 2750 125 
L 2250 125 
L 2250 500 
Q 2100 275 1900 175 
Q 1700 75 1425 75 
Q 925 75 575 437 
Q 225 800 225 1525 
Q 225 2250 575 2625 
Q 925 3000 1425 3000 
Q 1700 3000 1900 2887 
Q 2100 2775 2250 2550 
L 2250 4400 
L 2750 4400 
L 2750 125 
z
M 2250 1525 
Q 2250 2000 2037 2275 
Q 1825 2550 1525 2550 
Q 1150 2550 962 2275 
Q 775 2000 775 1525 
Q 775 1050 962 787 
Q 1150 525 1525 525 
Q 1825 525 2037 787 
Q 2250 1050 2250 1525 
z
" transform="scale(0.015625)"/>
      <path id="SimHei-69" d="M 1800 3725 
L 1300 3725 
L 1300 4375 
L 1800 4375 
L 1800 3725 
z
M 1800 125 
L 1300 125 
L 1300 2925 
L 1800 2925 
L 1800 125 
z
" transform="scale(0.015625)"/>
      <path id="SimHei-65" d="M 2850 1075 
Q 2800 625 2450 350 
Q 2100 75 1625 75 
Q 1025 75 637 462 
Q 250 850 250 1525 
Q 250 2200 637 2587 
Q 1025 2975 1625 2975 
Q 2150 2975 2487 2637 
Q 2825 2300 2825 1525 
L 800 1525 
Q 800 975 1037 750 
Q 1275 525 1625 525 
Q 1900 525 2075 662 
Q 2250 800 2300 1075 
L 2850 1075 
z
M 2250 1925 
Q 2200 2275 2025 2412 
Q 1850 2550 1575 2550 
Q 1325 2550 1125 2412 
Q 925 2275 825 1925 
L 2250 1925 
z
" transform="scale(0.015625)"/>
      <path id="SimHei-6e" d="M 2800 125 
L 2300 125 
L 2300 1925 
Q 2300 2225 2150 2400 
Q 2000 2575 1750 2575 
Q 1425 2575 1137 2237 
Q 850 1900 850 1400 
L 850 125 
L 350 125 
L 350 2925 
L 850 2925 
L 850 2400 
Q 1050 2675 1287 2825 
Q 1525 2975 1900 2975 
Q 2350 2975 2575 2725 
Q 2800 2475 2800 2100 
L 2800 125 
z
" transform="scale(0.015625)"/>
      <path id="SimHei-74" d="M 2750 200 
Q 2625 150 2462 112 
Q 2300 75 2025 75 
Q 1575 75 1300 325 
Q 1025 575 1025 1025 
L 1025 2525 
L 175 2525 
L 175 2925 
L 1025 2925 
L 1025 3900 
L 1525 3900 
L 1525 2925 
L 2550 2925 
L 2550 2525 
L 1525 2525 
L 1525 1000 
Q 1525 800 1625 662 
Q 1725 525 2000 525 
Q 2275 525 2450 575 
Q 2625 625 2750 700 
L 2750 200 
z
" transform="scale(0.015625)"/>
      <path id="SimHei-42" d="M 2950 1400 
Q 2950 675 2550 400 
Q 2150 125 1525 125 
L 275 125 
L 275 4400 
L 1575 4400 
Q 2200 4400 2512 4075 
Q 2825 3750 2825 3300 
Q 2825 2850 2612 2637 
Q 2400 2425 2175 2350 
Q 2475 2275 2712 2037 
Q 2950 1800 2950 1400 
z
M 2250 3300 
Q 2250 3625 2062 3775 
Q 1875 3925 1600 3925 
L 850 3925 
L 850 2600 
L 1575 2600 
Q 1850 2600 2050 2762 
Q 2250 2925 2250 3300 
z
M 2350 1400 
Q 2350 1800 2087 1962 
Q 1825 2125 1500 2125 
L 850 2125 
L 850 600 
L 1425 600 
Q 1875 600 2112 775 
Q 2350 950 2350 1400 
z
" transform="scale(0.015625)"/>
      <path id="SimHei-6f" d="M 2925 1525 
Q 2925 875 2525 475 
Q 2125 75 1575 75 
Q 1025 75 625 475 
Q 225 875 225 1525 
Q 225 2175 625 2575 
Q 1025 2975 1575 2975 
Q 2125 2975 2525 2575 
Q 2925 2175 2925 1525 
z
M 2375 1525 
Q 2375 2025 2125 2275 
Q 1875 2525 1575 2525 
Q 1275 2525 1025 2275 
Q 775 2025 775 1525 
Q 775 1025 1025 775 
Q 1275 525 1575 525 
Q 1875 525 2125 775 
Q 2375 1025 2375 1525 
z
" transform="scale(0.015625)"/>
      <path id="SimHei-73" d="M 2750 900 
Q 2750 500 2437 287 
Q 2125 75 1650 75 
Q 1050 75 725 312 
Q 400 550 400 1000 
L 900 1000 
Q 900 700 1112 600 
Q 1325 500 1625 500 
Q 1925 500 2075 612 
Q 2225 725 2225 900 
Q 2225 1025 2100 1150 
Q 1975 1275 1475 1350 
Q 900 1425 687 1637 
Q 475 1850 475 2200 
Q 475 2500 762 2737 
Q 1050 2975 1600 2975 
Q 2100 2975 2387 2750 
Q 2675 2525 2675 2150 
L 2175 2150 
Q 2175 2375 2012 2462 
Q 1850 2550 1600 2550 
Q 1275 2550 1137 2437 
Q 1000 2325 1000 2175 
Q 1000 2000 1125 1900 
Q 1250 1800 1650 1750 
Q 2300 1650 2525 1437 
Q 2750 1225 2750 900 
z
" transform="scale(0.015625)"/>
      <path id="SimHei-67" d="M 2975 2500 
Q 2800 2550 2637 2562 
Q 2475 2575 2300 2525 
Q 2375 2450 2425 2337 
Q 2475 2225 2475 2000 
Q 2475 1575 2187 1300 
Q 1900 1025 1475 1025 
Q 1375 1025 1212 1062 
Q 1050 1100 950 1150 
Q 875 1100 850 1050 
Q 825 1000 825 925 
Q 825 800 1000 737 
Q 1175 675 1625 675 
Q 2350 675 2612 475 
Q 2875 275 2875 -25 
Q 2875 -425 2487 -612 
Q 2100 -800 1575 -800 
Q 900 -800 575 -625 
Q 250 -450 250 -150 
Q 250 0 375 150 
Q 500 300 700 400 
Q 550 475 462 587 
Q 375 700 375 875 
Q 375 1025 487 1137 
Q 600 1250 750 1325 
Q 625 1450 550 1625 
Q 475 1800 475 2000 
Q 475 2425 762 2700 
Q 1050 2975 1475 2975 
Q 1700 2975 1862 2912 
Q 2025 2850 2150 2725 
Q 2350 2875 2550 2937 
Q 2750 3000 2975 2975 
L 2975 2500 
z
M 1975 2000 
Q 1975 2250 1850 2400 
Q 1725 2550 1475 2550 
Q 1225 2550 1100 2400 
Q 975 2250 975 2000 
Q 975 1750 1100 1600 
Q 1225 1450 1475 1450 
Q 1725 1450 1850 1600 
Q 1975 1750 1975 2000 
z
M 2400 -75 
Q 2400 25 2287 125 
Q 2175 225 1725 225 
Q 1625 225 1450 237 
Q 1275 250 1050 275 
Q 850 200 775 100 
Q 700 0 700 -100 
Q 700 -250 900 -350 
Q 1100 -450 1600 -450 
Q 2025 -450 2212 -337 
Q 2400 -225 2400 -75 
z
" transform="scale(0.015625)"/>
      <path id="SimHei-52" d="M 3000 125 
L 2400 125 
L 1500 1975 
L 850 1975 
L 850 125 
L 275 125 
L 275 4400 
L 1525 4400 
Q 2125 4400 2500 4112 
Q 2875 3825 2875 3175 
Q 2875 2675 2625 2400 
Q 2375 2125 2050 2050 
L 3000 125 
z
M 2300 3175 
Q 2300 3525 2087 3725 
Q 1875 3925 1400 3925 
L 850 3925 
L 850 2450 
L 1550 2450 
Q 1850 2450 2075 2612 
Q 2300 2775 2300 3175 
z
" transform="scale(0.015625)"/>
      <path id="SimHei-20" transform="scale(0.015625)"/>
      <path id="SimHei-9a8c" d="M 2300 4725 
Q 2250 4500 2225 4075 
L 2050 2125 
L 2525 2125 
Q 2500 1925 2475 1450 
L 2375 75 
Q 2375 -450 2075 -525 
Q 1775 -600 1250 -675 
Q 1175 -325 1050 -100 
Q 1575 -100 1737 -87 
Q 1900 -75 1950 150 
L 2025 1700 
L 550 1700 
Q 575 2175 587 2737 
Q 600 3300 600 3800 
L 1100 3800 
Q 1050 3525 1025 3087 
Q 1000 2650 1000 2125 
L 1625 2125 
L 1800 4325 
L 1125 4325 
Q 725 4325 350 4300 
L 350 4750 
Q 725 4725 1125 4725 
L 2300 4725 
z
M 4325 4875 
Q 4725 4125 5150 3775 
Q 5575 3425 6150 3225 
Q 5925 3025 5800 2725 
Q 5450 2925 5125 3200 
L 5125 2775 
Q 4800 2800 4200 2800 
Q 3600 2800 3225 2775 
L 3225 3175 
Q 3075 2975 2800 2650 
Q 2575 2875 2325 3000 
Q 2725 3275 2937 3550 
Q 3150 3825 3312 4125 
Q 3475 4425 3587 4675 
Q 3700 4925 3775 5225 
Q 4100 5150 4450 5075 
L 4325 4875 
z
M 5600 2150 
Q 5475 2000 5400 1737 
Q 5325 1475 5162 912 
Q 5000 350 4900 25 
L 5250 25 
Q 5425 25 5800 50 
L 5800 -400 
Q 5475 -375 5250 -375 
L 3325 -375 
Q 2875 -375 2675 -400 
L 2675 50 
Q 2975 25 3350 25 
L 4475 25 
Q 4675 575 4800 1150 
L 5050 2300 
Q 5250 2225 5600 2150 
z
M 5100 3225 
Q 4800 3450 4550 3775 
Q 4300 4100 4050 4600 
Q 3850 4200 3687 3912 
Q 3525 3625 3250 3225 
L 5100 3225 
z
M 3250 2175 
Q 3350 1825 3462 1375 
Q 3575 925 3675 550 
Q 3450 525 3250 425 
Q 3175 900 3087 1225 
Q 3000 1550 2850 2050 
Q 3050 2125 3250 2175 
z
M 1775 1125 
Q 1750 950 1725 700 
Q 1350 625 1112 575 
Q 875 525 375 375 
Q 300 650 200 925 
Q 550 950 925 1000 
Q 1300 1050 1775 1125 
z
M 4300 1650 
Q 4350 1325 4425 825 
L 4025 725 
Q 3925 1275 3875 1562 
Q 3825 1850 3750 2225 
Q 3975 2275 4200 2300 
L 4300 1650 
z
" transform="scale(0.015625)"/>
      <path id="SimHei-8bc1" d="M 5125 4675 
Q 5625 4675 6050 4700 
L 6050 4225 
Q 5625 4250 5125 4250 
L 4500 4250 
L 4500 2625 
L 5075 2625 
Q 5500 2625 5900 2650 
L 5900 2175 
Q 5525 2200 5075 2200 
L 4500 2200 
L 4500 125 
L 5200 125 
Q 5625 125 6175 150 
L 6175 -325 
Q 5625 -300 5200 -300 
L 3000 -300 
Q 2400 -300 2000 -325 
L 2000 150 
Q 2400 125 2775 125 
L 2775 2075 
Q 2775 2600 2750 2950 
L 3275 2950 
Q 3250 2625 3250 2075 
L 3250 125 
L 4000 125 
L 4000 4250 
L 3550 4250 
Q 2975 4250 2450 4225 
L 2450 4700 
Q 2975 4675 3550 4675 
L 5125 4675 
z
M 850 -125 
Q 1150 175 1150 500 
L 1150 2750 
L 925 2750 
Q 575 2750 225 2725 
L 225 3200 
Q 550 3175 925 3175 
L 1650 3175 
Q 1625 2700 1625 2175 
L 1625 800 
Q 1850 1075 2025 1325 
Q 2150 1050 2325 825 
Q 2050 500 1812 212 
Q 1575 -75 1225 -525 
Q 1050 -300 850 -125 
z
M 1525 3900 
Q 1100 4500 800 4825 
Q 1000 4975 1175 5175 
L 1925 4275 
Q 1675 4100 1525 3900 
z
" transform="scale(0.015625)"/>
      <path id="SimHei-96c6" d="M 2275 4925 
Q 2125 4800 2025 4662 
Q 1925 4525 1850 4350 
L 4925 4350 
Q 5300 4350 5750 4375 
L 5750 3975 
L 3650 3975 
L 3650 3575 
L 4625 3575 
Q 4925 3575 5325 3600 
L 5325 3175 
Q 4925 3200 4625 3200 
L 3650 3200 
L 3650 2800 
L 4675 2800 
Q 5000 2800 5425 2825 
L 5425 2400 
Q 5000 2425 4675 2425 
L 3650 2425 
L 3650 2075 
L 4875 2075 
Q 5275 2075 5675 2100 
L 5675 1675 
Q 5300 1700 4900 1700 
L 1650 1700 
L 1650 1500 
L 1150 1500 
Q 1200 1950 1200 2325 
L 1200 3475 
Q 1050 3250 937 3125 
Q 825 3000 675 2825 
Q 500 3000 300 3125 
Q 475 3325 875 3825 
Q 1275 4325 1462 4650 
Q 1650 4975 1725 5225 
Q 1950 5100 2275 4925 
z
M 2975 1200 
Q 2975 1300 2950 1625 
L 3475 1625 
Q 3450 1275 3450 1200 
L 5050 1200 
Q 5500 1200 5925 1225 
L 5925 825 
L 4150 825 
Q 4500 525 4925 362 
Q 5350 200 6100 25 
Q 5875 -225 5775 -475 
Q 5275 -300 4962 -162 
Q 4650 -25 4387 137 
Q 4125 300 3950 462 
Q 3775 625 3575 825 
L 3450 825 
L 3450 250 
Q 3450 -275 3500 -650 
L 2950 -650 
Q 2975 -300 2975 250 
L 2975 825 
L 2875 825 
Q 2700 575 2475 375 
Q 2250 175 1987 12 
Q 1725 -150 1425 -300 
Q 1125 -450 700 -575 
Q 600 -325 400 -75 
Q 925 50 1475 262 
Q 2025 475 2300 825 
L 500 825 
L 500 1225 
Q 800 1200 1400 1200 
L 2975 1200 
z
M 3150 2800 
L 3150 3200 
L 1650 3200 
L 1650 2800 
L 3150 2800 
z
M 3150 3575 
L 3150 3975 
L 1650 3975 
L 1650 3575 
L 3150 3575 
z
M 3150 2075 
L 3150 2425 
L 1650 2425 
L 1650 2075 
L 3150 2075 
z
M 3450 5250 
Q 3575 5150 3712 5000 
Q 3850 4850 4000 4650 
Q 3850 4525 3575 4375 
Q 3425 4575 3325 4700 
Q 3225 4825 3075 4950 
Q 3275 5075 3450 5250 
z
" transform="scale(0.015625)"/>
      <path id="SimHei-9884" d="M 5200 4800 
Q 5575 4800 5950 4825 
L 5950 4400 
Q 5575 4425 5200 4425 
L 4500 4425 
Q 4425 4050 4350 3600 
L 5725 3600 
Q 5700 3225 5700 2800 
L 5700 1725 
Q 5700 1300 5725 850 
L 5250 850 
L 5250 3225 
L 3550 3225 
L 3550 800 
L 3075 800 
Q 3100 1375 3100 1725 
L 3100 2775 
Q 3100 3175 3075 3600 
L 3900 3600 
Q 4000 4150 4000 4425 
L 3725 4425 
Q 3300 4425 2850 4400 
L 2850 4825 
Q 3325 4800 3725 4800 
L 5200 4800 
z
M 2600 1775 
Q 2350 1825 2150 1825 
Q 2250 2250 2300 2450 
L 1750 2450 
L 1750 125 
Q 1725 -300 1425 -400 
Q 1125 -500 750 -500 
Q 700 -225 575 25 
Q 1125 -25 1212 37 
Q 1300 100 1300 350 
L 1300 2450 
L 1025 2450 
Q 700 2450 350 2425 
L 350 2850 
Q 700 2825 1000 2825 
L 2850 2825 
Q 2725 2325 2600 1775 
z
M 4725 2875 
Q 4625 2575 4600 2100 
Q 4575 1625 4462 1037 
Q 4350 450 3962 62 
Q 3575 -325 2925 -675 
Q 2700 -500 2475 -350 
Q 3075 -125 3437 200 
Q 3800 525 3950 937 
Q 4100 1350 4137 1850 
Q 4175 2350 4175 2925 
L 4725 2875 
z
M 1625 2900 
Q 1275 3275 800 3650 
Q 925 3775 1075 3950 
Q 1250 3825 1425 3675 
Q 1750 4150 1950 4375 
L 1400 4375 
Q 900 4375 450 4350 
L 450 4775 
Q 900 4750 1375 4750 
L 2575 4750 
L 2575 4375 
Q 2200 4100 1725 3400 
L 1950 3200 
Q 1750 3025 1625 2900 
z
M 4775 725 
Q 5725 0 6075 -325 
Q 5850 -500 5725 -650 
Q 5400 -325 5137 -87 
Q 4875 150 4525 350 
Q 4650 525 4775 725 
z
" transform="scale(0.015625)"/>
      <path id="SimHei-6d4b" d="M 4025 4725 
Q 4000 4475 4000 4000 
L 4000 2225 
Q 4000 1775 4025 1350 
L 3550 1350 
L 3550 4325 
L 2350 4325 
L 2350 1325 
L 1900 1325 
Q 1925 1775 1925 2225 
L 1925 4000 
Q 1925 4200 1900 4725 
L 4025 4725 
z
M 5900 5075 
Q 5875 4800 5875 4375 
L 5875 0 
Q 5875 -325 5650 -425 
Q 5425 -525 4975 -600 
Q 4925 -325 4775 -50 
Q 5125 -50 5262 -25 
Q 5400 0 5400 250 
L 5400 4375 
Q 5400 4775 5375 5075 
L 5900 5075 
z
M 3275 3725 
Q 3225 3400 3200 2325 
Q 3175 1250 2837 550 
Q 2500 -150 2075 -600 
Q 1850 -400 1600 -325 
Q 2200 250 2475 962 
Q 2750 1675 2762 2475 
Q 2775 3275 2725 3800 
Q 3000 3750 3275 3725 
z
M 4950 4275 
Q 4925 4000 4925 3575 
L 4925 1825 
Q 4925 1300 4950 850 
L 4450 850 
Q 4475 1150 4475 1825 
L 4475 3575 
Q 4475 4000 4450 4275 
L 4950 4275 
z
M 1700 1675 
Q 1375 1075 1112 487 
Q 850 -100 725 -400 
Q 500 -200 200 -25 
Q 475 300 762 850 
Q 1050 1400 1250 2000 
Q 1475 1825 1700 1675 
z
M 3400 1050 
Q 3800 650 4300 -125 
Q 4100 -225 3875 -450 
Q 3475 275 3025 750 
Q 3225 875 3400 1050 
z
M 600 3525 
Q 1125 3125 1500 2775 
Q 1300 2575 1150 2375 
Q 825 2775 300 3150 
Q 450 3300 600 3525 
z
M 1350 4000 
Q 950 4375 475 4675 
Q 625 4850 775 5050 
Q 1300 4700 1675 4375 
Q 1500 4250 1350 4000 
z
" transform="scale(0.015625)"/>
     </defs>
     <use xlink:href="#SimHei-47"/>
     <use xlink:href="#SimHei-72" x="50"/>
     <use xlink:href="#SimHei-61" x="100"/>
     <use xlink:href="#SimHei-64" x="150"/>
     <use xlink:href="#SimHei-69" x="200"/>
     <use xlink:href="#SimHei-65" x="250"/>
     <use xlink:href="#SimHei-6e" x="300"/>
     <use xlink:href="#SimHei-74" x="350"/>
     <use xlink:href="#SimHei-42" x="400"/>
     <use xlink:href="#SimHei-6f" x="450"/>
     <use xlink:href="#SimHei-6f" x="500"/>
     <use xlink:href="#SimHei-73" x="550"/>
     <use xlink:href="#SimHei-74" x="600"/>
     <use xlink:href="#SimHei-69" x="650"/>
     <use xlink:href="#SimHei-6e" x="700"/>
     <use xlink:href="#SimHei-67" x="750"/>
     <use xlink:href="#SimHei-52" x="800"/>
     <use xlink:href="#SimHei-65" x="850"/>
     <use xlink:href="#SimHei-67" x="900"/>
     <use xlink:href="#SimHei-72" x="950"/>
     <use xlink:href="#SimHei-65" x="1000"/>
     <use xlink:href="#SimHei-73" x="1050"/>
     <use xlink:href="#SimHei-73" x="1100"/>
     <use xlink:href="#SimHei-6f" x="1150"/>
     <use xlink:href="#SimHei-72" x="1200"/>
     <use xlink:href="#SimHei-20" x="1250"/>
     <use xlink:href="#SimHei-9a8c" x="1300"/>
     <use xlink:href="#SimHei-8bc1" x="1400"/>
     <use xlink:href="#SimHei-96c6" x="1500"/>
     <use xlink:href="#SimHei-9884" x="1600"/>
     <use xlink:href="#SimHei-6d4b" x="1700"/>
    </g>
   </g>
   <g id="legend_1">
    <g id="patch_7">
     <path d="M 289.6 77.7 
L 446.6 77.7 
Q 448.6 77.7 448.6 75.7 
L 448.6 50.2 
Q 448.6 48.2 446.6 48.2 
L 289.6 48.2 
Q 287.6 48.2 287.6 50.2 
L 287.6 75.7 
Q 287.6 77.7 289.6 77.7 
z
" style="fill: #ffffff; opacity: 0.8; stroke: #cccccc; stroke-linejoin: miter"/>
    </g>
    <g id="line2d_25">
     <path d="M 291.6 55.7 
L 301.6 55.7 
L 311.6 55.7 
" style="fill: none; stroke: #1f77b4; stroke-width: 1.5; stroke-linecap: square"/>
    </g>
    <g id="text_13">
     <!-- true -->
     <g transform="translate(319.6 59.2)scale(0.1 -0.1)">
      <defs>
       <path id="SimHei-75" d="M 2800 125 
L 2300 125 
L 2300 650 
Q 2100 375 1862 225 
Q 1625 75 1250 75 
Q 800 75 575 325 
Q 350 575 350 950 
L 350 2925 
L 850 2925 
L 850 1125 
Q 850 825 1000 650 
Q 1150 475 1400 475 
Q 1725 475 2012 812 
Q 2300 1150 2300 1650 
L 2300 2925 
L 2800 2925 
L 2800 125 
z
" transform="scale(0.015625)"/>
      </defs>
      <use xlink:href="#SimHei-74"/>
      <use xlink:href="#SimHei-72" x="50"/>
      <use xlink:href="#SimHei-75" x="100"/>
      <use xlink:href="#SimHei-65" x="150"/>
     </g>
    </g>
    <g id="line2d_26">
     <path d="M 291.6 68.95 
L 301.6 68.95 
L 311.6 68.95 
" style="fill: none; stroke-dasharray: 5.55,2.4; stroke-dashoffset: 0; stroke: #ff7f0e; stroke-width: 1.5"/>
    </g>
    <g id="text_14">
     <!-- GradientBoostingRegressor -->
     <g transform="translate(319.6 72.45)scale(0.1 -0.1)">
      <use xlink:href="#SimHei-47"/>
      <use xlink:href="#SimHei-72" x="50"/>
      <use xlink:href="#SimHei-61" x="100"/>
      <use xlink:href="#SimHei-64" x="150"/>
      <use xlink:href="#SimHei-69" x="200"/>
      <use xlink:href="#SimHei-65" x="250"/>
      <use xlink:href="#SimHei-6e" x="300"/>
      <use xlink:href="#SimHei-74" x="350"/>
      <use xlink:href="#SimHei-42" x="400"/>
      <use xlink:href="#SimHei-6f" x="450"/>
      <use xlink:href="#SimHei-6f" x="500"/>
      <use xlink:href="#SimHei-73" x="550"/>
      <use xlink:href="#SimHei-74" x="600"/>
      <use xlink:href="#SimHei-69" x="650"/>
      <use xlink:href="#SimHei-6e" x="700"/>
      <use xlink:href="#SimHei-67" x="750"/>
      <use xlink:href="#SimHei-52" x="800"/>
      <use xlink:href="#SimHei-65" x="850"/>
      <use xlink:href="#SimHei-67" x="900"/>
      <use xlink:href="#SimHei-72" x="950"/>
      <use xlink:href="#SimHei-65" x="1000"/>
      <use xlink:href="#SimHei-73" x="1050"/>
      <use xlink:href="#SimHei-73" x="1100"/>
      <use xlink:href="#SimHei-6f" x="1150"/>
      <use xlink:href="#SimHei-72" x="1200"/>
     </g>
    </g>
   </g>
  </g>
 </g>
 <defs>
  <clipPath id="p06ac358ef1">
   <rect x="63" y="43.2" width="390.6" height="277.2"/>
  </clipPath>
 </defs>
</svg>
