<?xml version="1.0" encoding="utf-8" standalone="no"?>
<!DOCTYPE svg PUBLIC "-//W3C//DTD SVG 1.1//EN"
  "http://www.w3.org/Graphics/SVG/1.1/DTD/svg11.dtd">
<svg xmlns:xlink="http://www.w3.org/1999/xlink" width="504pt" height="360pt" viewBox="0 0 504 360" xmlns="http://www.w3.org/2000/svg" version="1.1">
 <metadata>
  <rdf:RDF xmlns:dc="http://purl.org/dc/elements/1.1/" xmlns:cc="http://creativecommons.org/ns#" xmlns:rdf="http://www.w3.org/1999/02/22-rdf-syntax-ns#">
   <cc:Work>
    <dc:type rdf:resource="http://purl.org/dc/dcmitype/StillImage"/>
    <dc:date>2025-01-12T16:16:03.042902</dc:date>
    <dc:format>image/svg+xml</dc:format>
    <dc:creator>
     <cc:Agent>
      <dc:title>Matplotlib v3.5.3, https://matplotlib.org/</dc:title>
     </cc:Agent>
    </dc:creator>
   </cc:Work>
  </rdf:RDF>
 </metadata>
 <defs>
  <style type="text/css">*{stroke-linejoin: round; stroke-linecap: butt}</style>
 </defs>
 <g id="figure_1">
  <g id="patch_1">
   <path d="M 0 360 
L 504 360 
L 504 0 
L 0 0 
z
" style="fill: #ffffff"/>
  </g>
  <g id="axes_1">
   <g id="patch_2">
    <path d="M 63 320.4 
L 453.6 320.4 
L 453.6 43.2 
L 63 43.2 
z
" style="fill: #ffffff"/>
   </g>
   <g id="matplotlib.axis_1">
    <g id="xtick_1">
     <g id="line2d_1">
      <path d="M 80.754545 320.4 
L 80.754545 43.2 
" clip-path="url(#pd30b3748d9)" style="fill: none; stroke: #b0b0b0; stroke-width: 0.8; stroke-linecap: square"/>
     </g>
     <g id="line2d_2">
      <defs>
       <path id="m717d0b5410" d="M 0 0 
L 0 3.5 
" style="stroke: #000000; stroke-width: 0.8"/>
      </defs>
      <g>
       <use xlink:href="#m717d0b5410" x="80.754545" y="320.4" style="stroke: #000000; stroke-width: 0.8"/>
      </g>
     </g>
     <g id="text_1">
      <!-- 0 -->
      <g transform="translate(78.254545 334.275)scale(0.1 -0.1)">
       <defs>
        <path id="SimHei-30" d="M 225 2537 
Q 250 3200 412 3587 
Q 575 3975 875 4225 
Q 1175 4475 1612 4475 
Q 2050 4475 2375 4112 
Q 2700 3750 2800 3200 
Q 2900 2650 2862 1937 
Q 2825 1225 2612 775 
Q 2400 325 1975 150 
Q 1550 -25 1125 187 
Q 700 400 525 750 
Q 350 1100 275 1487 
Q 200 1875 225 2537 
z
M 750 2687 
Q 675 2000 800 1462 
Q 925 925 1212 700 
Q 1500 475 1800 612 
Q 2100 750 2237 1162 
Q 2375 1575 2375 2062 
Q 2375 2550 2337 2950 
Q 2300 3350 2112 3675 
Q 1925 4000 1612 4012 
Q 1300 4025 1062 3700 
Q 825 3375 750 2687 
z
" transform="scale(0.015625)"/>
       </defs>
       <use xlink:href="#SimHei-30"/>
      </g>
     </g>
    </g>
    <g id="xtick_2">
     <g id="line2d_3">
      <path d="M 148.390909 320.4 
L 148.390909 43.2 
" clip-path="url(#pd30b3748d9)" style="fill: none; stroke: #b0b0b0; stroke-width: 0.8; stroke-linecap: square"/>
     </g>
     <g id="line2d_4">
      <g>
       <use xlink:href="#m717d0b5410" x="148.390909" y="320.4" style="stroke: #000000; stroke-width: 0.8"/>
      </g>
     </g>
     <g id="text_2">
      <!-- 100 -->
      <g transform="translate(140.890909 334.275)scale(0.1 -0.1)">
       <defs>
        <path id="SimHei-31" d="M 1400 3600 
Q 1075 3275 575 2975 
L 575 3450 
Q 1200 3875 1600 4450 
L 1900 4450 
L 1900 150 
L 1400 150 
L 1400 3600 
z
" transform="scale(0.015625)"/>
       </defs>
       <use xlink:href="#SimHei-31"/>
       <use xlink:href="#SimHei-30" x="50"/>
       <use xlink:href="#SimHei-30" x="100"/>
      </g>
     </g>
    </g>
    <g id="xtick_3">
     <g id="line2d_5">
      <path d="M 216.027273 320.4 
L 216.027273 43.2 
" clip-path="url(#pd30b3748d9)" style="fill: none; stroke: #b0b0b0; stroke-width: 0.8; stroke-linecap: square"/>
     </g>
     <g id="line2d_6">
      <g>
       <use xlink:href="#m717d0b5410" x="216.027273" y="320.4" style="stroke: #000000; stroke-width: 0.8"/>
      </g>
     </g>
     <g id="text_3">
      <!-- 200 -->
      <g transform="translate(208.527273 334.275)scale(0.1 -0.1)">
       <defs>
        <path id="SimHei-32" d="M 300 250 
Q 325 625 650 925 
Q 975 1225 1475 1862 
Q 1975 2500 2125 2850 
Q 2275 3200 2237 3450 
Q 2200 3700 2000 3862 
Q 1800 4025 1537 4000 
Q 1275 3975 1037 3800 
Q 800 3625 675 3275 
L 200 3350 
Q 400 3925 712 4187 
Q 1025 4450 1450 4475 
Q 1700 4500 1900 4462 
Q 2100 4425 2312 4287 
Q 2525 4150 2662 3875 
Q 2800 3600 2762 3212 
Q 2725 2825 2375 2287 
Q 2025 1750 1025 600 
L 2825 600 
L 2825 150 
L 300 150 
L 300 250 
z
" transform="scale(0.015625)"/>
       </defs>
       <use xlink:href="#SimHei-32"/>
       <use xlink:href="#SimHei-30" x="50"/>
       <use xlink:href="#SimHei-30" x="100"/>
      </g>
     </g>
    </g>
    <g id="xtick_4">
     <g id="line2d_7">
      <path d="M 283.663636 320.4 
L 283.663636 43.2 
" clip-path="url(#pd30b3748d9)" style="fill: none; stroke: #b0b0b0; stroke-width: 0.8; stroke-linecap: square"/>
     </g>
     <g id="line2d_8">
      <g>
       <use xlink:href="#m717d0b5410" x="283.663636" y="320.4" style="stroke: #000000; stroke-width: 0.8"/>
      </g>
     </g>
     <g id="text_4">
      <!-- 300 -->
      <g transform="translate(276.163636 334.275)scale(0.1 -0.1)">
       <defs>
        <path id="SimHei-33" d="M 250 1225 
L 700 1300 
Q 800 975 1025 762 
Q 1250 550 1587 562 
Q 1925 575 2125 837 
Q 2325 1100 2300 1437 
Q 2275 1775 2037 1962 
Q 1800 2150 1275 2225 
L 1275 2550 
Q 1800 2600 2037 2825 
Q 2275 3050 2250 3412 
Q 2225 3775 1925 3937 
Q 1625 4100 1287 3975 
Q 950 3850 750 3275 
L 300 3350 
Q 450 3800 712 4100 
Q 975 4400 1425 4450 
Q 1875 4500 2212 4337 
Q 2550 4175 2687 3837 
Q 2825 3500 2725 3100 
Q 2625 2700 2150 2400 
Q 2500 2250 2687 1950 
Q 2875 1650 2812 1162 
Q 2750 675 2375 375 
Q 2000 75 1525 87 
Q 1050 100 700 387 
Q 350 675 250 1225 
z
" transform="scale(0.015625)"/>
       </defs>
       <use xlink:href="#SimHei-33"/>
       <use xlink:href="#SimHei-30" x="50"/>
       <use xlink:href="#SimHei-30" x="100"/>
      </g>
     </g>
    </g>
    <g id="xtick_5">
     <g id="line2d_9">
      <path d="M 351.3 320.4 
L 351.3 43.2 
" clip-path="url(#pd30b3748d9)" style="fill: none; stroke: #b0b0b0; stroke-width: 0.8; stroke-linecap: square"/>
     </g>
     <g id="line2d_10">
      <g>
       <use xlink:href="#m717d0b5410" x="351.3" y="320.4" style="stroke: #000000; stroke-width: 0.8"/>
      </g>
     </g>
     <g id="text_5">
      <!-- 400 -->
      <g transform="translate(343.8 334.275)scale(0.1 -0.1)">
       <defs>
        <path id="SimHei-34" d="M 2000 1100 
L 75 1100 
L 75 1525 
L 2100 4450 
L 2475 4450 
L 2475 1525 
L 3075 1525 
L 3075 1100 
L 2475 1100 
L 2475 150 
L 2000 150 
L 2000 1100 
z
M 2000 1525 
L 2000 3500 
L 600 1525 
L 2000 1525 
z
" transform="scale(0.015625)"/>
       </defs>
       <use xlink:href="#SimHei-34"/>
       <use xlink:href="#SimHei-30" x="50"/>
       <use xlink:href="#SimHei-30" x="100"/>
      </g>
     </g>
    </g>
    <g id="xtick_6">
     <g id="line2d_11">
      <path d="M 418.936364 320.4 
L 418.936364 43.2 
" clip-path="url(#pd30b3748d9)" style="fill: none; stroke: #b0b0b0; stroke-width: 0.8; stroke-linecap: square"/>
     </g>
     <g id="line2d_12">
      <g>
       <use xlink:href="#m717d0b5410" x="418.936364" y="320.4" style="stroke: #000000; stroke-width: 0.8"/>
      </g>
     </g>
     <g id="text_6">
      <!-- 500 -->
      <g transform="translate(411.436364 334.275)scale(0.1 -0.1)">
       <defs>
        <path id="SimHei-35" d="M 550 1325 
Q 725 650 1150 575 
Q 1575 500 1837 662 
Q 2100 825 2212 1087 
Q 2325 1350 2312 1675 
Q 2300 2000 2137 2225 
Q 1975 2450 1725 2525 
Q 1475 2600 1162 2525 
Q 850 2450 650 2175 
L 225 2225 
Q 275 2375 700 4375 
L 2675 4375 
L 2675 3925 
L 1075 3925 
Q 950 3250 825 2850 
Q 1200 3025 1525 3012 
Q 1850 3000 2150 2862 
Q 2450 2725 2587 2487 
Q 2725 2250 2787 2012 
Q 2850 1775 2837 1500 
Q 2825 1225 2725 937 
Q 2625 650 2425 462 
Q 2225 275 1937 162 
Q 1650 50 1275 75 
Q 900 100 562 350 
Q 225 600 100 1200 
L 550 1325 
z
" transform="scale(0.015625)"/>
       </defs>
       <use xlink:href="#SimHei-35"/>
       <use xlink:href="#SimHei-30" x="50"/>
       <use xlink:href="#SimHei-30" x="100"/>
      </g>
     </g>
    </g>
   </g>
   <g id="matplotlib.axis_2">
    <g id="ytick_1">
     <g id="line2d_13">
      <path d="M 63 304.11243 
L 453.6 304.11243 
" clip-path="url(#pd30b3748d9)" style="fill: none; stroke: #b0b0b0; stroke-width: 0.8; stroke-linecap: square"/>
     </g>
     <g id="line2d_14">
      <defs>
       <path id="m59962ce4ae" d="M 0 0 
L -3.5 0 
" style="stroke: #000000; stroke-width: 0.8"/>
      </defs>
      <g>
       <use xlink:href="#m59962ce4ae" x="63" y="304.11243" style="stroke: #000000; stroke-width: 0.8"/>
      </g>
     </g>
     <g id="text_7">
      <!-- 0 -->
      <g transform="translate(51 307.54993)scale(0.1 -0.1)">
       <use xlink:href="#SimHei-30"/>
      </g>
     </g>
    </g>
    <g id="ytick_2">
     <g id="line2d_15">
      <path d="M 63 248.475863 
L 453.6 248.475863 
" clip-path="url(#pd30b3748d9)" style="fill: none; stroke: #b0b0b0; stroke-width: 0.8; stroke-linecap: square"/>
     </g>
     <g id="line2d_16">
      <g>
       <use xlink:href="#m59962ce4ae" x="63" y="248.475863" style="stroke: #000000; stroke-width: 0.8"/>
      </g>
     </g>
     <g id="text_8">
      <!-- 200 -->
      <g transform="translate(41 251.913363)scale(0.1 -0.1)">
       <use xlink:href="#SimHei-32"/>
       <use xlink:href="#SimHei-30" x="50"/>
       <use xlink:href="#SimHei-30" x="100"/>
      </g>
     </g>
    </g>
    <g id="ytick_3">
     <g id="line2d_17">
      <path d="M 63 192.839295 
L 453.6 192.839295 
" clip-path="url(#pd30b3748d9)" style="fill: none; stroke: #b0b0b0; stroke-width: 0.8; stroke-linecap: square"/>
     </g>
     <g id="line2d_18">
      <g>
       <use xlink:href="#m59962ce4ae" x="63" y="192.839295" style="stroke: #000000; stroke-width: 0.8"/>
      </g>
     </g>
     <g id="text_9">
      <!-- 400 -->
      <g transform="translate(41 196.276795)scale(0.1 -0.1)">
       <use xlink:href="#SimHei-34"/>
       <use xlink:href="#SimHei-30" x="50"/>
       <use xlink:href="#SimHei-30" x="100"/>
      </g>
     </g>
    </g>
    <g id="ytick_4">
     <g id="line2d_19">
      <path d="M 63 137.202727 
L 453.6 137.202727 
" clip-path="url(#pd30b3748d9)" style="fill: none; stroke: #b0b0b0; stroke-width: 0.8; stroke-linecap: square"/>
     </g>
     <g id="line2d_20">
      <g>
       <use xlink:href="#m59962ce4ae" x="63" y="137.202727" style="stroke: #000000; stroke-width: 0.8"/>
      </g>
     </g>
     <g id="text_10">
      <!-- 600 -->
      <g transform="translate(41 140.640227)scale(0.1 -0.1)">
       <defs>
        <path id="SimHei-36" d="M 250 1612 
Q 275 1975 387 2225 
Q 500 2475 725 2850 
L 1750 4450 
L 2325 4450 
L 1275 2800 
Q 1950 2975 2350 2750 
Q 2750 2525 2887 2237 
Q 3025 1950 3037 1612 
Q 3050 1275 2937 950 
Q 2825 625 2537 362 
Q 2250 100 1737 75 
Q 1225 50 862 262 
Q 500 475 362 862 
Q 225 1250 250 1612 
z
M 1025 787 
Q 1250 550 1625 525 
Q 2000 500 2250 775 
Q 2500 1050 2500 1575 
Q 2500 2100 2187 2300 
Q 1875 2500 1487 2450 
Q 1100 2400 925 2075 
Q 750 1750 775 1387 
Q 800 1025 1025 787 
z
" transform="scale(0.015625)"/>
       </defs>
       <use xlink:href="#SimHei-36"/>
       <use xlink:href="#SimHei-30" x="50"/>
       <use xlink:href="#SimHei-30" x="100"/>
      </g>
     </g>
    </g>
    <g id="ytick_5">
     <g id="line2d_21">
      <path d="M 63 81.566159 
L 453.6 81.566159 
" clip-path="url(#pd30b3748d9)" style="fill: none; stroke: #b0b0b0; stroke-width: 0.8; stroke-linecap: square"/>
     </g>
     <g id="line2d_22">
      <g>
       <use xlink:href="#m59962ce4ae" x="63" y="81.566159" style="stroke: #000000; stroke-width: 0.8"/>
      </g>
     </g>
     <g id="text_11">
      <!-- 800 -->
      <g transform="translate(41 85.003659)scale(0.1 -0.1)">
       <defs>
        <path id="SimHei-38" d="M 175 1375 
Q 175 1675 325 1962 
Q 475 2250 825 2425 
Q 525 2600 425 2812 
Q 325 3025 312 3300 
Q 300 3575 387 3775 
Q 475 3975 650 4150 
Q 825 4325 1037 4387 
Q 1250 4450 1500 4450 
Q 1750 4450 1950 4400 
Q 2150 4350 2375 4187 
Q 2600 4025 2700 3725 
Q 2800 3425 2687 3025 
Q 2575 2625 2100 2400 
Q 2525 2275 2700 2012 
Q 2875 1750 2875 1375 
Q 2875 1000 2762 775 
Q 2650 550 2512 400 
Q 2375 250 2137 162 
Q 1900 75 1537 75 
Q 1175 75 912 162 
Q 650 250 475 425 
Q 300 600 237 837 
Q 175 1075 175 1375 
z
M 687 1400 
Q 675 1100 787 875 
Q 900 650 1200 587 
Q 1500 525 1825 600 
Q 2150 675 2275 950 
Q 2400 1225 2362 1500 
Q 2325 1775 2050 1962 
Q 1775 2150 1450 2125 
Q 1125 2100 912 1900 
Q 700 1700 687 1400 
z
M 775 3350 
Q 775 3100 950 2875 
Q 1125 2650 1500 2650 
Q 1875 2650 2062 2875 
Q 2250 3100 2237 3412 
Q 2225 3725 2012 3875 
Q 1800 4025 1437 4000 
Q 1075 3975 925 3787 
Q 775 3600 775 3350 
z
" transform="scale(0.015625)"/>
       </defs>
       <use xlink:href="#SimHei-38"/>
       <use xlink:href="#SimHei-30" x="50"/>
       <use xlink:href="#SimHei-30" x="100"/>
      </g>
     </g>
    </g>
   </g>
   <g id="line2d_23">
    <path d="M 80.754545 155.785341 
L 81.430909 216.985565 
L 82.107273 178.429424 
L 82.783636 227.222694 
L 83.46 217.152475 
L 84.136364 179.736883 
L 84.812727 187.136547 
L 85.489091 187.692912 
L 86.165455 180.181976 
L 86.841818 214.259373 
L 87.518182 240.158196 
L 88.194545 223.689772 
L 88.870909 193.089659 
L 89.547273 257.683715 
L 90.9 234.344174 
L 91.576364 232.702896 
L 92.252727 244.581303 
L 92.929091 183.603625 
L 93.605455 199.599138 
L 94.281818 231.645801 
L 94.958182 163.296277 
L 96.310909 71.189939 
L 96.987273 72.580853 
L 97.663636 78.116692 
L 98.34 121.902671 
L 99.016364 258.629536 
L 99.692727 189.862738 
L 100.369091 151.056232 
L 101.045455 211.421908 
L 101.721818 256.376255 
L 102.398182 227.139239 
L 103.074545 180.404522 
L 103.750909 203.827517 
L 104.427273 96.699306 
L 105.103636 187.053092 
L 105.78 164.130826 
L 106.456364 214.342828 
L 107.132727 136.006541 
L 107.809091 110.218992 
L 108.485455 109.10626 
L 109.161818 154.366608 
L 109.838182 131.082704 
L 111.190909 107.214617 
L 111.867273 83.429984 
L 112.543636 86.90727 
L 113.22 75.167954 
L 113.896364 68.853203 
L 114.572727 87.769636 
L 115.249091 112.611364 
L 115.925455 81.287976 
L 116.601818 97.200035 
L 117.278182 75.446137 
L 117.954545 82.651072 
L 118.630909 77.393417 
L 119.307273 77.755054 
L 119.983636 70.327572 
L 120.66 149.30368 
L 121.336364 68.769749 
L 122.012727 108.883714 
L 122.689091 81.371431 
L 123.365455 110.497174 
L 124.041818 109.829536 
L 124.718182 107.381527 
L 125.394545 97.533854 
L 126.070909 123.488313 
L 126.747273 91.386013 
L 127.423636 73.220674 
L 128.1 102.346417 
L 128.776364 82.8458 
L 129.452727 79.090332 
L 130.129091 97.005307 
L 130.805455 159.791173 
L 131.481818 253.149334 
L 132.158182 236.319273 
L 132.834545 229.22561 
L 133.510909 232.841987 
L 134.187273 137.647819 
L 134.863636 218.821572 
L 136.216364 304.44625 
L 137.569091 304.251522 
L 138.921818 304.251522 
L 139.598182 258.991174 
L 140.274545 239.017646 
L 140.950909 187.303456 
L 142.303636 265.528471 
L 142.98 169.833574 
L 143.656364 135.116356 
L 144.332727 152.892239 
L 145.009091 153.170422 
L 145.685455 129.107606 
L 146.361818 232.758532 
L 147.038182 277.601606 
L 147.714545 293.485846 
L 148.390909 286.169637 
L 149.067273 280.77289 
L 149.743636 291.538566 
L 150.42 304.27934 
L 151.096364 304.27934 
L 151.772727 245.499306 
L 152.449091 250.923872 
L 153.125455 200.37805 
L 153.801818 90.940921 
L 154.478182 83.096165 
L 155.154545 67.684835 
L 155.830909 71.66285 
L 156.507273 211.449727 
L 157.183636 304.501886 
L 157.86 208.445352 
L 158.536364 82.317253 
L 159.212727 74.444678 
L 159.889091 71.941033 
L 160.565455 68.797567 
L 161.241818 69.771207 
L 161.918182 120.706485 
L 162.594545 78.116692 
L 163.270909 72.358307 
L 163.947273 165.438285 
L 164.623636 209.085173 
L 165.3 217.708841 
L 165.976364 230.978162 
L 166.652727 241.743838 
L 167.329091 249.866777 
L 168.005455 248.086407 
L 168.681818 240.241651 
L 169.358182 216.401381 
L 170.034545 249.866777 
L 170.710909 220.935762 
L 171.387273 240.964926 
L 172.063636 237.960551 
L 172.74 183.047259 
L 174.092727 239.963468 
L 174.769091 233.509626 
L 175.445455 161.042996 
L 176.121818 167.941931 
L 176.798182 162.155728 
L 177.474545 161.877545 
L 178.150909 99.981863 
L 178.827273 109.829536 
L 179.503636 186.27418 
L 180.18 199.988594 
L 180.856364 195.259485 
L 181.532727 204.689884 
L 182.209091 230.755616 
L 182.885455 210.531723 
L 183.561818 185.411813 
L 184.238182 237.209458 
L 184.914545 219.071937 
L 185.590909 197.902222 
L 186.267273 233.092352 
L 186.943636 252.871151 
L 187.62 184.354718 
L 188.296364 270.285397 
L 188.972727 236.792183 
L 189.649091 264.582649 
L 190.325455 278.909065 
L 191.678182 229.55943 
L 192.354545 181.600708 
L 193.030909 195.593305 
L 193.707273 270.285397 
L 194.383636 189.167281 
L 195.06 183.325442 
L 195.736364 267.141931 
L 196.412727 293.958757 
L 197.089091 287.171096 
L 197.765455 276.377601 
L 198.441818 281.607439 
L 199.794545 304.307158 
L 201.823636 304.334977 
L 202.5 293.09639 
L 203.176364 288.116917 
L 203.852727 249.449503 
L 204.529091 284.361449 
L 205.205455 286.586912 
L 205.881818 277.712879 
L 206.558182 296.406766 
L 207.234545 283.832901 
L 207.910909 273.818319 
L 208.587273 179.263972 
L 209.263636 163.797006 
L 209.94 228.224152 
L 210.616364 100.315682 
L 211.292727 227.000147 
L 211.969091 270.73049 
L 212.645455 271.676311 
L 213.321818 291.14911 
L 213.998182 278.742155 
L 214.674545 261.717366 
L 215.350909 270.507943 
L 216.027273 304.084612 
L 216.703636 304.27934 
L 217.38 288.478555 
L 218.056364 259.408448 
L 218.732727 289.980742 
L 219.409091 291.455111 
L 220.085455 241.187472 
L 220.761818 253.510972 
L 221.438182 217.569749 
L 222.114545 117.451745 
L 222.790909 83.735985 
L 223.467273 72.080124 
L 224.143636 220.96358 
L 224.82 285.557635 
L 225.496364 217.987023 
L 226.172727 168.832116 
L 226.849091 100.593865 
L 227.525455 117.423927 
L 228.201818 272.594315 
L 228.878182 304.44625 
L 229.554545 304.44625 
L 230.230909 272.872498 
L 230.907273 235.401269 
L 231.583636 235.011813 
L 232.26 209.697175 
L 232.936364 223.105588 
L 233.612727 152.141145 
L 234.289091 222.771768 
L 234.965455 241.159654 
L 235.641818 242.18893 
L 236.994545 248.281135 
L 237.670909 180.543613 
L 238.347273 207.082256 
L 239.023636 186.524544 
L 239.7 127.438509 
L 240.376364 123.349222 
L 241.052727 73.415402 
L 241.729091 84.62617 
L 242.405455 123.293585 
L 243.081818 304.27934 
L 246.463636 304.27934 
L 247.14 67.740472 
L 247.816364 69.659934 
L 248.492727 73.025946 
L 249.169091 67.9352 
L 249.845455 71.968851 
L 250.521818 67.684835 
L 251.874545 77.309962 
L 252.550909 77.198689 
L 253.227273 70.244118 
L 253.903636 97.366944 
L 254.58 96.921852 
L 255.256364 157.064982 
L 255.932727 124.128134 
L 256.609091 120.177937 
L 257.285455 75.974684 
L 257.961818 142.404746 
L 258.638182 231.896165 
L 259.314545 253.7057 
L 259.990909 270.702671 
L 260.667273 278.742155 
L 261.343636 255.48607 
L 262.02 245.694034 
L 262.696364 271.843221 
L 263.372727 265.667562 
L 264.049091 242.856569 
L 264.725455 265.194651 
L 265.401818 275.153597 
L 266.078182 266.251746 
L 266.754545 242.467113 
L 268.107273 295.266216 
L 268.783636 298.826956 
L 269.46 304.334977 
L 270.136364 290.759654 
L 270.812727 298.60441 
L 271.489091 304.334977 
L 272.165455 233.871264 
L 272.841818 243.49639 
L 273.518182 242.133294 
L 274.870909 120.539575 
L 275.547273 239.574012 
L 276.223636 200.711869 
L 276.9 272.483042 
L 277.576364 276.043782 
L 278.252727 276.488875 
L 278.929091 209.391174 
L 279.605455 251.146418 
L 280.281818 243.691118 
L 280.958182 258.685173 
L 281.634545 209.891903 
L 282.310909 268.532845 
L 282.987273 242.995661 
L 283.663636 171.83649 
L 284.34 249.032228 
L 285.016364 187.470366 
L 285.692727 218.738117 
L 286.369091 231.478891 
L 287.045455 208.250624 
L 287.721818 273.234135 
L 288.398182 216.234472 
L 289.750909 176.8716 
L 290.427273 180.59925 
L 291.103636 238.878555 
L 291.78 212.36773 
L 292.456364 249.616412 
L 293.132727 233.008897 
L 293.809091 290.203288 
L 295.161818 285.557635 
L 295.838182 289.480013 
L 296.514545 304.307158 
L 298.543636 304.251522 
L 301.249091 304.27934 
L 301.925455 304.362795 
L 303.278182 304.307158 
L 303.954545 304.362795 
L 305.307273 304.307158 
L 308.012727 304.27934 
L 308.689091 296.239856 
L 309.365455 304.251522 
L 310.041818 291.844567 
L 310.718182 301.163692 
L 311.394545 304.251522 
L 316.129091 304.334977 
L 316.805455 300.329144 
L 317.481818 304.27934 
L 324.921818 304.307158 
L 325.598182 303.166609 
L 326.274545 304.27934 
L 326.950909 291.232565 
L 327.627273 287.449278 
L 328.303636 287.310187 
L 328.98 292.623479 
L 329.656364 283.248717 
L 330.332727 304.27934 
L 331.009091 304.307158 
L 331.685455 292.512206 
L 332.361818 296.212038 
L 333.038182 304.334977 
L 334.390909 304.27934 
L 335.067273 304.27934 
L 335.743636 304.44625 
L 336.42 304.27934 
L 337.772727 304.27934 
L 339.125455 258.5739 
L 339.801818 193.367842 
L 340.478182 214.370647 
L 341.154545 116.172104 
L 341.830909 219.906485 
L 342.507273 258.768628 
L 343.183636 290.00856 
L 343.86 282.135986 
L 344.536364 270.507943 
L 345.212727 290.50929 
L 345.889091 283.220899 
L 346.565455 280.355616 
L 347.241818 286.420002 
L 347.918182 285.307271 
L 348.594545 288.256009 
L 349.270909 271.231219 
L 349.947273 280.800709 
L 350.623636 257.850624 
L 351.3 272.065767 
L 351.976364 241.020563 
L 352.652727 155.062065 
L 353.329091 165.744286 
L 354.005455 152.669693 
L 354.681818 111.192631 
L 355.358182 94.501661 
L 356.034545 129.163243 
L 356.710909 93.722749 
L 357.387273 94.19566 
L 358.063636 143.15584 
L 358.74 90.551465 
L 359.416364 113.390276 
L 360.092727 155.868795 
L 360.769091 115.448829 
L 361.445455 157.649166 
L 362.121818 103.208784 
L 362.798182 158.956625 
L 363.474545 144.491117 
L 364.150909 136.813271 
L 364.827273 228.140697 
L 365.503636 161.293361 
L 366.18 178.874516 
L 366.856364 170.139575 
L 367.532727 227.083602 
L 368.209091 261.105363 
L 368.885455 249.282593 
L 369.561818 179.097063 
L 370.238182 132.974348 
L 370.914545 211.421908 
L 371.590909 199.626956 
L 372.267273 238.099643 
L 372.943636 130.860158 
L 373.62 90.746193 
L 374.296364 206.247708 
L 374.972727 170.668122 
L 375.649091 187.692912 
L 376.325455 155.395885 
L 377.001818 87.686182 
L 377.678182 73.582312 
L 378.354545 165.660831 
L 379.030909 173.589042 
L 379.707273 228.391062 
L 380.383636 222.048493 
L 381.06 150.750231 
L 381.736364 266.557747 
L 382.412727 207.638622 
L 383.089091 204.828975 
L 383.765455 220.017758 
L 384.441818 265.667562 
L 385.118182 226.888874 
L 385.794545 251.257691 
L 386.470909 220.601942 
L 387.147273 253.594427 
L 387.823636 222.994315 
L 388.5 274.875414 
L 389.176364 256.960439 
L 389.852727 160.124993 
L 390.529091 187.24782 
L 391.205455 185.968179 
L 391.881818 136.368178 
L 392.558182 154.895156 
L 393.234545 131.80598 
L 393.910909 90.607101 
L 394.587273 155.590613 
L 395.263636 189.918375 
L 395.94 178.624152 
L 396.616364 145.492576 
L 397.292727 169.527573 
L 397.969091 85.460719 
L 398.645455 99.536771 
L 399.321818 185.606541 
L 399.998182 112.778274 
L 400.674545 140.318375 
L 401.350909 147.412037 
L 402.027273 114.753372 
L 402.703636 75.167954 
L 403.38 68.491566 
L 404.056364 68.964477 
L 404.732727 83.875077 
L 405.409091 113.279003 
L 406.085455 163.797006 
L 406.761818 233.843445 
L 407.438182 145.297848 
L 408.114545 243.16257 
L 408.790909 240.519833 
L 409.467273 238.405644 
L 410.143636 304.474068 
L 410.82 268.143389 
L 411.496364 249.616412 
L 412.172727 288.56201 
L 412.849091 286.086182 
L 413.525455 250.506597 
L 414.201818 238.600372 
L 415.554545 135.617085 
L 416.230909 117.924656 
L 416.907273 88.85455 
L 417.583636 144.964028 
L 418.26 100.148773 
L 418.936364 89.66128 
L 419.612727 119.399025 
L 420.289091 157.565711 
L 420.965455 241.020563 
L 421.641818 276.600148 
L 422.318182 304.390613 
L 422.994545 258.852082 
L 423.670909 226.082144 
L 425.023636 262.30155 
L 425.7 264.193193 
L 426.376364 241.076199 
L 427.052727 194.619665 
L 427.729091 160.291903 
L 428.405455 165.939014 
L 429.081818 240.213832 
L 429.758182 155.813159 
L 430.434545 170.779396 
L 431.110909 130.387247 
L 431.787273 122.987584 
L 432.463636 183.909626 
L 433.14 176.482144 
L 433.816364 75.72432 
L 435.169091 68.269019 
L 435.845455 71.02303 
L 435.845455 71.02303 
" clip-path="url(#pd30b3748d9)" style="fill: none; stroke: #1f77b4; stroke-width: 1.5; stroke-linecap: square"/>
   </g>
   <g id="line2d_24">
    <path d="M 80.754545 144.129452 
L 81.430909 222.314621 
L 82.107273 178.600643 
L 82.783636 223.783629 
L 83.46 221.276732 
L 84.136364 180.716379 
L 84.812727 191.134118 
L 85.489091 182.746915 
L 86.165455 184.073666 
L 87.518182 238.088576 
L 88.194545 222.548242 
L 88.870909 195.789563 
L 89.547273 256.318228 
L 90.223636 244.570254 
L 90.9 235.800304 
L 91.576364 228.758559 
L 92.252727 248.055294 
L 92.929091 190.022362 
L 93.605455 197.111636 
L 94.281818 238.29251 
L 94.958182 166.326521 
L 95.634545 122.089575 
L 96.310909 58.601779 
L 96.987273 67.09077 
L 97.663636 86.26097 
L 98.34 116.269248 
L 99.016364 260.660756 
L 99.692727 190.526391 
L 100.369091 163.786558 
L 101.045455 205.216971 
L 101.721818 255.896565 
L 102.398182 223.037346 
L 103.074545 179.324115 
L 103.750909 199.19203 
L 104.427273 96.094404 
L 105.103636 182.582525 
L 105.78 162.688725 
L 106.456364 217.312389 
L 107.132727 132.212449 
L 107.809091 102.966287 
L 108.485455 120.375144 
L 109.161818 159.199529 
L 109.838182 124.600725 
L 110.514545 122.376723 
L 111.190909 99.011707 
L 111.867273 88.176873 
L 112.543636 92.152167 
L 113.22 76.18399 
L 113.896364 69.312497 
L 115.249091 113.600006 
L 115.925455 75.224409 
L 116.601818 92.620531 
L 117.278182 72.640809 
L 117.954545 81.378932 
L 118.630909 79.336418 
L 119.307273 76.219714 
L 119.983636 70.723328 
L 120.66 134.539242 
L 121.336364 61.582991 
L 122.012727 93.784064 
L 122.689091 94.431266 
L 123.365455 95.930082 
L 124.041818 120.884444 
L 124.718182 98.347406 
L 125.394545 95.220498 
L 126.070909 107.967619 
L 126.747273 90.193002 
L 127.423636 62.560094 
L 128.1 93.826375 
L 128.776364 83.261234 
L 129.452727 75.792643 
L 130.129091 95.833455 
L 130.805455 165.335384 
L 131.481818 250.968841 
L 132.158182 231.231269 
L 132.834545 226.55353 
L 133.510909 236.73718 
L 134.187273 136.405023 
L 134.863636 221.524676 
L 136.216364 304.265563 
L 136.892727 302.136257 
L 137.569091 307.753974 
L 138.245455 304.210373 
L 138.921818 304.682214 
L 139.598182 261.076574 
L 140.274545 244.612141 
L 140.950909 185.969109 
L 142.303636 264.087635 
L 142.98 174.944909 
L 143.656364 122.566955 
L 144.332727 154.923368 
L 145.009091 146.606169 
L 145.685455 130.420968 
L 146.361818 233.063813 
L 147.038182 279.335958 
L 147.714545 293.841976 
L 148.390909 284.568783 
L 149.067273 282.007842 
L 149.743636 291.557953 
L 150.42 304.248584 
L 151.096364 304.361537 
L 151.772727 246.837875 
L 152.449091 247.46694 
L 153.125455 207.681157 
L 153.801818 86.551259 
L 154.478182 86.234856 
L 155.154545 59.87109 
L 155.830909 67.428617 
L 156.507273 223.420051 
L 157.183636 302.516143 
L 157.86 212.915491 
L 158.536364 80.94507 
L 159.212727 76.816472 
L 159.889091 70.029517 
L 160.565455 67.499775 
L 161.241818 63.600377 
L 161.918182 122.160869 
L 162.594545 72.910537 
L 163.270909 67.788553 
L 163.947273 182.161685 
L 164.623636 196.999082 
L 165.3 217.301455 
L 166.652727 244.44261 
L 167.329091 248.491581 
L 168.681818 237.845637 
L 169.358182 215.761737 
L 170.034545 249.700154 
L 170.710909 227.617829 
L 171.387273 244.083476 
L 172.063636 239.023088 
L 172.74 189.902882 
L 173.416364 212.194175 
L 174.092727 239.924368 
L 174.769091 231.750849 
L 175.445455 154.671112 
L 176.121818 161.098877 
L 176.798182 166.245625 
L 177.474545 155.204063 
L 178.150909 100.611989 
L 178.827273 117.28559 
L 179.503636 191.702385 
L 180.18 200.45326 
L 180.856364 194.309925 
L 181.532727 207.124877 
L 182.209091 233.697382 
L 182.885455 205.286466 
L 183.561818 187.686851 
L 184.238182 236.038438 
L 184.914545 221.019468 
L 185.590909 197.131747 
L 186.267273 235.216127 
L 186.943636 252.357247 
L 187.62 185.329538 
L 188.296364 268.514866 
L 188.972727 239.656839 
L 189.649091 266.577247 
L 190.325455 280.597525 
L 191.678182 233.417578 
L 192.354545 172.977432 
L 193.030909 195.644036 
L 193.707273 270.4235 
L 194.383636 187.333876 
L 195.06 172.873827 
L 195.736364 268.087341 
L 196.412727 296.374133 
L 197.089091 288.135653 
L 197.765455 277.622483 
L 198.441818 282.945559 
L 199.118182 294.436306 
L 199.794545 302.284037 
L 200.470909 304.15523 
L 201.147273 303.660124 
L 201.823636 304.561617 
L 202.5 293.191912 
L 203.176364 287.388848 
L 203.852727 250.121524 
L 204.529091 283.45713 
L 205.205455 287.233554 
L 205.881818 278.69338 
L 206.558182 296.974962 
L 207.910909 271.167784 
L 208.587273 175.005422 
L 209.263636 159.904409 
L 209.94 222.896803 
L 210.616364 98.479638 
L 211.292727 228.074503 
L 211.969091 266.755577 
L 212.645455 271.559189 
L 213.321818 291.505832 
L 213.998182 277.665715 
L 214.674545 261.452263 
L 215.350909 270.973191 
L 216.027273 302.45195 
L 216.703636 303.06278 
L 217.38 291.501795 
L 218.056364 258.189867 
L 218.732727 288.31125 
L 219.409091 291.114883 
L 220.085455 241.25198 
L 220.761818 254.235023 
L 221.438182 213.488462 
L 222.114545 116.100562 
L 222.790909 84.172459 
L 223.467273 72.974768 
L 224.143636 223.302421 
L 224.82 279.922924 
L 225.496364 206.190051 
L 226.172727 165.563963 
L 226.849091 97.467303 
L 227.525455 122.318892 
L 228.201818 266.789667 
L 228.878182 304.041348 
L 229.554545 303.87751 
L 230.230909 275.363843 
L 230.907273 230.499247 
L 231.583636 234.058155 
L 232.26 209.076147 
L 232.936364 220.845586 
L 233.612727 155.093921 
L 234.289091 226.022395 
L 234.965455 243.243516 
L 235.641818 236.626592 
L 236.318182 241.42219 
L 236.994545 248.805118 
L 237.670909 180.490355 
L 238.347273 203.679681 
L 239.023636 187.986037 
L 239.7 121.663115 
L 240.376364 110.476647 
L 241.052727 69.422656 
L 241.729091 80.644033 
L 242.405455 65.707988 
L 243.081818 130.262826 
L 243.758182 134.773076 
L 244.434545 297.467296 
L 245.110909 275.034091 
L 245.787273 180.390723 
L 246.463636 182.852728 
L 247.14 136.733259 
L 247.816364 61.599256 
L 248.492727 72.793009 
L 249.169091 64.103276 
L 249.845455 66.163109 
L 250.521818 55.8 
L 251.198182 60.494132 
L 251.874545 78.956667 
L 252.550909 67.340768 
L 253.227273 64.044274 
L 253.903636 96.936525 
L 254.58 98.123488 
L 255.256364 143.984113 
L 255.932727 119.975698 
L 256.609091 111.767063 
L 257.285455 66.66251 
L 257.961818 136.252178 
L 258.638182 235.564938 
L 259.314545 248.139552 
L 259.990909 266.099571 
L 260.667273 275.463272 
L 261.343636 254.053816 
L 262.02 244.764671 
L 262.696364 273.784034 
L 263.372727 264.125846 
L 264.049091 242.831849 
L 264.725455 266.548027 
L 265.401818 275.444599 
L 266.078182 265.930257 
L 266.754545 245.033987 
L 267.430909 266.589744 
L 268.107273 295.376583 
L 268.783636 297.919203 
L 269.46 304.911098 
L 270.136364 292.177323 
L 270.812727 299.223325 
L 271.489091 302.249425 
L 272.165455 249.177326 
L 272.841818 238.254299 
L 273.518182 242.029607 
L 274.194545 176.866627 
L 274.870909 124.155707 
L 275.547273 238.792883 
L 276.223636 200.717978 
L 276.9 267.743556 
L 277.576364 274.258933 
L 278.252727 274.636319 
L 278.929091 208.581007 
L 279.605455 251.28771 
L 280.281818 243.786969 
L 280.958182 257.737972 
L 281.634545 210.910822 
L 282.310909 266.572226 
L 282.987273 236.556257 
L 283.663636 169.782659 
L 284.34 248.161769 
L 285.016364 186.622713 
L 285.692727 222.281283 
L 286.369091 230.644044 
L 287.045455 212.256318 
L 287.721818 273.028822 
L 288.398182 209.064007 
L 289.074545 192.11752 
L 289.750909 170.172988 
L 290.427273 179.969552 
L 291.103636 237.950278 
L 291.78 211.149393 
L 292.456364 248.969924 
L 293.132727 228.748524 
L 293.809091 292.526125 
L 295.161818 289.106135 
L 295.838182 291.186127 
L 296.514545 304.457005 
L 297.190909 306.582903 
L 297.867273 306.743095 
L 298.543636 306.149351 
L 299.22 307.005182 
L 299.896364 305.849214 
L 300.572727 305.598159 
L 301.249091 305.523206 
L 302.601818 302.954679 
L 303.278182 304.213408 
L 303.954545 301.437247 
L 304.630909 304.622384 
L 305.983636 305.443023 
L 306.66 303.866002 
L 307.336364 303.376271 
L 308.012727 307.8 
L 308.689091 299.925646 
L 309.365455 304.774562 
L 310.041818 292.956117 
L 310.718182 301.004759 
L 311.394545 305.508502 
L 312.070909 305.209236 
L 312.747273 303.787275 
L 313.423636 303.032664 
L 314.1 303.94512 
L 314.776364 304.595515 
L 315.452727 303.937645 
L 316.129091 303.891573 
L 316.805455 299.676476 
L 317.481818 305.233464 
L 318.158182 304.95203 
L 318.834545 305.171445 
L 319.510909 305.192494 
L 320.187273 304.670311 
L 320.863636 303.061558 
L 321.54 304.057724 
L 322.216364 301.891077 
L 322.892727 304.133875 
L 323.569091 304.207147 
L 324.245455 305.297556 
L 324.921818 302.512484 
L 325.598182 303.287267 
L 326.274545 302.820627 
L 326.950909 294.089622 
L 327.627273 288.635607 
L 328.303636 285.825254 
L 328.98 292.306197 
L 329.656364 284.076963 
L 330.332727 304.221643 
L 331.009091 303.755138 
L 331.685455 294.64516 
L 332.361818 296.917306 
L 333.038182 303.557733 
L 333.714545 305.575157 
L 334.390909 304.878775 
L 335.067273 304.735536 
L 335.743636 302.581903 
L 336.42 302.78295 
L 337.096364 305.413259 
L 337.772727 303.550139 
L 338.449091 277.687962 
L 339.125455 258.929002 
L 339.801818 184.698796 
L 340.478182 219.970119 
L 341.154545 111.360553 
L 341.830909 222.317083 
L 343.183636 290.603529 
L 343.86 281.61669 
L 344.536364 266.796726 
L 345.212727 290.16568 
L 345.889091 283.589977 
L 346.565455 281.628117 
L 347.241818 286.111336 
L 347.918182 284.569424 
L 348.594545 287.555594 
L 349.270909 269.466062 
L 349.947273 279.489002 
L 350.623636 257.266429 
L 351.3 270.295517 
L 351.976364 243.169038 
L 352.652727 152.343724 
L 353.329091 162.977605 
L 354.005455 154.848898 
L 354.681818 107.144752 
L 355.358182 91.383225 
L 356.034545 129.360022 
L 356.710909 95.359878 
L 357.387273 93.042424 
L 358.063636 154.360312 
L 358.74 90.08415 
L 359.416364 104.309304 
L 360.092727 161.477609 
L 360.769091 105.560397 
L 361.445455 155.715384 
L 362.121818 100.278641 
L 362.798182 152.528897 
L 363.474545 133.675048 
L 364.150909 133.975032 
L 364.827273 224.068799 
L 365.503636 154.99653 
L 366.18 171.742903 
L 366.856364 161.053815 
L 367.532727 224.916888 
L 368.209091 259.227899 
L 368.885455 246.216497 
L 369.561818 166.366082 
L 370.238182 127.033076 
L 370.914545 204.419301 
L 371.590909 204.021467 
L 372.267273 235.680356 
L 372.943636 130.450986 
L 373.62 89.242708 
L 374.296364 203.062565 
L 374.972727 169.148207 
L 375.649091 189.210863 
L 376.325455 155.504387 
L 377.001818 90.301175 
L 377.678182 76.647668 
L 378.354545 176.522167 
L 379.030909 173.409207 
L 379.707273 223.27736 
L 380.383636 218.847132 
L 381.06 148.79781 
L 381.736364 266.860397 
L 382.412727 208.803821 
L 383.089091 207.045823 
L 383.765455 214.840681 
L 384.441818 263.317687 
L 385.118182 224.435374 
L 385.794545 249.197539 
L 386.470909 220.969719 
L 387.147273 255.58293 
L 387.823636 218.41242 
L 388.5 277.593631 
L 389.176364 252.301535 
L 389.852727 156.69607 
L 390.529091 190.095448 
L 391.205455 178.848484 
L 391.881818 135.911241 
L 392.558182 152.548592 
L 393.234545 128.683259 
L 393.910909 87.243303 
L 394.587273 149.016006 
L 395.263636 183.796604 
L 395.94 172.005736 
L 396.616364 149.524254 
L 397.292727 165.900222 
L 397.969091 81.828552 
L 398.645455 102.982672 
L 399.321818 185.220797 
L 399.998182 102.564617 
L 400.674545 132.161359 
L 401.350909 142.205637 
L 402.027273 113.590464 
L 402.703636 64.219344 
L 403.38 63.351363 
L 404.056364 69.378715 
L 405.409091 101.59349 
L 406.085455 174.78737 
L 406.761818 232.471461 
L 407.438182 151.747985 
L 408.114545 242.479222 
L 408.790909 239.710246 
L 409.467273 240.454026 
L 410.143636 302.822639 
L 410.82 269.65667 
L 411.496364 247.390667 
L 412.172727 288.294449 
L 412.849091 286.468738 
L 413.525455 245.890671 
L 414.201818 239.476188 
L 414.878182 181.21297 
L 415.554545 137.17573 
L 416.230909 122.552896 
L 416.907273 85.143179 
L 417.583636 156.817266 
L 418.26 94.5346 
L 418.936364 86.798693 
L 420.289091 164.43545 
L 420.965455 241.716868 
L 421.641818 277.308776 
L 422.318182 305.520307 
L 422.994545 260.246347 
L 423.670909 222.474214 
L 424.347273 240.726733 
L 425.023636 263.571255 
L 425.7 264.01769 
L 426.376364 239.011568 
L 427.729091 162.251127 
L 428.405455 165.429278 
L 429.081818 242.403742 
L 429.758182 159.077977 
L 430.434545 168.641531 
L 431.110909 126.164315 
L 431.787273 119.057681 
L 432.463636 187.66797 
L 433.14 176.810741 
L 433.816364 67.53195 
L 434.492727 73.157224 
L 435.169091 61.334657 
L 435.845455 65.86051 
L 435.845455 65.86051 
" clip-path="url(#pd30b3748d9)" style="fill: none; stroke-dasharray: 5.55,2.4; stroke-dashoffset: 0; stroke: #ff7f0e; stroke-width: 1.5"/>
   </g>
   <g id="patch_3">
    <path d="M 63 320.4 
L 63 43.2 
" style="fill: none; stroke: #000000; stroke-width: 0.8; stroke-linejoin: miter; stroke-linecap: square"/>
   </g>
   <g id="patch_4">
    <path d="M 453.6 320.4 
L 453.6 43.2 
" style="fill: none; stroke: #000000; stroke-width: 0.8; stroke-linejoin: miter; stroke-linecap: square"/>
   </g>
   <g id="patch_5">
    <path d="M 63 320.4 
L 453.6 320.4 
" style="fill: none; stroke: #000000; stroke-width: 0.8; stroke-linejoin: miter; stroke-linecap: square"/>
   </g>
   <g id="patch_6">
    <path d="M 63 43.2 
L 453.6 43.2 
" style="fill: none; stroke: #000000; stroke-width: 0.8; stroke-linejoin: miter; stroke-linecap: square"/>
   </g>
   <g id="text_12">
    <!-- GRUModel 验证集预测 -->
    <g transform="translate(201.3 37.2)scale(0.12 -0.12)">
     <defs>
      <path id="SimHei-47" d="M 2850 75 
L 2425 75 
L 2350 425 
Q 2250 275 2037 175 
Q 1825 75 1575 75 
Q 1050 75 637 562 
Q 225 1050 225 2125 
Q 225 3300 600 3875 
Q 975 4450 1625 4450 
Q 2200 4450 2525 4025 
Q 2850 3600 2850 2925 
L 2300 2925 
Q 2300 3450 2125 3712 
Q 1950 3975 1625 3975 
Q 1225 3975 1025 3562 
Q 825 3150 825 2175 
Q 825 1250 1075 900 
Q 1325 550 1650 550 
Q 1975 550 2162 787 
Q 2350 1025 2350 1525 
L 2350 1800 
L 1575 1800 
L 1575 2275 
L 2850 2275 
L 2850 75 
z
" transform="scale(0.015625)"/>
      <path id="SimHei-52" d="M 3000 125 
L 2400 125 
L 1500 1975 
L 850 1975 
L 850 125 
L 275 125 
L 275 4400 
L 1525 4400 
Q 2125 4400 2500 4112 
Q 2875 3825 2875 3175 
Q 2875 2675 2625 2400 
Q 2375 2125 2050 2050 
L 3000 125 
z
M 2300 3175 
Q 2300 3525 2087 3725 
Q 1875 3925 1400 3925 
L 850 3925 
L 850 2450 
L 1550 2450 
Q 1850 2450 2075 2612 
Q 2300 2775 2300 3175 
z
" transform="scale(0.015625)"/>
      <path id="SimHei-55" d="M 2875 1375 
Q 2875 775 2562 425 
Q 2250 75 1575 75 
Q 900 75 587 425 
Q 275 775 275 1375 
L 275 4400 
L 850 4400 
L 850 1375 
Q 850 950 1050 750 
Q 1250 550 1575 550 
Q 1900 550 2100 750 
Q 2300 950 2300 1375 
L 2300 4400 
L 2875 4400 
L 2875 1375 
z
" transform="scale(0.015625)"/>
      <path id="SimHei-4d" d="M 2925 125 
L 2425 125 
L 2425 3175 
L 2375 3175 
L 1775 125 
L 1375 125 
L 775 3175 
L 725 3175 
L 725 125 
L 225 125 
L 225 4400 
L 1000 4400 
L 1550 1575 
L 1600 1575 
L 2150 4400 
L 2925 4400 
L 2925 125 
z
" transform="scale(0.015625)"/>
      <path id="SimHei-6f" d="M 2925 1525 
Q 2925 875 2525 475 
Q 2125 75 1575 75 
Q 1025 75 625 475 
Q 225 875 225 1525 
Q 225 2175 625 2575 
Q 1025 2975 1575 2975 
Q 2125 2975 2525 2575 
Q 2925 2175 2925 1525 
z
M 2375 1525 
Q 2375 2025 2125 2275 
Q 1875 2525 1575 2525 
Q 1275 2525 1025 2275 
Q 775 2025 775 1525 
Q 775 1025 1025 775 
Q 1275 525 1575 525 
Q 1875 525 2125 775 
Q 2375 1025 2375 1525 
z
" transform="scale(0.015625)"/>
      <path id="SimHei-64" d="M 2750 125 
L 2250 125 
L 2250 500 
Q 2100 275 1900 175 
Q 1700 75 1425 75 
Q 925 75 575 437 
Q 225 800 225 1525 
Q 225 2250 575 2625 
Q 925 3000 1425 3000 
Q 1700 3000 1900 2887 
Q 2100 2775 2250 2550 
L 2250 4400 
L 2750 4400 
L 2750 125 
z
M 2250 1525 
Q 2250 2000 2037 2275 
Q 1825 2550 1525 2550 
Q 1150 2550 962 2275 
Q 775 2000 775 1525 
Q 775 1050 962 787 
Q 1150 525 1525 525 
Q 1825 525 2037 787 
Q 2250 1050 2250 1525 
z
" transform="scale(0.015625)"/>
      <path id="SimHei-65" d="M 2850 1075 
Q 2800 625 2450 350 
Q 2100 75 1625 75 
Q 1025 75 637 462 
Q 250 850 250 1525 
Q 250 2200 637 2587 
Q 1025 2975 1625 2975 
Q 2150 2975 2487 2637 
Q 2825 2300 2825 1525 
L 800 1525 
Q 800 975 1037 750 
Q 1275 525 1625 525 
Q 1900 525 2075 662 
Q 2250 800 2300 1075 
L 2850 1075 
z
M 2250 1925 
Q 2200 2275 2025 2412 
Q 1850 2550 1575 2550 
Q 1325 2550 1125 2412 
Q 925 2275 825 1925 
L 2250 1925 
z
" transform="scale(0.015625)"/>
      <path id="SimHei-6c" d="M 1825 125 
L 1325 125 
L 1325 4400 
L 1825 4400 
L 1825 125 
z
" transform="scale(0.015625)"/>
      <path id="SimHei-20" transform="scale(0.015625)"/>
      <path id="SimHei-9a8c" d="M 2300 4725 
Q 2250 4500 2225 4075 
L 2050 2125 
L 2525 2125 
Q 2500 1925 2475 1450 
L 2375 75 
Q 2375 -450 2075 -525 
Q 1775 -600 1250 -675 
Q 1175 -325 1050 -100 
Q 1575 -100 1737 -87 
Q 1900 -75 1950 150 
L 2025 1700 
L 550 1700 
Q 575 2175 587 2737 
Q 600 3300 600 3800 
L 1100 3800 
Q 1050 3525 1025 3087 
Q 1000 2650 1000 2125 
L 1625 2125 
L 1800 4325 
L 1125 4325 
Q 725 4325 350 4300 
L 350 4750 
Q 725 4725 1125 4725 
L 2300 4725 
z
M 4325 4875 
Q 4725 4125 5150 3775 
Q 5575 3425 6150 3225 
Q 5925 3025 5800 2725 
Q 5450 2925 5125 3200 
L 5125 2775 
Q 4800 2800 4200 2800 
Q 3600 2800 3225 2775 
L 3225 3175 
Q 3075 2975 2800 2650 
Q 2575 2875 2325 3000 
Q 2725 3275 2937 3550 
Q 3150 3825 3312 4125 
Q 3475 4425 3587 4675 
Q 3700 4925 3775 5225 
Q 4100 5150 4450 5075 
L 4325 4875 
z
M 5600 2150 
Q 5475 2000 5400 1737 
Q 5325 1475 5162 912 
Q 5000 350 4900 25 
L 5250 25 
Q 5425 25 5800 50 
L 5800 -400 
Q 5475 -375 5250 -375 
L 3325 -375 
Q 2875 -375 2675 -400 
L 2675 50 
Q 2975 25 3350 25 
L 4475 25 
Q 4675 575 4800 1150 
L 5050 2300 
Q 5250 2225 5600 2150 
z
M 5100 3225 
Q 4800 3450 4550 3775 
Q 4300 4100 4050 4600 
Q 3850 4200 3687 3912 
Q 3525 3625 3250 3225 
L 5100 3225 
z
M 3250 2175 
Q 3350 1825 3462 1375 
Q 3575 925 3675 550 
Q 3450 525 3250 425 
Q 3175 900 3087 1225 
Q 3000 1550 2850 2050 
Q 3050 2125 3250 2175 
z
M 1775 1125 
Q 1750 950 1725 700 
Q 1350 625 1112 575 
Q 875 525 375 375 
Q 300 650 200 925 
Q 550 950 925 1000 
Q 1300 1050 1775 1125 
z
M 4300 1650 
Q 4350 1325 4425 825 
L 4025 725 
Q 3925 1275 3875 1562 
Q 3825 1850 3750 2225 
Q 3975 2275 4200 2300 
L 4300 1650 
z
" transform="scale(0.015625)"/>
      <path id="SimHei-8bc1" d="M 5125 4675 
Q 5625 4675 6050 4700 
L 6050 4225 
Q 5625 4250 5125 4250 
L 4500 4250 
L 4500 2625 
L 5075 2625 
Q 5500 2625 5900 2650 
L 5900 2175 
Q 5525 2200 5075 2200 
L 4500 2200 
L 4500 125 
L 5200 125 
Q 5625 125 6175 150 
L 6175 -325 
Q 5625 -300 5200 -300 
L 3000 -300 
Q 2400 -300 2000 -325 
L 2000 150 
Q 2400 125 2775 125 
L 2775 2075 
Q 2775 2600 2750 2950 
L 3275 2950 
Q 3250 2625 3250 2075 
L 3250 125 
L 4000 125 
L 4000 4250 
L 3550 4250 
Q 2975 4250 2450 4225 
L 2450 4700 
Q 2975 4675 3550 4675 
L 5125 4675 
z
M 850 -125 
Q 1150 175 1150 500 
L 1150 2750 
L 925 2750 
Q 575 2750 225 2725 
L 225 3200 
Q 550 3175 925 3175 
L 1650 3175 
Q 1625 2700 1625 2175 
L 1625 800 
Q 1850 1075 2025 1325 
Q 2150 1050 2325 825 
Q 2050 500 1812 212 
Q 1575 -75 1225 -525 
Q 1050 -300 850 -125 
z
M 1525 3900 
Q 1100 4500 800 4825 
Q 1000 4975 1175 5175 
L 1925 4275 
Q 1675 4100 1525 3900 
z
" transform="scale(0.015625)"/>
      <path id="SimHei-96c6" d="M 2275 4925 
Q 2125 4800 2025 4662 
Q 1925 4525 1850 4350 
L 4925 4350 
Q 5300 4350 5750 4375 
L 5750 3975 
L 3650 3975 
L 3650 3575 
L 4625 3575 
Q 4925 3575 5325 3600 
L 5325 3175 
Q 4925 3200 4625 3200 
L 3650 3200 
L 3650 2800 
L 4675 2800 
Q 5000 2800 5425 2825 
L 5425 2400 
Q 5000 2425 4675 2425 
L 3650 2425 
L 3650 2075 
L 4875 2075 
Q 5275 2075 5675 2100 
L 5675 1675 
Q 5300 1700 4900 1700 
L 1650 1700 
L 1650 1500 
L 1150 1500 
Q 1200 1950 1200 2325 
L 1200 3475 
Q 1050 3250 937 3125 
Q 825 3000 675 2825 
Q 500 3000 300 3125 
Q 475 3325 875 3825 
Q 1275 4325 1462 4650 
Q 1650 4975 1725 5225 
Q 1950 5100 2275 4925 
z
M 2975 1200 
Q 2975 1300 2950 1625 
L 3475 1625 
Q 3450 1275 3450 1200 
L 5050 1200 
Q 5500 1200 5925 1225 
L 5925 825 
L 4150 825 
Q 4500 525 4925 362 
Q 5350 200 6100 25 
Q 5875 -225 5775 -475 
Q 5275 -300 4962 -162 
Q 4650 -25 4387 137 
Q 4125 300 3950 462 
Q 3775 625 3575 825 
L 3450 825 
L 3450 250 
Q 3450 -275 3500 -650 
L 2950 -650 
Q 2975 -300 2975 250 
L 2975 825 
L 2875 825 
Q 2700 575 2475 375 
Q 2250 175 1987 12 
Q 1725 -150 1425 -300 
Q 1125 -450 700 -575 
Q 600 -325 400 -75 
Q 925 50 1475 262 
Q 2025 475 2300 825 
L 500 825 
L 500 1225 
Q 800 1200 1400 1200 
L 2975 1200 
z
M 3150 2800 
L 3150 3200 
L 1650 3200 
L 1650 2800 
L 3150 2800 
z
M 3150 3575 
L 3150 3975 
L 1650 3975 
L 1650 3575 
L 3150 3575 
z
M 3150 2075 
L 3150 2425 
L 1650 2425 
L 1650 2075 
L 3150 2075 
z
M 3450 5250 
Q 3575 5150 3712 5000 
Q 3850 4850 4000 4650 
Q 3850 4525 3575 4375 
Q 3425 4575 3325 4700 
Q 3225 4825 3075 4950 
Q 3275 5075 3450 5250 
z
" transform="scale(0.015625)"/>
      <path id="SimHei-9884" d="M 5200 4800 
Q 5575 4800 5950 4825 
L 5950 4400 
Q 5575 4425 5200 4425 
L 4500 4425 
Q 4425 4050 4350 3600 
L 5725 3600 
Q 5700 3225 5700 2800 
L 5700 1725 
Q 5700 1300 5725 850 
L 5250 850 
L 5250 3225 
L 3550 3225 
L 3550 800 
L 3075 800 
Q 3100 1375 3100 1725 
L 3100 2775 
Q 3100 3175 3075 3600 
L 3900 3600 
Q 4000 4150 4000 4425 
L 3725 4425 
Q 3300 4425 2850 4400 
L 2850 4825 
Q 3325 4800 3725 4800 
L 5200 4800 
z
M 2600 1775 
Q 2350 1825 2150 1825 
Q 2250 2250 2300 2450 
L 1750 2450 
L 1750 125 
Q 1725 -300 1425 -400 
Q 1125 -500 750 -500 
Q 700 -225 575 25 
Q 1125 -25 1212 37 
Q 1300 100 1300 350 
L 1300 2450 
L 1025 2450 
Q 700 2450 350 2425 
L 350 2850 
Q 700 2825 1000 2825 
L 2850 2825 
Q 2725 2325 2600 1775 
z
M 4725 2875 
Q 4625 2575 4600 2100 
Q 4575 1625 4462 1037 
Q 4350 450 3962 62 
Q 3575 -325 2925 -675 
Q 2700 -500 2475 -350 
Q 3075 -125 3437 200 
Q 3800 525 3950 937 
Q 4100 1350 4137 1850 
Q 4175 2350 4175 2925 
L 4725 2875 
z
M 1625 2900 
Q 1275 3275 800 3650 
Q 925 3775 1075 3950 
Q 1250 3825 1425 3675 
Q 1750 4150 1950 4375 
L 1400 4375 
Q 900 4375 450 4350 
L 450 4775 
Q 900 4750 1375 4750 
L 2575 4750 
L 2575 4375 
Q 2200 4100 1725 3400 
L 1950 3200 
Q 1750 3025 1625 2900 
z
M 4775 725 
Q 5725 0 6075 -325 
Q 5850 -500 5725 -650 
Q 5400 -325 5137 -87 
Q 4875 150 4525 350 
Q 4650 525 4775 725 
z
" transform="scale(0.015625)"/>
      <path id="SimHei-6d4b" d="M 4025 4725 
Q 4000 4475 4000 4000 
L 4000 2225 
Q 4000 1775 4025 1350 
L 3550 1350 
L 3550 4325 
L 2350 4325 
L 2350 1325 
L 1900 1325 
Q 1925 1775 1925 2225 
L 1925 4000 
Q 1925 4200 1900 4725 
L 4025 4725 
z
M 5900 5075 
Q 5875 4800 5875 4375 
L 5875 0 
Q 5875 -325 5650 -425 
Q 5425 -525 4975 -600 
Q 4925 -325 4775 -50 
Q 5125 -50 5262 -25 
Q 5400 0 5400 250 
L 5400 4375 
Q 5400 4775 5375 5075 
L 5900 5075 
z
M 3275 3725 
Q 3225 3400 3200 2325 
Q 3175 1250 2837 550 
Q 2500 -150 2075 -600 
Q 1850 -400 1600 -325 
Q 2200 250 2475 962 
Q 2750 1675 2762 2475 
Q 2775 3275 2725 3800 
Q 3000 3750 3275 3725 
z
M 4950 4275 
Q 4925 4000 4925 3575 
L 4925 1825 
Q 4925 1300 4950 850 
L 4450 850 
Q 4475 1150 4475 1825 
L 4475 3575 
Q 4475 4000 4450 4275 
L 4950 4275 
z
M 1700 1675 
Q 1375 1075 1112 487 
Q 850 -100 725 -400 
Q 500 -200 200 -25 
Q 475 300 762 850 
Q 1050 1400 1250 2000 
Q 1475 1825 1700 1675 
z
M 3400 1050 
Q 3800 650 4300 -125 
Q 4100 -225 3875 -450 
Q 3475 275 3025 750 
Q 3225 875 3400 1050 
z
M 600 3525 
Q 1125 3125 1500 2775 
Q 1300 2575 1150 2375 
Q 825 2775 300 3150 
Q 450 3300 600 3525 
z
M 1350 4000 
Q 950 4375 475 4675 
Q 625 4850 775 5050 
Q 1300 4700 1675 4375 
Q 1500 4250 1350 4000 
z
" transform="scale(0.015625)"/>
     </defs>
     <use xlink:href="#SimHei-47"/>
     <use xlink:href="#SimHei-52" x="50"/>
     <use xlink:href="#SimHei-55" x="100"/>
     <use xlink:href="#SimHei-4d" x="150"/>
     <use xlink:href="#SimHei-6f" x="200"/>
     <use xlink:href="#SimHei-64" x="250"/>
     <use xlink:href="#SimHei-65" x="300"/>
     <use xlink:href="#SimHei-6c" x="350"/>
     <use xlink:href="#SimHei-20" x="400"/>
     <use xlink:href="#SimHei-9a8c" x="450"/>
     <use xlink:href="#SimHei-8bc1" x="550"/>
     <use xlink:href="#SimHei-96c6" x="650"/>
     <use xlink:href="#SimHei-9884" x="750"/>
     <use xlink:href="#SimHei-6d4b" x="850"/>
    </g>
   </g>
   <g id="legend_1">
    <g id="patch_7">
     <path d="M 374.6 77.7 
L 446.6 77.7 
Q 448.6 77.7 448.6 75.7 
L 448.6 50.2 
Q 448.6 48.2 446.6 48.2 
L 374.6 48.2 
Q 372.6 48.2 372.6 50.2 
L 372.6 75.7 
Q 372.6 77.7 374.6 77.7 
z
" style="fill: #ffffff; opacity: 0.8; stroke: #cccccc; stroke-linejoin: miter"/>
    </g>
    <g id="line2d_25">
     <path d="M 376.6 55.7 
L 386.6 55.7 
L 396.6 55.7 
" style="fill: none; stroke: #1f77b4; stroke-width: 1.5; stroke-linecap: square"/>
    </g>
    <g id="text_13">
     <!-- true -->
     <g transform="translate(404.6 59.2)scale(0.1 -0.1)">
      <defs>
       <path id="SimHei-74" d="M 2750 200 
Q 2625 150 2462 112 
Q 2300 75 2025 75 
Q 1575 75 1300 325 
Q 1025 575 1025 1025 
L 1025 2525 
L 175 2525 
L 175 2925 
L 1025 2925 
L 1025 3900 
L 1525 3900 
L 1525 2925 
L 2550 2925 
L 2550 2525 
L 1525 2525 
L 1525 1000 
Q 1525 800 1625 662 
Q 1725 525 2000 525 
Q 2275 525 2450 575 
Q 2625 625 2750 700 
L 2750 200 
z
" transform="scale(0.015625)"/>
       <path id="SimHei-72" d="M 2500 2425 
Q 2025 2500 1700 2287 
Q 1375 2075 1150 1550 
L 1150 125 
L 650 125 
L 650 2925 
L 1150 2925 
L 1150 2200 
Q 1375 2600 1712 2787 
Q 2050 2975 2500 2975 
L 2500 2425 
z
" transform="scale(0.015625)"/>
       <path id="SimHei-75" d="M 2800 125 
L 2300 125 
L 2300 650 
Q 2100 375 1862 225 
Q 1625 75 1250 75 
Q 800 75 575 325 
Q 350 575 350 950 
L 350 2925 
L 850 2925 
L 850 1125 
Q 850 825 1000 650 
Q 1150 475 1400 475 
Q 1725 475 2012 812 
Q 2300 1150 2300 1650 
L 2300 2925 
L 2800 2925 
L 2800 125 
z
" transform="scale(0.015625)"/>
      </defs>
      <use xlink:href="#SimHei-74"/>
      <use xlink:href="#SimHei-72" x="50"/>
      <use xlink:href="#SimHei-75" x="100"/>
      <use xlink:href="#SimHei-65" x="150"/>
     </g>
    </g>
    <g id="line2d_26">
     <path d="M 376.6 68.95 
L 386.6 68.95 
L 396.6 68.95 
" style="fill: none; stroke-dasharray: 5.55,2.4; stroke-dashoffset: 0; stroke: #ff7f0e; stroke-width: 1.5"/>
    </g>
    <g id="text_14">
     <!-- GRUModel -->
     <g transform="translate(404.6 72.45)scale(0.1 -0.1)">
      <use xlink:href="#SimHei-47"/>
      <use xlink:href="#SimHei-52" x="50"/>
      <use xlink:href="#SimHei-55" x="100"/>
      <use xlink:href="#SimHei-4d" x="150"/>
      <use xlink:href="#SimHei-6f" x="200"/>
      <use xlink:href="#SimHei-64" x="250"/>
      <use xlink:href="#SimHei-65" x="300"/>
      <use xlink:href="#SimHei-6c" x="350"/>
     </g>
    </g>
   </g>
  </g>
 </g>
 <defs>
  <clipPath id="pd30b3748d9">
   <rect x="63" y="43.2" width="390.6" height="277.2"/>
  </clipPath>
 </defs>
</svg>
