<?xml version="1.0" encoding="utf-8" standalone="no"?>
<!DOCTYPE svg PUBLIC "-//W3C//DTD SVG 1.1//EN"
  "http://www.w3.org/Graphics/SVG/1.1/DTD/svg11.dtd">
<svg xmlns:xlink="http://www.w3.org/1999/xlink" width="504pt" height="360pt" viewBox="0 0 504 360" xmlns="http://www.w3.org/2000/svg" version="1.1">
 <metadata>
  <rdf:RDF xmlns:dc="http://purl.org/dc/elements/1.1/" xmlns:cc="http://creativecommons.org/ns#" xmlns:rdf="http://www.w3.org/1999/02/22-rdf-syntax-ns#">
   <cc:Work>
    <dc:type rdf:resource="http://purl.org/dc/dcmitype/StillImage"/>
    <dc:date>2025-01-12T16:09:31.255734</dc:date>
    <dc:format>image/svg+xml</dc:format>
    <dc:creator>
     <cc:Agent>
      <dc:title>Matplotlib v3.5.3, https://matplotlib.org/</dc:title>
     </cc:Agent>
    </dc:creator>
   </cc:Work>
  </rdf:RDF>
 </metadata>
 <defs>
  <style type="text/css">*{stroke-linejoin: round; stroke-linecap: butt}</style>
 </defs>
 <g id="figure_1">
  <g id="patch_1">
   <path d="M 0 360 
L 504 360 
L 504 0 
L 0 0 
z
" style="fill: #ffffff"/>
  </g>
  <g id="axes_1">
   <g id="patch_2">
    <path d="M 63 320.4 
L 453.6 320.4 
L 453.6 43.2 
L 63 43.2 
z
" style="fill: #ffffff"/>
   </g>
   <g id="matplotlib.axis_1">
    <g id="xtick_1">
     <g id="line2d_1">
      <path d="M 80.754545 320.4 
L 80.754545 43.2 
" clip-path="url(#p19b23a72b4)" style="fill: none; stroke: #b0b0b0; stroke-width: 0.8; stroke-linecap: square"/>
     </g>
     <g id="line2d_2">
      <defs>
       <path id="mc681fb9731" d="M 0 0 
L 0 3.5 
" style="stroke: #000000; stroke-width: 0.8"/>
      </defs>
      <g>
       <use xlink:href="#mc681fb9731" x="80.754545" y="320.4" style="stroke: #000000; stroke-width: 0.8"/>
      </g>
     </g>
     <g id="text_1">
      <!-- 0 -->
      <g transform="translate(78.254545 334.275)scale(0.1 -0.1)">
       <defs>
        <path id="SimHei-30" d="M 225 2537 
Q 250 3200 412 3587 
Q 575 3975 875 4225 
Q 1175 4475 1612 4475 
Q 2050 4475 2375 4112 
Q 2700 3750 2800 3200 
Q 2900 2650 2862 1937 
Q 2825 1225 2612 775 
Q 2400 325 1975 150 
Q 1550 -25 1125 187 
Q 700 400 525 750 
Q 350 1100 275 1487 
Q 200 1875 225 2537 
z
M 750 2687 
Q 675 2000 800 1462 
Q 925 925 1212 700 
Q 1500 475 1800 612 
Q 2100 750 2237 1162 
Q 2375 1575 2375 2062 
Q 2375 2550 2337 2950 
Q 2300 3350 2112 3675 
Q 1925 4000 1612 4012 
Q 1300 4025 1062 3700 
Q 825 3375 750 2687 
z
" transform="scale(0.015625)"/>
       </defs>
       <use xlink:href="#SimHei-30"/>
      </g>
     </g>
    </g>
    <g id="xtick_2">
     <g id="line2d_3">
      <path d="M 148.390909 320.4 
L 148.390909 43.2 
" clip-path="url(#p19b23a72b4)" style="fill: none; stroke: #b0b0b0; stroke-width: 0.8; stroke-linecap: square"/>
     </g>
     <g id="line2d_4">
      <g>
       <use xlink:href="#mc681fb9731" x="148.390909" y="320.4" style="stroke: #000000; stroke-width: 0.8"/>
      </g>
     </g>
     <g id="text_2">
      <!-- 100 -->
      <g transform="translate(140.890909 334.275)scale(0.1 -0.1)">
       <defs>
        <path id="SimHei-31" d="M 1400 3600 
Q 1075 3275 575 2975 
L 575 3450 
Q 1200 3875 1600 4450 
L 1900 4450 
L 1900 150 
L 1400 150 
L 1400 3600 
z
" transform="scale(0.015625)"/>
       </defs>
       <use xlink:href="#SimHei-31"/>
       <use xlink:href="#SimHei-30" x="50"/>
       <use xlink:href="#SimHei-30" x="100"/>
      </g>
     </g>
    </g>
    <g id="xtick_3">
     <g id="line2d_5">
      <path d="M 216.027273 320.4 
L 216.027273 43.2 
" clip-path="url(#p19b23a72b4)" style="fill: none; stroke: #b0b0b0; stroke-width: 0.8; stroke-linecap: square"/>
     </g>
     <g id="line2d_6">
      <g>
       <use xlink:href="#mc681fb9731" x="216.027273" y="320.4" style="stroke: #000000; stroke-width: 0.8"/>
      </g>
     </g>
     <g id="text_3">
      <!-- 200 -->
      <g transform="translate(208.527273 334.275)scale(0.1 -0.1)">
       <defs>
        <path id="SimHei-32" d="M 300 250 
Q 325 625 650 925 
Q 975 1225 1475 1862 
Q 1975 2500 2125 2850 
Q 2275 3200 2237 3450 
Q 2200 3700 2000 3862 
Q 1800 4025 1537 4000 
Q 1275 3975 1037 3800 
Q 800 3625 675 3275 
L 200 3350 
Q 400 3925 712 4187 
Q 1025 4450 1450 4475 
Q 1700 4500 1900 4462 
Q 2100 4425 2312 4287 
Q 2525 4150 2662 3875 
Q 2800 3600 2762 3212 
Q 2725 2825 2375 2287 
Q 2025 1750 1025 600 
L 2825 600 
L 2825 150 
L 300 150 
L 300 250 
z
" transform="scale(0.015625)"/>
       </defs>
       <use xlink:href="#SimHei-32"/>
       <use xlink:href="#SimHei-30" x="50"/>
       <use xlink:href="#SimHei-30" x="100"/>
      </g>
     </g>
    </g>
    <g id="xtick_4">
     <g id="line2d_7">
      <path d="M 283.663636 320.4 
L 283.663636 43.2 
" clip-path="url(#p19b23a72b4)" style="fill: none; stroke: #b0b0b0; stroke-width: 0.8; stroke-linecap: square"/>
     </g>
     <g id="line2d_8">
      <g>
       <use xlink:href="#mc681fb9731" x="283.663636" y="320.4" style="stroke: #000000; stroke-width: 0.8"/>
      </g>
     </g>
     <g id="text_4">
      <!-- 300 -->
      <g transform="translate(276.163636 334.275)scale(0.1 -0.1)">
       <defs>
        <path id="SimHei-33" d="M 250 1225 
L 700 1300 
Q 800 975 1025 762 
Q 1250 550 1587 562 
Q 1925 575 2125 837 
Q 2325 1100 2300 1437 
Q 2275 1775 2037 1962 
Q 1800 2150 1275 2225 
L 1275 2550 
Q 1800 2600 2037 2825 
Q 2275 3050 2250 3412 
Q 2225 3775 1925 3937 
Q 1625 4100 1287 3975 
Q 950 3850 750 3275 
L 300 3350 
Q 450 3800 712 4100 
Q 975 4400 1425 4450 
Q 1875 4500 2212 4337 
Q 2550 4175 2687 3837 
Q 2825 3500 2725 3100 
Q 2625 2700 2150 2400 
Q 2500 2250 2687 1950 
Q 2875 1650 2812 1162 
Q 2750 675 2375 375 
Q 2000 75 1525 87 
Q 1050 100 700 387 
Q 350 675 250 1225 
z
" transform="scale(0.015625)"/>
       </defs>
       <use xlink:href="#SimHei-33"/>
       <use xlink:href="#SimHei-30" x="50"/>
       <use xlink:href="#SimHei-30" x="100"/>
      </g>
     </g>
    </g>
    <g id="xtick_5">
     <g id="line2d_9">
      <path d="M 351.3 320.4 
L 351.3 43.2 
" clip-path="url(#p19b23a72b4)" style="fill: none; stroke: #b0b0b0; stroke-width: 0.8; stroke-linecap: square"/>
     </g>
     <g id="line2d_10">
      <g>
       <use xlink:href="#mc681fb9731" x="351.3" y="320.4" style="stroke: #000000; stroke-width: 0.8"/>
      </g>
     </g>
     <g id="text_5">
      <!-- 400 -->
      <g transform="translate(343.8 334.275)scale(0.1 -0.1)">
       <defs>
        <path id="SimHei-34" d="M 2000 1100 
L 75 1100 
L 75 1525 
L 2100 4450 
L 2475 4450 
L 2475 1525 
L 3075 1525 
L 3075 1100 
L 2475 1100 
L 2475 150 
L 2000 150 
L 2000 1100 
z
M 2000 1525 
L 2000 3500 
L 600 1525 
L 2000 1525 
z
" transform="scale(0.015625)"/>
       </defs>
       <use xlink:href="#SimHei-34"/>
       <use xlink:href="#SimHei-30" x="50"/>
       <use xlink:href="#SimHei-30" x="100"/>
      </g>
     </g>
    </g>
    <g id="xtick_6">
     <g id="line2d_11">
      <path d="M 418.936364 320.4 
L 418.936364 43.2 
" clip-path="url(#p19b23a72b4)" style="fill: none; stroke: #b0b0b0; stroke-width: 0.8; stroke-linecap: square"/>
     </g>
     <g id="line2d_12">
      <g>
       <use xlink:href="#mc681fb9731" x="418.936364" y="320.4" style="stroke: #000000; stroke-width: 0.8"/>
      </g>
     </g>
     <g id="text_6">
      <!-- 500 -->
      <g transform="translate(411.436364 334.275)scale(0.1 -0.1)">
       <defs>
        <path id="SimHei-35" d="M 550 1325 
Q 725 650 1150 575 
Q 1575 500 1837 662 
Q 2100 825 2212 1087 
Q 2325 1350 2312 1675 
Q 2300 2000 2137 2225 
Q 1975 2450 1725 2525 
Q 1475 2600 1162 2525 
Q 850 2450 650 2175 
L 225 2225 
Q 275 2375 700 4375 
L 2675 4375 
L 2675 3925 
L 1075 3925 
Q 950 3250 825 2850 
Q 1200 3025 1525 3012 
Q 1850 3000 2150 2862 
Q 2450 2725 2587 2487 
Q 2725 2250 2787 2012 
Q 2850 1775 2837 1500 
Q 2825 1225 2725 937 
Q 2625 650 2425 462 
Q 2225 275 1937 162 
Q 1650 50 1275 75 
Q 900 100 562 350 
Q 225 600 100 1200 
L 550 1325 
z
" transform="scale(0.015625)"/>
       </defs>
       <use xlink:href="#SimHei-35"/>
       <use xlink:href="#SimHei-30" x="50"/>
       <use xlink:href="#SimHei-30" x="100"/>
      </g>
     </g>
    </g>
   </g>
   <g id="matplotlib.axis_2">
    <g id="ytick_1">
     <g id="line2d_13">
      <path d="M 63 304.000287 
L 453.6 304.000287 
" clip-path="url(#p19b23a72b4)" style="fill: none; stroke: #b0b0b0; stroke-width: 0.8; stroke-linecap: square"/>
     </g>
     <g id="line2d_14">
      <defs>
       <path id="m4f013fb8df" d="M 0 0 
L -3.5 0 
" style="stroke: #000000; stroke-width: 0.8"/>
      </defs>
      <g>
       <use xlink:href="#m4f013fb8df" x="63" y="304.000287" style="stroke: #000000; stroke-width: 0.8"/>
      </g>
     </g>
     <g id="text_7">
      <!-- 0 -->
      <g transform="translate(51 307.437787)scale(0.1 -0.1)">
       <use xlink:href="#SimHei-30"/>
      </g>
     </g>
    </g>
    <g id="ytick_2">
     <g id="line2d_15">
      <path d="M 63 248.801929 
L 453.6 248.801929 
" clip-path="url(#p19b23a72b4)" style="fill: none; stroke: #b0b0b0; stroke-width: 0.8; stroke-linecap: square"/>
     </g>
     <g id="line2d_16">
      <g>
       <use xlink:href="#m4f013fb8df" x="63" y="248.801929" style="stroke: #000000; stroke-width: 0.8"/>
      </g>
     </g>
     <g id="text_8">
      <!-- 200 -->
      <g transform="translate(41 252.239429)scale(0.1 -0.1)">
       <use xlink:href="#SimHei-32"/>
       <use xlink:href="#SimHei-30" x="50"/>
       <use xlink:href="#SimHei-30" x="100"/>
      </g>
     </g>
    </g>
    <g id="ytick_3">
     <g id="line2d_17">
      <path d="M 63 193.603572 
L 453.6 193.603572 
" clip-path="url(#p19b23a72b4)" style="fill: none; stroke: #b0b0b0; stroke-width: 0.8; stroke-linecap: square"/>
     </g>
     <g id="line2d_18">
      <g>
       <use xlink:href="#m4f013fb8df" x="63" y="193.603572" style="stroke: #000000; stroke-width: 0.8"/>
      </g>
     </g>
     <g id="text_9">
      <!-- 400 -->
      <g transform="translate(41 197.041072)scale(0.1 -0.1)">
       <use xlink:href="#SimHei-34"/>
       <use xlink:href="#SimHei-30" x="50"/>
       <use xlink:href="#SimHei-30" x="100"/>
      </g>
     </g>
    </g>
    <g id="ytick_4">
     <g id="line2d_19">
      <path d="M 63 138.405214 
L 453.6 138.405214 
" clip-path="url(#p19b23a72b4)" style="fill: none; stroke: #b0b0b0; stroke-width: 0.8; stroke-linecap: square"/>
     </g>
     <g id="line2d_20">
      <g>
       <use xlink:href="#m4f013fb8df" x="63" y="138.405214" style="stroke: #000000; stroke-width: 0.8"/>
      </g>
     </g>
     <g id="text_10">
      <!-- 600 -->
      <g transform="translate(41 141.842714)scale(0.1 -0.1)">
       <defs>
        <path id="SimHei-36" d="M 250 1612 
Q 275 1975 387 2225 
Q 500 2475 725 2850 
L 1750 4450 
L 2325 4450 
L 1275 2800 
Q 1950 2975 2350 2750 
Q 2750 2525 2887 2237 
Q 3025 1950 3037 1612 
Q 3050 1275 2937 950 
Q 2825 625 2537 362 
Q 2250 100 1737 75 
Q 1225 50 862 262 
Q 500 475 362 862 
Q 225 1250 250 1612 
z
M 1025 787 
Q 1250 550 1625 525 
Q 2000 500 2250 775 
Q 2500 1050 2500 1575 
Q 2500 2100 2187 2300 
Q 1875 2500 1487 2450 
Q 1100 2400 925 2075 
Q 750 1750 775 1387 
Q 800 1025 1025 787 
z
" transform="scale(0.015625)"/>
       </defs>
       <use xlink:href="#SimHei-36"/>
       <use xlink:href="#SimHei-30" x="50"/>
       <use xlink:href="#SimHei-30" x="100"/>
      </g>
     </g>
    </g>
    <g id="ytick_5">
     <g id="line2d_21">
      <path d="M 63 83.206857 
L 453.6 83.206857 
" clip-path="url(#p19b23a72b4)" style="fill: none; stroke: #b0b0b0; stroke-width: 0.8; stroke-linecap: square"/>
     </g>
     <g id="line2d_22">
      <g>
       <use xlink:href="#m4f013fb8df" x="63" y="83.206857" style="stroke: #000000; stroke-width: 0.8"/>
      </g>
     </g>
     <g id="text_11">
      <!-- 800 -->
      <g transform="translate(41 86.644357)scale(0.1 -0.1)">
       <defs>
        <path id="SimHei-38" d="M 175 1375 
Q 175 1675 325 1962 
Q 475 2250 825 2425 
Q 525 2600 425 2812 
Q 325 3025 312 3300 
Q 300 3575 387 3775 
Q 475 3975 650 4150 
Q 825 4325 1037 4387 
Q 1250 4450 1500 4450 
Q 1750 4450 1950 4400 
Q 2150 4350 2375 4187 
Q 2600 4025 2700 3725 
Q 2800 3425 2687 3025 
Q 2575 2625 2100 2400 
Q 2525 2275 2700 2012 
Q 2875 1750 2875 1375 
Q 2875 1000 2762 775 
Q 2650 550 2512 400 
Q 2375 250 2137 162 
Q 1900 75 1537 75 
Q 1175 75 912 162 
Q 650 250 475 425 
Q 300 600 237 837 
Q 175 1075 175 1375 
z
M 687 1400 
Q 675 1100 787 875 
Q 900 650 1200 587 
Q 1500 525 1825 600 
Q 2150 675 2275 950 
Q 2400 1225 2362 1500 
Q 2325 1775 2050 1962 
Q 1775 2150 1450 2125 
Q 1125 2100 912 1900 
Q 700 1700 687 1400 
z
M 775 3350 
Q 775 3100 950 2875 
Q 1125 2650 1500 2650 
Q 1875 2650 2062 2875 
Q 2250 3100 2237 3412 
Q 2225 3725 2012 3875 
Q 1800 4025 1437 4000 
Q 1075 3975 925 3787 
Q 775 3600 775 3350 
z
" transform="scale(0.015625)"/>
       </defs>
       <use xlink:href="#SimHei-38"/>
       <use xlink:href="#SimHei-30" x="50"/>
       <use xlink:href="#SimHei-30" x="100"/>
      </g>
     </g>
    </g>
   </g>
   <g id="line2d_23">
    <path d="M 80.754545 156.841466 
L 81.430909 217.559659 
L 82.107273 179.307197 
L 82.783636 227.716157 
L 83.46 217.725254 
L 84.136364 180.604359 
L 84.812727 187.94574 
L 85.489091 188.497724 
L 86.165455 181.045946 
L 86.841818 214.85494 
L 87.518182 240.549775 
L 88.194545 224.211061 
L 88.870909 193.851965 
L 89.547273 257.937257 
L 90.9 234.781547 
L 91.576364 233.153195 
L 92.252727 244.938044 
L 92.929091 184.440645 
L 93.605455 200.310172 
L 94.281818 232.104426 
L 94.958182 164.293244 
L 96.310909 72.912363 
L 96.987273 74.292322 
L 97.663636 79.784559 
L 98.34 123.225666 
L 99.016364 258.87563 
L 99.692727 190.65046 
L 100.369091 152.149605 
L 101.045455 212.039823 
L 101.721818 256.640096 
L 102.398182 227.633359 
L 103.074545 181.266739 
L 103.750909 204.505248 
L 104.427273 98.22081 
L 105.103636 187.862943 
L 105.78 165.121219 
L 106.456364 214.937737 
L 107.132727 137.21845 
L 107.809091 111.634011 
L 108.485455 110.530044 
L 109.161818 155.433908 
L 109.838182 132.333395 
L 111.190909 108.6533 
L 111.867273 85.056002 
L 112.543636 88.505899 
L 113.22 76.859046 
L 113.896364 70.594032 
L 114.572727 89.361474 
L 115.249091 114.00754 
L 115.925455 82.930865 
L 116.601818 98.717595 
L 117.278182 77.135038 
L 117.954545 84.283225 
L 118.630909 79.06698 
L 119.307273 79.42577 
L 119.983636 72.056789 
L 120.66 150.410857 
L 121.336364 70.511235 
L 122.012727 110.309251 
L 122.689091 83.013663 
L 123.365455 111.910003 
L 124.041818 111.247623 
L 124.718182 108.818895 
L 125.394545 99.048786 
L 126.070909 124.798819 
L 126.747273 92.949367 
L 127.423636 74.927103 
L 128.1 103.823444 
L 128.776364 84.476419 
L 129.452727 80.75053 
L 130.129091 98.524401 
L 130.805455 160.815748 
L 131.481818 253.438591 
L 132.158182 236.741088 
L 132.834545 229.703298 
L 133.510909 233.291191 
L 134.187273 138.846801 
L 134.863636 219.381205 
L 136.216364 304.331477 
L 137.569091 304.138283 
L 138.921818 304.138283 
L 139.598182 259.234419 
L 140.274545 239.418209 
L 140.950909 188.111335 
L 142.303636 265.720226 
L 142.98 170.779051 
L 143.656364 136.335276 
L 144.332727 153.971151 
L 145.009091 154.247143 
L 145.685455 130.373853 
L 146.361818 233.208393 
L 147.038182 277.698269 
L 147.714545 293.457401 
L 148.390909 286.198817 
L 149.067273 280.844576 
L 149.743636 291.525458 
L 150.42 304.165882 
L 151.096364 304.165882 
L 151.772727 245.848817 
L 152.449091 251.230657 
L 153.125455 201.082949 
L 153.801818 92.50778 
L 154.478182 84.724812 
L 155.154545 69.434867 
L 155.830909 73.381549 
L 156.507273 212.067422 
L 157.183636 304.386675 
L 157.86 209.086711 
L 158.536364 83.952035 
L 159.212727 76.141467 
L 159.889091 73.657541 
L 160.565455 70.538834 
L 161.241818 71.504805 
L 161.918182 122.038902 
L 162.594545 79.784559 
L 163.270909 74.071529 
L 163.947273 166.418381 
L 164.623636 209.721492 
L 165.3 218.277238 
L 165.976364 231.442046 
L 166.652727 242.122928 
L 167.329091 250.181888 
L 168.005455 248.415541 
L 168.681818 240.632572 
L 169.358182 216.980076 
L 170.034545 250.181888 
L 170.710909 221.478742 
L 171.387273 241.350151 
L 172.063636 238.36944 
L 172.74 183.888661 
L 174.092727 240.356581 
L 174.769091 233.953571 
L 175.445455 162.057711 
L 176.121818 168.902307 
L 176.798182 163.161678 
L 177.474545 162.885686 
L 178.150909 101.477513 
L 178.827273 111.247623 
L 179.503636 187.090166 
L 180.18 200.696561 
L 180.856364 196.0047 
L 181.532727 205.360822 
L 182.209091 231.221253 
L 182.885455 211.15665 
L 183.561818 186.234591 
L 184.238182 237.624262 
L 184.914545 219.629597 
L 185.590909 198.626622 
L 186.267273 233.539584 
L 186.943636 253.1626 
L 187.62 185.185822 
L 188.296364 270.439685 
L 188.972727 237.210274 
L 189.649091 264.781854 
L 190.325455 278.995431 
L 191.678182 230.034488 
L 192.354545 182.453504 
L 193.030909 196.335891 
L 193.707273 270.439685 
L 194.383636 189.96048 
L 195.06 184.164653 
L 195.736364 267.320978 
L 196.412727 293.926587 
L 197.089091 287.192387 
L 197.765455 276.483906 
L 198.441818 281.672551 
L 199.794545 304.193481 
L 201.823636 304.22108 
L 202.5 293.071012 
L 203.176364 288.130759 
L 203.852727 249.767901 
L 204.529091 284.40487 
L 205.205455 286.612804 
L 205.881818 277.808666 
L 206.558182 296.355314 
L 207.234545 283.880485 
L 207.910909 273.944781 
L 208.587273 180.135173 
L 209.263636 164.790029 
L 209.94 228.709727 
L 210.616364 101.808704 
L 211.292727 227.495363 
L 211.969091 270.881272 
L 212.645455 271.819644 
L 213.321818 291.139069 
L 213.998182 278.829836 
L 214.674545 261.939138 
L 215.350909 270.660479 
L 216.027273 303.972688 
L 216.703636 304.165882 
L 217.38 288.489548 
L 218.056364 259.648407 
L 218.732727 289.979904 
L 219.409091 291.44266 
L 220.085455 241.570945 
L 220.761818 253.797381 
L 221.438182 218.139242 
L 222.114545 118.809798 
L 222.790909 85.359593 
L 223.467273 73.795537 
L 224.143636 221.506342 
L 224.82 285.591635 
L 225.496364 218.553229 
L 226.172727 169.785481 
L 226.849091 102.084695 
L 227.525455 118.782198 
L 228.201818 272.730417 
L 228.878182 304.331477 
L 229.554545 304.331477 
L 230.230909 273.006409 
L 230.907273 235.830315 
L 231.583636 235.443927 
L 232.26 210.328674 
L 232.936364 223.631478 
L 233.612727 153.225973 
L 234.289091 223.300288 
L 234.965455 241.543345 
L 235.641818 242.564515 
L 236.994545 248.608735 
L 237.670909 181.404735 
L 238.347273 207.734351 
L 239.023636 187.338558 
L 239.7 128.717903 
L 240.376364 124.660823 
L 241.052727 75.120298 
L 241.729091 86.242767 
L 242.405455 124.605625 
L 243.081818 304.165882 
L 246.463636 304.165882 
L 247.14 69.490065 
L 247.816364 71.394409 
L 248.492727 74.733909 
L 249.169091 69.683259 
L 249.845455 73.68514 
L 250.521818 69.434867 
L 251.874545 78.984183 
L 252.550909 78.873786 
L 253.227273 71.973991 
L 253.903636 98.883191 
L 254.58 98.441604 
L 255.256364 158.111028 
L 255.932727 125.4336 
L 256.609091 121.514517 
L 257.285455 77.659422 
L 257.961818 143.566261 
L 258.638182 232.352819 
L 259.314545 253.990575 
L 259.990909 270.853673 
L 260.667273 278.829836 
L 261.343636 255.756922 
L 262.02 246.042011 
L 262.696364 271.985239 
L 263.372727 265.858222 
L 264.049091 243.226895 
L 264.725455 265.389036 
L 265.401818 275.269542 
L 266.078182 266.437805 
L 266.754545 242.840507 
L 268.107273 295.223748 
L 268.783636 298.756443 
L 269.46 304.22108 
L 270.136364 290.752681 
L 270.812727 298.535649 
L 271.489091 304.22108 
L 272.165455 234.312361 
L 272.841818 243.861676 
L 273.518182 242.509317 
L 274.870909 121.873306 
L 275.547273 239.970192 
L 276.223636 201.414139 
L 276.9 272.620021 
L 277.576364 276.152715 
L 278.252727 276.594302 
L 278.929091 210.025083 
L 279.605455 251.451451 
L 280.281818 244.054871 
L 280.958182 258.930828 
L 281.634545 210.521868 
L 282.310909 268.700937 
L 282.987273 243.364891 
L 283.663636 172.766192 
L 284.34 249.353913 
L 285.016364 188.27693 
L 285.692727 219.298407 
L 286.369091 231.938831 
L 287.045455 208.893517 
L 287.721818 273.365198 
L 288.398182 216.814481 
L 289.750909 177.761643 
L 290.427273 181.459933 
L 291.103636 239.280213 
L 291.78 212.978195 
L 292.456364 249.933496 
L 293.132727 233.456786 
L 293.809091 290.200697 
L 295.161818 285.591635 
L 295.838182 289.483119 
L 296.514545 304.193481 
L 298.543636 304.138283 
L 308.012727 304.165882 
L 308.689091 296.189719 
L 309.365455 304.138283 
L 310.041818 291.829049 
L 310.718182 301.074774 
L 311.394545 304.138283 
L 316.129091 304.22108 
L 316.805455 300.246798 
L 317.481818 304.165882 
L 324.921818 304.193481 
L 325.598182 303.061915 
L 326.274545 304.165882 
L 326.950909 291.221867 
L 327.627273 287.468379 
L 328.303636 287.330383 
L 328.98 292.601826 
L 329.656364 283.300903 
L 330.332727 304.165882 
L 331.009091 304.193481 
L 331.685455 292.491429 
L 332.361818 296.16212 
L 333.038182 304.22108 
L 334.390909 304.165882 
L 335.067273 304.165882 
L 335.743636 304.331477 
L 336.42 304.165882 
L 337.772727 304.165882 
L 339.125455 258.820431 
L 339.801818 194.127956 
L 340.478182 214.965336 
L 341.154545 117.540235 
L 341.830909 220.457573 
L 342.507273 259.013625 
L 343.183636 290.007503 
L 343.86 282.196936 
L 344.536364 270.660479 
L 345.212727 290.504288 
L 345.889091 283.273304 
L 346.565455 280.430588 
L 347.241818 286.447209 
L 347.918182 285.343242 
L 348.594545 288.268755 
L 349.270909 271.378058 
L 349.947273 280.872175 
L 350.623636 258.102853 
L 351.3 272.206033 
L 351.976364 241.405349 
L 352.652727 156.123887 
L 353.329091 166.721972 
L 354.005455 153.750358 
L 354.681818 112.599982 
L 355.358182 96.040475 
L 356.034545 130.429052 
L 356.710909 95.267698 
L 357.387273 95.736884 
L 358.063636 144.311439 
L 358.74 92.121392 
L 359.416364 114.780317 
L 360.092727 156.924263 
L 360.769091 116.822657 
L 361.445455 158.690611 
L 362.121818 104.679018 
L 362.798182 159.987772 
L 363.474545 145.636199 
L 364.150909 138.018826 
L 364.827273 228.62693 
L 365.503636 162.306103 
L 366.18 179.748784 
L 366.856364 171.082642 
L 367.532727 227.578161 
L 368.209091 261.331956 
L 368.885455 249.602306 
L 369.561818 179.969578 
L 370.238182 134.210139 
L 370.914545 212.039823 
L 371.590909 200.337772 
L 372.267273 238.507436 
L 372.943636 132.112602 
L 373.62 92.314586 
L 374.296364 206.906376 
L 374.972727 171.607026 
L 375.649091 188.497724 
L 376.325455 156.455077 
L 377.001818 89.278676 
L 377.678182 75.285893 
L 378.354545 166.639174 
L 379.030909 174.50494 
L 379.707273 228.875322 
L 380.383636 222.58271 
L 381.06 151.846015 
L 381.736364 266.741396 
L 382.412727 208.286335 
L 383.089091 205.498818 
L 383.765455 220.56797 
L 384.441818 265.858222 
L 385.118182 227.384967 
L 385.794545 251.561847 
L 386.470909 221.147552 
L 387.147273 253.880178 
L 387.823636 223.521082 
L 388.5 274.99355 
L 389.176364 257.219679 
L 389.852727 161.146938 
L 390.529091 188.056137 
L 391.205455 186.786575 
L 391.881818 137.577239 
L 392.558182 155.958292 
L 393.234545 133.050974 
L 393.910909 92.17659 
L 394.587273 156.648272 
L 395.263636 190.705658 
L 395.94 179.500392 
L 396.616364 146.62977 
L 397.292727 170.47546 
L 397.969091 87.070742 
L 398.645455 101.035926 
L 399.321818 186.427785 
L 399.998182 114.173136 
L 400.674545 141.496322 
L 401.350909 148.534113 
L 402.027273 116.132677 
L 402.703636 76.859046 
L 403.38 70.235243 
L 404.056364 70.704429 
L 404.732727 85.497589 
L 405.409091 114.669921 
L 406.085455 164.790029 
L 406.761818 234.284761 
L 407.438182 146.436575 
L 408.114545 243.530486 
L 408.790909 240.908564 
L 409.467273 238.811027 
L 410.143636 304.359076 
L 410.82 268.314549 
L 411.496364 249.933496 
L 412.172727 288.572346 
L 412.849091 286.116019 
L 413.525455 250.816669 
L 414.201818 239.004221 
L 415.554545 136.832061 
L 416.230909 119.278984 
L 416.907273 90.437842 
L 417.583636 146.105385 
L 418.26 101.643108 
L 418.936364 91.238218 
L 419.612727 120.74174 
L 420.289091 158.607813 
L 420.965455 241.405349 
L 421.641818 276.704699 
L 422.318182 304.276279 
L 422.994545 259.096423 
L 423.670909 226.58459 
L 425.023636 262.518721 
L 425.7 264.395465 
L 426.376364 241.460548 
L 427.052727 195.369919 
L 427.729091 161.312533 
L 428.405455 166.915166 
L 429.081818 240.604973 
L 429.758182 156.869065 
L 430.434545 171.717423 
L 431.110909 131.643416 
L 431.787273 124.302034 
L 432.463636 184.744236 
L 433.14 177.375255 
L 433.816364 77.41103 
L 435.169091 70.01445 
L 435.845455 72.746768 
L 435.845455 72.746768 
" clip-path="url(#p19b23a72b4)" style="fill: none; stroke: #1f77b4; stroke-width: 1.5; stroke-linecap: square"/>
   </g>
   <g id="line2d_24">
    <path d="M 80.754545 147.949504 
L 81.430909 219.123472 
L 82.107273 178.983175 
L 82.783636 221.519373 
L 83.46 221.127133 
L 84.136364 178.697084 
L 84.812727 192.485438 
L 85.489091 176.728512 
L 86.165455 182.381635 
L 86.841818 212.661686 
L 87.518182 237.30465 
L 88.194545 222.58906 
L 88.870909 194.6095 
L 89.547273 255.328127 
L 90.223636 243.74545 
L 91.576364 229.995281 
L 92.252727 248.313722 
L 92.929091 191.523206 
L 93.605455 196.950579 
L 94.281818 237.247359 
L 94.958182 166.519065 
L 95.634545 123.866693 
L 96.310909 69.52574 
L 96.987273 69.074828 
L 97.663636 85.29989 
L 98.34 110.764917 
L 99.016364 261.468675 
L 99.692727 190.530468 
L 100.369091 161.301449 
L 101.721818 255.859315 
L 102.398182 223.912285 
L 103.074545 179.10174 
L 103.750909 199.954061 
L 104.427273 98.463977 
L 105.103636 185.162736 
L 105.78 160.158097 
L 106.456364 217.450768 
L 107.132727 131.738591 
L 107.809091 102.239459 
L 108.485455 117.816655 
L 109.161818 160.272577 
L 109.838182 123.448478 
L 110.514545 120.333766 
L 111.190909 100.990269 
L 111.867273 89.619067 
L 112.543636 90.869605 
L 113.22 74.576572 
L 113.896364 69.691278 
L 114.572727 89.49347 
L 115.249091 118.587879 
L 115.925455 75.788146 
L 116.601818 88.695664 
L 117.278182 72.924276 
L 117.954545 83.859322 
L 118.630909 80.939998 
L 119.307273 75.77974 
L 119.983636 75.049602 
L 120.66 137.070064 
L 121.336364 67.127017 
L 122.012727 93.760056 
L 122.689091 93.69975 
L 123.365455 102.13165 
L 124.041818 116.482414 
L 124.718182 99.384079 
L 125.394545 94.964572 
L 126.070909 107.196783 
L 126.747273 91.651138 
L 127.423636 71.223197 
L 128.1 98.943409 
L 128.776364 84.866514 
L 129.452727 80.491124 
L 130.129091 93.928474 
L 131.481818 253.263945 
L 132.158182 227.882075 
L 132.834545 228.484477 
L 133.510909 237.49447 
L 134.187273 135.646341 
L 134.863636 222.116695 
L 136.216364 304.911473 
L 136.892727 302.401467 
L 137.569091 307.8 
L 138.245455 304.835775 
L 138.921818 303.630484 
L 139.598182 262.307389 
L 140.274545 245.645181 
L 140.950909 183.294847 
L 141.627273 228.491063 
L 142.303636 265.944693 
L 142.98 176.285357 
L 143.656364 124.635778 
L 144.332727 157.102041 
L 145.009091 147.374072 
L 145.685455 130.127735 
L 146.361818 234.277411 
L 147.038182 279.523488 
L 147.714545 293.628418 
L 148.390909 283.761686 
L 149.067273 281.581526 
L 149.743636 291.056648 
L 150.42 305.282177 
L 151.096364 304.046999 
L 151.772727 246.341039 
L 152.449091 249.049874 
L 153.125455 207.041006 
L 153.801818 91.880873 
L 154.478182 85.581828 
L 155.154545 62.000685 
L 155.830909 73.055804 
L 156.507273 202.358596 
L 157.183636 306.805228 
L 157.86 207.996719 
L 158.536364 86.272717 
L 159.889091 70.539383 
L 160.565455 71.870356 
L 161.241818 69.198269 
L 161.918182 114.177451 
L 162.594545 80.293648 
L 163.270909 68.639413 
L 163.947273 173.889211 
L 164.623636 199.393335 
L 165.976364 226.585441 
L 166.652727 242.005939 
L 167.329091 247.371304 
L 168.005455 241.561188 
L 168.681818 236.809489 
L 169.358182 214.941718 
L 170.034545 249.338727 
L 170.710909 228.71849 
L 171.387273 244.141228 
L 172.063636 239.228814 
L 172.74 188.779915 
L 173.416364 211.285121 
L 174.092727 239.288349 
L 174.769091 232.566675 
L 175.445455 154.487194 
L 176.121818 159.225345 
L 176.798182 169.00844 
L 177.474545 155.63762 
L 178.150909 101.635878 
L 178.827273 112.496957 
L 179.503636 187.470529 
L 180.18 200.036872 
L 180.856364 196.651526 
L 181.532727 207.382172 
L 182.209091 233.120714 
L 182.885455 204.210625 
L 183.561818 185.964222 
L 184.238182 235.376767 
L 184.914545 220.57258 
L 185.590909 195.557245 
L 186.267273 232.544937 
L 186.943636 251.69962 
L 187.62 186.500944 
L 188.296364 268.304698 
L 188.972727 241.30058 
L 189.649091 266.528582 
L 190.325455 279.677325 
L 191.678182 232.312574 
L 192.354545 173.898173 
L 193.030909 195.60212 
L 193.707273 270.712439 
L 194.383636 192.471263 
L 195.06 175.846986 
L 195.736364 271.793076 
L 196.412727 296.152103 
L 197.089091 287.49519 
L 197.765455 275.997472 
L 198.441818 282.855916 
L 199.118182 293.49324 
L 199.794545 302.313442 
L 200.470909 303.605747 
L 201.147273 302.450987 
L 201.823636 303.769743 
L 202.5 292.899337 
L 203.176364 287.374633 
L 203.852727 250.579587 
L 204.529091 284.953291 
L 205.205455 287.199312 
L 205.881818 278.550017 
L 206.558182 296.300366 
L 207.910909 271.981891 
L 208.587273 178.457428 
L 209.263636 157.031628 
L 209.94 224.464058 
L 210.616364 94.238274 
L 211.292727 227.810382 
L 211.969091 269.742958 
L 212.645455 274.194738 
L 213.321818 291.664436 
L 214.674545 261.299271 
L 215.350909 271.517335 
L 216.027273 303.160246 
L 216.703636 301.074616 
L 217.38 288.36129 
L 218.056364 258.269994 
L 218.732727 289.300022 
L 219.409091 290.534557 
L 220.085455 240.680946 
L 220.761818 255.028207 
L 221.438182 211.412589 
L 222.114545 113.939917 
L 222.790909 86.809102 
L 223.467273 75.192213 
L 224.143636 211.920455 
L 224.82 285.55314 
L 225.496364 211.740666 
L 226.172727 160.013936 
L 226.849091 96.555382 
L 227.525455 117.368674 
L 228.201818 272.915636 
L 228.878182 304.828418 
L 229.554545 303.313116 
L 230.230909 278.131426 
L 230.907273 228.904882 
L 231.583636 233.726687 
L 232.26 207.888472 
L 232.936364 218.318532 
L 233.612727 151.796712 
L 234.289091 222.318215 
L 234.965455 241.579208 
L 235.641818 239.051653 
L 236.318182 241.274811 
L 236.994545 247.591964 
L 237.670909 180.863445 
L 238.347273 204.318299 
L 239.023636 189.131744 
L 239.7 124.476187 
L 240.376364 118.681858 
L 241.052727 76.046315 
L 241.729091 82.507107 
L 242.405455 63.47651 
L 243.081818 144.379854 
L 243.758182 206.834636 
L 244.434545 304.157015 
L 245.110909 303.989161 
L 245.787273 268.051817 
L 246.463636 256.478646 
L 247.14 228.431734 
L 247.816364 55.8 
L 248.492727 75.954374 
L 249.169091 68.419903 
L 249.845455 70.650932 
L 250.521818 57.266459 
L 251.198182 64.823756 
L 251.874545 77.760955 
L 252.550909 69.435686 
L 253.227273 69.583738 
L 253.903636 91.884831 
L 254.58 106.444695 
L 255.256364 143.737563 
L 255.932727 119.815524 
L 256.609091 112.48375 
L 257.285455 75.520829 
L 257.961818 139.026364 
L 258.638182 233.040211 
L 259.314545 246.936521 
L 259.990909 266.636964 
L 260.667273 274.61029 
L 261.343636 254.257736 
L 262.02 243.247009 
L 262.696364 273.254738 
L 263.372727 264.588655 
L 264.049091 244.906186 
L 264.725455 265.648491 
L 265.401818 274.763586 
L 266.078182 266.961057 
L 266.754545 246.831508 
L 267.430909 266.45787 
L 268.107273 295.139235 
L 268.783636 297.021909 
L 269.46 305.099373 
L 270.136364 290.911009 
L 270.812727 298.532604 
L 271.489091 299.351255 
L 272.165455 247.945856 
L 272.841818 240.311611 
L 273.518182 243.649879 
L 274.870909 124.439565 
L 275.547273 236.541899 
L 276.223636 204.579518 
L 276.9 270.176103 
L 277.576364 275.151146 
L 278.252727 274.799049 
L 278.929091 212.920841 
L 279.605455 250.392997 
L 280.281818 244.94063 
L 280.958182 256.743638 
L 281.634545 211.424498 
L 282.310909 266.867975 
L 282.987273 235.958347 
L 283.663636 172.423502 
L 284.34 248.787998 
L 285.016364 187.306381 
L 285.692727 222.40175 
L 286.369091 230.563629 
L 287.045455 208.896825 
L 287.721818 272.932957 
L 288.398182 211.516027 
L 289.750909 170.42903 
L 290.427273 181.005837 
L 291.103636 239.346932 
L 291.78 212.776781 
L 292.456364 250.446375 
L 293.132727 229.496562 
L 293.809091 292.040278 
L 294.485455 289.238693 
L 295.161818 287.449522 
L 295.838182 289.393871 
L 296.514545 304.019035 
L 297.190909 305.376616 
L 297.867273 305.057732 
L 298.543636 304.234949 
L 299.22 305.833032 
L 299.896364 304.827138 
L 300.572727 305.123087 
L 301.249091 304.990225 
L 301.925455 305.022934 
L 302.601818 302.943752 
L 303.278182 305.017299 
L 303.954545 301.164911 
L 304.630909 304.97559 
L 305.307273 305.405909 
L 305.983636 306.029266 
L 306.66 303.443313 
L 307.336364 302.870635 
L 308.012727 307.280052 
L 308.689091 298.361233 
L 309.365455 305.416556 
L 310.041818 291.380283 
L 310.718182 301.417429 
L 311.394545 307.085667 
L 312.070909 306.286252 
L 313.423636 301.964317 
L 314.1 302.356873 
L 314.776364 302.1915 
L 315.452727 301.370587 
L 316.129091 301.570998 
L 316.805455 299.536603 
L 317.481818 306.558462 
L 318.158182 305.548108 
L 318.834545 305.914474 
L 319.510909 306.035785 
L 320.187273 305.355715 
L 320.863636 303.583974 
L 321.54 305.131126 
L 322.216364 301.805007 
L 322.892727 303.968525 
L 323.569091 304.105797 
L 324.245455 305.242595 
L 324.921818 302.253755 
L 326.274545 302.96285 
L 326.950909 291.693603 
L 327.627273 287.295081 
L 328.303636 285.463031 
L 328.98 291.942757 
L 329.656364 283.452442 
L 330.332727 305.420169 
L 331.009091 303.013592 
L 331.685455 293.363409 
L 332.361818 296.105421 
L 333.038182 303.832054 
L 333.714545 305.489445 
L 334.390909 304.271869 
L 335.067273 304.030334 
L 335.743636 301.551458 
L 336.42 301.452698 
L 337.096364 304.550961 
L 337.772727 302.647727 
L 338.449091 278.619116 
L 339.125455 260.10316 
L 339.801818 182.221437 
L 340.478182 225.760186 
L 341.154545 115.072925 
L 341.830909 221.244165 
L 343.183636 291.12341 
L 343.86 281.383822 
L 344.536364 267.086276 
L 345.212727 290.041312 
L 345.889091 282.877932 
L 346.565455 281.505945 
L 347.241818 285.71925 
L 347.918182 284.569422 
L 348.594545 287.710471 
L 349.270909 271.117042 
L 349.947273 281.143104 
L 350.623636 257.074696 
L 351.3 271.7421 
L 351.976364 242.215375 
L 352.652727 152.908293 
L 353.329091 162.669616 
L 354.005455 154.330668 
L 354.681818 109.311075 
L 355.358182 94.121167 
L 356.034545 124.964933 
L 356.710909 99.818652 
L 357.387273 92.994138 
L 358.063636 146.092084 
L 358.74 90.544223 
L 359.416364 104.823715 
L 360.092727 159.89383 
L 360.769091 109.713085 
L 361.445455 155.073272 
L 362.121818 105.420928 
L 362.798182 154.817326 
L 363.474545 136.91246 
L 364.150909 133.541129 
L 364.827273 226.716968 
L 365.503636 155.904516 
L 366.18 173.810266 
L 366.856364 162.226789 
L 367.532727 225.26396 
L 368.209091 258.319174 
L 368.885455 247.677904 
L 369.561818 163.830865 
L 370.238182 129.574286 
L 370.914545 207.553437 
L 371.590909 206.327848 
L 372.267273 239.578137 
L 372.943636 132.205439 
L 373.62 95.423014 
L 374.296364 204.221566 
L 374.972727 169.75299 
L 375.649091 188.875242 
L 376.325455 156.098202 
L 377.001818 89.853283 
L 377.678182 77.407037 
L 378.354545 169.355611 
L 379.030909 179.70778 
L 379.707273 222.525251 
L 380.383636 216.841957 
L 381.06 149.156328 
L 381.736364 266.172348 
L 382.412727 208.112782 
L 383.089091 204.868447 
L 383.765455 211.259458 
L 384.441818 262.914616 
L 385.118182 222.686577 
L 385.794545 250.848011 
L 386.470909 219.539902 
L 387.147273 255.217909 
L 387.823636 220.881597 
L 388.5 277.429714 
L 389.176364 254.83476 
L 389.852727 160.252565 
L 390.529091 187.378158 
L 391.205455 177.173621 
L 391.881818 134.185828 
L 392.558182 148.423662 
L 393.234545 127.808488 
L 393.910909 89.01424 
L 394.587273 145.062101 
L 395.263636 182.454322 
L 395.94 170.552556 
L 396.616364 143.424394 
L 397.292727 164.257529 
L 397.969091 81.58207 
L 398.645455 97.470043 
L 399.321818 184.476993 
L 399.998182 103.549763 
L 400.674545 128.690165 
L 401.350909 143.7473 
L 402.027273 112.108861 
L 402.703636 71.315863 
L 403.38 65.311289 
L 404.056364 70.491728 
L 404.732727 88.903399 
L 405.409091 102.098903 
L 406.761818 236.68059 
L 407.438182 147.810531 
L 408.114545 242.151444 
L 408.790909 236.430889 
L 409.467273 239.080146 
L 410.143636 304.251727 
L 410.82 271.78886 
L 411.496364 244.909429 
L 412.172727 288.324108 
L 412.849091 286.267974 
L 413.525455 244.311108 
L 414.201818 240.597276 
L 414.878182 178.666266 
L 415.554545 135.368564 
L 416.230909 119.807606 
L 416.907273 83.431387 
L 417.583636 143.235037 
L 418.26 93.943871 
L 418.936364 85.336882 
L 419.612727 115.558337 
L 420.289091 158.730332 
L 420.965455 242.898284 
L 422.318182 307.114055 
L 423.670909 223.346589 
L 425.023636 263.168899 
L 425.7 264.135249 
L 426.376364 236.188503 
L 427.729091 162.137746 
L 428.405455 168.538459 
L 429.081818 242.101026 
L 429.758182 159.37867 
L 430.434545 167.663081 
L 431.110909 128.256924 
L 431.787273 118.001902 
L 432.463636 187.441833 
L 433.14 176.379252 
L 433.816364 72.262125 
L 434.492727 72.444744 
L 435.169091 60.380446 
L 435.845455 71.041084 
L 435.845455 71.041084 
" clip-path="url(#p19b23a72b4)" style="fill: none; stroke-dasharray: 5.55,2.4; stroke-dashoffset: 0; stroke: #ff7f0e; stroke-width: 1.5"/>
   </g>
   <g id="patch_3">
    <path d="M 63 320.4 
L 63 43.2 
" style="fill: none; stroke: #000000; stroke-width: 0.8; stroke-linejoin: miter; stroke-linecap: square"/>
   </g>
   <g id="patch_4">
    <path d="M 453.6 320.4 
L 453.6 43.2 
" style="fill: none; stroke: #000000; stroke-width: 0.8; stroke-linejoin: miter; stroke-linecap: square"/>
   </g>
   <g id="patch_5">
    <path d="M 63 320.4 
L 453.6 320.4 
" style="fill: none; stroke: #000000; stroke-width: 0.8; stroke-linejoin: miter; stroke-linecap: square"/>
   </g>
   <g id="patch_6">
    <path d="M 63 43.2 
L 453.6 43.2 
" style="fill: none; stroke: #000000; stroke-width: 0.8; stroke-linejoin: miter; stroke-linecap: square"/>
   </g>
   <g id="text_12">
    <!-- LSTMModel 测试集预测 -->
    <g transform="translate(198.3 37.2)scale(0.12 -0.12)">
     <defs>
      <path id="SimHei-4c" d="M 2900 125 
L 300 125 
L 300 4400 
L 875 4400 
L 875 600 
L 2900 600 
L 2900 125 
z
" transform="scale(0.015625)"/>
      <path id="SimHei-53" d="M 2900 1325 
Q 2900 750 2537 412 
Q 2175 75 1550 75 
Q 925 75 575 425 
Q 225 775 225 1300 
L 225 1475 
L 800 1475 
L 800 1325 
Q 800 950 1025 750 
Q 1250 550 1550 550 
Q 1950 550 2137 762 
Q 2325 975 2325 1275 
Q 2325 1525 2100 1737 
Q 1875 1950 1450 2125 
Q 850 2350 587 2625 
Q 325 2900 325 3275 
Q 325 3800 687 4125 
Q 1050 4450 1550 4450 
Q 2200 4450 2487 4062 
Q 2775 3675 2775 3225 
L 2200 3225 
Q 2225 3500 2050 3725 
Q 1875 3950 1550 3950 
Q 1250 3950 1075 3787 
Q 900 3625 900 3350 
Q 900 3125 1037 2962 
Q 1175 2800 1750 2575 
Q 2300 2350 2600 2037 
Q 2900 1725 2900 1325 
z
" transform="scale(0.015625)"/>
      <path id="SimHei-54" d="M 2850 3925 
L 1850 3925 
L 1850 125 
L 1275 125 
L 1275 3925 
L 275 3925 
L 275 4400 
L 2850 4400 
L 2850 3925 
z
" transform="scale(0.015625)"/>
      <path id="SimHei-4d" d="M 2925 125 
L 2425 125 
L 2425 3175 
L 2375 3175 
L 1775 125 
L 1375 125 
L 775 3175 
L 725 3175 
L 725 125 
L 225 125 
L 225 4400 
L 1000 4400 
L 1550 1575 
L 1600 1575 
L 2150 4400 
L 2925 4400 
L 2925 125 
z
" transform="scale(0.015625)"/>
      <path id="SimHei-6f" d="M 2925 1525 
Q 2925 875 2525 475 
Q 2125 75 1575 75 
Q 1025 75 625 475 
Q 225 875 225 1525 
Q 225 2175 625 2575 
Q 1025 2975 1575 2975 
Q 2125 2975 2525 2575 
Q 2925 2175 2925 1525 
z
M 2375 1525 
Q 2375 2025 2125 2275 
Q 1875 2525 1575 2525 
Q 1275 2525 1025 2275 
Q 775 2025 775 1525 
Q 775 1025 1025 775 
Q 1275 525 1575 525 
Q 1875 525 2125 775 
Q 2375 1025 2375 1525 
z
" transform="scale(0.015625)"/>
      <path id="SimHei-64" d="M 2750 125 
L 2250 125 
L 2250 500 
Q 2100 275 1900 175 
Q 1700 75 1425 75 
Q 925 75 575 437 
Q 225 800 225 1525 
Q 225 2250 575 2625 
Q 925 3000 1425 3000 
Q 1700 3000 1900 2887 
Q 2100 2775 2250 2550 
L 2250 4400 
L 2750 4400 
L 2750 125 
z
M 2250 1525 
Q 2250 2000 2037 2275 
Q 1825 2550 1525 2550 
Q 1150 2550 962 2275 
Q 775 2000 775 1525 
Q 775 1050 962 787 
Q 1150 525 1525 525 
Q 1825 525 2037 787 
Q 2250 1050 2250 1525 
z
" transform="scale(0.015625)"/>
      <path id="SimHei-65" d="M 2850 1075 
Q 2800 625 2450 350 
Q 2100 75 1625 75 
Q 1025 75 637 462 
Q 250 850 250 1525 
Q 250 2200 637 2587 
Q 1025 2975 1625 2975 
Q 2150 2975 2487 2637 
Q 2825 2300 2825 1525 
L 800 1525 
Q 800 975 1037 750 
Q 1275 525 1625 525 
Q 1900 525 2075 662 
Q 2250 800 2300 1075 
L 2850 1075 
z
M 2250 1925 
Q 2200 2275 2025 2412 
Q 1850 2550 1575 2550 
Q 1325 2550 1125 2412 
Q 925 2275 825 1925 
L 2250 1925 
z
" transform="scale(0.015625)"/>
      <path id="SimHei-6c" d="M 1825 125 
L 1325 125 
L 1325 4400 
L 1825 4400 
L 1825 125 
z
" transform="scale(0.015625)"/>
      <path id="SimHei-20" transform="scale(0.015625)"/>
      <path id="SimHei-6d4b" d="M 4025 4725 
Q 4000 4475 4000 4000 
L 4000 2225 
Q 4000 1775 4025 1350 
L 3550 1350 
L 3550 4325 
L 2350 4325 
L 2350 1325 
L 1900 1325 
Q 1925 1775 1925 2225 
L 1925 4000 
Q 1925 4200 1900 4725 
L 4025 4725 
z
M 5900 5075 
Q 5875 4800 5875 4375 
L 5875 0 
Q 5875 -325 5650 -425 
Q 5425 -525 4975 -600 
Q 4925 -325 4775 -50 
Q 5125 -50 5262 -25 
Q 5400 0 5400 250 
L 5400 4375 
Q 5400 4775 5375 5075 
L 5900 5075 
z
M 3275 3725 
Q 3225 3400 3200 2325 
Q 3175 1250 2837 550 
Q 2500 -150 2075 -600 
Q 1850 -400 1600 -325 
Q 2200 250 2475 962 
Q 2750 1675 2762 2475 
Q 2775 3275 2725 3800 
Q 3000 3750 3275 3725 
z
M 4950 4275 
Q 4925 4000 4925 3575 
L 4925 1825 
Q 4925 1300 4950 850 
L 4450 850 
Q 4475 1150 4475 1825 
L 4475 3575 
Q 4475 4000 4450 4275 
L 4950 4275 
z
M 1700 1675 
Q 1375 1075 1112 487 
Q 850 -100 725 -400 
Q 500 -200 200 -25 
Q 475 300 762 850 
Q 1050 1400 1250 2000 
Q 1475 1825 1700 1675 
z
M 3400 1050 
Q 3800 650 4300 -125 
Q 4100 -225 3875 -450 
Q 3475 275 3025 750 
Q 3225 875 3400 1050 
z
M 600 3525 
Q 1125 3125 1500 2775 
Q 1300 2575 1150 2375 
Q 825 2775 300 3150 
Q 450 3300 600 3525 
z
M 1350 4000 
Q 950 4375 475 4675 
Q 625 4850 775 5050 
Q 1300 4700 1675 4375 
Q 1500 4250 1350 4000 
z
" transform="scale(0.015625)"/>
      <path id="SimHei-8bd5" d="M 3950 3825 
Q 3925 4325 3925 4550 
Q 3925 4800 3900 5225 
Q 4200 5150 4450 5125 
Q 4425 4825 4425 4600 
L 4425 3825 
L 5150 3825 
Q 5500 3825 5875 3850 
L 5875 3400 
Q 5525 3425 5125 3425 
L 4450 3425 
Q 4500 2750 4587 2212 
Q 4675 1675 4837 1112 
Q 5000 550 5212 225 
Q 5425 -100 5500 200 
Q 5575 500 5600 900 
Q 5800 625 6100 525 
Q 5975 -275 5750 -487 
Q 5525 -700 5250 -537 
Q 4975 -375 4737 62 
Q 4500 500 4337 1075 
Q 4175 1650 4100 2262 
Q 4025 2875 3975 3425 
L 2800 3425 
Q 2300 3425 1875 3400 
L 1875 3850 
Q 2275 3825 2775 3825 
L 3950 3825 
z
M 1500 3175 
Q 1475 2675 1475 2175 
L 1475 625 
Q 1825 950 2125 1225 
Q 2225 1000 2375 800 
Q 1900 425 1125 -350 
Q 1000 -125 825 50 
Q 1025 175 1025 525 
L 1025 2725 
Q 625 2725 300 2700 
L 300 3200 
Q 625 3175 825 3175 
L 1500 3175 
z
M 3775 2175 
Q 3500 2200 3250 2200 
L 3250 575 
Q 3575 675 3900 800 
Q 3900 525 3950 325 
Q 3575 250 3150 125 
Q 2725 0 2275 -175 
Q 2200 100 2025 300 
Q 2425 350 2800 475 
L 2800 2200 
Q 2525 2200 2225 2175 
L 2225 2650 
Q 2600 2625 3000 2625 
Q 3425 2625 3775 2650 
L 3775 2175 
z
M 925 4975 
Q 1275 4650 1700 4100 
Q 1525 3925 1325 3775 
Q 1175 4050 575 4650 
Q 775 4825 925 4975 
z
M 5150 5150 
Q 5325 5000 5850 4375 
Q 5575 4200 5425 4050 
Q 5125 4525 4775 4875 
Q 4925 4975 5150 5150 
z
" transform="scale(0.015625)"/>
      <path id="SimHei-96c6" d="M 2275 4925 
Q 2125 4800 2025 4662 
Q 1925 4525 1850 4350 
L 4925 4350 
Q 5300 4350 5750 4375 
L 5750 3975 
L 3650 3975 
L 3650 3575 
L 4625 3575 
Q 4925 3575 5325 3600 
L 5325 3175 
Q 4925 3200 4625 3200 
L 3650 3200 
L 3650 2800 
L 4675 2800 
Q 5000 2800 5425 2825 
L 5425 2400 
Q 5000 2425 4675 2425 
L 3650 2425 
L 3650 2075 
L 4875 2075 
Q 5275 2075 5675 2100 
L 5675 1675 
Q 5300 1700 4900 1700 
L 1650 1700 
L 1650 1500 
L 1150 1500 
Q 1200 1950 1200 2325 
L 1200 3475 
Q 1050 3250 937 3125 
Q 825 3000 675 2825 
Q 500 3000 300 3125 
Q 475 3325 875 3825 
Q 1275 4325 1462 4650 
Q 1650 4975 1725 5225 
Q 1950 5100 2275 4925 
z
M 2975 1200 
Q 2975 1300 2950 1625 
L 3475 1625 
Q 3450 1275 3450 1200 
L 5050 1200 
Q 5500 1200 5925 1225 
L 5925 825 
L 4150 825 
Q 4500 525 4925 362 
Q 5350 200 6100 25 
Q 5875 -225 5775 -475 
Q 5275 -300 4962 -162 
Q 4650 -25 4387 137 
Q 4125 300 3950 462 
Q 3775 625 3575 825 
L 3450 825 
L 3450 250 
Q 3450 -275 3500 -650 
L 2950 -650 
Q 2975 -300 2975 250 
L 2975 825 
L 2875 825 
Q 2700 575 2475 375 
Q 2250 175 1987 12 
Q 1725 -150 1425 -300 
Q 1125 -450 700 -575 
Q 600 -325 400 -75 
Q 925 50 1475 262 
Q 2025 475 2300 825 
L 500 825 
L 500 1225 
Q 800 1200 1400 1200 
L 2975 1200 
z
M 3150 2800 
L 3150 3200 
L 1650 3200 
L 1650 2800 
L 3150 2800 
z
M 3150 3575 
L 3150 3975 
L 1650 3975 
L 1650 3575 
L 3150 3575 
z
M 3150 2075 
L 3150 2425 
L 1650 2425 
L 1650 2075 
L 3150 2075 
z
M 3450 5250 
Q 3575 5150 3712 5000 
Q 3850 4850 4000 4650 
Q 3850 4525 3575 4375 
Q 3425 4575 3325 4700 
Q 3225 4825 3075 4950 
Q 3275 5075 3450 5250 
z
" transform="scale(0.015625)"/>
      <path id="SimHei-9884" d="M 5200 4800 
Q 5575 4800 5950 4825 
L 5950 4400 
Q 5575 4425 5200 4425 
L 4500 4425 
Q 4425 4050 4350 3600 
L 5725 3600 
Q 5700 3225 5700 2800 
L 5700 1725 
Q 5700 1300 5725 850 
L 5250 850 
L 5250 3225 
L 3550 3225 
L 3550 800 
L 3075 800 
Q 3100 1375 3100 1725 
L 3100 2775 
Q 3100 3175 3075 3600 
L 3900 3600 
Q 4000 4150 4000 4425 
L 3725 4425 
Q 3300 4425 2850 4400 
L 2850 4825 
Q 3325 4800 3725 4800 
L 5200 4800 
z
M 2600 1775 
Q 2350 1825 2150 1825 
Q 2250 2250 2300 2450 
L 1750 2450 
L 1750 125 
Q 1725 -300 1425 -400 
Q 1125 -500 750 -500 
Q 700 -225 575 25 
Q 1125 -25 1212 37 
Q 1300 100 1300 350 
L 1300 2450 
L 1025 2450 
Q 700 2450 350 2425 
L 350 2850 
Q 700 2825 1000 2825 
L 2850 2825 
Q 2725 2325 2600 1775 
z
M 4725 2875 
Q 4625 2575 4600 2100 
Q 4575 1625 4462 1037 
Q 4350 450 3962 62 
Q 3575 -325 2925 -675 
Q 2700 -500 2475 -350 
Q 3075 -125 3437 200 
Q 3800 525 3950 937 
Q 4100 1350 4137 1850 
Q 4175 2350 4175 2925 
L 4725 2875 
z
M 1625 2900 
Q 1275 3275 800 3650 
Q 925 3775 1075 3950 
Q 1250 3825 1425 3675 
Q 1750 4150 1950 4375 
L 1400 4375 
Q 900 4375 450 4350 
L 450 4775 
Q 900 4750 1375 4750 
L 2575 4750 
L 2575 4375 
Q 2200 4100 1725 3400 
L 1950 3200 
Q 1750 3025 1625 2900 
z
M 4775 725 
Q 5725 0 6075 -325 
Q 5850 -500 5725 -650 
Q 5400 -325 5137 -87 
Q 4875 150 4525 350 
Q 4650 525 4775 725 
z
" transform="scale(0.015625)"/>
     </defs>
     <use xlink:href="#SimHei-4c"/>
     <use xlink:href="#SimHei-53" x="50"/>
     <use xlink:href="#SimHei-54" x="100"/>
     <use xlink:href="#SimHei-4d" x="150"/>
     <use xlink:href="#SimHei-4d" x="200"/>
     <use xlink:href="#SimHei-6f" x="250"/>
     <use xlink:href="#SimHei-64" x="300"/>
     <use xlink:href="#SimHei-65" x="350"/>
     <use xlink:href="#SimHei-6c" x="400"/>
     <use xlink:href="#SimHei-20" x="450"/>
     <use xlink:href="#SimHei-6d4b" x="500"/>
     <use xlink:href="#SimHei-8bd5" x="600"/>
     <use xlink:href="#SimHei-96c6" x="700"/>
     <use xlink:href="#SimHei-9884" x="800"/>
     <use xlink:href="#SimHei-6d4b" x="900"/>
    </g>
   </g>
   <g id="legend_1">
    <g id="patch_7">
     <path d="M 369.6 77.7 
L 446.6 77.7 
Q 448.6 77.7 448.6 75.7 
L 448.6 50.2 
Q 448.6 48.2 446.6 48.2 
L 369.6 48.2 
Q 367.6 48.2 367.6 50.2 
L 367.6 75.7 
Q 367.6 77.7 369.6 77.7 
z
" style="fill: #ffffff; opacity: 0.8; stroke: #cccccc; stroke-linejoin: miter"/>
    </g>
    <g id="line2d_25">
     <path d="M 371.6 55.7 
L 381.6 55.7 
L 391.6 55.7 
" style="fill: none; stroke: #1f77b4; stroke-width: 1.5; stroke-linecap: square"/>
    </g>
    <g id="text_13">
     <!-- true -->
     <g transform="translate(399.6 59.2)scale(0.1 -0.1)">
      <defs>
       <path id="SimHei-74" d="M 2750 200 
Q 2625 150 2462 112 
Q 2300 75 2025 75 
Q 1575 75 1300 325 
Q 1025 575 1025 1025 
L 1025 2525 
L 175 2525 
L 175 2925 
L 1025 2925 
L 1025 3900 
L 1525 3900 
L 1525 2925 
L 2550 2925 
L 2550 2525 
L 1525 2525 
L 1525 1000 
Q 1525 800 1625 662 
Q 1725 525 2000 525 
Q 2275 525 2450 575 
Q 2625 625 2750 700 
L 2750 200 
z
" transform="scale(0.015625)"/>
       <path id="SimHei-72" d="M 2500 2425 
Q 2025 2500 1700 2287 
Q 1375 2075 1150 1550 
L 1150 125 
L 650 125 
L 650 2925 
L 1150 2925 
L 1150 2200 
Q 1375 2600 1712 2787 
Q 2050 2975 2500 2975 
L 2500 2425 
z
" transform="scale(0.015625)"/>
       <path id="SimHei-75" d="M 2800 125 
L 2300 125 
L 2300 650 
Q 2100 375 1862 225 
Q 1625 75 1250 75 
Q 800 75 575 325 
Q 350 575 350 950 
L 350 2925 
L 850 2925 
L 850 1125 
Q 850 825 1000 650 
Q 1150 475 1400 475 
Q 1725 475 2012 812 
Q 2300 1150 2300 1650 
L 2300 2925 
L 2800 2925 
L 2800 125 
z
" transform="scale(0.015625)"/>
      </defs>
      <use xlink:href="#SimHei-74"/>
      <use xlink:href="#SimHei-72" x="50"/>
      <use xlink:href="#SimHei-75" x="100"/>
      <use xlink:href="#SimHei-65" x="150"/>
     </g>
    </g>
    <g id="line2d_26">
     <path d="M 371.6 68.95 
L 381.6 68.95 
L 391.6 68.95 
" style="fill: none; stroke-dasharray: 5.55,2.4; stroke-dashoffset: 0; stroke: #ff7f0e; stroke-width: 1.5"/>
    </g>
    <g id="text_14">
     <!-- LSTMModel -->
     <g transform="translate(399.6 72.45)scale(0.1 -0.1)">
      <use xlink:href="#SimHei-4c"/>
      <use xlink:href="#SimHei-53" x="50"/>
      <use xlink:href="#SimHei-54" x="100"/>
      <use xlink:href="#SimHei-4d" x="150"/>
      <use xlink:href="#SimHei-4d" x="200"/>
      <use xlink:href="#SimHei-6f" x="250"/>
      <use xlink:href="#SimHei-64" x="300"/>
      <use xlink:href="#SimHei-65" x="350"/>
      <use xlink:href="#SimHei-6c" x="400"/>
     </g>
    </g>
   </g>
  </g>
 </g>
 <defs>
  <clipPath id="p19b23a72b4">
   <rect x="63" y="43.2" width="390.6" height="277.2"/>
  </clipPath>
 </defs>
</svg>
