<?xml version="1.0" encoding="utf-8" standalone="no"?>
<!DOCTYPE svg PUBLIC "-//W3C//DTD SVG 1.1//EN"
  "http://www.w3.org/Graphics/SVG/1.1/DTD/svg11.dtd">
<svg xmlns:xlink="http://www.w3.org/1999/xlink" width="504pt" height="360pt" viewBox="0 0 504 360" xmlns="http://www.w3.org/2000/svg" version="1.1">
 <metadata>
  <rdf:RDF xmlns:dc="http://purl.org/dc/elements/1.1/" xmlns:cc="http://creativecommons.org/ns#" xmlns:rdf="http://www.w3.org/1999/02/22-rdf-syntax-ns#">
   <cc:Work>
    <dc:type rdf:resource="http://purl.org/dc/dcmitype/StillImage"/>
    <dc:date>2025-01-12T15:56:11.537228</dc:date>
    <dc:format>image/svg+xml</dc:format>
    <dc:creator>
     <cc:Agent>
      <dc:title>Matplotlib v3.5.3, https://matplotlib.org/</dc:title>
     </cc:Agent>
    </dc:creator>
   </cc:Work>
  </rdf:RDF>
 </metadata>
 <defs>
  <style type="text/css">*{stroke-linejoin: round; stroke-linecap: butt}</style>
 </defs>
 <g id="figure_1">
  <g id="patch_1">
   <path d="M 0 360 
L 504 360 
L 504 0 
L 0 0 
z
" style="fill: #ffffff"/>
  </g>
  <g id="axes_1">
   <g id="patch_2">
    <path d="M 63 320.4 
L 453.6 320.4 
L 453.6 43.2 
L 63 43.2 
z
" style="fill: #ffffff"/>
   </g>
   <g id="matplotlib.axis_1">
    <g id="xtick_1">
     <g id="line2d_1">
      <path d="M 80.754545 320.4 
L 80.754545 43.2 
" clip-path="url(#p9fe74f4528)" style="fill: none; stroke: #b0b0b0; stroke-width: 0.8; stroke-linecap: square"/>
     </g>
     <g id="line2d_2">
      <defs>
       <path id="mb92e780be3" d="M 0 0 
L 0 3.5 
" style="stroke: #000000; stroke-width: 0.8"/>
      </defs>
      <g>
       <use xlink:href="#mb92e780be3" x="80.754545" y="320.4" style="stroke: #000000; stroke-width: 0.8"/>
      </g>
     </g>
     <g id="text_1">
      <!-- 0 -->
      <g transform="translate(78.254545 334.275)scale(0.1 -0.1)">
       <defs>
        <path id="SimHei-30" d="M 225 2537 
Q 250 3200 412 3587 
Q 575 3975 875 4225 
Q 1175 4475 1612 4475 
Q 2050 4475 2375 4112 
Q 2700 3750 2800 3200 
Q 2900 2650 2862 1937 
Q 2825 1225 2612 775 
Q 2400 325 1975 150 
Q 1550 -25 1125 187 
Q 700 400 525 750 
Q 350 1100 275 1487 
Q 200 1875 225 2537 
z
M 750 2687 
Q 675 2000 800 1462 
Q 925 925 1212 700 
Q 1500 475 1800 612 
Q 2100 750 2237 1162 
Q 2375 1575 2375 2062 
Q 2375 2550 2337 2950 
Q 2300 3350 2112 3675 
Q 1925 4000 1612 4012 
Q 1300 4025 1062 3700 
Q 825 3375 750 2687 
z
" transform="scale(0.015625)"/>
       </defs>
       <use xlink:href="#SimHei-30"/>
      </g>
     </g>
    </g>
    <g id="xtick_2">
     <g id="line2d_3">
      <path d="M 148.390909 320.4 
L 148.390909 43.2 
" clip-path="url(#p9fe74f4528)" style="fill: none; stroke: #b0b0b0; stroke-width: 0.8; stroke-linecap: square"/>
     </g>
     <g id="line2d_4">
      <g>
       <use xlink:href="#mb92e780be3" x="148.390909" y="320.4" style="stroke: #000000; stroke-width: 0.8"/>
      </g>
     </g>
     <g id="text_2">
      <!-- 100 -->
      <g transform="translate(140.890909 334.275)scale(0.1 -0.1)">
       <defs>
        <path id="SimHei-31" d="M 1400 3600 
Q 1075 3275 575 2975 
L 575 3450 
Q 1200 3875 1600 4450 
L 1900 4450 
L 1900 150 
L 1400 150 
L 1400 3600 
z
" transform="scale(0.015625)"/>
       </defs>
       <use xlink:href="#SimHei-31"/>
       <use xlink:href="#SimHei-30" x="50"/>
       <use xlink:href="#SimHei-30" x="100"/>
      </g>
     </g>
    </g>
    <g id="xtick_3">
     <g id="line2d_5">
      <path d="M 216.027273 320.4 
L 216.027273 43.2 
" clip-path="url(#p9fe74f4528)" style="fill: none; stroke: #b0b0b0; stroke-width: 0.8; stroke-linecap: square"/>
     </g>
     <g id="line2d_6">
      <g>
       <use xlink:href="#mb92e780be3" x="216.027273" y="320.4" style="stroke: #000000; stroke-width: 0.8"/>
      </g>
     </g>
     <g id="text_3">
      <!-- 200 -->
      <g transform="translate(208.527273 334.275)scale(0.1 -0.1)">
       <defs>
        <path id="SimHei-32" d="M 300 250 
Q 325 625 650 925 
Q 975 1225 1475 1862 
Q 1975 2500 2125 2850 
Q 2275 3200 2237 3450 
Q 2200 3700 2000 3862 
Q 1800 4025 1537 4000 
Q 1275 3975 1037 3800 
Q 800 3625 675 3275 
L 200 3350 
Q 400 3925 712 4187 
Q 1025 4450 1450 4475 
Q 1700 4500 1900 4462 
Q 2100 4425 2312 4287 
Q 2525 4150 2662 3875 
Q 2800 3600 2762 3212 
Q 2725 2825 2375 2287 
Q 2025 1750 1025 600 
L 2825 600 
L 2825 150 
L 300 150 
L 300 250 
z
" transform="scale(0.015625)"/>
       </defs>
       <use xlink:href="#SimHei-32"/>
       <use xlink:href="#SimHei-30" x="50"/>
       <use xlink:href="#SimHei-30" x="100"/>
      </g>
     </g>
    </g>
    <g id="xtick_4">
     <g id="line2d_7">
      <path d="M 283.663636 320.4 
L 283.663636 43.2 
" clip-path="url(#p9fe74f4528)" style="fill: none; stroke: #b0b0b0; stroke-width: 0.8; stroke-linecap: square"/>
     </g>
     <g id="line2d_8">
      <g>
       <use xlink:href="#mb92e780be3" x="283.663636" y="320.4" style="stroke: #000000; stroke-width: 0.8"/>
      </g>
     </g>
     <g id="text_4">
      <!-- 300 -->
      <g transform="translate(276.163636 334.275)scale(0.1 -0.1)">
       <defs>
        <path id="SimHei-33" d="M 250 1225 
L 700 1300 
Q 800 975 1025 762 
Q 1250 550 1587 562 
Q 1925 575 2125 837 
Q 2325 1100 2300 1437 
Q 2275 1775 2037 1962 
Q 1800 2150 1275 2225 
L 1275 2550 
Q 1800 2600 2037 2825 
Q 2275 3050 2250 3412 
Q 2225 3775 1925 3937 
Q 1625 4100 1287 3975 
Q 950 3850 750 3275 
L 300 3350 
Q 450 3800 712 4100 
Q 975 4400 1425 4450 
Q 1875 4500 2212 4337 
Q 2550 4175 2687 3837 
Q 2825 3500 2725 3100 
Q 2625 2700 2150 2400 
Q 2500 2250 2687 1950 
Q 2875 1650 2812 1162 
Q 2750 675 2375 375 
Q 2000 75 1525 87 
Q 1050 100 700 387 
Q 350 675 250 1225 
z
" transform="scale(0.015625)"/>
       </defs>
       <use xlink:href="#SimHei-33"/>
       <use xlink:href="#SimHei-30" x="50"/>
       <use xlink:href="#SimHei-30" x="100"/>
      </g>
     </g>
    </g>
    <g id="xtick_5">
     <g id="line2d_9">
      <path d="M 351.3 320.4 
L 351.3 43.2 
" clip-path="url(#p9fe74f4528)" style="fill: none; stroke: #b0b0b0; stroke-width: 0.8; stroke-linecap: square"/>
     </g>
     <g id="line2d_10">
      <g>
       <use xlink:href="#mb92e780be3" x="351.3" y="320.4" style="stroke: #000000; stroke-width: 0.8"/>
      </g>
     </g>
     <g id="text_5">
      <!-- 400 -->
      <g transform="translate(343.8 334.275)scale(0.1 -0.1)">
       <defs>
        <path id="SimHei-34" d="M 2000 1100 
L 75 1100 
L 75 1525 
L 2100 4450 
L 2475 4450 
L 2475 1525 
L 3075 1525 
L 3075 1100 
L 2475 1100 
L 2475 150 
L 2000 150 
L 2000 1100 
z
M 2000 1525 
L 2000 3500 
L 600 1525 
L 2000 1525 
z
" transform="scale(0.015625)"/>
       </defs>
       <use xlink:href="#SimHei-34"/>
       <use xlink:href="#SimHei-30" x="50"/>
       <use xlink:href="#SimHei-30" x="100"/>
      </g>
     </g>
    </g>
    <g id="xtick_6">
     <g id="line2d_11">
      <path d="M 418.936364 320.4 
L 418.936364 43.2 
" clip-path="url(#p9fe74f4528)" style="fill: none; stroke: #b0b0b0; stroke-width: 0.8; stroke-linecap: square"/>
     </g>
     <g id="line2d_12">
      <g>
       <use xlink:href="#mb92e780be3" x="418.936364" y="320.4" style="stroke: #000000; stroke-width: 0.8"/>
      </g>
     </g>
     <g id="text_6">
      <!-- 500 -->
      <g transform="translate(411.436364 334.275)scale(0.1 -0.1)">
       <defs>
        <path id="SimHei-35" d="M 550 1325 
Q 725 650 1150 575 
Q 1575 500 1837 662 
Q 2100 825 2212 1087 
Q 2325 1350 2312 1675 
Q 2300 2000 2137 2225 
Q 1975 2450 1725 2525 
Q 1475 2600 1162 2525 
Q 850 2450 650 2175 
L 225 2225 
Q 275 2375 700 4375 
L 2675 4375 
L 2675 3925 
L 1075 3925 
Q 950 3250 825 2850 
Q 1200 3025 1525 3012 
Q 1850 3000 2150 2862 
Q 2450 2725 2587 2487 
Q 2725 2250 2787 2012 
Q 2850 1775 2837 1500 
Q 2825 1225 2725 937 
Q 2625 650 2425 462 
Q 2225 275 1937 162 
Q 1650 50 1275 75 
Q 900 100 562 350 
Q 225 600 100 1200 
L 550 1325 
z
" transform="scale(0.015625)"/>
       </defs>
       <use xlink:href="#SimHei-35"/>
       <use xlink:href="#SimHei-30" x="50"/>
       <use xlink:href="#SimHei-30" x="100"/>
      </g>
     </g>
    </g>
   </g>
   <g id="matplotlib.axis_2">
    <g id="ytick_1">
     <g id="line2d_13">
      <path d="M 63 307.385575 
L 453.6 307.385575 
" clip-path="url(#p9fe74f4528)" style="fill: none; stroke: #b0b0b0; stroke-width: 0.8; stroke-linecap: square"/>
     </g>
     <g id="line2d_14">
      <defs>
       <path id="m69e89e4a08" d="M 0 0 
L -3.5 0 
" style="stroke: #000000; stroke-width: 0.8"/>
      </defs>
      <g>
       <use xlink:href="#m69e89e4a08" x="63" y="307.385575" style="stroke: #000000; stroke-width: 0.8"/>
      </g>
     </g>
     <g id="text_7">
      <!-- 0 -->
      <g transform="translate(51 310.823075)scale(0.1 -0.1)">
       <use xlink:href="#SimHei-30"/>
      </g>
     </g>
    </g>
    <g id="ytick_2">
     <g id="line2d_15">
      <path d="M 63 248.182004 
L 453.6 248.182004 
" clip-path="url(#p9fe74f4528)" style="fill: none; stroke: #b0b0b0; stroke-width: 0.8; stroke-linecap: square"/>
     </g>
     <g id="line2d_16">
      <g>
       <use xlink:href="#m69e89e4a08" x="63" y="248.182004" style="stroke: #000000; stroke-width: 0.8"/>
      </g>
     </g>
     <g id="text_8">
      <!-- 200 -->
      <g transform="translate(41 251.619504)scale(0.1 -0.1)">
       <use xlink:href="#SimHei-32"/>
       <use xlink:href="#SimHei-30" x="50"/>
       <use xlink:href="#SimHei-30" x="100"/>
      </g>
     </g>
    </g>
    <g id="ytick_3">
     <g id="line2d_17">
      <path d="M 63 188.978433 
L 453.6 188.978433 
" clip-path="url(#p9fe74f4528)" style="fill: none; stroke: #b0b0b0; stroke-width: 0.8; stroke-linecap: square"/>
     </g>
     <g id="line2d_18">
      <g>
       <use xlink:href="#m69e89e4a08" x="63" y="188.978433" style="stroke: #000000; stroke-width: 0.8"/>
      </g>
     </g>
     <g id="text_9">
      <!-- 400 -->
      <g transform="translate(41 192.415933)scale(0.1 -0.1)">
       <use xlink:href="#SimHei-34"/>
       <use xlink:href="#SimHei-30" x="50"/>
       <use xlink:href="#SimHei-30" x="100"/>
      </g>
     </g>
    </g>
    <g id="ytick_4">
     <g id="line2d_19">
      <path d="M 63 129.774862 
L 453.6 129.774862 
" clip-path="url(#p9fe74f4528)" style="fill: none; stroke: #b0b0b0; stroke-width: 0.8; stroke-linecap: square"/>
     </g>
     <g id="line2d_20">
      <g>
       <use xlink:href="#m69e89e4a08" x="63" y="129.774862" style="stroke: #000000; stroke-width: 0.8"/>
      </g>
     </g>
     <g id="text_10">
      <!-- 600 -->
      <g transform="translate(41 133.212362)scale(0.1 -0.1)">
       <defs>
        <path id="SimHei-36" d="M 250 1612 
Q 275 1975 387 2225 
Q 500 2475 725 2850 
L 1750 4450 
L 2325 4450 
L 1275 2800 
Q 1950 2975 2350 2750 
Q 2750 2525 2887 2237 
Q 3025 1950 3037 1612 
Q 3050 1275 2937 950 
Q 2825 625 2537 362 
Q 2250 100 1737 75 
Q 1225 50 862 262 
Q 500 475 362 862 
Q 225 1250 250 1612 
z
M 1025 787 
Q 1250 550 1625 525 
Q 2000 500 2250 775 
Q 2500 1050 2500 1575 
Q 2500 2100 2187 2300 
Q 1875 2500 1487 2450 
Q 1100 2400 925 2075 
Q 750 1750 775 1387 
Q 800 1025 1025 787 
z
" transform="scale(0.015625)"/>
       </defs>
       <use xlink:href="#SimHei-36"/>
       <use xlink:href="#SimHei-30" x="50"/>
       <use xlink:href="#SimHei-30" x="100"/>
      </g>
     </g>
    </g>
    <g id="ytick_5">
     <g id="line2d_21">
      <path d="M 63 70.571291 
L 453.6 70.571291 
" clip-path="url(#p9fe74f4528)" style="fill: none; stroke: #b0b0b0; stroke-width: 0.8; stroke-linecap: square"/>
     </g>
     <g id="line2d_22">
      <g>
       <use xlink:href="#m69e89e4a08" x="63" y="70.571291" style="stroke: #000000; stroke-width: 0.8"/>
      </g>
     </g>
     <g id="text_11">
      <!-- 800 -->
      <g transform="translate(41 74.008791)scale(0.1 -0.1)">
       <defs>
        <path id="SimHei-38" d="M 175 1375 
Q 175 1675 325 1962 
Q 475 2250 825 2425 
Q 525 2600 425 2812 
Q 325 3025 312 3300 
Q 300 3575 387 3775 
Q 475 3975 650 4150 
Q 825 4325 1037 4387 
Q 1250 4450 1500 4450 
Q 1750 4450 1950 4400 
Q 2150 4350 2375 4187 
Q 2600 4025 2700 3725 
Q 2800 3425 2687 3025 
Q 2575 2625 2100 2400 
Q 2525 2275 2700 2012 
Q 2875 1750 2875 1375 
Q 2875 1000 2762 775 
Q 2650 550 2512 400 
Q 2375 250 2137 162 
Q 1900 75 1537 75 
Q 1175 75 912 162 
Q 650 250 475 425 
Q 300 600 237 837 
Q 175 1075 175 1375 
z
M 687 1400 
Q 675 1100 787 875 
Q 900 650 1200 587 
Q 1500 525 1825 600 
Q 2150 675 2275 950 
Q 2400 1225 2362 1500 
Q 2325 1775 2050 1962 
Q 1775 2150 1450 2125 
Q 1125 2100 912 1900 
Q 700 1700 687 1400 
z
M 775 3350 
Q 775 3100 950 2875 
Q 1125 2650 1500 2650 
Q 1875 2650 2062 2875 
Q 2250 3100 2237 3412 
Q 2225 3725 2012 3875 
Q 1800 4025 1437 4000 
Q 1075 3975 925 3787 
Q 775 3600 775 3350 
z
" transform="scale(0.015625)"/>
       </defs>
       <use xlink:href="#SimHei-38"/>
       <use xlink:href="#SimHei-30" x="50"/>
       <use xlink:href="#SimHei-30" x="100"/>
      </g>
     </g>
    </g>
   </g>
   <g id="line2d_23">
    <path d="M 80.754545 149.548855 
L 81.430909 214.672783 
L 82.107273 173.644708 
L 82.783636 225.56624 
L 83.46 214.850394 
L 84.136364 175.035992 
L 84.812727 182.910067 
L 85.489091 183.502103 
L 86.165455 175.509621 
L 86.841818 211.771808 
L 87.518182 239.33107 
L 88.194545 221.806813 
L 88.870909 189.244849 
L 89.547273 257.980195 
L 90.9 233.144297 
L 91.576364 231.397792 
L 92.252727 244.037754 
L 92.929091 179.15064 
L 93.605455 196.171667 
L 94.281818 230.272924 
L 94.958182 157.541337 
L 96.310909 59.529825 
L 96.987273 61.009914 
L 97.663636 66.90067 
L 98.34 113.49388 
L 99.016364 258.986656 
L 99.692727 185.811042 
L 100.369091 144.516551 
L 101.045455 208.752426 
L 101.721818 256.588911 
L 102.398182 225.477435 
L 103.074545 175.746435 
L 103.750909 200.671138 
L 104.427273 86.674662 
L 105.103636 182.821262 
L 105.78 158.42939 
L 106.456364 211.860613 
L 107.132727 128.501985 
L 107.809091 101.06113 
L 108.485455 99.877059 
L 109.161818 148.039164 
L 109.838182 123.262469 
L 111.190909 97.864137 
L 111.867273 72.554611 
L 112.543636 76.254834 
L 113.22 63.76288 
L 113.896364 57.043275 
L 114.572727 77.172489 
L 115.249091 103.606884 
L 115.925455 70.275273 
L 116.601818 87.207494 
L 117.278182 64.058898 
L 117.954545 71.725761 
L 118.630909 66.131023 
L 119.307273 66.515846 
L 119.983636 58.61217 
L 120.66 142.651639 
L 121.336364 56.95447 
L 122.012727 99.640244 
L 122.689091 70.364078 
L 123.365455 101.357148 
L 124.041818 100.646705 
L 124.718182 98.041748 
L 125.394545 87.562716 
L 126.070909 115.181182 
L 126.747273 81.020721 
L 127.423636 61.690755 
L 128.1 92.683825 
L 128.776364 71.932973 
L 129.452727 67.936732 
L 130.129091 87.000282 
L 130.805455 153.811512 
L 131.481818 253.155104 
L 132.158182 235.246024 
L 132.834545 227.697568 
L 133.510909 231.545801 
L 134.187273 130.248491 
L 134.863636 216.626501 
L 136.216364 307.740796 
L 137.569091 307.533584 
L 138.921818 307.533584 
L 139.598182 259.371479 
L 140.274545 238.117397 
L 140.950909 183.087678 
L 142.303636 266.327899 
L 142.98 164.497756 
L 143.656364 127.554728 
L 144.332727 146.470269 
L 145.009091 146.766287 
L 145.685455 121.160742 
L 146.361818 231.456995 
L 147.038182 279.175073 
L 147.714545 296.077693 
L 148.390909 288.292423 
L 149.067273 282.549677 
L 149.743636 294.005568 
L 150.42 307.563186 
L 151.096364 307.563186 
L 151.772727 245.014613 
L 152.449091 250.786961 
L 153.125455 197.000517 
L 153.801818 80.547093 
L 154.478182 72.199389 
L 155.154545 55.8 
L 155.830909 60.033055 
L 156.507273 208.782027 
L 157.183636 307.8 
L 157.86 205.585035 
L 158.536364 71.370539 
L 159.212727 62.993234 
L 159.889091 60.329073 
L 160.565455 56.984071 
L 161.241818 58.020134 
L 161.918182 112.221003 
L 162.594545 66.90067 
L 163.270909 60.7731 
L 163.947273 159.820674 
L 164.623636 206.265876 
L 165.3 215.442429 
L 165.976364 229.562481 
L 166.652727 241.018372 
L 167.329091 249.662093 
L 168.005455 247.767579 
L 168.681818 239.419875 
L 169.358182 214.051145 
L 170.034545 249.662093 
L 170.710909 218.876236 
L 171.387273 240.189522 
L 172.063636 236.992529 
L 172.74 178.558604 
L 174.092727 239.123858 
L 174.769091 232.256243 
L 175.445455 155.143592 
L 176.121818 162.484835 
L 176.798182 156.327664 
L 177.474545 156.031646 
L 178.150909 90.167673 
L 178.827273 100.646705 
L 179.503636 181.992412 
L 180.18 196.586092 
L 180.856364 191.553788 
L 181.532727 201.588794 
L 182.209091 229.325667 
L 182.885455 207.805169 
L 183.561818 181.074756 
L 184.238182 236.193281 
L 184.914545 216.892917 
L 185.590909 194.365958 
L 186.267273 231.812217 
L 186.943636 252.859086 
L 187.62 179.949888 
L 188.296364 271.389804 
L 188.972727 235.749254 
L 189.649091 265.321438 
L 190.325455 280.566357 
L 191.678182 228.05279 
L 192.354545 177.019312 
L 193.030909 191.90901 
L 193.707273 271.389804 
L 194.383636 185.070997 
L 195.06 178.854622 
L 195.736364 268.044802 
L 196.412727 296.580923 
L 197.089091 289.358088 
L 197.765455 277.872595 
L 198.441818 283.437731 
L 199.794545 307.592788 
L 201.823636 307.622389 
L 202.5 295.663268 
L 203.176364 290.364548 
L 203.852727 249.218066 
L 204.529091 286.368307 
L 205.205455 288.73645 
L 205.881818 279.293481 
L 206.558182 299.18588 
L 207.234545 285.805873 
L 207.910909 275.149231 
L 208.587273 174.532762 
L 209.263636 158.074169 
L 209.94 226.631904 
L 210.616364 90.522894 
L 211.292727 225.329426 
L 211.969091 271.863432 
L 212.645455 272.869893 
L 213.321818 293.591143 
L 213.998182 280.388747 
L 214.674545 262.272454 
L 215.350909 271.626618 
L 216.027273 307.355973 
L 216.703636 307.563186 
L 217.38 290.749372 
L 218.056364 259.815506 
L 218.732727 292.347868 
L 219.409091 293.916763 
L 220.085455 240.426336 
L 220.761818 253.539927 
L 221.438182 215.29442 
L 222.114545 108.757594 
L 222.790909 72.88023 
L 223.467273 60.477082 
L 224.143636 218.905838 
L 224.82 287.641184 
L 225.496364 215.738447 
L 226.172727 163.432092 
L 226.849091 90.818912 
L 227.525455 108.727992 
L 228.201818 273.846752 
L 228.878182 307.740796 
L 229.554545 307.740796 
L 230.230909 274.14277 
L 230.907273 234.269165 
L 231.583636 233.85474 
L 232.26 206.917115 
L 232.936364 221.185176 
L 233.612727 145.671021 
L 234.289091 220.829954 
L 234.965455 240.396734 
L 235.641818 241.492 
L 236.994545 247.974791 
L 237.670909 175.894444 
L 238.347273 204.134547 
L 239.023636 182.258828 
L 239.7 119.384635 
L 240.376364 115.033173 
L 241.052727 61.897968 
L 241.729091 73.827487 
L 242.405455 114.973969 
L 243.081818 307.563186 
L 246.463636 307.563186 
L 247.14 55.859204 
L 247.816364 57.901727 
L 248.492727 61.483543 
L 249.169091 56.066416 
L 249.845455 60.358675 
L 250.521818 55.8 
L 251.874545 66.042218 
L 252.550909 65.923811 
L 253.227273 58.523364 
L 253.903636 87.385105 
L 254.58 86.911477 
L 255.256364 150.910537 
L 255.932727 115.862023 
L 256.609091 111.658569 
L 257.285455 64.621332 
L 257.961818 135.310396 
L 258.638182 230.53934 
L 259.314545 253.74714 
L 259.990909 271.833831 
L 260.667273 280.388747 
L 261.343636 255.641654 
L 262.02 245.221825 
L 262.696364 273.047504 
L 263.372727 266.475907 
L 264.049091 242.202443 
L 264.725455 265.972677 
L 265.401818 276.570116 
L 266.078182 267.097545 
L 266.754545 241.788018 
L 268.107273 297.972207 
L 268.783636 301.761236 
L 269.46 307.622389 
L 270.136364 293.176718 
L 270.812727 301.524421 
L 271.489091 307.622389 
L 272.165455 232.641067 
L 272.841818 242.883284 
L 273.518182 241.432797 
L 274.870909 112.043392 
L 275.547273 238.709433 
L 276.223636 197.355738 
L 276.9 273.728345 
L 277.576364 277.517373 
L 278.252727 277.991002 
L 278.929091 206.591495 
L 279.605455 251.023775 
L 280.281818 243.090497 
L 280.958182 259.045859 
L 281.634545 207.124327 
L 282.310909 269.524891 
L 282.987273 242.350452 
L 283.663636 166.629085 
L 284.34 248.77404 
L 285.016364 183.265288 
L 285.692727 216.537695 
L 286.369091 230.095313 
L 287.045455 205.377822 
L 287.721818 274.527593 
L 288.398182 213.873535 
L 289.750909 171.987008 
L 290.427273 175.953647 
L 291.103636 237.969388 
L 291.78 209.758886 
L 292.456364 249.395677 
L 293.132727 231.723411 
L 293.809091 292.584682 
L 295.161818 287.641184 
L 295.838182 291.815036 
L 296.514545 307.592788 
L 297.867273 307.533584 
L 301.249091 307.563186 
L 301.925455 307.651991 
L 303.278182 307.592788 
L 303.954545 307.651991 
L 304.630909 307.563186 
L 307.336364 307.592788 
L 308.012727 307.563186 
L 308.689091 299.00827 
L 309.365455 307.533584 
L 310.041818 294.331188 
L 310.718182 304.247786 
L 311.394545 307.533584 
L 316.129091 307.622389 
L 316.805455 303.359732 
L 317.481818 307.563186 
L 324.921818 307.592788 
L 325.598182 306.379114 
L 326.274545 307.563186 
L 326.950909 293.679948 
L 327.627273 289.654105 
L 328.303636 289.506097 
L 328.98 295.160038 
L 329.656364 285.184236 
L 330.332727 307.563186 
L 331.009091 307.592788 
L 331.685455 295.04163 
L 332.361818 298.978668 
L 333.038182 307.622389 
L 333.714545 307.533584 
L 335.067273 307.563186 
L 335.743636 307.740796 
L 336.42 307.563186 
L 337.772727 307.563186 
L 339.125455 258.927452 
L 339.801818 189.540867 
L 340.478182 211.890215 
L 341.154545 107.395912 
L 341.830909 217.78097 
L 342.507273 259.134665 
L 343.183636 292.37747 
L 343.86 284.000164 
L 344.536364 271.626618 
L 345.212727 292.910302 
L 345.889091 285.154634 
L 346.565455 282.10565 
L 347.241818 288.558839 
L 347.918182 287.374768 
L 348.594545 290.512557 
L 349.270909 272.396265 
L 349.947273 282.579279 
L 350.623636 258.157806 
L 351.3 273.284318 
L 351.976364 240.248725 
L 352.652727 148.779208 
L 353.329091 160.146294 
L 354.005455 146.233455 
L 354.681818 102.097193 
L 355.358182 84.336121 
L 356.034545 121.219946 
L 356.710909 83.507271 
L 357.387273 84.010502 
L 358.063636 136.109644 
L 358.74 80.132668 
L 359.416364 104.435734 
L 360.092727 149.63766 
L 360.769091 106.626266 
L 361.445455 151.532174 
L 362.121818 93.60148 
L 362.798182 152.923458 
L 363.474545 137.53053 
L 364.150909 129.360437 
L 364.827273 226.543099 
L 365.503636 155.410008 
L 366.18 174.118337 
L 366.856364 164.823376 
L 367.532727 225.418231 
L 368.209091 261.621215 
L 368.885455 249.040456 
L 369.561818 174.355151 
L 370.238182 125.275391 
L 370.914545 208.752426 
L 371.590909 196.201269 
L 372.267273 237.140538 
L 372.943636 123.025655 
L 373.62 80.33988 
L 374.296364 203.246494 
L 374.972727 165.38581 
L 375.649091 183.502103 
L 376.325455 149.13443 
L 377.001818 77.083684 
L 377.678182 62.075579 
L 378.354545 160.057489 
L 379.030909 168.493997 
L 379.707273 226.809515 
L 380.383636 220.060308 
L 381.06 144.190932 
L 381.736364 267.423165 
L 382.412727 204.726583 
L 383.089091 201.736803 
L 383.765455 217.899377 
L 384.441818 266.475907 
L 385.118182 225.211018 
L 385.794545 251.142183 
L 386.470909 218.521015 
L 387.147273 253.628733 
L 387.823636 221.066768 
L 388.5 276.274098 
L 389.176364 257.210549 
L 389.852727 154.166733 
L 390.529091 183.028474 
L 391.205455 181.666792 
L 391.881818 128.886808 
L 392.558182 148.601598 
L 393.234545 124.032116 
L 393.910909 80.191871 
L 394.587273 149.341642 
L 395.263636 185.870246 
L 395.94 173.851921 
L 396.616364 138.596194 
L 397.292727 164.172137 
L 397.969091 74.715541 
L 398.645455 89.694044 
L 399.321818 181.281969 
L 399.998182 103.784494 
L 400.674545 133.090262 
L 401.350909 140.638717 
L 402.027273 105.886221 
L 402.703636 63.76288 
L 403.38 56.658452 
L 404.056364 57.161682 
L 404.732727 73.028239 
L 405.409091 104.317326 
L 406.085455 158.074169 
L 406.761818 232.611465 
L 407.438182 138.388982 
L 408.114545 242.528063 
L 408.790909 239.715893 
L 409.467273 237.466158 
L 410.143636 307.770398 
L 410.82 269.110466 
L 411.496364 249.395677 
L 412.172727 290.838177 
L 412.849091 288.203618 
L 413.525455 250.342934 
L 414.201818 237.67337 
L 415.554545 128.08756 
L 416.230909 109.260825 
L 416.907273 78.326959 
L 417.583636 138.03376 
L 418.26 90.345284 
L 418.936364 79.185411 
L 419.612727 110.829719 
L 420.289091 151.443369 
L 420.965455 240.248725 
L 421.641818 278.109409 
L 422.318182 307.681593 
L 422.994545 259.22347 
L 423.670909 224.352567 
L 425.023636 262.894091 
L 425.7 264.907013 
L 426.376364 240.307929 
L 427.052727 190.872947 
L 427.729091 154.344344 
L 428.405455 160.353506 
L 429.081818 239.390274 
L 429.758182 149.578456 
L 430.434545 165.504217 
L 431.110909 122.522425 
L 431.787273 114.64835 
L 432.463636 179.47626 
L 433.14 171.572583 
L 433.816364 64.354916 
L 435.169091 56.421637 
L 435.845455 59.352214 
L 435.845455 59.352214 
" clip-path="url(#p9fe74f4528)" style="fill: none; stroke: #1f77b4; stroke-width: 1.5; stroke-linecap: square"/>
   </g>
   <g id="line2d_24">
    <path d="M 80.754545 143.253443 
L 81.430909 213.812555 
L 82.107273 178.032581 
L 82.783636 224.851061 
L 83.46 222.290506 
L 84.136364 177.022568 
L 84.812727 191.659171 
L 85.489091 182.413053 
L 86.165455 176.342023 
L 86.841818 214.176361 
L 87.518182 237.651169 
L 88.194545 222.274817 
L 88.870909 194.224165 
L 89.547273 257.323627 
L 90.9 235.80609 
L 91.576364 234.590048 
L 92.252727 248.636391 
L 92.929091 187.015243 
L 93.605455 194.636222 
L 94.281818 237.554371 
L 94.958182 169.528876 
L 96.310909 66.075668 
L 96.987273 60.84444 
L 97.663636 69.155438 
L 98.34 114.321842 
L 99.016364 262.008998 
L 99.692727 194.637406 
L 100.369091 156.20896 
L 101.721818 256.772146 
L 102.398182 223.863841 
L 103.074545 176.822164 
L 103.750909 205.03977 
L 104.427273 90.667055 
L 105.103636 185.195325 
L 105.78 154.046846 
L 106.456364 213.514169 
L 107.132727 128.274051 
L 107.809091 97.837496 
L 108.485455 103.726475 
L 109.161818 155.529599 
L 109.838182 126.859974 
L 110.514545 117.188183 
L 111.867273 76.0938 
L 112.543636 80.538212 
L 113.22 67.036246 
L 113.896364 60.963143 
L 114.572727 79.241062 
L 115.249091 116.065683 
L 115.925455 67.125051 
L 116.601818 83.073309 
L 117.278182 64.848674 
L 117.954545 71.815158 
L 118.630909 66.84561 
L 119.307273 63.256986 
L 119.983636 61.768608 
L 120.66 142.725347 
L 121.336364 62.362716 
L 122.012727 89.88764 
L 122.689091 76.171949 
L 123.365455 109.005361 
L 124.041818 157.118623 
L 124.718182 116.468563 
L 125.394545 98.594413 
L 126.070909 126.787154 
L 126.747273 73.128293 
L 127.423636 62.032952 
L 128.1 105.969698 
L 128.776364 67.34292 
L 129.452727 70.162786 
L 130.129091 84.958351 
L 130.805455 156.129332 
L 131.481818 257.69217 
L 132.158182 234.659612 
L 132.834545 228.284572 
L 133.510909 236.912604 
L 134.187273 128.245042 
L 134.863636 221.423766 
L 136.216364 307.449515 
L 137.569091 307.482373 
L 138.921818 307.591307 
L 139.598182 265.507041 
L 140.274545 247.198041 
L 140.950909 188.250525 
L 141.627273 233.184555 
L 142.303636 267.672116 
L 142.98 171.759962 
L 143.656364 125.215003 
L 144.332727 149.20725 
L 145.009091 144.428634 
L 145.685455 117.516467 
L 146.361818 231.919967 
L 147.038182 281.351397 
L 147.714545 296.270401 
L 148.390909 289.263954 
L 149.067273 283.72694 
L 149.743636 294.239718 
L 150.42 307.593676 
L 151.096364 307.563778 
L 151.772727 250.383489 
L 152.449091 254.533067 
L 153.125455 204.38113 
L 153.801818 89.059382 
L 154.478182 70.250704 
L 155.154545 60.894763 
L 155.830909 63.770873 
L 156.507273 216.007231 
L 157.183636 307.088077 
L 157.86 214.197674 
L 158.536364 74.720869 
L 159.212727 71.870217 
L 159.889091 113.819204 
L 160.565455 75.099476 
L 161.241818 64.979514 
L 161.918182 123.01263 
L 162.594545 67.925779 
L 163.270909 66.138128 
L 163.947273 155.751021 
L 164.623636 204.276044 
L 165.3 215.484168 
L 165.976364 230.919131 
L 166.652727 240.297272 
L 167.329091 247.243035 
L 168.005455 243.132827 
L 168.681818 237.391561 
L 169.358182 216.606667 
L 170.034545 249.190537 
L 170.710909 223.685638 
L 171.387273 243.262187 
L 172.063636 240.022864 
L 172.74 180.653227 
L 174.092727 242.925615 
L 174.769091 236.736178 
L 175.445455 155.13412 
L 176.121818 156.53458 
L 176.798182 156.940717 
L 177.474545 155.646526 
L 178.150909 92.378926 
L 178.827273 104.27174 
L 179.503636 189.041781 
L 180.18 203.239685 
L 180.856364 194.898494 
L 181.532727 206.701614 
L 182.209091 233.212677 
L 183.561818 184.197745 
L 184.238182 238.65763 
L 185.590909 194.254063 
L 186.267273 236.158055 
L 186.943636 255.128063 
L 187.62 186.853025 
L 188.296364 272.234047 
L 188.972727 238.191105 
L 189.649091 267.035381 
L 190.325455 285.949146 
L 191.678182 234.926028 
L 192.354545 168.469428 
L 193.030909 192.974082 
L 193.707273 271.814293 
L 194.383636 187.626815 
L 195.06 177.476067 
L 195.736364 267.02354 
L 196.412727 297.234235 
L 197.089091 289.721006 
L 197.765455 278.873727 
L 198.441818 284.435015 
L 199.794545 307.489477 
L 201.147273 307.60522 
L 201.823636 307.583019 
L 202.5 295.19556 
L 203.176364 290.81864 
L 203.852727 253.159248 
L 204.529091 286.757571 
L 205.205455 289.279051 
L 205.881818 280.028197 
L 206.558182 300.220759 
L 207.234545 286.737146 
L 207.910909 275.944631 
L 208.587273 171.564591 
L 209.263636 156.442519 
L 209.94 222.635367 
L 210.616364 85.164083 
L 211.292727 228.502145 
L 211.969091 272.15353 
L 212.645455 273.042175 
L 213.321818 294.741468 
L 213.998182 280.224753 
L 214.674545 262.666158 
L 215.350909 270.441067 
L 216.027273 307.509014 
L 216.703636 307.424649 
L 217.38 289.771033 
L 218.056364 259.152722 
L 218.732727 292.033201 
L 219.409091 293.456455 
L 220.085455 239.404779 
L 220.761818 257.355597 
L 221.438182 212.831256 
L 222.114545 112.766268 
L 222.790909 73.484403 
L 223.467273 83.494838 
L 224.143636 233.81685 
L 224.82 288.927382 
L 226.849091 88.413767 
L 227.525455 105.123087 
L 228.201818 272.691986 
L 228.878182 307.331404 
L 229.554545 307.311571 
L 230.230909 273.622074 
L 230.907273 231.721635 
L 231.583636 233.813593 
L 232.26 209.619166 
L 232.936364 214.660646 
L 233.612727 142.865956 
L 234.289091 227.004887 
L 234.965455 242.806912 
L 235.641818 242.069531 
L 236.318182 242.003815 
L 236.994545 248.591101 
L 237.670909 177.048913 
L 238.347273 204.257987 
L 239.023636 180.700294 
L 239.7 113.706125 
L 240.376364 110.521861 
L 241.052727 66.903334 
L 241.729091 69.395804 
L 242.405455 82.709799 
L 243.081818 221.173631 
L 243.758182 228.610784 
L 244.434545 226.632496 
L 245.110909 233.177747 
L 245.787273 247.206033 
L 246.463636 227.65435 
L 247.14 132.747177 
L 247.816364 63.812611 
L 248.492727 65.734951 
L 249.169091 64.310217 
L 249.845455 65.591087 
L 250.521818 60.046376 
L 251.198182 59.963491 
L 251.874545 63.91977 
L 252.550909 60.330257 
L 253.227273 60.268982 
L 253.903636 84.098419 
L 254.58 84.34885 
L 255.256364 147.35625 
L 255.932727 158.764483 
L 257.285455 64.210163 
L 257.961818 137.331014 
L 258.638182 227.446841 
L 259.990909 271.005277 
L 260.667273 279.291112 
L 261.343636 255.760061 
L 262.02 243.544588 
L 262.696364 272.91992 
L 263.372727 265.789442 
L 264.049091 239.604887 
L 264.725455 266.491596 
L 265.401818 276.569524 
L 266.078182 267.495689 
L 266.754545 246.934585 
L 267.430909 267.573838 
L 268.107273 297.952966 
L 268.783636 301.581257 
L 269.46 307.534768 
L 270.136364 293.460895 
L 270.812727 302.923106 
L 271.489091 307.461948 
L 272.165455 235.573715 
L 272.841818 243.84327 
L 273.518182 247.600033 
L 274.194545 169.409581 
L 274.870909 120.848148 
L 275.547273 233.358022 
L 276.223636 198.506064 
L 276.9 272.406921 
L 277.576364 276.722565 
L 278.252727 277.218099 
L 278.929091 212.846945 
L 279.605455 249.321673 
L 280.281818 243.194991 
L 280.958182 257.436114 
L 281.634545 212.026383 
L 282.310909 270.056243 
L 282.987273 235.1809 
L 283.663636 170.689858 
L 284.34 248.328237 
L 285.016364 181.998628 
L 285.692727 214.672191 
L 286.369091 232.842951 
L 287.045455 208.019485 
L 287.721818 276.26581 
L 288.398182 217.165253 
L 289.750909 169.171286 
L 290.427273 174.626007 
L 291.103636 238.79587 
L 291.78 208.543141 
L 292.456364 248.499039 
L 293.132727 230.173462 
L 293.809091 291.984654 
L 294.485455 291.534115 
L 295.161818 289.265434 
L 295.838182 291.915682 
L 296.514545 307.586867 
L 299.896364 307.564962 
L 306.66 307.601372 
L 307.336364 307.33022 
L 308.012727 307.30269 
L 308.689091 301.588065 
L 309.365455 305.935384 
L 310.041818 295.685765 
L 310.718182 304.81318 
L 311.394545 306.027149 
L 312.747273 305.903414 
L 313.423636 305.853979 
L 314.1 306.793539 
L 314.776364 307.074164 
L 315.452727 307.566738 
L 316.129091 307.577395 
L 316.805455 304.692109 
L 317.481818 307.571178 
L 320.863636 307.558449 
L 324.245455 307.577099 
L 324.921818 307.499838 
L 326.274545 307.604924 
L 326.950909 292.723515 
L 327.627273 290.691056 
L 328.303636 287.672562 
L 328.98 295.225754 
L 329.656364 284.772771 
L 330.332727 307.620613 
L 331.009091 307.6067 
L 331.685455 295.734016 
L 332.361818 298.938706 
L 333.038182 307.595748 
L 335.067273 307.560522 
L 336.42 307.594564 
L 337.772727 307.480301 
L 338.449091 281.399352 
L 339.125455 262.14339 
L 339.801818 178.879192 
L 340.478182 222.129177 
L 341.154545 105.976507 
L 341.830909 213.079911 
L 342.507273 258.876833 
L 343.183636 291.975478 
L 343.86 281.955569 
L 344.536364 268.728603 
L 345.212727 292.518966 
L 345.889091 284.603745 
L 346.565455 283.893598 
L 347.241818 288.806606 
L 347.918182 288.247429 
L 348.594545 291.031773 
L 349.270909 272.297691 
L 349.947273 283.457268 
L 350.623636 259.563891 
L 351.3 274.800226 
L 351.976364 243.357801 
L 352.652727 150.827652 
L 353.329091 159.952402 
L 354.005455 144.975675 
L 354.681818 97.675574 
L 355.358182 83.014402 
L 356.034545 114.347595 
L 356.710909 84.289646 
L 357.387273 84.567311 
L 358.063636 127.692376 
L 358.74 70.866125 
L 359.416364 88.202114 
L 360.092727 143.200456 
L 360.769091 100.657658 
L 361.445455 147.31984 
L 362.121818 92.719939 
L 362.798182 155.818809 
L 363.474545 139.639953 
L 364.150909 128.475344 
L 364.827273 226.737879 
L 365.503636 147.151702 
L 366.18 166.893725 
L 366.856364 157.15829 
L 367.532727 226.008787 
L 368.209091 262.584457 
L 368.885455 252.784786 
L 369.561818 166.374806 
L 370.238182 124.970788 
L 370.914545 206.500618 
L 371.590909 206.10721 
L 372.267273 240.773861 
L 372.943636 120.772663 
L 373.62 78.993295 
L 374.296364 205.500374 
L 374.972727 167.038182 
L 375.649091 184.25754 
L 376.325455 152.728382 
L 377.001818 81.038778 
L 377.678182 65.659171 
L 378.354545 154.198703 
L 379.030909 175.982065 
L 379.707273 228.308253 
L 380.383636 217.388747 
L 381.06 142.597467 
L 381.736364 267.058471 
L 382.412727 207.159258 
L 383.089091 204.026205 
L 383.765455 214.678407 
L 384.441818 265.589334 
L 385.118182 223.845488 
L 385.794545 251.4234 
L 386.470909 217.3476 
L 387.147273 258.953206 
L 387.823636 226.85895 
L 388.5 278.375825 
L 389.176364 257.082669 
L 389.852727 154.857047 
L 390.529091 182.610497 
L 391.205455 177.004511 
L 391.881818 126.660162 
L 392.558182 146.449252 
L 393.234545 119.565798 
L 393.910909 81.483989 
L 394.587273 144.269672 
L 395.263636 182.504819 
L 395.94 168.133744 
L 396.616364 139.574533 
L 397.292727 165.760273 
L 397.969091 74.547699 
L 398.645455 83.058804 
L 399.321818 176.067318 
L 399.998182 97.443496 
L 400.674545 123.760667 
L 401.350909 140.105293 
L 402.703636 65.453142 
L 403.38 59.138489 
L 404.056364 59.736741 
L 404.732727 68.298762 
L 406.085455 153.938207 
L 406.761818 235.593253 
L 407.438182 143.030246 
L 408.114545 236.359051 
L 408.790909 237.485991 
L 409.467273 238.230772 
L 410.143636 307.184875 
L 410.82 268.983179 
L 411.496364 250.574124 
L 412.172727 291.613448 
L 412.849091 288.704184 
L 413.525455 248.808674 
L 414.201818 241.973029 
L 414.878182 180.060895 
L 415.554545 130.161165 
L 416.230909 129.599619 
L 416.907273 81.614237 
L 417.583636 139.190894 
L 418.26 88.579241 
L 418.936364 77.78347 
L 419.612727 104.529571 
L 420.289091 142.796095 
L 420.965455 245.190152 
L 421.641818 279.385246 
L 422.318182 307.406 
L 422.994545 261.28553 
L 423.670909 228.448862 
L 424.347273 238.491267 
L 425.023636 261.987981 
L 425.7 267.146092 
L 426.376364 239.32959 
L 427.729091 156.840366 
L 428.405455 168.820801 
L 429.081818 242.431265 
L 429.758182 148.160531 
L 430.434545 168.398088 
L 431.110909 126.436669 
L 431.787273 115.907314 
L 432.463636 184.362923 
L 433.14 175.76686 
L 433.816364 80.102474 
L 434.492727 59.733189 
L 435.169091 59.512952 
L 435.845455 59.547882 
L 435.845455 59.547882 
" clip-path="url(#p9fe74f4528)" style="fill: none; stroke-dasharray: 5.55,2.4; stroke-dashoffset: 0; stroke: #ff7f0e; stroke-width: 1.5"/>
   </g>
   <g id="patch_3">
    <path d="M 63 320.4 
L 63 43.2 
" style="fill: none; stroke: #000000; stroke-width: 0.8; stroke-linejoin: miter; stroke-linecap: square"/>
   </g>
   <g id="patch_4">
    <path d="M 453.6 320.4 
L 453.6 43.2 
" style="fill: none; stroke: #000000; stroke-width: 0.8; stroke-linejoin: miter; stroke-linecap: square"/>
   </g>
   <g id="patch_5">
    <path d="M 63 320.4 
L 453.6 320.4 
" style="fill: none; stroke: #000000; stroke-width: 0.8; stroke-linejoin: miter; stroke-linecap: square"/>
   </g>
   <g id="patch_6">
    <path d="M 63 43.2 
L 453.6 43.2 
" style="fill: none; stroke: #000000; stroke-width: 0.8; stroke-linejoin: miter; stroke-linecap: square"/>
   </g>
   <g id="text_12">
    <!-- RandomForestRegressor 测试集预测 -->
    <g transform="translate(162.3 37.2)scale(0.12 -0.12)">
     <defs>
      <path id="SimHei-52" d="M 3000 125 
L 2400 125 
L 1500 1975 
L 850 1975 
L 850 125 
L 275 125 
L 275 4400 
L 1525 4400 
Q 2125 4400 2500 4112 
Q 2875 3825 2875 3175 
Q 2875 2675 2625 2400 
Q 2375 2125 2050 2050 
L 3000 125 
z
M 2300 3175 
Q 2300 3525 2087 3725 
Q 1875 3925 1400 3925 
L 850 3925 
L 850 2450 
L 1550 2450 
Q 1850 2450 2075 2612 
Q 2300 2775 2300 3175 
z
" transform="scale(0.015625)"/>
      <path id="SimHei-61" d="M 2875 125 
L 2275 125 
Q 2225 175 2200 262 
Q 2175 350 2175 475 
Q 2000 275 1750 175 
Q 1500 75 1225 75 
Q 825 75 550 275 
Q 275 475 275 850 
Q 275 1225 525 1450 
Q 775 1675 1300 1750 
Q 1650 1800 1912 1875 
Q 2175 1950 2175 2075 
Q 2175 2225 2062 2375 
Q 1950 2525 1575 2525 
Q 1275 2525 1137 2412 
Q 1000 2300 950 2100 
L 400 2100 
Q 450 2500 762 2737 
Q 1075 2975 1575 2975 
Q 2125 2975 2400 2725 
Q 2675 2475 2675 2025 
L 2675 650 
Q 2675 500 2725 375 
Q 2775 250 2875 125 
z
M 2175 1050 
L 2175 1550 
Q 2025 1500 1887 1462 
Q 1750 1425 1425 1375 
Q 1050 1325 937 1200 
Q 825 1075 825 900 
Q 825 750 937 637 
Q 1050 525 1275 525 
Q 1500 525 1762 650 
Q 2025 775 2175 1050 
z
" transform="scale(0.015625)"/>
      <path id="SimHei-6e" d="M 2800 125 
L 2300 125 
L 2300 1925 
Q 2300 2225 2150 2400 
Q 2000 2575 1750 2575 
Q 1425 2575 1137 2237 
Q 850 1900 850 1400 
L 850 125 
L 350 125 
L 350 2925 
L 850 2925 
L 850 2400 
Q 1050 2675 1287 2825 
Q 1525 2975 1900 2975 
Q 2350 2975 2575 2725 
Q 2800 2475 2800 2100 
L 2800 125 
z
" transform="scale(0.015625)"/>
      <path id="SimHei-64" d="M 2750 125 
L 2250 125 
L 2250 500 
Q 2100 275 1900 175 
Q 1700 75 1425 75 
Q 925 75 575 437 
Q 225 800 225 1525 
Q 225 2250 575 2625 
Q 925 3000 1425 3000 
Q 1700 3000 1900 2887 
Q 2100 2775 2250 2550 
L 2250 4400 
L 2750 4400 
L 2750 125 
z
M 2250 1525 
Q 2250 2000 2037 2275 
Q 1825 2550 1525 2550 
Q 1150 2550 962 2275 
Q 775 2000 775 1525 
Q 775 1050 962 787 
Q 1150 525 1525 525 
Q 1825 525 2037 787 
Q 2250 1050 2250 1525 
z
" transform="scale(0.015625)"/>
      <path id="SimHei-6f" d="M 2925 1525 
Q 2925 875 2525 475 
Q 2125 75 1575 75 
Q 1025 75 625 475 
Q 225 875 225 1525 
Q 225 2175 625 2575 
Q 1025 2975 1575 2975 
Q 2125 2975 2525 2575 
Q 2925 2175 2925 1525 
z
M 2375 1525 
Q 2375 2025 2125 2275 
Q 1875 2525 1575 2525 
Q 1275 2525 1025 2275 
Q 775 2025 775 1525 
Q 775 1025 1025 775 
Q 1275 525 1575 525 
Q 1875 525 2125 775 
Q 2375 1025 2375 1525 
z
" transform="scale(0.015625)"/>
      <path id="SimHei-6d" d="M 3050 125 
L 2550 125 
L 2550 2150 
Q 2550 2300 2500 2400 
Q 2450 2500 2300 2500 
Q 2125 2500 1975 2312 
Q 1825 2125 1825 1825 
L 1825 125 
L 1325 125 
L 1325 2150 
Q 1325 2300 1275 2400 
Q 1225 2500 1075 2500 
Q 900 2500 750 2312 
Q 600 2125 600 1825 
L 600 125 
L 100 125 
L 100 2925 
L 600 2925 
L 600 2550 
Q 725 2750 900 2862 
Q 1075 2975 1275 2975 
Q 1475 2975 1612 2862 
Q 1750 2750 1800 2550 
Q 1925 2750 2087 2862 
Q 2250 2975 2450 2975 
Q 2750 2975 2900 2812 
Q 3050 2650 3050 2350 
L 3050 125 
z
" transform="scale(0.015625)"/>
      <path id="SimHei-46" d="M 2925 3925 
L 875 3925 
L 875 2525 
L 2425 2525 
L 2425 2050 
L 875 2050 
L 875 125 
L 300 125 
L 300 4400 
L 2925 4400 
L 2925 3925 
z
" transform="scale(0.015625)"/>
      <path id="SimHei-72" d="M 2500 2425 
Q 2025 2500 1700 2287 
Q 1375 2075 1150 1550 
L 1150 125 
L 650 125 
L 650 2925 
L 1150 2925 
L 1150 2200 
Q 1375 2600 1712 2787 
Q 2050 2975 2500 2975 
L 2500 2425 
z
" transform="scale(0.015625)"/>
      <path id="SimHei-65" d="M 2850 1075 
Q 2800 625 2450 350 
Q 2100 75 1625 75 
Q 1025 75 637 462 
Q 250 850 250 1525 
Q 250 2200 637 2587 
Q 1025 2975 1625 2975 
Q 2150 2975 2487 2637 
Q 2825 2300 2825 1525 
L 800 1525 
Q 800 975 1037 750 
Q 1275 525 1625 525 
Q 1900 525 2075 662 
Q 2250 800 2300 1075 
L 2850 1075 
z
M 2250 1925 
Q 2200 2275 2025 2412 
Q 1850 2550 1575 2550 
Q 1325 2550 1125 2412 
Q 925 2275 825 1925 
L 2250 1925 
z
" transform="scale(0.015625)"/>
      <path id="SimHei-73" d="M 2750 900 
Q 2750 500 2437 287 
Q 2125 75 1650 75 
Q 1050 75 725 312 
Q 400 550 400 1000 
L 900 1000 
Q 900 700 1112 600 
Q 1325 500 1625 500 
Q 1925 500 2075 612 
Q 2225 725 2225 900 
Q 2225 1025 2100 1150 
Q 1975 1275 1475 1350 
Q 900 1425 687 1637 
Q 475 1850 475 2200 
Q 475 2500 762 2737 
Q 1050 2975 1600 2975 
Q 2100 2975 2387 2750 
Q 2675 2525 2675 2150 
L 2175 2150 
Q 2175 2375 2012 2462 
Q 1850 2550 1600 2550 
Q 1275 2550 1137 2437 
Q 1000 2325 1000 2175 
Q 1000 2000 1125 1900 
Q 1250 1800 1650 1750 
Q 2300 1650 2525 1437 
Q 2750 1225 2750 900 
z
" transform="scale(0.015625)"/>
      <path id="SimHei-74" d="M 2750 200 
Q 2625 150 2462 112 
Q 2300 75 2025 75 
Q 1575 75 1300 325 
Q 1025 575 1025 1025 
L 1025 2525 
L 175 2525 
L 175 2925 
L 1025 2925 
L 1025 3900 
L 1525 3900 
L 1525 2925 
L 2550 2925 
L 2550 2525 
L 1525 2525 
L 1525 1000 
Q 1525 800 1625 662 
Q 1725 525 2000 525 
Q 2275 525 2450 575 
Q 2625 625 2750 700 
L 2750 200 
z
" transform="scale(0.015625)"/>
      <path id="SimHei-67" d="M 2975 2500 
Q 2800 2550 2637 2562 
Q 2475 2575 2300 2525 
Q 2375 2450 2425 2337 
Q 2475 2225 2475 2000 
Q 2475 1575 2187 1300 
Q 1900 1025 1475 1025 
Q 1375 1025 1212 1062 
Q 1050 1100 950 1150 
Q 875 1100 850 1050 
Q 825 1000 825 925 
Q 825 800 1000 737 
Q 1175 675 1625 675 
Q 2350 675 2612 475 
Q 2875 275 2875 -25 
Q 2875 -425 2487 -612 
Q 2100 -800 1575 -800 
Q 900 -800 575 -625 
Q 250 -450 250 -150 
Q 250 0 375 150 
Q 500 300 700 400 
Q 550 475 462 587 
Q 375 700 375 875 
Q 375 1025 487 1137 
Q 600 1250 750 1325 
Q 625 1450 550 1625 
Q 475 1800 475 2000 
Q 475 2425 762 2700 
Q 1050 2975 1475 2975 
Q 1700 2975 1862 2912 
Q 2025 2850 2150 2725 
Q 2350 2875 2550 2937 
Q 2750 3000 2975 2975 
L 2975 2500 
z
M 1975 2000 
Q 1975 2250 1850 2400 
Q 1725 2550 1475 2550 
Q 1225 2550 1100 2400 
Q 975 2250 975 2000 
Q 975 1750 1100 1600 
Q 1225 1450 1475 1450 
Q 1725 1450 1850 1600 
Q 1975 1750 1975 2000 
z
M 2400 -75 
Q 2400 25 2287 125 
Q 2175 225 1725 225 
Q 1625 225 1450 237 
Q 1275 250 1050 275 
Q 850 200 775 100 
Q 700 0 700 -100 
Q 700 -250 900 -350 
Q 1100 -450 1600 -450 
Q 2025 -450 2212 -337 
Q 2400 -225 2400 -75 
z
" transform="scale(0.015625)"/>
      <path id="SimHei-20" transform="scale(0.015625)"/>
      <path id="SimHei-6d4b" d="M 4025 4725 
Q 4000 4475 4000 4000 
L 4000 2225 
Q 4000 1775 4025 1350 
L 3550 1350 
L 3550 4325 
L 2350 4325 
L 2350 1325 
L 1900 1325 
Q 1925 1775 1925 2225 
L 1925 4000 
Q 1925 4200 1900 4725 
L 4025 4725 
z
M 5900 5075 
Q 5875 4800 5875 4375 
L 5875 0 
Q 5875 -325 5650 -425 
Q 5425 -525 4975 -600 
Q 4925 -325 4775 -50 
Q 5125 -50 5262 -25 
Q 5400 0 5400 250 
L 5400 4375 
Q 5400 4775 5375 5075 
L 5900 5075 
z
M 3275 3725 
Q 3225 3400 3200 2325 
Q 3175 1250 2837 550 
Q 2500 -150 2075 -600 
Q 1850 -400 1600 -325 
Q 2200 250 2475 962 
Q 2750 1675 2762 2475 
Q 2775 3275 2725 3800 
Q 3000 3750 3275 3725 
z
M 4950 4275 
Q 4925 4000 4925 3575 
L 4925 1825 
Q 4925 1300 4950 850 
L 4450 850 
Q 4475 1150 4475 1825 
L 4475 3575 
Q 4475 4000 4450 4275 
L 4950 4275 
z
M 1700 1675 
Q 1375 1075 1112 487 
Q 850 -100 725 -400 
Q 500 -200 200 -25 
Q 475 300 762 850 
Q 1050 1400 1250 2000 
Q 1475 1825 1700 1675 
z
M 3400 1050 
Q 3800 650 4300 -125 
Q 4100 -225 3875 -450 
Q 3475 275 3025 750 
Q 3225 875 3400 1050 
z
M 600 3525 
Q 1125 3125 1500 2775 
Q 1300 2575 1150 2375 
Q 825 2775 300 3150 
Q 450 3300 600 3525 
z
M 1350 4000 
Q 950 4375 475 4675 
Q 625 4850 775 5050 
Q 1300 4700 1675 4375 
Q 1500 4250 1350 4000 
z
" transform="scale(0.015625)"/>
      <path id="SimHei-8bd5" d="M 3950 3825 
Q 3925 4325 3925 4550 
Q 3925 4800 3900 5225 
Q 4200 5150 4450 5125 
Q 4425 4825 4425 4600 
L 4425 3825 
L 5150 3825 
Q 5500 3825 5875 3850 
L 5875 3400 
Q 5525 3425 5125 3425 
L 4450 3425 
Q 4500 2750 4587 2212 
Q 4675 1675 4837 1112 
Q 5000 550 5212 225 
Q 5425 -100 5500 200 
Q 5575 500 5600 900 
Q 5800 625 6100 525 
Q 5975 -275 5750 -487 
Q 5525 -700 5250 -537 
Q 4975 -375 4737 62 
Q 4500 500 4337 1075 
Q 4175 1650 4100 2262 
Q 4025 2875 3975 3425 
L 2800 3425 
Q 2300 3425 1875 3400 
L 1875 3850 
Q 2275 3825 2775 3825 
L 3950 3825 
z
M 1500 3175 
Q 1475 2675 1475 2175 
L 1475 625 
Q 1825 950 2125 1225 
Q 2225 1000 2375 800 
Q 1900 425 1125 -350 
Q 1000 -125 825 50 
Q 1025 175 1025 525 
L 1025 2725 
Q 625 2725 300 2700 
L 300 3200 
Q 625 3175 825 3175 
L 1500 3175 
z
M 3775 2175 
Q 3500 2200 3250 2200 
L 3250 575 
Q 3575 675 3900 800 
Q 3900 525 3950 325 
Q 3575 250 3150 125 
Q 2725 0 2275 -175 
Q 2200 100 2025 300 
Q 2425 350 2800 475 
L 2800 2200 
Q 2525 2200 2225 2175 
L 2225 2650 
Q 2600 2625 3000 2625 
Q 3425 2625 3775 2650 
L 3775 2175 
z
M 925 4975 
Q 1275 4650 1700 4100 
Q 1525 3925 1325 3775 
Q 1175 4050 575 4650 
Q 775 4825 925 4975 
z
M 5150 5150 
Q 5325 5000 5850 4375 
Q 5575 4200 5425 4050 
Q 5125 4525 4775 4875 
Q 4925 4975 5150 5150 
z
" transform="scale(0.015625)"/>
      <path id="SimHei-96c6" d="M 2275 4925 
Q 2125 4800 2025 4662 
Q 1925 4525 1850 4350 
L 4925 4350 
Q 5300 4350 5750 4375 
L 5750 3975 
L 3650 3975 
L 3650 3575 
L 4625 3575 
Q 4925 3575 5325 3600 
L 5325 3175 
Q 4925 3200 4625 3200 
L 3650 3200 
L 3650 2800 
L 4675 2800 
Q 5000 2800 5425 2825 
L 5425 2400 
Q 5000 2425 4675 2425 
L 3650 2425 
L 3650 2075 
L 4875 2075 
Q 5275 2075 5675 2100 
L 5675 1675 
Q 5300 1700 4900 1700 
L 1650 1700 
L 1650 1500 
L 1150 1500 
Q 1200 1950 1200 2325 
L 1200 3475 
Q 1050 3250 937 3125 
Q 825 3000 675 2825 
Q 500 3000 300 3125 
Q 475 3325 875 3825 
Q 1275 4325 1462 4650 
Q 1650 4975 1725 5225 
Q 1950 5100 2275 4925 
z
M 2975 1200 
Q 2975 1300 2950 1625 
L 3475 1625 
Q 3450 1275 3450 1200 
L 5050 1200 
Q 5500 1200 5925 1225 
L 5925 825 
L 4150 825 
Q 4500 525 4925 362 
Q 5350 200 6100 25 
Q 5875 -225 5775 -475 
Q 5275 -300 4962 -162 
Q 4650 -25 4387 137 
Q 4125 300 3950 462 
Q 3775 625 3575 825 
L 3450 825 
L 3450 250 
Q 3450 -275 3500 -650 
L 2950 -650 
Q 2975 -300 2975 250 
L 2975 825 
L 2875 825 
Q 2700 575 2475 375 
Q 2250 175 1987 12 
Q 1725 -150 1425 -300 
Q 1125 -450 700 -575 
Q 600 -325 400 -75 
Q 925 50 1475 262 
Q 2025 475 2300 825 
L 500 825 
L 500 1225 
Q 800 1200 1400 1200 
L 2975 1200 
z
M 3150 2800 
L 3150 3200 
L 1650 3200 
L 1650 2800 
L 3150 2800 
z
M 3150 3575 
L 3150 3975 
L 1650 3975 
L 1650 3575 
L 3150 3575 
z
M 3150 2075 
L 3150 2425 
L 1650 2425 
L 1650 2075 
L 3150 2075 
z
M 3450 5250 
Q 3575 5150 3712 5000 
Q 3850 4850 4000 4650 
Q 3850 4525 3575 4375 
Q 3425 4575 3325 4700 
Q 3225 4825 3075 4950 
Q 3275 5075 3450 5250 
z
" transform="scale(0.015625)"/>
      <path id="SimHei-9884" d="M 5200 4800 
Q 5575 4800 5950 4825 
L 5950 4400 
Q 5575 4425 5200 4425 
L 4500 4425 
Q 4425 4050 4350 3600 
L 5725 3600 
Q 5700 3225 5700 2800 
L 5700 1725 
Q 5700 1300 5725 850 
L 5250 850 
L 5250 3225 
L 3550 3225 
L 3550 800 
L 3075 800 
Q 3100 1375 3100 1725 
L 3100 2775 
Q 3100 3175 3075 3600 
L 3900 3600 
Q 4000 4150 4000 4425 
L 3725 4425 
Q 3300 4425 2850 4400 
L 2850 4825 
Q 3325 4800 3725 4800 
L 5200 4800 
z
M 2600 1775 
Q 2350 1825 2150 1825 
Q 2250 2250 2300 2450 
L 1750 2450 
L 1750 125 
Q 1725 -300 1425 -400 
Q 1125 -500 750 -500 
Q 700 -225 575 25 
Q 1125 -25 1212 37 
Q 1300 100 1300 350 
L 1300 2450 
L 1025 2450 
Q 700 2450 350 2425 
L 350 2850 
Q 700 2825 1000 2825 
L 2850 2825 
Q 2725 2325 2600 1775 
z
M 4725 2875 
Q 4625 2575 4600 2100 
Q 4575 1625 4462 1037 
Q 4350 450 3962 62 
Q 3575 -325 2925 -675 
Q 2700 -500 2475 -350 
Q 3075 -125 3437 200 
Q 3800 525 3950 937 
Q 4100 1350 4137 1850 
Q 4175 2350 4175 2925 
L 4725 2875 
z
M 1625 2900 
Q 1275 3275 800 3650 
Q 925 3775 1075 3950 
Q 1250 3825 1425 3675 
Q 1750 4150 1950 4375 
L 1400 4375 
Q 900 4375 450 4350 
L 450 4775 
Q 900 4750 1375 4750 
L 2575 4750 
L 2575 4375 
Q 2200 4100 1725 3400 
L 1950 3200 
Q 1750 3025 1625 2900 
z
M 4775 725 
Q 5725 0 6075 -325 
Q 5850 -500 5725 -650 
Q 5400 -325 5137 -87 
Q 4875 150 4525 350 
Q 4650 525 4775 725 
z
" transform="scale(0.015625)"/>
     </defs>
     <use xlink:href="#SimHei-52"/>
     <use xlink:href="#SimHei-61" x="50"/>
     <use xlink:href="#SimHei-6e" x="100"/>
     <use xlink:href="#SimHei-64" x="150"/>
     <use xlink:href="#SimHei-6f" x="200"/>
     <use xlink:href="#SimHei-6d" x="250"/>
     <use xlink:href="#SimHei-46" x="300"/>
     <use xlink:href="#SimHei-6f" x="350"/>
     <use xlink:href="#SimHei-72" x="400"/>
     <use xlink:href="#SimHei-65" x="450"/>
     <use xlink:href="#SimHei-73" x="500"/>
     <use xlink:href="#SimHei-74" x="550"/>
     <use xlink:href="#SimHei-52" x="600"/>
     <use xlink:href="#SimHei-65" x="650"/>
     <use xlink:href="#SimHei-67" x="700"/>
     <use xlink:href="#SimHei-72" x="750"/>
     <use xlink:href="#SimHei-65" x="800"/>
     <use xlink:href="#SimHei-73" x="850"/>
     <use xlink:href="#SimHei-73" x="900"/>
     <use xlink:href="#SimHei-6f" x="950"/>
     <use xlink:href="#SimHei-72" x="1000"/>
     <use xlink:href="#SimHei-20" x="1050"/>
     <use xlink:href="#SimHei-6d4b" x="1100"/>
     <use xlink:href="#SimHei-8bd5" x="1200"/>
     <use xlink:href="#SimHei-96c6" x="1300"/>
     <use xlink:href="#SimHei-9884" x="1400"/>
     <use xlink:href="#SimHei-6d4b" x="1500"/>
    </g>
   </g>
   <g id="legend_1">
    <g id="patch_7">
     <path d="M 309.6 77.7 
L 446.6 77.7 
Q 448.6 77.7 448.6 75.7 
L 448.6 50.2 
Q 448.6 48.2 446.6 48.2 
L 309.6 48.2 
Q 307.6 48.2 307.6 50.2 
L 307.6 75.7 
Q 307.6 77.7 309.6 77.7 
z
" style="fill: #ffffff; opacity: 0.8; stroke: #cccccc; stroke-linejoin: miter"/>
    </g>
    <g id="line2d_25">
     <path d="M 311.6 55.7 
L 321.6 55.7 
L 331.6 55.7 
" style="fill: none; stroke: #1f77b4; stroke-width: 1.5; stroke-linecap: square"/>
    </g>
    <g id="text_13">
     <!-- true -->
     <g transform="translate(339.6 59.2)scale(0.1 -0.1)">
      <defs>
       <path id="SimHei-75" d="M 2800 125 
L 2300 125 
L 2300 650 
Q 2100 375 1862 225 
Q 1625 75 1250 75 
Q 800 75 575 325 
Q 350 575 350 950 
L 350 2925 
L 850 2925 
L 850 1125 
Q 850 825 1000 650 
Q 1150 475 1400 475 
Q 1725 475 2012 812 
Q 2300 1150 2300 1650 
L 2300 2925 
L 2800 2925 
L 2800 125 
z
" transform="scale(0.015625)"/>
      </defs>
      <use xlink:href="#SimHei-74"/>
      <use xlink:href="#SimHei-72" x="50"/>
      <use xlink:href="#SimHei-75" x="100"/>
      <use xlink:href="#SimHei-65" x="150"/>
     </g>
    </g>
    <g id="line2d_26">
     <path d="M 311.6 68.95 
L 321.6 68.95 
L 331.6 68.95 
" style="fill: none; stroke-dasharray: 5.55,2.4; stroke-dashoffset: 0; stroke: #ff7f0e; stroke-width: 1.5"/>
    </g>
    <g id="text_14">
     <!-- RandomForestRegressor -->
     <g transform="translate(339.6 72.45)scale(0.1 -0.1)">
      <use xlink:href="#SimHei-52"/>
      <use xlink:href="#SimHei-61" x="50"/>
      <use xlink:href="#SimHei-6e" x="100"/>
      <use xlink:href="#SimHei-64" x="150"/>
      <use xlink:href="#SimHei-6f" x="200"/>
      <use xlink:href="#SimHei-6d" x="250"/>
      <use xlink:href="#SimHei-46" x="300"/>
      <use xlink:href="#SimHei-6f" x="350"/>
      <use xlink:href="#SimHei-72" x="400"/>
      <use xlink:href="#SimHei-65" x="450"/>
      <use xlink:href="#SimHei-73" x="500"/>
      <use xlink:href="#SimHei-74" x="550"/>
      <use xlink:href="#SimHei-52" x="600"/>
      <use xlink:href="#SimHei-65" x="650"/>
      <use xlink:href="#SimHei-67" x="700"/>
      <use xlink:href="#SimHei-72" x="750"/>
      <use xlink:href="#SimHei-65" x="800"/>
      <use xlink:href="#SimHei-73" x="850"/>
      <use xlink:href="#SimHei-73" x="900"/>
      <use xlink:href="#SimHei-6f" x="950"/>
      <use xlink:href="#SimHei-72" x="1000"/>
     </g>
    </g>
   </g>
  </g>
 </g>
 <defs>
  <clipPath id="p9fe74f4528">
   <rect x="63" y="43.2" width="390.6" height="277.2"/>
  </clipPath>
 </defs>
</svg>
