<?xml version="1.0" encoding="utf-8" standalone="no"?>
<!DOCTYPE svg PUBLIC "-//W3C//DTD SVG 1.1//EN"
  "http://www.w3.org/Graphics/SVG/1.1/DTD/svg11.dtd">
<svg xmlns:xlink="http://www.w3.org/1999/xlink" width="504pt" height="360pt" viewBox="0 0 504 360" xmlns="http://www.w3.org/2000/svg" version="1.1">
 <metadata>
  <rdf:RDF xmlns:dc="http://purl.org/dc/elements/1.1/" xmlns:cc="http://creativecommons.org/ns#" xmlns:rdf="http://www.w3.org/1999/02/22-rdf-syntax-ns#">
   <cc:Work>
    <dc:type rdf:resource="http://purl.org/dc/dcmitype/StillImage"/>
    <dc:date>2025-01-12T15:55:38.911750</dc:date>
    <dc:format>image/svg+xml</dc:format>
    <dc:creator>
     <cc:Agent>
      <dc:title>Matplotlib v3.5.3, https://matplotlib.org/</dc:title>
     </cc:Agent>
    </dc:creator>
   </cc:Work>
  </rdf:RDF>
 </metadata>
 <defs>
  <style type="text/css">*{stroke-linejoin: round; stroke-linecap: butt}</style>
 </defs>
 <g id="figure_1">
  <g id="patch_1">
   <path d="M 0 360 
L 504 360 
L 504 0 
L 0 0 
z
" style="fill: #ffffff"/>
  </g>
  <g id="axes_1">
   <g id="patch_2">
    <path d="M 63 320.4 
L 453.6 320.4 
L 453.6 43.2 
L 63 43.2 
z
" style="fill: #ffffff"/>
   </g>
   <g id="matplotlib.axis_1">
    <g id="xtick_1">
     <g id="line2d_1">
      <path d="M 80.754545 320.4 
L 80.754545 43.2 
" clip-path="url(#p5617c50567)" style="fill: none; stroke: #b0b0b0; stroke-width: 0.8; stroke-linecap: square"/>
     </g>
     <g id="line2d_2">
      <defs>
       <path id="mbf8520816f" d="M 0 0 
L 0 3.5 
" style="stroke: #000000; stroke-width: 0.8"/>
      </defs>
      <g>
       <use xlink:href="#mbf8520816f" x="80.754545" y="320.4" style="stroke: #000000; stroke-width: 0.8"/>
      </g>
     </g>
     <g id="text_1">
      <!-- 0 -->
      <g transform="translate(78.254545 334.275)scale(0.1 -0.1)">
       <defs>
        <path id="SimHei-30" d="M 225 2537 
Q 250 3200 412 3587 
Q 575 3975 875 4225 
Q 1175 4475 1612 4475 
Q 2050 4475 2375 4112 
Q 2700 3750 2800 3200 
Q 2900 2650 2862 1937 
Q 2825 1225 2612 775 
Q 2400 325 1975 150 
Q 1550 -25 1125 187 
Q 700 400 525 750 
Q 350 1100 275 1487 
Q 200 1875 225 2537 
z
M 750 2687 
Q 675 2000 800 1462 
Q 925 925 1212 700 
Q 1500 475 1800 612 
Q 2100 750 2237 1162 
Q 2375 1575 2375 2062 
Q 2375 2550 2337 2950 
Q 2300 3350 2112 3675 
Q 1925 4000 1612 4012 
Q 1300 4025 1062 3700 
Q 825 3375 750 2687 
z
" transform="scale(0.015625)"/>
       </defs>
       <use xlink:href="#SimHei-30"/>
      </g>
     </g>
    </g>
    <g id="xtick_2">
     <g id="line2d_3">
      <path d="M 148.390909 320.4 
L 148.390909 43.2 
" clip-path="url(#p5617c50567)" style="fill: none; stroke: #b0b0b0; stroke-width: 0.8; stroke-linecap: square"/>
     </g>
     <g id="line2d_4">
      <g>
       <use xlink:href="#mbf8520816f" x="148.390909" y="320.4" style="stroke: #000000; stroke-width: 0.8"/>
      </g>
     </g>
     <g id="text_2">
      <!-- 100 -->
      <g transform="translate(140.890909 334.275)scale(0.1 -0.1)">
       <defs>
        <path id="SimHei-31" d="M 1400 3600 
Q 1075 3275 575 2975 
L 575 3450 
Q 1200 3875 1600 4450 
L 1900 4450 
L 1900 150 
L 1400 150 
L 1400 3600 
z
" transform="scale(0.015625)"/>
       </defs>
       <use xlink:href="#SimHei-31"/>
       <use xlink:href="#SimHei-30" x="50"/>
       <use xlink:href="#SimHei-30" x="100"/>
      </g>
     </g>
    </g>
    <g id="xtick_3">
     <g id="line2d_5">
      <path d="M 216.027273 320.4 
L 216.027273 43.2 
" clip-path="url(#p5617c50567)" style="fill: none; stroke: #b0b0b0; stroke-width: 0.8; stroke-linecap: square"/>
     </g>
     <g id="line2d_6">
      <g>
       <use xlink:href="#mbf8520816f" x="216.027273" y="320.4" style="stroke: #000000; stroke-width: 0.8"/>
      </g>
     </g>
     <g id="text_3">
      <!-- 200 -->
      <g transform="translate(208.527273 334.275)scale(0.1 -0.1)">
       <defs>
        <path id="SimHei-32" d="M 300 250 
Q 325 625 650 925 
Q 975 1225 1475 1862 
Q 1975 2500 2125 2850 
Q 2275 3200 2237 3450 
Q 2200 3700 2000 3862 
Q 1800 4025 1537 4000 
Q 1275 3975 1037 3800 
Q 800 3625 675 3275 
L 200 3350 
Q 400 3925 712 4187 
Q 1025 4450 1450 4475 
Q 1700 4500 1900 4462 
Q 2100 4425 2312 4287 
Q 2525 4150 2662 3875 
Q 2800 3600 2762 3212 
Q 2725 2825 2375 2287 
Q 2025 1750 1025 600 
L 2825 600 
L 2825 150 
L 300 150 
L 300 250 
z
" transform="scale(0.015625)"/>
       </defs>
       <use xlink:href="#SimHei-32"/>
       <use xlink:href="#SimHei-30" x="50"/>
       <use xlink:href="#SimHei-30" x="100"/>
      </g>
     </g>
    </g>
    <g id="xtick_4">
     <g id="line2d_7">
      <path d="M 283.663636 320.4 
L 283.663636 43.2 
" clip-path="url(#p5617c50567)" style="fill: none; stroke: #b0b0b0; stroke-width: 0.8; stroke-linecap: square"/>
     </g>
     <g id="line2d_8">
      <g>
       <use xlink:href="#mbf8520816f" x="283.663636" y="320.4" style="stroke: #000000; stroke-width: 0.8"/>
      </g>
     </g>
     <g id="text_4">
      <!-- 300 -->
      <g transform="translate(276.163636 334.275)scale(0.1 -0.1)">
       <defs>
        <path id="SimHei-33" d="M 250 1225 
L 700 1300 
Q 800 975 1025 762 
Q 1250 550 1587 562 
Q 1925 575 2125 837 
Q 2325 1100 2300 1437 
Q 2275 1775 2037 1962 
Q 1800 2150 1275 2225 
L 1275 2550 
Q 1800 2600 2037 2825 
Q 2275 3050 2250 3412 
Q 2225 3775 1925 3937 
Q 1625 4100 1287 3975 
Q 950 3850 750 3275 
L 300 3350 
Q 450 3800 712 4100 
Q 975 4400 1425 4450 
Q 1875 4500 2212 4337 
Q 2550 4175 2687 3837 
Q 2825 3500 2725 3100 
Q 2625 2700 2150 2400 
Q 2500 2250 2687 1950 
Q 2875 1650 2812 1162 
Q 2750 675 2375 375 
Q 2000 75 1525 87 
Q 1050 100 700 387 
Q 350 675 250 1225 
z
" transform="scale(0.015625)"/>
       </defs>
       <use xlink:href="#SimHei-33"/>
       <use xlink:href="#SimHei-30" x="50"/>
       <use xlink:href="#SimHei-30" x="100"/>
      </g>
     </g>
    </g>
    <g id="xtick_5">
     <g id="line2d_9">
      <path d="M 351.3 320.4 
L 351.3 43.2 
" clip-path="url(#p5617c50567)" style="fill: none; stroke: #b0b0b0; stroke-width: 0.8; stroke-linecap: square"/>
     </g>
     <g id="line2d_10">
      <g>
       <use xlink:href="#mbf8520816f" x="351.3" y="320.4" style="stroke: #000000; stroke-width: 0.8"/>
      </g>
     </g>
     <g id="text_5">
      <!-- 400 -->
      <g transform="translate(343.8 334.275)scale(0.1 -0.1)">
       <defs>
        <path id="SimHei-34" d="M 2000 1100 
L 75 1100 
L 75 1525 
L 2100 4450 
L 2475 4450 
L 2475 1525 
L 3075 1525 
L 3075 1100 
L 2475 1100 
L 2475 150 
L 2000 150 
L 2000 1100 
z
M 2000 1525 
L 2000 3500 
L 600 1525 
L 2000 1525 
z
" transform="scale(0.015625)"/>
       </defs>
       <use xlink:href="#SimHei-34"/>
       <use xlink:href="#SimHei-30" x="50"/>
       <use xlink:href="#SimHei-30" x="100"/>
      </g>
     </g>
    </g>
    <g id="xtick_6">
     <g id="line2d_11">
      <path d="M 418.936364 320.4 
L 418.936364 43.2 
" clip-path="url(#p5617c50567)" style="fill: none; stroke: #b0b0b0; stroke-width: 0.8; stroke-linecap: square"/>
     </g>
     <g id="line2d_12">
      <g>
       <use xlink:href="#mbf8520816f" x="418.936364" y="320.4" style="stroke: #000000; stroke-width: 0.8"/>
      </g>
     </g>
     <g id="text_6">
      <!-- 500 -->
      <g transform="translate(411.436364 334.275)scale(0.1 -0.1)">
       <defs>
        <path id="SimHei-35" d="M 550 1325 
Q 725 650 1150 575 
Q 1575 500 1837 662 
Q 2100 825 2212 1087 
Q 2325 1350 2312 1675 
Q 2300 2000 2137 2225 
Q 1975 2450 1725 2525 
Q 1475 2600 1162 2525 
Q 850 2450 650 2175 
L 225 2225 
Q 275 2375 700 4375 
L 2675 4375 
L 2675 3925 
L 1075 3925 
Q 950 3250 825 2850 
Q 1200 3025 1525 3012 
Q 1850 3000 2150 2862 
Q 2450 2725 2587 2487 
Q 2725 2250 2787 2012 
Q 2850 1775 2837 1500 
Q 2825 1225 2725 937 
Q 2625 650 2425 462 
Q 2225 275 1937 162 
Q 1650 50 1275 75 
Q 900 100 562 350 
Q 225 600 100 1200 
L 550 1325 
z
" transform="scale(0.015625)"/>
       </defs>
       <use xlink:href="#SimHei-35"/>
       <use xlink:href="#SimHei-30" x="50"/>
       <use xlink:href="#SimHei-30" x="100"/>
      </g>
     </g>
    </g>
   </g>
   <g id="matplotlib.axis_2">
    <g id="ytick_1">
     <g id="line2d_13">
      <path d="M 63 311.691852 
L 453.6 311.691852 
" clip-path="url(#p5617c50567)" style="fill: none; stroke: #b0b0b0; stroke-width: 0.8; stroke-linecap: square"/>
     </g>
     <g id="line2d_14">
      <defs>
       <path id="m8438abd591" d="M 0 0 
L -3.5 0 
" style="stroke: #000000; stroke-width: 0.8"/>
      </defs>
      <g>
       <use xlink:href="#m8438abd591" x="63" y="311.691852" style="stroke: #000000; stroke-width: 0.8"/>
      </g>
     </g>
     <g id="text_7">
      <!-- -200 -->
      <g transform="translate(36 315.129352)scale(0.1 -0.1)">
       <defs>
        <path id="SimHei-2d" d="M 2975 2125 
L 125 2125 
L 125 2525 
L 2975 2525 
L 2975 2125 
z
" transform="scale(0.015625)"/>
       </defs>
       <use xlink:href="#SimHei-2d"/>
       <use xlink:href="#SimHei-32" x="50"/>
       <use xlink:href="#SimHei-30" x="100"/>
       <use xlink:href="#SimHei-30" x="150"/>
      </g>
     </g>
    </g>
    <g id="ytick_2">
     <g id="line2d_15">
      <path d="M 63 269.236801 
L 453.6 269.236801 
" clip-path="url(#p5617c50567)" style="fill: none; stroke: #b0b0b0; stroke-width: 0.8; stroke-linecap: square"/>
     </g>
     <g id="line2d_16">
      <g>
       <use xlink:href="#m8438abd591" x="63" y="269.236801" style="stroke: #000000; stroke-width: 0.8"/>
      </g>
     </g>
     <g id="text_8">
      <!-- 0 -->
      <g transform="translate(51 272.674301)scale(0.1 -0.1)">
       <use xlink:href="#SimHei-30"/>
      </g>
     </g>
    </g>
    <g id="ytick_3">
     <g id="line2d_17">
      <path d="M 63 226.78175 
L 453.6 226.78175 
" clip-path="url(#p5617c50567)" style="fill: none; stroke: #b0b0b0; stroke-width: 0.8; stroke-linecap: square"/>
     </g>
     <g id="line2d_18">
      <g>
       <use xlink:href="#m8438abd591" x="63" y="226.78175" style="stroke: #000000; stroke-width: 0.8"/>
      </g>
     </g>
     <g id="text_9">
      <!-- 200 -->
      <g transform="translate(41 230.21925)scale(0.1 -0.1)">
       <use xlink:href="#SimHei-32"/>
       <use xlink:href="#SimHei-30" x="50"/>
       <use xlink:href="#SimHei-30" x="100"/>
      </g>
     </g>
    </g>
    <g id="ytick_4">
     <g id="line2d_19">
      <path d="M 63 184.326698 
L 453.6 184.326698 
" clip-path="url(#p5617c50567)" style="fill: none; stroke: #b0b0b0; stroke-width: 0.8; stroke-linecap: square"/>
     </g>
     <g id="line2d_20">
      <g>
       <use xlink:href="#m8438abd591" x="63" y="184.326698" style="stroke: #000000; stroke-width: 0.8"/>
      </g>
     </g>
     <g id="text_10">
      <!-- 400 -->
      <g transform="translate(41 187.764198)scale(0.1 -0.1)">
       <use xlink:href="#SimHei-34"/>
       <use xlink:href="#SimHei-30" x="50"/>
       <use xlink:href="#SimHei-30" x="100"/>
      </g>
     </g>
    </g>
    <g id="ytick_5">
     <g id="line2d_21">
      <path d="M 63 141.871647 
L 453.6 141.871647 
" clip-path="url(#p5617c50567)" style="fill: none; stroke: #b0b0b0; stroke-width: 0.8; stroke-linecap: square"/>
     </g>
     <g id="line2d_22">
      <g>
       <use xlink:href="#m8438abd591" x="63" y="141.871647" style="stroke: #000000; stroke-width: 0.8"/>
      </g>
     </g>
     <g id="text_11">
      <!-- 600 -->
      <g transform="translate(41 145.309147)scale(0.1 -0.1)">
       <defs>
        <path id="SimHei-36" d="M 250 1612 
Q 275 1975 387 2225 
Q 500 2475 725 2850 
L 1750 4450 
L 2325 4450 
L 1275 2800 
Q 1950 2975 2350 2750 
Q 2750 2525 2887 2237 
Q 3025 1950 3037 1612 
Q 3050 1275 2937 950 
Q 2825 625 2537 362 
Q 2250 100 1737 75 
Q 1225 50 862 262 
Q 500 475 362 862 
Q 225 1250 250 1612 
z
M 1025 787 
Q 1250 550 1625 525 
Q 2000 500 2250 775 
Q 2500 1050 2500 1575 
Q 2500 2100 2187 2300 
Q 1875 2500 1487 2450 
Q 1100 2400 925 2075 
Q 750 1750 775 1387 
Q 800 1025 1025 787 
z
" transform="scale(0.015625)"/>
       </defs>
       <use xlink:href="#SimHei-36"/>
       <use xlink:href="#SimHei-30" x="50"/>
       <use xlink:href="#SimHei-30" x="100"/>
      </g>
     </g>
    </g>
    <g id="ytick_6">
     <g id="line2d_23">
      <path d="M 63 99.416596 
L 453.6 99.416596 
" clip-path="url(#p5617c50567)" style="fill: none; stroke: #b0b0b0; stroke-width: 0.8; stroke-linecap: square"/>
     </g>
     <g id="line2d_24">
      <g>
       <use xlink:href="#m8438abd591" x="63" y="99.416596" style="stroke: #000000; stroke-width: 0.8"/>
      </g>
     </g>
     <g id="text_12">
      <!-- 800 -->
      <g transform="translate(41 102.854096)scale(0.1 -0.1)">
       <defs>
        <path id="SimHei-38" d="M 175 1375 
Q 175 1675 325 1962 
Q 475 2250 825 2425 
Q 525 2600 425 2812 
Q 325 3025 312 3300 
Q 300 3575 387 3775 
Q 475 3975 650 4150 
Q 825 4325 1037 4387 
Q 1250 4450 1500 4450 
Q 1750 4450 1950 4400 
Q 2150 4350 2375 4187 
Q 2600 4025 2700 3725 
Q 2800 3425 2687 3025 
Q 2575 2625 2100 2400 
Q 2525 2275 2700 2012 
Q 2875 1750 2875 1375 
Q 2875 1000 2762 775 
Q 2650 550 2512 400 
Q 2375 250 2137 162 
Q 1900 75 1537 75 
Q 1175 75 912 162 
Q 650 250 475 425 
Q 300 600 237 837 
Q 175 1075 175 1375 
z
M 687 1400 
Q 675 1100 787 875 
Q 900 650 1200 587 
Q 1500 525 1825 600 
Q 2150 675 2275 950 
Q 2400 1225 2362 1500 
Q 2325 1775 2050 1962 
Q 1775 2150 1450 2125 
Q 1125 2100 912 1900 
Q 700 1700 687 1400 
z
M 775 3350 
Q 775 3100 950 2875 
Q 1125 2650 1500 2650 
Q 1875 2650 2062 2875 
Q 2250 3100 2237 3412 
Q 2225 3725 2012 3875 
Q 1800 4025 1437 4000 
Q 1075 3975 925 3787 
Q 775 3600 775 3350 
z
" transform="scale(0.015625)"/>
       </defs>
       <use xlink:href="#SimHei-38"/>
       <use xlink:href="#SimHei-30" x="50"/>
       <use xlink:href="#SimHei-30" x="100"/>
      </g>
     </g>
    </g>
    <g id="ytick_7">
     <g id="line2d_25">
      <path d="M 63 56.961545 
L 453.6 56.961545 
" clip-path="url(#p5617c50567)" style="fill: none; stroke: #b0b0b0; stroke-width: 0.8; stroke-linecap: square"/>
     </g>
     <g id="line2d_26">
      <g>
       <use xlink:href="#m8438abd591" x="63" y="56.961545" style="stroke: #000000; stroke-width: 0.8"/>
      </g>
     </g>
     <g id="text_13">
      <!-- 1000 -->
      <g transform="translate(36 60.399045)scale(0.1 -0.1)">
       <use xlink:href="#SimHei-31"/>
       <use xlink:href="#SimHei-30" x="50"/>
       <use xlink:href="#SimHei-30" x="100"/>
       <use xlink:href="#SimHei-30" x="150"/>
      </g>
     </g>
    </g>
   </g>
   <g id="line2d_27">
    <path d="M 80.754545 156.051634 
L 81.430909 202.752191 
L 82.107273 173.33084 
L 82.783636 210.56392 
L 83.46 202.879556 
L 84.136364 174.328534 
L 84.812727 179.975056 
L 85.489091 180.399606 
L 86.165455 174.668174 
L 86.841818 200.671893 
L 87.518182 220.43472 
L 88.194545 207.868024 
L 88.870909 184.517746 
L 89.547273 233.808061 
L 90.9 215.998167 
L 91.576364 214.745743 
L 92.252727 223.809896 
L 92.929091 177.27916 
L 93.605455 189.484987 
L 94.281818 213.939097 
L 94.958182 161.783066 
L 96.310909 91.498729 
L 96.987273 92.560105 
L 97.663636 96.784383 
L 98.34 130.196508 
L 99.016364 234.529797 
L 99.692727 182.055353 
L 100.369091 152.442955 
L 101.045455 198.506686 
L 101.721818 232.810367 
L 102.398182 210.500238 
L 103.074545 174.837995 
L 103.750909 192.711571 
L 104.427273 110.96437 
L 105.103636 179.911373 
L 105.78 162.419892 
L 106.456364 200.735576 
L 107.132727 140.958864 
L 107.809091 121.280947 
L 108.485455 120.431846 
L 109.161818 154.969031 
L 109.838182 137.201592 
L 111.190909 118.988375 
L 111.867273 100.83884 
L 112.543636 103.492281 
L 113.22 94.534265 
L 113.896364 89.715617 
L 114.572727 104.150334 
L 115.249091 123.106515 
L 115.925455 99.204321 
L 116.601818 111.346465 
L 117.278182 94.74654 
L 117.954545 100.244469 
L 118.630909 96.232467 
L 119.307273 96.508425 
L 119.983636 90.840676 
L 120.66 151.105621 
L 121.336364 89.651934 
L 122.012727 120.262026 
L 122.689091 99.268003 
L 123.365455 121.493223 
L 124.041818 120.983762 
L 124.718182 119.11574 
L 125.394545 111.601196 
L 126.070909 131.406477 
L 126.747273 106.909913 
L 127.423636 93.048338 
L 128.1 115.273558 
L 128.776364 100.393062 
L 129.452727 97.527346 
L 130.129091 111.197873 
L 130.805455 159.108398 
L 131.481818 230.347974 
L 132.158182 217.505321 
L 132.834545 212.092302 
L 133.510909 214.85188 
L 134.187273 142.211288 
L 134.863636 204.153207 
L 136.216364 269.491531 
L 137.569091 269.342939 
L 138.921818 269.342939 
L 139.598182 234.805754 
L 140.274545 219.564391 
L 140.950909 180.102421 
L 142.303636 239.794223 
L 142.98 166.771535 
L 143.656364 140.279583 
L 144.332727 153.843972 
L 145.009091 154.056247 
L 145.685455 135.694437 
L 146.361818 214.788198 
L 147.038182 249.006969 
L 147.714545 261.127886 
L 148.390909 255.545047 
L 149.067273 251.426907 
L 149.743636 259.641959 
L 150.42 269.364166 
L 151.096364 269.364166 
L 151.772727 224.510404 
L 152.449091 228.649772 
L 153.125455 190.079358 
L 153.801818 106.570272 
L 154.478182 100.58411 
L 155.154545 88.824061 
L 155.830909 91.859597 
L 156.507273 198.527913 
L 157.183636 269.533986 
L 157.86 196.23534 
L 158.536364 99.989739 
L 159.212727 93.982349 
L 159.889091 92.071872 
L 160.565455 89.673162 
L 161.241818 90.416125 
L 161.918182 129.283725 
L 162.594545 96.784383 
L 163.270909 92.390285 
L 163.947273 163.417586 
L 164.623636 196.723573 
L 165.3 203.304106 
L 165.976364 213.429636 
L 166.652727 221.644689 
L 167.329091 227.843126 
L 168.005455 226.484564 
L 168.681818 220.498402 
L 169.358182 202.306413 
L 170.034545 227.843126 
L 170.710909 205.766499 
L 171.387273 221.050318 
L 172.063636 218.757745 
L 172.74 176.854609 
L 174.092727 220.286127 
L 174.769091 215.361341 
L 175.445455 160.063637 
L 176.121818 165.328063 
L 176.798182 160.912738 
L 177.474545 160.700462 
L 178.150909 113.469218 
L 178.827273 120.983762 
L 179.503636 179.317002 
L 180.18 189.782173 
L 180.856364 186.173493 
L 181.532727 193.369624 
L 182.209091 213.259816 
L 182.885455 197.827405 
L 183.561818 178.658949 
L 184.238182 218.184602 
L 184.914545 204.344255 
L 185.590909 188.190108 
L 186.267273 215.042928 
L 186.943636 230.135699 
L 187.62 177.852303 
L 188.296364 243.42413 
L 188.972727 217.866189 
L 189.649091 239.072487 
L 190.325455 250.004663 
L 191.678182 212.347032 
L 192.354545 175.750778 
L 193.030909 186.428224 
L 193.707273 243.42413 
L 194.383636 181.524665 
L 195.06 177.066885 
L 195.736364 241.025419 
L 196.412727 261.488754 
L 197.089091 256.309238 
L 197.765455 248.072958 
L 198.441818 252.063733 
L 199.794545 269.385394 
L 201.823636 269.406621 
L 202.5 260.830701 
L 203.176364 257.030974 
L 203.852727 227.524713 
L 204.529091 254.165258 
L 205.205455 255.86346 
L 205.881818 249.091879 
L 206.558182 263.356776 
L 207.234545 253.761935 
L 207.910909 246.120026 
L 208.587273 173.967666 
L 209.263636 162.165162 
L 209.94 211.328111 
L 210.616364 113.723948 
L 211.292727 210.3941 
L 211.969091 243.76377 
L 212.645455 244.485506 
L 213.321818 259.344774 
L 213.998182 249.877298 
L 214.674545 236.886052 
L 215.350909 243.59395 
L 216.027273 269.215573 
L 216.703636 269.364166 
L 217.38 257.306932 
L 218.056364 235.124167 
L 218.732727 258.453218 
L 219.409091 259.578277 
L 220.085455 221.220138 
L 220.761818 230.623932 
L 221.438182 203.197969 
L 222.114545 126.800104 
L 222.790909 101.072343 
L 223.467273 92.17801 
L 224.143636 205.787727 
L 224.82 255.078041 
L 225.496364 203.516382 
L 226.172727 166.007344 
L 226.849091 113.936224 
L 227.525455 126.778877 
L 228.201818 245.186014 
L 228.878182 269.491531 
L 229.554545 269.491531 
L 230.230909 245.39829 
L 230.907273 216.804813 
L 231.583636 216.507627 
L 232.26 197.190579 
L 232.936364 207.422246 
L 233.612727 153.270828 
L 234.289091 207.167516 
L 234.965455 221.19891 
L 235.641818 221.984329 
L 236.994545 226.633157 
L 237.670909 174.944132 
L 238.347273 195.195192 
L 239.023636 179.50805 
L 239.7 134.420786 
L 240.376364 131.300339 
L 241.052727 93.196931 
L 241.729091 101.751624 
L 242.405455 131.257884 
L 243.081818 269.364166 
L 246.463636 269.364166 
L 247.14 88.866516 
L 247.816364 90.331215 
L 248.492727 92.899746 
L 249.169091 89.015108 
L 249.845455 92.0931 
L 250.521818 88.824061 
L 251.874545 96.168785 
L 252.550909 96.083874 
L 253.227273 90.776993 
L 253.903636 111.473831 
L 254.58 111.13419 
L 255.256364 157.028101 
L 255.932727 131.89471 
L 256.609091 128.880402 
L 257.285455 95.149863 
L 257.961818 145.841195 
L 258.638182 214.130144 
L 259.314545 230.772525 
L 259.990909 243.742543 
L 260.667273 249.877298 
L 261.343636 232.131086 
L 262.02 224.658997 
L 262.696364 244.612871 
L 263.372727 239.900361 
L 264.049091 222.49379 
L 264.725455 239.539493 
L 265.401818 247.138947 
L 266.078182 240.346139 
L 266.754545 222.196604 
L 268.107273 262.486448 
L 268.783636 265.203571 
L 269.46 269.406621 
L 270.136364 259.047589 
L 270.812727 265.033751 
L 271.489091 269.406621 
L 272.165455 215.637299 
L 272.841818 222.982023 
L 273.518182 221.941874 
L 274.870909 129.156359 
L 275.547273 219.988942 
L 276.223636 190.334088 
L 276.9 245.101104 
L 277.576364 247.818228 
L 278.252727 248.157868 
L 278.929091 196.957076 
L 279.605455 228.819592 
L 280.281818 223.130615 
L 280.958182 234.572252 
L 281.634545 197.339172 
L 282.310909 242.086796 
L 282.987273 222.599927 
L 283.663636 168.299917 
L 284.34 227.2063 
L 285.016364 180.229786 
L 285.692727 204.089525 
L 286.369091 213.811732 
L 287.045455 196.086748 
L 287.721818 245.674248 
L 288.398182 202.179048 
L 289.750909 172.142099 
L 290.427273 174.986587 
L 291.103636 219.458253 
L 291.78 199.228421 
L 292.456364 227.652078 
L 293.132727 214.979245 
L 293.809091 258.623038 
L 295.161818 255.078041 
L 295.838182 258.071122 
L 296.514545 269.385394 
L 298.543636 269.342939 
L 308.012727 269.364166 
L 308.689091 263.229411 
L 309.365455 269.342939 
L 310.041818 259.875462 
L 310.718182 266.986683 
L 311.394545 269.342939 
L 316.129091 269.406621 
L 316.805455 266.349857 
L 317.481818 269.364166 
L 324.921818 269.385394 
L 325.598182 268.515065 
L 326.274545 269.364166 
L 326.950909 259.408457 
L 327.627273 256.521513 
L 328.303636 256.415375 
L 328.98 260.469833 
L 329.656364 253.316157 
L 330.332727 269.364166 
L 331.009091 269.385394 
L 331.685455 260.384923 
L 332.361818 263.208184 
L 333.038182 269.406621 
L 334.390909 269.364166 
L 335.067273 269.364166 
L 335.743636 269.491531 
L 336.42 269.364166 
L 337.772727 269.364166 
L 339.125455 234.487342 
L 339.801818 184.730021 
L 340.478182 200.756803 
L 341.154545 125.823638 
L 341.830909 204.981081 
L 342.507273 234.635934 
L 343.183636 258.474445 
L 343.86 252.467056 
L 344.536364 243.59395 
L 345.212727 258.856541 
L 345.889091 253.294929 
L 346.565455 251.108494 
L 347.241818 255.736095 
L 347.918182 254.886994 
L 348.594545 257.137111 
L 349.270909 244.145866 
L 349.947273 251.448134 
L 350.623636 233.935426 
L 351.3 244.782691 
L 351.976364 221.092773 
L 352.652727 155.499719 
L 353.329091 163.651089 
L 354.005455 153.674151 
L 354.681818 122.023911 
L 355.358182 109.287395 
L 356.034545 135.736892 
L 356.710909 108.693025 
L 357.387273 109.053893 
L 358.063636 146.414338 
L 358.74 106.273087 
L 359.416364 123.700885 
L 360.092727 156.115317 
L 360.769091 125.271722 
L 361.445455 157.473879 
L 362.121818 115.931611 
L 362.798182 158.471572 
L 363.474545 147.433259 
L 364.150909 141.574462 
L 364.827273 211.264428 
L 365.503636 160.254684 
L 366.18 173.670481 
L 366.856364 167.005038 
L 367.532727 210.457783 
L 368.209091 236.419046 
L 368.885455 227.397348 
L 369.561818 173.840301 
L 370.238182 138.645063 
L 370.914545 198.506686 
L 371.590909 189.506215 
L 372.267273 218.863883 
L 372.943636 137.031771 
L 373.62 106.421679 
L 374.296364 194.558366 
L 374.972727 167.408361 
L 375.649091 180.399606 
L 376.325455 155.754449 
L 377.001818 104.086652 
L 377.678182 93.324296 
L 378.354545 163.587406 
L 379.030909 169.637251 
L 379.707273 211.455476 
L 380.383636 206.6156 
L 381.06 152.209452 
L 381.736364 240.579641 
L 382.412727 195.619742 
L 383.089091 193.475762 
L 383.765455 205.065991 
L 384.441818 239.900361 
L 385.118182 210.30919 
L 385.794545 228.904502 
L 386.470909 205.511769 
L 387.147273 230.687614 
L 387.823636 207.337336 
L 388.5 246.926672 
L 389.176364 233.256145 
L 389.852727 159.363128 
L 390.529091 180.059966 
L 391.205455 179.0835 
L 391.881818 141.234821 
L 392.558182 155.372354 
L 393.234545 137.753507 
L 393.910909 106.315542 
L 394.587273 155.903042 
L 395.263636 182.097808 
L 395.94 173.479433 
L 396.616364 148.19745 
L 397.292727 166.538032 
L 397.969091 102.38845 
L 398.645455 113.129578 
L 399.321818 178.807542 
L 399.998182 123.23388 
L 400.674545 144.24913 
L 401.350909 149.662149 
L 402.027273 124.741034 
L 402.703636 94.534265 
L 403.38 89.439659 
L 404.056364 89.800527 
L 404.732727 101.178481 
L 405.409091 123.615975 
L 406.085455 162.165162 
L 406.761818 215.616071 
L 407.438182 148.048857 
L 408.114545 222.727292 
L 408.790909 220.710677 
L 409.467273 219.097385 
L 410.143636 269.512759 
L 410.82 241.78961 
L 411.496364 227.652078 
L 412.172727 257.370614 
L 412.849091 255.481364 
L 413.525455 228.331359 
L 414.201818 219.245978 
L 415.554545 140.661678 
L 416.230909 127.160972 
L 416.907273 104.978208 
L 417.583636 147.794127 
L 418.26 113.596583 
L 418.936364 105.593806 
L 419.612727 128.286031 
L 420.289091 157.410196 
L 420.965455 221.092773 
L 421.641818 248.242778 
L 422.318182 269.449076 
L 422.994545 234.699617 
L 423.670909 209.693592 
L 425.023636 237.33183 
L 425.7 238.775302 
L 426.376364 221.135228 
L 427.052727 185.68526 
L 427.729091 159.490493 
L 428.405455 163.799681 
L 429.081818 220.477175 
L 429.758182 156.072862 
L 430.434545 167.493271 
L 431.110909 136.670903 
L 431.787273 131.024382 
L 432.463636 177.512663 
L 433.14 171.844913 
L 433.816364 94.958816 
L 435.169091 89.269839 
L 435.845455 91.371364 
L 435.845455 91.371364 
" clip-path="url(#p5617c50567)" style="fill: none; stroke: #1f77b4; stroke-width: 1.5; stroke-linecap: square"/>
   </g>
   <g id="line2d_28">
    <path d="M 80.754545 160.315288 
L 81.430909 190.466391 
L 82.107273 181.11205 
L 82.783636 195.9042 
L 83.46 207.132666 
L 84.812727 174.275684 
L 85.489091 180.793438 
L 86.165455 179.848802 
L 86.841818 189.467242 
L 87.518182 211.333495 
L 88.194545 206.433818 
L 88.870909 196.875294 
L 89.547273 214.467865 
L 90.223636 221.457195 
L 91.576364 215.76102 
L 92.252727 219.803475 
L 92.929091 192.643771 
L 93.605455 187.693735 
L 94.281818 201.564693 
L 94.958182 183.994219 
L 95.634545 150.109538 
L 96.310909 94.758672 
L 96.987273 86.073114 
L 97.663636 114.494244 
L 98.34 137.407399 
L 99.016364 189.492915 
L 99.692727 189.504175 
L 100.369091 178.065201 
L 101.045455 182.99888 
L 101.721818 220.292996 
L 102.398182 206.523549 
L 103.750909 189.976681 
L 104.427273 152.625559 
L 105.103636 156.933495 
L 105.78 169.396457 
L 106.456364 185.375516 
L 107.132727 167.662855 
L 107.809091 138.152155 
L 108.485455 133.288864 
L 109.161818 148.664684 
L 109.838182 148.818615 
L 110.514545 141.716612 
L 111.190909 132.488055 
L 111.867273 111.297014 
L 112.543636 116.820956 
L 113.22 88.906598 
L 113.896364 86.82145 
L 114.572727 121.687947 
L 115.249091 126.49492 
L 115.925455 104.959826 
L 116.601818 114.975339 
L 117.278182 100.905472 
L 117.954545 113.683064 
L 118.630909 105.682095 
L 119.307273 85.94315 
L 119.983636 96.038641 
L 120.66 148.776032 
L 121.336364 95.975023 
L 122.012727 126.08557 
L 122.689091 125.226624 
L 123.365455 123.599149 
L 124.041818 134.541097 
L 124.718182 130.31705 
L 125.394545 129.78778 
L 126.070909 124.78743 
L 126.747273 114.31605 
L 127.423636 82.777098 
L 128.1 140.597624 
L 128.776364 97.801373 
L 129.452727 109.20429 
L 130.129091 110.716225 
L 130.805455 150.110349 
L 131.481818 197.315785 
L 132.158182 212.329287 
L 132.834545 210.919808 
L 133.510909 218.187293 
L 134.187273 175.613922 
L 134.863636 179.855542 
L 135.54 215.507479 
L 136.216364 291.189539 
L 136.892727 268.89698 
L 137.569091 307.8 
L 138.245455 255.24026 
L 138.921818 266.898695 
L 139.598182 211.963879 
L 140.274545 223.016652 
L 140.950909 194.944952 
L 141.627273 200.740696 
L 142.303636 221.248528 
L 143.656364 161.519684 
L 144.332727 158.264342 
L 145.009091 156.073623 
L 145.685455 146.446348 
L 147.038182 232.764795 
L 147.714545 263.934139 
L 148.390909 248.070727 
L 149.067273 248.133692 
L 149.743636 251.550006 
L 150.42 288.395203 
L 151.096364 273.804927 
L 151.772727 208.999346 
L 152.449091 223.572725 
L 153.125455 199.142001 
L 153.801818 142.59152 
L 154.478182 100.591585 
L 155.154545 74.214143 
L 155.830909 116.081988 
L 156.507273 171.684417 
L 157.183636 254.823012 
L 158.536364 136.378658 
L 159.212727 120.086908 
L 159.889091 90.607701 
L 160.565455 94.019928 
L 161.241818 98.979624 
L 161.918182 135.21503 
L 162.594545 101.558244 
L 163.270909 88.068802 
L 163.947273 158.976879 
L 164.623636 180.954254 
L 165.3 193.721243 
L 165.976364 201.904303 
L 166.652727 218.518815 
L 167.329091 223.207814 
L 168.005455 227.0819 
L 168.681818 219.91549 
L 169.358182 208.926321 
L 170.034545 216.023564 
L 170.710909 213.820536 
L 171.387273 215.63196 
L 172.063636 213.899946 
L 173.416364 192.299759 
L 174.092727 212.323937 
L 174.769091 209.164439 
L 175.445455 184.660837 
L 176.121818 168.76595 
L 176.798182 165.490355 
L 177.474545 162.985065 
L 178.150909 140.793058 
L 178.827273 132.602109 
L 180.18 183.066172 
L 180.856364 186.792277 
L 181.532727 186.344779 
L 182.209091 202.802078 
L 183.561818 193.885484 
L 184.238182 199.81786 
L 184.914545 202.597286 
L 185.590909 199.685644 
L 186.267273 206.223215 
L 186.943636 222.411444 
L 187.62 196.104234 
L 188.296364 218.311554 
L 188.972727 216.177929 
L 189.649091 228.718615 
L 190.325455 247.375086 
L 191.001818 231.745273 
L 192.354545 194.713317 
L 193.030909 184.033961 
L 193.707273 218.286212 
L 194.383636 204.298315 
L 195.06 183.664577 
L 196.412727 257.828664 
L 197.089091 248.80956 
L 197.765455 244.284494 
L 199.118182 258.883551 
L 199.794545 276.606059 
L 200.470909 273.68983 
L 201.147273 270.198691 
L 201.823636 277.677162 
L 202.5 242.729531 
L 203.176364 250.017728 
L 203.852727 224.406221 
L 204.529091 246.388065 
L 205.205455 251.670119 
L 205.881818 243.458405 
L 206.558182 264.508049 
L 207.234545 245.755693 
L 207.910909 236.314554 
L 208.587273 196.40784 
L 209.263636 173.019538 
L 209.94 186.126356 
L 210.616364 147.638398 
L 211.292727 184.994844 
L 211.969091 228.608268 
L 212.645455 241.390269 
L 213.321818 258.816443 
L 213.998182 251.993943 
L 214.674545 227.365416 
L 215.350909 242.163051 
L 216.027273 279.467033 
L 216.703636 269.069561 
L 217.38 246.734524 
L 218.056364 233.724405 
L 218.732727 252.830027 
L 219.409091 256.280808 
L 220.085455 218.420369 
L 220.761818 225.819646 
L 221.438182 209.954313 
L 222.790909 116.500112 
L 223.467273 89.031935 
L 224.143636 180.086566 
L 224.82 233.887327 
L 225.496364 210.174544 
L 226.849091 146.254183 
L 227.525455 133.835773 
L 228.878182 283.409891 
L 229.554545 274.464005 
L 230.230909 231.128296 
L 230.907273 215.121824 
L 232.26 205.01244 
L 232.936364 202.737133 
L 233.612727 176.874587 
L 234.289091 191.315567 
L 234.965455 200.301723 
L 235.641818 220.526873 
L 236.318182 216.943888 
L 236.994545 229.971159 
L 237.670909 191.311128 
L 238.347273 189.850021 
L 239.023636 179.73972 
L 239.7 157.879579 
L 240.376364 145.395624 
L 241.052727 104.111239 
L 241.729091 111.765755 
L 242.405455 55.8 
L 244.434545 266.168438 
L 245.110909 247.044534 
L 245.787273 177.751868 
L 246.463636 192.789562 
L 247.14 225.365041 
L 247.816364 123.524654 
L 248.492727 131.146939 
L 249.169091 94.68699 
L 249.845455 107.833791 
L 250.521818 74.030714 
L 251.198182 106.090999 
L 251.874545 104.043406 
L 252.550909 92.392918 
L 253.227273 92.602112 
L 253.903636 124.083567 
L 254.58 128.799337 
L 255.256364 143.740229 
L 255.932727 143.613133 
L 256.609091 138.204173 
L 257.285455 119.20558 
L 257.961818 136.394722 
L 258.638182 183.358168 
L 259.990909 235.148158 
L 260.667273 242.936371 
L 261.343636 237.049386 
L 262.02 215.433303 
L 262.696364 240.131389 
L 264.049091 226.166819 
L 264.725455 237.655954 
L 265.401818 242.596458 
L 266.078182 236.856586 
L 266.754545 225.892493 
L 267.430909 232.642417 
L 268.107273 262.374199 
L 268.783636 262.796029 
L 269.46 283.359149 
L 270.136364 242.774664 
L 270.812727 266.364306 
L 271.489091 274.518843 
L 272.165455 213.740583 
L 272.841818 215.735696 
L 273.518182 219.769953 
L 274.194545 189.760898 
L 274.870909 165.008682 
L 275.547273 179.896993 
L 276.223636 198.39597 
L 276.9 229.117527 
L 277.576364 241.594761 
L 278.252727 244.442877 
L 278.929091 207.039849 
L 279.605455 215.154388 
L 280.281818 218.524927 
L 280.958182 228.486229 
L 281.634545 210.431342 
L 282.310909 228.687343 
L 282.987273 220.785712 
L 283.663636 193.934183 
L 284.34 207.006664 
L 285.016364 192.438381 
L 285.692727 200.170676 
L 287.045455 209.897005 
L 287.721818 225.044614 
L 288.398182 212.820095 
L 289.074545 192.831954 
L 289.750909 180.090189 
L 290.427273 177.318893 
L 291.103636 199.901918 
L 291.78 204.032926 
L 292.456364 218.421706 
L 293.132727 212.901058 
L 293.809091 256.356141 
L 294.485455 252.521345 
L 295.161818 252.736338 
L 295.838182 253.910041 
L 296.514545 291.247745 
L 297.190909 291.140332 
L 298.543636 269.167399 
L 299.22 280.466058 
L 299.896364 275.510938 
L 300.572727 278.074438 
L 301.249091 279.264162 
L 301.925455 269.19952 
L 302.601818 278.282317 
L 303.278182 273.842192 
L 303.954545 249.817389 
L 304.630909 286.867577 
L 305.307273 281.349949 
L 305.983636 288.601071 
L 306.66 254.042468 
L 307.336364 258.130368 
L 308.012727 288.203671 
L 308.689091 246.295553 
L 309.365455 276.078132 
L 310.041818 241.892866 
L 311.394545 295.707708 
L 312.070909 279.229907 
L 312.747273 270.251613 
L 313.423636 271.387061 
L 314.1 277.939487 
L 314.776364 280.131071 
L 315.452727 272.355739 
L 316.129091 268.990027 
L 316.805455 253.833218 
L 317.481818 298.293402 
L 318.158182 275.558312 
L 318.834545 273.090966 
L 319.510909 278.087284 
L 320.863636 262.80941 
L 321.54 273.240929 
L 322.216364 256.016338 
L 322.892727 277.329964 
L 323.569091 271.976369 
L 324.245455 272.807844 
L 324.921818 256.999981 
L 325.598182 266.683042 
L 326.274545 273.896531 
L 326.950909 250.850666 
L 327.627273 251.098012 
L 328.303636 251.082667 
L 328.98 260.310375 
L 329.656364 248.843054 
L 330.332727 287.877719 
L 331.009091 270.852554 
L 331.685455 244.915925 
L 332.361818 261.187392 
L 333.038182 280.528497 
L 333.714545 286.365208 
L 334.390909 281.059285 
L 335.067273 277.361913 
L 335.743636 254.03806 
L 336.42 269.107661 
L 337.096364 278.747226 
L 337.772727 261.866414 
L 338.449091 228.396525 
L 339.125455 227.225983 
L 339.801818 196.715628 
L 340.478182 200.952294 
L 341.154545 163.795334 
L 341.830909 174.606499 
L 343.183636 259.409218 
L 343.86 244.073557 
L 344.536364 239.911183 
L 345.212727 258.205707 
L 345.889091 245.389344 
L 346.565455 247.575127 
L 347.241818 251.980567 
L 347.918182 248.576319 
L 348.594545 252.394244 
L 349.270909 235.480292 
L 349.947273 244.105024 
L 350.623636 229.42468 
L 351.3 238.085496 
L 351.976364 221.835238 
L 352.652727 184.539275 
L 353.329091 167.225336 
L 354.005455 161.853288 
L 354.681818 144.786424 
L 355.358182 122.663954 
L 356.034545 136.019978 
L 356.710909 131.324738 
L 357.387273 118.021738 
L 358.063636 141.888078 
L 358.74 110.160758 
L 360.092727 149.542685 
L 360.769091 145.793069 
L 361.445455 147.590211 
L 362.121818 140.388508 
L 362.798182 152.68638 
L 363.474545 158.086897 
L 364.150909 152.189306 
L 364.827273 178.3276 
L 365.503636 175.33819 
L 366.18 170.072598 
L 366.856364 170.812267 
L 368.209091 218.438654 
L 368.885455 227.321074 
L 369.561818 192.261955 
L 370.238182 165.690762 
L 370.914545 171.89626 
L 371.590909 191.323053 
L 372.267273 205.818106 
L 372.943636 169.620679 
L 373.62 140.485812 
L 374.296364 164.654205 
L 374.972727 172.522561 
L 375.649091 176.093437 
L 376.325455 171.258654 
L 377.678182 99.354274 
L 378.354545 153.567366 
L 379.030909 163.66079 
L 379.707273 188.069748 
L 380.383636 200.547702 
L 381.06 182.925518 
L 381.736364 206.018495 
L 382.412727 208.339554 
L 383.089091 194.429611 
L 383.765455 201.11284 
L 384.441818 227.469349 
L 385.118182 213.510256 
L 385.794545 219.432514 
L 386.470909 213.001981 
L 387.147273 221.225729 
L 387.823636 209.448679 
L 388.5 234.784275 
L 389.176364 224.59867 
L 389.852727 190.148493 
L 390.529091 175.986183 
L 391.205455 180.899395 
L 391.881818 165.266805 
L 392.558182 159.271415 
L 393.234545 150.46053 
L 393.910909 120.884922 
L 394.587273 148.0995 
L 395.263636 168.175519 
L 395.94 171.195631 
L 396.616364 167.177813 
L 397.292727 160.768989 
L 397.969091 125.244139 
L 398.645455 127.431569 
L 399.321818 159.614107 
L 399.998182 142.372796 
L 400.674545 150.439906 
L 401.350909 150.167228 
L 402.027273 136.897098 
L 402.703636 96.031823 
L 404.056364 82.608529 
L 404.732727 133.191458 
L 405.409091 125.355792 
L 406.085455 142.85465 
L 406.761818 185.756506 
L 407.438182 181.135405 
L 408.790909 221.814697 
L 409.467273 218.574243 
L 410.143636 276.419034 
L 410.82 225.575254 
L 411.496364 220.700413 
L 412.172727 252.824767 
L 412.849091 253.794539 
L 413.525455 220.314261 
L 414.201818 219.860044 
L 415.554545 163.274529 
L 416.230909 147.334951 
L 416.907273 114.063181 
L 417.583636 146.500011 
L 418.26 129.764971 
L 418.936364 115.984075 
L 419.612727 126.47561 
L 420.289091 152.230701 
L 420.965455 189.77616 
L 421.641818 235.315377 
L 422.318182 298.243436 
L 422.994545 208.525583 
L 423.670909 212.016417 
L 424.347273 211.779546 
L 425.023636 228.392718 
L 425.7 232.728366 
L 426.376364 226.233399 
L 427.052727 202.944482 
L 427.729091 175.692373 
L 428.405455 164.39982 
L 429.081818 196.194969 
L 429.758182 182.048242 
L 430.434545 179.496412 
L 431.110909 155.399407 
L 431.787273 141.913812 
L 432.463636 156.001029 
L 433.14 174.204006 
L 433.816364 118.666114 
L 434.492727 90.93319 
L 435.169091 57.586931 
L 435.845455 87.170416 
L 435.845455 87.170416 
" clip-path="url(#p5617c50567)" style="fill: none; stroke-dasharray: 5.55,2.4; stroke-dashoffset: 0; stroke: #ff7f0e; stroke-width: 1.5"/>
   </g>
   <g id="patch_3">
    <path d="M 63 320.4 
L 63 43.2 
" style="fill: none; stroke: #000000; stroke-width: 0.8; stroke-linejoin: miter; stroke-linecap: square"/>
   </g>
   <g id="patch_4">
    <path d="M 453.6 320.4 
L 453.6 43.2 
" style="fill: none; stroke: #000000; stroke-width: 0.8; stroke-linejoin: miter; stroke-linecap: square"/>
   </g>
   <g id="patch_5">
    <path d="M 63 320.4 
L 453.6 320.4 
" style="fill: none; stroke: #000000; stroke-width: 0.8; stroke-linejoin: miter; stroke-linecap: square"/>
   </g>
   <g id="patch_6">
    <path d="M 63 43.2 
L 453.6 43.2 
" style="fill: none; stroke: #000000; stroke-width: 0.8; stroke-linejoin: miter; stroke-linecap: square"/>
   </g>
   <g id="text_14">
    <!-- Ridge 验证集预测 -->
    <g transform="translate(210.3 37.2)scale(0.12 -0.12)">
     <defs>
      <path id="SimHei-52" d="M 3000 125 
L 2400 125 
L 1500 1975 
L 850 1975 
L 850 125 
L 275 125 
L 275 4400 
L 1525 4400 
Q 2125 4400 2500 4112 
Q 2875 3825 2875 3175 
Q 2875 2675 2625 2400 
Q 2375 2125 2050 2050 
L 3000 125 
z
M 2300 3175 
Q 2300 3525 2087 3725 
Q 1875 3925 1400 3925 
L 850 3925 
L 850 2450 
L 1550 2450 
Q 1850 2450 2075 2612 
Q 2300 2775 2300 3175 
z
" transform="scale(0.015625)"/>
      <path id="SimHei-69" d="M 1800 3725 
L 1300 3725 
L 1300 4375 
L 1800 4375 
L 1800 3725 
z
M 1800 125 
L 1300 125 
L 1300 2925 
L 1800 2925 
L 1800 125 
z
" transform="scale(0.015625)"/>
      <path id="SimHei-64" d="M 2750 125 
L 2250 125 
L 2250 500 
Q 2100 275 1900 175 
Q 1700 75 1425 75 
Q 925 75 575 437 
Q 225 800 225 1525 
Q 225 2250 575 2625 
Q 925 3000 1425 3000 
Q 1700 3000 1900 2887 
Q 2100 2775 2250 2550 
L 2250 4400 
L 2750 4400 
L 2750 125 
z
M 2250 1525 
Q 2250 2000 2037 2275 
Q 1825 2550 1525 2550 
Q 1150 2550 962 2275 
Q 775 2000 775 1525 
Q 775 1050 962 787 
Q 1150 525 1525 525 
Q 1825 525 2037 787 
Q 2250 1050 2250 1525 
z
" transform="scale(0.015625)"/>
      <path id="SimHei-67" d="M 2975 2500 
Q 2800 2550 2637 2562 
Q 2475 2575 2300 2525 
Q 2375 2450 2425 2337 
Q 2475 2225 2475 2000 
Q 2475 1575 2187 1300 
Q 1900 1025 1475 1025 
Q 1375 1025 1212 1062 
Q 1050 1100 950 1150 
Q 875 1100 850 1050 
Q 825 1000 825 925 
Q 825 800 1000 737 
Q 1175 675 1625 675 
Q 2350 675 2612 475 
Q 2875 275 2875 -25 
Q 2875 -425 2487 -612 
Q 2100 -800 1575 -800 
Q 900 -800 575 -625 
Q 250 -450 250 -150 
Q 250 0 375 150 
Q 500 300 700 400 
Q 550 475 462 587 
Q 375 700 375 875 
Q 375 1025 487 1137 
Q 600 1250 750 1325 
Q 625 1450 550 1625 
Q 475 1800 475 2000 
Q 475 2425 762 2700 
Q 1050 2975 1475 2975 
Q 1700 2975 1862 2912 
Q 2025 2850 2150 2725 
Q 2350 2875 2550 2937 
Q 2750 3000 2975 2975 
L 2975 2500 
z
M 1975 2000 
Q 1975 2250 1850 2400 
Q 1725 2550 1475 2550 
Q 1225 2550 1100 2400 
Q 975 2250 975 2000 
Q 975 1750 1100 1600 
Q 1225 1450 1475 1450 
Q 1725 1450 1850 1600 
Q 1975 1750 1975 2000 
z
M 2400 -75 
Q 2400 25 2287 125 
Q 2175 225 1725 225 
Q 1625 225 1450 237 
Q 1275 250 1050 275 
Q 850 200 775 100 
Q 700 0 700 -100 
Q 700 -250 900 -350 
Q 1100 -450 1600 -450 
Q 2025 -450 2212 -337 
Q 2400 -225 2400 -75 
z
" transform="scale(0.015625)"/>
      <path id="SimHei-65" d="M 2850 1075 
Q 2800 625 2450 350 
Q 2100 75 1625 75 
Q 1025 75 637 462 
Q 250 850 250 1525 
Q 250 2200 637 2587 
Q 1025 2975 1625 2975 
Q 2150 2975 2487 2637 
Q 2825 2300 2825 1525 
L 800 1525 
Q 800 975 1037 750 
Q 1275 525 1625 525 
Q 1900 525 2075 662 
Q 2250 800 2300 1075 
L 2850 1075 
z
M 2250 1925 
Q 2200 2275 2025 2412 
Q 1850 2550 1575 2550 
Q 1325 2550 1125 2412 
Q 925 2275 825 1925 
L 2250 1925 
z
" transform="scale(0.015625)"/>
      <path id="SimHei-20" transform="scale(0.015625)"/>
      <path id="SimHei-9a8c" d="M 2300 4725 
Q 2250 4500 2225 4075 
L 2050 2125 
L 2525 2125 
Q 2500 1925 2475 1450 
L 2375 75 
Q 2375 -450 2075 -525 
Q 1775 -600 1250 -675 
Q 1175 -325 1050 -100 
Q 1575 -100 1737 -87 
Q 1900 -75 1950 150 
L 2025 1700 
L 550 1700 
Q 575 2175 587 2737 
Q 600 3300 600 3800 
L 1100 3800 
Q 1050 3525 1025 3087 
Q 1000 2650 1000 2125 
L 1625 2125 
L 1800 4325 
L 1125 4325 
Q 725 4325 350 4300 
L 350 4750 
Q 725 4725 1125 4725 
L 2300 4725 
z
M 4325 4875 
Q 4725 4125 5150 3775 
Q 5575 3425 6150 3225 
Q 5925 3025 5800 2725 
Q 5450 2925 5125 3200 
L 5125 2775 
Q 4800 2800 4200 2800 
Q 3600 2800 3225 2775 
L 3225 3175 
Q 3075 2975 2800 2650 
Q 2575 2875 2325 3000 
Q 2725 3275 2937 3550 
Q 3150 3825 3312 4125 
Q 3475 4425 3587 4675 
Q 3700 4925 3775 5225 
Q 4100 5150 4450 5075 
L 4325 4875 
z
M 5600 2150 
Q 5475 2000 5400 1737 
Q 5325 1475 5162 912 
Q 5000 350 4900 25 
L 5250 25 
Q 5425 25 5800 50 
L 5800 -400 
Q 5475 -375 5250 -375 
L 3325 -375 
Q 2875 -375 2675 -400 
L 2675 50 
Q 2975 25 3350 25 
L 4475 25 
Q 4675 575 4800 1150 
L 5050 2300 
Q 5250 2225 5600 2150 
z
M 5100 3225 
Q 4800 3450 4550 3775 
Q 4300 4100 4050 4600 
Q 3850 4200 3687 3912 
Q 3525 3625 3250 3225 
L 5100 3225 
z
M 3250 2175 
Q 3350 1825 3462 1375 
Q 3575 925 3675 550 
Q 3450 525 3250 425 
Q 3175 900 3087 1225 
Q 3000 1550 2850 2050 
Q 3050 2125 3250 2175 
z
M 1775 1125 
Q 1750 950 1725 700 
Q 1350 625 1112 575 
Q 875 525 375 375 
Q 300 650 200 925 
Q 550 950 925 1000 
Q 1300 1050 1775 1125 
z
M 4300 1650 
Q 4350 1325 4425 825 
L 4025 725 
Q 3925 1275 3875 1562 
Q 3825 1850 3750 2225 
Q 3975 2275 4200 2300 
L 4300 1650 
z
" transform="scale(0.015625)"/>
      <path id="SimHei-8bc1" d="M 5125 4675 
Q 5625 4675 6050 4700 
L 6050 4225 
Q 5625 4250 5125 4250 
L 4500 4250 
L 4500 2625 
L 5075 2625 
Q 5500 2625 5900 2650 
L 5900 2175 
Q 5525 2200 5075 2200 
L 4500 2200 
L 4500 125 
L 5200 125 
Q 5625 125 6175 150 
L 6175 -325 
Q 5625 -300 5200 -300 
L 3000 -300 
Q 2400 -300 2000 -325 
L 2000 150 
Q 2400 125 2775 125 
L 2775 2075 
Q 2775 2600 2750 2950 
L 3275 2950 
Q 3250 2625 3250 2075 
L 3250 125 
L 4000 125 
L 4000 4250 
L 3550 4250 
Q 2975 4250 2450 4225 
L 2450 4700 
Q 2975 4675 3550 4675 
L 5125 4675 
z
M 850 -125 
Q 1150 175 1150 500 
L 1150 2750 
L 925 2750 
Q 575 2750 225 2725 
L 225 3200 
Q 550 3175 925 3175 
L 1650 3175 
Q 1625 2700 1625 2175 
L 1625 800 
Q 1850 1075 2025 1325 
Q 2150 1050 2325 825 
Q 2050 500 1812 212 
Q 1575 -75 1225 -525 
Q 1050 -300 850 -125 
z
M 1525 3900 
Q 1100 4500 800 4825 
Q 1000 4975 1175 5175 
L 1925 4275 
Q 1675 4100 1525 3900 
z
" transform="scale(0.015625)"/>
      <path id="SimHei-96c6" d="M 2275 4925 
Q 2125 4800 2025 4662 
Q 1925 4525 1850 4350 
L 4925 4350 
Q 5300 4350 5750 4375 
L 5750 3975 
L 3650 3975 
L 3650 3575 
L 4625 3575 
Q 4925 3575 5325 3600 
L 5325 3175 
Q 4925 3200 4625 3200 
L 3650 3200 
L 3650 2800 
L 4675 2800 
Q 5000 2800 5425 2825 
L 5425 2400 
Q 5000 2425 4675 2425 
L 3650 2425 
L 3650 2075 
L 4875 2075 
Q 5275 2075 5675 2100 
L 5675 1675 
Q 5300 1700 4900 1700 
L 1650 1700 
L 1650 1500 
L 1150 1500 
Q 1200 1950 1200 2325 
L 1200 3475 
Q 1050 3250 937 3125 
Q 825 3000 675 2825 
Q 500 3000 300 3125 
Q 475 3325 875 3825 
Q 1275 4325 1462 4650 
Q 1650 4975 1725 5225 
Q 1950 5100 2275 4925 
z
M 2975 1200 
Q 2975 1300 2950 1625 
L 3475 1625 
Q 3450 1275 3450 1200 
L 5050 1200 
Q 5500 1200 5925 1225 
L 5925 825 
L 4150 825 
Q 4500 525 4925 362 
Q 5350 200 6100 25 
Q 5875 -225 5775 -475 
Q 5275 -300 4962 -162 
Q 4650 -25 4387 137 
Q 4125 300 3950 462 
Q 3775 625 3575 825 
L 3450 825 
L 3450 250 
Q 3450 -275 3500 -650 
L 2950 -650 
Q 2975 -300 2975 250 
L 2975 825 
L 2875 825 
Q 2700 575 2475 375 
Q 2250 175 1987 12 
Q 1725 -150 1425 -300 
Q 1125 -450 700 -575 
Q 600 -325 400 -75 
Q 925 50 1475 262 
Q 2025 475 2300 825 
L 500 825 
L 500 1225 
Q 800 1200 1400 1200 
L 2975 1200 
z
M 3150 2800 
L 3150 3200 
L 1650 3200 
L 1650 2800 
L 3150 2800 
z
M 3150 3575 
L 3150 3975 
L 1650 3975 
L 1650 3575 
L 3150 3575 
z
M 3150 2075 
L 3150 2425 
L 1650 2425 
L 1650 2075 
L 3150 2075 
z
M 3450 5250 
Q 3575 5150 3712 5000 
Q 3850 4850 4000 4650 
Q 3850 4525 3575 4375 
Q 3425 4575 3325 4700 
Q 3225 4825 3075 4950 
Q 3275 5075 3450 5250 
z
" transform="scale(0.015625)"/>
      <path id="SimHei-9884" d="M 5200 4800 
Q 5575 4800 5950 4825 
L 5950 4400 
Q 5575 4425 5200 4425 
L 4500 4425 
Q 4425 4050 4350 3600 
L 5725 3600 
Q 5700 3225 5700 2800 
L 5700 1725 
Q 5700 1300 5725 850 
L 5250 850 
L 5250 3225 
L 3550 3225 
L 3550 800 
L 3075 800 
Q 3100 1375 3100 1725 
L 3100 2775 
Q 3100 3175 3075 3600 
L 3900 3600 
Q 4000 4150 4000 4425 
L 3725 4425 
Q 3300 4425 2850 4400 
L 2850 4825 
Q 3325 4800 3725 4800 
L 5200 4800 
z
M 2600 1775 
Q 2350 1825 2150 1825 
Q 2250 2250 2300 2450 
L 1750 2450 
L 1750 125 
Q 1725 -300 1425 -400 
Q 1125 -500 750 -500 
Q 700 -225 575 25 
Q 1125 -25 1212 37 
Q 1300 100 1300 350 
L 1300 2450 
L 1025 2450 
Q 700 2450 350 2425 
L 350 2850 
Q 700 2825 1000 2825 
L 2850 2825 
Q 2725 2325 2600 1775 
z
M 4725 2875 
Q 4625 2575 4600 2100 
Q 4575 1625 4462 1037 
Q 4350 450 3962 62 
Q 3575 -325 2925 -675 
Q 2700 -500 2475 -350 
Q 3075 -125 3437 200 
Q 3800 525 3950 937 
Q 4100 1350 4137 1850 
Q 4175 2350 4175 2925 
L 4725 2875 
z
M 1625 2900 
Q 1275 3275 800 3650 
Q 925 3775 1075 3950 
Q 1250 3825 1425 3675 
Q 1750 4150 1950 4375 
L 1400 4375 
Q 900 4375 450 4350 
L 450 4775 
Q 900 4750 1375 4750 
L 2575 4750 
L 2575 4375 
Q 2200 4100 1725 3400 
L 1950 3200 
Q 1750 3025 1625 2900 
z
M 4775 725 
Q 5725 0 6075 -325 
Q 5850 -500 5725 -650 
Q 5400 -325 5137 -87 
Q 4875 150 4525 350 
Q 4650 525 4775 725 
z
" transform="scale(0.015625)"/>
      <path id="SimHei-6d4b" d="M 4025 4725 
Q 4000 4475 4000 4000 
L 4000 2225 
Q 4000 1775 4025 1350 
L 3550 1350 
L 3550 4325 
L 2350 4325 
L 2350 1325 
L 1900 1325 
Q 1925 1775 1925 2225 
L 1925 4000 
Q 1925 4200 1900 4725 
L 4025 4725 
z
M 5900 5075 
Q 5875 4800 5875 4375 
L 5875 0 
Q 5875 -325 5650 -425 
Q 5425 -525 4975 -600 
Q 4925 -325 4775 -50 
Q 5125 -50 5262 -25 
Q 5400 0 5400 250 
L 5400 4375 
Q 5400 4775 5375 5075 
L 5900 5075 
z
M 3275 3725 
Q 3225 3400 3200 2325 
Q 3175 1250 2837 550 
Q 2500 -150 2075 -600 
Q 1850 -400 1600 -325 
Q 2200 250 2475 962 
Q 2750 1675 2762 2475 
Q 2775 3275 2725 3800 
Q 3000 3750 3275 3725 
z
M 4950 4275 
Q 4925 4000 4925 3575 
L 4925 1825 
Q 4925 1300 4950 850 
L 4450 850 
Q 4475 1150 4475 1825 
L 4475 3575 
Q 4475 4000 4450 4275 
L 4950 4275 
z
M 1700 1675 
Q 1375 1075 1112 487 
Q 850 -100 725 -400 
Q 500 -200 200 -25 
Q 475 300 762 850 
Q 1050 1400 1250 2000 
Q 1475 1825 1700 1675 
z
M 3400 1050 
Q 3800 650 4300 -125 
Q 4100 -225 3875 -450 
Q 3475 275 3025 750 
Q 3225 875 3400 1050 
z
M 600 3525 
Q 1125 3125 1500 2775 
Q 1300 2575 1150 2375 
Q 825 2775 300 3150 
Q 450 3300 600 3525 
z
M 1350 4000 
Q 950 4375 475 4675 
Q 625 4850 775 5050 
Q 1300 4700 1675 4375 
Q 1500 4250 1350 4000 
z
" transform="scale(0.015625)"/>
     </defs>
     <use xlink:href="#SimHei-52"/>
     <use xlink:href="#SimHei-69" x="50"/>
     <use xlink:href="#SimHei-64" x="100"/>
     <use xlink:href="#SimHei-67" x="150"/>
     <use xlink:href="#SimHei-65" x="200"/>
     <use xlink:href="#SimHei-20" x="250"/>
     <use xlink:href="#SimHei-9a8c" x="300"/>
     <use xlink:href="#SimHei-8bc1" x="400"/>
     <use xlink:href="#SimHei-96c6" x="500"/>
     <use xlink:href="#SimHei-9884" x="600"/>
     <use xlink:href="#SimHei-6d4b" x="700"/>
    </g>
   </g>
   <g id="legend_1">
    <g id="patch_7">
     <path d="M 389.6 77.7 
L 446.6 77.7 
Q 448.6 77.7 448.6 75.7 
L 448.6 50.2 
Q 448.6 48.2 446.6 48.2 
L 389.6 48.2 
Q 387.6 48.2 387.6 50.2 
L 387.6 75.7 
Q 387.6 77.7 389.6 77.7 
z
" style="fill: #ffffff; opacity: 0.8; stroke: #cccccc; stroke-linejoin: miter"/>
    </g>
    <g id="line2d_29">
     <path d="M 391.6 55.7 
L 401.6 55.7 
L 411.6 55.7 
" style="fill: none; stroke: #1f77b4; stroke-width: 1.5; stroke-linecap: square"/>
    </g>
    <g id="text_15">
     <!-- true -->
     <g transform="translate(419.6 59.2)scale(0.1 -0.1)">
      <defs>
       <path id="SimHei-74" d="M 2750 200 
Q 2625 150 2462 112 
Q 2300 75 2025 75 
Q 1575 75 1300 325 
Q 1025 575 1025 1025 
L 1025 2525 
L 175 2525 
L 175 2925 
L 1025 2925 
L 1025 3900 
L 1525 3900 
L 1525 2925 
L 2550 2925 
L 2550 2525 
L 1525 2525 
L 1525 1000 
Q 1525 800 1625 662 
Q 1725 525 2000 525 
Q 2275 525 2450 575 
Q 2625 625 2750 700 
L 2750 200 
z
" transform="scale(0.015625)"/>
       <path id="SimHei-72" d="M 2500 2425 
Q 2025 2500 1700 2287 
Q 1375 2075 1150 1550 
L 1150 125 
L 650 125 
L 650 2925 
L 1150 2925 
L 1150 2200 
Q 1375 2600 1712 2787 
Q 2050 2975 2500 2975 
L 2500 2425 
z
" transform="scale(0.015625)"/>
       <path id="SimHei-75" d="M 2800 125 
L 2300 125 
L 2300 650 
Q 2100 375 1862 225 
Q 1625 75 1250 75 
Q 800 75 575 325 
Q 350 575 350 950 
L 350 2925 
L 850 2925 
L 850 1125 
Q 850 825 1000 650 
Q 1150 475 1400 475 
Q 1725 475 2012 812 
Q 2300 1150 2300 1650 
L 2300 2925 
L 2800 2925 
L 2800 125 
z
" transform="scale(0.015625)"/>
      </defs>
      <use xlink:href="#SimHei-74"/>
      <use xlink:href="#SimHei-72" x="50"/>
      <use xlink:href="#SimHei-75" x="100"/>
      <use xlink:href="#SimHei-65" x="150"/>
     </g>
    </g>
    <g id="line2d_30">
     <path d="M 391.6 68.95 
L 401.6 68.95 
L 411.6 68.95 
" style="fill: none; stroke-dasharray: 5.55,2.4; stroke-dashoffset: 0; stroke: #ff7f0e; stroke-width: 1.5"/>
    </g>
    <g id="text_16">
     <!-- Ridge -->
     <g transform="translate(419.6 72.45)scale(0.1 -0.1)">
      <use xlink:href="#SimHei-52"/>
      <use xlink:href="#SimHei-69" x="50"/>
      <use xlink:href="#SimHei-64" x="100"/>
      <use xlink:href="#SimHei-67" x="150"/>
      <use xlink:href="#SimHei-65" x="200"/>
     </g>
    </g>
   </g>
  </g>
 </g>
 <defs>
  <clipPath id="p5617c50567">
   <rect x="63" y="43.2" width="390.6" height="277.2"/>
  </clipPath>
 </defs>
</svg>
