<?xml version="1.0" encoding="utf-8" standalone="no"?>
<!DOCTYPE svg PUBLIC "-//W3C//DTD SVG 1.1//EN"
  "http://www.w3.org/Graphics/SVG/1.1/DTD/svg11.dtd">
<svg xmlns:xlink="http://www.w3.org/1999/xlink" width="504pt" height="360pt" viewBox="0 0 504 360" xmlns="http://www.w3.org/2000/svg" version="1.1">
 <metadata>
  <rdf:RDF xmlns:dc="http://purl.org/dc/elements/1.1/" xmlns:cc="http://creativecommons.org/ns#" xmlns:rdf="http://www.w3.org/1999/02/22-rdf-syntax-ns#">
   <cc:Work>
    <dc:type rdf:resource="http://purl.org/dc/dcmitype/StillImage"/>
    <dc:date>2025-01-12T16:02:58.798014</dc:date>
    <dc:format>image/svg+xml</dc:format>
    <dc:creator>
     <cc:Agent>
      <dc:title>Matplotlib v3.5.3, https://matplotlib.org/</dc:title>
     </cc:Agent>
    </dc:creator>
   </cc:Work>
  </rdf:RDF>
 </metadata>
 <defs>
  <style type="text/css">*{stroke-linejoin: round; stroke-linecap: butt}</style>
 </defs>
 <g id="figure_1">
  <g id="patch_1">
   <path d="M 0 360 
L 504 360 
L 504 0 
L 0 0 
z
" style="fill: #ffffff"/>
  </g>
  <g id="axes_1">
   <g id="patch_2">
    <path d="M 63 320.4 
L 453.6 320.4 
L 453.6 43.2 
L 63 43.2 
z
" style="fill: #ffffff"/>
   </g>
   <g id="matplotlib.axis_1">
    <g id="xtick_1">
     <g id="line2d_1">
      <path d="M 80.754545 320.4 
L 80.754545 43.2 
" clip-path="url(#pa20137a038)" style="fill: none; stroke: #b0b0b0; stroke-width: 0.8; stroke-linecap: square"/>
     </g>
     <g id="line2d_2">
      <defs>
       <path id="m2c595af0fb" d="M 0 0 
L 0 3.5 
" style="stroke: #000000; stroke-width: 0.8"/>
      </defs>
      <g>
       <use xlink:href="#m2c595af0fb" x="80.754545" y="320.4" style="stroke: #000000; stroke-width: 0.8"/>
      </g>
     </g>
     <g id="text_1">
      <!-- 0 -->
      <g transform="translate(78.254545 334.275)scale(0.1 -0.1)">
       <defs>
        <path id="SimHei-30" d="M 225 2537 
Q 250 3200 412 3587 
Q 575 3975 875 4225 
Q 1175 4475 1612 4475 
Q 2050 4475 2375 4112 
Q 2700 3750 2800 3200 
Q 2900 2650 2862 1937 
Q 2825 1225 2612 775 
Q 2400 325 1975 150 
Q 1550 -25 1125 187 
Q 700 400 525 750 
Q 350 1100 275 1487 
Q 200 1875 225 2537 
z
M 750 2687 
Q 675 2000 800 1462 
Q 925 925 1212 700 
Q 1500 475 1800 612 
Q 2100 750 2237 1162 
Q 2375 1575 2375 2062 
Q 2375 2550 2337 2950 
Q 2300 3350 2112 3675 
Q 1925 4000 1612 4012 
Q 1300 4025 1062 3700 
Q 825 3375 750 2687 
z
" transform="scale(0.015625)"/>
       </defs>
       <use xlink:href="#SimHei-30"/>
      </g>
     </g>
    </g>
    <g id="xtick_2">
     <g id="line2d_3">
      <path d="M 148.390909 320.4 
L 148.390909 43.2 
" clip-path="url(#pa20137a038)" style="fill: none; stroke: #b0b0b0; stroke-width: 0.8; stroke-linecap: square"/>
     </g>
     <g id="line2d_4">
      <g>
       <use xlink:href="#m2c595af0fb" x="148.390909" y="320.4" style="stroke: #000000; stroke-width: 0.8"/>
      </g>
     </g>
     <g id="text_2">
      <!-- 100 -->
      <g transform="translate(140.890909 334.275)scale(0.1 -0.1)">
       <defs>
        <path id="SimHei-31" d="M 1400 3600 
Q 1075 3275 575 2975 
L 575 3450 
Q 1200 3875 1600 4450 
L 1900 4450 
L 1900 150 
L 1400 150 
L 1400 3600 
z
" transform="scale(0.015625)"/>
       </defs>
       <use xlink:href="#SimHei-31"/>
       <use xlink:href="#SimHei-30" x="50"/>
       <use xlink:href="#SimHei-30" x="100"/>
      </g>
     </g>
    </g>
    <g id="xtick_3">
     <g id="line2d_5">
      <path d="M 216.027273 320.4 
L 216.027273 43.2 
" clip-path="url(#pa20137a038)" style="fill: none; stroke: #b0b0b0; stroke-width: 0.8; stroke-linecap: square"/>
     </g>
     <g id="line2d_6">
      <g>
       <use xlink:href="#m2c595af0fb" x="216.027273" y="320.4" style="stroke: #000000; stroke-width: 0.8"/>
      </g>
     </g>
     <g id="text_3">
      <!-- 200 -->
      <g transform="translate(208.527273 334.275)scale(0.1 -0.1)">
       <defs>
        <path id="SimHei-32" d="M 300 250 
Q 325 625 650 925 
Q 975 1225 1475 1862 
Q 1975 2500 2125 2850 
Q 2275 3200 2237 3450 
Q 2200 3700 2000 3862 
Q 1800 4025 1537 4000 
Q 1275 3975 1037 3800 
Q 800 3625 675 3275 
L 200 3350 
Q 400 3925 712 4187 
Q 1025 4450 1450 4475 
Q 1700 4500 1900 4462 
Q 2100 4425 2312 4287 
Q 2525 4150 2662 3875 
Q 2800 3600 2762 3212 
Q 2725 2825 2375 2287 
Q 2025 1750 1025 600 
L 2825 600 
L 2825 150 
L 300 150 
L 300 250 
z
" transform="scale(0.015625)"/>
       </defs>
       <use xlink:href="#SimHei-32"/>
       <use xlink:href="#SimHei-30" x="50"/>
       <use xlink:href="#SimHei-30" x="100"/>
      </g>
     </g>
    </g>
    <g id="xtick_4">
     <g id="line2d_7">
      <path d="M 283.663636 320.4 
L 283.663636 43.2 
" clip-path="url(#pa20137a038)" style="fill: none; stroke: #b0b0b0; stroke-width: 0.8; stroke-linecap: square"/>
     </g>
     <g id="line2d_8">
      <g>
       <use xlink:href="#m2c595af0fb" x="283.663636" y="320.4" style="stroke: #000000; stroke-width: 0.8"/>
      </g>
     </g>
     <g id="text_4">
      <!-- 300 -->
      <g transform="translate(276.163636 334.275)scale(0.1 -0.1)">
       <defs>
        <path id="SimHei-33" d="M 250 1225 
L 700 1300 
Q 800 975 1025 762 
Q 1250 550 1587 562 
Q 1925 575 2125 837 
Q 2325 1100 2300 1437 
Q 2275 1775 2037 1962 
Q 1800 2150 1275 2225 
L 1275 2550 
Q 1800 2600 2037 2825 
Q 2275 3050 2250 3412 
Q 2225 3775 1925 3937 
Q 1625 4100 1287 3975 
Q 950 3850 750 3275 
L 300 3350 
Q 450 3800 712 4100 
Q 975 4400 1425 4450 
Q 1875 4500 2212 4337 
Q 2550 4175 2687 3837 
Q 2825 3500 2725 3100 
Q 2625 2700 2150 2400 
Q 2500 2250 2687 1950 
Q 2875 1650 2812 1162 
Q 2750 675 2375 375 
Q 2000 75 1525 87 
Q 1050 100 700 387 
Q 350 675 250 1225 
z
" transform="scale(0.015625)"/>
       </defs>
       <use xlink:href="#SimHei-33"/>
       <use xlink:href="#SimHei-30" x="50"/>
       <use xlink:href="#SimHei-30" x="100"/>
      </g>
     </g>
    </g>
    <g id="xtick_5">
     <g id="line2d_9">
      <path d="M 351.3 320.4 
L 351.3 43.2 
" clip-path="url(#pa20137a038)" style="fill: none; stroke: #b0b0b0; stroke-width: 0.8; stroke-linecap: square"/>
     </g>
     <g id="line2d_10">
      <g>
       <use xlink:href="#m2c595af0fb" x="351.3" y="320.4" style="stroke: #000000; stroke-width: 0.8"/>
      </g>
     </g>
     <g id="text_5">
      <!-- 400 -->
      <g transform="translate(343.8 334.275)scale(0.1 -0.1)">
       <defs>
        <path id="SimHei-34" d="M 2000 1100 
L 75 1100 
L 75 1525 
L 2100 4450 
L 2475 4450 
L 2475 1525 
L 3075 1525 
L 3075 1100 
L 2475 1100 
L 2475 150 
L 2000 150 
L 2000 1100 
z
M 2000 1525 
L 2000 3500 
L 600 1525 
L 2000 1525 
z
" transform="scale(0.015625)"/>
       </defs>
       <use xlink:href="#SimHei-34"/>
       <use xlink:href="#SimHei-30" x="50"/>
       <use xlink:href="#SimHei-30" x="100"/>
      </g>
     </g>
    </g>
    <g id="xtick_6">
     <g id="line2d_11">
      <path d="M 418.936364 320.4 
L 418.936364 43.2 
" clip-path="url(#pa20137a038)" style="fill: none; stroke: #b0b0b0; stroke-width: 0.8; stroke-linecap: square"/>
     </g>
     <g id="line2d_12">
      <g>
       <use xlink:href="#m2c595af0fb" x="418.936364" y="320.4" style="stroke: #000000; stroke-width: 0.8"/>
      </g>
     </g>
     <g id="text_6">
      <!-- 500 -->
      <g transform="translate(411.436364 334.275)scale(0.1 -0.1)">
       <defs>
        <path id="SimHei-35" d="M 550 1325 
Q 725 650 1150 575 
Q 1575 500 1837 662 
Q 2100 825 2212 1087 
Q 2325 1350 2312 1675 
Q 2300 2000 2137 2225 
Q 1975 2450 1725 2525 
Q 1475 2600 1162 2525 
Q 850 2450 650 2175 
L 225 2225 
Q 275 2375 700 4375 
L 2675 4375 
L 2675 3925 
L 1075 3925 
Q 950 3250 825 2850 
Q 1200 3025 1525 3012 
Q 1850 3000 2150 2862 
Q 2450 2725 2587 2487 
Q 2725 2250 2787 2012 
Q 2850 1775 2837 1500 
Q 2825 1225 2725 937 
Q 2625 650 2425 462 
Q 2225 275 1937 162 
Q 1650 50 1275 75 
Q 900 100 562 350 
Q 225 600 100 1200 
L 550 1325 
z
" transform="scale(0.015625)"/>
       </defs>
       <use xlink:href="#SimHei-35"/>
       <use xlink:href="#SimHei-30" x="50"/>
       <use xlink:href="#SimHei-30" x="100"/>
      </g>
     </g>
    </g>
   </g>
   <g id="matplotlib.axis_2">
    <g id="ytick_1">
     <g id="line2d_13">
      <path d="M 63 296.953795 
L 453.6 296.953795 
" clip-path="url(#pa20137a038)" style="fill: none; stroke: #b0b0b0; stroke-width: 0.8; stroke-linecap: square"/>
     </g>
     <g id="line2d_14">
      <defs>
       <path id="m75b404cd6e" d="M 0 0 
L -3.5 0 
" style="stroke: #000000; stroke-width: 0.8"/>
      </defs>
      <g>
       <use xlink:href="#m75b404cd6e" x="63" y="296.953795" style="stroke: #000000; stroke-width: 0.8"/>
      </g>
     </g>
     <g id="text_7">
      <!-- 0 -->
      <g transform="translate(51 300.391295)scale(0.1 -0.1)">
       <use xlink:href="#SimHei-30"/>
      </g>
     </g>
    </g>
    <g id="ytick_2">
     <g id="line2d_15">
      <path d="M 63 242.965215 
L 453.6 242.965215 
" clip-path="url(#pa20137a038)" style="fill: none; stroke: #b0b0b0; stroke-width: 0.8; stroke-linecap: square"/>
     </g>
     <g id="line2d_16">
      <g>
       <use xlink:href="#m75b404cd6e" x="63" y="242.965215" style="stroke: #000000; stroke-width: 0.8"/>
      </g>
     </g>
     <g id="text_8">
      <!-- 200 -->
      <g transform="translate(41 246.402715)scale(0.1 -0.1)">
       <use xlink:href="#SimHei-32"/>
       <use xlink:href="#SimHei-30" x="50"/>
       <use xlink:href="#SimHei-30" x="100"/>
      </g>
     </g>
    </g>
    <g id="ytick_3">
     <g id="line2d_17">
      <path d="M 63 188.976636 
L 453.6 188.976636 
" clip-path="url(#pa20137a038)" style="fill: none; stroke: #b0b0b0; stroke-width: 0.8; stroke-linecap: square"/>
     </g>
     <g id="line2d_18">
      <g>
       <use xlink:href="#m75b404cd6e" x="63" y="188.976636" style="stroke: #000000; stroke-width: 0.8"/>
      </g>
     </g>
     <g id="text_9">
      <!-- 400 -->
      <g transform="translate(41 192.414136)scale(0.1 -0.1)">
       <use xlink:href="#SimHei-34"/>
       <use xlink:href="#SimHei-30" x="50"/>
       <use xlink:href="#SimHei-30" x="100"/>
      </g>
     </g>
    </g>
    <g id="ytick_4">
     <g id="line2d_19">
      <path d="M 63 134.988056 
L 453.6 134.988056 
" clip-path="url(#pa20137a038)" style="fill: none; stroke: #b0b0b0; stroke-width: 0.8; stroke-linecap: square"/>
     </g>
     <g id="line2d_20">
      <g>
       <use xlink:href="#m75b404cd6e" x="63" y="134.988056" style="stroke: #000000; stroke-width: 0.8"/>
      </g>
     </g>
     <g id="text_10">
      <!-- 600 -->
      <g transform="translate(41 138.425556)scale(0.1 -0.1)">
       <defs>
        <path id="SimHei-36" d="M 250 1612 
Q 275 1975 387 2225 
Q 500 2475 725 2850 
L 1750 4450 
L 2325 4450 
L 1275 2800 
Q 1950 2975 2350 2750 
Q 2750 2525 2887 2237 
Q 3025 1950 3037 1612 
Q 3050 1275 2937 950 
Q 2825 625 2537 362 
Q 2250 100 1737 75 
Q 1225 50 862 262 
Q 500 475 362 862 
Q 225 1250 250 1612 
z
M 1025 787 
Q 1250 550 1625 525 
Q 2000 500 2250 775 
Q 2500 1050 2500 1575 
Q 2500 2100 2187 2300 
Q 1875 2500 1487 2450 
Q 1100 2400 925 2075 
Q 750 1750 775 1387 
Q 800 1025 1025 787 
z
" transform="scale(0.015625)"/>
       </defs>
       <use xlink:href="#SimHei-36"/>
       <use xlink:href="#SimHei-30" x="50"/>
       <use xlink:href="#SimHei-30" x="100"/>
      </g>
     </g>
    </g>
    <g id="ytick_5">
     <g id="line2d_21">
      <path d="M 63 80.999476 
L 453.6 80.999476 
" clip-path="url(#pa20137a038)" style="fill: none; stroke: #b0b0b0; stroke-width: 0.8; stroke-linecap: square"/>
     </g>
     <g id="line2d_22">
      <g>
       <use xlink:href="#m75b404cd6e" x="63" y="80.999476" style="stroke: #000000; stroke-width: 0.8"/>
      </g>
     </g>
     <g id="text_11">
      <!-- 800 -->
      <g transform="translate(41 84.436976)scale(0.1 -0.1)">
       <defs>
        <path id="SimHei-38" d="M 175 1375 
Q 175 1675 325 1962 
Q 475 2250 825 2425 
Q 525 2600 425 2812 
Q 325 3025 312 3300 
Q 300 3575 387 3775 
Q 475 3975 650 4150 
Q 825 4325 1037 4387 
Q 1250 4450 1500 4450 
Q 1750 4450 1950 4400 
Q 2150 4350 2375 4187 
Q 2600 4025 2700 3725 
Q 2800 3425 2687 3025 
Q 2575 2625 2100 2400 
Q 2525 2275 2700 2012 
Q 2875 1750 2875 1375 
Q 2875 1000 2762 775 
Q 2650 550 2512 400 
Q 2375 250 2137 162 
Q 1900 75 1537 75 
Q 1175 75 912 162 
Q 650 250 475 425 
Q 300 600 237 837 
Q 175 1075 175 1375 
z
M 687 1400 
Q 675 1100 787 875 
Q 900 650 1200 587 
Q 1500 525 1825 600 
Q 2150 675 2275 950 
Q 2400 1225 2362 1500 
Q 2325 1775 2050 1962 
Q 1775 2150 1450 2125 
Q 1125 2100 912 1900 
Q 700 1700 687 1400 
z
M 775 3350 
Q 775 3100 950 2875 
Q 1125 2650 1500 2650 
Q 1875 2650 2062 2875 
Q 2250 3100 2237 3412 
Q 2225 3725 2012 3875 
Q 1800 4025 1437 4000 
Q 1075 3975 925 3787 
Q 775 3600 775 3350 
z
" transform="scale(0.015625)"/>
       </defs>
       <use xlink:href="#SimHei-38"/>
       <use xlink:href="#SimHei-30" x="50"/>
       <use xlink:href="#SimHei-30" x="100"/>
      </g>
     </g>
    </g>
   </g>
   <g id="line2d_23">
    <path d="M 80.754545 153.020241 
L 81.430909 212.407679 
L 82.107273 174.993593 
L 82.783636 222.341578 
L 83.46 212.569645 
L 84.136364 176.262325 
L 84.812727 183.442806 
L 85.489091 183.982692 
L 86.165455 176.694234 
L 86.841818 209.762239 
L 87.518182 234.893923 
L 88.194545 218.913303 
L 88.870909 189.219584 
L 89.547273 251.900325 
L 90.9 229.252116 
L 91.576364 227.659453 
L 92.252727 239.186015 
L 92.929091 180.014531 
L 93.605455 195.536248 
L 94.281818 226.63367 
L 94.958182 160.3087 
L 96.310909 70.930606 
L 96.987273 72.28032 
L 97.663636 77.652184 
L 98.34 120.141196 
L 99.016364 252.818131 
L 99.692727 186.088247 
L 100.369091 148.431212 
L 101.045455 207.008821 
L 101.721818 250.631594 
L 102.398182 222.260595 
L 103.074545 176.910188 
L 103.750909 199.63938 
L 104.427273 95.68437 
L 105.103636 183.361823 
L 105.78 161.118528 
L 106.456364 209.843222 
L 107.132727 133.827301 
L 107.809091 108.803595 
L 108.485455 107.723823 
L 109.161818 151.643533 
L 109.838182 129.049312 
L 111.190909 105.888211 
L 111.867273 82.808093 
L 112.543636 86.18238 
L 113.22 74.790789 
L 113.896364 68.663086 
L 114.572727 87.019203 
L 115.249091 111.125104 
L 115.925455 80.729533 
L 116.601818 96.170267 
L 117.278182 75.060732 
L 117.954545 82.052253 
L 118.630909 76.950333 
L 119.307273 77.301258 
L 119.983636 70.093783 
L 120.66 146.730572 
L 121.336364 68.582103 
L 122.012727 107.507869 
L 122.689091 80.810516 
L 123.365455 109.073538 
L 124.041818 108.425675 
L 124.718182 106.050177 
L 125.394545 96.494198 
L 126.070909 121.679871 
L 126.747273 90.52846 
L 127.423636 72.901189 
L 128.1 101.164211 
L 128.776364 82.241213 
L 129.452727 78.596984 
L 130.129091 95.981307 
L 130.805455 156.907419 
L 131.481818 247.500256 
L 132.158182 231.168711 
L 132.834545 224.285167 
L 133.510909 227.794424 
L 134.187273 135.419964 
L 134.863636 214.189302 
L 136.216364 297.277727 
L 137.569091 297.088767 
L 138.921818 297.088767 
L 139.598182 253.169057 
L 140.274545 233.787157 
L 140.950909 183.604772 
L 142.303636 259.512715 
L 142.98 166.652358 
L 143.656364 132.963484 
L 144.332727 150.212835 
L 145.009091 150.482778 
L 145.685455 127.132717 
L 146.361818 227.713442 
L 147.038182 271.228237 
L 147.714545 286.641976 
L 148.390909 279.542478 
L 149.067273 274.305586 
L 149.743636 284.752376 
L 150.42 297.115761 
L 151.096364 297.115761 
L 151.772727 240.076826 
L 152.449091 245.340713 
L 153.125455 196.292088 
L 153.801818 90.096552 
L 154.478182 82.484162 
L 155.154545 67.529325 
L 155.830909 71.389509 
L 156.507273 207.035816 
L 157.183636 297.331715 
L 157.86 204.120432 
L 158.536364 81.728322 
L 159.212727 74.088938 
L 159.889091 71.659452 
L 160.565455 68.609097 
L 161.241818 69.553897 
L 161.918182 118.980442 
L 162.594545 77.652184 
L 163.270909 72.064366 
L 163.947273 162.38726 
L 164.623636 204.741301 
L 165.3 213.109531 
L 165.976364 225.985807 
L 166.652727 236.432597 
L 167.329091 244.31493 
L 168.005455 242.587295 
L 168.681818 234.974906 
L 169.358182 211.840799 
L 170.034545 244.31493 
L 170.710909 216.240868 
L 171.387273 235.676757 
L 172.063636 232.761374 
L 172.74 179.474646 
L 174.092727 234.704963 
L 174.769091 228.442287 
L 175.445455 158.122162 
L 176.121818 164.816746 
L 176.798182 159.201934 
L 177.474545 158.931991 
L 178.150909 98.869696 
L 178.827273 108.425675 
L 179.503636 182.605983 
L 180.18 195.914168 
L 180.856364 191.325139 
L 181.532727 200.476203 
L 182.209091 225.769853 
L 182.885455 206.145004 
L 183.561818 181.76916 
L 184.238182 232.032528 
L 184.914545 214.432251 
L 185.590909 193.889596 
L 186.267273 228.037373 
L 186.943636 247.230313 
L 187.62 180.743377 
L 188.296364 264.128739 
L 188.972727 231.627614 
L 189.649091 258.594909 
L 190.325455 272.496969 
L 191.678182 224.609098 
L 192.354545 178.070942 
L 193.030909 191.64907 
L 193.707273 264.128739 
L 194.383636 185.413389 
L 195.06 179.744588 
L 195.736364 261.078384 
L 196.412727 287.100879 
L 197.089091 280.514273 
L 197.765455 270.040488 
L 198.441818 275.115415 
L 199.794545 297.142755 
L 201.823636 297.169749 
L 202.5 286.264056 
L 203.176364 281.432078 
L 203.852727 243.910016 
L 204.529091 277.787849 
L 205.205455 279.947393 
L 205.881818 271.336214 
L 206.558182 289.476377 
L 207.234545 277.274958 
L 207.910909 267.557013 
L 208.587273 175.803422 
L 209.263636 160.794597 
L 209.94 223.313372 
L 210.616364 99.193627 
L 211.292727 222.125624 
L 211.969091 264.560647 
L 212.645455 265.478453 
L 213.321818 284.374456 
L 213.998182 272.335003 
L 214.674545 255.814497 
L 215.350909 264.344693 
L 216.027273 296.926801 
L 216.703636 297.115761 
L 217.38 281.783004 
L 218.056364 253.573971 
L 218.732727 283.240696 
L 219.409091 284.671393 
L 220.085455 235.892711 
L 220.761818 247.851182 
L 221.438182 212.974559 
L 222.114545 115.82211 
L 222.790909 83.105031 
L 223.467273 71.794423 
L 224.143636 216.267863 
L 224.82 278.948604 
L 225.496364 213.379474 
L 226.172727 165.680563 
L 226.849091 99.46357 
L 227.525455 115.795116 
L 228.201818 266.369265 
L 228.878182 297.277727 
L 229.554545 297.277727 
L 230.230909 266.639208 
L 230.907273 230.277899 
L 231.583636 229.899979 
L 232.26 205.335175 
L 232.936364 218.346423 
L 233.612727 149.48399 
L 234.289091 218.022492 
L 234.965455 235.865717 
L 235.641818 236.864506 
L 236.994545 242.776255 
L 237.670909 177.045159 
L 238.347273 202.797712 
L 239.023636 182.848932 
L 239.7 125.51306 
L 240.376364 121.544899 
L 241.052727 73.090149 
L 241.729091 83.968848 
L 242.405455 121.490911 
L 243.081818 297.115761 
L 246.463636 297.115761 
L 247.14 67.583314 
L 247.816364 69.44592 
L 248.492727 72.712229 
L 249.169091 67.772274 
L 249.845455 71.686446 
L 250.521818 67.529325 
L 251.874545 76.86935 
L 252.550909 76.761373 
L 253.227273 70.0128 
L 253.903636 96.332233 
L 254.58 95.900324 
L 255.256364 154.261979 
L 255.932727 122.30074 
L 256.609091 118.46755 
L 257.285455 75.573624 
L 257.961818 140.035988 
L 258.638182 226.876619 
L 259.314545 248.040142 
L 259.990909 264.533653 
L 260.667273 272.335003 
L 261.343636 249.767776 
L 262.02 240.265786 
L 262.696364 265.640419 
L 263.372727 259.647687 
L 264.049091 237.512369 
L 264.725455 259.188784 
L 265.401818 268.852739 
L 266.078182 260.214567 
L 266.754545 237.134449 
L 268.107273 288.369611 
L 268.783636 291.82488 
L 269.46 297.169749 
L 270.136364 283.996536 
L 270.812727 291.608926 
L 271.489091 297.169749 
L 272.165455 228.793213 
L 272.841818 238.133237 
L 273.518182 236.810517 
L 274.870909 118.818476 
L 275.547273 234.327043 
L 276.223636 196.61602 
L 276.9 266.261288 
L 277.576364 269.716557 
L 278.252727 270.148465 
L 278.929091 205.038238 
L 279.605455 245.556667 
L 280.281818 238.322198 
L 280.958182 252.87212 
L 281.634545 205.524135 
L 282.310909 262.428098 
L 282.987273 237.64734 
L 283.663636 168.595947 
L 284.34 243.505101 
L 285.016364 183.766738 
L 285.692727 214.108319 
L 286.369091 226.471704 
L 287.045455 203.931472 
L 287.721818 266.990133 
L 288.398182 211.678833 
L 289.750909 173.481913 
L 290.427273 177.099148 
L 291.103636 233.652185 
L 291.78 207.926627 
L 292.456364 244.071981 
L 293.132727 227.95639 
L 293.809091 283.45665 
L 295.161818 278.948604 
L 295.838182 282.754799 
L 296.514545 297.142755 
L 298.543636 297.088767 
L 308.012727 297.115761 
L 308.689091 289.314411 
L 309.365455 297.088767 
L 310.041818 285.049313 
L 310.718182 294.0924 
L 311.394545 297.088767 
L 316.129091 297.169749 
L 316.805455 293.282572 
L 317.481818 297.115761 
L 324.921818 297.142755 
L 325.598182 296.035989 
L 326.274545 297.115761 
L 326.950909 284.455439 
L 327.627273 280.784216 
L 328.303636 280.649244 
L 328.98 285.805153 
L 329.656364 276.708078 
L 330.332727 297.115761 
L 331.009091 297.142755 
L 331.685455 285.697176 
L 332.361818 289.287417 
L 333.038182 297.169749 
L 334.390909 297.115761 
L 335.067273 297.115761 
L 335.743636 297.277727 
L 336.42 297.115761 
L 337.772727 297.115761 
L 339.125455 252.764143 
L 339.801818 189.489527 
L 340.478182 209.870216 
L 341.154545 114.580373 
L 341.830909 215.24208 
L 342.507273 252.953103 
L 343.183636 283.26769 
L 343.86 275.628306 
L 344.536364 264.344693 
L 345.212727 283.753587 
L 345.889091 276.681083 
L 346.565455 273.900672 
L 347.241818 279.785427 
L 347.918182 278.705655 
L 348.594545 281.56705 
L 349.270909 265.046545 
L 349.947273 274.33258 
L 350.623636 252.062291 
L 351.3 265.856373 
L 351.976364 235.730746 
L 352.652727 152.31839 
L 353.329091 162.684197 
L 354.005455 149.996881 
L 354.681818 109.748395 
L 355.358182 93.551821 
L 356.034545 127.186706 
L 356.710909 92.795981 
L 357.387273 93.254884 
L 358.063636 140.764834 
L 358.74 89.718632 
L 359.416364 111.880944 
L 360.092727 153.101224 
L 360.769091 113.878521 
L 361.445455 154.828859 
L 362.121818 102.001034 
L 362.798182 156.097591 
L 363.474545 142.06056 
L 364.150909 134.610136 
L 364.827273 223.232389 
L 365.503636 158.365111 
L 366.18 175.425502 
L 366.856364 166.949295 
L 367.532727 222.206606 
L 368.209091 255.220623 
L 368.885455 243.74805 
L 369.561818 175.641456 
L 370.238182 130.884924 
L 370.914545 207.008821 
L 371.590909 195.563242 
L 372.267273 232.896345 
L 372.943636 128.833358 
L 373.62 89.907592 
L 374.296364 201.987883 
L 374.972727 167.462187 
L 375.649091 183.982692 
L 376.325455 152.642321 
L 377.001818 86.93822 
L 377.678182 73.252115 
L 378.354545 162.603214 
L 379.030909 170.296587 
L 379.707273 223.475338 
L 380.383636 217.32064 
L 381.06 148.134275 
L 381.736364 260.511504 
L 382.412727 203.337598 
L 383.089091 200.611175 
L 383.765455 215.350057 
L 384.441818 259.647687 
L 385.118182 222.017646 
L 385.794545 245.664644 
L 386.470909 215.916937 
L 387.147273 247.932165 
L 387.823636 218.238446 
L 388.5 268.582796 
L 389.176364 251.198474 
L 389.852727 157.231351 
L 390.529091 183.550783 
L 391.205455 182.309046 
L 391.881818 134.178227 
L 392.558182 152.156424 
L 393.234545 129.751164 
L 393.910909 89.77262 
L 394.587273 152.831281 
L 395.263636 186.142235 
L 395.94 175.182553 
L 396.616364 143.032354 
L 397.292727 166.355421 
L 397.969091 84.778677 
L 398.645455 98.437787 
L 399.321818 181.95812 
L 399.998182 111.287069 
L 400.674545 138.011416 
L 401.350909 144.89496 
L 402.027273 113.203664 
L 402.703636 74.790789 
L 403.38 68.31216 
L 404.056364 68.771063 
L 404.732727 83.240002 
L 405.409091 111.772967 
L 406.085455 160.794597 
L 406.761818 228.766219 
L 407.438182 142.843394 
L 408.114545 237.809306 
L 408.790909 235.244848 
L 409.467273 233.193282 
L 410.143636 297.304721 
L 410.82 262.050178 
L 411.496364 244.071981 
L 412.172727 281.863987 
L 412.849091 279.461495 
L 413.525455 244.935799 
L 414.201818 233.382242 
L 415.554545 133.449381 
L 416.230909 116.281013 
L 416.907273 88.07198 
L 417.583636 142.519463 
L 418.26 99.031662 
L 418.936364 88.854814 
L 419.612727 117.71171 
L 420.289091 154.747876 
L 420.965455 235.730746 
L 421.641818 270.256442 
L 422.318182 297.223738 
L 422.994545 253.034086 
L 423.670909 221.234812 
L 425.023636 256.381377 
L 425.7 258.216989 
L 426.376364 235.784734 
L 427.052727 190.70427 
L 427.729091 157.393316 
L 428.405455 162.873157 
L 429.081818 234.947911 
L 429.758182 153.047236 
L 430.434545 167.570164 
L 431.110909 128.374455 
L 431.787273 121.193974 
L 432.463636 180.311469 
L 433.14 173.103993 
L 433.816364 75.330675 
L 435.169091 68.096205 
L 435.845455 70.76864 
L 435.845455 70.76864 
" clip-path="url(#pa20137a038)" style="fill: none; stroke: #1f77b4; stroke-width: 1.5; stroke-linecap: square"/>
   </g>
   <g id="line2d_24">
    <path d="M 80.754545 142.099084 
L 81.430909 215.317775 
L 82.107273 180.674557 
L 82.783636 218.260135 
L 83.46 218.113787 
L 84.136364 177.660173 
L 84.812727 191.720121 
L 85.489091 175.755793 
L 86.165455 186.181011 
L 86.841818 208.227268 
L 87.518182 236.75012 
L 88.194545 217.095471 
L 88.870909 192.419627 
L 89.547273 251.992543 
L 90.223636 239.006974 
L 90.9 229.477734 
L 91.576364 226.547492 
L 92.252727 244.936318 
L 92.929091 186.875796 
L 93.605455 194.439668 
L 94.281818 236.740942 
L 94.958182 163.875974 
L 95.634545 126.281705 
L 96.310909 55.8 
L 96.987273 64.941498 
L 97.663636 81.283143 
L 98.34 119.682603 
L 99.016364 253.27352 
L 99.692727 191.751722 
L 100.369091 156.400044 
L 101.721818 250.033208 
L 102.398182 217.084135 
L 103.074545 175.625254 
L 103.750909 200.846297 
L 104.427273 100.164532 
L 105.103636 179.182111 
L 105.78 157.089186 
L 106.456364 217.949826 
L 107.132727 132.309485 
L 107.809091 103.164714 
L 108.485455 119.519359 
L 109.161818 160.139867 
L 109.838182 130.379008 
L 110.514545 121.369845 
L 111.867273 85.522502 
L 112.543636 95.980038 
L 113.22 74.914376 
L 113.896364 63.7099 
L 115.249091 110.93185 
L 115.925455 78.877959 
L 116.601818 100.302568 
L 117.278182 71.034606 
L 118.630909 88.537941 
L 119.307273 77.656148 
L 119.983636 72.726527 
L 120.66 138.373233 
L 121.336364 66.423054 
L 122.012727 106.647956 
L 122.689091 96.934642 
L 123.365455 103.356034 
L 124.041818 123.014974 
L 124.718182 113.498828 
L 125.394545 97.673459 
L 126.070909 117.278424 
L 127.423636 69.163706 
L 128.1 106.713613 
L 128.776364 82.188566 
L 129.452727 79.776215 
L 130.129091 101.425309 
L 130.805455 159.610625 
L 131.481818 250.312678 
L 132.158182 230.319102 
L 132.834545 223.120269 
L 133.510909 238.673665 
L 134.187273 137.443129 
L 134.863636 218.001709 
L 136.216364 299.145458 
L 136.892727 295.675311 
L 137.569091 300.922276 
L 138.245455 295.640328 
L 138.921818 295.366377 
L 139.598182 261.347529 
L 140.274545 241.885522 
L 140.950909 178.528475 
L 141.627273 226.646389 
L 142.303636 257.416778 
L 142.98 173.560464 
L 143.656364 126.291986 
L 144.332727 148.728337 
L 145.009091 149.074712 
L 145.685455 130.262935 
L 146.361818 226.745921 
L 147.038182 272.971723 
L 147.714545 286.733036 
L 148.390909 275.835447 
L 149.067273 276.858368 
L 149.743636 284.425711 
L 150.42 296.730006 
L 151.096364 296.697989 
L 151.772727 243.866107 
L 152.449091 248.562337 
L 153.125455 201.720703 
L 153.801818 85.674724 
L 154.478182 84.11527 
L 155.154545 60.485249 
L 155.830909 67.544839 
L 156.507273 206.821535 
L 157.183636 300.942595 
L 158.536364 83.63427 
L 159.212727 73.266347 
L 159.889091 69.846224 
L 160.565455 82.532223 
L 161.241818 65.051064 
L 161.918182 118.392598 
L 162.594545 74.264661 
L 163.270909 67.639197 
L 163.947273 169.426972 
L 164.623636 197.698309 
L 165.3 216.867583 
L 165.976364 228.526224 
L 166.652727 237.978587 
L 167.329091 240.472235 
L 168.681818 230.953444 
L 169.358182 214.49423 
L 170.034545 244.338421 
L 170.710909 220.443156 
L 171.387273 238.289358 
L 172.063636 233.402837 
L 172.74 183.990279 
L 174.092727 234.274867 
L 174.769091 226.100292 
L 175.445455 152.537376 
L 176.121818 161.090631 
L 176.798182 166.520547 
L 177.474545 154.80945 
L 178.150909 103.107411 
L 178.827273 117.648574 
L 179.503636 190.295046 
L 180.18 197.536951 
L 180.856364 191.104108 
L 181.532727 204.491605 
L 182.209091 229.711664 
L 182.885455 201.195144 
L 183.561818 187.044643 
L 184.238182 231.019307 
L 184.914545 219.36556 
L 185.590909 191.930932 
L 186.267273 231.614429 
L 186.943636 246.495764 
L 187.62 181.729738 
L 188.296364 264.488334 
L 188.972727 237.127704 
L 189.649091 260.059929 
L 190.325455 273.126892 
L 191.001818 250.007201 
L 191.678182 230.95129 
L 192.354545 170.577961 
L 193.030909 192.322633 
L 193.707273 263.276623 
L 194.383636 187.245946 
L 195.06 174.261601 
L 195.736364 263.541514 
L 196.412727 287.963196 
L 197.765455 270.429067 
L 198.441818 277.55466 
L 199.794545 294.900984 
L 200.470909 296.418481 
L 201.147273 295.602775 
L 201.823636 296.913474 
L 202.5 286.605001 
L 203.176364 282.696649 
L 203.852727 247.122614 
L 204.529091 277.345436 
L 205.205455 280.981612 
L 205.881818 272.957535 
L 206.558182 289.948036 
L 207.234545 276.810773 
L 207.910909 266.410244 
L 208.587273 178.534736 
L 209.263636 157.256318 
L 209.94 221.622064 
L 210.616364 103.65761 
L 211.292727 216.409789 
L 211.969091 264.836503 
L 212.645455 263.308994 
L 213.321818 283.804726 
L 213.998182 272.705619 
L 214.674545 253.579051 
L 215.350909 267.15402 
L 216.027273 293.137276 
L 216.703636 295.290345 
L 217.38 283.702851 
L 218.056364 254.709713 
L 218.732727 282.691747 
L 219.409091 284.405314 
L 220.085455 235.889195 
L 220.761818 250.035618 
L 221.438182 210.155933 
L 222.114545 113.123867 
L 222.790909 87.309935 
L 223.467273 76.629561 
L 224.143636 220.158138 
L 224.82 276.172846 
L 225.496364 204.646299 
L 226.172727 163.454518 
L 226.849091 94.137082 
L 227.525455 120.192717 
L 228.201818 273.313405 
L 228.878182 300.982661 
L 229.554545 295.923188 
L 230.907273 230.059633 
L 231.583636 229.218826 
L 232.26 205.928256 
L 232.936364 215.745781 
L 233.612727 155.598832 
L 234.289091 215.088471 
L 234.965455 236.686485 
L 235.641818 229.247374 
L 236.318182 238.554798 
L 236.994545 244.860978 
L 237.670909 176.923193 
L 238.347273 201.75438 
L 239.023636 187.976756 
L 239.7 122.07454 
L 240.376364 121.021246 
L 241.052727 69.780205 
L 241.729091 79.303551 
L 242.405455 66.078227 
L 243.081818 140.210423 
L 243.758182 196.254146 
L 244.434545 307.8 
L 245.110909 290.577288 
L 245.787273 205.273079 
L 246.463636 206.656874 
L 247.14 200.454119 
L 247.816364 63.585951 
L 248.492727 96.179678 
L 249.169091 70.870274 
L 249.845455 64.194789 
L 251.198182 59.417983 
L 251.874545 78.091461 
L 252.550909 71.624101 
L 253.227273 60.817389 
L 253.903636 100.622994 
L 254.58 95.886982 
L 255.256364 154.78958 
L 255.932727 130.806742 
L 256.609091 115.41769 
L 257.285455 73.588272 
L 257.961818 134.012775 
L 258.638182 226.917848 
L 259.990909 263.04824 
L 260.667273 271.701654 
L 261.343636 251.787112 
L 262.02 238.918309 
L 262.696364 268.627311 
L 263.372727 260.159617 
L 264.049091 238.419263 
L 264.725455 260.495786 
L 265.401818 268.824638 
L 266.078182 262.165884 
L 266.754545 240.508639 
L 267.430909 259.125044 
L 268.107273 287.275772 
L 268.783636 289.935164 
L 269.46 297.773608 
L 270.136364 286.32385 
L 270.812727 292.328383 
L 271.489091 295.162763 
L 272.165455 228.748749 
L 272.841818 238.67932 
L 273.518182 240.169212 
L 274.194545 177.165431 
L 274.870909 125.251807 
L 275.547273 235.815061 
L 276.223636 201.184945 
L 276.9 263.655944 
L 277.576364 269.750396 
L 278.252727 269.50311 
L 278.929091 207.320668 
L 279.605455 245.310155 
L 280.281818 237.269563 
L 280.958182 250.569651 
L 281.634545 209.647994 
L 282.310909 260.957143 
L 282.987273 233.300917 
L 283.663636 163.408468 
L 284.34 245.862414 
L 285.016364 182.674925 
L 285.692727 217.546724 
L 286.369091 226.663648 
L 287.045455 207.30897 
L 287.721818 266.634647 
L 288.398182 209.409982 
L 289.750909 167.778556 
L 290.427273 178.043108 
L 291.103636 233.579382 
L 291.78 205.11855 
L 292.456364 246.503652 
L 293.132727 224.958299 
L 293.809091 284.747405 
L 294.485455 282.111096 
L 295.161818 281.609084 
L 295.838182 284.004762 
L 296.514545 296.401594 
L 297.190909 298.488251 
L 297.867273 297.471611 
L 298.543636 297.084553 
L 299.22 298.365645 
L 299.896364 298.744894 
L 301.249091 297.530262 
L 301.925455 298.027479 
L 302.601818 295.787875 
L 303.278182 298.830289 
L 303.954545 294.930846 
L 304.630909 297.357577 
L 305.307273 298.867986 
L 305.983636 298.949472 
L 306.66 295.81574 
L 307.336364 293.764044 
L 308.012727 299.813396 
L 308.689091 290.846308 
L 309.365455 297.107022 
L 310.041818 285.866233 
L 310.718182 293.292106 
L 311.394545 297.886786 
L 312.070909 297.733831 
L 312.747273 296.63531 
L 313.423636 296.278365 
L 314.1 297.29372 
L 314.776364 297.957332 
L 316.129091 297.260686 
L 316.805455 294.857771 
L 317.481818 298.941844 
L 318.158182 297.877568 
L 318.834545 297.72921 
L 319.510909 297.699314 
L 320.187273 296.970831 
L 320.863636 295.797048 
L 321.54 298.166182 
L 322.216364 294.623985 
L 322.892727 296.425039 
L 323.569091 297.198204 
L 324.245455 296.625626 
L 324.921818 294.417874 
L 325.598182 295.802468 
L 326.274545 296.483166 
L 326.950909 285.47263 
L 327.627273 280.72518 
L 328.303636 279.628644 
L 328.98 286.173033 
L 329.656364 278.676013 
L 330.332727 297.25255 
L 331.009091 295.619902 
L 331.685455 285.742231 
L 333.038182 294.754129 
L 333.714545 297.64928 
L 334.390909 297.732674 
L 335.067273 297.50376 
L 335.743636 294.405258 
L 336.42 294.143104 
L 337.096364 298.655252 
L 337.772727 297.035533 
L 339.125455 254.660293 
L 339.801818 179.578738 
L 340.478182 224.381795 
L 341.154545 117.98686 
L 341.830909 207.08983 
L 342.507273 253.956463 
L 343.183636 285.365717 
L 344.536364 261.751303 
L 345.212727 283.372165 
L 345.889091 276.039757 
L 346.565455 276.379423 
L 347.241818 280.708065 
L 347.918182 279.874869 
L 348.594545 282.879026 
L 349.270909 265.979656 
L 349.947273 273.929764 
L 350.623636 253.665616 
L 351.3 266.665943 
L 351.976364 237.802018 
L 352.652727 148.30146 
L 353.329091 160.000447 
L 354.005455 154.901123 
L 354.681818 112.894324 
L 355.358182 92.348759 
L 356.034545 128.07792 
L 356.710909 95.702928 
L 357.387273 91.685567 
L 358.063636 142.08274 
L 358.74 93.704405 
L 359.416364 111.066146 
L 360.092727 157.319982 
L 360.769091 113.243681 
L 361.445455 155.860455 
L 362.121818 104.46711 
L 362.798182 155.584547 
L 363.474545 143.747805 
L 364.150909 138.358454 
L 364.827273 219.925629 
L 365.503636 155.789262 
L 366.18 170.193922 
L 366.856364 160.244316 
L 367.532727 222.795032 
L 368.209091 253.96108 
L 368.885455 240.814664 
L 369.561818 168.936704 
L 370.238182 131.621513 
L 370.914545 203.793533 
L 371.590909 202.753065 
L 372.267273 232.856567 
L 372.943636 130.612687 
L 373.62 90.790146 
L 374.296364 200.431851 
L 374.972727 163.277599 
L 375.649091 187.378578 
L 376.325455 152.301439 
L 377.001818 87.597194 
L 377.678182 64.628701 
L 378.354545 163.986784 
L 379.030909 175.855275 
L 379.707273 221.065126 
L 380.383636 216.810922 
L 381.06 146.66765 
L 381.736364 258.371394 
L 382.412727 208.807125 
L 383.089091 201.411259 
L 383.765455 212.972951 
L 384.441818 257.673437 
L 385.118182 217.81782 
L 385.794545 243.796529 
L 386.470909 218.860817 
L 387.147273 248.835992 
L 387.823636 217.541493 
L 388.5 270.998404 
L 389.176364 250.583832 
L 389.852727 157.24523 
L 390.529091 188.588304 
L 391.205455 170.968821 
L 391.881818 137.968203 
L 392.558182 148.977916 
L 393.234545 128.77614 
L 393.910909 89.010885 
L 394.587273 147.22762 
L 395.263636 178.531061 
L 395.94 173.249414 
L 396.616364 144.946451 
L 397.292727 164.795632 
L 397.969091 84.870547 
L 398.645455 108.125656 
L 399.321818 174.662421 
L 399.998182 109.325983 
L 400.674545 137.961349 
L 401.350909 142.846139 
L 402.027273 113.842089 
L 402.703636 69.802102 
L 403.38 69.385654 
L 404.056364 71.7466 
L 405.409091 106.411311 
L 406.761818 232.053823 
L 407.438182 151.739723 
L 408.114545 239.222489 
L 408.790909 238.004232 
L 409.467273 229.169875 
L 410.143636 294.584566 
L 410.82 262.124142 
L 411.496364 244.657202 
L 412.172727 281.718922 
L 412.849091 282.497747 
L 413.525455 241.648947 
L 414.201818 238.636664 
L 414.878182 177.24847 
L 415.554545 134.623607 
L 416.230909 117.440779 
L 416.907273 83.34327 
L 417.583636 146.001459 
L 418.26 99.796508 
L 418.936364 85.78747 
L 419.612727 111.386077 
L 420.289091 153.968877 
L 420.965455 236.755713 
L 421.641818 273.580816 
L 422.318182 300.228591 
L 422.994545 251.208697 
L 423.670909 224.680242 
L 424.347273 236.773688 
L 425.023636 256.54841 
L 425.7 259.422637 
L 426.376364 236.42534 
L 427.052727 193.793932 
L 427.729091 162.735991 
L 428.405455 160.764522 
L 429.081818 238.384947 
L 429.758182 156.568429 
L 430.434545 167.121031 
L 431.110909 127.43608 
L 431.787273 118.293346 
L 432.463636 185.537335 
L 433.14 166.468334 
L 433.816364 69.140738 
L 434.492727 70.229984 
L 435.169091 60.691348 
L 435.845455 73.522714 
L 435.845455 73.522714 
" clip-path="url(#pa20137a038)" style="fill: none; stroke-dasharray: 5.55,2.4; stroke-dashoffset: 0; stroke: #ff7f0e; stroke-width: 1.5"/>
   </g>
   <g id="patch_3">
    <path d="M 63 320.4 
L 63 43.2 
" style="fill: none; stroke: #000000; stroke-width: 0.8; stroke-linejoin: miter; stroke-linecap: square"/>
   </g>
   <g id="patch_4">
    <path d="M 453.6 320.4 
L 453.6 43.2 
" style="fill: none; stroke: #000000; stroke-width: 0.8; stroke-linejoin: miter; stroke-linecap: square"/>
   </g>
   <g id="patch_5">
    <path d="M 63 320.4 
L 453.6 320.4 
" style="fill: none; stroke: #000000; stroke-width: 0.8; stroke-linejoin: miter; stroke-linecap: square"/>
   </g>
   <g id="patch_6">
    <path d="M 63 43.2 
L 453.6 43.2 
" style="fill: none; stroke: #000000; stroke-width: 0.8; stroke-linejoin: miter; stroke-linecap: square"/>
   </g>
   <g id="text_12">
    <!-- RNNModel 验证集预测 -->
    <g transform="translate(201.3 37.2)scale(0.12 -0.12)">
     <defs>
      <path id="SimHei-52" d="M 3000 125 
L 2400 125 
L 1500 1975 
L 850 1975 
L 850 125 
L 275 125 
L 275 4400 
L 1525 4400 
Q 2125 4400 2500 4112 
Q 2875 3825 2875 3175 
Q 2875 2675 2625 2400 
Q 2375 2125 2050 2050 
L 3000 125 
z
M 2300 3175 
Q 2300 3525 2087 3725 
Q 1875 3925 1400 3925 
L 850 3925 
L 850 2450 
L 1550 2450 
Q 1850 2450 2075 2612 
Q 2300 2775 2300 3175 
z
" transform="scale(0.015625)"/>
      <path id="SimHei-4e" d="M 2850 125 
L 2225 125 
L 850 3225 
L 825 3225 
L 825 125 
L 250 125 
L 250 4400 
L 875 4400 
L 2250 1300 
L 2275 1300 
L 2275 4400 
L 2850 4400 
L 2850 125 
z
" transform="scale(0.015625)"/>
      <path id="SimHei-4d" d="M 2925 125 
L 2425 125 
L 2425 3175 
L 2375 3175 
L 1775 125 
L 1375 125 
L 775 3175 
L 725 3175 
L 725 125 
L 225 125 
L 225 4400 
L 1000 4400 
L 1550 1575 
L 1600 1575 
L 2150 4400 
L 2925 4400 
L 2925 125 
z
" transform="scale(0.015625)"/>
      <path id="SimHei-6f" d="M 2925 1525 
Q 2925 875 2525 475 
Q 2125 75 1575 75 
Q 1025 75 625 475 
Q 225 875 225 1525 
Q 225 2175 625 2575 
Q 1025 2975 1575 2975 
Q 2125 2975 2525 2575 
Q 2925 2175 2925 1525 
z
M 2375 1525 
Q 2375 2025 2125 2275 
Q 1875 2525 1575 2525 
Q 1275 2525 1025 2275 
Q 775 2025 775 1525 
Q 775 1025 1025 775 
Q 1275 525 1575 525 
Q 1875 525 2125 775 
Q 2375 1025 2375 1525 
z
" transform="scale(0.015625)"/>
      <path id="SimHei-64" d="M 2750 125 
L 2250 125 
L 2250 500 
Q 2100 275 1900 175 
Q 1700 75 1425 75 
Q 925 75 575 437 
Q 225 800 225 1525 
Q 225 2250 575 2625 
Q 925 3000 1425 3000 
Q 1700 3000 1900 2887 
Q 2100 2775 2250 2550 
L 2250 4400 
L 2750 4400 
L 2750 125 
z
M 2250 1525 
Q 2250 2000 2037 2275 
Q 1825 2550 1525 2550 
Q 1150 2550 962 2275 
Q 775 2000 775 1525 
Q 775 1050 962 787 
Q 1150 525 1525 525 
Q 1825 525 2037 787 
Q 2250 1050 2250 1525 
z
" transform="scale(0.015625)"/>
      <path id="SimHei-65" d="M 2850 1075 
Q 2800 625 2450 350 
Q 2100 75 1625 75 
Q 1025 75 637 462 
Q 250 850 250 1525 
Q 250 2200 637 2587 
Q 1025 2975 1625 2975 
Q 2150 2975 2487 2637 
Q 2825 2300 2825 1525 
L 800 1525 
Q 800 975 1037 750 
Q 1275 525 1625 525 
Q 1900 525 2075 662 
Q 2250 800 2300 1075 
L 2850 1075 
z
M 2250 1925 
Q 2200 2275 2025 2412 
Q 1850 2550 1575 2550 
Q 1325 2550 1125 2412 
Q 925 2275 825 1925 
L 2250 1925 
z
" transform="scale(0.015625)"/>
      <path id="SimHei-6c" d="M 1825 125 
L 1325 125 
L 1325 4400 
L 1825 4400 
L 1825 125 
z
" transform="scale(0.015625)"/>
      <path id="SimHei-20" transform="scale(0.015625)"/>
      <path id="SimHei-9a8c" d="M 2300 4725 
Q 2250 4500 2225 4075 
L 2050 2125 
L 2525 2125 
Q 2500 1925 2475 1450 
L 2375 75 
Q 2375 -450 2075 -525 
Q 1775 -600 1250 -675 
Q 1175 -325 1050 -100 
Q 1575 -100 1737 -87 
Q 1900 -75 1950 150 
L 2025 1700 
L 550 1700 
Q 575 2175 587 2737 
Q 600 3300 600 3800 
L 1100 3800 
Q 1050 3525 1025 3087 
Q 1000 2650 1000 2125 
L 1625 2125 
L 1800 4325 
L 1125 4325 
Q 725 4325 350 4300 
L 350 4750 
Q 725 4725 1125 4725 
L 2300 4725 
z
M 4325 4875 
Q 4725 4125 5150 3775 
Q 5575 3425 6150 3225 
Q 5925 3025 5800 2725 
Q 5450 2925 5125 3200 
L 5125 2775 
Q 4800 2800 4200 2800 
Q 3600 2800 3225 2775 
L 3225 3175 
Q 3075 2975 2800 2650 
Q 2575 2875 2325 3000 
Q 2725 3275 2937 3550 
Q 3150 3825 3312 4125 
Q 3475 4425 3587 4675 
Q 3700 4925 3775 5225 
Q 4100 5150 4450 5075 
L 4325 4875 
z
M 5600 2150 
Q 5475 2000 5400 1737 
Q 5325 1475 5162 912 
Q 5000 350 4900 25 
L 5250 25 
Q 5425 25 5800 50 
L 5800 -400 
Q 5475 -375 5250 -375 
L 3325 -375 
Q 2875 -375 2675 -400 
L 2675 50 
Q 2975 25 3350 25 
L 4475 25 
Q 4675 575 4800 1150 
L 5050 2300 
Q 5250 2225 5600 2150 
z
M 5100 3225 
Q 4800 3450 4550 3775 
Q 4300 4100 4050 4600 
Q 3850 4200 3687 3912 
Q 3525 3625 3250 3225 
L 5100 3225 
z
M 3250 2175 
Q 3350 1825 3462 1375 
Q 3575 925 3675 550 
Q 3450 525 3250 425 
Q 3175 900 3087 1225 
Q 3000 1550 2850 2050 
Q 3050 2125 3250 2175 
z
M 1775 1125 
Q 1750 950 1725 700 
Q 1350 625 1112 575 
Q 875 525 375 375 
Q 300 650 200 925 
Q 550 950 925 1000 
Q 1300 1050 1775 1125 
z
M 4300 1650 
Q 4350 1325 4425 825 
L 4025 725 
Q 3925 1275 3875 1562 
Q 3825 1850 3750 2225 
Q 3975 2275 4200 2300 
L 4300 1650 
z
" transform="scale(0.015625)"/>
      <path id="SimHei-8bc1" d="M 5125 4675 
Q 5625 4675 6050 4700 
L 6050 4225 
Q 5625 4250 5125 4250 
L 4500 4250 
L 4500 2625 
L 5075 2625 
Q 5500 2625 5900 2650 
L 5900 2175 
Q 5525 2200 5075 2200 
L 4500 2200 
L 4500 125 
L 5200 125 
Q 5625 125 6175 150 
L 6175 -325 
Q 5625 -300 5200 -300 
L 3000 -300 
Q 2400 -300 2000 -325 
L 2000 150 
Q 2400 125 2775 125 
L 2775 2075 
Q 2775 2600 2750 2950 
L 3275 2950 
Q 3250 2625 3250 2075 
L 3250 125 
L 4000 125 
L 4000 4250 
L 3550 4250 
Q 2975 4250 2450 4225 
L 2450 4700 
Q 2975 4675 3550 4675 
L 5125 4675 
z
M 850 -125 
Q 1150 175 1150 500 
L 1150 2750 
L 925 2750 
Q 575 2750 225 2725 
L 225 3200 
Q 550 3175 925 3175 
L 1650 3175 
Q 1625 2700 1625 2175 
L 1625 800 
Q 1850 1075 2025 1325 
Q 2150 1050 2325 825 
Q 2050 500 1812 212 
Q 1575 -75 1225 -525 
Q 1050 -300 850 -125 
z
M 1525 3900 
Q 1100 4500 800 4825 
Q 1000 4975 1175 5175 
L 1925 4275 
Q 1675 4100 1525 3900 
z
" transform="scale(0.015625)"/>
      <path id="SimHei-96c6" d="M 2275 4925 
Q 2125 4800 2025 4662 
Q 1925 4525 1850 4350 
L 4925 4350 
Q 5300 4350 5750 4375 
L 5750 3975 
L 3650 3975 
L 3650 3575 
L 4625 3575 
Q 4925 3575 5325 3600 
L 5325 3175 
Q 4925 3200 4625 3200 
L 3650 3200 
L 3650 2800 
L 4675 2800 
Q 5000 2800 5425 2825 
L 5425 2400 
Q 5000 2425 4675 2425 
L 3650 2425 
L 3650 2075 
L 4875 2075 
Q 5275 2075 5675 2100 
L 5675 1675 
Q 5300 1700 4900 1700 
L 1650 1700 
L 1650 1500 
L 1150 1500 
Q 1200 1950 1200 2325 
L 1200 3475 
Q 1050 3250 937 3125 
Q 825 3000 675 2825 
Q 500 3000 300 3125 
Q 475 3325 875 3825 
Q 1275 4325 1462 4650 
Q 1650 4975 1725 5225 
Q 1950 5100 2275 4925 
z
M 2975 1200 
Q 2975 1300 2950 1625 
L 3475 1625 
Q 3450 1275 3450 1200 
L 5050 1200 
Q 5500 1200 5925 1225 
L 5925 825 
L 4150 825 
Q 4500 525 4925 362 
Q 5350 200 6100 25 
Q 5875 -225 5775 -475 
Q 5275 -300 4962 -162 
Q 4650 -25 4387 137 
Q 4125 300 3950 462 
Q 3775 625 3575 825 
L 3450 825 
L 3450 250 
Q 3450 -275 3500 -650 
L 2950 -650 
Q 2975 -300 2975 250 
L 2975 825 
L 2875 825 
Q 2700 575 2475 375 
Q 2250 175 1987 12 
Q 1725 -150 1425 -300 
Q 1125 -450 700 -575 
Q 600 -325 400 -75 
Q 925 50 1475 262 
Q 2025 475 2300 825 
L 500 825 
L 500 1225 
Q 800 1200 1400 1200 
L 2975 1200 
z
M 3150 2800 
L 3150 3200 
L 1650 3200 
L 1650 2800 
L 3150 2800 
z
M 3150 3575 
L 3150 3975 
L 1650 3975 
L 1650 3575 
L 3150 3575 
z
M 3150 2075 
L 3150 2425 
L 1650 2425 
L 1650 2075 
L 3150 2075 
z
M 3450 5250 
Q 3575 5150 3712 5000 
Q 3850 4850 4000 4650 
Q 3850 4525 3575 4375 
Q 3425 4575 3325 4700 
Q 3225 4825 3075 4950 
Q 3275 5075 3450 5250 
z
" transform="scale(0.015625)"/>
      <path id="SimHei-9884" d="M 5200 4800 
Q 5575 4800 5950 4825 
L 5950 4400 
Q 5575 4425 5200 4425 
L 4500 4425 
Q 4425 4050 4350 3600 
L 5725 3600 
Q 5700 3225 5700 2800 
L 5700 1725 
Q 5700 1300 5725 850 
L 5250 850 
L 5250 3225 
L 3550 3225 
L 3550 800 
L 3075 800 
Q 3100 1375 3100 1725 
L 3100 2775 
Q 3100 3175 3075 3600 
L 3900 3600 
Q 4000 4150 4000 4425 
L 3725 4425 
Q 3300 4425 2850 4400 
L 2850 4825 
Q 3325 4800 3725 4800 
L 5200 4800 
z
M 2600 1775 
Q 2350 1825 2150 1825 
Q 2250 2250 2300 2450 
L 1750 2450 
L 1750 125 
Q 1725 -300 1425 -400 
Q 1125 -500 750 -500 
Q 700 -225 575 25 
Q 1125 -25 1212 37 
Q 1300 100 1300 350 
L 1300 2450 
L 1025 2450 
Q 700 2450 350 2425 
L 350 2850 
Q 700 2825 1000 2825 
L 2850 2825 
Q 2725 2325 2600 1775 
z
M 4725 2875 
Q 4625 2575 4600 2100 
Q 4575 1625 4462 1037 
Q 4350 450 3962 62 
Q 3575 -325 2925 -675 
Q 2700 -500 2475 -350 
Q 3075 -125 3437 200 
Q 3800 525 3950 937 
Q 4100 1350 4137 1850 
Q 4175 2350 4175 2925 
L 4725 2875 
z
M 1625 2900 
Q 1275 3275 800 3650 
Q 925 3775 1075 3950 
Q 1250 3825 1425 3675 
Q 1750 4150 1950 4375 
L 1400 4375 
Q 900 4375 450 4350 
L 450 4775 
Q 900 4750 1375 4750 
L 2575 4750 
L 2575 4375 
Q 2200 4100 1725 3400 
L 1950 3200 
Q 1750 3025 1625 2900 
z
M 4775 725 
Q 5725 0 6075 -325 
Q 5850 -500 5725 -650 
Q 5400 -325 5137 -87 
Q 4875 150 4525 350 
Q 4650 525 4775 725 
z
" transform="scale(0.015625)"/>
      <path id="SimHei-6d4b" d="M 4025 4725 
Q 4000 4475 4000 4000 
L 4000 2225 
Q 4000 1775 4025 1350 
L 3550 1350 
L 3550 4325 
L 2350 4325 
L 2350 1325 
L 1900 1325 
Q 1925 1775 1925 2225 
L 1925 4000 
Q 1925 4200 1900 4725 
L 4025 4725 
z
M 5900 5075 
Q 5875 4800 5875 4375 
L 5875 0 
Q 5875 -325 5650 -425 
Q 5425 -525 4975 -600 
Q 4925 -325 4775 -50 
Q 5125 -50 5262 -25 
Q 5400 0 5400 250 
L 5400 4375 
Q 5400 4775 5375 5075 
L 5900 5075 
z
M 3275 3725 
Q 3225 3400 3200 2325 
Q 3175 1250 2837 550 
Q 2500 -150 2075 -600 
Q 1850 -400 1600 -325 
Q 2200 250 2475 962 
Q 2750 1675 2762 2475 
Q 2775 3275 2725 3800 
Q 3000 3750 3275 3725 
z
M 4950 4275 
Q 4925 4000 4925 3575 
L 4925 1825 
Q 4925 1300 4950 850 
L 4450 850 
Q 4475 1150 4475 1825 
L 4475 3575 
Q 4475 4000 4450 4275 
L 4950 4275 
z
M 1700 1675 
Q 1375 1075 1112 487 
Q 850 -100 725 -400 
Q 500 -200 200 -25 
Q 475 300 762 850 
Q 1050 1400 1250 2000 
Q 1475 1825 1700 1675 
z
M 3400 1050 
Q 3800 650 4300 -125 
Q 4100 -225 3875 -450 
Q 3475 275 3025 750 
Q 3225 875 3400 1050 
z
M 600 3525 
Q 1125 3125 1500 2775 
Q 1300 2575 1150 2375 
Q 825 2775 300 3150 
Q 450 3300 600 3525 
z
M 1350 4000 
Q 950 4375 475 4675 
Q 625 4850 775 5050 
Q 1300 4700 1675 4375 
Q 1500 4250 1350 4000 
z
" transform="scale(0.015625)"/>
     </defs>
     <use xlink:href="#SimHei-52"/>
     <use xlink:href="#SimHei-4e" x="50"/>
     <use xlink:href="#SimHei-4e" x="100"/>
     <use xlink:href="#SimHei-4d" x="150"/>
     <use xlink:href="#SimHei-6f" x="200"/>
     <use xlink:href="#SimHei-64" x="250"/>
     <use xlink:href="#SimHei-65" x="300"/>
     <use xlink:href="#SimHei-6c" x="350"/>
     <use xlink:href="#SimHei-20" x="400"/>
     <use xlink:href="#SimHei-9a8c" x="450"/>
     <use xlink:href="#SimHei-8bc1" x="550"/>
     <use xlink:href="#SimHei-96c6" x="650"/>
     <use xlink:href="#SimHei-9884" x="750"/>
     <use xlink:href="#SimHei-6d4b" x="850"/>
    </g>
   </g>
   <g id="legend_1">
    <g id="patch_7">
     <path d="M 374.6 77.7 
L 446.6 77.7 
Q 448.6 77.7 448.6 75.7 
L 448.6 50.2 
Q 448.6 48.2 446.6 48.2 
L 374.6 48.2 
Q 372.6 48.2 372.6 50.2 
L 372.6 75.7 
Q 372.6 77.7 374.6 77.7 
z
" style="fill: #ffffff; opacity: 0.8; stroke: #cccccc; stroke-linejoin: miter"/>
    </g>
    <g id="line2d_25">
     <path d="M 376.6 55.7 
L 386.6 55.7 
L 396.6 55.7 
" style="fill: none; stroke: #1f77b4; stroke-width: 1.5; stroke-linecap: square"/>
    </g>
    <g id="text_13">
     <!-- true -->
     <g transform="translate(404.6 59.2)scale(0.1 -0.1)">
      <defs>
       <path id="SimHei-74" d="M 2750 200 
Q 2625 150 2462 112 
Q 2300 75 2025 75 
Q 1575 75 1300 325 
Q 1025 575 1025 1025 
L 1025 2525 
L 175 2525 
L 175 2925 
L 1025 2925 
L 1025 3900 
L 1525 3900 
L 1525 2925 
L 2550 2925 
L 2550 2525 
L 1525 2525 
L 1525 1000 
Q 1525 800 1625 662 
Q 1725 525 2000 525 
Q 2275 525 2450 575 
Q 2625 625 2750 700 
L 2750 200 
z
" transform="scale(0.015625)"/>
       <path id="SimHei-72" d="M 2500 2425 
Q 2025 2500 1700 2287 
Q 1375 2075 1150 1550 
L 1150 125 
L 650 125 
L 650 2925 
L 1150 2925 
L 1150 2200 
Q 1375 2600 1712 2787 
Q 2050 2975 2500 2975 
L 2500 2425 
z
" transform="scale(0.015625)"/>
       <path id="SimHei-75" d="M 2800 125 
L 2300 125 
L 2300 650 
Q 2100 375 1862 225 
Q 1625 75 1250 75 
Q 800 75 575 325 
Q 350 575 350 950 
L 350 2925 
L 850 2925 
L 850 1125 
Q 850 825 1000 650 
Q 1150 475 1400 475 
Q 1725 475 2012 812 
Q 2300 1150 2300 1650 
L 2300 2925 
L 2800 2925 
L 2800 125 
z
" transform="scale(0.015625)"/>
      </defs>
      <use xlink:href="#SimHei-74"/>
      <use xlink:href="#SimHei-72" x="50"/>
      <use xlink:href="#SimHei-75" x="100"/>
      <use xlink:href="#SimHei-65" x="150"/>
     </g>
    </g>
    <g id="line2d_26">
     <path d="M 376.6 68.95 
L 386.6 68.95 
L 396.6 68.95 
" style="fill: none; stroke-dasharray: 5.55,2.4; stroke-dashoffset: 0; stroke: #ff7f0e; stroke-width: 1.5"/>
    </g>
    <g id="text_14">
     <!-- RNNModel -->
     <g transform="translate(404.6 72.45)scale(0.1 -0.1)">
      <use xlink:href="#SimHei-52"/>
      <use xlink:href="#SimHei-4e" x="50"/>
      <use xlink:href="#SimHei-4e" x="100"/>
      <use xlink:href="#SimHei-4d" x="150"/>
      <use xlink:href="#SimHei-6f" x="200"/>
      <use xlink:href="#SimHei-64" x="250"/>
      <use xlink:href="#SimHei-65" x="300"/>
      <use xlink:href="#SimHei-6c" x="350"/>
     </g>
    </g>
   </g>
  </g>
 </g>
 <defs>
  <clipPath id="pa20137a038">
   <rect x="63" y="43.2" width="390.6" height="277.2"/>
  </clipPath>
 </defs>
</svg>
