<?xml version="1.0" encoding="utf-8" standalone="no"?>
<!DOCTYPE svg PUBLIC "-//W3C//DTD SVG 1.1//EN"
  "http://www.w3.org/Graphics/SVG/1.1/DTD/svg11.dtd">
<svg xmlns:xlink="http://www.w3.org/1999/xlink" width="504pt" height="360pt" viewBox="0 0 504 360" xmlns="http://www.w3.org/2000/svg" version="1.1">
 <metadata>
  <rdf:RDF xmlns:dc="http://purl.org/dc/elements/1.1/" xmlns:cc="http://creativecommons.org/ns#" xmlns:rdf="http://www.w3.org/1999/02/22-rdf-syntax-ns#">
   <cc:Work>
    <dc:type rdf:resource="http://purl.org/dc/dcmitype/StillImage"/>
    <dc:date>2025-01-12T15:55:38.673690</dc:date>
    <dc:format>image/svg+xml</dc:format>
    <dc:creator>
     <cc:Agent>
      <dc:title>Matplotlib v3.5.3, https://matplotlib.org/</dc:title>
     </cc:Agent>
    </dc:creator>
   </cc:Work>
  </rdf:RDF>
 </metadata>
 <defs>
  <style type="text/css">*{stroke-linejoin: round; stroke-linecap: butt}</style>
 </defs>
 <g id="figure_1">
  <g id="patch_1">
   <path d="M 0 360 
L 504 360 
L 504 0 
L 0 0 
z
" style="fill: #ffffff"/>
  </g>
  <g id="axes_1">
   <g id="patch_2">
    <path d="M 63 320.4 
L 453.6 320.4 
L 453.6 43.2 
L 63 43.2 
z
" style="fill: #ffffff"/>
   </g>
   <g id="matplotlib.axis_1">
    <g id="xtick_1">
     <g id="line2d_1">
      <path d="M 80.754545 320.4 
L 80.754545 43.2 
" clip-path="url(#pb0ad40ae84)" style="fill: none; stroke: #b0b0b0; stroke-width: 0.8; stroke-linecap: square"/>
     </g>
     <g id="line2d_2">
      <defs>
       <path id="mba8e694408" d="M 0 0 
L 0 3.5 
" style="stroke: #000000; stroke-width: 0.8"/>
      </defs>
      <g>
       <use xlink:href="#mba8e694408" x="80.754545" y="320.4" style="stroke: #000000; stroke-width: 0.8"/>
      </g>
     </g>
     <g id="text_1">
      <!-- 0 -->
      <g transform="translate(78.254545 334.275)scale(0.1 -0.1)">
       <defs>
        <path id="SimHei-30" d="M 225 2537 
Q 250 3200 412 3587 
Q 575 3975 875 4225 
Q 1175 4475 1612 4475 
Q 2050 4475 2375 4112 
Q 2700 3750 2800 3200 
Q 2900 2650 2862 1937 
Q 2825 1225 2612 775 
Q 2400 325 1975 150 
Q 1550 -25 1125 187 
Q 700 400 525 750 
Q 350 1100 275 1487 
Q 200 1875 225 2537 
z
M 750 2687 
Q 675 2000 800 1462 
Q 925 925 1212 700 
Q 1500 475 1800 612 
Q 2100 750 2237 1162 
Q 2375 1575 2375 2062 
Q 2375 2550 2337 2950 
Q 2300 3350 2112 3675 
Q 1925 4000 1612 4012 
Q 1300 4025 1062 3700 
Q 825 3375 750 2687 
z
" transform="scale(0.015625)"/>
       </defs>
       <use xlink:href="#SimHei-30"/>
      </g>
     </g>
    </g>
    <g id="xtick_2">
     <g id="line2d_3">
      <path d="M 148.390909 320.4 
L 148.390909 43.2 
" clip-path="url(#pb0ad40ae84)" style="fill: none; stroke: #b0b0b0; stroke-width: 0.8; stroke-linecap: square"/>
     </g>
     <g id="line2d_4">
      <g>
       <use xlink:href="#mba8e694408" x="148.390909" y="320.4" style="stroke: #000000; stroke-width: 0.8"/>
      </g>
     </g>
     <g id="text_2">
      <!-- 100 -->
      <g transform="translate(140.890909 334.275)scale(0.1 -0.1)">
       <defs>
        <path id="SimHei-31" d="M 1400 3600 
Q 1075 3275 575 2975 
L 575 3450 
Q 1200 3875 1600 4450 
L 1900 4450 
L 1900 150 
L 1400 150 
L 1400 3600 
z
" transform="scale(0.015625)"/>
       </defs>
       <use xlink:href="#SimHei-31"/>
       <use xlink:href="#SimHei-30" x="50"/>
       <use xlink:href="#SimHei-30" x="100"/>
      </g>
     </g>
    </g>
    <g id="xtick_3">
     <g id="line2d_5">
      <path d="M 216.027273 320.4 
L 216.027273 43.2 
" clip-path="url(#pb0ad40ae84)" style="fill: none; stroke: #b0b0b0; stroke-width: 0.8; stroke-linecap: square"/>
     </g>
     <g id="line2d_6">
      <g>
       <use xlink:href="#mba8e694408" x="216.027273" y="320.4" style="stroke: #000000; stroke-width: 0.8"/>
      </g>
     </g>
     <g id="text_3">
      <!-- 200 -->
      <g transform="translate(208.527273 334.275)scale(0.1 -0.1)">
       <defs>
        <path id="SimHei-32" d="M 300 250 
Q 325 625 650 925 
Q 975 1225 1475 1862 
Q 1975 2500 2125 2850 
Q 2275 3200 2237 3450 
Q 2200 3700 2000 3862 
Q 1800 4025 1537 4000 
Q 1275 3975 1037 3800 
Q 800 3625 675 3275 
L 200 3350 
Q 400 3925 712 4187 
Q 1025 4450 1450 4475 
Q 1700 4500 1900 4462 
Q 2100 4425 2312 4287 
Q 2525 4150 2662 3875 
Q 2800 3600 2762 3212 
Q 2725 2825 2375 2287 
Q 2025 1750 1025 600 
L 2825 600 
L 2825 150 
L 300 150 
L 300 250 
z
" transform="scale(0.015625)"/>
       </defs>
       <use xlink:href="#SimHei-32"/>
       <use xlink:href="#SimHei-30" x="50"/>
       <use xlink:href="#SimHei-30" x="100"/>
      </g>
     </g>
    </g>
    <g id="xtick_4">
     <g id="line2d_7">
      <path d="M 283.663636 320.4 
L 283.663636 43.2 
" clip-path="url(#pb0ad40ae84)" style="fill: none; stroke: #b0b0b0; stroke-width: 0.8; stroke-linecap: square"/>
     </g>
     <g id="line2d_8">
      <g>
       <use xlink:href="#mba8e694408" x="283.663636" y="320.4" style="stroke: #000000; stroke-width: 0.8"/>
      </g>
     </g>
     <g id="text_4">
      <!-- 300 -->
      <g transform="translate(276.163636 334.275)scale(0.1 -0.1)">
       <defs>
        <path id="SimHei-33" d="M 250 1225 
L 700 1300 
Q 800 975 1025 762 
Q 1250 550 1587 562 
Q 1925 575 2125 837 
Q 2325 1100 2300 1437 
Q 2275 1775 2037 1962 
Q 1800 2150 1275 2225 
L 1275 2550 
Q 1800 2600 2037 2825 
Q 2275 3050 2250 3412 
Q 2225 3775 1925 3937 
Q 1625 4100 1287 3975 
Q 950 3850 750 3275 
L 300 3350 
Q 450 3800 712 4100 
Q 975 4400 1425 4450 
Q 1875 4500 2212 4337 
Q 2550 4175 2687 3837 
Q 2825 3500 2725 3100 
Q 2625 2700 2150 2400 
Q 2500 2250 2687 1950 
Q 2875 1650 2812 1162 
Q 2750 675 2375 375 
Q 2000 75 1525 87 
Q 1050 100 700 387 
Q 350 675 250 1225 
z
" transform="scale(0.015625)"/>
       </defs>
       <use xlink:href="#SimHei-33"/>
       <use xlink:href="#SimHei-30" x="50"/>
       <use xlink:href="#SimHei-30" x="100"/>
      </g>
     </g>
    </g>
    <g id="xtick_5">
     <g id="line2d_9">
      <path d="M 351.3 320.4 
L 351.3 43.2 
" clip-path="url(#pb0ad40ae84)" style="fill: none; stroke: #b0b0b0; stroke-width: 0.8; stroke-linecap: square"/>
     </g>
     <g id="line2d_10">
      <g>
       <use xlink:href="#mba8e694408" x="351.3" y="320.4" style="stroke: #000000; stroke-width: 0.8"/>
      </g>
     </g>
     <g id="text_5">
      <!-- 400 -->
      <g transform="translate(343.8 334.275)scale(0.1 -0.1)">
       <defs>
        <path id="SimHei-34" d="M 2000 1100 
L 75 1100 
L 75 1525 
L 2100 4450 
L 2475 4450 
L 2475 1525 
L 3075 1525 
L 3075 1100 
L 2475 1100 
L 2475 150 
L 2000 150 
L 2000 1100 
z
M 2000 1525 
L 2000 3500 
L 600 1525 
L 2000 1525 
z
" transform="scale(0.015625)"/>
       </defs>
       <use xlink:href="#SimHei-34"/>
       <use xlink:href="#SimHei-30" x="50"/>
       <use xlink:href="#SimHei-30" x="100"/>
      </g>
     </g>
    </g>
    <g id="xtick_6">
     <g id="line2d_11">
      <path d="M 418.936364 320.4 
L 418.936364 43.2 
" clip-path="url(#pb0ad40ae84)" style="fill: none; stroke: #b0b0b0; stroke-width: 0.8; stroke-linecap: square"/>
     </g>
     <g id="line2d_12">
      <g>
       <use xlink:href="#mba8e694408" x="418.936364" y="320.4" style="stroke: #000000; stroke-width: 0.8"/>
      </g>
     </g>
     <g id="text_6">
      <!-- 500 -->
      <g transform="translate(411.436364 334.275)scale(0.1 -0.1)">
       <defs>
        <path id="SimHei-35" d="M 550 1325 
Q 725 650 1150 575 
Q 1575 500 1837 662 
Q 2100 825 2212 1087 
Q 2325 1350 2312 1675 
Q 2300 2000 2137 2225 
Q 1975 2450 1725 2525 
Q 1475 2600 1162 2525 
Q 850 2450 650 2175 
L 225 2225 
Q 275 2375 700 4375 
L 2675 4375 
L 2675 3925 
L 1075 3925 
Q 950 3250 825 2850 
Q 1200 3025 1525 3012 
Q 1850 3000 2150 2862 
Q 2450 2725 2587 2487 
Q 2725 2250 2787 2012 
Q 2850 1775 2837 1500 
Q 2825 1225 2725 937 
Q 2625 650 2425 462 
Q 2225 275 1937 162 
Q 1650 50 1275 75 
Q 900 100 562 350 
Q 225 600 100 1200 
L 550 1325 
z
" transform="scale(0.015625)"/>
       </defs>
       <use xlink:href="#SimHei-35"/>
       <use xlink:href="#SimHei-30" x="50"/>
       <use xlink:href="#SimHei-30" x="100"/>
      </g>
     </g>
    </g>
   </g>
   <g id="matplotlib.axis_2">
    <g id="ytick_1">
     <g id="line2d_13">
      <path d="M 63 307.562522 
L 453.6 307.562522 
" clip-path="url(#pb0ad40ae84)" style="fill: none; stroke: #b0b0b0; stroke-width: 0.8; stroke-linecap: square"/>
     </g>
     <g id="line2d_14">
      <defs>
       <path id="mde409a605e" d="M 0 0 
L -3.5 0 
" style="stroke: #000000; stroke-width: 0.8"/>
      </defs>
      <g>
       <use xlink:href="#mde409a605e" x="63" y="307.562522" style="stroke: #000000; stroke-width: 0.8"/>
      </g>
     </g>
     <g id="text_7">
      <!-- -200 -->
      <g transform="translate(36 311.000022)scale(0.1 -0.1)">
       <defs>
        <path id="SimHei-2d" d="M 2975 2125 
L 125 2125 
L 125 2525 
L 2975 2525 
L 2975 2125 
z
" transform="scale(0.015625)"/>
       </defs>
       <use xlink:href="#SimHei-2d"/>
       <use xlink:href="#SimHei-32" x="50"/>
       <use xlink:href="#SimHei-30" x="100"/>
       <use xlink:href="#SimHei-30" x="150"/>
      </g>
     </g>
    </g>
    <g id="ytick_2">
     <g id="line2d_15">
      <path d="M 63 266.455817 
L 453.6 266.455817 
" clip-path="url(#pb0ad40ae84)" style="fill: none; stroke: #b0b0b0; stroke-width: 0.8; stroke-linecap: square"/>
     </g>
     <g id="line2d_16">
      <g>
       <use xlink:href="#mde409a605e" x="63" y="266.455817" style="stroke: #000000; stroke-width: 0.8"/>
      </g>
     </g>
     <g id="text_8">
      <!-- 0 -->
      <g transform="translate(51 269.893317)scale(0.1 -0.1)">
       <use xlink:href="#SimHei-30"/>
      </g>
     </g>
    </g>
    <g id="ytick_3">
     <g id="line2d_17">
      <path d="M 63 225.349112 
L 453.6 225.349112 
" clip-path="url(#pb0ad40ae84)" style="fill: none; stroke: #b0b0b0; stroke-width: 0.8; stroke-linecap: square"/>
     </g>
     <g id="line2d_18">
      <g>
       <use xlink:href="#mde409a605e" x="63" y="225.349112" style="stroke: #000000; stroke-width: 0.8"/>
      </g>
     </g>
     <g id="text_9">
      <!-- 200 -->
      <g transform="translate(41 228.786612)scale(0.1 -0.1)">
       <use xlink:href="#SimHei-32"/>
       <use xlink:href="#SimHei-30" x="50"/>
       <use xlink:href="#SimHei-30" x="100"/>
      </g>
     </g>
    </g>
    <g id="ytick_4">
     <g id="line2d_19">
      <path d="M 63 184.242407 
L 453.6 184.242407 
" clip-path="url(#pb0ad40ae84)" style="fill: none; stroke: #b0b0b0; stroke-width: 0.8; stroke-linecap: square"/>
     </g>
     <g id="line2d_20">
      <g>
       <use xlink:href="#mde409a605e" x="63" y="184.242407" style="stroke: #000000; stroke-width: 0.8"/>
      </g>
     </g>
     <g id="text_10">
      <!-- 400 -->
      <g transform="translate(41 187.679907)scale(0.1 -0.1)">
       <use xlink:href="#SimHei-34"/>
       <use xlink:href="#SimHei-30" x="50"/>
       <use xlink:href="#SimHei-30" x="100"/>
      </g>
     </g>
    </g>
    <g id="ytick_5">
     <g id="line2d_21">
      <path d="M 63 143.135702 
L 453.6 143.135702 
" clip-path="url(#pb0ad40ae84)" style="fill: none; stroke: #b0b0b0; stroke-width: 0.8; stroke-linecap: square"/>
     </g>
     <g id="line2d_22">
      <g>
       <use xlink:href="#mde409a605e" x="63" y="143.135702" style="stroke: #000000; stroke-width: 0.8"/>
      </g>
     </g>
     <g id="text_11">
      <!-- 600 -->
      <g transform="translate(41 146.573202)scale(0.1 -0.1)">
       <defs>
        <path id="SimHei-36" d="M 250 1612 
Q 275 1975 387 2225 
Q 500 2475 725 2850 
L 1750 4450 
L 2325 4450 
L 1275 2800 
Q 1950 2975 2350 2750 
Q 2750 2525 2887 2237 
Q 3025 1950 3037 1612 
Q 3050 1275 2937 950 
Q 2825 625 2537 362 
Q 2250 100 1737 75 
Q 1225 50 862 262 
Q 500 475 362 862 
Q 225 1250 250 1612 
z
M 1025 787 
Q 1250 550 1625 525 
Q 2000 500 2250 775 
Q 2500 1050 2500 1575 
Q 2500 2100 2187 2300 
Q 1875 2500 1487 2450 
Q 1100 2400 925 2075 
Q 750 1750 775 1387 
Q 800 1025 1025 787 
z
" transform="scale(0.015625)"/>
       </defs>
       <use xlink:href="#SimHei-36"/>
       <use xlink:href="#SimHei-30" x="50"/>
       <use xlink:href="#SimHei-30" x="100"/>
      </g>
     </g>
    </g>
    <g id="ytick_6">
     <g id="line2d_23">
      <path d="M 63 102.028997 
L 453.6 102.028997 
" clip-path="url(#pb0ad40ae84)" style="fill: none; stroke: #b0b0b0; stroke-width: 0.8; stroke-linecap: square"/>
     </g>
     <g id="line2d_24">
      <g>
       <use xlink:href="#mde409a605e" x="63" y="102.028997" style="stroke: #000000; stroke-width: 0.8"/>
      </g>
     </g>
     <g id="text_12">
      <!-- 800 -->
      <g transform="translate(41 105.466497)scale(0.1 -0.1)">
       <defs>
        <path id="SimHei-38" d="M 175 1375 
Q 175 1675 325 1962 
Q 475 2250 825 2425 
Q 525 2600 425 2812 
Q 325 3025 312 3300 
Q 300 3575 387 3775 
Q 475 3975 650 4150 
Q 825 4325 1037 4387 
Q 1250 4450 1500 4450 
Q 1750 4450 1950 4400 
Q 2150 4350 2375 4187 
Q 2600 4025 2700 3725 
Q 2800 3425 2687 3025 
Q 2575 2625 2100 2400 
Q 2525 2275 2700 2012 
Q 2875 1750 2875 1375 
Q 2875 1000 2762 775 
Q 2650 550 2512 400 
Q 2375 250 2137 162 
Q 1900 75 1537 75 
Q 1175 75 912 162 
Q 650 250 475 425 
Q 300 600 237 837 
Q 175 1075 175 1375 
z
M 687 1400 
Q 675 1100 787 875 
Q 900 650 1200 587 
Q 1500 525 1825 600 
Q 2150 675 2275 950 
Q 2400 1225 2362 1500 
Q 2325 1775 2050 1962 
Q 1775 2150 1450 2125 
Q 1125 2100 912 1900 
Q 700 1700 687 1400 
z
M 775 3350 
Q 775 3100 950 2875 
Q 1125 2650 1500 2650 
Q 1875 2650 2062 2875 
Q 2250 3100 2237 3412 
Q 2225 3725 2012 3875 
Q 1800 4025 1437 4000 
Q 1075 3975 925 3787 
Q 775 3600 775 3350 
z
" transform="scale(0.015625)"/>
       </defs>
       <use xlink:href="#SimHei-38"/>
       <use xlink:href="#SimHei-30" x="50"/>
       <use xlink:href="#SimHei-30" x="100"/>
      </g>
     </g>
    </g>
    <g id="ytick_7">
     <g id="line2d_25">
      <path d="M 63 60.922292 
L 453.6 60.922292 
" clip-path="url(#pb0ad40ae84)" style="fill: none; stroke: #b0b0b0; stroke-width: 0.8; stroke-linecap: square"/>
     </g>
     <g id="line2d_26">
      <g>
       <use xlink:href="#mde409a605e" x="63" y="60.922292" style="stroke: #000000; stroke-width: 0.8"/>
      </g>
     </g>
     <g id="text_13">
      <!-- 1000 -->
      <g transform="translate(36 64.359792)scale(0.1 -0.1)">
       <use xlink:href="#SimHei-31"/>
       <use xlink:href="#SimHei-30" x="50"/>
       <use xlink:href="#SimHei-30" x="100"/>
       <use xlink:href="#SimHei-30" x="150"/>
      </g>
     </g>
    </g>
   </g>
   <g id="line2d_27">
    <path d="M 80.754545 156.865342 
L 81.430909 202.082717 
L 82.107273 173.59577 
L 82.783636 209.646351 
L 83.46 202.206037 
L 84.136364 174.561778 
L 84.812727 180.02897 
L 85.489091 180.440037 
L 86.165455 174.890632 
L 86.841818 200.068488 
L 87.518182 219.20366 
L 88.194545 207.036075 
L 88.870909 184.427387 
L 89.547273 232.152272 
L 90.9 214.908009 
L 91.576364 213.695361 
L 92.252727 222.471643 
L 92.929091 177.418694 
L 93.605455 189.236872 
L 94.281818 212.914334 
L 94.958182 162.414747 
L 96.310909 94.362597 
L 96.987273 95.390264 
L 97.663636 99.480381 
L 98.34 131.831358 
L 99.016364 232.851086 
L 99.692727 182.043198 
L 100.369091 153.371272 
L 101.045455 197.972047 
L 101.721818 231.186264 
L 102.398182 209.584691 
L 103.074545 175.055058 
L 103.750909 192.360981 
L 104.427273 113.210021 
L 105.103636 179.96731 
L 105.78 163.031347 
L 106.456364 200.130149 
L 107.132727 142.251908 
L 107.809091 123.19895 
L 108.485455 122.376816 
L 109.161818 155.817121 
L 109.838182 138.613964 
L 111.190909 120.979188 
L 111.867273 103.406072 
L 112.543636 105.975241 
L 113.22 97.301726 
L 113.896364 92.636115 
L 114.572727 106.612395 
L 115.249091 124.966538 
L 115.925455 101.823464 
L 116.601818 113.579981 
L 117.278182 97.507259 
L 117.954545 102.830578 
L 118.630909 98.945994 
L 119.307273 99.213188 
L 119.983636 93.725443 
L 120.66 152.07641 
L 121.336364 92.574455 
L 122.012727 122.212389 
L 122.689091 101.885124 
L 123.365455 123.404484 
L 124.041818 122.911203 
L 124.718182 121.102508 
L 125.394545 113.826621 
L 126.070909 133.002899 
L 126.747273 109.28433 
L 127.423636 95.862991 
L 128.1 117.382351 
L 128.776364 102.974451 
L 129.452727 100.199749 
L 130.129091 113.436108 
L 130.805455 159.825024 
L 131.481818 228.802075 
L 132.158182 216.367297 
L 132.834545 211.126192 
L 133.510909 213.798128 
L 134.187273 143.464556 
L 134.863636 203.439238 
L 136.216364 266.702457 
L 137.569091 266.558584 
L 138.921818 266.558584 
L 139.598182 233.118279 
L 140.274545 218.360972 
L 140.950909 180.15229 
L 142.303636 237.948317 
L 142.98 167.244785 
L 143.656364 141.594201 
L 144.332727 154.727793 
L 145.009091 154.933326 
L 145.685455 137.154676 
L 146.361818 213.736468 
L 147.038182 246.868472 
L 147.714545 258.604436 
L 148.390909 253.198905 
L 149.067273 249.211554 
L 149.743636 257.165702 
L 150.42 266.579137 
L 151.096364 266.579137 
L 151.772727 223.149903 
L 152.449091 227.157807 
L 153.125455 189.812366 
L 153.801818 108.955477 
L 154.478182 103.159431 
L 155.154545 91.772874 
L 155.830909 94.712004 
L 156.507273 197.9926 
L 157.183636 266.743564 
L 157.86 195.772838 
L 158.536364 102.583938 
L 159.212727 96.767339 
L 159.889091 94.917537 
L 160.565455 92.595008 
L 161.241818 93.314376 
L 161.918182 130.947564 
L 162.594545 99.480381 
L 163.270909 95.225837 
L 163.947273 163.997355 
L 164.623636 196.245565 
L 165.3 202.617104 
L 165.976364 212.421053 
L 166.652727 220.375201 
L 167.329091 226.37678 
L 168.005455 225.061365 
L 168.681818 219.26532 
L 169.358182 201.651097 
L 170.034545 226.37678 
L 170.710909 205.001293 
L 171.387273 219.799707 
L 172.063636 217.579945 
L 172.74 177.007627 
L 174.092727 219.059786 
L 174.769091 214.291408 
L 175.445455 160.749925 
L 176.121818 165.847157 
L 176.798182 161.572059 
L 177.474545 161.366526 
L 178.150909 115.635316 
L 178.827273 122.911203 
L 179.503636 179.391816 
L 180.18 189.524619 
L 180.856364 186.030549 
L 181.532727 192.998135 
L 182.209091 212.256627 
L 182.885455 197.314339 
L 183.561818 178.754662 
L 184.238182 217.025004 
L 184.914545 203.624218 
L 185.590909 187.983117 
L 186.267273 213.983108 
L 186.943636 228.596542 
L 187.62 177.973635 
L 188.296364 241.46294 
L 188.972727 216.716704 
L 189.649091 237.249503 
L 190.325455 247.83448 
L 191.678182 211.372832 
L 192.354545 175.938853 
L 193.030909 186.277189 
L 193.707273 241.46294 
L 194.383636 181.529365 
L 195.06 177.21316 
L 195.736364 239.140412 
L 196.412727 258.953843 
L 197.089091 253.938825 
L 197.765455 245.964125 
L 198.441818 249.828155 
L 199.794545 266.599691 
L 201.823636 266.620244 
L 202.5 258.316689 
L 203.176364 254.637639 
L 203.852727 226.068479 
L 204.529091 251.862937 
L 205.205455 253.507205 
L 205.881818 246.950686 
L 206.558182 260.762538 
L 207.234545 251.472423 
L 207.910909 244.073216 
L 208.587273 174.212371 
L 209.263636 162.784707 
L 209.94 210.386271 
L 210.616364 115.881957 
L 211.292727 209.481924 
L 211.969091 241.791794 
L 212.645455 242.490608 
L 213.321818 256.877955 
L 213.998182 247.71116 
L 214.674545 235.132508 
L 215.350909 241.627367 
L 216.027273 266.435264 
L 216.703636 266.579137 
L 217.38 254.904833 
L 218.056364 233.42658 
L 218.732727 256.014714 
L 219.409091 257.104042 
L 220.085455 219.964134 
L 220.761818 229.069269 
L 221.438182 202.514337 
L 222.114545 128.542822 
L 222.790909 103.632159 
L 223.467273 95.020304 
L 224.143636 205.021846 
L 224.82 252.746731 
L 225.496364 202.822638 
L 226.172727 166.504864 
L 226.849091 116.08749 
L 227.525455 128.522268 
L 228.201818 243.168869 
L 228.878182 266.702457 
L 229.554545 266.702457 
L 230.230909 243.374402 
L 230.907273 215.689036 
L 231.583636 215.401289 
L 232.26 196.697739 
L 232.936364 206.604455 
L 233.612727 154.172852 
L 234.289091 206.357814 
L 234.965455 219.94358 
L 235.641818 220.704054 
L 236.994545 225.205239 
L 237.670909 175.157825 
L 238.347273 194.765724 
L 239.023636 179.576796 
L 239.7 135.921475 
L 240.376364 132.900132 
L 241.052727 96.006865 
L 241.729091 104.289866 
L 242.405455 132.859026 
L 243.081818 266.579137 
L 246.463636 266.579137 
L 247.14 91.813981 
L 247.816364 93.232162 
L 248.492727 95.719118 
L 249.169091 91.957854 
L 249.845455 94.93809 
L 250.521818 91.772874 
L 251.874545 98.884334 
L 252.550909 98.802121 
L 253.227273 93.663783 
L 253.903636 113.703301 
L 254.58 113.374448 
L 255.256364 157.810796 
L 255.932727 133.475626 
L 256.609091 130.55705 
L 257.285455 97.897773 
L 257.961818 146.979179 
L 258.638182 213.099314 
L 259.314545 229.213142 
L 259.990909 241.771241 
L 260.667273 247.71116 
L 261.343636 230.528557 
L 262.02 223.293777 
L 262.696364 242.613928 
L 263.372727 238.051084 
L 264.049091 221.197335 
L 264.725455 237.701677 
L 265.401818 245.059777 
L 266.078182 238.482704 
L 266.754545 220.909588 
L 268.107273 259.919851 
L 268.783636 262.55068 
L 269.46 266.620244 
L 270.136364 256.590208 
L 270.812727 262.386253 
L 271.489091 266.620244 
L 272.165455 214.558602 
L 272.841818 221.670062 
L 273.518182 220.662948 
L 274.870909 130.824244 
L 275.547273 218.772039 
L 276.223636 190.059006 
L 276.9 243.086655 
L 277.576364 245.717484 
L 278.252727 246.046338 
L 278.929091 196.471652 
L 279.605455 227.322234 
L 280.281818 221.813935 
L 280.958182 232.892192 
L 281.634545 196.841612 
L 282.310909 240.168079 
L 282.987273 221.300102 
L 283.663636 168.724626 
L 284.34 225.760179 
L 285.016364 180.27561 
L 285.692727 203.377578 
L 286.369091 212.791014 
L 287.045455 195.628964 
L 287.721818 243.641596 
L 288.398182 201.527776 
L 289.750909 172.444783 
L 290.427273 175.198932 
L 291.103636 218.258205 
L 291.78 198.670861 
L 292.456364 226.1918 
L 293.132727 213.921448 
L 293.809091 256.179141 
L 295.161818 252.746731 
L 295.838182 255.644754 
L 296.514545 266.599691 
L 298.543636 266.558584 
L 308.012727 266.579137 
L 308.689091 260.639218 
L 309.365455 266.558584 
L 310.041818 257.391789 
L 310.718182 264.277162 
L 311.394545 266.558584 
L 316.129091 266.620244 
L 316.805455 263.660561 
L 317.481818 266.579137 
L 324.921818 266.599691 
L 325.598182 265.757003 
L 326.274545 266.579137 
L 326.950909 256.939615 
L 327.627273 254.144359 
L 328.303636 254.041592 
L 328.98 257.967282 
L 329.656364 251.040803 
L 330.332727 266.579137 
L 331.009091 266.599691 
L 331.685455 257.885069 
L 332.361818 260.618665 
L 333.038182 266.620244 
L 334.390909 266.579137 
L 335.067273 266.579137 
L 335.743636 266.702457 
L 336.42 266.579137 
L 337.772727 266.579137 
L 339.125455 232.809979 
L 339.801818 184.632921 
L 340.478182 200.150702 
L 341.154545 127.597368 
L 341.830909 204.240819 
L 342.507273 232.953852 
L 343.183636 256.035267 
L 343.86 250.218669 
L 344.536364 241.627367 
L 345.212727 256.405228 
L 345.889091 251.020249 
L 346.565455 248.903254 
L 347.241818 253.383885 
L 347.918182 252.561751 
L 348.594545 254.740406 
L 349.270909 242.161754 
L 349.947273 249.232108 
L 350.623636 232.275592 
L 351.3 242.778355 
L 351.976364 219.840814 
L 352.652727 156.330954 
L 353.329091 164.223442 
L 354.005455 154.563366 
L 354.681818 123.918317 
L 355.358182 111.586306 
L 356.034545 137.195783 
L 356.710909 111.010812 
L 357.387273 111.360219 
L 358.063636 147.534119 
L 358.74 108.66773 
L 359.416364 125.542032 
L 360.092727 156.927002 
L 360.769091 127.06298 
L 361.445455 158.242416 
L 362.121818 118.019505 
L 362.798182 159.208424 
L 363.474545 148.52068 
L 364.150909 142.847955 
L 364.827273 210.324611 
L 365.503636 160.934905 
L 366.18 173.924624 
L 366.856364 167.470871 
L 367.532727 209.543584 
L 368.209091 234.680334 
L 368.885455 225.945159 
L 369.561818 174.089051 
L 370.238182 140.011592 
L 370.914545 197.972047 
L 371.590909 189.257425 
L 372.267273 217.682712 
L 372.943636 138.449538 
L 373.62 108.811603 
L 374.296364 194.149123 
L 374.972727 167.861385 
L 375.649091 180.440037 
L 376.325455 156.577595 
L 377.001818 106.550735 
L 377.678182 96.130185 
L 378.354545 164.161782 
L 379.030909 170.019487 
L 379.707273 210.509592 
L 380.383636 205.823427 
L 381.06 153.145185 
L 381.736364 238.708791 
L 382.412727 195.176791 
L 383.089091 193.100902 
L 383.765455 204.323032 
L 384.441818 238.051084 
L 385.118182 209.399711 
L 385.794545 227.404447 
L 386.470909 204.754653 
L 387.147273 229.130929 
L 387.823636 206.522241 
L 388.5 244.854244 
L 389.176364 231.617885 
L 389.852727 160.071665 
L 390.529091 180.111183 
L 391.205455 179.165729 
L 391.881818 142.519101 
L 392.558182 156.207634 
L 393.234545 139.148352 
L 393.910909 108.708837 
L 394.587273 156.721468 
L 395.263636 182.084305 
L 395.94 173.739644 
L 396.616364 149.260601 
L 397.292727 167.018698 
L 397.969091 104.906466 
L 398.645455 115.306463 
L 399.321818 178.898535 
L 399.998182 125.089859 
L 400.674545 145.437678 
L 401.350909 150.678782 
L 402.027273 126.549147 
L 402.703636 97.301726 
L 403.38 92.368921 
L 404.056364 92.718328 
L 404.732727 103.734925 
L 405.409091 125.459819 
L 406.085455 162.784707 
L 406.761818 214.538049 
L 407.438182 149.116728 
L 408.114545 221.423422 
L 408.790909 219.470853 
L 409.467273 217.908798 
L 410.143636 266.723011 
L 410.82 239.880332 
L 411.496364 226.1918 
L 412.172727 254.966493 
L 412.849091 253.137245 
L 413.525455 226.849507 
L 414.201818 218.052672 
L 415.554545 141.964161 
L 416.230909 128.892229 
L 416.907273 107.413975 
L 417.583636 148.870087 
L 418.26 115.758637 
L 418.936364 108.010023 
L 419.612727 129.981556 
L 420.289091 158.180756 
L 420.965455 219.840814 
L 421.641818 246.128551 
L 422.318182 266.661351 
L 422.994545 233.015513 
L 423.670909 208.803663 
L 425.023636 235.564128 
L 425.7 236.961756 
L 426.376364 219.88192 
L 427.052727 185.557822 
L 427.729091 160.194985 
L 428.405455 164.367315 
L 429.081818 219.244766 
L 429.758182 156.885895 
L 430.434545 167.943599 
L 431.110909 138.100131 
L 431.787273 132.632939 
L 432.463636 177.644781 
L 433.14 172.157036 
L 433.816364 97.712793 
L 435.169091 92.204495 
L 435.845455 94.239276 
L 435.845455 94.239276 
" clip-path="url(#pb0ad40ae84)" style="fill: none; stroke: #1f77b4; stroke-width: 1.5; stroke-linecap: square"/>
   </g>
   <g id="line2d_28">
    <path d="M 80.754545 151.469299 
L 81.430909 194.768336 
L 82.107273 188.541138 
L 82.783636 201.748824 
L 83.46 200.091538 
L 84.136364 182.999343 
L 84.812727 177.159275 
L 85.489091 178.548877 
L 86.165455 174.517083 
L 87.518182 217.134438 
L 88.870909 188.374581 
L 89.547273 226.647875 
L 90.9 212.479405 
L 91.576364 210.234467 
L 92.252727 223.23941 
L 92.929091 186.718031 
L 93.605455 187.545887 
L 94.281818 207.451172 
L 95.634545 136.845616 
L 96.310909 67.948862 
L 96.987273 71.085925 
L 97.663636 104.766418 
L 98.34 127.581705 
L 99.016364 194.328024 
L 99.692727 180.938817 
L 100.369091 186.914043 
L 101.045455 190.144573 
L 101.721818 214.416709 
L 102.398182 208.010434 
L 103.074545 193.602674 
L 103.750909 188.255959 
L 104.427273 140.608656 
L 105.103636 173.015835 
L 105.78 166.884545 
L 106.456364 194.204839 
L 107.132727 148.434663 
L 107.809091 123.824151 
L 108.485455 124.105648 
L 109.161818 155.802848 
L 110.514545 137.163443 
L 111.190909 130.499055 
L 111.867273 109.295503 
L 112.543636 114.27144 
L 113.22 85.296944 
L 113.896364 71.305009 
L 114.572727 102.257946 
L 115.249091 121.21442 
L 115.925455 105.109332 
L 116.601818 110.586752 
L 117.278182 97.627753 
L 117.954545 99.88288 
L 118.630909 95.858675 
L 119.307273 87.621133 
L 119.983636 101.943051 
L 120.66 130.618613 
L 121.336364 109.992225 
L 122.012727 121.341039 
L 122.689091 122.601862 
L 123.365455 124.305232 
L 124.041818 138.469232 
L 124.718182 139.50004 
L 125.394545 139.670975 
L 126.070909 134.451434 
L 127.423636 95.482199 
L 128.1 128.073392 
L 128.776364 111.774579 
L 129.452727 112.096497 
L 130.129091 111.496732 
L 130.805455 148.179326 
L 131.481818 201.416335 
L 132.158182 215.794511 
L 132.834545 216.248294 
L 133.510909 208.6706 
L 134.187273 167.189462 
L 134.863636 186.09592 
L 135.54 219.018177 
L 136.216364 289.146868 
L 136.892727 272.044032 
L 137.569091 287.581534 
L 138.245455 262.873458 
L 138.921818 262.990273 
L 139.598182 243.051705 
L 140.274545 234.623386 
L 140.950909 211.496924 
L 141.627273 203.506397 
L 142.303636 224.217819 
L 142.98 193.73453 
L 143.656364 168.35594 
L 144.332727 163.470942 
L 145.009091 161.303929 
L 145.685455 145.005844 
L 146.361818 201.297492 
L 147.038182 247.414117 
L 147.714545 265.342266 
L 148.390909 241.512478 
L 149.067273 240.55952 
L 149.743636 249.059717 
L 150.42 272.616789 
L 151.096364 269.737235 
L 151.772727 235.483851 
L 152.449091 227.132559 
L 153.125455 195.129889 
L 153.801818 139.267585 
L 154.478182 100.207149 
L 155.154545 79.801746 
L 155.830909 105.10947 
L 157.183636 237.671656 
L 157.86 211.679628 
L 158.536364 170.411394 
L 159.889091 137.233294 
L 160.565455 130.379136 
L 161.241818 135.294077 
L 161.918182 143.845295 
L 162.594545 125.76443 
L 163.270909 125.452897 
L 163.947273 152.929486 
L 165.3 194.099971 
L 166.652727 215.960027 
L 167.329091 214.469456 
L 168.005455 216.508856 
L 168.681818 220.324848 
L 169.358182 209.988967 
L 170.034545 221.619611 
L 170.710909 210.749675 
L 171.387273 219.936109 
L 172.063636 216.164502 
L 172.74 190.244365 
L 173.416364 198.762564 
L 174.092727 215.443864 
L 174.769091 210.510846 
L 175.445455 169.203255 
L 176.121818 163.301988 
L 176.798182 161.357933 
L 177.474545 164.333907 
L 178.150909 129.605425 
L 178.827273 128.691344 
L 179.503636 171.810706 
L 180.18 185.062355 
L 180.856364 179.63972 
L 181.532727 190.583925 
L 182.209091 209.650668 
L 182.885455 191.17952 
L 183.561818 180.82566 
L 184.238182 206.682131 
L 184.914545 203.749485 
L 185.590909 191.844371 
L 186.267273 212.030868 
L 186.943636 224.194426 
L 187.62 181.80267 
L 188.296364 234.828749 
L 188.972727 213.332656 
L 190.325455 251.494729 
L 191.001818 224.656209 
L 191.678182 212.614459 
L 192.354545 183.236113 
L 193.030909 188.50702 
L 193.707273 236.172591 
L 194.383636 191.482596 
L 195.06 177.408772 
L 195.736364 237.168453 
L 196.412727 269.449704 
L 197.089091 249.492525 
L 197.765455 237.32775 
L 198.441818 241.193726 
L 199.794545 264.897384 
L 200.470909 268.60603 
L 201.147273 263.920566 
L 201.823636 266.852192 
L 202.5 248.78632 
L 203.176364 247.551891 
L 203.852727 229.550614 
L 204.529091 244.128726 
L 205.205455 248.372694 
L 205.881818 243.674035 
L 206.558182 257.549853 
L 207.910909 237.223643 
L 208.587273 198.350101 
L 209.263636 174.874005 
L 209.94 193.191588 
L 210.616364 131.983167 
L 211.292727 188.048212 
L 211.969091 231.466143 
L 212.645455 238.721322 
L 213.321818 256.234818 
L 213.998182 242.024571 
L 214.674545 230.658449 
L 215.350909 239.495745 
L 216.027273 268.168631 
L 216.703636 263.409606 
L 218.056364 235.185895 
L 218.732727 250.410102 
L 219.409091 250.46628 
L 220.085455 228.194858 
L 220.761818 228.913711 
L 221.438182 211.626073 
L 222.114545 164.656411 
L 223.467273 85.388434 
L 224.143636 171.978483 
L 224.82 232.23102 
L 225.496364 201.899434 
L 226.172727 187.741855 
L 226.849091 145.441716 
L 227.525455 148.167191 
L 228.201818 223.657263 
L 228.878182 273.708283 
L 229.554545 270.418551 
L 230.230909 239.745746 
L 230.907273 222.877216 
L 231.583636 225.056727 
L 232.26 211.416902 
L 232.936364 212.152954 
L 233.612727 176.464297 
L 234.289091 205.546407 
L 234.965455 218.130065 
L 235.641818 224.173296 
L 236.318182 214.216393 
L 236.994545 225.978613 
L 237.670909 182.054144 
L 238.347273 193.413179 
L 239.023636 171.937668 
L 239.7 142.038023 
L 240.376364 145.99701 
L 241.052727 87.310481 
L 241.729091 105.767735 
L 242.405455 64.572175 
L 243.758182 202.678634 
L 244.434545 236.045279 
L 245.110909 244.42204 
L 245.787273 247.109823 
L 246.463636 231.269962 
L 247.14 231.383227 
L 247.816364 214.054826 
L 249.169091 200.779171 
L 249.845455 185.24357 
L 250.521818 162.631347 
L 251.198182 159.282075 
L 251.874545 147.433563 
L 252.550909 142.47908 
L 253.227273 141.057536 
L 253.903636 128.448538 
L 254.58 129.980472 
L 255.256364 132.760817 
L 255.932727 142.533844 
L 256.609091 144.096198 
L 257.285455 124.778327 
L 257.961818 128.64215 
L 258.638182 179.818538 
L 259.314545 214.411571 
L 259.990909 238.632958 
L 260.667273 247.507335 
L 261.343636 227.341922 
L 262.02 224.655176 
L 262.696364 237.368566 
L 263.372727 235.680533 
L 264.049091 229.458763 
L 265.401818 243.324404 
L 266.754545 225.379992 
L 267.430909 237.258189 
L 268.107273 260.991324 
L 268.783636 261.278302 
L 269.46 275.184431 
L 270.136364 250.543171 
L 270.812727 260.672162 
L 271.489091 261.871466 
L 272.165455 232.167544 
L 272.841818 227.179217 
L 273.518182 223.266903 
L 274.194545 192.177932 
L 274.870909 187.75545 
L 275.547273 212.460838 
L 276.223636 213.01322 
L 276.9 230.129747 
L 277.576364 233.364307 
L 278.252727 237.177499 
L 278.929091 208.139509 
L 279.605455 222.424611 
L 280.281818 220.052264 
L 280.958182 226.856084 
L 281.634545 207.79239 
L 282.310909 235.926356 
L 282.987273 216.879841 
L 283.663636 184.359447 
L 284.34 219.937806 
L 285.016364 186.482361 
L 285.692727 201.895893 
L 286.369091 210.240796 
L 287.045455 198.533062 
L 287.721818 240.451784 
L 288.398182 201.409633 
L 289.074545 185.697344 
L 289.750909 174.824198 
L 290.427273 172.659291 
L 291.103636 213.149907 
L 291.78 196.4009 
L 292.456364 221.369756 
L 293.132727 207.683077 
L 293.809091 264.186038 
L 294.485455 257.284276 
L 295.161818 248.728608 
L 295.838182 251.402949 
L 296.514545 272.07595 
L 297.190909 275.150588 
L 297.867273 272.138728 
L 298.543636 267.303743 
L 299.22 270.279288 
L 299.896364 271.960254 
L 300.572727 269.526135 
L 301.249091 268.635911 
L 301.925455 269.593621 
L 302.601818 268.836917 
L 303.278182 268.313533 
L 303.954545 270.736501 
L 304.630909 271.198601 
L 305.307273 269.83474 
L 306.66 262.56001 
L 307.336364 264.847994 
L 308.012727 271.38933 
L 308.689091 264.919534 
L 309.365455 270.616287 
L 310.041818 262.124436 
L 310.718182 257.96332 
L 311.394545 269.459446 
L 312.070909 271.422941 
L 312.747273 260.931907 
L 313.423636 262.06195 
L 314.1 262.06248 
L 314.776364 259.743765 
L 315.452727 256.666352 
L 316.129091 255.276063 
L 316.805455 245.029908 
L 317.481818 243.567113 
L 318.158182 241.375849 
L 318.834545 246.954945 
L 319.510909 257.924279 
L 320.187273 262.276092 
L 320.863636 267.627998 
L 322.216364 263.463247 
L 322.892727 263.1906 
L 323.569091 265.281645 
L 324.245455 264.193166 
L 324.921818 261.954835 
L 325.598182 259.10448 
L 326.274545 257.437421 
L 326.950909 255.407747 
L 327.627273 249.731786 
L 328.303636 249.667579 
L 328.98 252.693134 
L 329.656364 250.279375 
L 330.332727 267.366202 
L 331.009091 264.316154 
L 331.685455 252.767959 
L 332.361818 256.709115 
L 333.038182 269.070658 
L 333.714545 272.237796 
L 334.390909 268.370245 
L 335.067273 267.593148 
L 335.743636 265.887952 
L 336.42 266.560785 
L 337.772727 263.329461 
L 338.449091 250.173977 
L 339.125455 241.320425 
L 339.801818 207.920119 
L 341.154545 166.542372 
L 341.830909 189.235656 
L 342.507273 205.301201 
L 343.183636 252.517783 
L 343.86 241.887092 
L 344.536364 233.845384 
L 345.212727 247.10094 
L 345.889091 247.655796 
L 346.565455 245.089422 
L 347.241818 248.250628 
L 347.918182 247.656179 
L 348.594545 249.153804 
L 349.270909 237.821167 
L 349.947273 243.68145 
L 350.623636 229.941293 
L 351.3 238.020896 
L 351.976364 221.060276 
L 352.652727 180.328171 
L 354.005455 154.871416 
L 354.681818 134.716402 
L 355.358182 108.996308 
L 356.034545 130.065344 
L 356.710909 121.839586 
L 357.387273 116.807558 
L 358.063636 139.463612 
L 358.74 100.72393 
L 359.416364 124.615595 
L 360.092727 144.44454 
L 360.769091 140.9622 
L 361.445455 149.136869 
L 362.121818 140.89723 
L 362.798182 159.423256 
L 363.474545 168.905752 
L 364.150909 157.450389 
L 364.827273 192.086344 
L 365.503636 169.150182 
L 366.18 174.85265 
L 366.856364 171.699022 
L 367.532727 195.429386 
L 368.209091 224.916989 
L 368.885455 218.375514 
L 369.561818 178.679243 
L 370.238182 157.135988 
L 370.914545 182.324247 
L 371.590909 188.062137 
L 372.267273 211.74904 
L 372.943636 146.0003 
L 373.62 124.942842 
L 374.296364 185.72551 
L 374.972727 173.925738 
L 375.649091 180.716131 
L 376.325455 167.035359 
L 377.001818 121.51288 
L 377.678182 97.166185 
L 378.354545 164.285625 
L 379.030909 169.601337 
L 379.707273 194.606335 
L 380.383636 199.190743 
L 381.06 175.88098 
L 381.736364 230.828207 
L 382.412727 197.40496 
L 383.089091 196.560996 
L 383.765455 202.395741 
L 384.441818 227.532992 
L 385.118182 209.147031 
L 385.794545 222.096288 
L 386.470909 206.691675 
L 387.147273 223.538746 
L 387.823636 205.574765 
L 388.5 244.407193 
L 389.176364 223.812575 
L 389.852727 174.064196 
L 390.529091 182.220186 
L 391.205455 176.175534 
L 391.881818 151.748764 
L 392.558182 155.102098 
L 393.234545 137.036824 
L 393.910909 100.522165 
L 394.587273 148.35787 
L 395.263636 174.597574 
L 396.616364 160.861793 
L 397.292727 166.294534 
L 397.969091 109.407803 
L 398.645455 116.567955 
L 399.321818 160.460224 
L 399.998182 141.609975 
L 400.674545 147.561986 
L 401.350909 150.208633 
L 402.027273 126.980315 
L 402.703636 85.551524 
L 403.38 73.427932 
L 404.056364 86.264786 
L 404.732727 119.955092 
L 405.409091 125.809388 
L 406.085455 146.559794 
L 406.761818 186.176449 
L 407.438182 179.950602 
L 408.114545 212.092915 
L 408.790909 219.814792 
L 409.467273 214.318861 
L 410.143636 262.119725 
L 410.82 241.594694 
L 411.496364 229.361979 
L 412.172727 250.578081 
L 412.849091 249.630087 
L 413.525455 227.46513 
L 414.201818 218.948265 
L 415.554545 162.266315 
L 416.230909 161.835769 
L 416.907273 125.315168 
L 417.583636 145.955652 
L 418.936364 112.616614 
L 419.612727 124.977844 
L 420.289091 147.284415 
L 420.965455 204.031391 
L 421.641818 246.574364 
L 422.318182 307.8 
L 422.994545 232.883231 
L 423.670909 219.505893 
L 424.347273 219.334085 
L 425.023636 231.642589 
L 425.7 233.956177 
L 427.052727 204.053744 
L 427.729091 174.26328 
L 428.405455 174.649587 
L 429.081818 212.902758 
L 429.758182 171.114397 
L 430.434545 175.302363 
L 431.110909 151.622815 
L 431.787273 144.47693 
L 432.463636 175.718239 
L 433.14 170.825037 
L 433.816364 92.622266 
L 434.492727 83.6242 
L 435.169091 55.8 
L 435.845455 78.969962 
L 435.845455 78.969962 
" clip-path="url(#pb0ad40ae84)" style="fill: none; stroke-dasharray: 5.55,2.4; stroke-dashoffset: 0; stroke: #ff7f0e; stroke-width: 1.5"/>
   </g>
   <g id="patch_3">
    <path d="M 63 320.4 
L 63 43.2 
" style="fill: none; stroke: #000000; stroke-width: 0.8; stroke-linejoin: miter; stroke-linecap: square"/>
   </g>
   <g id="patch_4">
    <path d="M 453.6 320.4 
L 453.6 43.2 
" style="fill: none; stroke: #000000; stroke-width: 0.8; stroke-linejoin: miter; stroke-linecap: square"/>
   </g>
   <g id="patch_5">
    <path d="M 63 320.4 
L 453.6 320.4 
" style="fill: none; stroke: #000000; stroke-width: 0.8; stroke-linejoin: miter; stroke-linecap: square"/>
   </g>
   <g id="patch_6">
    <path d="M 63 43.2 
L 453.6 43.2 
" style="fill: none; stroke: #000000; stroke-width: 0.8; stroke-linejoin: miter; stroke-linecap: square"/>
   </g>
   <g id="text_14">
    <!-- SVR 测试集预测 -->
    <g transform="translate(216.3 37.2)scale(0.12 -0.12)">
     <defs>
      <path id="SimHei-53" d="M 2900 1325 
Q 2900 750 2537 412 
Q 2175 75 1550 75 
Q 925 75 575 425 
Q 225 775 225 1300 
L 225 1475 
L 800 1475 
L 800 1325 
Q 800 950 1025 750 
Q 1250 550 1550 550 
Q 1950 550 2137 762 
Q 2325 975 2325 1275 
Q 2325 1525 2100 1737 
Q 1875 1950 1450 2125 
Q 850 2350 587 2625 
Q 325 2900 325 3275 
Q 325 3800 687 4125 
Q 1050 4450 1550 4450 
Q 2200 4450 2487 4062 
Q 2775 3675 2775 3225 
L 2200 3225 
Q 2225 3500 2050 3725 
Q 1875 3950 1550 3950 
Q 1250 3950 1075 3787 
Q 900 3625 900 3350 
Q 900 3125 1037 2962 
Q 1175 2800 1750 2575 
Q 2300 2350 2600 2037 
Q 2900 1725 2900 1325 
z
" transform="scale(0.015625)"/>
      <path id="SimHei-56" d="M 3050 4400 
L 1800 75 
L 1300 75 
L 50 4400 
L 650 4400 
L 1525 1125 
L 1575 1125 
L 2450 4400 
L 3050 4400 
z
" transform="scale(0.015625)"/>
      <path id="SimHei-52" d="M 3000 125 
L 2400 125 
L 1500 1975 
L 850 1975 
L 850 125 
L 275 125 
L 275 4400 
L 1525 4400 
Q 2125 4400 2500 4112 
Q 2875 3825 2875 3175 
Q 2875 2675 2625 2400 
Q 2375 2125 2050 2050 
L 3000 125 
z
M 2300 3175 
Q 2300 3525 2087 3725 
Q 1875 3925 1400 3925 
L 850 3925 
L 850 2450 
L 1550 2450 
Q 1850 2450 2075 2612 
Q 2300 2775 2300 3175 
z
" transform="scale(0.015625)"/>
      <path id="SimHei-20" transform="scale(0.015625)"/>
      <path id="SimHei-6d4b" d="M 4025 4725 
Q 4000 4475 4000 4000 
L 4000 2225 
Q 4000 1775 4025 1350 
L 3550 1350 
L 3550 4325 
L 2350 4325 
L 2350 1325 
L 1900 1325 
Q 1925 1775 1925 2225 
L 1925 4000 
Q 1925 4200 1900 4725 
L 4025 4725 
z
M 5900 5075 
Q 5875 4800 5875 4375 
L 5875 0 
Q 5875 -325 5650 -425 
Q 5425 -525 4975 -600 
Q 4925 -325 4775 -50 
Q 5125 -50 5262 -25 
Q 5400 0 5400 250 
L 5400 4375 
Q 5400 4775 5375 5075 
L 5900 5075 
z
M 3275 3725 
Q 3225 3400 3200 2325 
Q 3175 1250 2837 550 
Q 2500 -150 2075 -600 
Q 1850 -400 1600 -325 
Q 2200 250 2475 962 
Q 2750 1675 2762 2475 
Q 2775 3275 2725 3800 
Q 3000 3750 3275 3725 
z
M 4950 4275 
Q 4925 4000 4925 3575 
L 4925 1825 
Q 4925 1300 4950 850 
L 4450 850 
Q 4475 1150 4475 1825 
L 4475 3575 
Q 4475 4000 4450 4275 
L 4950 4275 
z
M 1700 1675 
Q 1375 1075 1112 487 
Q 850 -100 725 -400 
Q 500 -200 200 -25 
Q 475 300 762 850 
Q 1050 1400 1250 2000 
Q 1475 1825 1700 1675 
z
M 3400 1050 
Q 3800 650 4300 -125 
Q 4100 -225 3875 -450 
Q 3475 275 3025 750 
Q 3225 875 3400 1050 
z
M 600 3525 
Q 1125 3125 1500 2775 
Q 1300 2575 1150 2375 
Q 825 2775 300 3150 
Q 450 3300 600 3525 
z
M 1350 4000 
Q 950 4375 475 4675 
Q 625 4850 775 5050 
Q 1300 4700 1675 4375 
Q 1500 4250 1350 4000 
z
" transform="scale(0.015625)"/>
      <path id="SimHei-8bd5" d="M 3950 3825 
Q 3925 4325 3925 4550 
Q 3925 4800 3900 5225 
Q 4200 5150 4450 5125 
Q 4425 4825 4425 4600 
L 4425 3825 
L 5150 3825 
Q 5500 3825 5875 3850 
L 5875 3400 
Q 5525 3425 5125 3425 
L 4450 3425 
Q 4500 2750 4587 2212 
Q 4675 1675 4837 1112 
Q 5000 550 5212 225 
Q 5425 -100 5500 200 
Q 5575 500 5600 900 
Q 5800 625 6100 525 
Q 5975 -275 5750 -487 
Q 5525 -700 5250 -537 
Q 4975 -375 4737 62 
Q 4500 500 4337 1075 
Q 4175 1650 4100 2262 
Q 4025 2875 3975 3425 
L 2800 3425 
Q 2300 3425 1875 3400 
L 1875 3850 
Q 2275 3825 2775 3825 
L 3950 3825 
z
M 1500 3175 
Q 1475 2675 1475 2175 
L 1475 625 
Q 1825 950 2125 1225 
Q 2225 1000 2375 800 
Q 1900 425 1125 -350 
Q 1000 -125 825 50 
Q 1025 175 1025 525 
L 1025 2725 
Q 625 2725 300 2700 
L 300 3200 
Q 625 3175 825 3175 
L 1500 3175 
z
M 3775 2175 
Q 3500 2200 3250 2200 
L 3250 575 
Q 3575 675 3900 800 
Q 3900 525 3950 325 
Q 3575 250 3150 125 
Q 2725 0 2275 -175 
Q 2200 100 2025 300 
Q 2425 350 2800 475 
L 2800 2200 
Q 2525 2200 2225 2175 
L 2225 2650 
Q 2600 2625 3000 2625 
Q 3425 2625 3775 2650 
L 3775 2175 
z
M 925 4975 
Q 1275 4650 1700 4100 
Q 1525 3925 1325 3775 
Q 1175 4050 575 4650 
Q 775 4825 925 4975 
z
M 5150 5150 
Q 5325 5000 5850 4375 
Q 5575 4200 5425 4050 
Q 5125 4525 4775 4875 
Q 4925 4975 5150 5150 
z
" transform="scale(0.015625)"/>
      <path id="SimHei-96c6" d="M 2275 4925 
Q 2125 4800 2025 4662 
Q 1925 4525 1850 4350 
L 4925 4350 
Q 5300 4350 5750 4375 
L 5750 3975 
L 3650 3975 
L 3650 3575 
L 4625 3575 
Q 4925 3575 5325 3600 
L 5325 3175 
Q 4925 3200 4625 3200 
L 3650 3200 
L 3650 2800 
L 4675 2800 
Q 5000 2800 5425 2825 
L 5425 2400 
Q 5000 2425 4675 2425 
L 3650 2425 
L 3650 2075 
L 4875 2075 
Q 5275 2075 5675 2100 
L 5675 1675 
Q 5300 1700 4900 1700 
L 1650 1700 
L 1650 1500 
L 1150 1500 
Q 1200 1950 1200 2325 
L 1200 3475 
Q 1050 3250 937 3125 
Q 825 3000 675 2825 
Q 500 3000 300 3125 
Q 475 3325 875 3825 
Q 1275 4325 1462 4650 
Q 1650 4975 1725 5225 
Q 1950 5100 2275 4925 
z
M 2975 1200 
Q 2975 1300 2950 1625 
L 3475 1625 
Q 3450 1275 3450 1200 
L 5050 1200 
Q 5500 1200 5925 1225 
L 5925 825 
L 4150 825 
Q 4500 525 4925 362 
Q 5350 200 6100 25 
Q 5875 -225 5775 -475 
Q 5275 -300 4962 -162 
Q 4650 -25 4387 137 
Q 4125 300 3950 462 
Q 3775 625 3575 825 
L 3450 825 
L 3450 250 
Q 3450 -275 3500 -650 
L 2950 -650 
Q 2975 -300 2975 250 
L 2975 825 
L 2875 825 
Q 2700 575 2475 375 
Q 2250 175 1987 12 
Q 1725 -150 1425 -300 
Q 1125 -450 700 -575 
Q 600 -325 400 -75 
Q 925 50 1475 262 
Q 2025 475 2300 825 
L 500 825 
L 500 1225 
Q 800 1200 1400 1200 
L 2975 1200 
z
M 3150 2800 
L 3150 3200 
L 1650 3200 
L 1650 2800 
L 3150 2800 
z
M 3150 3575 
L 3150 3975 
L 1650 3975 
L 1650 3575 
L 3150 3575 
z
M 3150 2075 
L 3150 2425 
L 1650 2425 
L 1650 2075 
L 3150 2075 
z
M 3450 5250 
Q 3575 5150 3712 5000 
Q 3850 4850 4000 4650 
Q 3850 4525 3575 4375 
Q 3425 4575 3325 4700 
Q 3225 4825 3075 4950 
Q 3275 5075 3450 5250 
z
" transform="scale(0.015625)"/>
      <path id="SimHei-9884" d="M 5200 4800 
Q 5575 4800 5950 4825 
L 5950 4400 
Q 5575 4425 5200 4425 
L 4500 4425 
Q 4425 4050 4350 3600 
L 5725 3600 
Q 5700 3225 5700 2800 
L 5700 1725 
Q 5700 1300 5725 850 
L 5250 850 
L 5250 3225 
L 3550 3225 
L 3550 800 
L 3075 800 
Q 3100 1375 3100 1725 
L 3100 2775 
Q 3100 3175 3075 3600 
L 3900 3600 
Q 4000 4150 4000 4425 
L 3725 4425 
Q 3300 4425 2850 4400 
L 2850 4825 
Q 3325 4800 3725 4800 
L 5200 4800 
z
M 2600 1775 
Q 2350 1825 2150 1825 
Q 2250 2250 2300 2450 
L 1750 2450 
L 1750 125 
Q 1725 -300 1425 -400 
Q 1125 -500 750 -500 
Q 700 -225 575 25 
Q 1125 -25 1212 37 
Q 1300 100 1300 350 
L 1300 2450 
L 1025 2450 
Q 700 2450 350 2425 
L 350 2850 
Q 700 2825 1000 2825 
L 2850 2825 
Q 2725 2325 2600 1775 
z
M 4725 2875 
Q 4625 2575 4600 2100 
Q 4575 1625 4462 1037 
Q 4350 450 3962 62 
Q 3575 -325 2925 -675 
Q 2700 -500 2475 -350 
Q 3075 -125 3437 200 
Q 3800 525 3950 937 
Q 4100 1350 4137 1850 
Q 4175 2350 4175 2925 
L 4725 2875 
z
M 1625 2900 
Q 1275 3275 800 3650 
Q 925 3775 1075 3950 
Q 1250 3825 1425 3675 
Q 1750 4150 1950 4375 
L 1400 4375 
Q 900 4375 450 4350 
L 450 4775 
Q 900 4750 1375 4750 
L 2575 4750 
L 2575 4375 
Q 2200 4100 1725 3400 
L 1950 3200 
Q 1750 3025 1625 2900 
z
M 4775 725 
Q 5725 0 6075 -325 
Q 5850 -500 5725 -650 
Q 5400 -325 5137 -87 
Q 4875 150 4525 350 
Q 4650 525 4775 725 
z
" transform="scale(0.015625)"/>
     </defs>
     <use xlink:href="#SimHei-53"/>
     <use xlink:href="#SimHei-56" x="50"/>
     <use xlink:href="#SimHei-52" x="100"/>
     <use xlink:href="#SimHei-20" x="150"/>
     <use xlink:href="#SimHei-6d4b" x="200"/>
     <use xlink:href="#SimHei-8bd5" x="300"/>
     <use xlink:href="#SimHei-96c6" x="400"/>
     <use xlink:href="#SimHei-9884" x="500"/>
     <use xlink:href="#SimHei-6d4b" x="600"/>
    </g>
   </g>
   <g id="legend_1">
    <g id="patch_7">
     <path d="M 394.6 77.7 
L 446.6 77.7 
Q 448.6 77.7 448.6 75.7 
L 448.6 50.2 
Q 448.6 48.2 446.6 48.2 
L 394.6 48.2 
Q 392.6 48.2 392.6 50.2 
L 392.6 75.7 
Q 392.6 77.7 394.6 77.7 
z
" style="fill: #ffffff; opacity: 0.8; stroke: #cccccc; stroke-linejoin: miter"/>
    </g>
    <g id="line2d_29">
     <path d="M 396.6 55.7 
L 406.6 55.7 
L 416.6 55.7 
" style="fill: none; stroke: #1f77b4; stroke-width: 1.5; stroke-linecap: square"/>
    </g>
    <g id="text_15">
     <!-- true -->
     <g transform="translate(424.6 59.2)scale(0.1 -0.1)">
      <defs>
       <path id="SimHei-74" d="M 2750 200 
Q 2625 150 2462 112 
Q 2300 75 2025 75 
Q 1575 75 1300 325 
Q 1025 575 1025 1025 
L 1025 2525 
L 175 2525 
L 175 2925 
L 1025 2925 
L 1025 3900 
L 1525 3900 
L 1525 2925 
L 2550 2925 
L 2550 2525 
L 1525 2525 
L 1525 1000 
Q 1525 800 1625 662 
Q 1725 525 2000 525 
Q 2275 525 2450 575 
Q 2625 625 2750 700 
L 2750 200 
z
" transform="scale(0.015625)"/>
       <path id="SimHei-72" d="M 2500 2425 
Q 2025 2500 1700 2287 
Q 1375 2075 1150 1550 
L 1150 125 
L 650 125 
L 650 2925 
L 1150 2925 
L 1150 2200 
Q 1375 2600 1712 2787 
Q 2050 2975 2500 2975 
L 2500 2425 
z
" transform="scale(0.015625)"/>
       <path id="SimHei-75" d="M 2800 125 
L 2300 125 
L 2300 650 
Q 2100 375 1862 225 
Q 1625 75 1250 75 
Q 800 75 575 325 
Q 350 575 350 950 
L 350 2925 
L 850 2925 
L 850 1125 
Q 850 825 1000 650 
Q 1150 475 1400 475 
Q 1725 475 2012 812 
Q 2300 1150 2300 1650 
L 2300 2925 
L 2800 2925 
L 2800 125 
z
" transform="scale(0.015625)"/>
       <path id="SimHei-65" d="M 2850 1075 
Q 2800 625 2450 350 
Q 2100 75 1625 75 
Q 1025 75 637 462 
Q 250 850 250 1525 
Q 250 2200 637 2587 
Q 1025 2975 1625 2975 
Q 2150 2975 2487 2637 
Q 2825 2300 2825 1525 
L 800 1525 
Q 800 975 1037 750 
Q 1275 525 1625 525 
Q 1900 525 2075 662 
Q 2250 800 2300 1075 
L 2850 1075 
z
M 2250 1925 
Q 2200 2275 2025 2412 
Q 1850 2550 1575 2550 
Q 1325 2550 1125 2412 
Q 925 2275 825 1925 
L 2250 1925 
z
" transform="scale(0.015625)"/>
      </defs>
      <use xlink:href="#SimHei-74"/>
      <use xlink:href="#SimHei-72" x="50"/>
      <use xlink:href="#SimHei-75" x="100"/>
      <use xlink:href="#SimHei-65" x="150"/>
     </g>
    </g>
    <g id="line2d_30">
     <path d="M 396.6 68.95 
L 406.6 68.95 
L 416.6 68.95 
" style="fill: none; stroke-dasharray: 5.55,2.4; stroke-dashoffset: 0; stroke: #ff7f0e; stroke-width: 1.5"/>
    </g>
    <g id="text_16">
     <!-- SVR -->
     <g transform="translate(424.6 72.45)scale(0.1 -0.1)">
      <use xlink:href="#SimHei-53"/>
      <use xlink:href="#SimHei-56" x="50"/>
      <use xlink:href="#SimHei-52" x="100"/>
     </g>
    </g>
   </g>
  </g>
 </g>
 <defs>
  <clipPath id="pb0ad40ae84">
   <rect x="63" y="43.2" width="390.6" height="277.2"/>
  </clipPath>
 </defs>
</svg>
