<?xml version="1.0" encoding="utf-8" standalone="no"?>
<!DOCTYPE svg PUBLIC "-//W3C//DTD SVG 1.1//EN"
  "http://www.w3.org/Graphics/SVG/1.1/DTD/svg11.dtd">
<svg xmlns:xlink="http://www.w3.org/1999/xlink" width="504pt" height="360pt" viewBox="0 0 504 360" xmlns="http://www.w3.org/2000/svg" version="1.1">
 <metadata>
  <rdf:RDF xmlns:dc="http://purl.org/dc/elements/1.1/" xmlns:cc="http://creativecommons.org/ns#" xmlns:rdf="http://www.w3.org/1999/02/22-rdf-syntax-ns#">
   <cc:Work>
    <dc:type rdf:resource="http://purl.org/dc/dcmitype/StillImage"/>
    <dc:date>2025-01-12T16:23:52.959233</dc:date>
    <dc:format>image/svg+xml</dc:format>
    <dc:creator>
     <cc:Agent>
      <dc:title>Matplotlib v3.5.3, https://matplotlib.org/</dc:title>
     </cc:Agent>
    </dc:creator>
   </cc:Work>
  </rdf:RDF>
 </metadata>
 <defs>
  <style type="text/css">*{stroke-linejoin: round; stroke-linecap: butt}</style>
 </defs>
 <g id="figure_1">
  <g id="patch_1">
   <path d="M 0 360 
L 504 360 
L 504 0 
L 0 0 
z
" style="fill: #ffffff"/>
  </g>
  <g id="axes_1">
   <g id="patch_2">
    <path d="M 63 320.4 
L 453.6 320.4 
L 453.6 43.2 
L 63 43.2 
z
" style="fill: #ffffff"/>
   </g>
   <g id="matplotlib.axis_1">
    <g id="xtick_1">
     <g id="line2d_1">
      <path d="M 80.754545 320.4 
L 80.754545 43.2 
" clip-path="url(#p85b82c56da)" style="fill: none; stroke: #b0b0b0; stroke-width: 0.8; stroke-linecap: square"/>
     </g>
     <g id="line2d_2">
      <defs>
       <path id="me8d6a3f8dd" d="M 0 0 
L 0 3.5 
" style="stroke: #000000; stroke-width: 0.8"/>
      </defs>
      <g>
       <use xlink:href="#me8d6a3f8dd" x="80.754545" y="320.4" style="stroke: #000000; stroke-width: 0.8"/>
      </g>
     </g>
     <g id="text_1">
      <!-- 0 -->
      <g transform="translate(78.254545 334.275)scale(0.1 -0.1)">
       <defs>
        <path id="SimHei-30" d="M 225 2537 
Q 250 3200 412 3587 
Q 575 3975 875 4225 
Q 1175 4475 1612 4475 
Q 2050 4475 2375 4112 
Q 2700 3750 2800 3200 
Q 2900 2650 2862 1937 
Q 2825 1225 2612 775 
Q 2400 325 1975 150 
Q 1550 -25 1125 187 
Q 700 400 525 750 
Q 350 1100 275 1487 
Q 200 1875 225 2537 
z
M 750 2687 
Q 675 2000 800 1462 
Q 925 925 1212 700 
Q 1500 475 1800 612 
Q 2100 750 2237 1162 
Q 2375 1575 2375 2062 
Q 2375 2550 2337 2950 
Q 2300 3350 2112 3675 
Q 1925 4000 1612 4012 
Q 1300 4025 1062 3700 
Q 825 3375 750 2687 
z
" transform="scale(0.015625)"/>
       </defs>
       <use xlink:href="#SimHei-30"/>
      </g>
     </g>
    </g>
    <g id="xtick_2">
     <g id="line2d_3">
      <path d="M 148.390909 320.4 
L 148.390909 43.2 
" clip-path="url(#p85b82c56da)" style="fill: none; stroke: #b0b0b0; stroke-width: 0.8; stroke-linecap: square"/>
     </g>
     <g id="line2d_4">
      <g>
       <use xlink:href="#me8d6a3f8dd" x="148.390909" y="320.4" style="stroke: #000000; stroke-width: 0.8"/>
      </g>
     </g>
     <g id="text_2">
      <!-- 100 -->
      <g transform="translate(140.890909 334.275)scale(0.1 -0.1)">
       <defs>
        <path id="SimHei-31" d="M 1400 3600 
Q 1075 3275 575 2975 
L 575 3450 
Q 1200 3875 1600 4450 
L 1900 4450 
L 1900 150 
L 1400 150 
L 1400 3600 
z
" transform="scale(0.015625)"/>
       </defs>
       <use xlink:href="#SimHei-31"/>
       <use xlink:href="#SimHei-30" x="50"/>
       <use xlink:href="#SimHei-30" x="100"/>
      </g>
     </g>
    </g>
    <g id="xtick_3">
     <g id="line2d_5">
      <path d="M 216.027273 320.4 
L 216.027273 43.2 
" clip-path="url(#p85b82c56da)" style="fill: none; stroke: #b0b0b0; stroke-width: 0.8; stroke-linecap: square"/>
     </g>
     <g id="line2d_6">
      <g>
       <use xlink:href="#me8d6a3f8dd" x="216.027273" y="320.4" style="stroke: #000000; stroke-width: 0.8"/>
      </g>
     </g>
     <g id="text_3">
      <!-- 200 -->
      <g transform="translate(208.527273 334.275)scale(0.1 -0.1)">
       <defs>
        <path id="SimHei-32" d="M 300 250 
Q 325 625 650 925 
Q 975 1225 1475 1862 
Q 1975 2500 2125 2850 
Q 2275 3200 2237 3450 
Q 2200 3700 2000 3862 
Q 1800 4025 1537 4000 
Q 1275 3975 1037 3800 
Q 800 3625 675 3275 
L 200 3350 
Q 400 3925 712 4187 
Q 1025 4450 1450 4475 
Q 1700 4500 1900 4462 
Q 2100 4425 2312 4287 
Q 2525 4150 2662 3875 
Q 2800 3600 2762 3212 
Q 2725 2825 2375 2287 
Q 2025 1750 1025 600 
L 2825 600 
L 2825 150 
L 300 150 
L 300 250 
z
" transform="scale(0.015625)"/>
       </defs>
       <use xlink:href="#SimHei-32"/>
       <use xlink:href="#SimHei-30" x="50"/>
       <use xlink:href="#SimHei-30" x="100"/>
      </g>
     </g>
    </g>
    <g id="xtick_4">
     <g id="line2d_7">
      <path d="M 283.663636 320.4 
L 283.663636 43.2 
" clip-path="url(#p85b82c56da)" style="fill: none; stroke: #b0b0b0; stroke-width: 0.8; stroke-linecap: square"/>
     </g>
     <g id="line2d_8">
      <g>
       <use xlink:href="#me8d6a3f8dd" x="283.663636" y="320.4" style="stroke: #000000; stroke-width: 0.8"/>
      </g>
     </g>
     <g id="text_4">
      <!-- 300 -->
      <g transform="translate(276.163636 334.275)scale(0.1 -0.1)">
       <defs>
        <path id="SimHei-33" d="M 250 1225 
L 700 1300 
Q 800 975 1025 762 
Q 1250 550 1587 562 
Q 1925 575 2125 837 
Q 2325 1100 2300 1437 
Q 2275 1775 2037 1962 
Q 1800 2150 1275 2225 
L 1275 2550 
Q 1800 2600 2037 2825 
Q 2275 3050 2250 3412 
Q 2225 3775 1925 3937 
Q 1625 4100 1287 3975 
Q 950 3850 750 3275 
L 300 3350 
Q 450 3800 712 4100 
Q 975 4400 1425 4450 
Q 1875 4500 2212 4337 
Q 2550 4175 2687 3837 
Q 2825 3500 2725 3100 
Q 2625 2700 2150 2400 
Q 2500 2250 2687 1950 
Q 2875 1650 2812 1162 
Q 2750 675 2375 375 
Q 2000 75 1525 87 
Q 1050 100 700 387 
Q 350 675 250 1225 
z
" transform="scale(0.015625)"/>
       </defs>
       <use xlink:href="#SimHei-33"/>
       <use xlink:href="#SimHei-30" x="50"/>
       <use xlink:href="#SimHei-30" x="100"/>
      </g>
     </g>
    </g>
    <g id="xtick_5">
     <g id="line2d_9">
      <path d="M 351.3 320.4 
L 351.3 43.2 
" clip-path="url(#p85b82c56da)" style="fill: none; stroke: #b0b0b0; stroke-width: 0.8; stroke-linecap: square"/>
     </g>
     <g id="line2d_10">
      <g>
       <use xlink:href="#me8d6a3f8dd" x="351.3" y="320.4" style="stroke: #000000; stroke-width: 0.8"/>
      </g>
     </g>
     <g id="text_5">
      <!-- 400 -->
      <g transform="translate(343.8 334.275)scale(0.1 -0.1)">
       <defs>
        <path id="SimHei-34" d="M 2000 1100 
L 75 1100 
L 75 1525 
L 2100 4450 
L 2475 4450 
L 2475 1525 
L 3075 1525 
L 3075 1100 
L 2475 1100 
L 2475 150 
L 2000 150 
L 2000 1100 
z
M 2000 1525 
L 2000 3500 
L 600 1525 
L 2000 1525 
z
" transform="scale(0.015625)"/>
       </defs>
       <use xlink:href="#SimHei-34"/>
       <use xlink:href="#SimHei-30" x="50"/>
       <use xlink:href="#SimHei-30" x="100"/>
      </g>
     </g>
    </g>
    <g id="xtick_6">
     <g id="line2d_11">
      <path d="M 418.936364 320.4 
L 418.936364 43.2 
" clip-path="url(#p85b82c56da)" style="fill: none; stroke: #b0b0b0; stroke-width: 0.8; stroke-linecap: square"/>
     </g>
     <g id="line2d_12">
      <g>
       <use xlink:href="#me8d6a3f8dd" x="418.936364" y="320.4" style="stroke: #000000; stroke-width: 0.8"/>
      </g>
     </g>
     <g id="text_6">
      <!-- 500 -->
      <g transform="translate(411.436364 334.275)scale(0.1 -0.1)">
       <defs>
        <path id="SimHei-35" d="M 550 1325 
Q 725 650 1150 575 
Q 1575 500 1837 662 
Q 2100 825 2212 1087 
Q 2325 1350 2312 1675 
Q 2300 2000 2137 2225 
Q 1975 2450 1725 2525 
Q 1475 2600 1162 2525 
Q 850 2450 650 2175 
L 225 2225 
Q 275 2375 700 4375 
L 2675 4375 
L 2675 3925 
L 1075 3925 
Q 950 3250 825 2850 
Q 1200 3025 1525 3012 
Q 1850 3000 2150 2862 
Q 2450 2725 2587 2487 
Q 2725 2250 2787 2012 
Q 2850 1775 2837 1500 
Q 2825 1225 2725 937 
Q 2625 650 2425 462 
Q 2225 275 1937 162 
Q 1650 50 1275 75 
Q 900 100 562 350 
Q 225 600 100 1200 
L 550 1325 
z
" transform="scale(0.015625)"/>
       </defs>
       <use xlink:href="#SimHei-35"/>
       <use xlink:href="#SimHei-30" x="50"/>
       <use xlink:href="#SimHei-30" x="100"/>
      </g>
     </g>
    </g>
   </g>
   <g id="matplotlib.axis_2">
    <g id="ytick_1">
     <g id="line2d_13">
      <path d="M 63 306.573365 
L 453.6 306.573365 
" clip-path="url(#p85b82c56da)" style="fill: none; stroke: #b0b0b0; stroke-width: 0.8; stroke-linecap: square"/>
     </g>
     <g id="line2d_14">
      <defs>
       <path id="m7aa1844f1a" d="M 0 0 
L -3.5 0 
" style="stroke: #000000; stroke-width: 0.8"/>
      </defs>
      <g>
       <use xlink:href="#m7aa1844f1a" x="63" y="306.573365" style="stroke: #000000; stroke-width: 0.8"/>
      </g>
     </g>
     <g id="text_7">
      <!-- 0 -->
      <g transform="translate(51 310.010865)scale(0.1 -0.1)">
       <use xlink:href="#SimHei-30"/>
      </g>
     </g>
    </g>
    <g id="ytick_2">
     <g id="line2d_15">
      <path d="M 63 247.85664 
L 453.6 247.85664 
" clip-path="url(#p85b82c56da)" style="fill: none; stroke: #b0b0b0; stroke-width: 0.8; stroke-linecap: square"/>
     </g>
     <g id="line2d_16">
      <g>
       <use xlink:href="#m7aa1844f1a" x="63" y="247.85664" style="stroke: #000000; stroke-width: 0.8"/>
      </g>
     </g>
     <g id="text_8">
      <!-- 200 -->
      <g transform="translate(41 251.29414)scale(0.1 -0.1)">
       <use xlink:href="#SimHei-32"/>
       <use xlink:href="#SimHei-30" x="50"/>
       <use xlink:href="#SimHei-30" x="100"/>
      </g>
     </g>
    </g>
    <g id="ytick_3">
     <g id="line2d_17">
      <path d="M 63 189.139915 
L 453.6 189.139915 
" clip-path="url(#p85b82c56da)" style="fill: none; stroke: #b0b0b0; stroke-width: 0.8; stroke-linecap: square"/>
     </g>
     <g id="line2d_18">
      <g>
       <use xlink:href="#m7aa1844f1a" x="63" y="189.139915" style="stroke: #000000; stroke-width: 0.8"/>
      </g>
     </g>
     <g id="text_9">
      <!-- 400 -->
      <g transform="translate(41 192.577415)scale(0.1 -0.1)">
       <use xlink:href="#SimHei-34"/>
       <use xlink:href="#SimHei-30" x="50"/>
       <use xlink:href="#SimHei-30" x="100"/>
      </g>
     </g>
    </g>
    <g id="ytick_4">
     <g id="line2d_19">
      <path d="M 63 130.423191 
L 453.6 130.423191 
" clip-path="url(#p85b82c56da)" style="fill: none; stroke: #b0b0b0; stroke-width: 0.8; stroke-linecap: square"/>
     </g>
     <g id="line2d_20">
      <g>
       <use xlink:href="#m7aa1844f1a" x="63" y="130.423191" style="stroke: #000000; stroke-width: 0.8"/>
      </g>
     </g>
     <g id="text_10">
      <!-- 600 -->
      <g transform="translate(41 133.860691)scale(0.1 -0.1)">
       <defs>
        <path id="SimHei-36" d="M 250 1612 
Q 275 1975 387 2225 
Q 500 2475 725 2850 
L 1750 4450 
L 2325 4450 
L 1275 2800 
Q 1950 2975 2350 2750 
Q 2750 2525 2887 2237 
Q 3025 1950 3037 1612 
Q 3050 1275 2937 950 
Q 2825 625 2537 362 
Q 2250 100 1737 75 
Q 1225 50 862 262 
Q 500 475 362 862 
Q 225 1250 250 1612 
z
M 1025 787 
Q 1250 550 1625 525 
Q 2000 500 2250 775 
Q 2500 1050 2500 1575 
Q 2500 2100 2187 2300 
Q 1875 2500 1487 2450 
Q 1100 2400 925 2075 
Q 750 1750 775 1387 
Q 800 1025 1025 787 
z
" transform="scale(0.015625)"/>
       </defs>
       <use xlink:href="#SimHei-36"/>
       <use xlink:href="#SimHei-30" x="50"/>
       <use xlink:href="#SimHei-30" x="100"/>
      </g>
     </g>
    </g>
    <g id="ytick_5">
     <g id="line2d_21">
      <path d="M 63 71.706466 
L 453.6 71.706466 
" clip-path="url(#p85b82c56da)" style="fill: none; stroke: #b0b0b0; stroke-width: 0.8; stroke-linecap: square"/>
     </g>
     <g id="line2d_22">
      <g>
       <use xlink:href="#m7aa1844f1a" x="63" y="71.706466" style="stroke: #000000; stroke-width: 0.8"/>
      </g>
     </g>
     <g id="text_11">
      <!-- 800 -->
      <g transform="translate(41 75.143966)scale(0.1 -0.1)">
       <defs>
        <path id="SimHei-38" d="M 175 1375 
Q 175 1675 325 1962 
Q 475 2250 825 2425 
Q 525 2600 425 2812 
Q 325 3025 312 3300 
Q 300 3575 387 3775 
Q 475 3975 650 4150 
Q 825 4325 1037 4387 
Q 1250 4450 1500 4450 
Q 1750 4450 1950 4400 
Q 2150 4350 2375 4187 
Q 2600 4025 2700 3725 
Q 2800 3425 2687 3025 
Q 2575 2625 2100 2400 
Q 2525 2275 2700 2012 
Q 2875 1750 2875 1375 
Q 2875 1000 2762 775 
Q 2650 550 2512 400 
Q 2375 250 2137 162 
Q 1900 75 1537 75 
Q 1175 75 912 162 
Q 650 250 475 425 
Q 300 600 237 837 
Q 175 1075 175 1375 
z
M 687 1400 
Q 675 1100 787 875 
Q 900 650 1200 587 
Q 1500 525 1825 600 
Q 2150 675 2275 950 
Q 2400 1225 2362 1500 
Q 2325 1775 2050 1962 
Q 1775 2150 1450 2125 
Q 1125 2100 912 1900 
Q 700 1700 687 1400 
z
M 775 3350 
Q 775 3100 950 2875 
Q 1125 2650 1500 2650 
Q 1875 2650 2062 2875 
Q 2250 3100 2237 3412 
Q 2225 3725 2012 3875 
Q 1800 4025 1437 4000 
Q 1075 3975 925 3787 
Q 775 3600 775 3350 
z
" transform="scale(0.015625)"/>
       </defs>
       <use xlink:href="#SimHei-38"/>
       <use xlink:href="#SimHei-30" x="50"/>
       <use xlink:href="#SimHei-30" x="100"/>
      </g>
     </g>
    </g>
   </g>
   <g id="line2d_23">
    <path d="M 80.754545 150.034577 
L 81.430909 214.622974 
L 82.107273 173.932284 
L 82.783636 225.426851 
L 83.46 214.799124 
L 84.136364 175.312127 
L 84.812727 183.121451 
L 85.489091 183.708618 
L 86.165455 175.781861 
L 86.841818 211.745854 
L 87.518182 239.07849 
L 88.194545 221.698339 
L 88.870909 189.404141 
L 89.547273 257.574258 
L 90.9 232.942592 
L 91.576364 231.210449 
L 92.252727 243.746469 
L 92.929091 179.392939 
L 93.605455 196.273997 
L 94.281818 230.094831 
L 94.958182 157.961335 
L 96.310909 60.755797 
L 96.987273 62.223715 
L 97.663636 68.066029 
L 98.34 114.276091 
L 99.016364 258.572442 
L 99.692727 185.998571 
L 100.369091 145.043655 
L 101.045455 208.751301 
L 101.721818 256.194415 
L 102.398182 225.338776 
L 103.074545 176.016727 
L 103.750909 200.736468 
L 104.427273 87.677415 
L 105.103636 183.033376 
L 105.78 158.842085 
L 106.456364 211.833929 
L 107.132727 129.160781 
L 107.809091 101.945579 
L 108.485455 100.771245 
L 109.161818 148.5373 
L 109.838182 123.964351 
L 111.190909 98.774876 
L 111.867273 73.673476 
L 112.543636 77.343272 
L 113.22 64.954043 
L 113.896364 58.289694 
L 114.572727 78.253381 
L 115.249091 104.470398 
L 115.925455 71.412882 
L 116.601818 88.205866 
L 117.278182 65.247626 
L 117.954545 72.851442 
L 118.630909 67.302712 
L 119.307273 67.68437 
L 119.983636 59.845688 
L 120.66 143.194078 
L 121.336364 58.201619 
L 122.012727 100.536378 
L 122.689091 71.500958 
L 123.365455 102.239163 
L 124.041818 101.534562 
L 124.718182 98.951026 
L 125.394545 88.558166 
L 126.070909 115.949518 
L 126.747273 82.069968 
L 127.423636 62.898957 
L 128.1 93.637163 
L 128.776364 73.056951 
L 129.452727 69.093572 
L 130.129091 88.000357 
L 130.805455 154.262181 
L 131.481818 252.788845 
L 132.158182 235.027036 
L 132.834545 227.540653 
L 133.510909 231.35724 
L 134.187273 130.892925 
L 134.863636 216.560626 
L 136.216364 306.925665 
L 137.569091 306.720156 
L 138.921818 306.720156 
L 139.598182 258.954101 
L 140.274545 237.874797 
L 140.950909 183.297601 
L 142.303636 265.853316 
L 142.98 164.86055 
L 143.656364 128.221314 
L 144.332727 146.981307 
L 145.009091 147.274891 
L 145.685455 121.879907 
L 146.361818 231.269165 
L 147.038182 278.594845 
L 147.714545 295.35847 
L 148.390909 287.637221 
L 149.067273 281.941699 
L 149.743636 293.303385 
L 150.42 306.749515 
L 151.096364 306.749515 
L 151.772727 244.715295 
L 152.449091 250.440176 
L 153.125455 197.096032 
L 153.801818 81.600234 
L 154.478182 73.321176 
L 155.154545 57.056643 
L 155.830909 61.254889 
L 156.507273 208.78066 
L 157.183636 306.984382 
L 157.86 205.609957 
L 158.536364 72.499142 
L 159.212727 64.190725 
L 159.889091 61.548473 
L 160.565455 58.230978 
L 161.241818 59.25852 
L 161.918182 113.013682 
L 162.594545 68.066029 
L 163.270909 61.988848 
L 163.947273 160.221928 
L 164.623636 206.285199 
L 165.3 215.386291 
L 165.976364 229.39023 
L 166.652727 240.751916 
L 167.329091 249.324558 
L 168.005455 247.445623 
L 168.681818 239.166565 
L 169.358182 214.006448 
L 170.034545 249.324558 
L 170.710909 218.791861 
L 171.387273 239.929882 
L 172.063636 236.759179 
L 172.74 178.805772 
L 174.092727 238.872981 
L 174.769091 232.061841 
L 175.445455 155.583307 
L 176.121818 162.864181 
L 176.798182 156.757642 
L 177.474545 156.464058 
L 178.150909 91.141702 
L 178.827273 101.534562 
L 179.503636 182.211342 
L 180.18 196.685014 
L 180.856364 191.694093 
L 181.532727 201.646578 
L 182.209091 229.155363 
L 182.885455 207.811834 
L 183.561818 181.301233 
L 184.238182 235.966503 
L 184.914545 216.824851 
L 185.590909 194.483137 
L 186.267273 231.621466 
L 186.943636 252.495261 
L 187.62 180.185615 
L 188.296364 270.873596 
L 188.972727 235.526128 
L 189.649091 264.855132 
L 190.325455 279.974688 
L 191.678182 227.892954 
L 192.354545 177.279137 
L 193.030909 192.046393 
L 193.707273 270.873596 
L 194.383636 185.264612 
L 195.06 179.099355 
L 195.736364 267.556101 
L 196.412727 295.857562 
L 197.089091 288.694122 
L 197.765455 277.303077 
L 198.441818 282.82245 
L 199.794545 306.778873 
L 201.823636 306.808232 
L 202.5 294.947453 
L 203.176364 289.692306 
L 203.852727 248.884183 
L 204.529091 285.728927 
L 205.205455 288.077596 
L 205.881818 278.712279 
L 206.558182 298.441098 
L 207.234545 285.171119 
L 207.910909 274.602108 
L 208.587273 174.813035 
L 209.263636 158.489785 
L 209.94 226.483752 
L 210.616364 91.494002 
L 211.292727 225.191984 
L 211.969091 271.34333 
L 212.645455 272.341514 
L 213.321818 292.892368 
L 213.998182 279.798538 
L 214.674545 261.83122 
L 215.350909 271.108463 
L 216.027273 306.544006 
L 216.703636 306.749515 
L 217.38 290.073965 
L 218.056364 259.394476 
L 218.732727 291.659317 
L 219.409091 293.21531 
L 220.085455 240.164749 
L 220.761818 253.170504 
L 221.438182 215.239499 
L 222.114545 109.578753 
L 222.790909 73.996418 
L 223.467273 61.695265 
L 224.143636 218.82122 
L 224.82 286.991337 
L 225.496364 215.679875 
L 226.172727 163.803649 
L 226.849091 91.787586 
L 227.525455 109.549395 
L 228.201818 273.31034 
L 228.878182 306.925665 
L 229.554545 306.925665 
L 230.230909 273.603924 
L 230.907273 234.05821 
L 231.583636 233.647193 
L 232.26 206.931083 
L 232.936364 221.081814 
L 233.612727 146.188631 
L 234.289091 220.729513 
L 234.965455 240.135391 
L 235.641818 241.22165 
L 236.994545 247.651131 
L 237.670909 176.163519 
L 238.347273 204.171397 
L 239.023636 182.475567 
L 239.7 120.118406 
L 240.376364 115.802726 
L 241.052727 63.104466 
L 241.729091 74.935886 
L 242.405455 115.74401 
L 243.081818 306.749515 
L 246.463636 306.749515 
L 247.14 57.11536 
L 247.816364 59.141087 
L 248.492727 62.693449 
L 249.169091 57.320869 
L 249.845455 61.577831 
L 250.521818 57.056643 
L 251.874545 67.214637 
L 252.550909 67.097203 
L 253.227273 59.757613 
L 253.903636 88.382016 
L 254.58 87.912282 
L 255.256364 151.385061 
L 255.932727 116.62476 
L 256.609091 112.455873 
L 257.285455 65.805435 
L 257.961818 135.913204 
L 258.638182 230.359056 
L 259.314545 253.376012 
L 259.990909 271.313972 
L 260.667273 279.798538 
L 261.343636 255.254947 
L 262.02 244.920804 
L 262.696364 272.517664 
L 263.372727 266.000108 
L 264.049091 241.926251 
L 264.725455 265.501016 
L 265.401818 276.011309 
L 266.078182 266.616634 
L 266.754545 241.515234 
L 268.107273 297.237405 
L 268.783636 300.995276 
L 269.46 306.808232 
L 270.136364 292.481351 
L 270.812727 300.760409 
L 271.489091 306.808232 
L 272.165455 232.4435 
L 272.841818 242.601493 
L 273.518182 241.162933 
L 274.870909 112.837532 
L 275.547273 238.461964 
L 276.223636 197.448332 
L 276.9 273.192907 
L 277.576364 276.950777 
L 278.252727 277.420511 
L 278.929091 206.608141 
L 279.605455 250.675043 
L 280.281818 242.807002 
L 280.958182 258.631159 
L 281.634545 207.136591 
L 282.310909 269.024019 
L 282.987273 242.073043 
L 283.663636 166.974352 
L 284.34 248.443807 
L 285.016364 183.473751 
L 285.692727 216.472551 
L 286.369091 229.918681 
L 287.045455 205.404448 
L 287.721818 273.985582 
L 288.398182 213.830298 
L 289.750909 172.288215 
L 290.427273 176.222236 
L 291.103636 237.728005 
L 291.78 209.749486 
L 292.456364 249.060333 
L 293.132727 231.533391 
L 293.809091 291.894183 
L 295.161818 286.991337 
L 295.838182 291.130866 
L 296.514545 306.778873 
L 297.867273 306.720156 
L 301.249091 306.749515 
L 301.925455 306.83759 
L 303.278182 306.778873 
L 303.954545 306.83759 
L 304.630909 306.749515 
L 307.336364 306.778873 
L 308.012727 306.749515 
L 308.689091 298.264948 
L 309.365455 306.720156 
L 310.041818 293.626327 
L 310.718182 303.461378 
L 311.394545 306.720156 
L 316.129091 306.808232 
L 316.805455 302.580627 
L 317.481818 306.749515 
L 324.921818 306.778873 
L 325.598182 305.57518 
L 326.274545 306.749515 
L 326.950909 292.980443 
L 327.627273 288.987706 
L 328.303636 288.840914 
L 328.98 294.448361 
L 329.656364 284.554593 
L 330.332727 306.749515 
L 331.009091 306.778873 
L 331.685455 294.330928 
L 332.361818 298.23559 
L 333.038182 306.808232 
L 333.714545 306.720156 
L 335.067273 306.749515 
L 335.743636 306.925665 
L 336.42 306.749515 
L 337.772727 306.749515 
L 339.125455 258.513726 
L 339.801818 189.697724 
L 340.478182 211.863288 
L 341.154545 108.228269 
L 341.830909 217.705602 
L 342.507273 258.719234 
L 343.183636 291.688675 
L 343.86 283.380258 
L 344.536364 271.108463 
L 345.212727 292.217125 
L 345.889091 284.525235 
L 346.565455 281.501323 
L 347.241818 287.901446 
L 347.918182 286.727112 
L 348.594545 289.839098 
L 349.270909 271.87178 
L 349.947273 281.971057 
L 350.623636 257.750408 
L 351.3 272.752531 
L 351.976364 239.988599 
L 352.652727 149.271259 
L 353.329091 160.54487 
L 354.005455 146.74644 
L 354.681818 102.973122 
L 355.358182 85.358105 
L 356.034545 121.938624 
L 356.710909 84.53607 
L 357.387273 85.035163 
L 358.063636 136.70588 
L 358.74 81.189217 
L 359.416364 105.292433 
L 360.092727 150.122652 
L 360.769091 107.464951 
L 361.445455 152.001587 
L 362.121818 94.547272 
L 362.798182 153.38143 
L 363.474545 138.115082 
L 364.150909 130.012174 
L 364.827273 226.395677 
L 365.503636 155.847532 
L 366.18 174.402017 
L 366.856364 165.183492 
L 367.532727 225.280059 
L 368.209091 261.185337 
L 368.885455 248.708033 
L 369.561818 174.636884 
L 370.238182 125.96072 
L 370.914545 208.751301 
L 371.590909 196.303356 
L 372.267273 236.905971 
L 372.943636 123.729484 
L 373.62 81.394726 
L 374.296364 203.290646 
L 374.972727 165.741301 
L 375.649091 183.708618 
L 376.325455 149.62356 
L 377.001818 78.165306 
L 377.678182 63.280616 
L 378.354545 160.456795 
L 379.030909 168.823929 
L 379.707273 226.659902 
L 380.383636 219.966196 
L 381.06 144.720713 
L 381.736364 266.939576 
L 382.412727 204.758564 
L 383.089091 201.79337 
L 383.765455 217.823035 
L 384.441818 266.000108 
L 385.118182 225.074551 
L 385.794545 250.792476 
L 386.470909 218.439561 
L 387.147273 253.258579 
L 387.823636 220.96438 
L 388.5 275.717726 
L 389.176364 256.810941 
L 389.852727 154.614481 
L 390.529091 183.238885 
L 391.205455 181.8884 
L 391.881818 129.54244 
L 392.558182 149.095109 
L 393.234545 124.727668 
L 393.910909 81.247934 
L 394.587273 149.829068 
L 395.263636 186.057287 
L 395.94 174.137792 
L 396.616364 139.171983 
L 397.292727 164.537608 
L 397.969091 75.816637 
L 398.645455 90.671968 
L 399.321818 181.506741 
L 399.998182 104.646549 
L 400.674545 133.711327 
L 401.350909 141.19771 
L 402.027273 106.730992 
L 402.703636 64.954043 
L 403.38 57.908036 
L 404.056364 58.407128 
L 404.732727 74.14321 
L 405.409091 105.174999 
L 406.085455 158.489785 
L 406.761818 232.414141 
L 407.438182 138.966474 
L 408.114545 242.249193 
L 408.790909 239.460148 
L 409.467273 237.228913 
L 410.143636 306.955023 
L 410.82 268.613002 
L 411.496364 249.060333 
L 412.172727 290.16204 
L 412.849091 287.549146 
L 413.525455 249.9998 
L 414.201818 237.434421 
L 415.554545 128.749764 
L 416.230909 110.077846 
L 416.907273 79.398357 
L 417.583636 138.614174 
L 418.26 91.317852 
L 418.936364 80.24975 
L 419.612727 111.633839 
L 420.289091 151.913512 
L 420.965455 239.988599 
L 421.641818 277.537944 
L 422.318182 306.866948 
L 422.994545 258.807309 
L 423.670909 224.223158 
L 425.023636 262.447746 
L 425.7 264.444115 
L 426.376364 240.047316 
L 427.052727 191.018851 
L 427.729091 154.790631 
L 428.405455 160.750379 
L 429.081818 239.137206 
L 429.758182 150.063935 
L 430.434545 165.858734 
L 431.110909 123.230392 
L 431.787273 115.421068 
L 432.463636 179.715881 
L 433.14 171.877198 
L 433.816364 65.54121 
L 435.169091 57.673169 
L 435.845455 60.579647 
L 435.845455 60.579647 
" clip-path="url(#p85b82c56da)" style="fill: none; stroke: #1f77b4; stroke-width: 1.5; stroke-linecap: square"/>
   </g>
   <g id="line2d_24">
    <path d="M 80.754545 142.139012 
L 81.430909 218.045816 
L 82.107273 174.087555 
L 82.783636 226.895067 
L 83.46 223.398628 
L 84.136364 177.866655 
L 84.812727 191.991712 
L 85.489091 179.23033 
L 86.165455 177.339678 
L 86.841818 212.89323 
L 87.518182 235.540521 
L 88.194545 222.540491 
L 88.870909 192.781775 
L 89.547273 253.780389 
L 90.9 234.635987 
L 91.576364 230.115267 
L 92.252727 246.855505 
L 92.929091 186.823026 
L 93.605455 199.497285 
L 94.281818 234.89785 
L 94.958182 167.576114 
L 95.634545 120.544345 
L 96.310909 62.751305 
L 96.987273 60.022397 
L 97.663636 71.864672 
L 98.34 113.115698 
L 99.016364 257.858812 
L 99.692727 187.569125 
L 100.369091 157.206272 
L 101.721818 254.812443 
L 102.398182 222.755742 
L 103.074545 175.794923 
L 103.750909 201.068506 
L 104.427273 90.317704 
L 105.103636 183.168811 
L 105.78 163.018911 
L 106.456364 215.137969 
L 107.132727 130.490154 
L 107.809091 95.200073 
L 108.485455 105.069493 
L 109.161818 157.615164 
L 109.838182 123.693829 
L 110.514545 115.764796 
L 111.867273 75.181716 
L 112.543636 78.739249 
L 113.22 63.131348 
L 113.896364 59.166267 
L 114.572727 72.76465 
L 115.249091 102.331392 
L 115.925455 68.102577 
L 116.601818 81.793744 
L 117.278182 62.188759 
L 117.954545 73.392099 
L 118.630909 68.564186 
L 119.307273 67.603391 
L 119.983636 61.669092 
L 120.66 144.589783 
L 121.336364 62.620874 
L 122.012727 91.610178 
L 122.689091 72.188234 
L 123.365455 98.744185 
L 124.041818 103.163564 
L 124.718182 99.484541 
L 125.394545 87.915475 
L 126.070909 109.649677 
L 126.747273 79.798096 
L 127.423636 63.991474 
L 128.1 101.017092 
L 128.776364 71.271233 
L 129.452727 70.197585 
L 130.129091 83.822148 
L 130.805455 159.879032 
L 131.481818 254.828593 
L 132.158182 234.402392 
L 132.834545 230.319552 
L 133.510909 235.814085 
L 134.187273 138.595187 
L 134.863636 221.148504 
L 136.216364 307.173649 
L 136.892727 307.020603 
L 137.569091 307.619359 
L 138.245455 307.538581 
L 138.921818 307.304519 
L 139.598182 259.223759 
L 140.274545 244.66261 
L 140.950909 184.824322 
L 141.627273 230.412892 
L 142.303636 266.587634 
L 142.98 175.981191 
L 143.656364 124.945555 
L 144.332727 150.43705 
L 145.009091 147.11843 
L 145.685455 125.628338 
L 146.361818 230.85479 
L 147.038182 280.690422 
L 147.714545 295.694173 
L 148.390909 287.045175 
L 149.067273 283.232754 
L 149.743636 292.670951 
L 150.42 307.584865 
L 151.096364 307.484013 
L 151.772727 249.714792 
L 152.449091 253.389622 
L 153.125455 203.106981 
L 153.801818 85.91024 
L 154.478182 73.519664 
L 155.154545 56.998973 
L 155.830909 59.820039 
L 156.507273 211.955264 
L 157.183636 303.363794 
L 158.536364 75.59041 
L 159.889091 59.390755 
L 160.565455 60.221942 
L 161.241818 58.523336 
L 161.918182 110.026046 
L 162.594545 68.260299 
L 163.270909 61.535309 
L 163.947273 161.711815 
L 164.623636 204.288778 
L 165.3 220.453841 
L 166.652727 241.888626 
L 167.329091 246.514862 
L 168.681818 237.047126 
L 169.358182 214.467201 
L 170.034545 250.297574 
L 170.710909 223.466442 
L 171.387273 240.642267 
L 172.063636 237.562071 
L 172.74 185.251975 
L 174.092727 238.243541 
L 174.769091 233.624469 
L 175.445455 152.628839 
L 176.798182 160.21012 
L 177.474545 155.595603 
L 178.150909 90.128032 
L 178.827273 106.602994 
L 179.503636 188.638723 
L 180.18 203.626638 
L 180.856364 194.234856 
L 181.532727 205.426513 
L 182.209091 233.023625 
L 182.885455 207.092167 
L 183.561818 186.583656 
L 184.238182 237.449375 
L 184.914545 220.077293 
L 185.590909 192.14052 
L 186.267273 234.966524 
L 186.943636 253.508528 
L 187.62 186.552163 
L 188.296364 271.50893 
L 188.972727 236.495878 
L 189.649091 267.161582 
L 190.325455 281.456214 
L 191.678182 233.205981 
L 192.354545 170.534537 
L 193.030909 194.240286 
L 193.707273 267.70087 
L 194.383636 183.716198 
L 195.06 174.491617 
L 195.736364 267.924453 
L 196.412727 296.178024 
L 197.089091 289.123188 
L 197.765455 277.512757 
L 198.441818 283.918632 
L 199.794545 306.376355 
L 200.470909 307.318192 
L 201.147273 306.945877 
L 201.823636 307.399969 
L 202.5 293.533174 
L 203.176364 289.442597 
L 203.852727 252.166459 
L 204.529091 284.560184 
L 205.205455 287.741048 
L 205.881818 279.253322 
L 206.558182 298.445633 
L 207.910909 271.798045 
L 208.587273 175.693753 
L 209.263636 153.499215 
L 209.94 218.864836 
L 210.616364 93.819456 
L 211.292727 227.470192 
L 211.969091 269.946823 
L 212.645455 274.13118 
L 213.321818 293.183737 
L 213.998182 279.631094 
L 214.674545 260.821469 
L 215.350909 269.969197 
L 216.027273 306.42169 
L 216.703636 305.660987 
L 217.38 288.743163 
L 218.056364 258.319293 
L 218.732727 289.90685 
L 219.409091 291.795482 
L 220.085455 238.832608 
L 220.761818 255.509059 
L 221.438182 211.20576 
L 222.114545 115.745855 
L 222.790909 74.703137 
L 223.467273 63.858964 
L 224.143636 214.58319 
L 224.82 284.685419 
L 225.496364 208.778974 
L 226.172727 155.041245 
L 226.849091 87.784972 
L 227.525455 105.42108 
L 228.201818 273.407621 
L 228.878182 306.639736 
L 229.554545 307.228324 
L 230.230909 272.921378 
L 230.907273 231.578455 
L 231.583636 234.448439 
L 232.26 212.604574 
L 232.936364 220.291299 
L 233.612727 150.662506 
L 234.289091 228.665107 
L 234.965455 239.658979 
L 235.641818 242.619508 
L 236.318182 244.266898 
L 236.994545 247.92501 
L 237.670909 179.48434 
L 238.347273 205.346559 
L 239.023636 192.062294 
L 239.7 117.872383 
L 240.376364 111.967597 
L 241.052727 64.603925 
L 241.729091 71.395304 
L 242.405455 57.071276 
L 243.081818 65.972178 
L 243.758182 304.305927 
L 244.434545 305.762878 
L 245.110909 305.938923 
L 245.787273 296.71785 
L 246.463636 297.842692 
L 247.14 294.053624 
L 247.816364 55.885724 
L 248.492727 63.003944 
L 249.169091 58.679087 
L 249.845455 59.373212 
L 250.521818 55.8 
L 251.198182 57.240556 
L 251.874545 63.075369 
L 252.550909 62.242462 
L 253.227273 60.202231 
L 253.903636 84.735297 
L 254.58 79.473513 
L 255.256364 143.143762 
L 255.932727 114.71007 
L 256.609091 104.46084 
L 257.285455 65.738426 
L 257.961818 132.577045 
L 258.638182 226.96375 
L 259.314545 250.811699 
L 259.990909 267.236349 
L 260.667273 277.770782 
L 261.343636 252.642874 
L 262.02 243.450525 
L 262.696364 273.648823 
L 263.372727 265.329632 
L 264.049091 241.002908 
L 264.725455 265.226388 
L 265.401818 275.717433 
L 266.078182 266.598731 
L 266.754545 243.667886 
L 267.430909 266.008562 
L 268.107273 296.956561 
L 268.783636 300.261711 
L 269.46 307.485335 
L 270.136364 293.407217 
L 270.812727 301.32213 
L 271.489091 305.587864 
L 272.165455 237.303327 
L 272.841818 243.299921 
L 273.518182 250.451672 
L 274.194545 174.320626 
L 274.870909 119.92048 
L 275.547273 233.80523 
L 276.223636 195.560014 
L 276.9 269.373382 
L 277.576364 276.020178 
L 278.252727 276.605575 
L 278.929091 210.223839 
L 279.605455 247.828359 
L 280.281818 241.111062 
L 280.958182 257.52096 
L 281.634545 208.937018 
L 282.310909 266.858161 
L 282.987273 236.166295 
L 283.663636 168.273115 
L 284.34 243.686105 
L 285.016364 184.095022 
L 285.692727 218.8747 
L 286.369091 229.685339 
L 287.045455 206.285905 
L 287.721818 273.925664 
L 288.398182 213.058397 
L 289.750909 165.891726 
L 290.427273 175.020002 
L 291.103636 236.815349 
L 291.78 207.510144 
L 292.456364 245.319988 
L 293.132727 231.154171 
L 293.809091 292.49944 
L 294.485455 291.430191 
L 295.161818 289.424674 
L 295.838182 291.277656 
L 296.514545 307.689257 
L 299.22 307.29332 
L 299.896364 306.985912 
L 300.572727 306.826326 
L 301.249091 307.27593 
L 302.601818 307.371133 
L 303.954545 307.247501 
L 304.630909 307.482315 
L 305.307273 307.5199 
L 306.66 307.187818 
L 307.336364 306.403372 
L 308.012727 307.77262 
L 308.689091 300.468137 
L 309.365455 307.481769 
L 310.041818 293.793921 
L 310.718182 304.069916 
L 311.394545 307.633574 
L 312.747273 307.369592 
L 313.423636 307.107962 
L 314.1 307.13149 
L 315.452727 307.03578 
L 316.129091 307.275585 
L 316.805455 303.332132 
L 317.481818 307.486213 
L 319.510909 307.442414 
L 320.187273 307.359866 
L 321.54 307.468012 
L 322.216364 306.394489 
L 322.892727 307.298279 
L 323.569091 307.316256 
L 324.245455 307.638277 
L 324.921818 306.47103 
L 325.598182 306.736127 
L 326.274545 306.810186 
L 326.950909 293.430355 
L 327.627273 288.709449 
L 328.303636 286.475336 
L 328.98 292.830268 
L 329.656364 283.69866 
L 330.332727 307.326067 
L 331.009091 307.149812 
L 331.685455 294.035714 
L 332.361818 298.153989 
L 333.038182 307.281709 
L 333.714545 307.588337 
L 334.390909 307.305926 
L 336.42 307.332159 
L 337.096364 307.720624 
L 337.772727 307.209679 
L 338.449091 278.914406 
L 339.125455 258.144691 
L 339.801818 183.218625 
L 340.478182 220.916544 
L 341.154545 105.093755 
L 341.830909 212.195619 
L 342.507273 256.859223 
L 343.183636 291.889189 
L 343.86 283.086437 
L 344.536364 267.867959 
L 345.212727 290.785862 
L 345.889091 283.873871 
L 346.565455 281.640253 
L 347.241818 287.011622 
L 347.918182 286.022623 
L 348.594545 289.190926 
L 349.270909 270.746981 
L 349.947273 280.096484 
L 350.623636 257.752956 
L 351.3 271.784962 
L 351.976364 241.463522 
L 352.652727 148.430704 
L 353.329091 159.814694 
L 354.005455 147.848751 
L 354.681818 104.297545 
L 355.358182 81.319681 
L 356.034545 121.574468 
L 356.710909 86.212712 
L 357.387273 83.599936 
L 358.063636 138.525016 
L 358.74 81.39279 
L 359.416364 99.783769 
L 360.092727 147.786662 
L 360.769091 104.194619 
L 361.445455 151.236109 
L 362.121818 96.36353 
L 362.798182 154.049594 
L 363.474545 137.988649 
L 364.150909 132.551116 
L 364.827273 225.425124 
L 365.503636 150.077507 
L 366.18 169.681955 
L 366.856364 158.602156 
L 367.532727 223.451686 
L 368.209091 259.920545 
L 368.885455 247.542893 
L 369.561818 164.413424 
L 370.238182 122.220661 
L 370.914545 202.989235 
L 371.590909 201.673691 
L 372.267273 235.882383 
L 372.943636 120.676408 
L 373.62 78.246048 
L 374.296364 205.644228 
L 374.972727 164.578207 
L 375.649091 185.158761 
L 376.325455 150.754663 
L 377.001818 79.239026 
L 377.678182 64.954831 
L 378.354545 154.650111 
L 379.030909 174.09517 
L 379.707273 227.729291 
L 380.383636 219.421747 
L 381.06 142.028524 
L 381.736364 265.124778 
L 382.412727 211.870893 
L 383.089091 206.483228 
L 383.765455 216.992067 
L 384.441818 263.48909 
L 385.118182 223.815601 
L 385.794545 247.808201 
L 386.470909 217.880371 
L 387.147273 255.786126 
L 387.823636 224.859253 
L 388.5 277.033652 
L 389.176364 254.338264 
L 389.852727 160.838769 
L 390.529091 186.398338 
L 391.205455 178.195987 
L 391.881818 131.814344 
L 392.558182 148.0524 
L 393.234545 123.352205 
L 393.910909 81.000438 
L 394.587273 143.253928 
L 395.263636 183.41602 
L 395.94 166.759343 
L 396.616364 135.240585 
L 397.292727 162.812879 
L 397.969091 74.490296 
L 398.645455 88.052125 
L 399.321818 174.646374 
L 399.998182 100.170638 
L 400.674545 129.376941 
L 401.350909 138.566768 
L 402.027273 107.487902 
L 402.703636 65.01133 
L 403.38 58.550626 
L 404.056364 59.401327 
L 404.732727 70.650432 
L 405.409091 97.725153 
L 406.085455 158.240642 
L 406.761818 230.19765 
L 407.438182 149.331417 
L 408.114545 239.68601 
L 408.790909 240.76735 
L 409.467273 239.59491 
L 410.143636 306.825296 
L 410.82 269.127221 
L 411.496364 245.251108 
L 412.172727 289.995996 
L 412.849091 287.158006 
L 413.525455 245.249643 
L 414.201818 241.29814 
L 414.878182 180.639017 
L 415.554545 130.265683 
L 416.230909 107.125474 
L 416.907273 71.216706 
L 417.583636 133.504564 
L 418.26 87.347159 
L 418.936364 74.59471 
L 419.612727 105.20711 
L 420.289091 147.717011 
L 420.965455 237.754901 
L 421.641818 277.862202 
L 422.318182 307.8 
L 422.994545 254.02229 
L 423.670909 226.201452 
L 424.347273 240.151472 
L 425.023636 261.852371 
L 425.7 264.876731 
L 426.376364 238.217196 
L 427.052727 204.543541 
L 427.729091 162.707346 
L 428.405455 166.508128 
L 429.081818 239.411909 
L 429.758182 149.35765 
L 430.434545 181.783176 
L 431.110909 126.689622 
L 431.787273 117.727133 
L 432.463636 181.969014 
L 433.14 172.229156 
L 433.816364 68.309881 
L 434.492727 62.94302 
L 435.169091 56.427216 
L 435.845455 61.119573 
L 435.845455 61.119573 
" clip-path="url(#p85b82c56da)" style="fill: none; stroke-dasharray: 5.55,2.4; stroke-dashoffset: 0; stroke: #ff7f0e; stroke-width: 1.5"/>
   </g>
   <g id="patch_3">
    <path d="M 63 320.4 
L 63 43.2 
" style="fill: none; stroke: #000000; stroke-width: 0.8; stroke-linejoin: miter; stroke-linecap: square"/>
   </g>
   <g id="patch_4">
    <path d="M 453.6 320.4 
L 453.6 43.2 
" style="fill: none; stroke: #000000; stroke-width: 0.8; stroke-linejoin: miter; stroke-linecap: square"/>
   </g>
   <g id="patch_5">
    <path d="M 63 320.4 
L 453.6 320.4 
" style="fill: none; stroke: #000000; stroke-width: 0.8; stroke-linejoin: miter; stroke-linecap: square"/>
   </g>
   <g id="patch_6">
    <path d="M 63 43.2 
L 453.6 43.2 
" style="fill: none; stroke: #000000; stroke-width: 0.8; stroke-linejoin: miter; stroke-linecap: square"/>
   </g>
   <g id="text_12">
    <!-- TransformerWithLinear 验证集预测 -->
    <g transform="translate(162.3 37.2)scale(0.12 -0.12)">
     <defs>
      <path id="SimHei-54" d="M 2850 3925 
L 1850 3925 
L 1850 125 
L 1275 125 
L 1275 3925 
L 275 3925 
L 275 4400 
L 2850 4400 
L 2850 3925 
z
" transform="scale(0.015625)"/>
      <path id="SimHei-72" d="M 2500 2425 
Q 2025 2500 1700 2287 
Q 1375 2075 1150 1550 
L 1150 125 
L 650 125 
L 650 2925 
L 1150 2925 
L 1150 2200 
Q 1375 2600 1712 2787 
Q 2050 2975 2500 2975 
L 2500 2425 
z
" transform="scale(0.015625)"/>
      <path id="SimHei-61" d="M 2875 125 
L 2275 125 
Q 2225 175 2200 262 
Q 2175 350 2175 475 
Q 2000 275 1750 175 
Q 1500 75 1225 75 
Q 825 75 550 275 
Q 275 475 275 850 
Q 275 1225 525 1450 
Q 775 1675 1300 1750 
Q 1650 1800 1912 1875 
Q 2175 1950 2175 2075 
Q 2175 2225 2062 2375 
Q 1950 2525 1575 2525 
Q 1275 2525 1137 2412 
Q 1000 2300 950 2100 
L 400 2100 
Q 450 2500 762 2737 
Q 1075 2975 1575 2975 
Q 2125 2975 2400 2725 
Q 2675 2475 2675 2025 
L 2675 650 
Q 2675 500 2725 375 
Q 2775 250 2875 125 
z
M 2175 1050 
L 2175 1550 
Q 2025 1500 1887 1462 
Q 1750 1425 1425 1375 
Q 1050 1325 937 1200 
Q 825 1075 825 900 
Q 825 750 937 637 
Q 1050 525 1275 525 
Q 1500 525 1762 650 
Q 2025 775 2175 1050 
z
" transform="scale(0.015625)"/>
      <path id="SimHei-6e" d="M 2800 125 
L 2300 125 
L 2300 1925 
Q 2300 2225 2150 2400 
Q 2000 2575 1750 2575 
Q 1425 2575 1137 2237 
Q 850 1900 850 1400 
L 850 125 
L 350 125 
L 350 2925 
L 850 2925 
L 850 2400 
Q 1050 2675 1287 2825 
Q 1525 2975 1900 2975 
Q 2350 2975 2575 2725 
Q 2800 2475 2800 2100 
L 2800 125 
z
" transform="scale(0.015625)"/>
      <path id="SimHei-73" d="M 2750 900 
Q 2750 500 2437 287 
Q 2125 75 1650 75 
Q 1050 75 725 312 
Q 400 550 400 1000 
L 900 1000 
Q 900 700 1112 600 
Q 1325 500 1625 500 
Q 1925 500 2075 612 
Q 2225 725 2225 900 
Q 2225 1025 2100 1150 
Q 1975 1275 1475 1350 
Q 900 1425 687 1637 
Q 475 1850 475 2200 
Q 475 2500 762 2737 
Q 1050 2975 1600 2975 
Q 2100 2975 2387 2750 
Q 2675 2525 2675 2150 
L 2175 2150 
Q 2175 2375 2012 2462 
Q 1850 2550 1600 2550 
Q 1275 2550 1137 2437 
Q 1000 2325 1000 2175 
Q 1000 2000 1125 1900 
Q 1250 1800 1650 1750 
Q 2300 1650 2525 1437 
Q 2750 1225 2750 900 
z
" transform="scale(0.015625)"/>
      <path id="SimHei-66" d="M 2850 3825 
Q 2725 3900 2550 3950 
Q 2375 4000 2100 4000 
Q 1825 4000 1725 3862 
Q 1625 3725 1625 3525 
L 1625 2925 
L 2650 2925 
L 2650 2525 
L 1625 2525 
L 1625 125 
L 1125 125 
L 1125 2525 
L 275 2525 
L 275 2925 
L 1125 2925 
L 1125 3500 
Q 1125 3950 1400 4200 
Q 1675 4450 2125 4450 
Q 2400 4450 2562 4412 
Q 2725 4375 2850 4325 
L 2850 3825 
z
" transform="scale(0.015625)"/>
      <path id="SimHei-6f" d="M 2925 1525 
Q 2925 875 2525 475 
Q 2125 75 1575 75 
Q 1025 75 625 475 
Q 225 875 225 1525 
Q 225 2175 625 2575 
Q 1025 2975 1575 2975 
Q 2125 2975 2525 2575 
Q 2925 2175 2925 1525 
z
M 2375 1525 
Q 2375 2025 2125 2275 
Q 1875 2525 1575 2525 
Q 1275 2525 1025 2275 
Q 775 2025 775 1525 
Q 775 1025 1025 775 
Q 1275 525 1575 525 
Q 1875 525 2125 775 
Q 2375 1025 2375 1525 
z
" transform="scale(0.015625)"/>
      <path id="SimHei-6d" d="M 3050 125 
L 2550 125 
L 2550 2150 
Q 2550 2300 2500 2400 
Q 2450 2500 2300 2500 
Q 2125 2500 1975 2312 
Q 1825 2125 1825 1825 
L 1825 125 
L 1325 125 
L 1325 2150 
Q 1325 2300 1275 2400 
Q 1225 2500 1075 2500 
Q 900 2500 750 2312 
Q 600 2125 600 1825 
L 600 125 
L 100 125 
L 100 2925 
L 600 2925 
L 600 2550 
Q 725 2750 900 2862 
Q 1075 2975 1275 2975 
Q 1475 2975 1612 2862 
Q 1750 2750 1800 2550 
Q 1925 2750 2087 2862 
Q 2250 2975 2450 2975 
Q 2750 2975 2900 2812 
Q 3050 2650 3050 2350 
L 3050 125 
z
" transform="scale(0.015625)"/>
      <path id="SimHei-65" d="M 2850 1075 
Q 2800 625 2450 350 
Q 2100 75 1625 75 
Q 1025 75 637 462 
Q 250 850 250 1525 
Q 250 2200 637 2587 
Q 1025 2975 1625 2975 
Q 2150 2975 2487 2637 
Q 2825 2300 2825 1525 
L 800 1525 
Q 800 975 1037 750 
Q 1275 525 1625 525 
Q 1900 525 2075 662 
Q 2250 800 2300 1075 
L 2850 1075 
z
M 2250 1925 
Q 2200 2275 2025 2412 
Q 1850 2550 1575 2550 
Q 1325 2550 1125 2412 
Q 925 2275 825 1925 
L 2250 1925 
z
" transform="scale(0.015625)"/>
      <path id="SimHei-57" d="M 3075 4400 
L 2525 75 
L 2025 75 
L 1575 3275 
L 1525 3275 
L 1075 75 
L 575 75 
L 25 4400 
L 575 4400 
L 850 1675 
L 900 1675 
L 1275 4400 
L 1825 4400 
L 2200 1675 
L 2250 1675 
L 2525 4400 
L 3075 4400 
z
" transform="scale(0.015625)"/>
      <path id="SimHei-69" d="M 1800 3725 
L 1300 3725 
L 1300 4375 
L 1800 4375 
L 1800 3725 
z
M 1800 125 
L 1300 125 
L 1300 2925 
L 1800 2925 
L 1800 125 
z
" transform="scale(0.015625)"/>
      <path id="SimHei-74" d="M 2750 200 
Q 2625 150 2462 112 
Q 2300 75 2025 75 
Q 1575 75 1300 325 
Q 1025 575 1025 1025 
L 1025 2525 
L 175 2525 
L 175 2925 
L 1025 2925 
L 1025 3900 
L 1525 3900 
L 1525 2925 
L 2550 2925 
L 2550 2525 
L 1525 2525 
L 1525 1000 
Q 1525 800 1625 662 
Q 1725 525 2000 525 
Q 2275 525 2450 575 
Q 2625 625 2750 700 
L 2750 200 
z
" transform="scale(0.015625)"/>
      <path id="SimHei-68" d="M 2800 125 
L 2300 125 
L 2300 1925 
Q 2300 2225 2150 2400 
Q 2000 2575 1750 2575 
Q 1425 2575 1137 2237 
Q 850 1900 850 1400 
L 850 125 
L 350 125 
L 350 4400 
L 850 4400 
L 850 2400 
Q 1050 2675 1287 2825 
Q 1525 2975 1900 2975 
Q 2350 2975 2575 2725 
Q 2800 2475 2800 2100 
L 2800 125 
z
" transform="scale(0.015625)"/>
      <path id="SimHei-4c" d="M 2900 125 
L 300 125 
L 300 4400 
L 875 4400 
L 875 600 
L 2900 600 
L 2900 125 
z
" transform="scale(0.015625)"/>
      <path id="SimHei-20" transform="scale(0.015625)"/>
      <path id="SimHei-9a8c" d="M 2300 4725 
Q 2250 4500 2225 4075 
L 2050 2125 
L 2525 2125 
Q 2500 1925 2475 1450 
L 2375 75 
Q 2375 -450 2075 -525 
Q 1775 -600 1250 -675 
Q 1175 -325 1050 -100 
Q 1575 -100 1737 -87 
Q 1900 -75 1950 150 
L 2025 1700 
L 550 1700 
Q 575 2175 587 2737 
Q 600 3300 600 3800 
L 1100 3800 
Q 1050 3525 1025 3087 
Q 1000 2650 1000 2125 
L 1625 2125 
L 1800 4325 
L 1125 4325 
Q 725 4325 350 4300 
L 350 4750 
Q 725 4725 1125 4725 
L 2300 4725 
z
M 4325 4875 
Q 4725 4125 5150 3775 
Q 5575 3425 6150 3225 
Q 5925 3025 5800 2725 
Q 5450 2925 5125 3200 
L 5125 2775 
Q 4800 2800 4200 2800 
Q 3600 2800 3225 2775 
L 3225 3175 
Q 3075 2975 2800 2650 
Q 2575 2875 2325 3000 
Q 2725 3275 2937 3550 
Q 3150 3825 3312 4125 
Q 3475 4425 3587 4675 
Q 3700 4925 3775 5225 
Q 4100 5150 4450 5075 
L 4325 4875 
z
M 5600 2150 
Q 5475 2000 5400 1737 
Q 5325 1475 5162 912 
Q 5000 350 4900 25 
L 5250 25 
Q 5425 25 5800 50 
L 5800 -400 
Q 5475 -375 5250 -375 
L 3325 -375 
Q 2875 -375 2675 -400 
L 2675 50 
Q 2975 25 3350 25 
L 4475 25 
Q 4675 575 4800 1150 
L 5050 2300 
Q 5250 2225 5600 2150 
z
M 5100 3225 
Q 4800 3450 4550 3775 
Q 4300 4100 4050 4600 
Q 3850 4200 3687 3912 
Q 3525 3625 3250 3225 
L 5100 3225 
z
M 3250 2175 
Q 3350 1825 3462 1375 
Q 3575 925 3675 550 
Q 3450 525 3250 425 
Q 3175 900 3087 1225 
Q 3000 1550 2850 2050 
Q 3050 2125 3250 2175 
z
M 1775 1125 
Q 1750 950 1725 700 
Q 1350 625 1112 575 
Q 875 525 375 375 
Q 300 650 200 925 
Q 550 950 925 1000 
Q 1300 1050 1775 1125 
z
M 4300 1650 
Q 4350 1325 4425 825 
L 4025 725 
Q 3925 1275 3875 1562 
Q 3825 1850 3750 2225 
Q 3975 2275 4200 2300 
L 4300 1650 
z
" transform="scale(0.015625)"/>
      <path id="SimHei-8bc1" d="M 5125 4675 
Q 5625 4675 6050 4700 
L 6050 4225 
Q 5625 4250 5125 4250 
L 4500 4250 
L 4500 2625 
L 5075 2625 
Q 5500 2625 5900 2650 
L 5900 2175 
Q 5525 2200 5075 2200 
L 4500 2200 
L 4500 125 
L 5200 125 
Q 5625 125 6175 150 
L 6175 -325 
Q 5625 -300 5200 -300 
L 3000 -300 
Q 2400 -300 2000 -325 
L 2000 150 
Q 2400 125 2775 125 
L 2775 2075 
Q 2775 2600 2750 2950 
L 3275 2950 
Q 3250 2625 3250 2075 
L 3250 125 
L 4000 125 
L 4000 4250 
L 3550 4250 
Q 2975 4250 2450 4225 
L 2450 4700 
Q 2975 4675 3550 4675 
L 5125 4675 
z
M 850 -125 
Q 1150 175 1150 500 
L 1150 2750 
L 925 2750 
Q 575 2750 225 2725 
L 225 3200 
Q 550 3175 925 3175 
L 1650 3175 
Q 1625 2700 1625 2175 
L 1625 800 
Q 1850 1075 2025 1325 
Q 2150 1050 2325 825 
Q 2050 500 1812 212 
Q 1575 -75 1225 -525 
Q 1050 -300 850 -125 
z
M 1525 3900 
Q 1100 4500 800 4825 
Q 1000 4975 1175 5175 
L 1925 4275 
Q 1675 4100 1525 3900 
z
" transform="scale(0.015625)"/>
      <path id="SimHei-96c6" d="M 2275 4925 
Q 2125 4800 2025 4662 
Q 1925 4525 1850 4350 
L 4925 4350 
Q 5300 4350 5750 4375 
L 5750 3975 
L 3650 3975 
L 3650 3575 
L 4625 3575 
Q 4925 3575 5325 3600 
L 5325 3175 
Q 4925 3200 4625 3200 
L 3650 3200 
L 3650 2800 
L 4675 2800 
Q 5000 2800 5425 2825 
L 5425 2400 
Q 5000 2425 4675 2425 
L 3650 2425 
L 3650 2075 
L 4875 2075 
Q 5275 2075 5675 2100 
L 5675 1675 
Q 5300 1700 4900 1700 
L 1650 1700 
L 1650 1500 
L 1150 1500 
Q 1200 1950 1200 2325 
L 1200 3475 
Q 1050 3250 937 3125 
Q 825 3000 675 2825 
Q 500 3000 300 3125 
Q 475 3325 875 3825 
Q 1275 4325 1462 4650 
Q 1650 4975 1725 5225 
Q 1950 5100 2275 4925 
z
M 2975 1200 
Q 2975 1300 2950 1625 
L 3475 1625 
Q 3450 1275 3450 1200 
L 5050 1200 
Q 5500 1200 5925 1225 
L 5925 825 
L 4150 825 
Q 4500 525 4925 362 
Q 5350 200 6100 25 
Q 5875 -225 5775 -475 
Q 5275 -300 4962 -162 
Q 4650 -25 4387 137 
Q 4125 300 3950 462 
Q 3775 625 3575 825 
L 3450 825 
L 3450 250 
Q 3450 -275 3500 -650 
L 2950 -650 
Q 2975 -300 2975 250 
L 2975 825 
L 2875 825 
Q 2700 575 2475 375 
Q 2250 175 1987 12 
Q 1725 -150 1425 -300 
Q 1125 -450 700 -575 
Q 600 -325 400 -75 
Q 925 50 1475 262 
Q 2025 475 2300 825 
L 500 825 
L 500 1225 
Q 800 1200 1400 1200 
L 2975 1200 
z
M 3150 2800 
L 3150 3200 
L 1650 3200 
L 1650 2800 
L 3150 2800 
z
M 3150 3575 
L 3150 3975 
L 1650 3975 
L 1650 3575 
L 3150 3575 
z
M 3150 2075 
L 3150 2425 
L 1650 2425 
L 1650 2075 
L 3150 2075 
z
M 3450 5250 
Q 3575 5150 3712 5000 
Q 3850 4850 4000 4650 
Q 3850 4525 3575 4375 
Q 3425 4575 3325 4700 
Q 3225 4825 3075 4950 
Q 3275 5075 3450 5250 
z
" transform="scale(0.015625)"/>
      <path id="SimHei-9884" d="M 5200 4800 
Q 5575 4800 5950 4825 
L 5950 4400 
Q 5575 4425 5200 4425 
L 4500 4425 
Q 4425 4050 4350 3600 
L 5725 3600 
Q 5700 3225 5700 2800 
L 5700 1725 
Q 5700 1300 5725 850 
L 5250 850 
L 5250 3225 
L 3550 3225 
L 3550 800 
L 3075 800 
Q 3100 1375 3100 1725 
L 3100 2775 
Q 3100 3175 3075 3600 
L 3900 3600 
Q 4000 4150 4000 4425 
L 3725 4425 
Q 3300 4425 2850 4400 
L 2850 4825 
Q 3325 4800 3725 4800 
L 5200 4800 
z
M 2600 1775 
Q 2350 1825 2150 1825 
Q 2250 2250 2300 2450 
L 1750 2450 
L 1750 125 
Q 1725 -300 1425 -400 
Q 1125 -500 750 -500 
Q 700 -225 575 25 
Q 1125 -25 1212 37 
Q 1300 100 1300 350 
L 1300 2450 
L 1025 2450 
Q 700 2450 350 2425 
L 350 2850 
Q 700 2825 1000 2825 
L 2850 2825 
Q 2725 2325 2600 1775 
z
M 4725 2875 
Q 4625 2575 4600 2100 
Q 4575 1625 4462 1037 
Q 4350 450 3962 62 
Q 3575 -325 2925 -675 
Q 2700 -500 2475 -350 
Q 3075 -125 3437 200 
Q 3800 525 3950 937 
Q 4100 1350 4137 1850 
Q 4175 2350 4175 2925 
L 4725 2875 
z
M 1625 2900 
Q 1275 3275 800 3650 
Q 925 3775 1075 3950 
Q 1250 3825 1425 3675 
Q 1750 4150 1950 4375 
L 1400 4375 
Q 900 4375 450 4350 
L 450 4775 
Q 900 4750 1375 4750 
L 2575 4750 
L 2575 4375 
Q 2200 4100 1725 3400 
L 1950 3200 
Q 1750 3025 1625 2900 
z
M 4775 725 
Q 5725 0 6075 -325 
Q 5850 -500 5725 -650 
Q 5400 -325 5137 -87 
Q 4875 150 4525 350 
Q 4650 525 4775 725 
z
" transform="scale(0.015625)"/>
      <path id="SimHei-6d4b" d="M 4025 4725 
Q 4000 4475 4000 4000 
L 4000 2225 
Q 4000 1775 4025 1350 
L 3550 1350 
L 3550 4325 
L 2350 4325 
L 2350 1325 
L 1900 1325 
Q 1925 1775 1925 2225 
L 1925 4000 
Q 1925 4200 1900 4725 
L 4025 4725 
z
M 5900 5075 
Q 5875 4800 5875 4375 
L 5875 0 
Q 5875 -325 5650 -425 
Q 5425 -525 4975 -600 
Q 4925 -325 4775 -50 
Q 5125 -50 5262 -25 
Q 5400 0 5400 250 
L 5400 4375 
Q 5400 4775 5375 5075 
L 5900 5075 
z
M 3275 3725 
Q 3225 3400 3200 2325 
Q 3175 1250 2837 550 
Q 2500 -150 2075 -600 
Q 1850 -400 1600 -325 
Q 2200 250 2475 962 
Q 2750 1675 2762 2475 
Q 2775 3275 2725 3800 
Q 3000 3750 3275 3725 
z
M 4950 4275 
Q 4925 4000 4925 3575 
L 4925 1825 
Q 4925 1300 4950 850 
L 4450 850 
Q 4475 1150 4475 1825 
L 4475 3575 
Q 4475 4000 4450 4275 
L 4950 4275 
z
M 1700 1675 
Q 1375 1075 1112 487 
Q 850 -100 725 -400 
Q 500 -200 200 -25 
Q 475 300 762 850 
Q 1050 1400 1250 2000 
Q 1475 1825 1700 1675 
z
M 3400 1050 
Q 3800 650 4300 -125 
Q 4100 -225 3875 -450 
Q 3475 275 3025 750 
Q 3225 875 3400 1050 
z
M 600 3525 
Q 1125 3125 1500 2775 
Q 1300 2575 1150 2375 
Q 825 2775 300 3150 
Q 450 3300 600 3525 
z
M 1350 4000 
Q 950 4375 475 4675 
Q 625 4850 775 5050 
Q 1300 4700 1675 4375 
Q 1500 4250 1350 4000 
z
" transform="scale(0.015625)"/>
     </defs>
     <use xlink:href="#SimHei-54"/>
     <use xlink:href="#SimHei-72" x="50"/>
     <use xlink:href="#SimHei-61" x="100"/>
     <use xlink:href="#SimHei-6e" x="150"/>
     <use xlink:href="#SimHei-73" x="200"/>
     <use xlink:href="#SimHei-66" x="250"/>
     <use xlink:href="#SimHei-6f" x="300"/>
     <use xlink:href="#SimHei-72" x="350"/>
     <use xlink:href="#SimHei-6d" x="400"/>
     <use xlink:href="#SimHei-65" x="450"/>
     <use xlink:href="#SimHei-72" x="500"/>
     <use xlink:href="#SimHei-57" x="550"/>
     <use xlink:href="#SimHei-69" x="600"/>
     <use xlink:href="#SimHei-74" x="650"/>
     <use xlink:href="#SimHei-68" x="700"/>
     <use xlink:href="#SimHei-4c" x="750"/>
     <use xlink:href="#SimHei-69" x="800"/>
     <use xlink:href="#SimHei-6e" x="850"/>
     <use xlink:href="#SimHei-65" x="900"/>
     <use xlink:href="#SimHei-61" x="950"/>
     <use xlink:href="#SimHei-72" x="1000"/>
     <use xlink:href="#SimHei-20" x="1050"/>
     <use xlink:href="#SimHei-9a8c" x="1100"/>
     <use xlink:href="#SimHei-8bc1" x="1200"/>
     <use xlink:href="#SimHei-96c6" x="1300"/>
     <use xlink:href="#SimHei-9884" x="1400"/>
     <use xlink:href="#SimHei-6d4b" x="1500"/>
    </g>
   </g>
   <g id="legend_1">
    <g id="patch_7">
     <path d="M 309.6 77.7 
L 446.6 77.7 
Q 448.6 77.7 448.6 75.7 
L 448.6 50.2 
Q 448.6 48.2 446.6 48.2 
L 309.6 48.2 
Q 307.6 48.2 307.6 50.2 
L 307.6 75.7 
Q 307.6 77.7 309.6 77.7 
z
" style="fill: #ffffff; opacity: 0.8; stroke: #cccccc; stroke-linejoin: miter"/>
    </g>
    <g id="line2d_25">
     <path d="M 311.6 55.7 
L 321.6 55.7 
L 331.6 55.7 
" style="fill: none; stroke: #1f77b4; stroke-width: 1.5; stroke-linecap: square"/>
    </g>
    <g id="text_13">
     <!-- true -->
     <g transform="translate(339.6 59.2)scale(0.1 -0.1)">
      <defs>
       <path id="SimHei-75" d="M 2800 125 
L 2300 125 
L 2300 650 
Q 2100 375 1862 225 
Q 1625 75 1250 75 
Q 800 75 575 325 
Q 350 575 350 950 
L 350 2925 
L 850 2925 
L 850 1125 
Q 850 825 1000 650 
Q 1150 475 1400 475 
Q 1725 475 2012 812 
Q 2300 1150 2300 1650 
L 2300 2925 
L 2800 2925 
L 2800 125 
z
" transform="scale(0.015625)"/>
      </defs>
      <use xlink:href="#SimHei-74"/>
      <use xlink:href="#SimHei-72" x="50"/>
      <use xlink:href="#SimHei-75" x="100"/>
      <use xlink:href="#SimHei-65" x="150"/>
     </g>
    </g>
    <g id="line2d_26">
     <path d="M 311.6 68.95 
L 321.6 68.95 
L 331.6 68.95 
" style="fill: none; stroke-dasharray: 5.55,2.4; stroke-dashoffset: 0; stroke: #ff7f0e; stroke-width: 1.5"/>
    </g>
    <g id="text_14">
     <!-- TransformerWithLinear -->
     <g transform="translate(339.6 72.45)scale(0.1 -0.1)">
      <use xlink:href="#SimHei-54"/>
      <use xlink:href="#SimHei-72" x="50"/>
      <use xlink:href="#SimHei-61" x="100"/>
      <use xlink:href="#SimHei-6e" x="150"/>
      <use xlink:href="#SimHei-73" x="200"/>
      <use xlink:href="#SimHei-66" x="250"/>
      <use xlink:href="#SimHei-6f" x="300"/>
      <use xlink:href="#SimHei-72" x="350"/>
      <use xlink:href="#SimHei-6d" x="400"/>
      <use xlink:href="#SimHei-65" x="450"/>
      <use xlink:href="#SimHei-72" x="500"/>
      <use xlink:href="#SimHei-57" x="550"/>
      <use xlink:href="#SimHei-69" x="600"/>
      <use xlink:href="#SimHei-74" x="650"/>
      <use xlink:href="#SimHei-68" x="700"/>
      <use xlink:href="#SimHei-4c" x="750"/>
      <use xlink:href="#SimHei-69" x="800"/>
      <use xlink:href="#SimHei-6e" x="850"/>
      <use xlink:href="#SimHei-65" x="900"/>
      <use xlink:href="#SimHei-61" x="950"/>
      <use xlink:href="#SimHei-72" x="1000"/>
     </g>
    </g>
   </g>
  </g>
 </g>
 <defs>
  <clipPath id="p85b82c56da">
   <rect x="63" y="43.2" width="390.6" height="277.2"/>
  </clipPath>
 </defs>
</svg>
