<?xml version="1.0" encoding="utf-8" standalone="no"?>
<!DOCTYPE svg PUBLIC "-//W3C//DTD SVG 1.1//EN"
  "http://www.w3.org/Graphics/SVG/1.1/DTD/svg11.dtd">
<svg xmlns:xlink="http://www.w3.org/1999/xlink" width="504pt" height="360pt" viewBox="0 0 504 360" xmlns="http://www.w3.org/2000/svg" version="1.1">
 <metadata>
  <rdf:RDF xmlns:dc="http://purl.org/dc/elements/1.1/" xmlns:cc="http://creativecommons.org/ns#" xmlns:rdf="http://www.w3.org/1999/02/22-rdf-syntax-ns#">
   <cc:Work>
    <dc:type rdf:resource="http://purl.org/dc/dcmitype/StillImage"/>
    <dc:date>2025-01-12T16:33:05.317535</dc:date>
    <dc:format>image/svg+xml</dc:format>
    <dc:creator>
     <cc:Agent>
      <dc:title>Matplotlib v3.5.3, https://matplotlib.org/</dc:title>
     </cc:Agent>
    </dc:creator>
   </cc:Work>
  </rdf:RDF>
 </metadata>
 <defs>
  <style type="text/css">*{stroke-linejoin: round; stroke-linecap: butt}</style>
 </defs>
 <g id="figure_1">
  <g id="patch_1">
   <path d="M 0 360 
L 504 360 
L 504 0 
L 0 0 
z
" style="fill: #ffffff"/>
  </g>
  <g id="axes_1">
   <g id="patch_2">
    <path d="M 63 320.4 
L 453.6 320.4 
L 453.6 43.2 
L 63 43.2 
z
" style="fill: #ffffff"/>
   </g>
   <g id="matplotlib.axis_1">
    <g id="xtick_1">
     <g id="line2d_1">
      <path d="M 80.754545 320.4 
L 80.754545 43.2 
" clip-path="url(#paf4bd74d3c)" style="fill: none; stroke: #b0b0b0; stroke-width: 0.8; stroke-linecap: square"/>
     </g>
     <g id="line2d_2">
      <defs>
       <path id="m72e51e97a7" d="M 0 0 
L 0 3.5 
" style="stroke: #000000; stroke-width: 0.8"/>
      </defs>
      <g>
       <use xlink:href="#m72e51e97a7" x="80.754545" y="320.4" style="stroke: #000000; stroke-width: 0.8"/>
      </g>
     </g>
     <g id="text_1">
      <!-- 0 -->
      <g transform="translate(78.254545 334.275)scale(0.1 -0.1)">
       <defs>
        <path id="SimHei-30" d="M 225 2537 
Q 250 3200 412 3587 
Q 575 3975 875 4225 
Q 1175 4475 1612 4475 
Q 2050 4475 2375 4112 
Q 2700 3750 2800 3200 
Q 2900 2650 2862 1937 
Q 2825 1225 2612 775 
Q 2400 325 1975 150 
Q 1550 -25 1125 187 
Q 700 400 525 750 
Q 350 1100 275 1487 
Q 200 1875 225 2537 
z
M 750 2687 
Q 675 2000 800 1462 
Q 925 925 1212 700 
Q 1500 475 1800 612 
Q 2100 750 2237 1162 
Q 2375 1575 2375 2062 
Q 2375 2550 2337 2950 
Q 2300 3350 2112 3675 
Q 1925 4000 1612 4012 
Q 1300 4025 1062 3700 
Q 825 3375 750 2687 
z
" transform="scale(0.015625)"/>
       </defs>
       <use xlink:href="#SimHei-30"/>
      </g>
     </g>
    </g>
    <g id="xtick_2">
     <g id="line2d_3">
      <path d="M 148.390909 320.4 
L 148.390909 43.2 
" clip-path="url(#paf4bd74d3c)" style="fill: none; stroke: #b0b0b0; stroke-width: 0.8; stroke-linecap: square"/>
     </g>
     <g id="line2d_4">
      <g>
       <use xlink:href="#m72e51e97a7" x="148.390909" y="320.4" style="stroke: #000000; stroke-width: 0.8"/>
      </g>
     </g>
     <g id="text_2">
      <!-- 100 -->
      <g transform="translate(140.890909 334.275)scale(0.1 -0.1)">
       <defs>
        <path id="SimHei-31" d="M 1400 3600 
Q 1075 3275 575 2975 
L 575 3450 
Q 1200 3875 1600 4450 
L 1900 4450 
L 1900 150 
L 1400 150 
L 1400 3600 
z
" transform="scale(0.015625)"/>
       </defs>
       <use xlink:href="#SimHei-31"/>
       <use xlink:href="#SimHei-30" x="50"/>
       <use xlink:href="#SimHei-30" x="100"/>
      </g>
     </g>
    </g>
    <g id="xtick_3">
     <g id="line2d_5">
      <path d="M 216.027273 320.4 
L 216.027273 43.2 
" clip-path="url(#paf4bd74d3c)" style="fill: none; stroke: #b0b0b0; stroke-width: 0.8; stroke-linecap: square"/>
     </g>
     <g id="line2d_6">
      <g>
       <use xlink:href="#m72e51e97a7" x="216.027273" y="320.4" style="stroke: #000000; stroke-width: 0.8"/>
      </g>
     </g>
     <g id="text_3">
      <!-- 200 -->
      <g transform="translate(208.527273 334.275)scale(0.1 -0.1)">
       <defs>
        <path id="SimHei-32" d="M 300 250 
Q 325 625 650 925 
Q 975 1225 1475 1862 
Q 1975 2500 2125 2850 
Q 2275 3200 2237 3450 
Q 2200 3700 2000 3862 
Q 1800 4025 1537 4000 
Q 1275 3975 1037 3800 
Q 800 3625 675 3275 
L 200 3350 
Q 400 3925 712 4187 
Q 1025 4450 1450 4475 
Q 1700 4500 1900 4462 
Q 2100 4425 2312 4287 
Q 2525 4150 2662 3875 
Q 2800 3600 2762 3212 
Q 2725 2825 2375 2287 
Q 2025 1750 1025 600 
L 2825 600 
L 2825 150 
L 300 150 
L 300 250 
z
" transform="scale(0.015625)"/>
       </defs>
       <use xlink:href="#SimHei-32"/>
       <use xlink:href="#SimHei-30" x="50"/>
       <use xlink:href="#SimHei-30" x="100"/>
      </g>
     </g>
    </g>
    <g id="xtick_4">
     <g id="line2d_7">
      <path d="M 283.663636 320.4 
L 283.663636 43.2 
" clip-path="url(#paf4bd74d3c)" style="fill: none; stroke: #b0b0b0; stroke-width: 0.8; stroke-linecap: square"/>
     </g>
     <g id="line2d_8">
      <g>
       <use xlink:href="#m72e51e97a7" x="283.663636" y="320.4" style="stroke: #000000; stroke-width: 0.8"/>
      </g>
     </g>
     <g id="text_4">
      <!-- 300 -->
      <g transform="translate(276.163636 334.275)scale(0.1 -0.1)">
       <defs>
        <path id="SimHei-33" d="M 250 1225 
L 700 1300 
Q 800 975 1025 762 
Q 1250 550 1587 562 
Q 1925 575 2125 837 
Q 2325 1100 2300 1437 
Q 2275 1775 2037 1962 
Q 1800 2150 1275 2225 
L 1275 2550 
Q 1800 2600 2037 2825 
Q 2275 3050 2250 3412 
Q 2225 3775 1925 3937 
Q 1625 4100 1287 3975 
Q 950 3850 750 3275 
L 300 3350 
Q 450 3800 712 4100 
Q 975 4400 1425 4450 
Q 1875 4500 2212 4337 
Q 2550 4175 2687 3837 
Q 2825 3500 2725 3100 
Q 2625 2700 2150 2400 
Q 2500 2250 2687 1950 
Q 2875 1650 2812 1162 
Q 2750 675 2375 375 
Q 2000 75 1525 87 
Q 1050 100 700 387 
Q 350 675 250 1225 
z
" transform="scale(0.015625)"/>
       </defs>
       <use xlink:href="#SimHei-33"/>
       <use xlink:href="#SimHei-30" x="50"/>
       <use xlink:href="#SimHei-30" x="100"/>
      </g>
     </g>
    </g>
    <g id="xtick_5">
     <g id="line2d_9">
      <path d="M 351.3 320.4 
L 351.3 43.2 
" clip-path="url(#paf4bd74d3c)" style="fill: none; stroke: #b0b0b0; stroke-width: 0.8; stroke-linecap: square"/>
     </g>
     <g id="line2d_10">
      <g>
       <use xlink:href="#m72e51e97a7" x="351.3" y="320.4" style="stroke: #000000; stroke-width: 0.8"/>
      </g>
     </g>
     <g id="text_5">
      <!-- 400 -->
      <g transform="translate(343.8 334.275)scale(0.1 -0.1)">
       <defs>
        <path id="SimHei-34" d="M 2000 1100 
L 75 1100 
L 75 1525 
L 2100 4450 
L 2475 4450 
L 2475 1525 
L 3075 1525 
L 3075 1100 
L 2475 1100 
L 2475 150 
L 2000 150 
L 2000 1100 
z
M 2000 1525 
L 2000 3500 
L 600 1525 
L 2000 1525 
z
" transform="scale(0.015625)"/>
       </defs>
       <use xlink:href="#SimHei-34"/>
       <use xlink:href="#SimHei-30" x="50"/>
       <use xlink:href="#SimHei-30" x="100"/>
      </g>
     </g>
    </g>
    <g id="xtick_6">
     <g id="line2d_11">
      <path d="M 418.936364 320.4 
L 418.936364 43.2 
" clip-path="url(#paf4bd74d3c)" style="fill: none; stroke: #b0b0b0; stroke-width: 0.8; stroke-linecap: square"/>
     </g>
     <g id="line2d_12">
      <g>
       <use xlink:href="#m72e51e97a7" x="418.936364" y="320.4" style="stroke: #000000; stroke-width: 0.8"/>
      </g>
     </g>
     <g id="text_6">
      <!-- 500 -->
      <g transform="translate(411.436364 334.275)scale(0.1 -0.1)">
       <defs>
        <path id="SimHei-35" d="M 550 1325 
Q 725 650 1150 575 
Q 1575 500 1837 662 
Q 2100 825 2212 1087 
Q 2325 1350 2312 1675 
Q 2300 2000 2137 2225 
Q 1975 2450 1725 2525 
Q 1475 2600 1162 2525 
Q 850 2450 650 2175 
L 225 2225 
Q 275 2375 700 4375 
L 2675 4375 
L 2675 3925 
L 1075 3925 
Q 950 3250 825 2850 
Q 1200 3025 1525 3012 
Q 1850 3000 2150 2862 
Q 2450 2725 2587 2487 
Q 2725 2250 2787 2012 
Q 2850 1775 2837 1500 
Q 2825 1225 2725 937 
Q 2625 650 2425 462 
Q 2225 275 1937 162 
Q 1650 50 1275 75 
Q 900 100 562 350 
Q 225 600 100 1200 
L 550 1325 
z
" transform="scale(0.015625)"/>
       </defs>
       <use xlink:href="#SimHei-35"/>
       <use xlink:href="#SimHei-30" x="50"/>
       <use xlink:href="#SimHei-30" x="100"/>
      </g>
     </g>
    </g>
   </g>
   <g id="matplotlib.axis_2">
    <g id="ytick_1">
     <g id="line2d_13">
      <path d="M 63 304.557636 
L 453.6 304.557636 
" clip-path="url(#paf4bd74d3c)" style="fill: none; stroke: #b0b0b0; stroke-width: 0.8; stroke-linecap: square"/>
     </g>
     <g id="line2d_14">
      <defs>
       <path id="mecb8b8e5d3" d="M 0 0 
L -3.5 0 
" style="stroke: #000000; stroke-width: 0.8"/>
      </defs>
      <g>
       <use xlink:href="#mecb8b8e5d3" x="63" y="304.557636" style="stroke: #000000; stroke-width: 0.8"/>
      </g>
     </g>
     <g id="text_7">
      <!-- 0 -->
      <g transform="translate(51 307.995136)scale(0.1 -0.1)">
       <use xlink:href="#SimHei-30"/>
      </g>
     </g>
    </g>
    <g id="ytick_2">
     <g id="line2d_15">
      <path d="M 63 246.821874 
L 453.6 246.821874 
" clip-path="url(#paf4bd74d3c)" style="fill: none; stroke: #b0b0b0; stroke-width: 0.8; stroke-linecap: square"/>
     </g>
     <g id="line2d_16">
      <g>
       <use xlink:href="#mecb8b8e5d3" x="63" y="246.821874" style="stroke: #000000; stroke-width: 0.8"/>
      </g>
     </g>
     <g id="text_8">
      <!-- 200 -->
      <g transform="translate(41 250.259374)scale(0.1 -0.1)">
       <use xlink:href="#SimHei-32"/>
       <use xlink:href="#SimHei-30" x="50"/>
       <use xlink:href="#SimHei-30" x="100"/>
      </g>
     </g>
    </g>
    <g id="ytick_3">
     <g id="line2d_17">
      <path d="M 63 189.086112 
L 453.6 189.086112 
" clip-path="url(#paf4bd74d3c)" style="fill: none; stroke: #b0b0b0; stroke-width: 0.8; stroke-linecap: square"/>
     </g>
     <g id="line2d_18">
      <g>
       <use xlink:href="#mecb8b8e5d3" x="63" y="189.086112" style="stroke: #000000; stroke-width: 0.8"/>
      </g>
     </g>
     <g id="text_9">
      <!-- 400 -->
      <g transform="translate(41 192.523612)scale(0.1 -0.1)">
       <use xlink:href="#SimHei-34"/>
       <use xlink:href="#SimHei-30" x="50"/>
       <use xlink:href="#SimHei-30" x="100"/>
      </g>
     </g>
    </g>
    <g id="ytick_4">
     <g id="line2d_19">
      <path d="M 63 131.350349 
L 453.6 131.350349 
" clip-path="url(#paf4bd74d3c)" style="fill: none; stroke: #b0b0b0; stroke-width: 0.8; stroke-linecap: square"/>
     </g>
     <g id="line2d_20">
      <g>
       <use xlink:href="#mecb8b8e5d3" x="63" y="131.350349" style="stroke: #000000; stroke-width: 0.8"/>
      </g>
     </g>
     <g id="text_10">
      <!-- 600 -->
      <g transform="translate(41 134.787849)scale(0.1 -0.1)">
       <defs>
        <path id="SimHei-36" d="M 250 1612 
Q 275 1975 387 2225 
Q 500 2475 725 2850 
L 1750 4450 
L 2325 4450 
L 1275 2800 
Q 1950 2975 2350 2750 
Q 2750 2525 2887 2237 
Q 3025 1950 3037 1612 
Q 3050 1275 2937 950 
Q 2825 625 2537 362 
Q 2250 100 1737 75 
Q 1225 50 862 262 
Q 500 475 362 862 
Q 225 1250 250 1612 
z
M 1025 787 
Q 1250 550 1625 525 
Q 2000 500 2250 775 
Q 2500 1050 2500 1575 
Q 2500 2100 2187 2300 
Q 1875 2500 1487 2450 
Q 1100 2400 925 2075 
Q 750 1750 775 1387 
Q 800 1025 1025 787 
z
" transform="scale(0.015625)"/>
       </defs>
       <use xlink:href="#SimHei-36"/>
       <use xlink:href="#SimHei-30" x="50"/>
       <use xlink:href="#SimHei-30" x="100"/>
      </g>
     </g>
    </g>
    <g id="ytick_5">
     <g id="line2d_21">
      <path d="M 63 73.614587 
L 453.6 73.614587 
" clip-path="url(#paf4bd74d3c)" style="fill: none; stroke: #b0b0b0; stroke-width: 0.8; stroke-linecap: square"/>
     </g>
     <g id="line2d_22">
      <g>
       <use xlink:href="#mecb8b8e5d3" x="63" y="73.614587" style="stroke: #000000; stroke-width: 0.8"/>
      </g>
     </g>
     <g id="text_11">
      <!-- 800 -->
      <g transform="translate(41 77.052087)scale(0.1 -0.1)">
       <defs>
        <path id="SimHei-38" d="M 175 1375 
Q 175 1675 325 1962 
Q 475 2250 825 2425 
Q 525 2600 425 2812 
Q 325 3025 312 3300 
Q 300 3575 387 3775 
Q 475 3975 650 4150 
Q 825 4325 1037 4387 
Q 1250 4450 1500 4450 
Q 1750 4450 1950 4400 
Q 2150 4350 2375 4187 
Q 2600 4025 2700 3725 
Q 2800 3425 2687 3025 
Q 2575 2625 2100 2400 
Q 2525 2275 2700 2012 
Q 2875 1750 2875 1375 
Q 2875 1000 2762 775 
Q 2650 550 2512 400 
Q 2375 250 2137 162 
Q 1900 75 1537 75 
Q 1175 75 912 162 
Q 650 250 475 425 
Q 300 600 237 837 
Q 175 1075 175 1375 
z
M 687 1400 
Q 675 1100 787 875 
Q 900 650 1200 587 
Q 1500 525 1825 600 
Q 2150 675 2275 950 
Q 2400 1225 2362 1500 
Q 2325 1775 2050 1962 
Q 1775 2150 1450 2125 
Q 1125 2100 912 1900 
Q 700 1700 687 1400 
z
M 775 3350 
Q 775 3100 950 2875 
Q 1125 2650 1500 2650 
Q 1875 2650 2062 2875 
Q 2250 3100 2237 3412 
Q 2225 3725 2012 3875 
Q 1800 4025 1437 4000 
Q 1075 3975 925 3787 
Q 775 3600 775 3350 
z
" transform="scale(0.015625)"/>
       </defs>
       <use xlink:href="#SimHei-38"/>
       <use xlink:href="#SimHei-30" x="50"/>
       <use xlink:href="#SimHei-30" x="100"/>
      </g>
     </g>
    </g>
   </g>
   <g id="line2d_23">
    <path d="M 80.754545 150.634094 
L 81.430909 214.143432 
L 82.107273 174.132549 
L 82.783636 224.766813 
L 83.46 214.31664 
L 84.136364 175.48934 
L 84.812727 183.168196 
L 85.489091 183.745554 
L 86.165455 175.951226 
L 86.841818 211.31438 
L 87.518182 238.190377 
L 88.194545 221.100592 
L 88.870909 189.345923 
L 89.547273 256.377142 
L 90.9 232.15699 
L 91.576364 230.453785 
L 92.252727 242.78037 
L 92.929091 179.501975 
L 93.605455 196.101007 
L 94.281818 229.356806 
L 94.958182 158.428422 
L 96.310909 62.846868 
L 96.987273 64.290262 
L 97.663636 70.03497 
L 98.34 115.473015 
L 99.016364 257.35865 
L 99.692727 185.997248 
L 100.369091 145.726554 
L 101.045455 208.369856 
L 101.721818 255.020352 
L 102.398182 224.680209 
L 103.074545 176.182169 
L 103.750909 200.488925 
L 104.427273 89.318715 
L 105.103636 183.081592 
L 105.78 159.294458 
L 106.456364 211.400984 
L 107.132727 130.109031 
L 107.809091 103.348505 
L 108.485455 102.193789 
L 109.161818 149.161832 
L 109.838182 124.999416 
L 111.190909 100.230774 
L 111.867273 75.548735 
L 112.543636 79.15722 
L 113.22 66.974975 
L 113.896364 60.421966 
L 114.572727 80.052125 
L 115.249091 105.831143 
L 115.925455 73.325908 
L 116.601818 89.838336 
L 117.278182 67.263653 
L 117.954545 74.740435 
L 118.630909 69.284405 
L 119.307273 69.659687 
L 119.983636 61.951963 
L 120.66 143.907878 
L 121.336364 60.335362 
L 122.012727 101.962846 
L 122.689091 73.412512 
L 123.365455 103.637184 
L 124.041818 102.944354 
L 124.718182 100.403981 
L 125.394545 90.184751 
L 126.070909 117.118484 
L 126.747273 83.804949 
L 127.423636 64.954223 
L 128.1 95.178894 
L 128.776364 74.94251 
L 129.452727 71.045346 
L 130.129091 89.636261 
L 130.805455 154.791069 
L 131.481818 251.671678 
L 132.158182 234.20661 
L 132.834545 226.8453 
L 133.510909 230.598125 
L 134.187273 131.812236 
L 134.863636 216.048713 
L 136.216364 304.904051 
L 137.569091 304.701975 
L 138.921818 304.701975 
L 139.598182 257.733933 
L 140.274545 237.006794 
L 140.950909 183.341403 
L 142.303636 264.517885 
L 142.98 165.212374 
L 143.656364 129.185258 
L 144.332727 147.631834 
L 145.009091 147.920513 
L 145.685455 122.949796 
L 146.361818 230.511521 
L 147.038182 277.046545 
L 147.714545 293.530105 
L 148.390909 285.937853 
L 149.067273 280.337484 
L 149.743636 291.509354 
L 150.42 304.730843 
L 151.096364 304.730843 
L 151.772727 243.733011 
L 152.449091 249.362247 
L 153.125455 196.909307 
L 153.801818 83.343063 
L 154.478182 75.202321 
L 155.154545 59.209515 
L 155.830909 63.337622 
L 156.507273 208.398724 
L 157.183636 304.961786 
L 157.86 205.280993 
L 158.536364 74.39402 
L 159.212727 66.22441 
L 159.889091 63.6263 
L 160.565455 60.36423 
L 161.241818 61.374606 
L 161.918182 114.231696 
L 162.594545 70.03497 
L 163.270909 64.059319 
L 163.947273 160.651249 
L 164.623636 205.944954 
L 165.3 214.893997 
L 165.976364 228.663977 
L 166.652727 239.835847 
L 167.329091 248.265268 
L 168.005455 246.417723 
L 168.681818 238.276981 
L 169.358182 213.537207 
L 170.034545 248.265268 
L 170.710909 218.242672 
L 171.387273 239.027546 
L 172.063636 235.909815 
L 172.74 178.924617 
L 174.092727 237.988302 
L 174.769091 231.290954 
L 175.445455 156.090124 
L 176.121818 163.249358 
L 176.798182 157.244839 
L 177.474545 156.95616 
L 178.150909 92.725124 
L 178.827273 102.944354 
L 179.503636 182.273292 
L 180.18 196.505157 
L 180.856364 191.597617 
L 181.532727 201.383829 
L 182.209091 228.433034 
L 182.885455 207.446084 
L 183.561818 181.378387 
L 184.238182 235.130382 
L 184.914545 216.308523 
L 185.590909 194.340066 
L 186.267273 230.857936 
L 186.943636 251.382999 
L 187.62 180.281408 
L 188.296364 269.454293 
L 188.972727 234.697364 
L 189.649091 263.536377 
L 190.325455 278.403336 
L 191.678182 227.191715 
L 192.354545 177.423488 
L 193.030909 191.944032 
L 193.707273 269.454293 
L 194.383636 185.275551 
L 195.06 179.213296 
L 195.736364 266.192222 
L 196.412727 294.020859 
L 197.089091 286.977096 
L 197.765455 275.776359 
L 198.441818 281.20352 
L 199.794545 304.759711 
L 201.823636 304.788579 
L 202.5 293.125955 
L 203.176364 287.958604 
L 203.852727 247.83225 
L 204.529091 284.06144 
L 205.205455 286.370871 
L 205.881818 277.162017 
L 206.558182 296.561233 
L 207.234545 283.512951 
L 207.910909 273.120514 
L 208.587273 174.998586 
L 209.263636 158.948044 
L 209.94 225.806056 
L 210.616364 93.071539 
L 211.292727 224.53587 
L 211.969091 269.916179 
L 212.645455 270.897687 
L 213.321818 291.105203 
L 213.998182 278.230128 
L 214.674545 260.562985 
L 215.350909 269.685236 
L 216.027273 304.528768 
L 216.703636 304.730843 
L 217.38 288.333887 
L 218.056364 258.166951 
L 218.732727 289.892752 
L 219.409091 291.42275 
L 220.085455 239.258489 
L 220.761818 252.04696 
L 221.438182 214.749658 
L 222.114545 110.854154 
L 222.790909 75.866282 
L 223.467273 63.77064 
L 224.143636 218.271539 
L 224.82 285.302759 
L 225.496364 215.182676 
L 226.172727 164.17313 
L 226.849091 93.360218 
L 227.525455 110.825286 
L 228.201818 271.850327 
L 228.878182 304.904051 
L 229.554545 304.904051 
L 230.230909 272.139006 
L 230.907273 233.25397 
L 231.583636 232.849819 
L 232.26 206.580048 
L 232.936364 220.494366 
L 233.612727 146.852402 
L 234.289091 220.147952 
L 234.965455 239.229621 
L 235.641818 240.297733 
L 236.994545 246.619799 
L 237.670909 176.326508 
L 238.347273 203.866467 
L 239.023636 182.533103 
L 239.7 121.217723 
L 240.376364 116.974145 
L 241.052727 65.156298 
L 241.729091 76.790054 
L 242.405455 116.916409 
L 243.081818 304.730843 
L 246.463636 304.730843 
L 247.14 59.26725 
L 247.816364 61.259134 
L 248.492727 64.752148 
L 249.169091 59.469325 
L 249.845455 63.655168 
L 250.521818 59.209515 
L 251.874545 69.197801 
L 252.550909 69.08233 
L 253.227273 61.86536 
L 253.903636 90.011544 
L 254.58 89.549658 
L 255.256364 151.962017 
L 255.932727 117.782445 
L 256.609091 113.683206 
L 257.285455 67.812143 
L 257.961818 136.748643 
L 258.638182 229.616617 
L 259.314545 252.249035 
L 259.990909 269.887311 
L 260.667273 278.230128 
L 261.343636 254.09658 
L 262.02 243.935086 
L 262.696364 271.070894 
L 263.372727 264.662224 
L 264.049091 240.990562 
L 264.725455 264.17147 
L 265.401818 274.506172 
L 266.078182 265.26845 
L 266.754545 240.586412 
L 268.107273 295.37765 
L 268.783636 299.072739 
L 269.46 304.788579 
L 270.136364 290.701053 
L 270.812727 298.841796 
L 271.489091 304.788579 
L 272.165455 231.666236 
L 272.841818 241.654523 
L 273.518182 240.239997 
L 274.870909 114.058489 
L 275.547273 237.584152 
L 276.223636 197.255722 
L 276.9 271.734855 
L 277.576364 275.429944 
L 278.252727 275.89183 
L 278.929091 206.262501 
L 279.605455 249.59319 
L 280.281818 241.856598 
L 280.958182 257.416386 
L 281.634545 206.782123 
L 282.310909 267.635616 
L 282.987273 241.134901 
L 283.663636 167.290861 
L 284.34 247.399231 
L 285.016364 183.514611 
L 285.692727 215.962109 
L 286.369091 229.183598 
L 287.045455 205.078918 
L 287.721818 272.514288 
L 288.398182 213.364 
L 289.750909 172.515948 
L 290.427273 176.384244 
L 291.103636 236.862455 
L 291.78 209.351364 
L 292.456364 248.005457 
L 293.132727 230.771332 
L 293.809091 290.123695 
L 295.161818 285.302759 
L 295.838182 289.373131 
L 296.514545 304.759711 
L 297.867273 304.701975 
L 301.249091 304.730843 
L 301.925455 304.817447 
L 303.278182 304.759711 
L 303.954545 304.817447 
L 304.630909 304.730843 
L 307.336364 304.759711 
L 308.012727 304.730843 
L 308.689091 296.388026 
L 309.365455 304.701975 
L 310.041818 291.8269 
L 310.718182 301.497641 
L 311.394545 304.701975 
L 316.129091 304.788579 
L 316.805455 300.631604 
L 317.481818 304.730843 
L 324.921818 304.759711 
L 325.598182 303.576128 
L 326.274545 304.730843 
L 326.950909 291.191807 
L 327.627273 287.265775 
L 328.303636 287.121436 
L 328.98 292.635201 
L 329.656364 282.906725 
L 330.332727 304.730843 
L 331.009091 304.759711 
L 331.685455 292.51973 
L 332.361818 296.359158 
L 333.038182 304.788579 
L 333.714545 304.701975 
L 335.067273 304.730843 
L 335.743636 304.904051 
L 336.42 304.730843 
L 337.772727 304.730843 
L 339.125455 257.300915 
L 339.801818 189.634601 
L 340.478182 211.429852 
L 341.154545 109.526231 
L 341.830909 217.17456 
L 342.507273 257.50299 
L 343.183636 289.92162 
L 343.86 281.75201 
L 344.536364 269.685236 
L 345.212727 290.441242 
L 345.889091 282.877857 
L 346.565455 279.904466 
L 347.241818 286.197664 
L 347.918182 285.042948 
L 348.594545 288.102944 
L 349.270909 270.435801 
L 349.947273 280.366352 
L 350.623636 256.55035 
L 351.3 271.301837 
L 351.976364 239.085282 
L 352.652727 149.883529 
L 353.329091 160.968795 
L 354.005455 147.400891 
L 354.681818 104.358881 
L 355.358182 87.038152 
L 356.034545 123.007532 
L 356.710909 86.229851 
L 357.387273 86.720605 
L 358.063636 137.528076 
L 358.74 82.938913 
L 359.416364 106.639443 
L 360.092727 150.720698 
L 360.769091 108.775666 
L 361.445455 152.568242 
L 362.121818 96.073799 
L 362.798182 153.925032 
L 363.474545 138.913734 
L 364.150909 130.946199 
L 364.827273 225.719453 
L 365.503636 156.349934 
L 366.18 174.594435 
L 366.856364 165.529921 
L 367.532727 224.622473 
L 368.209091 259.927892 
L 368.885455 247.659042 
L 369.561818 174.825378 
L 370.238182 126.962431 
L 370.914545 208.369856 
L 371.590909 196.129875 
L 372.267273 236.054154 
L 372.943636 124.768473 
L 373.62 83.140988 
L 374.296364 203.00043 
L 374.972727 166.07841 
L 375.649091 183.745554 
L 376.325455 150.229944 
L 377.001818 79.965521 
L 377.678182 65.329505 
L 378.354545 160.882192 
L 379.030909 169.109538 
L 379.707273 225.979264 
L 380.383636 219.397387 
L 381.06 145.409008 
L 381.736364 265.585997 
L 382.412727 204.443824 
L 383.089091 201.528168 
L 383.765455 217.290031 
L 384.441818 264.662224 
L 385.118182 224.420398 
L 385.794545 249.708662 
L 386.470909 217.896257 
L 387.147273 252.133564 
L 387.823636 220.378895 
L 388.5 274.217493 
L 389.176364 255.626578 
L 389.852727 155.137483 
L 390.529091 183.283668 
L 391.205455 181.955745 
L 391.881818 130.484313 
L 392.558182 149.710322 
L 393.234545 125.74998 
L 393.910909 82.996649 
L 394.587273 150.432019 
L 395.263636 186.054984 
L 395.94 174.334624 
L 396.616364 139.952978 
L 397.292727 164.894827 
L 397.969091 77.656091 
L 398.645455 92.263238 
L 399.321818 181.580463 
L 399.998182 106.00435 
L 400.674545 134.583552 
L 401.350909 141.944862 
L 402.027273 108.053969 
L 402.703636 66.974975 
L 403.38 60.046683 
L 404.056364 60.537437 
L 404.732727 76.010621 
L 405.409091 106.523972 
L 406.085455 158.948044 
L 406.761818 231.637368 
L 407.438182 139.750903 
L 408.114545 241.308109 
L 408.790909 238.56566 
L 409.467273 236.371701 
L 410.143636 304.932918 
L 410.82 267.231466 
L 411.496364 248.005457 
L 412.172727 288.42049 
L 412.849091 285.851249 
L 413.525455 248.929229 
L 414.201818 236.573776 
L 415.554545 129.70488 
L 416.230909 111.344908 
L 416.907273 81.177972 
L 417.583636 139.404488 
L 418.26 92.898332 
L 418.936364 82.015141 
L 419.612727 112.874906 
L 420.289091 152.481638 
L 420.965455 239.085282 
L 421.641818 276.007302 
L 422.318182 304.846315 
L 422.994545 257.589593 
L 423.670909 223.58323 
L 425.023636 261.169211 
L 425.7 263.132227 
L 426.376364 239.143017 
L 427.052727 190.933656 
L 427.729091 155.310691 
L 428.405455 161.170871 
L 429.081818 238.248113 
L 429.758182 150.662962 
L 430.434545 166.193882 
L 431.110909 124.277719 
L 431.787273 116.598862 
L 432.463636 179.819522 
L 433.14 172.111798 
L 433.816364 67.552332 
L 435.169091 59.81574 
L 435.845455 62.67366 
L 435.845455 62.67366 
" clip-path="url(#paf4bd74d3c)" style="fill: none; stroke: #1f77b4; stroke-width: 1.5; stroke-linecap: square"/>
   </g>
   <g id="line2d_24">
    <path d="M 80.754545 145.248303 
L 81.430909 222.205662 
L 82.107273 170.759482 
L 82.783636 225.562919 
L 83.46 219.224768 
L 84.136364 171.886306 
L 84.812727 189.528028 
L 85.489091 175.257711 
L 86.165455 169.987781 
L 86.841818 209.358336 
L 87.518182 235.288407 
L 88.194545 218.589645 
L 88.870909 190.894512 
L 89.547273 255.641532 
L 90.223636 242.159286 
L 90.9 234.134807 
L 91.576364 229.174954 
L 92.252727 247.0696 
L 92.929091 185.966587 
L 93.605455 197.00501 
L 94.281818 234.863869 
L 94.958182 165.188135 
L 95.634545 120.983038 
L 96.310909 64.347529 
L 96.987273 61.75104 
L 97.663636 70.616091 
L 98.34 112.515784 
L 99.016364 266.388193 
L 99.692727 182.169255 
L 100.369091 149.131336 
L 101.721818 254.512638 
L 102.398182 215.564561 
L 103.074545 169.749389 
L 103.750909 195.711849 
L 104.427273 95.695768 
L 105.103636 176.62024 
L 105.78 155.430962 
L 106.456364 211.055443 
L 107.132727 131.932482 
L 107.809091 96.711024 
L 108.485455 105.802768 
L 109.161818 157.109119 
L 109.838182 122.596284 
L 110.514545 116.200773 
L 111.867273 76.662066 
L 112.543636 79.240934 
L 113.22 64.829582 
L 113.896364 61.268476 
L 114.572727 76.418141 
L 115.249091 100.956298 
L 115.925455 70.980552 
L 116.601818 81.483093 
L 117.278182 63.994856 
L 117.954545 73.504324 
L 118.630909 68.566637 
L 119.983636 62.380006 
L 120.66 145.046876 
L 121.336364 64.061105 
L 122.012727 95.743799 
L 122.689091 77.128332 
L 123.365455 101.879809 
L 124.041818 103.333845 
L 124.718182 100.668077 
L 125.394545 89.018907 
L 126.070909 110.175466 
L 126.747273 77.294573 
L 127.423636 63.4012 
L 128.1 102.131205 
L 128.776364 70.611774 
L 129.452727 71.066641 
L 130.129091 82.765938 
L 130.805455 155.758016 
L 131.481818 263.014643 
L 132.158182 231.486094 
L 132.834545 223.542661 
L 133.510909 234.250743 
L 134.187273 140.839044 
L 134.863636 218.316427 
L 135.54 266.914723 
L 136.216364 307.493032 
L 136.892727 307.142971 
L 137.569091 307.770994 
L 138.921818 307.654031 
L 139.598182 261.699986 
L 140.274545 241.882359 
L 140.950909 182.73072 
L 142.303636 266.569172 
L 142.98 169.275378 
L 143.656364 128.43678 
L 144.332727 142.656361 
L 145.009091 139.013764 
L 145.685455 121.395124 
L 146.361818 233.607202 
L 147.038182 281.708591 
L 147.714545 296.180096 
L 148.390909 287.623582 
L 149.067273 282.684714 
L 149.743636 293.041054 
L 150.42 307.595027 
L 151.096364 307.633711 
L 151.772727 250.202322 
L 152.449091 253.858534 
L 153.125455 203.636993 
L 153.801818 88.536642 
L 154.478182 72.680927 
L 155.154545 59.551468 
L 155.830909 64.865861 
L 156.507273 200.076838 
L 157.183636 306.757398 
L 158.536364 81.896025 
L 159.212727 68.398652 
L 159.889091 61.228004 
L 160.565455 62.095591 
L 161.241818 61.883046 
L 161.918182 110.480831 
L 162.594545 68.668073 
L 163.270909 63.183457 
L 163.947273 151.270808 
L 164.623636 197.017079 
L 165.976364 224.710212 
L 166.652727 240.705773 
L 167.329091 250.126109 
L 168.005455 244.102115 
L 168.681818 235.615946 
L 169.358182 211.846667 
L 170.034545 250.074457 
L 170.710909 223.38145 
L 171.387273 243.888077 
L 172.063636 237.985992 
L 172.74 180.071577 
L 174.092727 240.317738 
L 174.769091 233.701599 
L 175.445455 155.678798 
L 176.121818 154.147148 
L 176.798182 158.913423 
L 177.474545 152.048729 
L 178.150909 93.288707 
L 178.827273 103.944504 
L 179.503636 189.656016 
L 180.18 201.783381 
L 180.856364 193.530874 
L 181.532727 203.088523 
L 182.209091 228.778884 
L 183.561818 180.800092 
L 184.238182 235.839957 
L 185.590909 190.920854 
L 186.267273 232.79602 
L 186.943636 252.064538 
L 187.62 185.825983 
L 188.296364 275.877011 
L 188.972727 235.281888 
L 189.649091 266.214821 
L 190.325455 281.339351 
L 191.678182 231.742207 
L 192.354545 170.755906 
L 193.030909 190.503728 
L 193.707273 269.924367 
L 194.383636 184.53195 
L 195.06 171.314534 
L 195.736364 269.922154 
L 196.412727 297.083469 
L 197.089091 288.685658 
L 197.765455 276.050128 
L 198.441818 284.163268 
L 199.794545 306.764847 
L 200.470909 307.54216 
L 201.147273 307.2895 
L 201.823636 307.590873 
L 202.5 295.812504 
L 203.176364 289.974969 
L 203.852727 249.928158 
L 204.529091 286.93423 
L 205.205455 288.206661 
L 205.881818 278.257473 
L 206.558182 299.333746 
L 207.910909 272.828467 
L 208.587273 164.346501 
L 209.263636 149.244595 
L 209.94 220.186875 
L 210.616364 89.573835 
L 211.292727 231.73249 
L 211.969091 271.996879 
L 212.645455 275.28282 
L 213.321818 295.505792 
L 213.998182 281.08555 
L 214.674545 258.456062 
L 215.350909 273.160917 
L 216.027273 306.660627 
L 216.703636 306.526044 
L 217.38 292.060217 
L 218.056364 255.887594 
L 218.732727 291.086358 
L 219.409091 293.052638 
L 220.085455 236.734867 
L 220.761818 252.447604 
L 221.438182 209.533501 
L 222.114545 118.13459 
L 222.790909 76.194531 
L 223.467273 65.307019 
L 224.143636 221.970177 
L 224.82 289.752531 
L 225.496364 209.658441 
L 226.849091 89.289103 
L 227.525455 108.471673 
L 228.201818 272.957191 
L 228.878182 307.316687 
L 229.554545 307.209604 
L 230.230909 270.590768 
L 230.907273 225.677226 
L 231.583636 228.49609 
L 232.26 204.105303 
L 232.936364 214.721377 
L 233.612727 152.512247 
L 234.289091 225.682485 
L 234.965455 236.371746 
L 235.641818 242.761271 
L 236.318182 243.650609 
L 236.994545 246.04912 
L 237.670909 178.280328 
L 238.347273 204.953755 
L 239.023636 184.101011 
L 239.7 121.675557 
L 240.376364 115.871393 
L 241.052727 65.647922 
L 241.729091 71.327093 
L 242.405455 58.301695 
L 243.081818 72.434165 
L 243.758182 68.006018 
L 244.434545 307.119383 
L 245.110909 307.578139 
L 245.787273 61.484139 
L 246.463636 58.619094 
L 247.14 57.347737 
L 247.816364 56.916217 
L 248.492727 61.252389 
L 249.169091 58.613508 
L 249.845455 59.519753 
L 250.521818 55.8 
L 251.198182 57.514876 
L 251.874545 61.196623 
L 252.550909 60.430208 
L 253.227273 58.962763 
L 253.903636 83.570535 
L 254.58 80.6083 
L 255.256364 138.670782 
L 255.932727 115.374557 
L 256.609091 108.84052 
L 257.285455 68.421963 
L 257.961818 133.080467 
L 258.638182 222.673241 
L 259.990909 268.341065 
L 260.667273 278.819389 
L 261.343636 254.455507 
L 262.02 242.453228 
L 262.696364 275.976229 
L 263.372727 267.883483 
L 264.049091 245.950529 
L 264.725455 266.783893 
L 265.401818 276.4061 
L 266.078182 266.454015 
L 266.754545 244.782353 
L 267.430909 267.365422 
L 268.107273 298.043651 
L 268.783636 301.532116 
L 269.46 307.619571 
L 270.136364 294.839565 
L 270.812727 302.72189 
L 271.489091 306.10247 
L 272.165455 239.864585 
L 272.841818 239.465577 
L 273.518182 243.822955 
L 274.870909 123.501489 
L 275.547273 234.198224 
L 276.223636 193.59463 
L 276.9 272.75039 
L 277.576364 272.705663 
L 278.252727 281.257751 
L 278.929091 213.471815 
L 279.605455 250.000402 
L 280.281818 241.564692 
L 280.958182 256.350856 
L 281.634545 207.327806 
L 282.310909 268.662435 
L 282.987273 234.812767 
L 283.663636 163.838186 
L 284.34 248.558321 
L 285.016364 177.624194 
L 285.692727 216.305586 
L 286.369091 229.536763 
L 287.045455 207.726113 
L 287.721818 275.916219 
L 288.398182 211.468507 
L 289.750909 162.103224 
L 290.427273 168.17516 
L 291.103636 234.49081 
L 291.78 206.687916 
L 292.456364 249.679096 
L 293.132727 226.643341 
L 293.809091 293.931986 
L 294.485455 292.084748 
L 295.161818 289.815979 
L 295.838182 291.908592 
L 296.514545 307.488698 
L 297.190909 307.776808 
L 299.22 307.764052 
L 299.896364 307.522206 
L 301.249091 307.52021 
L 301.925455 307.591939 
L 303.278182 307.548745 
L 303.954545 307.786182 
L 304.630909 307.534473 
L 305.307273 307.8 
L 306.66 307.334756 
L 307.336364 306.802597 
L 308.012727 307.788622 
L 308.689091 301.874451 
L 309.365455 307.566986 
L 310.041818 295.047318 
L 310.718182 305.431055 
L 311.394545 307.790899 
L 312.747273 307.79563 
L 314.1 307.469435 
L 315.452727 307.552533 
L 316.129091 307.653396 
L 316.805455 305.438513 
L 317.481818 307.781011 
L 320.863636 307.707955 
L 321.54 307.652458 
L 322.216364 306.838734 
L 322.892727 307.282716 
L 323.569091 307.352864 
L 324.245455 307.682209 
L 324.921818 306.964868 
L 326.274545 307.143134 
L 326.950909 295.822596 
L 327.627273 289.008814 
L 328.303636 285.441083 
L 328.98 292.647045 
L 329.656364 282.530565 
L 330.332727 307.284245 
L 331.009091 307.225413 
L 331.685455 294.868572 
L 332.361818 299.542551 
L 333.038182 307.4241 
L 333.714545 307.777799 
L 336.42 307.795181 
L 337.096364 307.633033 
L 337.772727 307.18561 
L 339.125455 258.13262 
L 339.801818 181.872304 
L 340.478182 224.471317 
L 341.154545 106.543036 
L 341.830909 212.278328 
L 342.507273 258.841345 
L 343.183636 293.715777 
L 344.536364 271.383051 
L 345.212727 293.256351 
L 345.889091 286.120092 
L 346.565455 282.631138 
L 347.241818 288.396776 
L 347.918182 287.169856 
L 348.594545 290.80633 
L 349.270909 270.781997 
L 349.947273 282.307656 
L 350.623636 256.314035 
L 351.3 272.27051 
L 351.976364 240.509923 
L 352.652727 150.837367 
L 353.329091 158.829052 
L 354.005455 148.038888 
L 354.681818 104.385275 
L 355.358182 82.908304 
L 356.034545 116.824681 
L 356.710909 86.871594 
L 357.387273 82.878457 
L 358.063636 138.466747 
L 358.74 79.033535 
L 359.416364 102.672143 
L 360.092727 144.752665 
L 360.769091 106.680715 
L 361.445455 148.868664 
L 362.121818 99.522295 
L 362.798182 152.589562 
L 363.474545 136.930357 
L 364.150909 132.48186 
L 364.827273 220.145487 
L 365.503636 150.494033 
L 366.18 164.391149 
L 366.856364 155.510637 
L 367.532727 219.931365 
L 368.209091 258.914136 
L 368.885455 247.149289 
L 369.561818 165.301904 
L 370.238182 125.473769 
L 370.914545 200.731969 
L 371.590909 200.882457 
L 372.267273 240.036671 
L 372.943636 121.617729 
L 373.62 84.888936 
L 374.296364 201.84586 
L 374.972727 162.014826 
L 375.649091 176.817033 
L 376.325455 150.692112 
L 377.001818 84.947503 
L 377.678182 67.816555 
L 378.354545 160.410856 
L 379.030909 166.941007 
L 379.707273 221.139987 
L 380.383636 214.288508 
L 381.06 140.820949 
L 381.736364 268.106238 
L 382.412727 202.871291 
L 383.089091 198.207404 
L 383.765455 210.286164 
L 384.441818 265.265779 
L 385.118182 218.330179 
L 385.794545 247.800856 
L 386.470909 215.785298 
L 387.147273 255.172345 
L 387.823636 222.131493 
L 388.5 281.552389 
L 389.176364 253.908829 
L 389.852727 156.982875 
L 390.529091 178.357247 
L 391.205455 169.371423 
L 391.881818 130.239384 
L 392.558182 145.960908 
L 393.234545 124.192475 
L 393.910909 82.373304 
L 394.587273 144.157582 
L 395.263636 174.061907 
L 395.94 163.793476 
L 396.616364 132.943281 
L 397.292727 157.405559 
L 397.969091 76.683121 
L 398.645455 86.749174 
L 399.321818 172.298242 
L 399.998182 100.697713 
L 400.674545 126.129234 
L 401.350909 135.877131 
L 402.027273 105.776638 
L 402.703636 65.025864 
L 403.38 59.763572 
L 404.056364 59.601102 
L 404.732727 73.509768 
L 405.409091 94.767675 
L 406.085455 152.884724 
L 406.761818 228.7314 
L 407.438182 137.054963 
L 408.114545 236.733775 
L 408.790909 235.529923 
L 409.467273 234.980263 
L 410.143636 306.879325 
L 410.82 270.923564 
L 411.496364 246.566571 
L 412.172727 290.971905 
L 412.849091 288.450494 
L 413.525455 246.198225 
L 414.201818 236.627185 
L 414.878182 174.989938 
L 415.554545 130.377116 
L 416.230909 116.740425 
L 416.907273 78.151676 
L 417.583636 135.478823 
L 418.26 88.219226 
L 418.936364 76.536139 
L 419.612727 100.610496 
L 420.289091 143.913287 
L 420.965455 236.394057 
L 421.641818 279.733025 
L 422.318182 307.707475 
L 422.994545 255.934457 
L 423.670909 220.314476 
L 424.347273 237.565753 
L 425.023636 260.809238 
L 425.7 263.382918 
L 426.376364 239.943745 
L 427.729091 161.095209 
L 428.405455 164.071187 
L 429.081818 240.517553 
L 429.758182 152.209807 
L 430.434545 166.200193 
L 431.110909 127.606405 
L 431.787273 117.434811 
L 432.463636 175.534365 
L 433.14 168.478402 
L 433.816364 69.915767 
L 435.169091 57.56437 
L 435.845455 59.920104 
L 435.845455 59.920104 
" clip-path="url(#paf4bd74d3c)" style="fill: none; stroke-dasharray: 5.55,2.4; stroke-dashoffset: 0; stroke: #ff7f0e; stroke-width: 1.5"/>
   </g>
   <g id="patch_3">
    <path d="M 63 320.4 
L 63 43.2 
" style="fill: none; stroke: #000000; stroke-width: 0.8; stroke-linejoin: miter; stroke-linecap: square"/>
   </g>
   <g id="patch_4">
    <path d="M 453.6 320.4 
L 453.6 43.2 
" style="fill: none; stroke: #000000; stroke-width: 0.8; stroke-linejoin: miter; stroke-linecap: square"/>
   </g>
   <g id="patch_5">
    <path d="M 63 320.4 
L 453.6 320.4 
" style="fill: none; stroke: #000000; stroke-width: 0.8; stroke-linejoin: miter; stroke-linecap: square"/>
   </g>
   <g id="patch_6">
    <path d="M 63 43.2 
L 453.6 43.2 
" style="fill: none; stroke: #000000; stroke-width: 0.8; stroke-linejoin: miter; stroke-linecap: square"/>
   </g>
   <g id="text_12">
    <!-- TransformerWithAttention 测试集预测 -->
    <g transform="translate(153.3 37.2)scale(0.12 -0.12)">
     <defs>
      <path id="SimHei-54" d="M 2850 3925 
L 1850 3925 
L 1850 125 
L 1275 125 
L 1275 3925 
L 275 3925 
L 275 4400 
L 2850 4400 
L 2850 3925 
z
" transform="scale(0.015625)"/>
      <path id="SimHei-72" d="M 2500 2425 
Q 2025 2500 1700 2287 
Q 1375 2075 1150 1550 
L 1150 125 
L 650 125 
L 650 2925 
L 1150 2925 
L 1150 2200 
Q 1375 2600 1712 2787 
Q 2050 2975 2500 2975 
L 2500 2425 
z
" transform="scale(0.015625)"/>
      <path id="SimHei-61" d="M 2875 125 
L 2275 125 
Q 2225 175 2200 262 
Q 2175 350 2175 475 
Q 2000 275 1750 175 
Q 1500 75 1225 75 
Q 825 75 550 275 
Q 275 475 275 850 
Q 275 1225 525 1450 
Q 775 1675 1300 1750 
Q 1650 1800 1912 1875 
Q 2175 1950 2175 2075 
Q 2175 2225 2062 2375 
Q 1950 2525 1575 2525 
Q 1275 2525 1137 2412 
Q 1000 2300 950 2100 
L 400 2100 
Q 450 2500 762 2737 
Q 1075 2975 1575 2975 
Q 2125 2975 2400 2725 
Q 2675 2475 2675 2025 
L 2675 650 
Q 2675 500 2725 375 
Q 2775 250 2875 125 
z
M 2175 1050 
L 2175 1550 
Q 2025 1500 1887 1462 
Q 1750 1425 1425 1375 
Q 1050 1325 937 1200 
Q 825 1075 825 900 
Q 825 750 937 637 
Q 1050 525 1275 525 
Q 1500 525 1762 650 
Q 2025 775 2175 1050 
z
" transform="scale(0.015625)"/>
      <path id="SimHei-6e" d="M 2800 125 
L 2300 125 
L 2300 1925 
Q 2300 2225 2150 2400 
Q 2000 2575 1750 2575 
Q 1425 2575 1137 2237 
Q 850 1900 850 1400 
L 850 125 
L 350 125 
L 350 2925 
L 850 2925 
L 850 2400 
Q 1050 2675 1287 2825 
Q 1525 2975 1900 2975 
Q 2350 2975 2575 2725 
Q 2800 2475 2800 2100 
L 2800 125 
z
" transform="scale(0.015625)"/>
      <path id="SimHei-73" d="M 2750 900 
Q 2750 500 2437 287 
Q 2125 75 1650 75 
Q 1050 75 725 312 
Q 400 550 400 1000 
L 900 1000 
Q 900 700 1112 600 
Q 1325 500 1625 500 
Q 1925 500 2075 612 
Q 2225 725 2225 900 
Q 2225 1025 2100 1150 
Q 1975 1275 1475 1350 
Q 900 1425 687 1637 
Q 475 1850 475 2200 
Q 475 2500 762 2737 
Q 1050 2975 1600 2975 
Q 2100 2975 2387 2750 
Q 2675 2525 2675 2150 
L 2175 2150 
Q 2175 2375 2012 2462 
Q 1850 2550 1600 2550 
Q 1275 2550 1137 2437 
Q 1000 2325 1000 2175 
Q 1000 2000 1125 1900 
Q 1250 1800 1650 1750 
Q 2300 1650 2525 1437 
Q 2750 1225 2750 900 
z
" transform="scale(0.015625)"/>
      <path id="SimHei-66" d="M 2850 3825 
Q 2725 3900 2550 3950 
Q 2375 4000 2100 4000 
Q 1825 4000 1725 3862 
Q 1625 3725 1625 3525 
L 1625 2925 
L 2650 2925 
L 2650 2525 
L 1625 2525 
L 1625 125 
L 1125 125 
L 1125 2525 
L 275 2525 
L 275 2925 
L 1125 2925 
L 1125 3500 
Q 1125 3950 1400 4200 
Q 1675 4450 2125 4450 
Q 2400 4450 2562 4412 
Q 2725 4375 2850 4325 
L 2850 3825 
z
" transform="scale(0.015625)"/>
      <path id="SimHei-6f" d="M 2925 1525 
Q 2925 875 2525 475 
Q 2125 75 1575 75 
Q 1025 75 625 475 
Q 225 875 225 1525 
Q 225 2175 625 2575 
Q 1025 2975 1575 2975 
Q 2125 2975 2525 2575 
Q 2925 2175 2925 1525 
z
M 2375 1525 
Q 2375 2025 2125 2275 
Q 1875 2525 1575 2525 
Q 1275 2525 1025 2275 
Q 775 2025 775 1525 
Q 775 1025 1025 775 
Q 1275 525 1575 525 
Q 1875 525 2125 775 
Q 2375 1025 2375 1525 
z
" transform="scale(0.015625)"/>
      <path id="SimHei-6d" d="M 3050 125 
L 2550 125 
L 2550 2150 
Q 2550 2300 2500 2400 
Q 2450 2500 2300 2500 
Q 2125 2500 1975 2312 
Q 1825 2125 1825 1825 
L 1825 125 
L 1325 125 
L 1325 2150 
Q 1325 2300 1275 2400 
Q 1225 2500 1075 2500 
Q 900 2500 750 2312 
Q 600 2125 600 1825 
L 600 125 
L 100 125 
L 100 2925 
L 600 2925 
L 600 2550 
Q 725 2750 900 2862 
Q 1075 2975 1275 2975 
Q 1475 2975 1612 2862 
Q 1750 2750 1800 2550 
Q 1925 2750 2087 2862 
Q 2250 2975 2450 2975 
Q 2750 2975 2900 2812 
Q 3050 2650 3050 2350 
L 3050 125 
z
" transform="scale(0.015625)"/>
      <path id="SimHei-65" d="M 2850 1075 
Q 2800 625 2450 350 
Q 2100 75 1625 75 
Q 1025 75 637 462 
Q 250 850 250 1525 
Q 250 2200 637 2587 
Q 1025 2975 1625 2975 
Q 2150 2975 2487 2637 
Q 2825 2300 2825 1525 
L 800 1525 
Q 800 975 1037 750 
Q 1275 525 1625 525 
Q 1900 525 2075 662 
Q 2250 800 2300 1075 
L 2850 1075 
z
M 2250 1925 
Q 2200 2275 2025 2412 
Q 1850 2550 1575 2550 
Q 1325 2550 1125 2412 
Q 925 2275 825 1925 
L 2250 1925 
z
" transform="scale(0.015625)"/>
      <path id="SimHei-57" d="M 3075 4400 
L 2525 75 
L 2025 75 
L 1575 3275 
L 1525 3275 
L 1075 75 
L 575 75 
L 25 4400 
L 575 4400 
L 850 1675 
L 900 1675 
L 1275 4400 
L 1825 4400 
L 2200 1675 
L 2250 1675 
L 2525 4400 
L 3075 4400 
z
" transform="scale(0.015625)"/>
      <path id="SimHei-69" d="M 1800 3725 
L 1300 3725 
L 1300 4375 
L 1800 4375 
L 1800 3725 
z
M 1800 125 
L 1300 125 
L 1300 2925 
L 1800 2925 
L 1800 125 
z
" transform="scale(0.015625)"/>
      <path id="SimHei-74" d="M 2750 200 
Q 2625 150 2462 112 
Q 2300 75 2025 75 
Q 1575 75 1300 325 
Q 1025 575 1025 1025 
L 1025 2525 
L 175 2525 
L 175 2925 
L 1025 2925 
L 1025 3900 
L 1525 3900 
L 1525 2925 
L 2550 2925 
L 2550 2525 
L 1525 2525 
L 1525 1000 
Q 1525 800 1625 662 
Q 1725 525 2000 525 
Q 2275 525 2450 575 
Q 2625 625 2750 700 
L 2750 200 
z
" transform="scale(0.015625)"/>
      <path id="SimHei-68" d="M 2800 125 
L 2300 125 
L 2300 1925 
Q 2300 2225 2150 2400 
Q 2000 2575 1750 2575 
Q 1425 2575 1137 2237 
Q 850 1900 850 1400 
L 850 125 
L 350 125 
L 350 4400 
L 850 4400 
L 850 2400 
Q 1050 2675 1287 2825 
Q 1525 2975 1900 2975 
Q 2350 2975 2575 2725 
Q 2800 2475 2800 2100 
L 2800 125 
z
" transform="scale(0.015625)"/>
      <path id="SimHei-41" d="M 3075 125 
L 2475 125 
L 2125 1450 
L 1025 1450 
L 675 125 
L 75 125 
L 1325 4450 
L 1825 4450 
L 3075 125 
z
M 2000 1925 
L 1600 3450 
L 1550 3450 
L 1150 1925 
L 2000 1925 
z
" transform="scale(0.015625)"/>
      <path id="SimHei-20" transform="scale(0.015625)"/>
      <path id="SimHei-6d4b" d="M 4025 4725 
Q 4000 4475 4000 4000 
L 4000 2225 
Q 4000 1775 4025 1350 
L 3550 1350 
L 3550 4325 
L 2350 4325 
L 2350 1325 
L 1900 1325 
Q 1925 1775 1925 2225 
L 1925 4000 
Q 1925 4200 1900 4725 
L 4025 4725 
z
M 5900 5075 
Q 5875 4800 5875 4375 
L 5875 0 
Q 5875 -325 5650 -425 
Q 5425 -525 4975 -600 
Q 4925 -325 4775 -50 
Q 5125 -50 5262 -25 
Q 5400 0 5400 250 
L 5400 4375 
Q 5400 4775 5375 5075 
L 5900 5075 
z
M 3275 3725 
Q 3225 3400 3200 2325 
Q 3175 1250 2837 550 
Q 2500 -150 2075 -600 
Q 1850 -400 1600 -325 
Q 2200 250 2475 962 
Q 2750 1675 2762 2475 
Q 2775 3275 2725 3800 
Q 3000 3750 3275 3725 
z
M 4950 4275 
Q 4925 4000 4925 3575 
L 4925 1825 
Q 4925 1300 4950 850 
L 4450 850 
Q 4475 1150 4475 1825 
L 4475 3575 
Q 4475 4000 4450 4275 
L 4950 4275 
z
M 1700 1675 
Q 1375 1075 1112 487 
Q 850 -100 725 -400 
Q 500 -200 200 -25 
Q 475 300 762 850 
Q 1050 1400 1250 2000 
Q 1475 1825 1700 1675 
z
M 3400 1050 
Q 3800 650 4300 -125 
Q 4100 -225 3875 -450 
Q 3475 275 3025 750 
Q 3225 875 3400 1050 
z
M 600 3525 
Q 1125 3125 1500 2775 
Q 1300 2575 1150 2375 
Q 825 2775 300 3150 
Q 450 3300 600 3525 
z
M 1350 4000 
Q 950 4375 475 4675 
Q 625 4850 775 5050 
Q 1300 4700 1675 4375 
Q 1500 4250 1350 4000 
z
" transform="scale(0.015625)"/>
      <path id="SimHei-8bd5" d="M 3950 3825 
Q 3925 4325 3925 4550 
Q 3925 4800 3900 5225 
Q 4200 5150 4450 5125 
Q 4425 4825 4425 4600 
L 4425 3825 
L 5150 3825 
Q 5500 3825 5875 3850 
L 5875 3400 
Q 5525 3425 5125 3425 
L 4450 3425 
Q 4500 2750 4587 2212 
Q 4675 1675 4837 1112 
Q 5000 550 5212 225 
Q 5425 -100 5500 200 
Q 5575 500 5600 900 
Q 5800 625 6100 525 
Q 5975 -275 5750 -487 
Q 5525 -700 5250 -537 
Q 4975 -375 4737 62 
Q 4500 500 4337 1075 
Q 4175 1650 4100 2262 
Q 4025 2875 3975 3425 
L 2800 3425 
Q 2300 3425 1875 3400 
L 1875 3850 
Q 2275 3825 2775 3825 
L 3950 3825 
z
M 1500 3175 
Q 1475 2675 1475 2175 
L 1475 625 
Q 1825 950 2125 1225 
Q 2225 1000 2375 800 
Q 1900 425 1125 -350 
Q 1000 -125 825 50 
Q 1025 175 1025 525 
L 1025 2725 
Q 625 2725 300 2700 
L 300 3200 
Q 625 3175 825 3175 
L 1500 3175 
z
M 3775 2175 
Q 3500 2200 3250 2200 
L 3250 575 
Q 3575 675 3900 800 
Q 3900 525 3950 325 
Q 3575 250 3150 125 
Q 2725 0 2275 -175 
Q 2200 100 2025 300 
Q 2425 350 2800 475 
L 2800 2200 
Q 2525 2200 2225 2175 
L 2225 2650 
Q 2600 2625 3000 2625 
Q 3425 2625 3775 2650 
L 3775 2175 
z
M 925 4975 
Q 1275 4650 1700 4100 
Q 1525 3925 1325 3775 
Q 1175 4050 575 4650 
Q 775 4825 925 4975 
z
M 5150 5150 
Q 5325 5000 5850 4375 
Q 5575 4200 5425 4050 
Q 5125 4525 4775 4875 
Q 4925 4975 5150 5150 
z
" transform="scale(0.015625)"/>
      <path id="SimHei-96c6" d="M 2275 4925 
Q 2125 4800 2025 4662 
Q 1925 4525 1850 4350 
L 4925 4350 
Q 5300 4350 5750 4375 
L 5750 3975 
L 3650 3975 
L 3650 3575 
L 4625 3575 
Q 4925 3575 5325 3600 
L 5325 3175 
Q 4925 3200 4625 3200 
L 3650 3200 
L 3650 2800 
L 4675 2800 
Q 5000 2800 5425 2825 
L 5425 2400 
Q 5000 2425 4675 2425 
L 3650 2425 
L 3650 2075 
L 4875 2075 
Q 5275 2075 5675 2100 
L 5675 1675 
Q 5300 1700 4900 1700 
L 1650 1700 
L 1650 1500 
L 1150 1500 
Q 1200 1950 1200 2325 
L 1200 3475 
Q 1050 3250 937 3125 
Q 825 3000 675 2825 
Q 500 3000 300 3125 
Q 475 3325 875 3825 
Q 1275 4325 1462 4650 
Q 1650 4975 1725 5225 
Q 1950 5100 2275 4925 
z
M 2975 1200 
Q 2975 1300 2950 1625 
L 3475 1625 
Q 3450 1275 3450 1200 
L 5050 1200 
Q 5500 1200 5925 1225 
L 5925 825 
L 4150 825 
Q 4500 525 4925 362 
Q 5350 200 6100 25 
Q 5875 -225 5775 -475 
Q 5275 -300 4962 -162 
Q 4650 -25 4387 137 
Q 4125 300 3950 462 
Q 3775 625 3575 825 
L 3450 825 
L 3450 250 
Q 3450 -275 3500 -650 
L 2950 -650 
Q 2975 -300 2975 250 
L 2975 825 
L 2875 825 
Q 2700 575 2475 375 
Q 2250 175 1987 12 
Q 1725 -150 1425 -300 
Q 1125 -450 700 -575 
Q 600 -325 400 -75 
Q 925 50 1475 262 
Q 2025 475 2300 825 
L 500 825 
L 500 1225 
Q 800 1200 1400 1200 
L 2975 1200 
z
M 3150 2800 
L 3150 3200 
L 1650 3200 
L 1650 2800 
L 3150 2800 
z
M 3150 3575 
L 3150 3975 
L 1650 3975 
L 1650 3575 
L 3150 3575 
z
M 3150 2075 
L 3150 2425 
L 1650 2425 
L 1650 2075 
L 3150 2075 
z
M 3450 5250 
Q 3575 5150 3712 5000 
Q 3850 4850 4000 4650 
Q 3850 4525 3575 4375 
Q 3425 4575 3325 4700 
Q 3225 4825 3075 4950 
Q 3275 5075 3450 5250 
z
" transform="scale(0.015625)"/>
      <path id="SimHei-9884" d="M 5200 4800 
Q 5575 4800 5950 4825 
L 5950 4400 
Q 5575 4425 5200 4425 
L 4500 4425 
Q 4425 4050 4350 3600 
L 5725 3600 
Q 5700 3225 5700 2800 
L 5700 1725 
Q 5700 1300 5725 850 
L 5250 850 
L 5250 3225 
L 3550 3225 
L 3550 800 
L 3075 800 
Q 3100 1375 3100 1725 
L 3100 2775 
Q 3100 3175 3075 3600 
L 3900 3600 
Q 4000 4150 4000 4425 
L 3725 4425 
Q 3300 4425 2850 4400 
L 2850 4825 
Q 3325 4800 3725 4800 
L 5200 4800 
z
M 2600 1775 
Q 2350 1825 2150 1825 
Q 2250 2250 2300 2450 
L 1750 2450 
L 1750 125 
Q 1725 -300 1425 -400 
Q 1125 -500 750 -500 
Q 700 -225 575 25 
Q 1125 -25 1212 37 
Q 1300 100 1300 350 
L 1300 2450 
L 1025 2450 
Q 700 2450 350 2425 
L 350 2850 
Q 700 2825 1000 2825 
L 2850 2825 
Q 2725 2325 2600 1775 
z
M 4725 2875 
Q 4625 2575 4600 2100 
Q 4575 1625 4462 1037 
Q 4350 450 3962 62 
Q 3575 -325 2925 -675 
Q 2700 -500 2475 -350 
Q 3075 -125 3437 200 
Q 3800 525 3950 937 
Q 4100 1350 4137 1850 
Q 4175 2350 4175 2925 
L 4725 2875 
z
M 1625 2900 
Q 1275 3275 800 3650 
Q 925 3775 1075 3950 
Q 1250 3825 1425 3675 
Q 1750 4150 1950 4375 
L 1400 4375 
Q 900 4375 450 4350 
L 450 4775 
Q 900 4750 1375 4750 
L 2575 4750 
L 2575 4375 
Q 2200 4100 1725 3400 
L 1950 3200 
Q 1750 3025 1625 2900 
z
M 4775 725 
Q 5725 0 6075 -325 
Q 5850 -500 5725 -650 
Q 5400 -325 5137 -87 
Q 4875 150 4525 350 
Q 4650 525 4775 725 
z
" transform="scale(0.015625)"/>
     </defs>
     <use xlink:href="#SimHei-54"/>
     <use xlink:href="#SimHei-72" x="50"/>
     <use xlink:href="#SimHei-61" x="100"/>
     <use xlink:href="#SimHei-6e" x="150"/>
     <use xlink:href="#SimHei-73" x="200"/>
     <use xlink:href="#SimHei-66" x="250"/>
     <use xlink:href="#SimHei-6f" x="300"/>
     <use xlink:href="#SimHei-72" x="350"/>
     <use xlink:href="#SimHei-6d" x="400"/>
     <use xlink:href="#SimHei-65" x="450"/>
     <use xlink:href="#SimHei-72" x="500"/>
     <use xlink:href="#SimHei-57" x="550"/>
     <use xlink:href="#SimHei-69" x="600"/>
     <use xlink:href="#SimHei-74" x="650"/>
     <use xlink:href="#SimHei-68" x="700"/>
     <use xlink:href="#SimHei-41" x="750"/>
     <use xlink:href="#SimHei-74" x="800"/>
     <use xlink:href="#SimHei-74" x="850"/>
     <use xlink:href="#SimHei-65" x="900"/>
     <use xlink:href="#SimHei-6e" x="950"/>
     <use xlink:href="#SimHei-74" x="1000"/>
     <use xlink:href="#SimHei-69" x="1050"/>
     <use xlink:href="#SimHei-6f" x="1100"/>
     <use xlink:href="#SimHei-6e" x="1150"/>
     <use xlink:href="#SimHei-20" x="1200"/>
     <use xlink:href="#SimHei-6d4b" x="1250"/>
     <use xlink:href="#SimHei-8bd5" x="1350"/>
     <use xlink:href="#SimHei-96c6" x="1450"/>
     <use xlink:href="#SimHei-9884" x="1550"/>
     <use xlink:href="#SimHei-6d4b" x="1650"/>
    </g>
   </g>
   <g id="legend_1">
    <g id="patch_7">
     <path d="M 294.6 77.7 
L 446.6 77.7 
Q 448.6 77.7 448.6 75.7 
L 448.6 50.2 
Q 448.6 48.2 446.6 48.2 
L 294.6 48.2 
Q 292.6 48.2 292.6 50.2 
L 292.6 75.7 
Q 292.6 77.7 294.6 77.7 
z
" style="fill: #ffffff; opacity: 0.8; stroke: #cccccc; stroke-linejoin: miter"/>
    </g>
    <g id="line2d_25">
     <path d="M 296.6 55.7 
L 306.6 55.7 
L 316.6 55.7 
" style="fill: none; stroke: #1f77b4; stroke-width: 1.5; stroke-linecap: square"/>
    </g>
    <g id="text_13">
     <!-- true -->
     <g transform="translate(324.6 59.2)scale(0.1 -0.1)">
      <defs>
       <path id="SimHei-75" d="M 2800 125 
L 2300 125 
L 2300 650 
Q 2100 375 1862 225 
Q 1625 75 1250 75 
Q 800 75 575 325 
Q 350 575 350 950 
L 350 2925 
L 850 2925 
L 850 1125 
Q 850 825 1000 650 
Q 1150 475 1400 475 
Q 1725 475 2012 812 
Q 2300 1150 2300 1650 
L 2300 2925 
L 2800 2925 
L 2800 125 
z
" transform="scale(0.015625)"/>
      </defs>
      <use xlink:href="#SimHei-74"/>
      <use xlink:href="#SimHei-72" x="50"/>
      <use xlink:href="#SimHei-75" x="100"/>
      <use xlink:href="#SimHei-65" x="150"/>
     </g>
    </g>
    <g id="line2d_26">
     <path d="M 296.6 68.95 
L 306.6 68.95 
L 316.6 68.95 
" style="fill: none; stroke-dasharray: 5.55,2.4; stroke-dashoffset: 0; stroke: #ff7f0e; stroke-width: 1.5"/>
    </g>
    <g id="text_14">
     <!-- TransformerWithAttention -->
     <g transform="translate(324.6 72.45)scale(0.1 -0.1)">
      <use xlink:href="#SimHei-54"/>
      <use xlink:href="#SimHei-72" x="50"/>
      <use xlink:href="#SimHei-61" x="100"/>
      <use xlink:href="#SimHei-6e" x="150"/>
      <use xlink:href="#SimHei-73" x="200"/>
      <use xlink:href="#SimHei-66" x="250"/>
      <use xlink:href="#SimHei-6f" x="300"/>
      <use xlink:href="#SimHei-72" x="350"/>
      <use xlink:href="#SimHei-6d" x="400"/>
      <use xlink:href="#SimHei-65" x="450"/>
      <use xlink:href="#SimHei-72" x="500"/>
      <use xlink:href="#SimHei-57" x="550"/>
      <use xlink:href="#SimHei-69" x="600"/>
      <use xlink:href="#SimHei-74" x="650"/>
      <use xlink:href="#SimHei-68" x="700"/>
      <use xlink:href="#SimHei-41" x="750"/>
      <use xlink:href="#SimHei-74" x="800"/>
      <use xlink:href="#SimHei-74" x="850"/>
      <use xlink:href="#SimHei-65" x="900"/>
      <use xlink:href="#SimHei-6e" x="950"/>
      <use xlink:href="#SimHei-74" x="1000"/>
      <use xlink:href="#SimHei-69" x="1050"/>
      <use xlink:href="#SimHei-6f" x="1100"/>
      <use xlink:href="#SimHei-6e" x="1150"/>
     </g>
    </g>
   </g>
  </g>
 </g>
 <defs>
  <clipPath id="paf4bd74d3c">
   <rect x="63" y="43.2" width="390.6" height="277.2"/>
  </clipPath>
 </defs>
</svg>
