<?xml version="1.0" encoding="utf-8" standalone="no"?>
<!DOCTYPE svg PUBLIC "-//W3C//DTD SVG 1.1//EN"
  "http://www.w3.org/Graphics/SVG/1.1/DTD/svg11.dtd">
<svg xmlns:xlink="http://www.w3.org/1999/xlink" width="504pt" height="360pt" viewBox="0 0 504 360" xmlns="http://www.w3.org/2000/svg" version="1.1">
 <metadata>
  <rdf:RDF xmlns:dc="http://purl.org/dc/elements/1.1/" xmlns:cc="http://creativecommons.org/ns#" xmlns:rdf="http://www.w3.org/1999/02/22-rdf-syntax-ns#">
   <cc:Work>
    <dc:type rdf:resource="http://purl.org/dc/dcmitype/StillImage"/>
    <dc:date>2025-01-12T16:23:52.401797</dc:date>
    <dc:format>image/svg+xml</dc:format>
    <dc:creator>
     <cc:Agent>
      <dc:title>Matplotlib v3.5.3, https://matplotlib.org/</dc:title>
     </cc:Agent>
    </dc:creator>
   </cc:Work>
  </rdf:RDF>
 </metadata>
 <defs>
  <style type="text/css">*{stroke-linejoin: round; stroke-linecap: butt}</style>
 </defs>
 <g id="figure_1">
  <g id="patch_1">
   <path d="M 0 360 
L 504 360 
L 504 0 
L 0 0 
z
" style="fill: #ffffff"/>
  </g>
  <g id="axes_1">
   <g id="patch_2">
    <path d="M 63 320.4 
L 453.6 320.4 
L 453.6 43.2 
L 63 43.2 
z
" style="fill: #ffffff"/>
   </g>
   <g id="matplotlib.axis_1">
    <g id="xtick_1">
     <g id="line2d_1">
      <path d="M 63 320.4 
L 63 43.2 
" clip-path="url(#p5d4e166d9f)" style="fill: none; stroke: #b0b0b0; stroke-width: 0.8; stroke-linecap: square"/>
     </g>
     <g id="line2d_2">
      <defs>
       <path id="m5462cc6fe1" d="M 0 0 
L 0 3.5 
" style="stroke: #000000; stroke-width: 0.8"/>
      </defs>
      <g>
       <use xlink:href="#m5462cc6fe1" x="63" y="320.4" style="stroke: #000000; stroke-width: 0.8"/>
      </g>
     </g>
     <g id="text_1">
      <!-- 0 -->
      <g transform="translate(60.5 334.275)scale(0.1 -0.1)">
       <defs>
        <path id="SimHei-30" d="M 225 2537 
Q 250 3200 412 3587 
Q 575 3975 875 4225 
Q 1175 4475 1612 4475 
Q 2050 4475 2375 4112 
Q 2700 3750 2800 3200 
Q 2900 2650 2862 1937 
Q 2825 1225 2612 775 
Q 2400 325 1975 150 
Q 1550 -25 1125 187 
Q 700 400 525 750 
Q 350 1100 275 1487 
Q 200 1875 225 2537 
z
M 750 2687 
Q 675 2000 800 1462 
Q 925 925 1212 700 
Q 1500 475 1800 612 
Q 2100 750 2237 1162 
Q 2375 1575 2375 2062 
Q 2375 2550 2337 2950 
Q 2300 3350 2112 3675 
Q 1925 4000 1612 4012 
Q 1300 4025 1062 3700 
Q 825 3375 750 2687 
z
" transform="scale(0.015625)"/>
       </defs>
       <use xlink:href="#SimHei-30"/>
      </g>
     </g>
    </g>
    <g id="xtick_2">
     <g id="line2d_3">
      <path d="M 115.08 320.4 
L 115.08 43.2 
" clip-path="url(#p5d4e166d9f)" style="fill: none; stroke: #b0b0b0; stroke-width: 0.8; stroke-linecap: square"/>
     </g>
     <g id="line2d_4">
      <g>
       <use xlink:href="#m5462cc6fe1" x="115.08" y="320.4" style="stroke: #000000; stroke-width: 0.8"/>
      </g>
     </g>
     <g id="text_2">
      <!-- 20 -->
      <g transform="translate(110.08 334.275)scale(0.1 -0.1)">
       <defs>
        <path id="SimHei-32" d="M 300 250 
Q 325 625 650 925 
Q 975 1225 1475 1862 
Q 1975 2500 2125 2850 
Q 2275 3200 2237 3450 
Q 2200 3700 2000 3862 
Q 1800 4025 1537 4000 
Q 1275 3975 1037 3800 
Q 800 3625 675 3275 
L 200 3350 
Q 400 3925 712 4187 
Q 1025 4450 1450 4475 
Q 1700 4500 1900 4462 
Q 2100 4425 2312 4287 
Q 2525 4150 2662 3875 
Q 2800 3600 2762 3212 
Q 2725 2825 2375 2287 
Q 2025 1750 1025 600 
L 2825 600 
L 2825 150 
L 300 150 
L 300 250 
z
" transform="scale(0.015625)"/>
       </defs>
       <use xlink:href="#SimHei-32"/>
       <use xlink:href="#SimHei-30" x="50"/>
      </g>
     </g>
    </g>
    <g id="xtick_3">
     <g id="line2d_5">
      <path d="M 167.16 320.4 
L 167.16 43.2 
" clip-path="url(#p5d4e166d9f)" style="fill: none; stroke: #b0b0b0; stroke-width: 0.8; stroke-linecap: square"/>
     </g>
     <g id="line2d_6">
      <g>
       <use xlink:href="#m5462cc6fe1" x="167.16" y="320.4" style="stroke: #000000; stroke-width: 0.8"/>
      </g>
     </g>
     <g id="text_3">
      <!-- 40 -->
      <g transform="translate(162.16 334.275)scale(0.1 -0.1)">
       <defs>
        <path id="SimHei-34" d="M 2000 1100 
L 75 1100 
L 75 1525 
L 2100 4450 
L 2475 4450 
L 2475 1525 
L 3075 1525 
L 3075 1100 
L 2475 1100 
L 2475 150 
L 2000 150 
L 2000 1100 
z
M 2000 1525 
L 2000 3500 
L 600 1525 
L 2000 1525 
z
" transform="scale(0.015625)"/>
       </defs>
       <use xlink:href="#SimHei-34"/>
       <use xlink:href="#SimHei-30" x="50"/>
      </g>
     </g>
    </g>
    <g id="xtick_4">
     <g id="line2d_7">
      <path d="M 219.24 320.4 
L 219.24 43.2 
" clip-path="url(#p5d4e166d9f)" style="fill: none; stroke: #b0b0b0; stroke-width: 0.8; stroke-linecap: square"/>
     </g>
     <g id="line2d_8">
      <g>
       <use xlink:href="#m5462cc6fe1" x="219.24" y="320.4" style="stroke: #000000; stroke-width: 0.8"/>
      </g>
     </g>
     <g id="text_4">
      <!-- 60 -->
      <g transform="translate(214.24 334.275)scale(0.1 -0.1)">
       <defs>
        <path id="SimHei-36" d="M 250 1612 
Q 275 1975 387 2225 
Q 500 2475 725 2850 
L 1750 4450 
L 2325 4450 
L 1275 2800 
Q 1950 2975 2350 2750 
Q 2750 2525 2887 2237 
Q 3025 1950 3037 1612 
Q 3050 1275 2937 950 
Q 2825 625 2537 362 
Q 2250 100 1737 75 
Q 1225 50 862 262 
Q 500 475 362 862 
Q 225 1250 250 1612 
z
M 1025 787 
Q 1250 550 1625 525 
Q 2000 500 2250 775 
Q 2500 1050 2500 1575 
Q 2500 2100 2187 2300 
Q 1875 2500 1487 2450 
Q 1100 2400 925 2075 
Q 750 1750 775 1387 
Q 800 1025 1025 787 
z
" transform="scale(0.015625)"/>
       </defs>
       <use xlink:href="#SimHei-36"/>
       <use xlink:href="#SimHei-30" x="50"/>
      </g>
     </g>
    </g>
    <g id="xtick_5">
     <g id="line2d_9">
      <path d="M 271.32 320.4 
L 271.32 43.2 
" clip-path="url(#p5d4e166d9f)" style="fill: none; stroke: #b0b0b0; stroke-width: 0.8; stroke-linecap: square"/>
     </g>
     <g id="line2d_10">
      <g>
       <use xlink:href="#m5462cc6fe1" x="271.32" y="320.4" style="stroke: #000000; stroke-width: 0.8"/>
      </g>
     </g>
     <g id="text_5">
      <!-- 80 -->
      <g transform="translate(266.32 334.275)scale(0.1 -0.1)">
       <defs>
        <path id="SimHei-38" d="M 175 1375 
Q 175 1675 325 1962 
Q 475 2250 825 2425 
Q 525 2600 425 2812 
Q 325 3025 312 3300 
Q 300 3575 387 3775 
Q 475 3975 650 4150 
Q 825 4325 1037 4387 
Q 1250 4450 1500 4450 
Q 1750 4450 1950 4400 
Q 2150 4350 2375 4187 
Q 2600 4025 2700 3725 
Q 2800 3425 2687 3025 
Q 2575 2625 2100 2400 
Q 2525 2275 2700 2012 
Q 2875 1750 2875 1375 
Q 2875 1000 2762 775 
Q 2650 550 2512 400 
Q 2375 250 2137 162 
Q 1900 75 1537 75 
Q 1175 75 912 162 
Q 650 250 475 425 
Q 300 600 237 837 
Q 175 1075 175 1375 
z
M 687 1400 
Q 675 1100 787 875 
Q 900 650 1200 587 
Q 1500 525 1825 600 
Q 2150 675 2275 950 
Q 2400 1225 2362 1500 
Q 2325 1775 2050 1962 
Q 1775 2150 1450 2125 
Q 1125 2100 912 1900 
Q 700 1700 687 1400 
z
M 775 3350 
Q 775 3100 950 2875 
Q 1125 2650 1500 2650 
Q 1875 2650 2062 2875 
Q 2250 3100 2237 3412 
Q 2225 3725 2012 3875 
Q 1800 4025 1437 4000 
Q 1075 3975 925 3787 
Q 775 3600 775 3350 
z
" transform="scale(0.015625)"/>
       </defs>
       <use xlink:href="#SimHei-38"/>
       <use xlink:href="#SimHei-30" x="50"/>
      </g>
     </g>
    </g>
    <g id="xtick_6">
     <g id="line2d_11">
      <path d="M 323.4 320.4 
L 323.4 43.2 
" clip-path="url(#p5d4e166d9f)" style="fill: none; stroke: #b0b0b0; stroke-width: 0.8; stroke-linecap: square"/>
     </g>
     <g id="line2d_12">
      <g>
       <use xlink:href="#m5462cc6fe1" x="323.4" y="320.4" style="stroke: #000000; stroke-width: 0.8"/>
      </g>
     </g>
     <g id="text_6">
      <!-- 100 -->
      <g transform="translate(315.9 334.275)scale(0.1 -0.1)">
       <defs>
        <path id="SimHei-31" d="M 1400 3600 
Q 1075 3275 575 2975 
L 575 3450 
Q 1200 3875 1600 4450 
L 1900 4450 
L 1900 150 
L 1400 150 
L 1400 3600 
z
" transform="scale(0.015625)"/>
       </defs>
       <use xlink:href="#SimHei-31"/>
       <use xlink:href="#SimHei-30" x="50"/>
       <use xlink:href="#SimHei-30" x="100"/>
      </g>
     </g>
    </g>
    <g id="xtick_7">
     <g id="line2d_13">
      <path d="M 375.48 320.4 
L 375.48 43.2 
" clip-path="url(#p5d4e166d9f)" style="fill: none; stroke: #b0b0b0; stroke-width: 0.8; stroke-linecap: square"/>
     </g>
     <g id="line2d_14">
      <g>
       <use xlink:href="#m5462cc6fe1" x="375.48" y="320.4" style="stroke: #000000; stroke-width: 0.8"/>
      </g>
     </g>
     <g id="text_7">
      <!-- 120 -->
      <g transform="translate(367.98 334.275)scale(0.1 -0.1)">
       <use xlink:href="#SimHei-31"/>
       <use xlink:href="#SimHei-32" x="50"/>
       <use xlink:href="#SimHei-30" x="100"/>
      </g>
     </g>
    </g>
    <g id="xtick_8">
     <g id="line2d_15">
      <path d="M 427.56 320.4 
L 427.56 43.2 
" clip-path="url(#p5d4e166d9f)" style="fill: none; stroke: #b0b0b0; stroke-width: 0.8; stroke-linecap: square"/>
     </g>
     <g id="line2d_16">
      <g>
       <use xlink:href="#m5462cc6fe1" x="427.56" y="320.4" style="stroke: #000000; stroke-width: 0.8"/>
      </g>
     </g>
     <g id="text_8">
      <!-- 140 -->
      <g transform="translate(420.06 334.275)scale(0.1 -0.1)">
       <use xlink:href="#SimHei-31"/>
       <use xlink:href="#SimHei-34" x="50"/>
       <use xlink:href="#SimHei-30" x="100"/>
      </g>
     </g>
    </g>
    <g id="text_9">
     <!-- epoch -->
     <g transform="translate(245.8 346.4)scale(0.1 -0.1)">
      <defs>
       <path id="SimHei-65" d="M 2850 1075 
Q 2800 625 2450 350 
Q 2100 75 1625 75 
Q 1025 75 637 462 
Q 250 850 250 1525 
Q 250 2200 637 2587 
Q 1025 2975 1625 2975 
Q 2150 2975 2487 2637 
Q 2825 2300 2825 1525 
L 800 1525 
Q 800 975 1037 750 
Q 1275 525 1625 525 
Q 1900 525 2075 662 
Q 2250 800 2300 1075 
L 2850 1075 
z
M 2250 1925 
Q 2200 2275 2025 2412 
Q 1850 2550 1575 2550 
Q 1325 2550 1125 2412 
Q 925 2275 825 1925 
L 2250 1925 
z
" transform="scale(0.015625)"/>
       <path id="SimHei-70" d="M 2825 1525 
Q 2825 800 2475 425 
Q 2125 50 1625 50 
Q 1350 50 1150 162 
Q 950 275 800 500 
L 800 -800 
L 300 -800 
L 300 2925 
L 800 2925 
L 800 2550 
Q 950 2775 1150 2875 
Q 1350 2975 1625 2975 
Q 2125 2975 2475 2612 
Q 2825 2250 2825 1525 
z
M 2275 1525 
Q 2275 2000 2087 2262 
Q 1900 2525 1525 2525 
Q 1225 2525 1012 2262 
Q 800 2000 800 1525 
Q 800 1050 1012 775 
Q 1225 500 1525 500 
Q 1900 500 2087 775 
Q 2275 1050 2275 1525 
z
" transform="scale(0.015625)"/>
       <path id="SimHei-6f" d="M 2925 1525 
Q 2925 875 2525 475 
Q 2125 75 1575 75 
Q 1025 75 625 475 
Q 225 875 225 1525 
Q 225 2175 625 2575 
Q 1025 2975 1575 2975 
Q 2125 2975 2525 2575 
Q 2925 2175 2925 1525 
z
M 2375 1525 
Q 2375 2025 2125 2275 
Q 1875 2525 1575 2525 
Q 1275 2525 1025 2275 
Q 775 2025 775 1525 
Q 775 1025 1025 775 
Q 1275 525 1575 525 
Q 1875 525 2125 775 
Q 2375 1025 2375 1525 
z
" transform="scale(0.015625)"/>
       <path id="SimHei-63" d="M 2850 1250 
Q 2850 725 2487 400 
Q 2125 75 1575 75 
Q 1025 75 625 462 
Q 225 850 225 1525 
Q 225 2200 625 2587 
Q 1025 2975 1575 2975 
Q 2125 2975 2450 2687 
Q 2775 2400 2775 2000 
L 2225 2000 
Q 2200 2300 2012 2412 
Q 1825 2525 1575 2525 
Q 1275 2525 1025 2287 
Q 775 2050 775 1525 
Q 775 1000 1025 762 
Q 1275 525 1575 525 
Q 1900 525 2100 700 
Q 2300 875 2300 1250 
L 2850 1250 
z
" transform="scale(0.015625)"/>
       <path id="SimHei-68" d="M 2800 125 
L 2300 125 
L 2300 1925 
Q 2300 2225 2150 2400 
Q 2000 2575 1750 2575 
Q 1425 2575 1137 2237 
Q 850 1900 850 1400 
L 850 125 
L 350 125 
L 350 4400 
L 850 4400 
L 850 2400 
Q 1050 2675 1287 2825 
Q 1525 2975 1900 2975 
Q 2350 2975 2575 2725 
Q 2800 2475 2800 2100 
L 2800 125 
z
" transform="scale(0.015625)"/>
      </defs>
      <use xlink:href="#SimHei-65"/>
      <use xlink:href="#SimHei-70" x="50"/>
      <use xlink:href="#SimHei-6f" x="100"/>
      <use xlink:href="#SimHei-63" x="150"/>
      <use xlink:href="#SimHei-68" x="200"/>
     </g>
    </g>
   </g>
   <g id="matplotlib.axis_2">
    <g id="ytick_1">
     <g id="line2d_17">
      <path d="M 63 295.395876 
L 453.6 295.395876 
" clip-path="url(#p5d4e166d9f)" style="fill: none; stroke: #b0b0b0; stroke-width: 0.8; stroke-linecap: square"/>
     </g>
     <g id="line2d_18">
      <defs>
       <path id="mf666021f02" d="M 0 0 
L -3.5 0 
" style="stroke: #000000; stroke-width: 0.8"/>
      </defs>
      <g>
       <use xlink:href="#mf666021f02" x="63" y="295.395876" style="stroke: #000000; stroke-width: 0.8"/>
      </g>
     </g>
     <g id="text_10">
      <!-- 0.02 -->
      <g transform="translate(36 298.833376)scale(0.1 -0.1)">
       <defs>
        <path id="SimHei-2e" d="M 1075 125 
L 500 125 
L 500 675 
L 1075 675 
L 1075 125 
z
" transform="scale(0.015625)"/>
       </defs>
       <use xlink:href="#SimHei-30"/>
       <use xlink:href="#SimHei-2e" x="50"/>
       <use xlink:href="#SimHei-30" x="100"/>
       <use xlink:href="#SimHei-32" x="150"/>
      </g>
     </g>
    </g>
    <g id="ytick_2">
     <g id="line2d_19">
      <path d="M 63 256.552083 
L 453.6 256.552083 
" clip-path="url(#p5d4e166d9f)" style="fill: none; stroke: #b0b0b0; stroke-width: 0.8; stroke-linecap: square"/>
     </g>
     <g id="line2d_20">
      <g>
       <use xlink:href="#mf666021f02" x="63" y="256.552083" style="stroke: #000000; stroke-width: 0.8"/>
      </g>
     </g>
     <g id="text_11">
      <!-- 0.04 -->
      <g transform="translate(36 259.989583)scale(0.1 -0.1)">
       <use xlink:href="#SimHei-30"/>
       <use xlink:href="#SimHei-2e" x="50"/>
       <use xlink:href="#SimHei-30" x="100"/>
       <use xlink:href="#SimHei-34" x="150"/>
      </g>
     </g>
    </g>
    <g id="ytick_3">
     <g id="line2d_21">
      <path d="M 63 217.708289 
L 453.6 217.708289 
" clip-path="url(#p5d4e166d9f)" style="fill: none; stroke: #b0b0b0; stroke-width: 0.8; stroke-linecap: square"/>
     </g>
     <g id="line2d_22">
      <g>
       <use xlink:href="#mf666021f02" x="63" y="217.708289" style="stroke: #000000; stroke-width: 0.8"/>
      </g>
     </g>
     <g id="text_12">
      <!-- 0.06 -->
      <g transform="translate(36 221.145789)scale(0.1 -0.1)">
       <use xlink:href="#SimHei-30"/>
       <use xlink:href="#SimHei-2e" x="50"/>
       <use xlink:href="#SimHei-30" x="100"/>
       <use xlink:href="#SimHei-36" x="150"/>
      </g>
     </g>
    </g>
    <g id="ytick_4">
     <g id="line2d_23">
      <path d="M 63 178.864496 
L 453.6 178.864496 
" clip-path="url(#p5d4e166d9f)" style="fill: none; stroke: #b0b0b0; stroke-width: 0.8; stroke-linecap: square"/>
     </g>
     <g id="line2d_24">
      <g>
       <use xlink:href="#mf666021f02" x="63" y="178.864496" style="stroke: #000000; stroke-width: 0.8"/>
      </g>
     </g>
     <g id="text_13">
      <!-- 0.08 -->
      <g transform="translate(36 182.301996)scale(0.1 -0.1)">
       <use xlink:href="#SimHei-30"/>
       <use xlink:href="#SimHei-2e" x="50"/>
       <use xlink:href="#SimHei-30" x="100"/>
       <use xlink:href="#SimHei-38" x="150"/>
      </g>
     </g>
    </g>
    <g id="ytick_5">
     <g id="line2d_25">
      <path d="M 63 140.020702 
L 453.6 140.020702 
" clip-path="url(#p5d4e166d9f)" style="fill: none; stroke: #b0b0b0; stroke-width: 0.8; stroke-linecap: square"/>
     </g>
     <g id="line2d_26">
      <g>
       <use xlink:href="#mf666021f02" x="63" y="140.020702" style="stroke: #000000; stroke-width: 0.8"/>
      </g>
     </g>
     <g id="text_14">
      <!-- 0.10 -->
      <g transform="translate(36 143.458202)scale(0.1 -0.1)">
       <use xlink:href="#SimHei-30"/>
       <use xlink:href="#SimHei-2e" x="50"/>
       <use xlink:href="#SimHei-31" x="100"/>
       <use xlink:href="#SimHei-30" x="150"/>
      </g>
     </g>
    </g>
    <g id="ytick_6">
     <g id="line2d_27">
      <path d="M 63 101.176909 
L 453.6 101.176909 
" clip-path="url(#p5d4e166d9f)" style="fill: none; stroke: #b0b0b0; stroke-width: 0.8; stroke-linecap: square"/>
     </g>
     <g id="line2d_28">
      <g>
       <use xlink:href="#mf666021f02" x="63" y="101.176909" style="stroke: #000000; stroke-width: 0.8"/>
      </g>
     </g>
     <g id="text_15">
      <!-- 0.12 -->
      <g transform="translate(36 104.614409)scale(0.1 -0.1)">
       <use xlink:href="#SimHei-30"/>
       <use xlink:href="#SimHei-2e" x="50"/>
       <use xlink:href="#SimHei-31" x="100"/>
       <use xlink:href="#SimHei-32" x="150"/>
      </g>
     </g>
    </g>
    <g id="ytick_7">
     <g id="line2d_29">
      <path d="M 63 62.333116 
L 453.6 62.333116 
" clip-path="url(#p5d4e166d9f)" style="fill: none; stroke: #b0b0b0; stroke-width: 0.8; stroke-linecap: square"/>
     </g>
     <g id="line2d_30">
      <g>
       <use xlink:href="#mf666021f02" x="63" y="62.333116" style="stroke: #000000; stroke-width: 0.8"/>
      </g>
     </g>
     <g id="text_16">
      <!-- 0.14 -->
      <g transform="translate(36 65.770616)scale(0.1 -0.1)">
       <use xlink:href="#SimHei-30"/>
       <use xlink:href="#SimHei-2e" x="50"/>
       <use xlink:href="#SimHei-31" x="100"/>
       <use xlink:href="#SimHei-34" x="150"/>
      </g>
     </g>
    </g>
    <g id="text_17">
     <!-- loss -->
     <g transform="translate(30.75 191.8)rotate(-90)scale(0.1 -0.1)">
      <defs>
       <path id="SimHei-6c" d="M 1825 125 
L 1325 125 
L 1325 4400 
L 1825 4400 
L 1825 125 
z
" transform="scale(0.015625)"/>
       <path id="SimHei-73" d="M 2750 900 
Q 2750 500 2437 287 
Q 2125 75 1650 75 
Q 1050 75 725 312 
Q 400 550 400 1000 
L 900 1000 
Q 900 700 1112 600 
Q 1325 500 1625 500 
Q 1925 500 2075 612 
Q 2225 725 2225 900 
Q 2225 1025 2100 1150 
Q 1975 1275 1475 1350 
Q 900 1425 687 1637 
Q 475 1850 475 2200 
Q 475 2500 762 2737 
Q 1050 2975 1600 2975 
Q 2100 2975 2387 2750 
Q 2675 2525 2675 2150 
L 2175 2150 
Q 2175 2375 2012 2462 
Q 1850 2550 1600 2550 
Q 1275 2550 1137 2437 
Q 1000 2325 1000 2175 
Q 1000 2000 1125 1900 
Q 1250 1800 1650 1750 
Q 2300 1650 2525 1437 
Q 2750 1225 2750 900 
z
" transform="scale(0.015625)"/>
      </defs>
      <use xlink:href="#SimHei-6c"/>
      <use xlink:href="#SimHei-6f" x="50"/>
      <use xlink:href="#SimHei-73" x="100"/>
      <use xlink:href="#SimHei-73" x="150"/>
     </g>
    </g>
   </g>
   <g id="line2d_31">
    <path d="M 65.604 160.293266 
L 68.208 238.303752 
L 70.812 264.530485 
L 73.416 241.126797 
L 76.02 284.906196 
L 78.624 245.405945 
L 81.228 289.546299 
L 83.832 287.490067 
L 86.436 271.44203 
L 89.04 279.276349 
L 91.644 257.3876 
L 94.248 284.627073 
L 96.852 289.976567 
L 99.456 293.364704 
L 102.06 275.428684 
L 104.664 298.243985 
L 109.872 278.328415 
L 112.476 293.995525 
L 115.08 281.47532 
L 117.684 275.209261 
L 120.288 294.983249 
L 122.892 261.881294 
L 125.496 298.138988 
L 128.1 283.201539 
L 130.704 299.128494 
L 133.308 290.970548 
L 135.912 278.080989 
L 138.516 292.151958 
L 141.12 286.403684 
L 143.724 296.645338 
L 146.328 268.35448 
L 148.932 269.566632 
L 151.536 293.94664 
L 154.14 298.463784 
L 156.744 297.305693 
L 159.348 298.40418 
L 161.952 296.837324 
L 164.556 299.430883 
L 167.16 300.218849 
L 169.764 292.816246 
L 172.368 299.574354 
L 177.576 302.057384 
L 180.18 295.638202 
L 182.784 302.805386 
L 185.388 300.078359 
L 187.992 303.201793 
L 190.596 299.150092 
L 193.2 303.756141 
L 195.804 301.263138 
L 198.408 302.815722 
L 201.012 299.358896 
L 203.616 300.714657 
L 206.22 298.194554 
L 208.824 300.702328 
L 211.428 304.848414 
L 214.032 297.753332 
L 216.636 302.405593 
L 219.24 303.578484 
L 221.844 302.75614 
L 224.448 304.374281 
L 227.052 306.276612 
L 229.656 304.883951 
L 232.26 301.089261 
L 234.864 305.430995 
L 237.468 300.780353 
L 240.072 300.13763 
L 242.676 302.98775 
L 247.884 306.414548 
L 250.488 305.110585 
L 253.092 304.143294 
L 255.696 302.701811 
L 258.3 304.724474 
L 260.904 304.903792 
L 263.508 304.537531 
L 266.112 305.690722 
L 268.716 305.161717 
L 271.32 305.426954 
L 273.924 301.912549 
L 276.528 299.102469 
L 279.132 300.214776 
L 281.736 301.817996 
L 284.34 305.028041 
L 286.944 301.937681 
L 289.548 304.52571 
L 292.152 305.36476 
L 294.756 304.877405 
L 297.36 303.646137 
L 302.568 305.80496 
L 305.172 306.391467 
L 307.776 304.203562 
L 310.38 306.271596 
L 312.984 306.448973 
L 315.588 306.032034 
L 318.192 306.277862 
L 320.796 307.105196 
L 326.004 307.433464 
L 328.608 307.8 
L 331.212 304.378338 
L 333.816 304.548228 
L 336.42 303.868949 
L 339.024 304.008909 
L 344.232 305.175221 
L 349.44 305.137488 
L 352.044 306.495846 
L 354.648 306.768686 
L 357.252 303.815228 
L 359.856 305.036759 
L 362.46 305.884986 
L 365.064 306.462407 
L 370.272 305.793044 
L 372.876 305.919219 
L 375.48 305.579527 
L 378.084 306.484416 
L 380.688 306.433589 
L 383.292 305.928382 
L 388.5 305.487446 
L 391.104 306.133772 
L 393.708 305.048542 
L 396.312 304.64314 
L 398.916 304.911147 
L 401.52 305.826601 
L 406.728 305.914451 
L 409.332 306.061961 
L 411.936 306.47604 
L 414.54 306.628397 
L 417.144 306.4904 
L 419.748 306.803891 
L 422.352 306.887986 
L 424.956 306.426162 
L 427.56 307.029127 
L 430.164 306.490715 
L 432.768 306.449481 
L 435.372 307.155049 
L 437.976 306.816316 
L 440.58 305.888616 
L 443.184 307.029599 
L 445.788 306.401291 
L 448.392 306.224609 
L 450.996 307.381949 
L 453.6 306.594384 
L 453.6 306.594384 
" clip-path="url(#p5d4e166d9f)" style="fill: none; stroke: #0000ff; stroke-width: 1.5; stroke-linecap: square"/>
   </g>
   <g id="line2d_32">
    <path d="M 65.604 55.8 
L 68.208 156.948684 
L 70.812 224.805356 
L 73.416 172.116021 
L 76.02 224.55684 
L 78.624 188.362086 
L 81.228 241.713718 
L 83.832 232.730281 
L 86.436 193.748679 
L 89.04 221.801878 
L 91.644 186.29701 
L 94.248 209.488351 
L 96.852 240.89765 
L 99.456 249.22264 
L 102.06 216.923726 
L 104.664 237.786998 
L 107.268 223.204983 
L 109.872 250.094918 
L 115.08 235.424583 
L 117.684 215.224708 
L 120.288 246.760885 
L 122.892 182.856445 
L 125.496 244.121209 
L 128.1 222.890294 
L 130.704 243.74578 
L 133.308 232.776181 
L 135.912 207.452099 
L 138.516 232.332973 
L 141.12 207.608973 
L 143.724 230.210297 
L 146.328 189.201516 
L 148.932 173.241662 
L 151.536 214.634278 
L 154.14 224.273176 
L 156.744 230.583214 
L 159.348 224.632955 
L 161.952 224.405183 
L 164.556 229.598892 
L 167.16 228.914107 
L 169.764 204.781087 
L 172.368 225.607242 
L 174.972 233.689114 
L 177.576 235.487804 
L 180.18 216.288011 
L 182.784 237.7978 
L 185.388 224.401269 
L 187.992 234.088975 
L 190.596 228.173488 
L 193.2 234.114009 
L 195.804 234.778788 
L 198.408 233.387021 
L 201.012 233.523152 
L 203.616 235.012312 
L 206.22 229.145041 
L 208.824 238.851783 
L 211.428 239.318549 
L 214.032 231.161714 
L 216.636 243.127871 
L 219.24 234.035919 
L 221.844 238.163598 
L 227.052 238.398251 
L 229.656 238.816975 
L 232.26 233.625581 
L 234.864 242.973037 
L 237.468 238.814225 
L 240.072 236.650685 
L 242.676 237.149806 
L 245.28 237.789183 
L 247.884 242.976517 
L 250.488 235.818576 
L 253.092 236.618871 
L 255.696 231.12349 
L 258.3 237.792923 
L 260.904 239.325459 
L 263.508 238.523304 
L 266.112 235.309767 
L 268.716 238.485544 
L 271.32 242.139916 
L 273.924 228.771067 
L 276.528 230.072972 
L 279.132 233.79757 
L 281.736 235.933349 
L 284.34 242.998071 
L 286.944 235.31609 
L 289.548 236.638066 
L 292.152 239.672134 
L 294.756 238.350375 
L 297.36 236.803152 
L 299.964 240.23926 
L 302.568 240.466301 
L 305.172 241.62699 
L 307.776 232.327199 
L 310.38 239.080018 
L 312.984 239.848334 
L 315.588 238.90243 
L 318.192 239.77159 
L 320.796 242.130409 
L 323.4 242.861202 
L 326.004 243.448029 
L 328.608 244.76018 
L 331.212 234.576651 
L 333.816 241.673476 
L 336.42 241.495526 
L 339.024 242.298498 
L 341.628 244.340545 
L 344.232 242.459206 
L 346.836 241.286363 
L 349.44 241.551512 
L 352.044 243.659088 
L 354.648 244.514479 
L 357.252 236.10771 
L 359.856 237.941325 
L 362.46 239.546922 
L 365.064 241.909923 
L 367.668 240.377952 
L 370.272 240.884584 
L 372.876 241.526861 
L 375.48 239.929773 
L 378.084 242.152267 
L 380.688 241.520929 
L 383.292 239.745275 
L 385.896 240.430053 
L 388.5 239.805342 
L 391.104 242.005052 
L 393.708 239.093773 
L 396.312 237.107951 
L 398.916 238.037684 
L 401.52 240.991383 
L 404.124 240.236055 
L 406.728 241.521978 
L 409.332 239.435 
L 411.936 241.125321 
L 414.54 241.206522 
L 417.144 240.657043 
L 419.748 241.495801 
L 422.352 242.09924 
L 424.956 239.660341 
L 427.56 242.225856 
L 430.164 240.556727 
L 432.768 240.209038 
L 435.372 241.477828 
L 437.976 240.83788 
L 440.58 237.607485 
L 443.184 241.330729 
L 445.788 239.06222 
L 448.392 238.52028 
L 450.996 242.257069 
L 453.6 239.782558 
L 453.6 239.782558 
" clip-path="url(#p5d4e166d9f)" style="fill: none; stroke-dasharray: 5.55,2.4; stroke-dashoffset: 0; stroke: #bf00bf; stroke-width: 1.5"/>
   </g>
   <g id="line2d_33">
    <path d="M 65.604 160.293266 
L 68.208 238.303752 
L 70.812 264.530485 
L 73.416 241.126797 
L 76.02 284.906196 
L 78.624 245.405945 
L 81.228 289.546299 
L 83.832 287.490067 
L 86.436 271.44203 
L 89.04 279.276349 
L 91.644 257.3876 
L 94.248 284.627073 
L 96.852 289.976567 
L 99.456 293.364704 
L 102.06 275.428684 
L 104.664 298.243985 
L 109.872 278.328415 
L 112.476 293.995525 
L 115.08 281.47532 
L 117.684 275.209261 
L 120.288 294.983249 
L 122.892 261.881294 
L 125.496 298.138988 
L 128.1 283.201539 
L 130.704 299.128494 
L 133.308 290.970548 
L 135.912 278.080989 
L 138.516 292.151958 
L 141.12 286.403684 
L 143.724 296.645338 
L 146.328 268.35448 
L 148.932 269.566632 
L 151.536 293.94664 
L 154.14 298.463784 
L 156.744 297.305693 
L 159.348 298.40418 
L 161.952 296.837324 
L 164.556 299.430883 
L 167.16 300.218849 
L 169.764 292.816246 
L 172.368 299.574354 
L 177.576 302.057384 
L 180.18 295.638202 
L 182.784 302.805386 
L 185.388 300.078359 
L 187.992 303.201793 
L 190.596 299.150092 
L 193.2 303.756141 
L 195.804 301.263138 
L 198.408 302.815722 
L 201.012 299.358896 
L 203.616 300.714657 
L 206.22 298.194554 
L 208.824 300.702328 
L 211.428 304.848414 
L 214.032 297.753332 
L 216.636 302.405593 
L 219.24 303.578484 
L 221.844 302.75614 
L 224.448 304.374281 
L 227.052 306.276612 
L 229.656 304.883951 
L 232.26 301.089261 
L 234.864 305.430995 
L 237.468 300.780353 
L 240.072 300.13763 
L 242.676 302.98775 
L 247.884 306.414548 
L 250.488 305.110585 
L 253.092 304.143294 
L 255.696 302.701811 
L 258.3 304.724474 
L 260.904 304.903792 
L 263.508 304.537531 
L 266.112 305.690722 
L 268.716 305.161717 
L 271.32 305.426954 
L 273.924 301.912549 
L 276.528 299.102469 
L 279.132 300.214776 
L 281.736 301.817996 
L 284.34 305.028041 
L 286.944 301.937681 
L 289.548 304.52571 
L 292.152 305.36476 
L 294.756 304.877405 
L 297.36 303.646137 
L 302.568 305.80496 
L 305.172 306.391467 
L 307.776 304.203562 
L 310.38 306.271596 
L 312.984 306.448973 
L 315.588 306.032034 
L 318.192 306.277862 
L 320.796 307.105196 
L 326.004 307.433464 
L 328.608 307.8 
L 331.212 304.378338 
L 333.816 304.548228 
L 336.42 303.868949 
L 339.024 304.008909 
L 344.232 305.175221 
L 349.44 305.137488 
L 352.044 306.495846 
L 354.648 306.768686 
L 357.252 303.815228 
L 359.856 305.036759 
L 362.46 305.884986 
L 365.064 306.462407 
L 370.272 305.793044 
L 372.876 305.919219 
L 375.48 305.579527 
L 378.084 306.484416 
L 380.688 306.433589 
L 383.292 305.928382 
L 388.5 305.487446 
L 391.104 306.133772 
L 393.708 305.048542 
L 396.312 304.64314 
L 398.916 304.911147 
L 401.52 305.826601 
L 406.728 305.914451 
L 409.332 306.061961 
L 411.936 306.47604 
L 414.54 306.628397 
L 417.144 306.4904 
L 419.748 306.803891 
L 422.352 306.887986 
L 424.956 306.426162 
L 427.56 307.029127 
L 430.164 306.490715 
L 432.768 306.449481 
L 435.372 307.155049 
L 437.976 306.816316 
L 440.58 305.888616 
L 443.184 307.029599 
L 445.788 306.401291 
L 448.392 306.224609 
L 450.996 307.381949 
L 453.6 306.594384 
L 453.6 306.594384 
" clip-path="url(#p5d4e166d9f)" style="fill: none; stroke: #0000ff; stroke-width: 1.5; stroke-linecap: square"/>
   </g>
   <g id="line2d_34">
    <path d="M 65.604 55.8 
L 68.208 156.948684 
L 70.812 224.805356 
L 73.416 172.116021 
L 76.02 224.55684 
L 78.624 188.362086 
L 81.228 241.713718 
L 83.832 232.730281 
L 86.436 193.748679 
L 89.04 221.801878 
L 91.644 186.29701 
L 94.248 209.488351 
L 96.852 240.89765 
L 99.456 249.22264 
L 102.06 216.923726 
L 104.664 237.786998 
L 107.268 223.204983 
L 109.872 250.094918 
L 115.08 235.424583 
L 117.684 215.224708 
L 120.288 246.760885 
L 122.892 182.856445 
L 125.496 244.121209 
L 128.1 222.890294 
L 130.704 243.74578 
L 133.308 232.776181 
L 135.912 207.452099 
L 138.516 232.332973 
L 141.12 207.608973 
L 143.724 230.210297 
L 146.328 189.201516 
L 148.932 173.241662 
L 151.536 214.634278 
L 154.14 224.273176 
L 156.744 230.583214 
L 159.348 224.632955 
L 161.952 224.405183 
L 164.556 229.598892 
L 167.16 228.914107 
L 169.764 204.781087 
L 172.368 225.607242 
L 174.972 233.689114 
L 177.576 235.487804 
L 180.18 216.288011 
L 182.784 237.7978 
L 185.388 224.401269 
L 187.992 234.088975 
L 190.596 228.173488 
L 193.2 234.114009 
L 195.804 234.778788 
L 198.408 233.387021 
L 201.012 233.523152 
L 203.616 235.012312 
L 206.22 229.145041 
L 208.824 238.851783 
L 211.428 239.318549 
L 214.032 231.161714 
L 216.636 243.127871 
L 219.24 234.035919 
L 221.844 238.163598 
L 227.052 238.398251 
L 229.656 238.816975 
L 232.26 233.625581 
L 234.864 242.973037 
L 237.468 238.814225 
L 240.072 236.650685 
L 242.676 237.149806 
L 245.28 237.789183 
L 247.884 242.976517 
L 250.488 235.818576 
L 253.092 236.618871 
L 255.696 231.12349 
L 258.3 237.792923 
L 260.904 239.325459 
L 263.508 238.523304 
L 266.112 235.309767 
L 268.716 238.485544 
L 271.32 242.139916 
L 273.924 228.771067 
L 276.528 230.072972 
L 279.132 233.79757 
L 281.736 235.933349 
L 284.34 242.998071 
L 286.944 235.31609 
L 289.548 236.638066 
L 292.152 239.672134 
L 294.756 238.350375 
L 297.36 236.803152 
L 299.964 240.23926 
L 302.568 240.466301 
L 305.172 241.62699 
L 307.776 232.327199 
L 310.38 239.080018 
L 312.984 239.848334 
L 315.588 238.90243 
L 318.192 239.77159 
L 320.796 242.130409 
L 323.4 242.861202 
L 326.004 243.448029 
L 328.608 244.76018 
L 331.212 234.576651 
L 333.816 241.673476 
L 336.42 241.495526 
L 339.024 242.298498 
L 341.628 244.340545 
L 344.232 242.459206 
L 346.836 241.286363 
L 349.44 241.551512 
L 352.044 243.659088 
L 354.648 244.514479 
L 357.252 236.10771 
L 359.856 237.941325 
L 362.46 239.546922 
L 365.064 241.909923 
L 367.668 240.377952 
L 370.272 240.884584 
L 372.876 241.526861 
L 375.48 239.929773 
L 378.084 242.152267 
L 380.688 241.520929 
L 383.292 239.745275 
L 385.896 240.430053 
L 388.5 239.805342 
L 391.104 242.005052 
L 393.708 239.093773 
L 396.312 237.107951 
L 398.916 238.037684 
L 401.52 240.991383 
L 404.124 240.236055 
L 406.728 241.521978 
L 409.332 239.435 
L 411.936 241.125321 
L 414.54 241.206522 
L 417.144 240.657043 
L 419.748 241.495801 
L 422.352 242.09924 
L 424.956 239.660341 
L 427.56 242.225856 
L 430.164 240.556727 
L 432.768 240.209038 
L 435.372 241.477828 
L 437.976 240.83788 
L 440.58 237.607485 
L 443.184 241.330729 
L 445.788 239.06222 
L 448.392 238.52028 
L 450.996 242.257069 
L 453.6 239.782558 
L 453.6 239.782558 
" clip-path="url(#p5d4e166d9f)" style="fill: none; stroke-dasharray: 5.55,2.4; stroke-dashoffset: 0; stroke: #bf00bf; stroke-width: 1.5"/>
   </g>
   <g id="patch_3">
    <path d="M 63 320.4 
L 63 43.2 
" style="fill: none; stroke: #000000; stroke-width: 0.8; stroke-linejoin: miter; stroke-linecap: square"/>
   </g>
   <g id="patch_4">
    <path d="M 453.6 320.4 
L 453.6 43.2 
" style="fill: none; stroke: #000000; stroke-width: 0.8; stroke-linejoin: miter; stroke-linecap: square"/>
   </g>
   <g id="patch_5">
    <path d="M 63 320.4 
L 453.6 320.4 
" style="fill: none; stroke: #000000; stroke-width: 0.8; stroke-linejoin: miter; stroke-linecap: square"/>
   </g>
   <g id="patch_6">
    <path d="M 63 43.2 
L 453.6 43.2 
" style="fill: none; stroke: #000000; stroke-width: 0.8; stroke-linejoin: miter; stroke-linecap: square"/>
   </g>
   <g id="text_18">
    <!-- TransformerWithLinear 模型 MSELoss_scale 损失值 -->
    <g transform="translate(117.3 37.2)scale(0.12 -0.12)">
     <defs>
      <path id="SimHei-54" d="M 2850 3925 
L 1850 3925 
L 1850 125 
L 1275 125 
L 1275 3925 
L 275 3925 
L 275 4400 
L 2850 4400 
L 2850 3925 
z
" transform="scale(0.015625)"/>
      <path id="SimHei-72" d="M 2500 2425 
Q 2025 2500 1700 2287 
Q 1375 2075 1150 1550 
L 1150 125 
L 650 125 
L 650 2925 
L 1150 2925 
L 1150 2200 
Q 1375 2600 1712 2787 
Q 2050 2975 2500 2975 
L 2500 2425 
z
" transform="scale(0.015625)"/>
      <path id="SimHei-61" d="M 2875 125 
L 2275 125 
Q 2225 175 2200 262 
Q 2175 350 2175 475 
Q 2000 275 1750 175 
Q 1500 75 1225 75 
Q 825 75 550 275 
Q 275 475 275 850 
Q 275 1225 525 1450 
Q 775 1675 1300 1750 
Q 1650 1800 1912 1875 
Q 2175 1950 2175 2075 
Q 2175 2225 2062 2375 
Q 1950 2525 1575 2525 
Q 1275 2525 1137 2412 
Q 1000 2300 950 2100 
L 400 2100 
Q 450 2500 762 2737 
Q 1075 2975 1575 2975 
Q 2125 2975 2400 2725 
Q 2675 2475 2675 2025 
L 2675 650 
Q 2675 500 2725 375 
Q 2775 250 2875 125 
z
M 2175 1050 
L 2175 1550 
Q 2025 1500 1887 1462 
Q 1750 1425 1425 1375 
Q 1050 1325 937 1200 
Q 825 1075 825 900 
Q 825 750 937 637 
Q 1050 525 1275 525 
Q 1500 525 1762 650 
Q 2025 775 2175 1050 
z
" transform="scale(0.015625)"/>
      <path id="SimHei-6e" d="M 2800 125 
L 2300 125 
L 2300 1925 
Q 2300 2225 2150 2400 
Q 2000 2575 1750 2575 
Q 1425 2575 1137 2237 
Q 850 1900 850 1400 
L 850 125 
L 350 125 
L 350 2925 
L 850 2925 
L 850 2400 
Q 1050 2675 1287 2825 
Q 1525 2975 1900 2975 
Q 2350 2975 2575 2725 
Q 2800 2475 2800 2100 
L 2800 125 
z
" transform="scale(0.015625)"/>
      <path id="SimHei-66" d="M 2850 3825 
Q 2725 3900 2550 3950 
Q 2375 4000 2100 4000 
Q 1825 4000 1725 3862 
Q 1625 3725 1625 3525 
L 1625 2925 
L 2650 2925 
L 2650 2525 
L 1625 2525 
L 1625 125 
L 1125 125 
L 1125 2525 
L 275 2525 
L 275 2925 
L 1125 2925 
L 1125 3500 
Q 1125 3950 1400 4200 
Q 1675 4450 2125 4450 
Q 2400 4450 2562 4412 
Q 2725 4375 2850 4325 
L 2850 3825 
z
" transform="scale(0.015625)"/>
      <path id="SimHei-6d" d="M 3050 125 
L 2550 125 
L 2550 2150 
Q 2550 2300 2500 2400 
Q 2450 2500 2300 2500 
Q 2125 2500 1975 2312 
Q 1825 2125 1825 1825 
L 1825 125 
L 1325 125 
L 1325 2150 
Q 1325 2300 1275 2400 
Q 1225 2500 1075 2500 
Q 900 2500 750 2312 
Q 600 2125 600 1825 
L 600 125 
L 100 125 
L 100 2925 
L 600 2925 
L 600 2550 
Q 725 2750 900 2862 
Q 1075 2975 1275 2975 
Q 1475 2975 1612 2862 
Q 1750 2750 1800 2550 
Q 1925 2750 2087 2862 
Q 2250 2975 2450 2975 
Q 2750 2975 2900 2812 
Q 3050 2650 3050 2350 
L 3050 125 
z
" transform="scale(0.015625)"/>
      <path id="SimHei-57" d="M 3075 4400 
L 2525 75 
L 2025 75 
L 1575 3275 
L 1525 3275 
L 1075 75 
L 575 75 
L 25 4400 
L 575 4400 
L 850 1675 
L 900 1675 
L 1275 4400 
L 1825 4400 
L 2200 1675 
L 2250 1675 
L 2525 4400 
L 3075 4400 
z
" transform="scale(0.015625)"/>
      <path id="SimHei-69" d="M 1800 3725 
L 1300 3725 
L 1300 4375 
L 1800 4375 
L 1800 3725 
z
M 1800 125 
L 1300 125 
L 1300 2925 
L 1800 2925 
L 1800 125 
z
" transform="scale(0.015625)"/>
      <path id="SimHei-74" d="M 2750 200 
Q 2625 150 2462 112 
Q 2300 75 2025 75 
Q 1575 75 1300 325 
Q 1025 575 1025 1025 
L 1025 2525 
L 175 2525 
L 175 2925 
L 1025 2925 
L 1025 3900 
L 1525 3900 
L 1525 2925 
L 2550 2925 
L 2550 2525 
L 1525 2525 
L 1525 1000 
Q 1525 800 1625 662 
Q 1725 525 2000 525 
Q 2275 525 2450 575 
Q 2625 625 2750 700 
L 2750 200 
z
" transform="scale(0.015625)"/>
      <path id="SimHei-4c" d="M 2900 125 
L 300 125 
L 300 4400 
L 875 4400 
L 875 600 
L 2900 600 
L 2900 125 
z
" transform="scale(0.015625)"/>
      <path id="SimHei-20" transform="scale(0.015625)"/>
      <path id="SimHei-6a21" d="M 5700 3675 
Q 5675 3400 5675 2725 
Q 5675 2050 5700 1725 
L 4375 1725 
Q 4350 1450 4325 1200 
L 5225 1200 
Q 5750 1200 6025 1225 
L 6025 825 
Q 5725 850 5225 850 
L 4700 850 
Q 5075 375 5437 137 
Q 5800 -100 6200 -200 
Q 5975 -375 5850 -625 
Q 5275 -400 4862 25 
Q 4450 450 4300 775 
L 4225 775 
Q 4000 275 3537 -62 
Q 3075 -400 2475 -625 
Q 2350 -375 2125 -200 
Q 2775 -75 3200 200 
Q 3625 475 3775 850 
L 3325 850 
Q 2800 850 2400 825 
L 2400 1225 
Q 2800 1200 3350 1200 
L 3875 1200 
Q 3925 1475 3925 1725 
L 2750 1725 
Q 2775 2075 2775 2700 
Q 2775 3350 2750 3675 
L 5700 3675 
z
M 2175 1650 
Q 2025 1975 1675 2525 
L 1675 300 
Q 1675 -300 1700 -550 
L 1175 -550 
Q 1200 -275 1200 250 
L 1200 2225 
Q 1125 2000 962 1712 
Q 800 1425 600 1050 
Q 450 1275 200 1425 
Q 600 1825 850 2425 
Q 1100 3025 1175 3425 
L 950 3425 
Q 700 3425 400 3400 
L 400 3825 
Q 675 3800 825 3800 
L 1200 3800 
L 1200 4350 
Q 1200 4775 1175 5150 
L 1700 5150 
Q 1675 4825 1675 4425 
L 1675 3800 
Q 2075 3800 2375 3825 
L 2375 3400 
Q 2050 3425 1675 3425 
L 1675 2575 
Q 1850 2675 2000 2775 
Q 2150 2525 2287 2325 
Q 2425 2125 2550 1925 
Q 2325 1775 2175 1650 
z
M 3375 4300 
L 3175 4300 
Q 2700 4300 2425 4275 
L 2425 4675 
Q 2700 4650 3150 4650 
L 3375 4650 
Q 3375 5000 3350 5225 
L 3825 5225 
Q 3800 5000 3800 4650 
L 4550 4650 
Q 4550 4975 4525 5200 
L 5025 5200 
Q 5000 4925 5000 4650 
L 5375 4650 
Q 5650 4650 5950 4675 
L 5950 4275 
Q 5650 4300 5375 4300 
L 5000 4300 
L 5000 3850 
L 4550 3850 
L 4550 4300 
L 3800 4300 
L 3800 3875 
L 3375 3875 
L 3375 4300 
z
M 5275 2075 
L 5275 2525 
L 3200 2525 
L 3200 2075 
L 5275 2075 
z
M 5275 2875 
L 5275 3325 
L 3200 3325 
L 3200 2875 
L 5275 2875 
z
" transform="scale(0.015625)"/>
      <path id="SimHei-578b" d="M 2625 1775 
Q 2650 2325 2650 2700 
L 2650 3000 
L 1825 3000 
Q 1725 2375 1425 2000 
Q 1125 1625 775 1425 
Q 650 1650 375 1900 
Q 850 2075 1062 2362 
Q 1275 2650 1350 3000 
Q 900 3000 375 2975 
L 375 3450 
Q 925 3425 1400 3425 
Q 1425 3950 1425 4475 
Q 1075 4475 700 4450 
L 700 4900 
Q 1050 4875 1525 4875 
L 3000 4875 
Q 3275 4875 3650 4900 
L 3650 4450 
Q 3325 4475 3125 4475 
L 3125 3425 
Q 3450 3425 3825 3450 
L 3825 2975 
Q 3450 3000 3125 3000 
L 3125 2675 
Q 3125 2225 3150 1775 
L 2625 1775 
z
M 3000 1175 
Q 3000 1375 2975 1725 
L 3500 1725 
Q 3475 1375 3475 1175 
L 4550 1175 
Q 5050 1175 5450 1200 
L 5450 725 
Q 4975 750 4550 750 
L 3475 750 
L 3475 -50 
L 5275 -50 
Q 5700 -50 6100 -25 
L 6100 -500 
Q 5725 -475 5300 -475 
L 1250 -475 
Q 775 -475 400 -500 
L 400 -25 
Q 775 -50 1250 -50 
L 3000 -50 
L 3000 750 
L 2025 750 
Q 1500 750 975 725 
L 1050 1200 
Q 1500 1175 2025 1175 
L 3000 1175 
z
M 5775 5200 
Q 5750 4775 5750 4325 
L 5750 2400 
Q 5775 1950 5612 1775 
Q 5450 1600 4900 1525 
Q 4825 1775 4675 2100 
Q 5175 2075 5237 2150 
Q 5300 2225 5300 2525 
L 5300 4325 
Q 5300 4775 5275 5200 
L 5775 5200 
z
M 4600 4750 
Q 4575 4450 4575 3975 
L 4575 3200 
Q 4575 2825 4600 2425 
L 4100 2425 
Q 4125 2825 4125 3200 
L 4125 3975 
Q 4125 4450 4100 4750 
L 4600 4750 
z
M 2650 3425 
L 2650 4475 
L 1875 4475 
Q 1850 3750 1850 3425 
L 2650 3425 
z
" transform="scale(0.015625)"/>
      <path id="SimHei-4d" d="M 2925 125 
L 2425 125 
L 2425 3175 
L 2375 3175 
L 1775 125 
L 1375 125 
L 775 3175 
L 725 3175 
L 725 125 
L 225 125 
L 225 4400 
L 1000 4400 
L 1550 1575 
L 1600 1575 
L 2150 4400 
L 2925 4400 
L 2925 125 
z
" transform="scale(0.015625)"/>
      <path id="SimHei-53" d="M 2900 1325 
Q 2900 750 2537 412 
Q 2175 75 1550 75 
Q 925 75 575 425 
Q 225 775 225 1300 
L 225 1475 
L 800 1475 
L 800 1325 
Q 800 950 1025 750 
Q 1250 550 1550 550 
Q 1950 550 2137 762 
Q 2325 975 2325 1275 
Q 2325 1525 2100 1737 
Q 1875 1950 1450 2125 
Q 850 2350 587 2625 
Q 325 2900 325 3275 
Q 325 3800 687 4125 
Q 1050 4450 1550 4450 
Q 2200 4450 2487 4062 
Q 2775 3675 2775 3225 
L 2200 3225 
Q 2225 3500 2050 3725 
Q 1875 3950 1550 3950 
Q 1250 3950 1075 3787 
Q 900 3625 900 3350 
Q 900 3125 1037 2962 
Q 1175 2800 1750 2575 
Q 2300 2350 2600 2037 
Q 2900 1725 2900 1325 
z
" transform="scale(0.015625)"/>
      <path id="SimHei-45" d="M 2900 125 
L 350 125 
L 350 4400 
L 2775 4400 
L 2775 3925 
L 925 3925 
L 925 2600 
L 2625 2600 
L 2625 2125 
L 925 2125 
L 925 600 
L 2900 600 
L 2900 125 
z
" transform="scale(0.015625)"/>
      <path id="SimHei-5f" d="M 3150 -850 
L 0 -850 
L 0 -550 
L 3150 -550 
L 3150 -850 
z
" transform="scale(0.015625)"/>
      <path id="SimHei-635f" d="M 1175 4600 
Q 1175 4950 1150 5250 
L 1675 5250 
Q 1650 4975 1650 4600 
L 1650 4075 
Q 1950 4075 2325 4100 
L 2325 3625 
Q 1950 3650 1650 3650 
L 1650 2500 
Q 1875 2550 2275 2750 
Q 2275 2550 2300 2300 
Q 2025 2200 1650 2025 
L 1650 175 
Q 1650 -225 1425 -325 
Q 1200 -425 625 -500 
Q 600 -250 450 50 
Q 800 25 987 37 
Q 1175 50 1175 350 
L 1175 1850 
Q 675 1675 400 1500 
Q 375 1800 250 2100 
Q 600 2150 1175 2350 
L 1175 3650 
Q 650 3650 325 3625 
L 325 4100 
Q 625 4075 1175 4075 
L 1175 4600 
z
M 5550 5025 
Q 5525 4650 5525 4275 
Q 5525 3925 5550 3525 
L 2900 3525 
Q 2925 3925 2925 4275 
Q 2925 4650 2900 5025 
L 5550 5025 
z
M 5775 3075 
Q 5750 2725 5750 2350 
L 5750 1725 
Q 5750 1350 5775 875 
L 5275 875 
L 5275 2650 
L 3150 2650 
L 3150 850 
L 2650 850 
Q 2675 1275 2675 1700 
L 2675 2325 
Q 2675 2600 2650 3075 
L 5775 3075 
z
M 4525 2200 
Q 4425 1825 4362 1337 
Q 4300 850 4125 537 
Q 3950 225 3600 -62 
Q 3250 -350 2425 -650 
Q 2325 -450 2050 -175 
Q 2750 -50 3137 200 
Q 3525 450 3700 762 
Q 3875 1075 3900 1462 
Q 3925 1850 3925 2275 
Q 4225 2225 4525 2200 
z
M 5100 3925 
L 5100 4650 
L 3375 4650 
L 3375 3925 
L 5100 3925 
z
M 4675 750 
Q 4975 575 5412 337 
Q 5850 100 6175 -125 
Q 5975 -325 5850 -550 
Q 5525 -300 5200 -87 
Q 4875 125 4375 350 
Q 4550 550 4675 750 
z
" transform="scale(0.015625)"/>
      <path id="SimHei-5931" d="M 2050 4450 
Q 1925 4325 1675 3750 
L 2950 3750 
Q 2950 4650 2925 5100 
Q 3175 5075 3500 5050 
Q 3450 4700 3437 4425 
Q 3425 4150 3425 3750 
L 4600 3750 
Q 5000 3750 5425 3775 
L 5425 3300 
Q 5025 3325 4600 3325 
L 3425 3325 
Q 3425 2775 3375 2200 
L 5050 2200 
Q 5425 2200 5875 2225 
L 5875 1750 
Q 5425 1775 5050 1775 
L 3575 1775 
Q 3875 1100 4600 675 
Q 5325 250 6025 100 
Q 5825 -150 5675 -475 
Q 4950 -200 4250 287 
Q 3550 775 3200 1475 
Q 2900 825 2325 300 
Q 1750 -225 775 -650 
Q 650 -400 400 -175 
Q 1250 50 1912 587 
Q 2575 1125 2775 1775 
L 1325 1775 
Q 925 1775 450 1750 
L 450 2225 
Q 925 2200 1325 2200 
L 2875 2200 
Q 2950 2725 2950 3325 
L 1500 3325 
Q 1200 2800 975 2450 
Q 775 2575 500 2675 
Q 950 3225 1187 3750 
Q 1425 4275 1500 4675 
Q 1800 4525 2050 4450 
z
" transform="scale(0.015625)"/>
      <path id="SimHei-503c" d="M 3675 4450 
L 3675 5100 
Q 3975 5075 4350 5050 
Q 4225 4875 4200 4450 
L 5125 4450 
Q 5550 4450 5875 4475 
L 5875 4025 
Q 5525 4050 5125 4050 
L 4175 4050 
L 4125 3500 
L 5400 3500 
Q 5375 3200 5375 2700 
L 5375 150 
Q 5875 150 6100 175 
L 6100 -275 
Q 5775 -250 5200 -250 
L 2850 -250 
Q 2275 -250 1900 -275 
L 1900 175 
Q 2125 150 2600 150 
L 2600 2700 
Q 2600 3175 2575 3500 
L 3600 3500 
L 3650 4050 
L 3200 4050 
Q 2575 4050 2225 4025 
L 2225 4475 
Q 2550 4450 3200 4450 
L 3675 4450 
z
M 2225 4900 
Q 2025 4675 1650 3750 
L 1650 450 
Q 1650 -75 1675 -550 
L 1150 -550 
Q 1175 -125 1175 375 
L 1175 2950 
Q 875 2450 625 2150 
Q 425 2425 250 2575 
Q 500 2825 937 3537 
Q 1375 4250 1625 5150 
Q 1975 4975 2225 4900 
z
M 4925 2650 
L 4925 3150 
L 3075 3150 
L 3075 2650 
L 4925 2650 
z
M 4925 150 
L 4925 625 
L 3075 625 
L 3075 150 
L 4925 150 
z
M 4925 1000 
L 4925 1450 
L 3075 1450 
L 3075 1000 
L 4925 1000 
z
M 4925 1825 
L 4925 2275 
L 3075 2275 
L 3075 1825 
L 4925 1825 
z
" transform="scale(0.015625)"/>
     </defs>
     <use xlink:href="#SimHei-54"/>
     <use xlink:href="#SimHei-72" x="50"/>
     <use xlink:href="#SimHei-61" x="100"/>
     <use xlink:href="#SimHei-6e" x="150"/>
     <use xlink:href="#SimHei-73" x="200"/>
     <use xlink:href="#SimHei-66" x="250"/>
     <use xlink:href="#SimHei-6f" x="300"/>
     <use xlink:href="#SimHei-72" x="350"/>
     <use xlink:href="#SimHei-6d" x="400"/>
     <use xlink:href="#SimHei-65" x="450"/>
     <use xlink:href="#SimHei-72" x="500"/>
     <use xlink:href="#SimHei-57" x="550"/>
     <use xlink:href="#SimHei-69" x="600"/>
     <use xlink:href="#SimHei-74" x="650"/>
     <use xlink:href="#SimHei-68" x="700"/>
     <use xlink:href="#SimHei-4c" x="750"/>
     <use xlink:href="#SimHei-69" x="800"/>
     <use xlink:href="#SimHei-6e" x="850"/>
     <use xlink:href="#SimHei-65" x="900"/>
     <use xlink:href="#SimHei-61" x="950"/>
     <use xlink:href="#SimHei-72" x="1000"/>
     <use xlink:href="#SimHei-20" x="1050"/>
     <use xlink:href="#SimHei-6a21" x="1100"/>
     <use xlink:href="#SimHei-578b" x="1200"/>
     <use xlink:href="#SimHei-20" x="1300"/>
     <use xlink:href="#SimHei-4d" x="1350"/>
     <use xlink:href="#SimHei-53" x="1400"/>
     <use xlink:href="#SimHei-45" x="1450"/>
     <use xlink:href="#SimHei-4c" x="1500"/>
     <use xlink:href="#SimHei-6f" x="1550"/>
     <use xlink:href="#SimHei-73" x="1600"/>
     <use xlink:href="#SimHei-73" x="1650"/>
     <use xlink:href="#SimHei-5f" x="1700"/>
     <use xlink:href="#SimHei-73" x="1750"/>
     <use xlink:href="#SimHei-63" x="1800"/>
     <use xlink:href="#SimHei-61" x="1850"/>
     <use xlink:href="#SimHei-6c" x="1900"/>
     <use xlink:href="#SimHei-65" x="1950"/>
     <use xlink:href="#SimHei-20" x="2000"/>
     <use xlink:href="#SimHei-635f" x="2050"/>
     <use xlink:href="#SimHei-5931" x="2150"/>
     <use xlink:href="#SimHei-503c" x="2250"/>
    </g>
   </g>
   <g id="legend_1">
    <g id="patch_7">
     <path d="M 389.6 77.7 
L 446.6 77.7 
Q 448.6 77.7 448.6 75.7 
L 448.6 50.2 
Q 448.6 48.2 446.6 48.2 
L 389.6 48.2 
Q 387.6 48.2 387.6 50.2 
L 387.6 75.7 
Q 387.6 77.7 389.6 77.7 
z
" style="fill: #ffffff; opacity: 0.8; stroke: #cccccc; stroke-linejoin: miter"/>
    </g>
    <g id="line2d_35">
     <path d="M 391.6 55.7 
L 401.6 55.7 
L 411.6 55.7 
" style="fill: none; stroke: #0000ff; stroke-width: 1.5; stroke-linecap: square"/>
    </g>
    <g id="text_19">
     <!-- train -->
     <g transform="translate(419.6 59.2)scale(0.1 -0.1)">
      <use xlink:href="#SimHei-74"/>
      <use xlink:href="#SimHei-72" x="50"/>
      <use xlink:href="#SimHei-61" x="100"/>
      <use xlink:href="#SimHei-69" x="150"/>
      <use xlink:href="#SimHei-6e" x="200"/>
     </g>
    </g>
    <g id="line2d_36">
     <path d="M 391.6 68.95 
L 401.6 68.95 
L 411.6 68.95 
" style="fill: none; stroke-dasharray: 5.55,2.4; stroke-dashoffset: 0; stroke: #bf00bf; stroke-width: 1.5"/>
    </g>
    <g id="text_20">
     <!-- valid -->
     <g transform="translate(419.6 72.45)scale(0.1 -0.1)">
      <defs>
       <path id="SimHei-76" d="M 2875 2925 
L 1825 75 
L 1275 75 
L 225 2925 
L 750 2925 
L 1525 750 
L 1575 750 
L 2350 2925 
L 2875 2925 
z
" transform="scale(0.015625)"/>
       <path id="SimHei-64" d="M 2750 125 
L 2250 125 
L 2250 500 
Q 2100 275 1900 175 
Q 1700 75 1425 75 
Q 925 75 575 437 
Q 225 800 225 1525 
Q 225 2250 575 2625 
Q 925 3000 1425 3000 
Q 1700 3000 1900 2887 
Q 2100 2775 2250 2550 
L 2250 4400 
L 2750 4400 
L 2750 125 
z
M 2250 1525 
Q 2250 2000 2037 2275 
Q 1825 2550 1525 2550 
Q 1150 2550 962 2275 
Q 775 2000 775 1525 
Q 775 1050 962 787 
Q 1150 525 1525 525 
Q 1825 525 2037 787 
Q 2250 1050 2250 1525 
z
" transform="scale(0.015625)"/>
      </defs>
      <use xlink:href="#SimHei-76"/>
      <use xlink:href="#SimHei-61" x="50"/>
      <use xlink:href="#SimHei-6c" x="100"/>
      <use xlink:href="#SimHei-69" x="150"/>
      <use xlink:href="#SimHei-64" x="200"/>
     </g>
    </g>
   </g>
  </g>
 </g>
 <defs>
  <clipPath id="p5d4e166d9f">
   <rect x="63" y="43.2" width="390.6" height="277.2"/>
  </clipPath>
 </defs>
</svg>
