<?xml version="1.0" encoding="utf-8" standalone="no"?>
<!DOCTYPE svg PUBLIC "-//W3C//DTD SVG 1.1//EN"
  "http://www.w3.org/Graphics/SVG/1.1/DTD/svg11.dtd">
<svg xmlns:xlink="http://www.w3.org/1999/xlink" width="504pt" height="360pt" viewBox="0 0 504 360" xmlns="http://www.w3.org/2000/svg" version="1.1">
 <metadata>
  <rdf:RDF xmlns:dc="http://purl.org/dc/elements/1.1/" xmlns:cc="http://creativecommons.org/ns#" xmlns:rdf="http://www.w3.org/1999/02/22-rdf-syntax-ns#">
   <cc:Work>
    <dc:type rdf:resource="http://purl.org/dc/dcmitype/StillImage"/>
    <dc:date>2025-01-12T16:09:30.823923</dc:date>
    <dc:format>image/svg+xml</dc:format>
    <dc:creator>
     <cc:Agent>
      <dc:title>Matplotlib v3.5.3, https://matplotlib.org/</dc:title>
     </cc:Agent>
    </dc:creator>
   </cc:Work>
  </rdf:RDF>
 </metadata>
 <defs>
  <style type="text/css">*{stroke-linejoin: round; stroke-linecap: butt}</style>
 </defs>
 <g id="figure_1">
  <g id="patch_1">
   <path d="M 0 360 
L 504 360 
L 504 0 
L 0 0 
z
" style="fill: #ffffff"/>
  </g>
  <g id="axes_1">
   <g id="patch_2">
    <path d="M 63 320.4 
L 453.6 320.4 
L 453.6 43.2 
L 63 43.2 
z
" style="fill: #ffffff"/>
   </g>
   <g id="matplotlib.axis_1">
    <g id="xtick_1">
     <g id="line2d_1">
      <path d="M 63 320.4 
L 63 43.2 
" clip-path="url(#p7aead8d881)" style="fill: none; stroke: #b0b0b0; stroke-width: 0.8; stroke-linecap: square"/>
     </g>
     <g id="line2d_2">
      <defs>
       <path id="m8d662e6b8e" d="M 0 0 
L 0 3.5 
" style="stroke: #000000; stroke-width: 0.8"/>
      </defs>
      <g>
       <use xlink:href="#m8d662e6b8e" x="63" y="320.4" style="stroke: #000000; stroke-width: 0.8"/>
      </g>
     </g>
     <g id="text_1">
      <!-- 0 -->
      <g transform="translate(60.5 334.275)scale(0.1 -0.1)">
       <defs>
        <path id="SimHei-30" d="M 225 2537 
Q 250 3200 412 3587 
Q 575 3975 875 4225 
Q 1175 4475 1612 4475 
Q 2050 4475 2375 4112 
Q 2700 3750 2800 3200 
Q 2900 2650 2862 1937 
Q 2825 1225 2612 775 
Q 2400 325 1975 150 
Q 1550 -25 1125 187 
Q 700 400 525 750 
Q 350 1100 275 1487 
Q 200 1875 225 2537 
z
M 750 2687 
Q 675 2000 800 1462 
Q 925 925 1212 700 
Q 1500 475 1800 612 
Q 2100 750 2237 1162 
Q 2375 1575 2375 2062 
Q 2375 2550 2337 2950 
Q 2300 3350 2112 3675 
Q 1925 4000 1612 4012 
Q 1300 4025 1062 3700 
Q 825 3375 750 2687 
z
" transform="scale(0.015625)"/>
       </defs>
       <use xlink:href="#SimHei-30"/>
      </g>
     </g>
    </g>
    <g id="xtick_2">
     <g id="line2d_3">
      <path d="M 115.08 320.4 
L 115.08 43.2 
" clip-path="url(#p7aead8d881)" style="fill: none; stroke: #b0b0b0; stroke-width: 0.8; stroke-linecap: square"/>
     </g>
     <g id="line2d_4">
      <g>
       <use xlink:href="#m8d662e6b8e" x="115.08" y="320.4" style="stroke: #000000; stroke-width: 0.8"/>
      </g>
     </g>
     <g id="text_2">
      <!-- 20 -->
      <g transform="translate(110.08 334.275)scale(0.1 -0.1)">
       <defs>
        <path id="SimHei-32" d="M 300 250 
Q 325 625 650 925 
Q 975 1225 1475 1862 
Q 1975 2500 2125 2850 
Q 2275 3200 2237 3450 
Q 2200 3700 2000 3862 
Q 1800 4025 1537 4000 
Q 1275 3975 1037 3800 
Q 800 3625 675 3275 
L 200 3350 
Q 400 3925 712 4187 
Q 1025 4450 1450 4475 
Q 1700 4500 1900 4462 
Q 2100 4425 2312 4287 
Q 2525 4150 2662 3875 
Q 2800 3600 2762 3212 
Q 2725 2825 2375 2287 
Q 2025 1750 1025 600 
L 2825 600 
L 2825 150 
L 300 150 
L 300 250 
z
" transform="scale(0.015625)"/>
       </defs>
       <use xlink:href="#SimHei-32"/>
       <use xlink:href="#SimHei-30" x="50"/>
      </g>
     </g>
    </g>
    <g id="xtick_3">
     <g id="line2d_5">
      <path d="M 167.16 320.4 
L 167.16 43.2 
" clip-path="url(#p7aead8d881)" style="fill: none; stroke: #b0b0b0; stroke-width: 0.8; stroke-linecap: square"/>
     </g>
     <g id="line2d_6">
      <g>
       <use xlink:href="#m8d662e6b8e" x="167.16" y="320.4" style="stroke: #000000; stroke-width: 0.8"/>
      </g>
     </g>
     <g id="text_3">
      <!-- 40 -->
      <g transform="translate(162.16 334.275)scale(0.1 -0.1)">
       <defs>
        <path id="SimHei-34" d="M 2000 1100 
L 75 1100 
L 75 1525 
L 2100 4450 
L 2475 4450 
L 2475 1525 
L 3075 1525 
L 3075 1100 
L 2475 1100 
L 2475 150 
L 2000 150 
L 2000 1100 
z
M 2000 1525 
L 2000 3500 
L 600 1525 
L 2000 1525 
z
" transform="scale(0.015625)"/>
       </defs>
       <use xlink:href="#SimHei-34"/>
       <use xlink:href="#SimHei-30" x="50"/>
      </g>
     </g>
    </g>
    <g id="xtick_4">
     <g id="line2d_7">
      <path d="M 219.24 320.4 
L 219.24 43.2 
" clip-path="url(#p7aead8d881)" style="fill: none; stroke: #b0b0b0; stroke-width: 0.8; stroke-linecap: square"/>
     </g>
     <g id="line2d_8">
      <g>
       <use xlink:href="#m8d662e6b8e" x="219.24" y="320.4" style="stroke: #000000; stroke-width: 0.8"/>
      </g>
     </g>
     <g id="text_4">
      <!-- 60 -->
      <g transform="translate(214.24 334.275)scale(0.1 -0.1)">
       <defs>
        <path id="SimHei-36" d="M 250 1612 
Q 275 1975 387 2225 
Q 500 2475 725 2850 
L 1750 4450 
L 2325 4450 
L 1275 2800 
Q 1950 2975 2350 2750 
Q 2750 2525 2887 2237 
Q 3025 1950 3037 1612 
Q 3050 1275 2937 950 
Q 2825 625 2537 362 
Q 2250 100 1737 75 
Q 1225 50 862 262 
Q 500 475 362 862 
Q 225 1250 250 1612 
z
M 1025 787 
Q 1250 550 1625 525 
Q 2000 500 2250 775 
Q 2500 1050 2500 1575 
Q 2500 2100 2187 2300 
Q 1875 2500 1487 2450 
Q 1100 2400 925 2075 
Q 750 1750 775 1387 
Q 800 1025 1025 787 
z
" transform="scale(0.015625)"/>
       </defs>
       <use xlink:href="#SimHei-36"/>
       <use xlink:href="#SimHei-30" x="50"/>
      </g>
     </g>
    </g>
    <g id="xtick_5">
     <g id="line2d_9">
      <path d="M 271.32 320.4 
L 271.32 43.2 
" clip-path="url(#p7aead8d881)" style="fill: none; stroke: #b0b0b0; stroke-width: 0.8; stroke-linecap: square"/>
     </g>
     <g id="line2d_10">
      <g>
       <use xlink:href="#m8d662e6b8e" x="271.32" y="320.4" style="stroke: #000000; stroke-width: 0.8"/>
      </g>
     </g>
     <g id="text_5">
      <!-- 80 -->
      <g transform="translate(266.32 334.275)scale(0.1 -0.1)">
       <defs>
        <path id="SimHei-38" d="M 175 1375 
Q 175 1675 325 1962 
Q 475 2250 825 2425 
Q 525 2600 425 2812 
Q 325 3025 312 3300 
Q 300 3575 387 3775 
Q 475 3975 650 4150 
Q 825 4325 1037 4387 
Q 1250 4450 1500 4450 
Q 1750 4450 1950 4400 
Q 2150 4350 2375 4187 
Q 2600 4025 2700 3725 
Q 2800 3425 2687 3025 
Q 2575 2625 2100 2400 
Q 2525 2275 2700 2012 
Q 2875 1750 2875 1375 
Q 2875 1000 2762 775 
Q 2650 550 2512 400 
Q 2375 250 2137 162 
Q 1900 75 1537 75 
Q 1175 75 912 162 
Q 650 250 475 425 
Q 300 600 237 837 
Q 175 1075 175 1375 
z
M 687 1400 
Q 675 1100 787 875 
Q 900 650 1200 587 
Q 1500 525 1825 600 
Q 2150 675 2275 950 
Q 2400 1225 2362 1500 
Q 2325 1775 2050 1962 
Q 1775 2150 1450 2125 
Q 1125 2100 912 1900 
Q 700 1700 687 1400 
z
M 775 3350 
Q 775 3100 950 2875 
Q 1125 2650 1500 2650 
Q 1875 2650 2062 2875 
Q 2250 3100 2237 3412 
Q 2225 3725 2012 3875 
Q 1800 4025 1437 4000 
Q 1075 3975 925 3787 
Q 775 3600 775 3350 
z
" transform="scale(0.015625)"/>
       </defs>
       <use xlink:href="#SimHei-38"/>
       <use xlink:href="#SimHei-30" x="50"/>
      </g>
     </g>
    </g>
    <g id="xtick_6">
     <g id="line2d_11">
      <path d="M 323.4 320.4 
L 323.4 43.2 
" clip-path="url(#p7aead8d881)" style="fill: none; stroke: #b0b0b0; stroke-width: 0.8; stroke-linecap: square"/>
     </g>
     <g id="line2d_12">
      <g>
       <use xlink:href="#m8d662e6b8e" x="323.4" y="320.4" style="stroke: #000000; stroke-width: 0.8"/>
      </g>
     </g>
     <g id="text_6">
      <!-- 100 -->
      <g transform="translate(315.9 334.275)scale(0.1 -0.1)">
       <defs>
        <path id="SimHei-31" d="M 1400 3600 
Q 1075 3275 575 2975 
L 575 3450 
Q 1200 3875 1600 4450 
L 1900 4450 
L 1900 150 
L 1400 150 
L 1400 3600 
z
" transform="scale(0.015625)"/>
       </defs>
       <use xlink:href="#SimHei-31"/>
       <use xlink:href="#SimHei-30" x="50"/>
       <use xlink:href="#SimHei-30" x="100"/>
      </g>
     </g>
    </g>
    <g id="xtick_7">
     <g id="line2d_13">
      <path d="M 375.48 320.4 
L 375.48 43.2 
" clip-path="url(#p7aead8d881)" style="fill: none; stroke: #b0b0b0; stroke-width: 0.8; stroke-linecap: square"/>
     </g>
     <g id="line2d_14">
      <g>
       <use xlink:href="#m8d662e6b8e" x="375.48" y="320.4" style="stroke: #000000; stroke-width: 0.8"/>
      </g>
     </g>
     <g id="text_7">
      <!-- 120 -->
      <g transform="translate(367.98 334.275)scale(0.1 -0.1)">
       <use xlink:href="#SimHei-31"/>
       <use xlink:href="#SimHei-32" x="50"/>
       <use xlink:href="#SimHei-30" x="100"/>
      </g>
     </g>
    </g>
    <g id="xtick_8">
     <g id="line2d_15">
      <path d="M 427.56 320.4 
L 427.56 43.2 
" clip-path="url(#p7aead8d881)" style="fill: none; stroke: #b0b0b0; stroke-width: 0.8; stroke-linecap: square"/>
     </g>
     <g id="line2d_16">
      <g>
       <use xlink:href="#m8d662e6b8e" x="427.56" y="320.4" style="stroke: #000000; stroke-width: 0.8"/>
      </g>
     </g>
     <g id="text_8">
      <!-- 140 -->
      <g transform="translate(420.06 334.275)scale(0.1 -0.1)">
       <use xlink:href="#SimHei-31"/>
       <use xlink:href="#SimHei-34" x="50"/>
       <use xlink:href="#SimHei-30" x="100"/>
      </g>
     </g>
    </g>
    <g id="text_9">
     <!-- epoch -->
     <g transform="translate(245.8 346.4)scale(0.1 -0.1)">
      <defs>
       <path id="SimHei-65" d="M 2850 1075 
Q 2800 625 2450 350 
Q 2100 75 1625 75 
Q 1025 75 637 462 
Q 250 850 250 1525 
Q 250 2200 637 2587 
Q 1025 2975 1625 2975 
Q 2150 2975 2487 2637 
Q 2825 2300 2825 1525 
L 800 1525 
Q 800 975 1037 750 
Q 1275 525 1625 525 
Q 1900 525 2075 662 
Q 2250 800 2300 1075 
L 2850 1075 
z
M 2250 1925 
Q 2200 2275 2025 2412 
Q 1850 2550 1575 2550 
Q 1325 2550 1125 2412 
Q 925 2275 825 1925 
L 2250 1925 
z
" transform="scale(0.015625)"/>
       <path id="SimHei-70" d="M 2825 1525 
Q 2825 800 2475 425 
Q 2125 50 1625 50 
Q 1350 50 1150 162 
Q 950 275 800 500 
L 800 -800 
L 300 -800 
L 300 2925 
L 800 2925 
L 800 2550 
Q 950 2775 1150 2875 
Q 1350 2975 1625 2975 
Q 2125 2975 2475 2612 
Q 2825 2250 2825 1525 
z
M 2275 1525 
Q 2275 2000 2087 2262 
Q 1900 2525 1525 2525 
Q 1225 2525 1012 2262 
Q 800 2000 800 1525 
Q 800 1050 1012 775 
Q 1225 500 1525 500 
Q 1900 500 2087 775 
Q 2275 1050 2275 1525 
z
" transform="scale(0.015625)"/>
       <path id="SimHei-6f" d="M 2925 1525 
Q 2925 875 2525 475 
Q 2125 75 1575 75 
Q 1025 75 625 475 
Q 225 875 225 1525 
Q 225 2175 625 2575 
Q 1025 2975 1575 2975 
Q 2125 2975 2525 2575 
Q 2925 2175 2925 1525 
z
M 2375 1525 
Q 2375 2025 2125 2275 
Q 1875 2525 1575 2525 
Q 1275 2525 1025 2275 
Q 775 2025 775 1525 
Q 775 1025 1025 775 
Q 1275 525 1575 525 
Q 1875 525 2125 775 
Q 2375 1025 2375 1525 
z
" transform="scale(0.015625)"/>
       <path id="SimHei-63" d="M 2850 1250 
Q 2850 725 2487 400 
Q 2125 75 1575 75 
Q 1025 75 625 462 
Q 225 850 225 1525 
Q 225 2200 625 2587 
Q 1025 2975 1575 2975 
Q 2125 2975 2450 2687 
Q 2775 2400 2775 2000 
L 2225 2000 
Q 2200 2300 2012 2412 
Q 1825 2525 1575 2525 
Q 1275 2525 1025 2287 
Q 775 2050 775 1525 
Q 775 1000 1025 762 
Q 1275 525 1575 525 
Q 1900 525 2100 700 
Q 2300 875 2300 1250 
L 2850 1250 
z
" transform="scale(0.015625)"/>
       <path id="SimHei-68" d="M 2800 125 
L 2300 125 
L 2300 1925 
Q 2300 2225 2150 2400 
Q 2000 2575 1750 2575 
Q 1425 2575 1137 2237 
Q 850 1900 850 1400 
L 850 125 
L 350 125 
L 350 4400 
L 850 4400 
L 850 2400 
Q 1050 2675 1287 2825 
Q 1525 2975 1900 2975 
Q 2350 2975 2575 2725 
Q 2800 2475 2800 2100 
L 2800 125 
z
" transform="scale(0.015625)"/>
      </defs>
      <use xlink:href="#SimHei-65"/>
      <use xlink:href="#SimHei-70" x="50"/>
      <use xlink:href="#SimHei-6f" x="100"/>
      <use xlink:href="#SimHei-63" x="150"/>
      <use xlink:href="#SimHei-68" x="200"/>
     </g>
    </g>
   </g>
   <g id="matplotlib.axis_2">
    <g id="ytick_1">
     <g id="line2d_17">
      <path d="M 63 309.303104 
L 453.6 309.303104 
" clip-path="url(#p7aead8d881)" style="fill: none; stroke: #b0b0b0; stroke-width: 0.8; stroke-linecap: square"/>
     </g>
     <g id="line2d_18">
      <defs>
       <path id="m0b3755faa2" d="M 0 0 
L -3.5 0 
" style="stroke: #000000; stroke-width: 0.8"/>
      </defs>
      <g>
       <use xlink:href="#m0b3755faa2" x="63" y="309.303104" style="stroke: #000000; stroke-width: 0.8"/>
      </g>
     </g>
     <g id="text_10">
      <!-- 0.1 -->
      <g transform="translate(41 312.740604)scale(0.1 -0.1)">
       <defs>
        <path id="SimHei-2e" d="M 1075 125 
L 500 125 
L 500 675 
L 1075 675 
L 1075 125 
z
" transform="scale(0.015625)"/>
       </defs>
       <use xlink:href="#SimHei-30"/>
       <use xlink:href="#SimHei-2e" x="50"/>
       <use xlink:href="#SimHei-31" x="100"/>
      </g>
     </g>
    </g>
    <g id="ytick_2">
     <g id="line2d_19">
      <path d="M 63 270.466623 
L 453.6 270.466623 
" clip-path="url(#p7aead8d881)" style="fill: none; stroke: #b0b0b0; stroke-width: 0.8; stroke-linecap: square"/>
     </g>
     <g id="line2d_20">
      <g>
       <use xlink:href="#m0b3755faa2" x="63" y="270.466623" style="stroke: #000000; stroke-width: 0.8"/>
      </g>
     </g>
     <g id="text_11">
      <!-- 0.2 -->
      <g transform="translate(41 273.904123)scale(0.1 -0.1)">
       <use xlink:href="#SimHei-30"/>
       <use xlink:href="#SimHei-2e" x="50"/>
       <use xlink:href="#SimHei-32" x="100"/>
      </g>
     </g>
    </g>
    <g id="ytick_3">
     <g id="line2d_21">
      <path d="M 63 231.630143 
L 453.6 231.630143 
" clip-path="url(#p7aead8d881)" style="fill: none; stroke: #b0b0b0; stroke-width: 0.8; stroke-linecap: square"/>
     </g>
     <g id="line2d_22">
      <g>
       <use xlink:href="#m0b3755faa2" x="63" y="231.630143" style="stroke: #000000; stroke-width: 0.8"/>
      </g>
     </g>
     <g id="text_12">
      <!-- 0.3 -->
      <g transform="translate(41 235.067643)scale(0.1 -0.1)">
       <defs>
        <path id="SimHei-33" d="M 250 1225 
L 700 1300 
Q 800 975 1025 762 
Q 1250 550 1587 562 
Q 1925 575 2125 837 
Q 2325 1100 2300 1437 
Q 2275 1775 2037 1962 
Q 1800 2150 1275 2225 
L 1275 2550 
Q 1800 2600 2037 2825 
Q 2275 3050 2250 3412 
Q 2225 3775 1925 3937 
Q 1625 4100 1287 3975 
Q 950 3850 750 3275 
L 300 3350 
Q 450 3800 712 4100 
Q 975 4400 1425 4450 
Q 1875 4500 2212 4337 
Q 2550 4175 2687 3837 
Q 2825 3500 2725 3100 
Q 2625 2700 2150 2400 
Q 2500 2250 2687 1950 
Q 2875 1650 2812 1162 
Q 2750 675 2375 375 
Q 2000 75 1525 87 
Q 1050 100 700 387 
Q 350 675 250 1225 
z
" transform="scale(0.015625)"/>
       </defs>
       <use xlink:href="#SimHei-30"/>
       <use xlink:href="#SimHei-2e" x="50"/>
       <use xlink:href="#SimHei-33" x="100"/>
      </g>
     </g>
    </g>
    <g id="ytick_4">
     <g id="line2d_23">
      <path d="M 63 192.793663 
L 453.6 192.793663 
" clip-path="url(#p7aead8d881)" style="fill: none; stroke: #b0b0b0; stroke-width: 0.8; stroke-linecap: square"/>
     </g>
     <g id="line2d_24">
      <g>
       <use xlink:href="#m0b3755faa2" x="63" y="192.793663" style="stroke: #000000; stroke-width: 0.8"/>
      </g>
     </g>
     <g id="text_13">
      <!-- 0.4 -->
      <g transform="translate(41 196.231163)scale(0.1 -0.1)">
       <use xlink:href="#SimHei-30"/>
       <use xlink:href="#SimHei-2e" x="50"/>
       <use xlink:href="#SimHei-34" x="100"/>
      </g>
     </g>
    </g>
    <g id="ytick_5">
     <g id="line2d_25">
      <path d="M 63 153.957182 
L 453.6 153.957182 
" clip-path="url(#p7aead8d881)" style="fill: none; stroke: #b0b0b0; stroke-width: 0.8; stroke-linecap: square"/>
     </g>
     <g id="line2d_26">
      <g>
       <use xlink:href="#m0b3755faa2" x="63" y="153.957182" style="stroke: #000000; stroke-width: 0.8"/>
      </g>
     </g>
     <g id="text_14">
      <!-- 0.5 -->
      <g transform="translate(41 157.394682)scale(0.1 -0.1)">
       <defs>
        <path id="SimHei-35" d="M 550 1325 
Q 725 650 1150 575 
Q 1575 500 1837 662 
Q 2100 825 2212 1087 
Q 2325 1350 2312 1675 
Q 2300 2000 2137 2225 
Q 1975 2450 1725 2525 
Q 1475 2600 1162 2525 
Q 850 2450 650 2175 
L 225 2225 
Q 275 2375 700 4375 
L 2675 4375 
L 2675 3925 
L 1075 3925 
Q 950 3250 825 2850 
Q 1200 3025 1525 3012 
Q 1850 3000 2150 2862 
Q 2450 2725 2587 2487 
Q 2725 2250 2787 2012 
Q 2850 1775 2837 1500 
Q 2825 1225 2725 937 
Q 2625 650 2425 462 
Q 2225 275 1937 162 
Q 1650 50 1275 75 
Q 900 100 562 350 
Q 225 600 100 1200 
L 550 1325 
z
" transform="scale(0.015625)"/>
       </defs>
       <use xlink:href="#SimHei-30"/>
       <use xlink:href="#SimHei-2e" x="50"/>
       <use xlink:href="#SimHei-35" x="100"/>
      </g>
     </g>
    </g>
    <g id="ytick_6">
     <g id="line2d_27">
      <path d="M 63 115.120702 
L 453.6 115.120702 
" clip-path="url(#p7aead8d881)" style="fill: none; stroke: #b0b0b0; stroke-width: 0.8; stroke-linecap: square"/>
     </g>
     <g id="line2d_28">
      <g>
       <use xlink:href="#m0b3755faa2" x="63" y="115.120702" style="stroke: #000000; stroke-width: 0.8"/>
      </g>
     </g>
     <g id="text_15">
      <!-- 0.6 -->
      <g transform="translate(41 118.558202)scale(0.1 -0.1)">
       <use xlink:href="#SimHei-30"/>
       <use xlink:href="#SimHei-2e" x="50"/>
       <use xlink:href="#SimHei-36" x="100"/>
      </g>
     </g>
    </g>
    <g id="ytick_7">
     <g id="line2d_29">
      <path d="M 63 76.284222 
L 453.6 76.284222 
" clip-path="url(#p7aead8d881)" style="fill: none; stroke: #b0b0b0; stroke-width: 0.8; stroke-linecap: square"/>
     </g>
     <g id="line2d_30">
      <g>
       <use xlink:href="#m0b3755faa2" x="63" y="76.284222" style="stroke: #000000; stroke-width: 0.8"/>
      </g>
     </g>
     <g id="text_16">
      <!-- 0.7 -->
      <g transform="translate(41 79.721722)scale(0.1 -0.1)">
       <defs>
        <path id="SimHei-37" d="M 850 150 
Q 1300 2050 2425 3925 
L 275 3925 
L 275 4375 
L 2950 4375 
L 2950 3950 
Q 1775 2050 1400 150 
L 850 150 
z
" transform="scale(0.015625)"/>
       </defs>
       <use xlink:href="#SimHei-30"/>
       <use xlink:href="#SimHei-2e" x="50"/>
       <use xlink:href="#SimHei-37" x="100"/>
      </g>
     </g>
    </g>
    <g id="text_17">
     <!-- sMAPELoss -->
     <g transform="translate(35.75 204.3)rotate(-90)scale(0.1 -0.1)">
      <defs>
       <path id="SimHei-73" d="M 2750 900 
Q 2750 500 2437 287 
Q 2125 75 1650 75 
Q 1050 75 725 312 
Q 400 550 400 1000 
L 900 1000 
Q 900 700 1112 600 
Q 1325 500 1625 500 
Q 1925 500 2075 612 
Q 2225 725 2225 900 
Q 2225 1025 2100 1150 
Q 1975 1275 1475 1350 
Q 900 1425 687 1637 
Q 475 1850 475 2200 
Q 475 2500 762 2737 
Q 1050 2975 1600 2975 
Q 2100 2975 2387 2750 
Q 2675 2525 2675 2150 
L 2175 2150 
Q 2175 2375 2012 2462 
Q 1850 2550 1600 2550 
Q 1275 2550 1137 2437 
Q 1000 2325 1000 2175 
Q 1000 2000 1125 1900 
Q 1250 1800 1650 1750 
Q 2300 1650 2525 1437 
Q 2750 1225 2750 900 
z
" transform="scale(0.015625)"/>
       <path id="SimHei-4d" d="M 2925 125 
L 2425 125 
L 2425 3175 
L 2375 3175 
L 1775 125 
L 1375 125 
L 775 3175 
L 725 3175 
L 725 125 
L 225 125 
L 225 4400 
L 1000 4400 
L 1550 1575 
L 1600 1575 
L 2150 4400 
L 2925 4400 
L 2925 125 
z
" transform="scale(0.015625)"/>
       <path id="SimHei-41" d="M 3075 125 
L 2475 125 
L 2125 1450 
L 1025 1450 
L 675 125 
L 75 125 
L 1325 4450 
L 1825 4450 
L 3075 125 
z
M 2000 1925 
L 1600 3450 
L 1550 3450 
L 1150 1925 
L 2000 1925 
z
" transform="scale(0.015625)"/>
       <path id="SimHei-50" d="M 2950 3100 
Q 2950 2500 2600 2150 
Q 2250 1800 1625 1800 
L 900 1800 
L 900 125 
L 325 125 
L 325 4400 
L 1625 4400 
Q 2250 4400 2600 4050 
Q 2950 3700 2950 3100 
z
M 2375 3100 
Q 2375 3575 2150 3750 
Q 1925 3925 1475 3925 
L 900 3925 
L 900 2275 
L 1475 2275 
Q 1925 2275 2150 2450 
Q 2375 2625 2375 3100 
z
" transform="scale(0.015625)"/>
       <path id="SimHei-45" d="M 2900 125 
L 350 125 
L 350 4400 
L 2775 4400 
L 2775 3925 
L 925 3925 
L 925 2600 
L 2625 2600 
L 2625 2125 
L 925 2125 
L 925 600 
L 2900 600 
L 2900 125 
z
" transform="scale(0.015625)"/>
       <path id="SimHei-4c" d="M 2900 125 
L 300 125 
L 300 4400 
L 875 4400 
L 875 600 
L 2900 600 
L 2900 125 
z
" transform="scale(0.015625)"/>
      </defs>
      <use xlink:href="#SimHei-73"/>
      <use xlink:href="#SimHei-4d" x="50"/>
      <use xlink:href="#SimHei-41" x="100"/>
      <use xlink:href="#SimHei-50" x="150"/>
      <use xlink:href="#SimHei-45" x="200"/>
      <use xlink:href="#SimHei-4c" x="250"/>
      <use xlink:href="#SimHei-6f" x="300"/>
      <use xlink:href="#SimHei-73" x="350"/>
      <use xlink:href="#SimHei-73" x="400"/>
     </g>
    </g>
   </g>
   <g id="line2d_31">
    <path d="M 65.604 105.81978 
L 70.812 178.369798 
L 73.416 222.156273 
L 76.02 254.499842 
L 78.624 274.116977 
L 81.228 268.895 
L 83.832 270.311077 
L 86.436 286.632258 
L 89.04 277.321866 
L 91.644 289.161342 
L 94.248 286.270947 
L 96.852 289.663569 
L 99.456 283.120504 
L 102.06 296.826697 
L 104.664 296.064208 
L 107.268 297.970978 
L 109.872 291.921927 
L 112.476 297.569661 
L 115.08 296.124614 
L 117.684 295.730339 
L 120.288 298.640422 
L 122.892 282.918494 
L 125.496 289.438283 
L 128.1 280.954142 
L 130.704 296.802004 
L 133.308 295.356748 
L 135.912 286.295768 
L 138.516 299.931432 
L 141.12 294.709764 
L 143.724 298.934366 
L 146.328 302.710121 
L 148.932 298.972265 
L 151.536 302.385466 
L 154.14 303.281339 
L 156.744 300.650425 
L 159.348 293.774813 
L 161.952 300.227183 
L 164.556 293.030149 
L 167.16 302.623717 
L 169.764 303.566457 
L 172.368 304.285268 
L 174.972 302.336522 
L 177.576 302.688472 
L 180.18 304.031565 
L 182.784 305.750344 
L 185.388 303.377948 
L 187.992 304.318306 
L 190.596 306.360335 
L 193.2 305.761134 
L 195.804 303.747769 
L 198.408 305.598187 
L 201.012 304.658926 
L 203.616 306.073128 
L 206.22 305.391122 
L 208.824 305.406256 
L 214.032 306.685315 
L 216.636 306.021131 
L 219.24 306.958766 
L 221.844 306.402911 
L 224.448 307.206751 
L 227.052 307.050295 
L 229.656 307.048619 
L 232.26 307.363619 
L 234.864 307.023298 
L 237.468 306.839164 
L 240.072 307.344987 
L 242.676 307.517205 
L 245.28 307.299353 
L 247.884 307.240108 
L 250.488 307.505897 
L 255.696 307.52123 
L 258.3 306.559469 
L 260.904 307.580209 
L 263.508 307.605832 
L 266.112 307.483979 
L 276.528 307.466704 
L 279.132 307.257562 
L 281.736 307.566517 
L 284.34 307.66955 
L 286.944 307.599208 
L 289.548 307.084783 
L 292.152 307.624498 
L 294.756 307.564555 
L 299.964 307.685624 
L 336.42 307.606026 
L 339.024 307.781585 
L 354.648 307.752028 
L 380.688 307.779404 
L 409.332 307.782815 
L 453.6 307.794705 
L 453.6 307.794705 
" clip-path="url(#p7aead8d881)" style="fill: none; stroke: #0000ff; stroke-width: 1.5; stroke-linecap: square"/>
   </g>
   <g id="line2d_32">
    <path d="M 65.604 55.8 
L 68.208 100.907863 
L 70.812 142.468542 
L 73.416 197.484129 
L 76.02 236.895195 
L 78.624 247.598412 
L 81.228 264.662967 
L 83.832 232.553271 
L 86.436 272.304011 
L 89.04 252.662928 
L 91.644 273.323533 
L 94.248 266.722273 
L 96.852 276.653753 
L 99.456 278.184998 
L 102.06 277.660914 
L 104.664 282.734395 
L 107.268 285.408978 
L 109.872 278.705431 
L 112.476 288.572402 
L 115.08 275.474692 
L 117.684 269.523686 
L 120.288 278.893969 
L 122.892 279.655109 
L 125.496 277.245841 
L 128.1 264.128836 
L 130.704 282.679452 
L 133.308 287.213664 
L 135.912 264.785856 
L 138.516 274.398774 
L 141.12 286.008514 
L 143.724 284.040604 
L 146.328 282.374212 
L 148.932 274.153598 
L 151.536 290.110853 
L 154.14 287.218959 
L 156.744 285.454748 
L 159.348 261.246063 
L 161.952 286.948557 
L 164.556 271.453517 
L 167.16 282.651952 
L 169.764 282.062578 
L 172.368 283.478574 
L 177.576 273.700695 
L 180.18 285.029768 
L 182.784 285.903294 
L 185.388 282.041582 
L 187.992 282.64716 
L 190.596 286.544919 
L 193.2 286.482025 
L 195.804 287.193085 
L 198.408 284.168545 
L 201.012 284.579254 
L 203.616 286.102248 
L 206.22 288.234118 
L 208.824 287.780214 
L 211.428 289.243999 
L 216.636 286.799146 
L 219.24 287.466316 
L 221.844 286.015094 
L 224.448 286.687866 
L 227.052 285.818727 
L 229.656 288.896699 
L 232.26 287.591855 
L 237.468 287.217853 
L 240.072 287.227709 
L 242.676 287.722077 
L 245.28 285.939231 
L 247.884 289.527202 
L 250.488 288.088602 
L 255.696 287.545848 
L 258.3 285.732956 
L 260.904 288.017993 
L 263.508 289.680004 
L 266.112 289.506652 
L 268.716 287.073946 
L 271.32 289.10537 
L 273.924 287.794606 
L 276.528 289.755873 
L 279.132 286.276804 
L 281.736 287.25426 
L 284.34 289.694281 
L 286.944 287.129282 
L 289.548 286.168163 
L 292.152 288.032808 
L 294.756 287.123148 
L 297.36 288.634561 
L 299.964 287.907448 
L 302.568 287.919538 
L 305.172 287.431414 
L 307.776 289.33624 
L 310.38 288.225125 
L 312.984 287.658754 
L 315.588 288.368234 
L 318.192 287.407901 
L 320.796 288.31137 
L 323.4 287.357831 
L 326.004 287.765115 
L 328.608 288.457146 
L 333.816 288.294975 
L 336.42 287.058564 
L 339.024 288.325843 
L 341.628 288.541343 
L 344.232 287.997889 
L 346.836 287.641242 
L 349.44 287.880486 
L 352.044 287.692123 
L 357.252 288.079915 
L 359.856 287.874063 
L 362.46 288.073127 
L 367.668 288.185362 
L 370.272 287.954602 
L 372.876 288.300895 
L 375.48 288.195321 
L 378.084 288.390826 
L 383.292 288.053891 
L 385.896 288.159679 
L 391.104 287.977981 
L 393.708 288.276526 
L 396.312 288.21108 
L 398.916 288.385086 
L 401.52 288.047519 
L 404.124 288.155645 
L 406.728 288.391405 
L 409.332 288.161849 
L 411.936 288.075031 
L 414.54 288.147983 
L 419.748 288.090893 
L 422.352 288.304425 
L 424.956 288.059863 
L 427.56 288.226797 
L 430.164 288.18417 
L 432.768 288.369727 
L 435.372 288.310056 
L 437.976 288.083156 
L 445.788 288.081217 
L 448.392 288.214037 
L 450.996 288.166409 
L 453.6 288.279466 
L 453.6 288.279466 
" clip-path="url(#p7aead8d881)" style="fill: none; stroke-dasharray: 5.55,2.4; stroke-dashoffset: 0; stroke: #bf00bf; stroke-width: 1.5"/>
   </g>
   <g id="line2d_33">
    <path d="M 65.604 105.81978 
L 70.812 178.369798 
L 73.416 222.156273 
L 76.02 254.499842 
L 78.624 274.116977 
L 81.228 268.895 
L 83.832 270.311077 
L 86.436 286.632258 
L 89.04 277.321866 
L 91.644 289.161342 
L 94.248 286.270947 
L 96.852 289.663569 
L 99.456 283.120504 
L 102.06 296.826697 
L 104.664 296.064208 
L 107.268 297.970978 
L 109.872 291.921927 
L 112.476 297.569661 
L 115.08 296.124614 
L 117.684 295.730339 
L 120.288 298.640422 
L 122.892 282.918494 
L 125.496 289.438283 
L 128.1 280.954142 
L 130.704 296.802004 
L 133.308 295.356748 
L 135.912 286.295768 
L 138.516 299.931432 
L 141.12 294.709764 
L 143.724 298.934366 
L 146.328 302.710121 
L 148.932 298.972265 
L 151.536 302.385466 
L 154.14 303.281339 
L 156.744 300.650425 
L 159.348 293.774813 
L 161.952 300.227183 
L 164.556 293.030149 
L 167.16 302.623717 
L 169.764 303.566457 
L 172.368 304.285268 
L 174.972 302.336522 
L 177.576 302.688472 
L 180.18 304.031565 
L 182.784 305.750344 
L 185.388 303.377948 
L 187.992 304.318306 
L 190.596 306.360335 
L 193.2 305.761134 
L 195.804 303.747769 
L 198.408 305.598187 
L 201.012 304.658926 
L 203.616 306.073128 
L 206.22 305.391122 
L 208.824 305.406256 
L 214.032 306.685315 
L 216.636 306.021131 
L 219.24 306.958766 
L 221.844 306.402911 
L 224.448 307.206751 
L 227.052 307.050295 
L 229.656 307.048619 
L 232.26 307.363619 
L 234.864 307.023298 
L 237.468 306.839164 
L 240.072 307.344987 
L 242.676 307.517205 
L 245.28 307.299353 
L 247.884 307.240108 
L 250.488 307.505897 
L 255.696 307.52123 
L 258.3 306.559469 
L 260.904 307.580209 
L 263.508 307.605832 
L 266.112 307.483979 
L 276.528 307.466704 
L 279.132 307.257562 
L 281.736 307.566517 
L 284.34 307.66955 
L 286.944 307.599208 
L 289.548 307.084783 
L 292.152 307.624498 
L 294.756 307.564555 
L 299.964 307.685624 
L 336.42 307.606026 
L 339.024 307.781585 
L 354.648 307.752028 
L 380.688 307.779404 
L 409.332 307.782815 
L 453.6 307.794705 
L 453.6 307.794705 
" clip-path="url(#p7aead8d881)" style="fill: none; stroke: #0000ff; stroke-width: 1.5; stroke-linecap: square"/>
   </g>
   <g id="line2d_34">
    <path d="M 65.604 55.8 
L 68.208 100.907863 
L 70.812 142.468542 
L 73.416 197.484129 
L 76.02 236.895195 
L 78.624 247.598412 
L 81.228 264.662967 
L 83.832 232.553271 
L 86.436 272.304011 
L 89.04 252.662928 
L 91.644 273.323533 
L 94.248 266.722273 
L 96.852 276.653753 
L 99.456 278.184998 
L 102.06 277.660914 
L 104.664 282.734395 
L 107.268 285.408978 
L 109.872 278.705431 
L 112.476 288.572402 
L 115.08 275.474692 
L 117.684 269.523686 
L 120.288 278.893969 
L 122.892 279.655109 
L 125.496 277.245841 
L 128.1 264.128836 
L 130.704 282.679452 
L 133.308 287.213664 
L 135.912 264.785856 
L 138.516 274.398774 
L 141.12 286.008514 
L 143.724 284.040604 
L 146.328 282.374212 
L 148.932 274.153598 
L 151.536 290.110853 
L 154.14 287.218959 
L 156.744 285.454748 
L 159.348 261.246063 
L 161.952 286.948557 
L 164.556 271.453517 
L 167.16 282.651952 
L 169.764 282.062578 
L 172.368 283.478574 
L 177.576 273.700695 
L 180.18 285.029768 
L 182.784 285.903294 
L 185.388 282.041582 
L 187.992 282.64716 
L 190.596 286.544919 
L 193.2 286.482025 
L 195.804 287.193085 
L 198.408 284.168545 
L 201.012 284.579254 
L 203.616 286.102248 
L 206.22 288.234118 
L 208.824 287.780214 
L 211.428 289.243999 
L 216.636 286.799146 
L 219.24 287.466316 
L 221.844 286.015094 
L 224.448 286.687866 
L 227.052 285.818727 
L 229.656 288.896699 
L 232.26 287.591855 
L 237.468 287.217853 
L 240.072 287.227709 
L 242.676 287.722077 
L 245.28 285.939231 
L 247.884 289.527202 
L 250.488 288.088602 
L 255.696 287.545848 
L 258.3 285.732956 
L 260.904 288.017993 
L 263.508 289.680004 
L 266.112 289.506652 
L 268.716 287.073946 
L 271.32 289.10537 
L 273.924 287.794606 
L 276.528 289.755873 
L 279.132 286.276804 
L 281.736 287.25426 
L 284.34 289.694281 
L 286.944 287.129282 
L 289.548 286.168163 
L 292.152 288.032808 
L 294.756 287.123148 
L 297.36 288.634561 
L 299.964 287.907448 
L 302.568 287.919538 
L 305.172 287.431414 
L 307.776 289.33624 
L 310.38 288.225125 
L 312.984 287.658754 
L 315.588 288.368234 
L 318.192 287.407901 
L 320.796 288.31137 
L 323.4 287.357831 
L 326.004 287.765115 
L 328.608 288.457146 
L 333.816 288.294975 
L 336.42 287.058564 
L 339.024 288.325843 
L 341.628 288.541343 
L 344.232 287.997889 
L 346.836 287.641242 
L 349.44 287.880486 
L 352.044 287.692123 
L 357.252 288.079915 
L 359.856 287.874063 
L 362.46 288.073127 
L 367.668 288.185362 
L 370.272 287.954602 
L 372.876 288.300895 
L 375.48 288.195321 
L 378.084 288.390826 
L 383.292 288.053891 
L 385.896 288.159679 
L 391.104 287.977981 
L 393.708 288.276526 
L 396.312 288.21108 
L 398.916 288.385086 
L 401.52 288.047519 
L 404.124 288.155645 
L 406.728 288.391405 
L 409.332 288.161849 
L 411.936 288.075031 
L 414.54 288.147983 
L 419.748 288.090893 
L 422.352 288.304425 
L 424.956 288.059863 
L 427.56 288.226797 
L 430.164 288.18417 
L 432.768 288.369727 
L 435.372 288.310056 
L 437.976 288.083156 
L 445.788 288.081217 
L 448.392 288.214037 
L 450.996 288.166409 
L 453.6 288.279466 
L 453.6 288.279466 
" clip-path="url(#p7aead8d881)" style="fill: none; stroke-dasharray: 5.55,2.4; stroke-dashoffset: 0; stroke: #bf00bf; stroke-width: 1.5"/>
   </g>
   <g id="patch_3">
    <path d="M 63 320.4 
L 63 43.2 
" style="fill: none; stroke: #000000; stroke-width: 0.8; stroke-linejoin: miter; stroke-linecap: square"/>
   </g>
   <g id="patch_4">
    <path d="M 453.6 320.4 
L 453.6 43.2 
" style="fill: none; stroke: #000000; stroke-width: 0.8; stroke-linejoin: miter; stroke-linecap: square"/>
   </g>
   <g id="patch_5">
    <path d="M 63 320.4 
L 453.6 320.4 
" style="fill: none; stroke: #000000; stroke-width: 0.8; stroke-linejoin: miter; stroke-linecap: square"/>
   </g>
   <g id="patch_6">
    <path d="M 63 43.2 
L 453.6 43.2 
" style="fill: none; stroke: #000000; stroke-width: 0.8; stroke-linejoin: miter; stroke-linecap: square"/>
   </g>
   <g id="text_18">
    <!-- LSTMModel 模型 sMAPELoss 监视器 -->
    <g transform="translate(165.3 37.2)scale(0.12 -0.12)">
     <defs>
      <path id="SimHei-53" d="M 2900 1325 
Q 2900 750 2537 412 
Q 2175 75 1550 75 
Q 925 75 575 425 
Q 225 775 225 1300 
L 225 1475 
L 800 1475 
L 800 1325 
Q 800 950 1025 750 
Q 1250 550 1550 550 
Q 1950 550 2137 762 
Q 2325 975 2325 1275 
Q 2325 1525 2100 1737 
Q 1875 1950 1450 2125 
Q 850 2350 587 2625 
Q 325 2900 325 3275 
Q 325 3800 687 4125 
Q 1050 4450 1550 4450 
Q 2200 4450 2487 4062 
Q 2775 3675 2775 3225 
L 2200 3225 
Q 2225 3500 2050 3725 
Q 1875 3950 1550 3950 
Q 1250 3950 1075 3787 
Q 900 3625 900 3350 
Q 900 3125 1037 2962 
Q 1175 2800 1750 2575 
Q 2300 2350 2600 2037 
Q 2900 1725 2900 1325 
z
" transform="scale(0.015625)"/>
      <path id="SimHei-54" d="M 2850 3925 
L 1850 3925 
L 1850 125 
L 1275 125 
L 1275 3925 
L 275 3925 
L 275 4400 
L 2850 4400 
L 2850 3925 
z
" transform="scale(0.015625)"/>
      <path id="SimHei-64" d="M 2750 125 
L 2250 125 
L 2250 500 
Q 2100 275 1900 175 
Q 1700 75 1425 75 
Q 925 75 575 437 
Q 225 800 225 1525 
Q 225 2250 575 2625 
Q 925 3000 1425 3000 
Q 1700 3000 1900 2887 
Q 2100 2775 2250 2550 
L 2250 4400 
L 2750 4400 
L 2750 125 
z
M 2250 1525 
Q 2250 2000 2037 2275 
Q 1825 2550 1525 2550 
Q 1150 2550 962 2275 
Q 775 2000 775 1525 
Q 775 1050 962 787 
Q 1150 525 1525 525 
Q 1825 525 2037 787 
Q 2250 1050 2250 1525 
z
" transform="scale(0.015625)"/>
      <path id="SimHei-6c" d="M 1825 125 
L 1325 125 
L 1325 4400 
L 1825 4400 
L 1825 125 
z
" transform="scale(0.015625)"/>
      <path id="SimHei-20" transform="scale(0.015625)"/>
      <path id="SimHei-6a21" d="M 5700 3675 
Q 5675 3400 5675 2725 
Q 5675 2050 5700 1725 
L 4375 1725 
Q 4350 1450 4325 1200 
L 5225 1200 
Q 5750 1200 6025 1225 
L 6025 825 
Q 5725 850 5225 850 
L 4700 850 
Q 5075 375 5437 137 
Q 5800 -100 6200 -200 
Q 5975 -375 5850 -625 
Q 5275 -400 4862 25 
Q 4450 450 4300 775 
L 4225 775 
Q 4000 275 3537 -62 
Q 3075 -400 2475 -625 
Q 2350 -375 2125 -200 
Q 2775 -75 3200 200 
Q 3625 475 3775 850 
L 3325 850 
Q 2800 850 2400 825 
L 2400 1225 
Q 2800 1200 3350 1200 
L 3875 1200 
Q 3925 1475 3925 1725 
L 2750 1725 
Q 2775 2075 2775 2700 
Q 2775 3350 2750 3675 
L 5700 3675 
z
M 2175 1650 
Q 2025 1975 1675 2525 
L 1675 300 
Q 1675 -300 1700 -550 
L 1175 -550 
Q 1200 -275 1200 250 
L 1200 2225 
Q 1125 2000 962 1712 
Q 800 1425 600 1050 
Q 450 1275 200 1425 
Q 600 1825 850 2425 
Q 1100 3025 1175 3425 
L 950 3425 
Q 700 3425 400 3400 
L 400 3825 
Q 675 3800 825 3800 
L 1200 3800 
L 1200 4350 
Q 1200 4775 1175 5150 
L 1700 5150 
Q 1675 4825 1675 4425 
L 1675 3800 
Q 2075 3800 2375 3825 
L 2375 3400 
Q 2050 3425 1675 3425 
L 1675 2575 
Q 1850 2675 2000 2775 
Q 2150 2525 2287 2325 
Q 2425 2125 2550 1925 
Q 2325 1775 2175 1650 
z
M 3375 4300 
L 3175 4300 
Q 2700 4300 2425 4275 
L 2425 4675 
Q 2700 4650 3150 4650 
L 3375 4650 
Q 3375 5000 3350 5225 
L 3825 5225 
Q 3800 5000 3800 4650 
L 4550 4650 
Q 4550 4975 4525 5200 
L 5025 5200 
Q 5000 4925 5000 4650 
L 5375 4650 
Q 5650 4650 5950 4675 
L 5950 4275 
Q 5650 4300 5375 4300 
L 5000 4300 
L 5000 3850 
L 4550 3850 
L 4550 4300 
L 3800 4300 
L 3800 3875 
L 3375 3875 
L 3375 4300 
z
M 5275 2075 
L 5275 2525 
L 3200 2525 
L 3200 2075 
L 5275 2075 
z
M 5275 2875 
L 5275 3325 
L 3200 3325 
L 3200 2875 
L 5275 2875 
z
" transform="scale(0.015625)"/>
      <path id="SimHei-578b" d="M 2625 1775 
Q 2650 2325 2650 2700 
L 2650 3000 
L 1825 3000 
Q 1725 2375 1425 2000 
Q 1125 1625 775 1425 
Q 650 1650 375 1900 
Q 850 2075 1062 2362 
Q 1275 2650 1350 3000 
Q 900 3000 375 2975 
L 375 3450 
Q 925 3425 1400 3425 
Q 1425 3950 1425 4475 
Q 1075 4475 700 4450 
L 700 4900 
Q 1050 4875 1525 4875 
L 3000 4875 
Q 3275 4875 3650 4900 
L 3650 4450 
Q 3325 4475 3125 4475 
L 3125 3425 
Q 3450 3425 3825 3450 
L 3825 2975 
Q 3450 3000 3125 3000 
L 3125 2675 
Q 3125 2225 3150 1775 
L 2625 1775 
z
M 3000 1175 
Q 3000 1375 2975 1725 
L 3500 1725 
Q 3475 1375 3475 1175 
L 4550 1175 
Q 5050 1175 5450 1200 
L 5450 725 
Q 4975 750 4550 750 
L 3475 750 
L 3475 -50 
L 5275 -50 
Q 5700 -50 6100 -25 
L 6100 -500 
Q 5725 -475 5300 -475 
L 1250 -475 
Q 775 -475 400 -500 
L 400 -25 
Q 775 -50 1250 -50 
L 3000 -50 
L 3000 750 
L 2025 750 
Q 1500 750 975 725 
L 1050 1200 
Q 1500 1175 2025 1175 
L 3000 1175 
z
M 5775 5200 
Q 5750 4775 5750 4325 
L 5750 2400 
Q 5775 1950 5612 1775 
Q 5450 1600 4900 1525 
Q 4825 1775 4675 2100 
Q 5175 2075 5237 2150 
Q 5300 2225 5300 2525 
L 5300 4325 
Q 5300 4775 5275 5200 
L 5775 5200 
z
M 4600 4750 
Q 4575 4450 4575 3975 
L 4575 3200 
Q 4575 2825 4600 2425 
L 4100 2425 
Q 4125 2825 4125 3200 
L 4125 3975 
Q 4125 4450 4100 4750 
L 4600 4750 
z
M 2650 3425 
L 2650 4475 
L 1875 4475 
Q 1850 3750 1850 3425 
L 2650 3425 
z
" transform="scale(0.015625)"/>
      <path id="SimHei-76d1" d="M 5525 1775 
Q 5500 1350 5500 950 
L 5500 0 
Q 5850 0 6175 50 
L 6175 -475 
Q 5575 -425 4875 -425 
L 1425 -425 
Q 725 -425 225 -475 
L 225 50 
Q 600 0 925 0 
L 925 950 
Q 925 1350 900 1775 
L 5525 1775 
z
M 4600 5025 
Q 4425 4800 4337 4562 
Q 4250 4325 4175 4125 
L 5300 4125 
Q 5725 4125 6150 4150 
L 6150 3675 
Q 5750 3725 5275 3725 
L 4050 3725 
Q 3800 3125 3375 2425 
Q 3175 2575 2900 2675 
Q 3100 2925 3312 3362 
Q 3525 3800 3700 4325 
Q 3875 4850 3975 5250 
Q 4300 5125 4600 5025 
z
M 2750 5200 
Q 2700 4950 2700 4475 
L 2700 3050 
Q 2700 2600 2725 2075 
L 2200 2075 
Q 2225 2600 2225 3050 
L 2225 4425 
Q 2225 4775 2200 5200 
L 2750 5200 
z
M 1450 4900 
Q 1400 4575 1400 4125 
L 1400 3200 
Q 1400 2825 1425 2325 
L 900 2325 
Q 925 2825 925 3200 
L 925 4200 
Q 925 4550 900 4900 
L 1450 4900 
z
M 5025 -25 
L 5025 1325 
L 4125 1325 
L 4125 -25 
L 5025 -25 
z
M 2300 -25 
L 2300 1325 
L 1400 1325 
L 1400 -25 
L 2300 -25 
z
M 3650 -25 
L 3650 1325 
L 2775 1325 
L 2775 -25 
L 3650 -25 
z
M 4575 3500 
Q 4850 3300 5100 3037 
Q 5350 2775 5625 2475 
Q 5450 2325 5225 2125 
L 4725 2675 
Q 4475 2950 4250 3150 
Q 4400 3350 4575 3500 
z
" transform="scale(0.015625)"/>
      <path id="SimHei-89c6" d="M 4500 3875 
Q 4400 3700 4375 3187 
Q 4350 2675 4225 1750 
L 4675 1750 
Q 4650 1500 4650 1075 
L 4650 400 
Q 4650 25 4825 12 
Q 5000 0 5225 0 
Q 5475 0 5537 100 
Q 5600 200 5650 725 
Q 5925 550 6175 500 
Q 6000 -425 5600 -425 
L 4600 -425 
Q 4200 -400 4200 100 
L 4200 1600 
Q 3900 800 3525 325 
Q 3150 -150 2500 -650 
Q 2300 -425 2050 -325 
Q 2750 100 3150 625 
Q 3550 1150 3712 1725 
Q 3875 2300 3900 2875 
Q 3925 3450 3875 3975 
Q 4175 3925 4500 3875 
z
M 5525 4875 
Q 5500 4475 5500 3925 
L 5500 2550 
Q 5500 2100 5525 1625 
L 5050 1625 
L 5050 4475 
L 3275 4475 
L 3275 1600 
L 2800 1600 
Q 2825 2025 2825 2525 
L 2825 3900 
Q 2825 4425 2800 4875 
L 5525 4875 
z
M 2275 3900 
Q 2200 3650 2062 3287 
Q 1925 2925 1650 2475 
L 1650 475 
Q 1650 25 1675 -625 
L 1175 -625 
Q 1200 75 1200 500 
L 1200 1875 
Q 950 1525 500 1125 
Q 350 1375 200 1525 
Q 725 1925 1100 2475 
Q 1475 3025 1650 3500 
L 1025 3500 
Q 650 3500 350 3475 
L 350 3925 
Q 725 3900 1025 3900 
L 2275 3900 
z
M 1350 5225 
Q 1675 4750 1900 4400 
Q 1725 4275 1450 4100 
Q 1250 4550 950 4950 
Q 1175 5075 1350 5225 
z
M 2025 2500 
Q 2325 2075 2550 1675 
Q 2350 1575 2150 1375 
Q 1925 1825 1675 2225 
Q 1850 2350 2025 2500 
z
" transform="scale(0.015625)"/>
      <path id="SimHei-5668" d="M 275 1925 
Q 775 1925 1212 2000 
Q 1650 2075 1987 2200 
Q 2325 2325 2625 2625 
L 1525 2625 
Q 1250 2625 550 2600 
L 550 3025 
Q 1250 3000 1525 3000 
L 2750 3000 
Q 2825 3225 2800 3550 
Q 3125 3500 3475 3450 
Q 3325 3300 3300 3000 
L 4425 3000 
Q 4250 3175 4075 3300 
L 4425 3550 
Q 4625 3400 4800 3200 
Q 4650 3125 4500 3000 
L 4875 3000 
Q 5425 3000 5875 3025 
L 5875 2600 
Q 5450 2625 4875 2625 
L 3625 2625 
Q 4100 2225 4837 2112 
Q 5575 2000 6100 2050 
Q 5900 1800 5850 1500 
Q 5225 1550 4787 1637 
Q 4350 1725 3987 1900 
Q 3625 2075 3150 2575 
Q 2700 2000 1975 1762 
Q 1250 1525 525 1425 
Q 450 1725 275 1925 
z
M 5025 -575 
L 5025 -100 
L 3825 -100 
L 3825 -550 
L 3400 -550 
Q 3425 0 3425 475 
Q 3425 975 3400 1425 
L 5475 1425 
Q 5450 1125 5450 400 
Q 5450 -300 5475 -575 
L 5025 -575 
z
M 2400 -550 
L 2400 -100 
L 1325 -100 
L 1325 -575 
L 875 -575 
Q 900 -150 900 475 
Q 900 1100 875 1425 
L 2825 1425 
Q 2800 1025 2800 425 
Q 2800 -150 2825 -550 
L 2400 -550 
z
M 5475 5025 
Q 5450 4700 5450 4350 
Q 5450 4000 5475 3625 
L 3375 3625 
Q 3400 4000 3400 4350 
Q 3400 4725 3375 5025 
L 5475 5025 
z
M 2825 5025 
Q 2800 4700 2800 4325 
Q 2800 3975 2825 3625 
L 875 3625 
Q 900 3975 900 4325 
Q 900 4700 875 5025 
L 2825 5025 
z
M 5025 250 
L 5025 1050 
L 3825 1050 
L 3825 250 
L 5025 250 
z
M 2400 250 
L 2400 1050 
L 1325 1050 
L 1325 250 
L 2400 250 
z
M 5025 3975 
L 5025 4675 
L 3825 4675 
L 3825 3975 
L 5025 3975 
z
M 2400 3975 
L 2400 4675 
L 1325 4675 
L 1325 3975 
L 2400 3975 
z
" transform="scale(0.015625)"/>
     </defs>
     <use xlink:href="#SimHei-4c"/>
     <use xlink:href="#SimHei-53" x="50"/>
     <use xlink:href="#SimHei-54" x="100"/>
     <use xlink:href="#SimHei-4d" x="150"/>
     <use xlink:href="#SimHei-4d" x="200"/>
     <use xlink:href="#SimHei-6f" x="250"/>
     <use xlink:href="#SimHei-64" x="300"/>
     <use xlink:href="#SimHei-65" x="350"/>
     <use xlink:href="#SimHei-6c" x="400"/>
     <use xlink:href="#SimHei-20" x="450"/>
     <use xlink:href="#SimHei-6a21" x="500"/>
     <use xlink:href="#SimHei-578b" x="600"/>
     <use xlink:href="#SimHei-20" x="700"/>
     <use xlink:href="#SimHei-73" x="750"/>
     <use xlink:href="#SimHei-4d" x="800"/>
     <use xlink:href="#SimHei-41" x="850"/>
     <use xlink:href="#SimHei-50" x="900"/>
     <use xlink:href="#SimHei-45" x="950"/>
     <use xlink:href="#SimHei-4c" x="1000"/>
     <use xlink:href="#SimHei-6f" x="1050"/>
     <use xlink:href="#SimHei-73" x="1100"/>
     <use xlink:href="#SimHei-73" x="1150"/>
     <use xlink:href="#SimHei-20" x="1200"/>
     <use xlink:href="#SimHei-76d1" x="1250"/>
     <use xlink:href="#SimHei-89c6" x="1350"/>
     <use xlink:href="#SimHei-5668" x="1450"/>
    </g>
   </g>
   <g id="legend_1">
    <g id="patch_7">
     <path d="M 389.6 77.7 
L 446.6 77.7 
Q 448.6 77.7 448.6 75.7 
L 448.6 50.2 
Q 448.6 48.2 446.6 48.2 
L 389.6 48.2 
Q 387.6 48.2 387.6 50.2 
L 387.6 75.7 
Q 387.6 77.7 389.6 77.7 
z
" style="fill: #ffffff; opacity: 0.8; stroke: #cccccc; stroke-linejoin: miter"/>
    </g>
    <g id="line2d_35">
     <path d="M 391.6 55.7 
L 401.6 55.7 
L 411.6 55.7 
" style="fill: none; stroke: #0000ff; stroke-width: 1.5; stroke-linecap: square"/>
    </g>
    <g id="text_19">
     <!-- train -->
     <g transform="translate(419.6 59.2)scale(0.1 -0.1)">
      <defs>
       <path id="SimHei-74" d="M 2750 200 
Q 2625 150 2462 112 
Q 2300 75 2025 75 
Q 1575 75 1300 325 
Q 1025 575 1025 1025 
L 1025 2525 
L 175 2525 
L 175 2925 
L 1025 2925 
L 1025 3900 
L 1525 3900 
L 1525 2925 
L 2550 2925 
L 2550 2525 
L 1525 2525 
L 1525 1000 
Q 1525 800 1625 662 
Q 1725 525 2000 525 
Q 2275 525 2450 575 
Q 2625 625 2750 700 
L 2750 200 
z
" transform="scale(0.015625)"/>
       <path id="SimHei-72" d="M 2500 2425 
Q 2025 2500 1700 2287 
Q 1375 2075 1150 1550 
L 1150 125 
L 650 125 
L 650 2925 
L 1150 2925 
L 1150 2200 
Q 1375 2600 1712 2787 
Q 2050 2975 2500 2975 
L 2500 2425 
z
" transform="scale(0.015625)"/>
       <path id="SimHei-61" d="M 2875 125 
L 2275 125 
Q 2225 175 2200 262 
Q 2175 350 2175 475 
Q 2000 275 1750 175 
Q 1500 75 1225 75 
Q 825 75 550 275 
Q 275 475 275 850 
Q 275 1225 525 1450 
Q 775 1675 1300 1750 
Q 1650 1800 1912 1875 
Q 2175 1950 2175 2075 
Q 2175 2225 2062 2375 
Q 1950 2525 1575 2525 
Q 1275 2525 1137 2412 
Q 1000 2300 950 2100 
L 400 2100 
Q 450 2500 762 2737 
Q 1075 2975 1575 2975 
Q 2125 2975 2400 2725 
Q 2675 2475 2675 2025 
L 2675 650 
Q 2675 500 2725 375 
Q 2775 250 2875 125 
z
M 2175 1050 
L 2175 1550 
Q 2025 1500 1887 1462 
Q 1750 1425 1425 1375 
Q 1050 1325 937 1200 
Q 825 1075 825 900 
Q 825 750 937 637 
Q 1050 525 1275 525 
Q 1500 525 1762 650 
Q 2025 775 2175 1050 
z
" transform="scale(0.015625)"/>
       <path id="SimHei-69" d="M 1800 3725 
L 1300 3725 
L 1300 4375 
L 1800 4375 
L 1800 3725 
z
M 1800 125 
L 1300 125 
L 1300 2925 
L 1800 2925 
L 1800 125 
z
" transform="scale(0.015625)"/>
       <path id="SimHei-6e" d="M 2800 125 
L 2300 125 
L 2300 1925 
Q 2300 2225 2150 2400 
Q 2000 2575 1750 2575 
Q 1425 2575 1137 2237 
Q 850 1900 850 1400 
L 850 125 
L 350 125 
L 350 2925 
L 850 2925 
L 850 2400 
Q 1050 2675 1287 2825 
Q 1525 2975 1900 2975 
Q 2350 2975 2575 2725 
Q 2800 2475 2800 2100 
L 2800 125 
z
" transform="scale(0.015625)"/>
      </defs>
      <use xlink:href="#SimHei-74"/>
      <use xlink:href="#SimHei-72" x="50"/>
      <use xlink:href="#SimHei-61" x="100"/>
      <use xlink:href="#SimHei-69" x="150"/>
      <use xlink:href="#SimHei-6e" x="200"/>
     </g>
    </g>
    <g id="line2d_36">
     <path d="M 391.6 68.95 
L 401.6 68.95 
L 411.6 68.95 
" style="fill: none; stroke-dasharray: 5.55,2.4; stroke-dashoffset: 0; stroke: #bf00bf; stroke-width: 1.5"/>
    </g>
    <g id="text_20">
     <!-- valid -->
     <g transform="translate(419.6 72.45)scale(0.1 -0.1)">
      <defs>
       <path id="SimHei-76" d="M 2875 2925 
L 1825 75 
L 1275 75 
L 225 2925 
L 750 2925 
L 1525 750 
L 1575 750 
L 2350 2925 
L 2875 2925 
z
" transform="scale(0.015625)"/>
      </defs>
      <use xlink:href="#SimHei-76"/>
      <use xlink:href="#SimHei-61" x="50"/>
      <use xlink:href="#SimHei-6c" x="100"/>
      <use xlink:href="#SimHei-69" x="150"/>
      <use xlink:href="#SimHei-64" x="200"/>
     </g>
    </g>
   </g>
  </g>
 </g>
 <defs>
  <clipPath id="p7aead8d881">
   <rect x="63" y="43.2" width="390.6" height="277.2"/>
  </clipPath>
 </defs>
</svg>
